<?xml version="1.0" encoding="utf-8"?>
<!-- Generator: Adobe Illustrator 22.0.1, SVG Export Plug-In . SVG Version: 6.00 Build 0)  -->
<svg version="1.1" id="Layer_1" xmlns="http://www.w3.org/2000/svg" xmlns:xlink="http://www.w3.org/1999/xlink" x="0px" y="0px"
	 viewBox="0 0 555 371" style="enable-background:new 0 0 555 371;" xml:space="preserve">
<style type="text/css">
	.st0{fill:#46BC93;}
	.st1{fill:#FFFFFF;}
</style>
<g>
	<g>
		<path class="st0" d="M384.2,80.8C356,52.6,318.4,37,278.5,37S201,52.6,172.8,80.8C144.6,109,129,146.6,129,186.5
			s15.6,77.5,43.8,105.7C201,320.4,238.6,336,278.5,336s77.5-15.6,105.7-43.8C412.4,264,428,226.4,428,186.5S412.4,109,384.2,80.8z
			 M418.4,181.7h-28.6c-1.1-27.1-12-51.7-29.2-70.5L380.7,91C403.1,115,417.2,146.7,418.4,181.7z M278.5,46.5
			c36.9,0,70.5,14.3,95.5,37.7l-20.2,20.2c-19.8-18.2-46.3-29.3-75.2-29.3s-55.4,11.1-75.2,29.3L183,84.3
			C208,60.9,241.6,46.5,278.5,46.5z M176.3,91l20.2,20.2c-17.2,18.7-28.1,43.4-29.2,70.5h-28.6C139.8,146.7,153.9,115,176.3,91z
			 M213.3,264.6c-2-1.7-5-1.4-6.7,0.6c-1.7,2-1.4,5,0.6,6.7c18.8,15.7,42.2,24.8,66.6,25.8v28.6c-73.4-2.5-132.6-61.7-135.1-135.1
			h28.6c1.1,24.3,10.1,47.8,25.8,66.6c1.7,2,4.7,2.3,6.7,0.6c2-1.7,2.3-4.7,0.6-6.7c-15.3-18.3-23.7-41.4-23.7-65.2
			c0-56.1,45.7-101.8,101.8-101.8s101.8,45.7,101.8,101.8s-45.7,101.8-101.8,101.8C254.7,288.3,231.6,279.9,213.3,264.6z
			 M283.3,326.4v-28.6c42.6-1.8,79-27.6,96.2-64.3l26.5,11C384.4,291.4,337.8,324.5,283.3,326.4z M409.6,235.6l-26.5-11
			c3.8-10.5,6.1-21.7,6.6-33.4h28.6C417.8,206.8,414.8,221.7,409.6,235.6z"/>
	</g>
</g>
<g>
	<g>
		<path class="st0" d="M278.5,100.6c-47.4,0-85.9,38.5-85.9,85.9s38.5,85.9,85.9,85.9s85.9-38.5,85.9-85.9S325.9,100.6,278.5,100.6z
			 M354.7,181.7h-44.4c-0.2-12.7-1.4-24.9-3.5-35.8c9.1-3.2,17.6-7.8,25.2-13.9C345,144.8,353.5,162.3,354.7,181.7z M324.6,125.7
			c-6.1,4.6-12.8,8.3-19.9,10.9c-0.8-3.1-1.6-6.1-2.6-8.9c-2.1-6.3-4.5-11.6-7.1-15.7C305.9,114.4,315.9,119.1,324.6,125.7z
			 M256.3,181.7c0.2-11.8,1.3-23,3.2-33.2c6.2,1.4,12.6,2.1,19.1,2.1s12.8-0.7,19.1-2.1c1.8,10.1,2.9,21.4,3.2,33.2H256.3z
			 M300.7,191.3c-0.2,11.8-1.3,23-3.2,33.2c-6.2-1.4-12.6-2.1-19.1-2.1s-12.8,0.7-19.1,2.1c-1.8-10.1-2.9-21.4-3.2-33.2H300.7z
			 M278.5,110.2c3.7,0,9.5,5.4,14.6,20.5c0.9,2.7,1.7,5.6,2.5,8.6c-5.6,1.3-11.3,1.9-17.1,1.9c-5.8,0-11.5-0.7-17.1-1.9
			c0.7-3,1.6-5.9,2.5-8.6C269,115.6,274.8,110.2,278.5,110.2z M262,112c-2.6,4.1-5,9.4-7.1,15.7c-0.9,2.8-1.8,5.8-2.6,8.9
			c-7.1-2.6-13.8-6.2-19.9-10.9C241.1,119.1,251.1,114.4,262,112z M225.1,132c7.6,6.1,16.1,10.7,25.2,13.9
			c-2.1,10.9-3.3,23.1-3.5,35.8h-44.4C203.5,162.3,212,144.8,225.1,132z M202.3,191.3h44.4c0.2,12.7,1.4,24.9,3.5,35.8
			c-9.1,3.2-17.6,7.8-25.2,13.9C212,228.2,203.5,210.7,202.3,191.3z M232.4,247.3c6.1-4.6,12.8-8.3,19.9-10.9
			c0.8,3.1,1.6,6.1,2.6,8.9c2.1,6.3,4.5,11.6,7.1,15.7C251.1,258.6,241.1,253.9,232.4,247.3z M278.5,262.8c-3.7,0-9.5-5.4-14.6-20.5
			c-0.9-2.7-1.7-5.6-2.5-8.6c5.6-1.3,11.3-1.9,17.1-1.9c5.8,0,11.5,0.7,17.1,1.9c-0.7,3-1.6,5.9-2.5,8.6
			C288,257.4,282.2,262.8,278.5,262.8z M295,261c2.6-4.1,5-9.4,7.1-15.7c0.9-2.8,1.8-5.8,2.6-8.9c7.1,2.6,13.8,6.2,19.9,10.9
			C315.9,253.9,305.9,258.6,295,261z M331.9,241c-7.6-6.1-16.1-10.7-25.2-13.9c2.1-10.9,3.3-23.1,3.5-35.8h44.4
			C353.5,210.7,345,228.2,331.9,241z"/>
	</g>
</g>
<g>
	<circle class="st1" cx="278.2" cy="41.2" r="16.8"/>
	<path class="st0" d="M278.2,61c-10.9,0-19.8-8.9-19.8-19.8s8.9-19.8,19.8-19.8c10.9,0,19.8,8.9,19.8,19.8S289.1,61,278.2,61z
		 M278.2,27.5c-7.6,0-13.8,6.2-13.8,13.8S270.7,55,278.2,55c7.6,0,13.8-6.2,13.8-13.8S285.8,27.5,278.2,27.5z"/>
</g>
<g>
	<circle class="st1" cx="167.2" cy="282.2" r="16.8"/>
	<path class="st0" d="M167.2,302c-10.9,0-19.8-8.9-19.8-19.8s8.9-19.8,19.8-19.8c10.9,0,19.8,8.9,19.8,19.8S178.1,302,167.2,302z
		 M167.2,268.5c-7.6,0-13.8,6.2-13.8,13.8s6.2,13.8,13.8,13.8c7.6,0,13.8-6.2,13.8-13.8S174.8,268.5,167.2,268.5z"/>
</g>
<g>
	<circle class="st1" cx="388.2" cy="278.2" r="16.8"/>
	<path class="st0" d="M388.2,298c-10.9,0-19.8-8.9-19.8-19.8s8.9-19.8,19.8-19.8c10.9,0,19.8,8.9,19.8,19.8S399.1,298,388.2,298z
		 M388.2,264.5c-7.6,0-13.8,6.2-13.8,13.8s6.2,13.8,13.8,13.8c7.6,0,13.8-6.2,13.8-13.8S395.8,264.5,388.2,264.5z"/>
</g>
<g>
	<rect x="142.6" y="112" class="st0" width="10.8" height="10.8"/>
	<rect x="142.6" y="133.2" class="st0" width="10.8" height="10.8"/>
	<rect x="131.5" y="122.8" class="st0" width="10.8" height="10.8"/>
	<rect x="153.4" y="122.8" class="st0" width="10.8" height="10.8"/>
</g>
<g>
	<rect x="345.6" y="140" class="st0" width="10.8" height="10.8"/>
	<rect x="345.6" y="161.2" class="st0" width="10.8" height="10.8"/>
	<rect x="334.5" y="150.8" class="st0" width="10.8" height="10.8"/>
	<rect x="356.4" y="150.8" class="st0" width="10.8" height="10.8"/>
</g>
<g>
	<rect x="198.6" y="204" class="st0" width="10.8" height="10.8"/>
	<rect x="198.6" y="225.2" class="st0" width="10.8" height="10.8"/>
	<rect x="187.5" y="214.8" class="st0" width="10.8" height="10.8"/>
	<rect x="209.4" y="214.8" class="st0" width="10.8" height="10.8"/>
</g>
<g>
	<rect x="87.6" y="26" class="st0" width="10.8" height="10.8"/>
	<rect x="87.6" y="47.2" class="st0" width="10.8" height="10.8"/>
	<rect x="76.5" y="36.8" class="st0" width="10.8" height="10.8"/>
	<rect x="98.4" y="36.8" class="st0" width="10.8" height="10.8"/>
</g>
<g>
	<rect x="78.6" y="247" class="st0" width="10.8" height="10.8"/>
	<rect x="78.6" y="268.2" class="st0" width="10.8" height="10.8"/>
	<rect x="67.5" y="257.8" class="st0" width="10.8" height="10.8"/>
	<rect x="89.4" y="257.8" class="st0" width="10.8" height="10.8"/>
</g>
<g>
	<rect x="356.6" y="10" class="st0" width="10.8" height="10.8"/>
	<rect x="356.6" y="31.2" class="st0" width="10.8" height="10.8"/>
	<rect x="345.5" y="20.8" class="st0" width="10.8" height="10.8"/>
	<rect x="367.4" y="20.8" class="st0" width="10.8" height="10.8"/>
</g>
<g>
	<rect x="378.6" y="327" class="st0" width="10.8" height="10.8"/>
	<rect x="378.6" y="348.2" class="st0" width="10.8" height="10.8"/>
	<rect x="367.5" y="337.8" class="st0" width="10.8" height="10.8"/>
	<rect x="389.4" y="337.8" class="st0" width="10.8" height="10.8"/>
</g>
<g>
	<rect x="457.6" y="161" class="st0" width="10.8" height="10.8"/>
	<rect x="457.6" y="182.2" class="st0" width="10.8" height="10.8"/>
	<rect x="446.5" y="171.8" class="st0" width="10.8" height="10.8"/>
	<rect x="468.4" y="171.8" class="st0" width="10.8" height="10.8"/>
</g>
</svg>
