<?xml version="1.0" encoding="utf-8"?>
<!-- Generator: Adobe Illustrator 23.0.1, SVG Export Plug-In . SVG Version: 6.00 Build 0)  -->
<svg version="1.1" id="Layer_1" xmlns="http://www.w3.org/2000/svg" xmlns:xlink="http://www.w3.org/1999/xlink" x="0px" y="0px"
	 viewBox="0 0 120 42" style="enable-background:new 0 0 120 42;" xml:space="preserve">
<style type="text/css">
	.st0{fill:#AAB2AB;}
	.st1{fill:#FFFFFF;}
	.st2{fill-rule:evenodd;clip-rule:evenodd;}
</style>
<g id="surface1">
	<path class="st0" d="M3.4,0.4l113.4,0.2c1.6,0,3-0.2,3,3.2l-0.1,37.3H0.5V3.7C0.5,2,0.7,0.4,3.4,0.4z"/>
	<path d="M117.8,0H2.2C1,0,0,1,0,2.2v39.2C0,41.8,0.2,42,0.5,42h119c0.3,0,0.5-0.2,0.5-0.5V2.2C120,1,119,0,117.8,0z M2.2,1h115.5
		c0.7,0,1.2,0.6,1.2,1.2c0,0,0,15.8,0,27.2H36.4c-3,5.5-8.9,9.2-15.5,9.2c-6.7,0-12.5-3.7-15.5-9.2H1C1,18,1,2.2,1,2.2
		C1,1.6,1.6,1,2.2,1z"/>
	<path class="st1" d="M34.5,19.5c0,7.5-6.1,13.6-13.6,13.6c-7.5,0-13.6-6.1-13.6-13.6c0,0,0,0,0,0c0-7.5,6.1-13.6,13.6-13.6
		C28.4,5.9,34.5,12,34.5,19.5C34.5,19.5,34.5,19.5,34.5,19.5z"/>
	<path d="M32,8.4c3,3,4.5,6.7,4.5,11.1c0,4.4-1.5,8-4.5,11c-3.2,3.1-6.9,4.7-11.2,4.7c-4.2,0-7.9-1.5-11-4.6
		c-3.1-3.1-4.6-6.8-4.6-11c0-4.3,1.5-8,4.6-11.1c3-3,6.7-4.5,11-4.5C25.2,3.9,28.9,5.4,32,8.4z M11.9,10.5c-2.6,2.6-3.8,5.6-3.8,9.1
		c0,3.5,1.3,6.5,3.8,9c2.5,2.5,5.5,3.8,9,3.8c3.5,0,6.5-1.3,9.1-3.8c2.4-2.4,3.7-5.4,3.7-9c0-3.6-1.2-6.6-3.7-9.1
		c-2.5-2.5-5.5-3.7-9.1-3.7S14.4,8,11.9,10.5z M18.6,18c-0.4-0.9-1-1.3-1.8-1.3c-1.4,0-2.1,0.9-2.1,2.8s0.7,2.8,2.1,2.8
		c0.9,0,1.6-0.5,1.9-1.4l1.9,1c-0.9,1.6-2.3,2.4-4.1,2.4c-1.4,0-2.5-0.4-3.4-1.3c-0.8-0.9-1.3-2.1-1.3-3.6c0-1.5,0.4-2.7,1.3-3.5
		s2-1.3,3.3-1.3c1.9,0,3.3,0.8,4.1,2.3L18.6,18z M27.6,18c-0.4-0.9-1-1.3-1.7-1.3c-1.4,0-2.1,0.9-2.1,2.8s0.7,2.8,2.1,2.8
		c0.9,0,1.6-0.5,1.9-1.4l2,1c-0.9,1.6-2.3,2.4-4.1,2.4c-1.4,0-2.5-0.4-3.4-1.3c-0.8-0.9-1.3-2.1-1.3-3.6c0-1.5,0.4-2.7,1.3-3.5
		c0.9-0.9,1.9-1.3,3.3-1.3c1.9,0,3.3,0.8,4.1,2.3L27.6,18z"/>
	<path class="st1" d="M48.1,32.7c0.3,0,0.6,0,0.9,0.1c0.3,0.1,0.5,0.1,0.7,0.3c0.2,0.1,0.3,0.3,0.4,0.5s0.2,0.5,0.2,0.8
		c0,0.3-0.1,0.6-0.2,0.8s-0.4,0.4-0.7,0.5c0.4,0.1,0.7,0.3,0.9,0.6c0.2,0.3,0.3,0.6,0.3,1.1c0,0.3-0.1,0.6-0.2,0.9
		c-0.1,0.2-0.3,0.4-0.5,0.6c-0.2,0.2-0.5,0.3-0.8,0.3c-0.3,0.1-0.6,0.1-0.9,0.1H45v-6.6H48.1z M47.9,35.4c0.3,0,0.5-0.1,0.6-0.2
		c0.2-0.1,0.3-0.3,0.3-0.6c0-0.2,0-0.3-0.1-0.4c-0.1-0.1-0.1-0.2-0.2-0.2c-0.1-0.1-0.2-0.1-0.3-0.1c-0.1,0-0.2,0-0.4,0h-1.4v1.5
		H47.9z M48,38.2c0.1,0,0.3,0,0.4,0c0.1,0,0.2-0.1,0.3-0.1c0.1-0.1,0.2-0.2,0.2-0.3c0.1-0.1,0.1-0.3,0.1-0.4c0-0.3-0.1-0.6-0.3-0.7
		s-0.4-0.2-0.8-0.2h-1.6v1.8H48z"/>
	<path class="st1" d="M50.8,32.7h1.6l1.6,2.6l1.5-2.6h1.6l-2.5,4.1v2.5h-1.5v-2.6L50.8,32.7z"/>
	<path class="st1" d="M72.5,32.7l2.8,4.4h0v-4.4h1.4v6.6h-1.5l-2.8-4.4h0v4.4h-1.4v-6.6H72.5z"/>
	<path class="st1" d="M82.2,34.5c-0.1-0.1-0.2-0.3-0.3-0.4c-0.1-0.1-0.3-0.2-0.4-0.2s-0.3-0.1-0.5-0.1c-0.3,0-0.6,0.1-0.8,0.2
		c-0.2,0.1-0.4,0.3-0.6,0.5c-0.1,0.2-0.2,0.5-0.3,0.7c-0.1,0.3-0.1,0.6-0.1,0.8c0,0.3,0,0.6,0.1,0.8c0.1,0.3,0.2,0.5,0.3,0.7
		c0.1,0.2,0.3,0.4,0.6,0.5c0.2,0.1,0.5,0.2,0.8,0.2c0.4,0,0.8-0.1,1-0.4s0.4-0.6,0.5-1.1h1.4c0,0.4-0.1,0.8-0.3,1.1
		c-0.2,0.3-0.4,0.6-0.6,0.9c-0.3,0.2-0.5,0.4-0.9,0.5c-0.3,0.1-0.7,0.2-1.1,0.2c-0.5,0-1-0.1-1.4-0.3c-0.4-0.2-0.8-0.4-1-0.7
		c-0.3-0.3-0.5-0.7-0.6-1.1s-0.2-0.9-0.2-1.4c0-0.5,0.1-1,0.2-1.4c0.1-0.4,0.4-0.8,0.6-1.1c0.3-0.3,0.6-0.6,1-0.7
		c0.4-0.2,0.9-0.3,1.4-0.3c0.4,0,0.7,0.1,1,0.2s0.6,0.3,0.9,0.5c0.3,0.2,0.5,0.4,0.6,0.7s0.3,0.6,0.3,1h-1.4
		C82.3,34.8,82.3,34.6,82.2,34.5z"/>
	<path class="st1" d="M98.4,32.7l2.8,4.4h0v-4.4h1.4v6.6H101l-2.8-4.4h0v4.4h-1.4v-6.6H98.4z"/>
	<path class="st1" d="M106.6,32.7c0.4,0,0.8,0.1,1.2,0.2c0.4,0.1,0.7,0.3,1,0.6c0.3,0.3,0.5,0.6,0.6,1c0.2,0.4,0.2,0.9,0.2,1.4
		c0,0.5-0.1,0.9-0.2,1.3c-0.1,0.4-0.3,0.8-0.6,1.1s-0.6,0.5-0.9,0.7c-0.4,0.2-0.8,0.3-1.3,0.3h-2.9v-6.6H106.6z M106.5,38.1
		c0.2,0,0.4,0,0.6-0.1c0.2-0.1,0.4-0.2,0.5-0.3c0.2-0.2,0.3-0.4,0.4-0.6s0.1-0.6,0.1-0.9c0-0.3,0-0.6-0.1-0.9
		c-0.1-0.3-0.2-0.5-0.3-0.7s-0.3-0.3-0.6-0.4s-0.5-0.2-0.9-0.2h-1v4.2H106.5z"/>
	<path class="st1" d="M87.8,15c0,5.5-4.4,10-10,10c-5.5,0-10-4.5-10-10c0,0,0,0,0,0c0-5.5,4.4-10,10-10C83.3,5,87.8,9.5,87.8,15
		C87.8,15,87.8,15,87.8,15z"/>
	<path d="M77.8,3.4c3.3,0,6,1.1,8.2,3.4c2.2,2.2,3.4,5,3.4,8.2s-1.1,6-3.3,8.1c-2.3,2.3-5.1,3.4-8.3,3.4c-3.2,0-5.9-1.1-8.2-3.4
		c-2.3-2.3-3.4-5-3.4-8.2c0-3.2,1.1-5.9,3.4-8.2C71.9,4.5,74.6,3.4,77.8,3.4z M68.9,11.9c-0.3,1-0.5,2-0.5,3.1
		c0,2.6,0.9,4.8,2.8,6.7c1.9,1.9,4.1,2.8,6.7,2.8s4.8-0.9,6.8-2.8c0.6-0.6,1.2-1.3,1.6-2l-4.4-1.9c-0.3,1.5-1.6,2.5-3.2,2.6V22h-1.3
		v-1.8c-1.3,0-2.6-0.5-3.5-1.4l1.6-1.6c0.8,0.7,1.5,1,2.6,1c0.7,0,1.4-0.3,1.4-1.2c0-0.3-0.1-0.5-0.3-0.7L78,15.9l-1.4-0.6
		c-0.7-0.3-1.3-0.6-1.8-0.8L68.9,11.9z M77.9,5.5c-2.6,0-4.9,0.9-6.7,2.8c-0.5,0.5-0.9,1-1.3,1.6l4.4,2c0.4-1.2,1.6-2,3-2.1V7.9h1.3
		v1.8c0.9,0,1.9,0.3,2.9,1.1L80,12.4c-0.6-0.4-1.3-0.7-2-0.7c-0.6,0-1.4,0.2-1.4,0.9c0,0.1,0,0.2,0.1,0.3l1.5,0.7l1,0.4
		c0.6,0.3,1.3,0.6,1.9,0.8l5.9,2.6c0.2-0.8,0.3-1.6,0.3-2.5c0-2.6-0.9-4.9-2.8-6.7C82.7,6.4,80.5,5.5,77.9,5.5z"/>
	<path class="st1" d="M114.7,15c0,5.8-4.7,10.6-10.6,10.6c-5.8,0-10.6-4.7-10.6-10.6c0,0,0,0,0,0c0-5.8,4.7-10.6,10.6-10.6
		C109.9,4.4,114.7,9.1,114.7,15C114.7,15,114.7,15,114.7,15z"/>
	<path d="M103.9,3.4c-3.2,0-5.9,1.1-8.2,3.4c-2.3,2.3-3.4,5.1-3.4,8.2s1.1,5.9,3.4,8.2c2.3,2.3,5,3.4,8.2,3.4c3.2,0,6-1.1,8.3-3.4
		c2.2-2.2,3.3-4.9,3.3-8.1s-1.1-6-3.4-8.2C109.9,4.5,107.2,3.4,103.9,3.4z M103.9,5.5c2.6,0,4.9,0.9,6.7,2.8
		c1.9,1.8,2.8,4.1,2.8,6.7c0,2.7-0.9,4.9-2.7,6.6c-1.9,1.9-4.2,2.8-6.8,2.8s-4.8-0.9-6.7-2.8c-1.9-1.9-2.8-4.1-2.8-6.7
		s0.9-4.8,2.8-6.7C99.1,6.4,101.3,5.5,103.9,5.5z"/>
	<path d="M108.3,12.2h-8.4v2h8.4V12.2z M108.3,16h-8.4v2h8.4V16z"/>
	<path class="st1" d="M62.5,15.2c0,5.9-4.8,10.7-10.7,10.7C45.8,26,41,21.1,41,15.2c0-5.9,4.8-10.7,10.7-10.7
		C57.7,4.5,62.5,9.3,62.5,15.2z"/>
	<path d="M54.9,12.1c0-0.4-0.3-0.8-0.8-0.8h-4.7c-0.4,0-0.8,0.3-0.8,0.8v4.7H50v5.6h3.6v-5.6h1.3V12.1z"/>
	<path d="M53.4,9.1c0,0.9-0.7,1.6-1.6,1.6c-0.9,0-1.6-0.7-1.6-1.6c0-0.9,0.7-1.6,1.6-1.6C52.6,7.5,53.4,8.2,53.4,9.1z"/>
	<path class="st2" d="M51.7,3.4c-3.2,0-5.9,1.1-8.2,3.4c-2.3,2.3-3.4,5.1-3.4,8.2s1.1,5.9,3.4,8.2c2.3,2.3,5,3.4,8.2,3.4
		c3.2,0,6-1.1,8.3-3.4c2.2-2.2,3.3-4.9,3.3-8.1S62.2,9,60,6.8C57.7,4.5,55,3.4,51.7,3.4z M51.8,5.5c2.6,0,4.9,0.9,6.7,2.8
		c1.9,1.8,2.8,4.1,2.8,6.7c0,2.7-0.9,4.9-2.7,6.6c-1.9,1.9-4.2,2.8-6.8,2.8s-4.8-0.9-6.7-2.8c-1.9-1.9-2.8-4.1-2.8-6.7
		s0.9-4.8,2.8-6.7C46.9,6.4,49.1,5.5,51.8,5.5z"/>
</g>
</svg>
