<?xml version="1.0" encoding="utf-8"?>
<!-- Generator: Adobe Illustrator 23.0.1, SVG Export Plug-In . SVG Version: 6.00 Build 0)  -->
<svg version="1.1"
	 id="svg2759" inkscape:version="0.45+devel" sodipodi:docname="by-nc.svg" sodipodi:version="0.32" xmlns:cc="http://web.resource.org/cc/" xmlns:dc="http://purl.org/dc/elements/1.1/" xmlns:inkscape="http://www.inkscape.org/namespaces/inkscape" xmlns:rdf="http://www.w3.org/1999/02/22-rdf-syntax-ns#" xmlns:sodipodi="http://sodipodi.sourceforge.net/DTD/sodipodi-0.dtd" xmlns:svg="http://www.w3.org/2000/svg"
	 xmlns="http://www.w3.org/2000/svg" xmlns:xlink="http://www.w3.org/1999/xlink" x="0px" y="0px" viewBox="0 0 120 42"
	 style="enable-background:new 0 0 120 42;" xml:space="preserve">
<style type="text/css">
	.st0{fill:#AAB2AB;}
	.st1{fill:#FFFFFF;}
	.st2{enable-background:new    ;}
	.st3{fill-rule:evenodd;clip-rule:evenodd;}
</style>
<sodipodi:namedview  bordercolor="#8b8b8b" borderopacity="1" gridtolerance="10000" guidetolerance="10" height="42px" id="base" inkscape:current-layer="layer1" inkscape:cx="179" inkscape:cy="89.569904" inkscape:document-units="px" inkscape:pageopacity="0.0" inkscape:pageshadow="2" inkscape:showpageshadow="false" inkscape:window-height="624" inkscape:window-width="1198" inkscape:window-x="488" inkscape:window-y="401" inkscape:zoom="1" objecttolerance="10" pagecolor="#ffffff" width="120px">
	</sodipodi:namedview>
<g id="layer1" inkscape:groupmode="layer" inkscape:label="Layer 1">
	
		<g id="g325" transform="matrix(0.9937808,0,0,0.9936927,-177.69414,-148.87729)" inkscape:export-filename="/mnt/hgfs/Bov/Documents/Work/2007/cc/identity/srr buttons/big/by-nc.png" inkscape:export-xdpi="300.23013" inkscape:export-ydpi="300.23013">
		<path id="path3817_3_" class="st0" d="M182.2,150.3l114.1,0.2c1.6,0,3-0.2,3,3.2l-0.1,37.6H179.4v-37.7
			C179.4,151.8,179.5,150.3,182.2,150.3z"/>
		<g id="g5908_3_" transform="matrix(0.872921,0,0,0.872921,50.12536,143.2144)">
			<path id="path5906_3_" class="st1" d="M187.2,30.1c0,8.7-7,15.7-15.7,15.7c-8.7,0-15.7-7-15.7-15.7c0,0,0,0,0,0
				c0-8.7,7-15.7,15.7-15.7C180.2,14.4,187.2,21.4,187.2,30.1C187.2,30.1,187.2,30.1,187.2,30.1z"/>
			<g id="g5706_3_" transform="translate(-289.6157,99.0653)">
				<path id="path5708_3_" d="M473.9-81.8c3.5,3.5,5.2,7.8,5.2,12.8c0,5-1.7,9.3-5.1,12.7c-3.6,3.6-7.9,5.4-12.9,5.4
					c-4.9,0-9.1-1.8-12.7-5.3c-3.5-3.5-5.3-7.8-5.3-12.7c0-4.9,1.8-9.2,5.3-12.8c3.5-3.5,7.7-5.2,12.7-5.2
					C466.1-87,470.4-85.3,473.9-81.8z M450.8-79.4c-2.9,3-4.4,6.5-4.4,10.5c0,4,1.5,7.5,4.4,10.4c2.9,2.9,6.4,4.4,10.4,4.4
					c4,0,7.5-1.5,10.5-4.4c2.8-2.7,4.2-6.2,4.2-10.3c0-4.1-1.4-7.6-4.3-10.5c-2.9-2.9-6.3-4.3-10.4-4.3
					C457-83.8,453.6-82.3,450.8-79.4z M458.5-70.7c-0.5-1-1.1-1.5-2-1.5c-1.6,0-2.4,1.1-2.4,3.2c0,2.1,0.8,3.2,2.4,3.2
					c1,0,1.8-0.5,2.2-1.6l2.2,1.2c-1,1.9-2.6,2.8-4.7,2.8c-1.6,0-2.9-0.5-3.9-1.5c-1-1-1.5-2.4-1.5-4.1c0-1.7,0.5-3.1,1.5-4.1
					c1-1,2.3-1.5,3.8-1.5c2.2,0,3.8,0.9,4.8,2.6L458.5-70.7z M468.9-70.7c-0.5-1-1.1-1.5-2-1.5c-1.6,0-2.4,1.1-2.4,3.2
					c0,2.1,0.8,3.2,2.4,3.2c1.1,0,1.8-0.5,2.2-1.6l2.3,1.2c-1,1.9-2.6,2.8-4.7,2.8c-1.6,0-2.9-0.5-3.9-1.5c-1-1-1.5-2.4-1.5-4.1
					c0-1.7,0.5-3.1,1.5-4.1c1-1,2.2-1.5,3.8-1.5c2.2,0,3.8,0.9,4.8,2.6L468.9-70.7z"/>
			</g>
		</g>
		<path id="path332" d="M297.3,149.8H181.1c-1.2,0-2.3,1-2.3,2.3v39.5c0,0.3,0.2,0.5,0.5,0.5H299c0.3,0,0.5-0.2,0.5-0.5v-39.5
			C299.6,150.8,298.5,149.8,297.3,149.8z M181.1,150.8h116.2c0.7,0,1.2,0.6,1.2,1.2c0,0,0,15.9,0,27.4h-83.1
			c-3,5.5-8.9,9.2-15.6,9.2c-6.7,0-12.6-3.7-15.6-9.2h-4.3c0-11.5,0-27.4,0-27.4C179.8,151.4,180.4,150.8,181.1,150.8z"/>
		<g id="g334" class="st2">
			<path id="path336" class="st1" d="M239.2,182.8c0.3,0,0.6,0,0.9,0.1c0.3,0.1,0.5,0.1,0.7,0.3c0.2,0.1,0.3,0.3,0.4,0.5
				c0.1,0.2,0.2,0.5,0.2,0.8c0,0.3-0.1,0.6-0.2,0.8c-0.2,0.2-0.4,0.4-0.7,0.6c0.4,0.1,0.7,0.3,0.9,0.6c0.2,0.3,0.3,0.7,0.3,1.1
				c0,0.3-0.1,0.6-0.2,0.9c-0.1,0.2-0.3,0.4-0.5,0.6c-0.2,0.2-0.5,0.3-0.8,0.3c-0.3,0.1-0.6,0.1-0.9,0.1H236v-6.7L239.2,182.8
				L239.2,182.8z M239,185.5c0.3,0,0.5-0.1,0.6-0.2c0.2-0.1,0.3-0.3,0.3-0.6c0-0.2,0-0.3-0.1-0.4c-0.1-0.1-0.1-0.2-0.2-0.2
				c-0.1-0.1-0.2-0.1-0.3-0.1c-0.1,0-0.2,0-0.4,0h-1.4v1.6H239z M239.1,188.3c0.1,0,0.3,0,0.4,0c0.1,0,0.2-0.1,0.3-0.1
				c0.1-0.1,0.2-0.2,0.2-0.3c0.1-0.1,0.1-0.3,0.1-0.4c0-0.3-0.1-0.6-0.3-0.7c-0.2-0.1-0.4-0.2-0.8-0.2h-1.6v1.8H239.1L239.1,188.3z"
				/>
			<path id="path338" class="st1" d="M241.9,182.8h1.6l1.6,2.6l1.6-2.6h1.6l-2.5,4.1v2.6h-1.5v-2.6L241.9,182.8z"/>
		</g>
		<g id="g340" class="st2">
			<path id="path342" class="st1" d="M265.8,182.8l2.8,4.5h0v-4.5h1.4v6.7h-1.5l-2.8-4.5h0v4.5h-1.4v-6.7H265.8z"/>
			<path id="path344" class="st1" d="M275.5,184.6c-0.1-0.1-0.2-0.3-0.3-0.4s-0.3-0.2-0.4-0.2c-0.2-0.1-0.3-0.1-0.5-0.1
				c-0.3,0-0.6,0.1-0.8,0.2c-0.2,0.1-0.4,0.3-0.6,0.5c-0.1,0.2-0.2,0.5-0.3,0.7s-0.1,0.6-0.1,0.8c0,0.3,0,0.6,0.1,0.8
				c0.1,0.3,0.2,0.5,0.3,0.7c0.1,0.2,0.3,0.4,0.6,0.5s0.5,0.2,0.8,0.2c0.4,0,0.8-0.1,1-0.4c0.3-0.3,0.4-0.6,0.5-1.1h1.4
				c0,0.4-0.1,0.8-0.3,1.1c-0.2,0.3-0.4,0.6-0.6,0.9c-0.3,0.2-0.6,0.4-0.9,0.5c-0.3,0.1-0.7,0.2-1.1,0.2c-0.5,0-1-0.1-1.4-0.3
				c-0.4-0.2-0.8-0.4-1-0.7c-0.3-0.3-0.5-0.7-0.6-1.1c-0.1-0.4-0.2-0.9-0.2-1.4c0-0.5,0.1-1,0.2-1.4c0.1-0.4,0.4-0.8,0.6-1.1
				c0.3-0.3,0.6-0.6,1-0.7c0.4-0.2,0.9-0.3,1.4-0.3c0.4,0,0.7,0.1,1,0.2c0.3,0.1,0.6,0.3,0.9,0.5c0.3,0.2,0.5,0.5,0.6,0.8
				s0.3,0.6,0.3,1h-1.4C275.7,184.8,275.6,184.7,275.5,184.6z"/>
		</g>
		<g id="g6379_1_" transform="matrix(1.146822,0,0,1.146822,457.9375,166.153)">
			<path id="path6381_1_" class="st1" d="M-154.1-1.1c0,4.8-3.9,8.7-8.7,8.7c-4.8,0-8.7-3.9-8.7-8.7c0,0,0,0,0,0
				c0-4.8,3.9-8.7,8.7-8.7C-158.1-9.8-154.1-5.9-154.1-1.1C-154.1-1.1-154.1-1.1-154.1-1.1z"/>
			<path id="path6383_1_" d="M-162.9-11.3c2.9,0,5.3,1,7.2,3c2,2,3,4.4,3,7.2c0,2.8-1,5.2-2.9,7.1c-2.1,2-4.5,3-7.3,3
				c-2.8,0-5.2-1-7.2-3c-2-2-3-4.4-3-7.2c0-2.8,1-5.2,3-7.2C-168.1-10.3-165.7-11.3-162.9-11.3z M-170.8-3.8
				c-0.3,0.9-0.5,1.8-0.5,2.7c0,2.3,0.8,4.2,2.5,5.9c1.6,1.6,3.6,2.5,5.9,2.5c2.3,0,4.3-0.8,5.9-2.5c0.6-0.5,1-1.1,1.4-1.8l-3.8-1.7
				c-0.3,1.3-1.4,2.2-2.8,2.3v1.6h-1.2V3.5c-1.1,0-2.2-0.5-3.1-1.2l1.4-1.4c0.7,0.6,1.4,0.9,2.3,0.9c0.6,0,1.3-0.2,1.3-1
				c0-0.3-0.1-0.5-0.3-0.6l-1-0.4l-1.2-0.5c-0.6-0.3-1.1-0.5-1.6-0.7L-170.8-3.8z M-162.9-9.4c-2.3,0-4.3,0.8-5.9,2.4
				c-0.4,0.4-0.8,0.9-1.1,1.4l3.9,1.7c0.4-1.1,1.4-1.7,2.6-1.8v-1.6h1.2v1.6c0.8,0,1.7,0.3,2.6,0.9l-1.3,1.4
				c-0.5-0.3-1.1-0.6-1.7-0.6c-0.5,0-1.2,0.2-1.2,0.8c0,0.1,0,0.2,0.1,0.3l1.3,0.6l0.9,0.4c0.6,0.3,1.1,0.5,1.6,0.7l5.2,2.3
				c0.2-0.7,0.3-1.4,0.3-2.2c0-2.3-0.8-4.3-2.4-5.9C-158.6-8.6-160.6-9.4-162.9-9.4z"/>
		</g>
		<g id="g349">
			
				<circle id="circle351" sodipodi:cx="242.56226" sodipodi:cy="165.13574" sodipodi:rx="10.8064" sodipodi:ry="10.8064" class="st1" cx="242.6" cy="165.1" r="10.8">
			</circle>
			<g id="g353">
				<path id="path355" d="M245.7,162c0-0.4-0.3-0.8-0.8-0.8h-4.8c-0.4,0-0.8,0.3-0.8,0.8v4.8h1.3v5.7h3.6v-5.7h1.3L245.7,162
					L245.7,162z"/>
				
					<circle id="circle357" sodipodi:cx="242.5498" sodipodi:cy="158.99463" sodipodi:rx="1.63232" sodipodi:ry="1.63232" cx="242.5" cy="159" r="1.6">
				</circle>
			</g>
			<path id="path359" class="st3" d="M242.5,153.2c-3.2,0-6,1.1-8.2,3.4c-2.3,2.3-3.4,5.1-3.4,8.3s1.1,5.9,3.4,8.2
				c2.3,2.3,5,3.4,8.2,3.4c3.2,0,6-1.2,8.4-3.5c2.2-2.2,3.3-4.9,3.3-8.2c0-3.3-1.1-6-3.4-8.3C248.6,154.4,245.8,153.2,242.5,153.2z
				 M242.6,155.3c2.6,0,4.9,0.9,6.7,2.8c1.9,1.8,2.8,4.1,2.8,6.8c0,2.7-0.9,4.9-2.7,6.7c-1.9,1.9-4.2,2.9-6.8,2.9
				c-2.6,0-4.9-0.9-6.7-2.8c-1.9-1.9-2.8-4.1-2.8-6.7c0-2.6,1-4.8,2.9-6.8C237.7,156.3,239.9,155.3,242.6,155.3z"/>
		</g>
	</g>
</g>
</svg>
