<?xml version="1.0" encoding="UTF-8"?>
<!-- Generator: Adobe Illustrator 15.0.2, SVG Export Plug-In . SVG Version: 6.00 Build 0)  -->
<!DOCTYPE svg PUBLIC "-//W3C//DTD SVG 1.1//EN" "http://www.w3.org/Graphics/SVG/1.1/DTD/svg11.dtd">
<svg version="1.1" id="Layer_1" xmlns:x="http://ns.adobe.com/Extensibility/1.0/" xmlns:i="http://ns.adobe.com/AdobeIllustrator/10.0/" xmlns:graph="http://ns.adobe.com/Graphs/1.0/" xmlns="http://www.w3.org/2000/svg" xmlns:xlink="http://www.w3.org/1999/xlink" xmlns:a="http://ns.adobe.com/AdobeSVGViewerExtensions/3.0/" x="0px" y="0px" width="850.39px" height="566.93px" viewBox="0 0 850.39 566.93" enable-background="new 0 0 850.39 566.93" xml:space="preserve">
<metadata>
	<sfw xmlns="http://ns.adobe.com/SaveForWeb/1.0/">
		<slices/>
		<sliceSourceBounds width="850.394" height="1668.079" y="-2255.009" x="0" bottomLeftOrigin="true"/>
	</sfw>
</metadata>
<rect y="0" fill="#1C75BC" width="850.394" height="566.93"/>
<g>
	<path fill="#FFFFFF" d="M128.733,494.589c92.676-12.836,185.363-25.673,278.046-38.506c-19.354-5.801-38.723-11.582-58.087-17.383   c16.036,12.842,32.077,25.671,48.115,38.511c7.356,5.883,19.467,8.449,28.29,11.088c5.366,1.603,25.703,9.96,31.15,5.745   c16.573-12.841,33.144-25.671,49.713-38.509c-1.542,0.143-3.078,0.28-4.63,0.419c91.541,12.833,183.076,25.675,274.619,38.509   c12.294,1.725-7.632-7.05-9.396-7.703c-13.37-4.949-27.399-9.173-41.586-11.161c-59.626-8.36-119.26-16.726-178.897-25.087   c-29.515-4.141-59.038-8.279-88.554-12.413c-6.86-0.965-10.466-1.615-16.229,2.852c-13.985,10.828-27.968,21.663-41.951,32.492   c-1.112,0.855-2.218,1.716-3.33,2.578c19.816,5.611,39.629,11.221,59.433,16.837c-11.683-9.359-23.381-18.716-35.072-28.072   c-4.315-3.455-8.627-6.908-12.941-10.359c-7.404-5.931-19.497-8.513-28.391-11.172c-8.511-2.552-20.736-7.541-29.908-6.277   c-21.11,2.922-42.21,5.846-63.312,8.774c-69.18,9.581-138.362,19.157-207.535,28.742c-2.367,0.325-4.731,0.654-7.085,0.982   c-3.621,0.5,17.784,9.649,19.767,10.31C101.484,489.281,117.265,496.18,128.733,494.589L128.733,494.589z"/>
</g>
<g>
	<path fill="#FFFFFF" d="M450.285,250.47v-39.06c0-1.652,0.824-2.48,2.475-2.48h12.066c10.27,0,15.406,3.886,15.406,11.656   c0,2.315-0.65,4.33-1.949,6.045c-1.299,1.716-3.062,2.987-5.291,3.813v0.248c0.783,0.289,1.588,0.982,2.414,2.077   c0.824,1.095,1.506,2.305,2.041,3.627l5.445,13.64c0.207,0.538,0.311,0.93,0.311,1.178c0,0.827-1.238,1.24-3.713,1.24h-2.537   c-2.062,0-3.26-0.434-3.59-1.302l-4.887-12.09c-0.703-1.364-1.455-2.325-2.26-2.884c-0.805-0.558-2.135-0.837-3.99-0.837h-2.414   v15.128c0,1.323-1.236,1.984-3.711,1.984h-2.105C451.521,252.454,450.285,251.793,450.285,250.47z M459.812,227.096h5.879   c1.277,0,2.393-0.516,3.342-1.55c0.947-1.032,1.422-2.283,1.422-3.751c0-1.467-0.463-2.624-1.391-3.472   c-0.93-0.847-2.197-1.271-3.807-1.271h-5.445V227.096z"/>
	<path fill="#FFFFFF" d="M489.914,248.455c-2.66-2.914-3.99-7.119-3.99-12.617c0-5.496,1.33-9.609,3.99-12.338   c2.66-2.728,6.312-4.092,10.953-4.092s8.043,1.488,10.209,4.464s3.248,6.82,3.248,11.532c0,0.496-0.424,1.23-1.268,2.201   c-0.848,0.972-1.477,1.457-1.889,1.457h-15.777c0.205,2.355,0.906,4.029,2.104,5.021c1.195,0.992,2.723,1.488,4.578,1.488   c1.857,0,3.631-0.32,5.322-0.961s2.557-0.961,2.598-0.961c0.619,0,1.311,0.61,2.074,1.829c0.762,1.22,1.145,2.181,1.145,2.883   c0,1.364-1.291,2.449-3.867,3.255c-2.578,0.806-5.002,1.209-7.271,1.209C496.627,252.826,492.574,251.369,489.914,248.455z    M505.414,232.924c0-1.9-0.371-3.42-1.113-4.557s-1.857-1.705-3.342-1.705c-3.053,0-4.91,2.088-5.568,6.262H505.414z"/>
	<path fill="#FFFFFF" d="M522.676,248.765c-2.557-2.706-3.836-6.86-3.836-12.462c0-5.6,1.289-9.816,3.867-12.647   s6.59-4.247,12.035-4.247c2.516,0,4.857,0.383,7.023,1.146c2.166,0.766,3.248,1.809,3.248,3.132c0,0.619-0.424,1.571-1.268,2.852   c-0.848,1.281-1.518,1.922-2.012,1.922c-0.166,0-0.537-0.145-1.113-0.434c-1.816-0.909-3.775-1.364-5.879-1.364   s-3.713,0.766-4.826,2.294c-1.113,1.529-1.67,3.906-1.67,7.13c0,3.225,0.525,5.611,1.578,7.161c1.051,1.55,2.66,2.325,4.826,2.325   c2.164,0,4.258-0.475,6.279-1.426c0.66-0.248,1.031-0.372,1.113-0.372c0.619,0,1.311,0.61,2.074,1.829   c0.762,1.219,1.145,2.2,1.145,2.944s-0.455,1.426-1.361,2.046c-0.908,0.62-2.002,1.075-3.279,1.364   c-2.641,0.578-4.703,0.868-6.188,0.868C529.152,252.826,525.234,251.473,522.676,248.765z"/>
	<path fill="#FFFFFF" d="M549.467,242.782v-21.019c0-1.322,1.238-1.983,3.713-1.983h1.732c2.475,0,3.713,0.661,3.713,1.983v19.654   c0,2.563,1.238,3.844,3.713,3.844c2.062,0,3.713-1.198,4.949-3.596v-19.902c0-1.322,1.238-1.983,3.713-1.983h1.732   c2.475,0,3.713,0.661,3.713,1.983v19.654c0,2.563,0.123,4.712,0.371,6.448l0.371,2.542c0,0.661-0.836,1.157-2.506,1.488   s-2.918,0.495-3.744,0.495c-0.824,0-1.371-0.082-1.639-0.247c-0.27-0.165-0.486-0.444-0.65-0.838   c-0.164-0.392-0.289-0.702-0.371-0.93c-0.082-0.227-0.176-0.63-0.277-1.209c-0.104-0.578-0.176-0.93-0.217-1.054   c-0.99,1.323-2.301,2.439-3.93,3.348c-1.631,0.909-3.393,1.364-5.291,1.364c-3.094,0-5.383-0.815-6.867-2.449   C550.211,248.745,549.467,246.214,549.467,242.782z"/>
	<path fill="#FFFFFF" d="M583.684,250.47v-19.653c0-3.101-0.123-5.271-0.371-6.511c-0.246-1.239-0.371-1.983-0.371-2.231   c0-0.661,0.836-1.157,2.506-1.488c1.672-0.33,2.918-0.496,3.744-0.496c0.824,0,1.371,0.084,1.639,0.248   c0.27,0.166,0.484,0.425,0.65,0.775c0.164,0.352,0.289,0.641,0.371,0.868s0.176,0.61,0.279,1.146   c0.102,0.538,0.174,0.868,0.217,0.992c1.732-3.141,3.98-4.712,6.744-4.712c1.318,0,2.236,0.341,2.754,1.022   c0.514,0.683,0.773,1.457,0.773,2.325s-0.186,1.953-0.559,3.255c-0.371,1.303-0.824,1.953-1.361,1.953   c-0.246,0-0.68-0.082-1.299-0.248c-0.619-0.164-1.154-0.248-1.607-0.248c-2.064,0-3.713,1.034-4.951,3.101v19.901   c0,1.323-1.238,1.984-3.713,1.984h-1.732C584.922,252.454,583.684,251.793,583.684,250.47z"/>
	<path fill="#FFFFFF" d="M603.979,248.424c0-0.66,0.393-1.591,1.176-2.79c0.783-1.198,1.486-1.798,2.104-1.798   c0.082,0,0.826,0.29,2.229,0.868c1.402,0.579,2.682,0.868,3.836,0.868c2.516,0,3.775-0.931,3.775-2.79   c0-0.992-0.424-1.787-1.27-2.387c-0.846-0.599-1.877-1.105-3.094-1.52c-1.217-0.412-2.434-0.908-3.65-1.488   c-1.217-0.578-2.248-1.528-3.094-2.852c-0.846-1.322-1.27-3.017-1.27-5.084c0-3.1,1.021-5.549,3.064-7.347   c2.041-1.799,4.814-2.697,8.322-2.697c1.648,0,3.217,0.166,4.701,0.496c2.971,0.661,4.455,1.798,4.455,3.41   c0,0.537-0.309,1.437-0.928,2.696c-0.619,1.262-1.197,1.892-1.732,1.892c-0.041,0-0.65-0.217-1.824-0.651   c-1.176-0.434-2.32-0.651-3.436-0.651c-2.227,0-3.34,0.744-3.34,2.232c0,0.827,0.422,1.499,1.268,2.015   c0.846,0.518,1.877,0.992,3.094,1.427c1.217,0.434,2.434,0.972,3.65,1.611c1.217,0.642,2.248,1.654,3.094,3.038   c0.846,1.386,1.27,3.091,1.27,5.115c0,3.266-1.062,5.88-3.188,7.843c-2.125,1.964-4.785,2.945-7.982,2.945   s-5.867-0.383-8.012-1.147C605.051,250.915,603.979,249.83,603.979,248.424z"/>
	<path fill="#FFFFFF" d="M633.617,248.517c-2.559-2.872-3.836-7.016-3.836-12.431c0-5.414,1.277-9.548,3.836-12.399   c2.557-2.853,6.289-4.278,11.199-4.278c4.908,0,8.631,1.426,11.168,4.278c2.537,2.852,3.807,6.985,3.807,12.399   c0,5.415-1.27,9.559-3.807,12.431c-2.537,2.874-6.26,4.31-11.168,4.31C639.906,252.826,636.174,251.391,633.617,248.517z    M639.062,236.117c0,6.304,1.906,9.455,5.723,9.455s5.725-3.151,5.725-9.455c0-6.303-1.908-9.455-5.725-9.455   S639.062,229.815,639.062,236.117z"/>
	<path fill="#FFFFFF" d="M663.873,248.424c0-0.66,0.391-1.591,1.176-2.79c0.783-1.198,1.484-1.798,2.104-1.798   c0.082,0,0.824,0.29,2.227,0.868c1.402,0.579,2.682,0.868,3.838,0.868c2.516,0,3.773-0.931,3.773-2.79   c0-0.992-0.424-1.787-1.268-2.387c-0.848-0.599-1.879-1.105-3.094-1.52c-1.219-0.412-2.436-0.908-3.652-1.488   c-1.217-0.578-2.248-1.528-3.094-2.852c-0.846-1.322-1.268-3.017-1.268-5.084c0-3.1,1.021-5.549,3.062-7.347   c2.043-1.799,4.816-2.697,8.322-2.697c1.65,0,3.219,0.166,4.703,0.496c2.969,0.661,4.455,1.798,4.455,3.41   c0,0.537-0.311,1.437-0.928,2.696c-0.619,1.262-1.197,1.892-1.732,1.892c-0.043,0-0.65-0.217-1.826-0.651   c-1.176-0.434-2.32-0.651-3.434-0.651c-2.229,0-3.342,0.744-3.342,2.232c0,0.827,0.422,1.499,1.268,2.015   c0.846,0.518,1.877,0.992,3.094,1.427c1.217,0.434,2.434,0.972,3.652,1.611c1.215,0.642,2.246,1.654,3.094,3.038   c0.844,1.386,1.268,3.091,1.268,5.115c0,3.266-1.062,5.88-3.186,7.843c-2.125,1.964-4.787,2.945-7.982,2.945   c-3.197,0-5.869-0.383-8.014-1.147C664.945,250.915,663.873,249.83,663.873,248.424z"/>
	<path fill="#FFFFFF" d="M450.285,331.814v-38.439c0-1.652,0.824-2.48,2.475-2.48h22.646c1.236,0,1.855,1.034,1.855,3.101v1.922   c0,2.067-0.619,3.1-1.855,3.1h-15.594v8.99h13.922c1.238,0,1.857,1.034,1.857,3.1v1.923c0,2.067-0.619,3.1-1.857,3.1h-13.922   v10.044h15.656c1.236,0,1.855,1.034,1.855,3.1v1.923c0,2.067-0.619,3.1-1.855,3.1H452.76   C451.109,334.294,450.285,333.468,450.285,331.814z"/>
	<path fill="#FFFFFF" d="M491.803,334.79c-3.426,0-6.209-1.478-8.354-4.433c-2.146-2.955-3.219-7.026-3.219-12.215   c0-5.187,1.145-9.278,3.436-12.275c2.289-2.997,5.496-4.495,9.621-4.495c2.434,0,4.537,0.642,6.311,1.922v-13.764   c0-1.322,1.238-1.984,3.713-1.984h1.732c2.475,0,3.713,0.662,3.713,1.984v33.852c0,2.563,0.123,4.712,0.371,6.448l0.371,2.542   c0,0.661-0.836,1.157-2.506,1.488s-2.918,0.495-3.744,0.495c-0.824,0-1.371-0.082-1.639-0.247c-0.27-0.165-0.486-0.435-0.65-0.807   s-0.289-0.682-0.371-0.93s-0.176-0.651-0.277-1.209c-0.104-0.559-0.178-0.899-0.217-1.023c-0.744,1.364-1.848,2.48-3.311,3.349   C495.318,334.356,493.658,334.79,491.803,334.79z M494.523,327.288c1.98,0,3.672-1.219,5.074-3.658v-13.826   c-1.402-0.784-2.846-1.178-4.33-1.178c-3.838,0-5.756,3.11-5.756,9.331C489.512,324.179,491.184,327.288,494.523,327.288z"/>
	<path fill="#FFFFFF" d="M514.076,324.746v-21.019c0-1.322,1.238-1.983,3.713-1.983h1.732c2.475,0,3.713,0.661,3.713,1.983v19.654   c0,2.563,1.238,3.844,3.713,3.844c2.062,0,3.713-1.198,4.949-3.596v-19.902c0-1.322,1.238-1.983,3.713-1.983h1.732   c2.475,0,3.713,0.661,3.713,1.983v19.654c0,2.563,0.123,4.712,0.371,6.448l0.371,2.542c0,0.661-0.836,1.157-2.506,1.488   s-2.918,0.495-3.744,0.495c-0.824,0-1.371-0.082-1.639-0.247c-0.27-0.165-0.486-0.444-0.65-0.838   c-0.164-0.392-0.289-0.702-0.371-0.93c-0.082-0.227-0.176-0.63-0.277-1.209c-0.104-0.578-0.176-0.93-0.217-1.054   c-0.99,1.323-2.301,2.439-3.93,3.348c-1.631,0.909-3.393,1.364-5.291,1.364c-3.094,0-5.383-0.815-6.867-2.449   C514.82,330.709,514.076,328.178,514.076,324.746z"/>
	<path fill="#FFFFFF" d="M549.158,330.729c-2.557-2.706-3.836-6.86-3.836-12.462c0-5.6,1.289-9.816,3.867-12.647   s6.59-4.247,12.035-4.247c2.516,0,4.857,0.383,7.023,1.146c2.166,0.766,3.248,1.809,3.248,3.132c0,0.619-0.424,1.571-1.268,2.852   c-0.848,1.281-1.518,1.922-2.012,1.922c-0.166,0-0.537-0.145-1.113-0.434c-1.816-0.909-3.775-1.364-5.879-1.364   s-3.713,0.766-4.826,2.294c-1.113,1.529-1.67,3.906-1.67,7.13c0,3.225,0.525,5.611,1.578,7.161c1.051,1.55,2.66,2.325,4.826,2.325   c2.164,0,4.258-0.475,6.279-1.426c0.66-0.248,1.031-0.372,1.113-0.372c0.619,0,1.311,0.61,2.074,1.829   c0.762,1.219,1.145,2.2,1.145,2.944s-0.455,1.426-1.361,2.046c-0.908,0.62-2.002,1.075-3.279,1.364   c-2.641,0.578-4.703,0.868-6.188,0.868C555.635,334.79,551.717,333.437,549.158,330.729z"/>
	<path fill="#FFFFFF" d="M573.166,325.739c0-1.157,0.104-2.211,0.311-3.162c0.205-0.95,0.68-1.974,1.422-3.069   c0.744-1.095,1.732-1.993,2.971-2.697c2.928-1.735,7.279-2.604,13.057-2.604v-2.046c0-2.356-1.609-3.534-4.828-3.534   c-2.268,0-4.475,0.496-6.619,1.488c-0.742,0.331-1.176,0.496-1.301,0.496c-0.617,0-1.309-0.641-2.072-1.923   c-0.764-1.28-1.145-2.294-1.145-3.037c0-1.116,1.145-2.108,3.434-2.977s5.084-1.302,8.385-1.302   c8.869,0,13.303,3.451,13.303,10.354v11.656c0,2.563,0.125,4.712,0.371,6.448l0.371,2.542c0,0.661-0.834,1.157-2.506,1.488   c-1.67,0.331-2.918,0.495-3.742,0.495c-0.826,0-1.373-0.082-1.641-0.247s-0.484-0.444-0.65-0.838   c-0.164-0.392-0.289-0.702-0.371-0.93c-0.082-0.227-0.176-0.63-0.277-1.209c-0.104-0.578-0.176-0.93-0.217-1.054   c-0.742,1.323-2.021,2.439-3.836,3.348c-1.816,0.909-3.568,1.364-5.26,1.364c-3.178,0-5.498-0.826-6.961-2.48   C573.898,330.657,573.166,328.466,573.166,325.739z M582.262,324.808c0,0.828,0.268,1.488,0.805,1.984   c0.535,0.496,1.34,0.744,2.414,0.744c1.072,0,2.123-0.372,3.154-1.116s1.795-1.674,2.291-2.79v-3.41   C585.148,320.22,582.262,321.75,582.262,324.808z"/>
	<path fill="#FFFFFF" d="M608.559,330.729c-2.559-2.706-3.836-6.86-3.836-12.462c0-5.6,1.289-9.816,3.867-12.647   s6.59-4.247,12.035-4.247c2.516,0,4.857,0.383,7.021,1.146c2.166,0.766,3.25,1.809,3.25,3.132c0,0.619-0.424,1.571-1.27,2.852   c-0.846,1.281-1.516,1.922-2.012,1.922c-0.164,0-0.535-0.145-1.113-0.434c-1.814-0.909-3.773-1.364-5.877-1.364   s-3.713,0.766-4.826,2.294c-1.115,1.529-1.672,3.906-1.672,7.13c0,3.225,0.525,5.611,1.578,7.161s2.66,2.325,4.826,2.325   s4.26-0.475,6.281-1.426c0.658-0.248,1.029-0.372,1.113-0.372c0.619,0,1.309,0.61,2.072,1.829s1.145,2.2,1.145,2.944   s-0.453,1.426-1.361,2.046s-2,1.075-3.279,1.364c-2.641,0.578-4.701,0.868-6.188,0.868   C615.035,334.79,611.115,333.437,608.559,330.729z"/>
	<path fill="#FFFFFF" d="M637.33,296.536c-2.477,0-3.713-0.661-3.713-1.984v-5.021c0-1.322,1.236-1.984,3.713-1.984h1.732   c2.475,0,3.713,0.662,3.713,1.984v5.021c0,1.323-1.238,1.984-3.713,1.984H637.33z M633.617,332.434v-28.706   c0-1.322,1.236-1.983,3.713-1.983h1.732c2.475,0,3.713,0.661,3.713,1.983v28.706c0,1.323-1.238,1.984-3.713,1.984h-1.732   C634.854,334.418,633.617,333.757,633.617,332.434z"/>
	<path fill="#FFFFFF" d="M650.633,330.481c-2.559-2.872-3.836-7.016-3.836-12.431c0-5.414,1.277-9.548,3.836-12.399   c2.557-2.853,6.289-4.278,11.199-4.278c4.908,0,8.631,1.426,11.168,4.278c2.537,2.852,3.807,6.985,3.807,12.399   c0,5.415-1.27,9.559-3.807,12.431c-2.537,2.874-6.26,4.31-11.168,4.31C656.922,334.79,653.189,333.355,650.633,330.481z    M656.078,318.081c0,6.304,1.906,9.455,5.723,9.455s5.725-3.151,5.725-9.455c0-6.303-1.908-9.455-5.725-9.455   S656.078,311.779,656.078,318.081z"/>
	<path fill="#FFFFFF" d="M681.074,332.434v-19.653c0-3.101-0.123-5.271-0.371-6.511c-0.248-1.239-0.371-1.983-0.371-2.231   c0-0.661,0.834-1.157,2.506-1.488c1.67-0.33,2.918-0.496,3.742-0.496c0.826,0,1.371,0.084,1.641,0.248   c0.268,0.166,0.484,0.425,0.65,0.775c0.164,0.352,0.287,0.641,0.371,0.868c0.082,0.228,0.174,0.61,0.277,1.146   c0.104,0.538,0.176,0.868,0.217,0.992c0.99-1.322,2.311-2.438,3.961-3.348c1.648-0.909,3.402-1.364,5.258-1.364   c3.096,0,5.385,0.816,6.869,2.449s2.227,4.164,2.227,7.595v21.018c0,1.323-1.236,1.984-3.711,1.984h-1.732   c-2.477,0-3.713-0.661-3.713-1.984v-19.653c0-2.562-1.238-3.845-3.713-3.845c-2.062,0-3.713,1.2-4.949,3.597v19.901   c0,1.323-1.238,1.984-3.713,1.984h-1.732C682.312,334.418,681.074,333.757,681.074,332.434z"/>
	<path fill="#FFFFFF" d="M712.135,325.739c0-1.157,0.102-2.211,0.309-3.162c0.207-0.95,0.682-1.974,1.424-3.069   c0.742-1.095,1.732-1.993,2.971-2.697c2.928-1.735,7.279-2.604,13.055-2.604v-2.046c0-2.356-1.609-3.534-4.826-3.534   c-2.27,0-4.477,0.496-6.621,1.488c-0.742,0.331-1.176,0.496-1.299,0.496c-0.619,0-1.311-0.641-2.072-1.923   c-0.764-1.28-1.145-2.294-1.145-3.037c0-1.116,1.145-2.108,3.434-2.977s5.084-1.302,8.383-1.302   c8.869,0,13.305,3.451,13.305,10.354v11.656c0,2.563,0.123,4.712,0.371,6.448l0.371,2.542c0,0.661-0.836,1.157-2.506,1.488   c-1.672,0.331-2.92,0.495-3.744,0.495c-0.826,0-1.371-0.082-1.639-0.247c-0.27-0.165-0.486-0.444-0.65-0.838   c-0.166-0.392-0.289-0.702-0.371-0.93c-0.084-0.227-0.176-0.63-0.279-1.209c-0.104-0.578-0.176-0.93-0.217-1.054   c-0.742,1.323-2.021,2.439-3.836,3.348c-1.814,0.909-3.568,1.364-5.26,1.364c-3.176,0-5.496-0.826-6.961-2.48   C712.867,330.657,712.135,328.466,712.135,325.739z M721.23,324.808c0,0.828,0.268,1.488,0.805,1.984   c0.535,0.496,1.34,0.744,2.412,0.744s2.125-0.372,3.156-1.116s1.795-1.674,2.289-2.79v-3.41   C724.117,320.22,721.23,321.75,721.23,324.808z"/>
	<path fill="#FFFFFF" d="M748.455,296.536c-2.475,0-3.713-0.661-3.713-1.984v-5.021c0-1.322,1.238-1.984,3.713-1.984h1.732   c2.475,0,3.713,0.662,3.713,1.984v5.021c0,1.323-1.238,1.984-3.713,1.984H748.455z M744.742,332.434v-28.706   c0-1.322,1.238-1.983,3.713-1.983h1.732c2.475,0,3.713,0.661,3.713,1.983v28.706c0,1.323-1.238,1.984-3.713,1.984h-1.732   C745.98,334.418,744.742,333.757,744.742,332.434z"/>
	<path fill="#FFFFFF" d="M757.24,330.388c0-0.66,0.393-1.591,1.176-2.79c0.783-1.198,1.486-1.798,2.104-1.798   c0.082,0,0.826,0.29,2.229,0.868c1.402,0.579,2.682,0.868,3.836,0.868c2.516,0,3.775-0.931,3.775-2.79   c0-0.992-0.424-1.787-1.27-2.387c-0.846-0.599-1.877-1.105-3.094-1.52c-1.217-0.412-2.434-0.908-3.65-1.488   c-1.217-0.578-2.248-1.528-3.094-2.852c-0.846-1.322-1.27-3.017-1.27-5.084c0-3.1,1.021-5.549,3.064-7.347   c2.041-1.799,4.814-2.697,8.322-2.697c1.648,0,3.217,0.166,4.701,0.496c2.971,0.661,4.455,1.798,4.455,3.41   c0,0.537-0.309,1.437-0.928,2.696c-0.619,1.262-1.197,1.892-1.732,1.892c-0.041,0-0.65-0.217-1.824-0.651   c-1.176-0.434-2.32-0.651-3.436-0.651c-2.227,0-3.34,0.744-3.34,2.232c0,0.827,0.422,1.499,1.268,2.015   c0.846,0.518,1.877,0.992,3.094,1.427c1.217,0.434,2.434,0.972,3.65,1.611c1.217,0.642,2.248,1.654,3.094,3.038   c0.846,1.386,1.27,3.091,1.27,5.115c0,3.266-1.062,5.88-3.188,7.843c-2.125,1.964-4.785,2.945-7.982,2.945   s-5.867-0.383-8.012-1.147C758.312,332.879,757.24,331.794,757.24,330.388z"/>
	<path fill="#FFFFFF" d="M446.016,415.018c0-0.164,0.082-0.536,0.246-1.116l13.613-39.865c0.33-0.868,1.506-1.303,3.527-1.303h3.217   c2.021,0,3.197,0.435,3.527,1.303l13.613,39.865c0.123,0.414,0.186,0.786,0.186,1.116c0,0.91-1.031,1.364-3.094,1.364h-2.723   c-2.021,0-3.178-0.434-3.465-1.302l-2.477-7.564h-14.602l-2.475,7.564c-0.289,0.868-1.238,1.302-2.848,1.302h-2.475   C447.273,416.382,446.016,415.928,446.016,415.018z M460.246,399.332h9.281L466,388.296l-0.928-3.968h-0.246   c-0.373,1.943-0.682,3.266-0.93,3.968L460.246,399.332z"/>
	<path fill="#FFFFFF" d="M487.594,414.398v-42.903c0-1.322,1.238-1.984,3.713-1.984h1.732c2.475,0,3.713,0.662,3.713,1.984v13.764   c1.773-1.28,3.877-1.922,6.311-1.922c4.125,0,7.332,1.498,9.621,4.495c2.291,2.997,3.436,7.089,3.436,12.275   c0,5.188-1.074,9.26-3.219,12.215s-4.93,4.433-8.352,4.433c-1.857,0-3.518-0.435-4.982-1.302c-1.465-0.868-2.566-1.984-3.311-3.349   l-0.617,2.666c-0.248,1.075-1.445,1.612-3.59,1.612h-0.742C488.832,416.382,487.594,415.721,487.594,414.398z M501.826,409.252   c3.34,0,5.012-3.109,5.012-9.331c0-6.221-1.918-9.331-5.756-9.331c-1.484,0-2.928,0.394-4.33,1.178v13.826   C498.154,408.033,499.846,409.252,501.826,409.252z"/>
	<path fill="#FFFFFF" d="M524.873,412.383c-2.66-2.914-3.99-7.119-3.99-12.617c0-5.496,1.33-9.609,3.99-12.338   c2.66-2.728,6.312-4.092,10.953-4.092s8.043,1.488,10.209,4.464s3.248,6.82,3.248,11.532c0,0.496-0.424,1.23-1.268,2.201   c-0.848,0.972-1.477,1.457-1.889,1.457H530.35c0.205,2.355,0.906,4.029,2.104,5.021c1.195,0.992,2.723,1.488,4.578,1.488   c1.857,0,3.631-0.32,5.322-0.961s2.557-0.961,2.598-0.961c0.619,0,1.311,0.61,2.074,1.829c0.762,1.22,1.145,2.181,1.145,2.883   c0,1.364-1.291,2.449-3.867,3.255c-2.578,0.806-5.002,1.209-7.271,1.209C531.586,416.754,527.533,415.297,524.873,412.383z    M540.373,396.852c0-1.9-0.371-3.42-1.113-4.557s-1.857-1.705-3.342-1.705c-3.053,0-4.91,2.088-5.568,6.262H540.373z"/>
	<path fill="#FFFFFF" d="M555.035,414.398v-19.653c0-3.101-0.123-5.271-0.371-6.511c-0.246-1.239-0.371-1.983-0.371-2.231   c0-0.661,0.836-1.157,2.506-1.488c1.672-0.33,2.918-0.496,3.744-0.496c0.824,0,1.371,0.084,1.639,0.248   c0.27,0.166,0.484,0.425,0.65,0.775c0.164,0.352,0.289,0.641,0.371,0.868s0.176,0.61,0.279,1.146   c0.102,0.538,0.174,0.868,0.217,0.992c1.732-3.141,3.98-4.712,6.744-4.712c1.318,0,2.236,0.341,2.754,1.022   c0.514,0.683,0.773,1.457,0.773,2.325s-0.186,1.953-0.559,3.255c-0.371,1.303-0.824,1.953-1.361,1.953   c-0.246,0-0.68-0.082-1.299-0.248c-0.619-0.164-1.154-0.248-1.607-0.248c-2.064,0-3.713,1.034-4.951,3.101v19.901   c0,1.323-1.238,1.984-3.713,1.984h-1.732C556.273,416.382,555.035,415.721,555.035,414.398z"/>
	<path fill="#FFFFFF" d="M589.562,409.5l1.672-0.248c0.535,0,0.99,0.61,1.361,1.829c0.371,1.22,0.557,2.098,0.557,2.635   c0,2.025-1.98,3.038-5.941,3.038c-6.021,0-9.033-3.348-9.033-10.044v-15.624h-0.99c-1.236,0-1.855-1.033-1.855-3.101v-1.054   c0-2.066,0.619-3.1,1.855-3.1h0.99l0.805-5.891c0.205-1.322,1.32-1.983,3.342-1.983h1.918c2.062,0,3.094,0.661,3.094,1.983v5.891   h3.031c1.238,0,1.857,1.033,1.857,3.1v1.054c0,2.067-0.619,3.101-1.857,3.101h-3.031v15.748   C587.336,408.612,588.078,409.5,589.562,409.5z"/>
	<path fill="#FFFFFF" d="M600.576,412.445c-2.559-2.872-3.836-7.016-3.836-12.431c0-5.414,1.277-9.548,3.836-12.399   c2.557-2.853,6.289-4.278,11.199-4.278c4.908,0,8.631,1.426,11.168,4.278c2.537,2.852,3.807,6.985,3.807,12.399   c0,5.415-1.27,9.559-3.807,12.431c-2.537,2.874-6.26,4.31-11.168,4.31C606.865,416.754,603.133,415.319,600.576,412.445z    M606.021,400.045c0,6.304,1.906,9.455,5.723,9.455s5.725-3.151,5.725-9.455c0-6.303-1.908-9.455-5.725-9.455   S606.021,393.742,606.021,400.045z"/>
	<path fill="#FFFFFF" d="M630.832,412.352c0-0.66,0.393-1.591,1.176-2.79c0.783-1.198,1.486-1.798,2.104-1.798   c0.082,0,0.826,0.29,2.229,0.868c1.402,0.579,2.682,0.868,3.836,0.868c2.516,0,3.775-0.931,3.775-2.79   c0-0.992-0.424-1.787-1.27-2.387c-0.846-0.599-1.877-1.105-3.094-1.52c-1.217-0.412-2.434-0.908-3.65-1.488   c-1.217-0.578-2.248-1.528-3.094-2.852c-0.846-1.322-1.27-3.017-1.27-5.084c0-3.1,1.021-5.549,3.064-7.347   c2.041-1.799,4.814-2.697,8.322-2.697c1.648,0,3.217,0.166,4.701,0.496c2.971,0.661,4.455,1.798,4.455,3.41   c0,0.537-0.309,1.437-0.928,2.696c-0.619,1.262-1.197,1.892-1.732,1.892c-0.041,0-0.65-0.217-1.824-0.651   c-1.176-0.434-2.32-0.651-3.436-0.651c-2.227,0-3.34,0.744-3.34,2.232c0,0.827,0.422,1.499,1.268,2.015   c0.846,0.518,1.877,0.992,3.094,1.427c1.217,0.434,2.434,0.972,3.65,1.611c1.217,0.642,2.248,1.654,3.094,3.038   c0.846,1.386,1.27,3.091,1.27,5.115c0,3.266-1.062,5.88-3.188,7.843c-2.125,1.964-4.785,2.945-7.982,2.945   s-5.867-0.383-8.012-1.147C631.904,414.843,630.832,413.758,630.832,412.352z"/>
</g>
<path fill-rule="evenodd" clip-rule="evenodd" fill="#FFFFFF" d="M109.965,442.862c31.407-8.984,64.035-14.634,96.487-18.867  c61.657-8.042,129.616-9.074,187.796,14.523c6.244,2.529,20.901,7.437,26.407,4.192c6.736-3.975,6.396-9.071,6.169-12.387  c-1.431-38.853-5.631-122.284-5.631-122.284s-2.9-63.199,2.017-98.804c6.476-4.29,13.94-12.213,15.819-24.77  c0.11-20.291,2.009-28.714,12.989-44.916c3.854-5.688,13.487-16.717,8.02-23.185c-5.674-6.726-9.197,4.885-12.023,8.587  c-2.474,3.226-17.329,22.227-20.995,18.121c-3.779-4.224,20.493-48.896,14.438-57.3c-6.38-8.862-14.438,16.224-15.376,18.246  c-4.735,9.861-8.797,19.925-12.403,30.129c0.024,0.655-2.798,1.611-3.568,0.772c-0.05-8.319-0.784-15.668-0.349-27.106  c0.518-13.507,0.719-37.242-7.842-36.447c-9.09,0.841,0.527,59.124-9.012,63.058c-7.18,2.962-11.774-20.319-13.096-25.151  c-2.205-8.042-3.128-26.645-10.223-27.75c-10.275-1.6-5.912,14.283-4.989,19.314c1.491,8.112,15.234,64.003,5.894,68.111  c-6.41,2.82-16.757-11.991-23.945-15.932c-4.698-2.595-21.447-6.646-20.938,0.76c0.253,3.624,8.955,6.369,11.976,8.771  c13.78,10.961,29.495,33.697,42.151,42.672c3.807,3.61,8.26,5.775,12.52,7.084c1.157,3.324,2.09,7.029,2.768,11.204  c3.632,41.18,5.598,95.591,6.648,138.271c-12.672-27.533-30.098-53.51-47.707-77.512c-9.028-12.302-18.492-24.45-28.415-36.253  c3.315-5.333,6.507-15.12,1.566-26.349c-8.939-14.438-11.34-21.165-10.752-37.004c0.2-5.564,2.136-17.203-4.617-19.631  c-7.013-2.517-4.356,7.112-4.717,10.86c-0.32,3.268-2.407,22.632-6.839,21.173c-4.557-1.507-7.194-42.812-15.23-46.375  c-8.469-3.755-3.021,17.237-2.794,19.037c1.015,8.871,2.615,17.618,4.598,26.29c0.306,0.453-1.274,2.251-2.187,1.964  c-3.736-5.881-7.523-10.811-12.297-19.092c-5.643-9.792-18.939-27.771-22.348-21.329c-2.723,5.208,24.301,39.64,22.222,46.876  c-1.685,5.886-17.386-9.745-20.469-12.647c-5.149-4.827-14.074-17.658-19.589-15.638c-8.009,2.939,2.146,12.478,5.049,15.674  c4.658,5.173,39.258,39.373,34.451,45.991c-3.301,4.535-17.207-1.877-24.066-1.821c-4.487,0.029-18.167,3.781-14.514,8.837  c1.793,2.467,9.182,0.97,12.396,1.474c14.646,2.324,35.9,12.217,48.866,13.573c5.126,1.256,10.004,0.695,14.033-0.42  c7.59,9.265,14.933,18.704,22.046,28.226c19.904,26.631,39.447,56.099,52.324,87.424c-23.391-21.775-51.482-39.694-78.779-55.49  c-13.605-7.873-27.598-15.365-41.85-22.365c-0.446-4.929-3.49-14.057-13.475-19.21c-13.152-4.656-18.219-7.737-26.412-18.192  c-2.875-3.664-8.006-12.118-13.358-10.202c-5.566,1.986,1.228,6.792,3.028,9.382c1.581,2.25,10.767,15.733,7.325,17.074  c-3.534,1.381-27.419-23.73-34.149-21.886c-7.105,1.944,7.478,12.595,8.598,13.631c5.391,5.169,11.064,9.947,16.935,14.487  c0.429,0.124,0.447,2.094-0.253,2.38c-5.424-1.853-10.342-3.062-17.67-5.915c-8.666-3.379-22.387-7.744-20.95-1.857  c1.187,4.729,31.995,12.583,34.658,18.294c2.158,4.64-15.692,2.682-19.107,2.41c-5.681-0.454-17.966-4.093-20.179,0.049  c-3.211,5.989,8.023,6.879,11.492,7.448c5.576,0.913,44.773,5.052,45.463,11.758c0.472,4.605-11.329,7.646-15.414,11.205  c-2.675,2.322-8.855,11.749-3.933,13.111c2.403,0.66,6.03-4.095,8.229-5.418c10.037-6.039,28.119-10.618,36.627-16.414  c2.32-1.128,4.211-2.659,5.751-4.325c10.013,5.149,19.923,10.466,29.641,15.981c29.134,16.534,59.161,35.894,83.474,59.647  c-35.57-16.828-75.028-26.577-113.729-33.13c-35.726-6.04-72.59-9.952-109.184-9.534c-2.641,0.026-15.041-0.286-15.391,4.57  c-0.324,4.746,12.068,5.262,14.695,5.23c30.279-0.342,60.566,2.811,90.244,7.268c36.44,5.473,74.206,14.47,108.05,30.292  c-34.356-9.177-70.597-12.679-105.837-13.719c-36.276-1.064-73.346,0.135-109.489,5.583c-2.615,0.395-14.927,1.782-14.521,6.638  c0.406,4.743,12.742,3.548,15.34,3.156c29.906-4.502,60.361-5.559,90.4-5.222c38.178,0.421,78.346,4.369,115.3,16.277  c-36.626-3-74.001-0.962-109.999,3.112c-39.306,4.455-79.049,11.254-117.001,22.112c-2.738,0.784-15.748,4.028-14.405,8.758  C94.165,446.702,107.246,443.638,109.965,442.862z"/>
<g>
	<path fill="#1C75BC" d="M128.733,1080.519c92.676-12.836,185.363-25.673,278.046-38.506c-19.354-5.801-38.723-11.582-58.087-17.383   c16.036,12.842,32.077,25.671,48.115,38.511c7.356,5.883,19.467,8.449,28.289,11.088c5.367,1.603,25.703,9.96,31.15,5.745   c16.574-12.841,33.145-25.671,49.713-38.509c-1.541,0.143-3.078,0.28-4.629,0.419c91.541,12.833,183.076,25.675,274.619,38.509   c12.293,1.725-7.633-7.05-9.396-7.703c-13.371-4.949-27.4-9.173-41.586-11.161c-59.627-8.36-119.26-16.726-178.898-25.087   c-29.514-4.141-59.037-8.279-88.553-12.413c-6.861-0.965-10.467-1.615-16.23,2.852c-13.984,10.828-27.969,21.663-41.951,32.492   c-1.112,0.855-2.218,1.716-3.33,2.578c19.816,5.611,39.63,11.221,59.433,16.837c-11.682-9.359-23.381-18.716-35.072-28.072   c-4.314-3.455-8.627-6.908-12.941-10.359c-7.404-5.931-19.497-8.513-28.391-11.172c-8.511-2.552-20.736-7.541-29.908-6.277   c-21.11,2.922-42.21,5.846-63.312,8.774c-69.18,9.581-138.362,19.157-207.535,28.742c-2.367,0.325-4.731,0.654-7.085,0.982   c-3.621,0.5,17.784,9.649,19.767,10.31C101.484,1075.211,117.265,1082.11,128.733,1080.519L128.733,1080.519z"/>
</g>
<path fill-rule="evenodd" clip-rule="evenodd" fill="#1C75BC" d="M110.965,1029.211c31.407-8.983,64.035-14.633,96.487-18.867  c61.657-8.041,129.616-9.074,187.796,14.523c6.244,2.527,20.901,7.436,26.407,4.191c6.736-3.976,6.396-9.072,6.169-12.388  c-1.431-38.853-5.631-122.284-5.631-122.284s-2.9-63.199,2.017-98.805c6.476-4.289,13.94-12.213,15.819-24.77  c0.11-20.291,2.009-28.715,12.989-44.916c3.854-5.689,13.487-16.718,8.02-23.186c-5.674-6.727-9.197,4.885-12.023,8.587  c-2.474,3.226-17.329,22.228-20.995,18.121c-3.779-4.224,20.493-48.896,14.438-57.3c-6.38-8.861-14.438,16.224-15.376,18.246  c-4.735,9.86-8.797,19.924-12.403,30.129c0.024,0.655-2.798,1.611-3.568,0.771c-0.05-8.318-0.784-15.668-0.349-27.105  c0.518-13.508,0.719-37.242-7.842-36.447c-9.09,0.842,0.527,59.124-9.012,63.059c-7.18,2.961-11.774-20.318-13.096-25.151  c-2.205-8.042-3.128-26.646-10.223-27.751c-10.275-1.6-5.912,14.283-4.989,19.314c1.491,8.112,15.234,64.004,5.894,68.111  c-6.41,2.82-16.757-11.991-23.945-15.933c-4.698-2.595-21.447-6.646-20.938,0.761c0.253,3.623,8.955,6.369,11.976,8.771  c13.78,10.961,29.495,33.695,42.151,42.672c3.807,3.609,8.26,5.773,12.52,7.083c1.157,3.325,2.09,7.029,2.768,11.204  c3.632,41.18,5.598,95.59,6.648,138.27c-12.672-27.533-30.098-53.51-47.707-77.512c-9.028-12.301-18.492-24.449-28.415-36.252  c3.315-5.334,6.507-15.12,1.566-26.35c-8.939-14.439-11.34-21.166-10.752-37.004c0.2-5.564,2.136-17.203-4.617-19.631  c-7.013-2.518-4.356,7.111-4.717,10.859c-0.32,3.27-2.407,22.633-6.839,21.174c-4.557-1.508-7.194-42.812-15.23-46.375  c-8.469-3.756-3.021,17.236-2.794,19.037c1.015,8.871,2.615,17.617,4.598,26.289c0.306,0.453-1.274,2.252-2.187,1.965  c-3.736-5.882-7.523-10.811-12.297-19.093c-5.643-9.792-18.939-27.771-22.348-21.329c-2.723,5.209,24.301,39.641,22.222,46.877  c-1.685,5.885-17.386-9.746-20.469-12.648c-5.149-4.826-14.074-17.658-19.589-15.638c-8.009,2.938,2.146,12.478,5.049,15.674  c4.658,5.173,39.258,39.372,34.451,45.991c-3.301,4.535-17.207-1.877-24.066-1.821c-4.487,0.028-18.167,3.781-14.514,8.837  c1.793,2.467,9.182,0.971,12.396,1.475c14.646,2.324,35.9,12.217,48.866,13.572c5.126,1.257,10.004,0.695,14.033-0.42  c7.59,9.266,14.933,18.705,22.046,28.227c19.904,26.631,39.447,56.099,52.324,87.424c-23.391-21.775-51.482-39.693-78.779-55.49  c-13.605-7.873-27.598-15.365-41.85-22.365c-0.446-4.93-3.49-14.057-13.475-19.209c-13.152-4.656-18.219-7.736-26.412-18.191  c-2.875-3.664-8.006-12.119-13.358-10.203c-5.566,1.986,1.228,6.792,3.028,9.383c1.581,2.25,10.767,15.732,7.325,17.074  c-3.534,1.381-27.419-23.73-34.149-21.887c-7.105,1.945,7.478,12.596,8.598,13.631c5.391,5.17,11.064,9.947,16.935,14.488  c0.429,0.123,0.447,2.094-0.253,2.379c-5.424-1.854-10.342-3.062-17.67-5.916c-8.666-3.378-22.387-7.744-20.95-1.856  c1.187,4.729,31.995,12.583,34.658,18.294c2.158,4.641-15.692,2.682-19.107,2.41c-5.681-0.455-17.966-4.094-20.179,0.049  c-3.211,5.988,8.023,6.879,11.492,7.447c5.576,0.913,44.773,5.053,45.463,11.758c0.472,4.605-11.329,7.646-15.414,11.205  c-2.675,2.321-8.855,11.748-3.933,13.111c2.403,0.659,6.03-4.096,8.229-5.418c10.037-6.039,28.119-10.618,36.627-16.414  c2.32-1.129,4.211-2.66,5.751-4.326c10.013,5.148,19.923,10.467,29.641,15.982c29.134,16.533,59.161,35.894,83.474,59.646  c-35.57-16.828-75.028-26.577-113.729-33.131c-35.726-6.039-72.59-9.951-109.184-9.533c-2.641,0.026-15.041-0.287-15.391,4.57  c-0.324,4.746,12.068,5.262,14.695,5.23c30.279-0.342,60.566,2.811,90.244,7.268c36.44,5.474,74.206,14.471,108.05,30.292  c-34.356-9.177-70.597-12.679-105.837-13.72c-36.276-1.062-73.346,0.135-109.489,5.583c-2.615,0.396-14.927,1.782-14.521,6.638  c0.406,4.742,12.742,3.549,15.34,3.156c29.906-4.502,60.361-5.559,90.4-5.223c38.178,0.422,78.346,4.369,115.3,16.277  c-36.626-3-74.001-0.962-109.999,3.112c-39.306,4.456-79.049,11.253-117.001,22.112c-2.738,0.783-15.748,4.027-14.405,8.758  C95.165,1033.052,108.246,1029.987,110.965,1029.211z"/>
<g>
	<g>
		<g>
			<path d="M128.733,1667.449c92.676-12.836,185.363-25.673,278.046-38.506c-19.354-5.801-38.723-11.582-58.087-17.383     c16.036,12.842,32.077,25.671,48.115,38.511c7.356,5.883,19.467,8.449,28.289,11.088c5.367,1.603,25.703,9.96,31.15,5.745     c16.574-12.841,33.145-25.671,49.713-38.509c-1.541,0.143-3.078,0.28-4.629,0.419c91.541,12.833,183.076,25.675,274.619,38.509     c12.293,1.725-7.633-7.05-9.396-7.703c-13.371-4.949-27.4-9.173-41.586-11.161c-59.627-8.36-119.26-16.726-178.898-25.087     c-29.514-4.141-59.037-8.279-88.553-12.413c-6.861-0.965-10.467-1.615-16.23,2.852c-13.984,10.828-27.969,21.663-41.951,32.492     c-1.112,0.855-2.218,1.716-3.33,2.578c19.816,5.611,39.63,11.221,59.433,16.837c-11.682-9.359-23.381-18.716-35.072-28.072     c-4.314-3.455-8.627-6.908-12.941-10.359c-7.404-5.931-19.497-8.513-28.391-11.172c-8.511-2.552-20.736-7.541-29.908-6.277     c-21.11,2.922-42.21,5.846-63.312,8.774c-69.18,9.581-138.362,19.157-207.535,28.742c-2.367,0.325-4.731,0.654-7.085,0.982     c-3.621,0.5,17.784,9.649,19.767,10.31C101.484,1662.141,117.265,1669.04,128.733,1667.449L128.733,1667.449z"/>
		</g>
		<path fill-rule="evenodd" clip-rule="evenodd" d="M110.965,1616.141c31.407-8.983,64.035-14.633,96.487-18.867    c61.657-8.041,129.616-9.074,187.796,14.523c6.244,2.527,20.901,7.436,26.407,4.191c6.736-3.976,6.396-9.072,6.169-12.388    c-1.431-38.853-5.631-122.284-5.631-122.284s-2.9-63.199,2.017-98.805c6.476-4.289,13.94-12.213,15.819-24.77    c0.11-20.291,2.009-28.715,12.989-44.916c3.854-5.689,13.487-16.718,8.02-23.186c-5.674-6.727-9.197,4.885-12.023,8.587    c-2.474,3.226-17.329,22.228-20.995,18.121c-3.779-4.224,20.493-48.896,14.438-57.3c-6.38-8.861-14.438,16.224-15.376,18.246    c-4.735,9.86-8.797,19.924-12.403,30.129c0.024,0.655-2.798,1.611-3.568,0.771c-0.05-8.318-0.784-15.668-0.349-27.105    c0.518-13.508,0.719-37.242-7.842-36.447c-9.09,0.842,0.527,59.124-9.012,63.059c-7.18,2.961-11.774-20.318-13.096-25.151    c-2.205-8.042-3.128-26.646-10.223-27.751c-10.275-1.6-5.912,14.283-4.989,19.314c1.491,8.112,15.234,64.004,5.894,68.111    c-6.41,2.82-16.757-11.991-23.945-15.933c-4.698-2.595-21.447-6.646-20.938,0.761c0.253,3.623,8.955,6.369,11.976,8.771    c13.78,10.961,29.495,33.695,42.151,42.672c3.807,3.609,8.26,5.773,12.52,7.083c1.157,3.325,2.09,7.029,2.768,11.204    c3.632,41.18,5.598,95.59,6.648,138.27c-12.672-27.533-30.098-53.51-47.707-77.512c-9.028-12.301-18.492-24.449-28.415-36.252    c3.315-5.334,6.507-15.12,1.566-26.35c-8.939-14.439-11.34-21.166-10.752-37.004c0.2-5.564,2.136-17.203-4.617-19.631    c-7.013-2.518-4.356,7.111-4.717,10.859c-0.32,3.27-2.407,22.633-6.839,21.174c-4.557-1.508-7.194-42.812-15.23-46.375    c-8.469-3.756-3.021,17.236-2.794,19.037c1.015,8.871,2.615,17.617,4.598,26.289c0.306,0.453-1.274,2.252-2.187,1.965    c-3.736-5.882-7.523-10.811-12.297-19.093c-5.643-9.792-18.939-27.771-22.348-21.329c-2.723,5.209,24.301,39.641,22.222,46.877    c-1.685,5.885-17.386-9.746-20.469-12.648c-5.149-4.826-14.074-17.658-19.589-15.638c-8.009,2.938,2.146,12.478,5.049,15.674    c4.658,5.173,39.258,39.372,34.451,45.991c-3.301,4.535-17.207-1.877-24.066-1.821c-4.487,0.028-18.167,3.781-14.514,8.837    c1.793,2.467,9.182,0.971,12.396,1.475c14.646,2.324,35.9,12.217,48.866,13.572c5.126,1.257,10.004,0.695,14.033-0.42    c7.59,9.266,14.933,18.705,22.046,28.227c19.904,26.631,39.447,56.099,52.324,87.424c-23.391-21.775-51.482-39.693-78.779-55.49    c-13.605-7.873-27.598-15.365-41.85-22.365c-0.446-4.93-3.49-14.057-13.475-19.209c-13.152-4.656-18.219-7.736-26.412-18.191    c-2.875-3.664-8.006-12.119-13.358-10.203c-5.566,1.986,1.228,6.792,3.028,9.383c1.581,2.25,10.767,15.732,7.325,17.074    c-3.534,1.381-27.419-23.73-34.149-21.887c-7.105,1.945,7.478,12.596,8.598,13.631c5.391,5.17,11.064,9.947,16.935,14.488    c0.429,0.123,0.447,2.094-0.253,2.379c-5.424-1.854-10.342-3.062-17.67-5.916c-8.666-3.378-22.387-7.744-20.95-1.856    c1.187,4.729,31.995,12.583,34.658,18.294c2.158,4.641-15.692,2.682-19.107,2.41c-5.681-0.455-17.966-4.094-20.179,0.049    c-3.211,5.988,8.023,6.879,11.492,7.447c5.576,0.913,44.773,5.053,45.463,11.758c0.472,4.605-11.329,7.646-15.414,11.205    c-2.675,2.321-8.855,11.748-3.933,13.111c2.403,0.659,6.03-4.096,8.229-5.418c10.037-6.039,28.119-10.618,36.627-16.414    c2.32-1.129,4.211-2.66,5.751-4.326c10.013,5.148,19.923,10.467,29.641,15.982c29.134,16.533,59.161,35.894,83.474,59.646    c-35.57-16.828-75.028-26.577-113.729-33.131c-35.726-6.039-72.59-9.951-109.184-9.533c-2.641,0.026-15.041-0.287-15.391,4.57    c-0.324,4.746,12.068,5.262,14.695,5.23c30.279-0.342,60.566,2.811,90.244,7.268c36.44,5.474,74.206,14.471,108.05,30.292    c-34.356-9.177-70.597-12.679-105.837-13.72c-36.276-1.062-73.346,0.135-109.489,5.583c-2.615,0.396-14.927,1.782-14.521,6.638    c0.406,4.742,12.742,3.549,15.34,3.156c29.906-4.502,60.361-5.559,90.4-5.223c38.178,0.422,78.346,4.369,115.3,16.277    c-36.626-3-74.001-0.962-109.999,3.112c-39.306,4.456-79.049,11.253-117.001,22.112c-2.738,0.783-15.748,4.027-14.405,8.758    C95.165,1619.982,108.246,1616.918,110.965,1616.141z"/>
		<g>
			<path d="M450.285,1424.33v-39.06c0-1.652,0.824-2.48,2.475-2.48h12.066c10.27,0,15.406,3.886,15.406,11.656     c0,2.315-0.65,4.33-1.949,6.045c-1.299,1.716-3.062,2.987-5.291,3.813v0.248c0.783,0.289,1.588,0.982,2.414,2.077     c0.824,1.095,1.506,2.305,2.041,3.627l5.445,13.64c0.207,0.538,0.311,0.93,0.311,1.178c0,0.827-1.238,1.24-3.713,1.24h-2.537     c-2.062,0-3.26-0.434-3.59-1.302l-4.887-12.09c-0.703-1.364-1.455-2.325-2.26-2.884c-0.805-0.558-2.135-0.837-3.99-0.837h-2.414     v15.128c0,1.323-1.236,1.984-3.711,1.984h-2.105C451.521,1426.314,450.285,1425.653,450.285,1424.33z M459.812,1400.956h5.879     c1.277,0,2.393-0.516,3.342-1.55c0.947-1.032,1.422-2.283,1.422-3.751c0-1.467-0.463-2.624-1.391-3.472     c-0.93-0.847-2.197-1.271-3.807-1.271h-5.445V1400.956z"/>
			<path d="M489.914,1422.315c-2.66-2.914-3.99-7.119-3.99-12.617c0-5.496,1.33-9.609,3.99-12.338     c2.66-2.728,6.312-4.092,10.953-4.092s8.043,1.488,10.209,4.464s3.248,6.82,3.248,11.532c0,0.496-0.424,1.23-1.268,2.201     c-0.848,0.972-1.477,1.457-1.889,1.457h-15.777c0.205,2.355,0.906,4.029,2.104,5.021c1.195,0.992,2.723,1.488,4.578,1.488     c1.857,0,3.631-0.32,5.322-0.961s2.557-0.961,2.598-0.961c0.619,0,1.311,0.61,2.074,1.829c0.762,1.22,1.145,2.181,1.145,2.883     c0,1.364-1.291,2.449-3.867,3.255c-2.578,0.806-5.002,1.209-7.271,1.209C496.627,1426.686,492.574,1425.229,489.914,1422.315z      M505.414,1406.784c0-1.9-0.371-3.42-1.113-4.557s-1.857-1.705-3.342-1.705c-3.053,0-4.91,2.088-5.568,6.262H505.414z"/>
			<path d="M522.676,1422.625c-2.557-2.706-3.836-6.86-3.836-12.462c0-5.6,1.289-9.816,3.867-12.647s6.59-4.247,12.035-4.247     c2.516,0,4.857,0.383,7.023,1.146c2.166,0.766,3.248,1.809,3.248,3.132c0,0.619-0.424,1.571-1.268,2.852     c-0.848,1.281-1.518,1.922-2.012,1.922c-0.166,0-0.537-0.145-1.113-0.434c-1.816-0.909-3.775-1.364-5.879-1.364     s-3.713,0.766-4.826,2.294c-1.113,1.529-1.67,3.906-1.67,7.13c0,3.225,0.525,5.611,1.578,7.161     c1.051,1.55,2.66,2.325,4.826,2.325c2.164,0,4.258-0.475,6.279-1.426c0.66-0.248,1.031-0.372,1.113-0.372     c0.619,0,1.311,0.61,2.074,1.829c0.762,1.219,1.145,2.2,1.145,2.944s-0.455,1.426-1.361,2.046     c-0.908,0.62-2.002,1.075-3.279,1.364c-2.641,0.578-4.703,0.868-6.188,0.868C529.152,1426.686,525.234,1425.333,522.676,1422.625     z"/>
			<path d="M549.467,1416.642v-21.019c0-1.322,1.238-1.983,3.713-1.983h1.732c2.475,0,3.713,0.661,3.713,1.983v19.654     c0,2.563,1.238,3.844,3.713,3.844c2.062,0,3.713-1.198,4.949-3.596v-19.902c0-1.322,1.238-1.983,3.713-1.983h1.732     c2.475,0,3.713,0.661,3.713,1.983v19.654c0,2.563,0.123,4.712,0.371,6.448l0.371,2.542c0,0.661-0.836,1.157-2.506,1.488     s-2.918,0.495-3.744,0.495c-0.824,0-1.371-0.082-1.639-0.247c-0.27-0.165-0.486-0.444-0.65-0.838     c-0.164-0.392-0.289-0.702-0.371-0.93c-0.082-0.227-0.176-0.63-0.277-1.209c-0.104-0.578-0.176-0.93-0.217-1.054     c-0.99,1.323-2.301,2.439-3.93,3.348c-1.631,0.909-3.393,1.364-5.291,1.364c-3.094,0-5.383-0.815-6.867-2.449     C550.211,1422.605,549.467,1420.074,549.467,1416.642z"/>
			<path d="M583.684,1424.33v-19.653c0-3.101-0.123-5.271-0.371-6.511c-0.246-1.239-0.371-1.983-0.371-2.231     c0-0.661,0.836-1.157,2.506-1.488c1.672-0.33,2.918-0.496,3.744-0.496c0.824,0,1.371,0.084,1.639,0.248     c0.27,0.166,0.484,0.425,0.65,0.775c0.164,0.352,0.289,0.641,0.371,0.868s0.176,0.61,0.279,1.146     c0.102,0.538,0.174,0.868,0.217,0.992c1.732-3.141,3.98-4.712,6.744-4.712c1.318,0,2.236,0.341,2.754,1.022     c0.514,0.683,0.773,1.457,0.773,2.325s-0.186,1.953-0.559,3.255c-0.371,1.303-0.824,1.953-1.361,1.953     c-0.246,0-0.68-0.082-1.299-0.248c-0.619-0.164-1.154-0.248-1.607-0.248c-2.064,0-3.713,1.034-4.951,3.101v19.901     c0,1.323-1.238,1.984-3.713,1.984h-1.732C584.922,1426.314,583.684,1425.653,583.684,1424.33z"/>
			<path d="M603.979,1422.284c0-0.66,0.393-1.591,1.176-2.79c0.783-1.198,1.486-1.798,2.104-1.798c0.082,0,0.826,0.29,2.229,0.868     c1.402,0.579,2.682,0.868,3.836,0.868c2.516,0,3.775-0.931,3.775-2.79c0-0.992-0.424-1.787-1.27-2.387     c-0.846-0.599-1.877-1.105-3.094-1.52c-1.217-0.412-2.434-0.908-3.65-1.488c-1.217-0.578-2.248-1.528-3.094-2.852     c-0.846-1.322-1.27-3.017-1.27-5.084c0-3.1,1.021-5.549,3.064-7.347c2.041-1.799,4.814-2.697,8.322-2.697     c1.648,0,3.217,0.166,4.701,0.496c2.971,0.661,4.455,1.798,4.455,3.41c0,0.537-0.309,1.437-0.928,2.696     c-0.619,1.262-1.197,1.892-1.732,1.892c-0.041,0-0.65-0.217-1.824-0.651c-1.176-0.434-2.32-0.651-3.436-0.651     c-2.227,0-3.34,0.744-3.34,2.232c0,0.827,0.422,1.499,1.268,2.015c0.846,0.518,1.877,0.992,3.094,1.427     c1.217,0.434,2.434,0.972,3.65,1.611c1.217,0.642,2.248,1.654,3.094,3.038c0.846,1.386,1.27,3.091,1.27,5.115     c0,3.266-1.062,5.88-3.188,7.843c-2.125,1.964-4.785,2.945-7.982,2.945s-5.867-0.383-8.012-1.147     C605.051,1424.775,603.979,1423.69,603.979,1422.284z"/>
			<path d="M633.617,1422.377c-2.559-2.872-3.836-7.016-3.836-12.431c0-5.414,1.277-9.548,3.836-12.399     c2.557-2.853,6.289-4.278,11.199-4.278c4.908,0,8.631,1.426,11.168,4.278c2.537,2.852,3.807,6.985,3.807,12.399     c0,5.415-1.27,9.559-3.807,12.431c-2.537,2.874-6.26,4.31-11.168,4.31C639.906,1426.686,636.174,1425.251,633.617,1422.377z      M639.062,1409.977c0,6.304,1.906,9.455,5.723,9.455s5.725-3.151,5.725-9.455c0-6.303-1.908-9.455-5.725-9.455     S639.062,1403.675,639.062,1409.977z"/>
			<path d="M663.873,1422.284c0-0.66,0.391-1.591,1.176-2.79c0.783-1.198,1.484-1.798,2.104-1.798c0.082,0,0.824,0.29,2.227,0.868     c1.402,0.579,2.682,0.868,3.838,0.868c2.516,0,3.773-0.931,3.773-2.79c0-0.992-0.424-1.787-1.268-2.387     c-0.848-0.599-1.879-1.105-3.094-1.52c-1.219-0.412-2.436-0.908-3.652-1.488c-1.217-0.578-2.248-1.528-3.094-2.852     c-0.846-1.322-1.268-3.017-1.268-5.084c0-3.1,1.021-5.549,3.062-7.347c2.043-1.799,4.816-2.697,8.322-2.697     c1.65,0,3.219,0.166,4.703,0.496c2.969,0.661,4.455,1.798,4.455,3.41c0,0.537-0.311,1.437-0.928,2.696     c-0.619,1.262-1.197,1.892-1.732,1.892c-0.043,0-0.65-0.217-1.826-0.651c-1.176-0.434-2.32-0.651-3.434-0.651     c-2.229,0-3.342,0.744-3.342,2.232c0,0.827,0.422,1.499,1.268,2.015c0.846,0.518,1.877,0.992,3.094,1.427     c1.217,0.434,2.434,0.972,3.652,1.611c1.215,0.642,2.246,1.654,3.094,3.038c0.844,1.386,1.268,3.091,1.268,5.115     c0,3.266-1.062,5.88-3.186,7.843c-2.125,1.964-4.787,2.945-7.982,2.945c-3.197,0-5.869-0.383-8.014-1.147     C664.945,1424.775,663.873,1423.69,663.873,1422.284z"/>
			<path d="M450.285,1505.674v-38.439c0-1.652,0.824-2.48,2.475-2.48h22.646c1.236,0,1.855,1.034,1.855,3.101v1.922     c0,2.067-0.619,3.1-1.855,3.1h-15.594v8.99h13.922c1.238,0,1.857,1.034,1.857,3.1v1.923c0,2.067-0.619,3.1-1.857,3.1h-13.922     v10.044h15.656c1.236,0,1.855,1.034,1.855,3.1v1.923c0,2.067-0.619,3.1-1.855,3.1H452.76     C451.109,1508.154,450.285,1507.328,450.285,1505.674z"/>
			<path d="M491.803,1508.65c-3.426,0-6.209-1.478-8.354-4.433c-2.146-2.955-3.219-7.026-3.219-12.215     c0-5.187,1.145-9.278,3.436-12.275c2.289-2.997,5.496-4.495,9.621-4.495c2.434,0,4.537,0.642,6.311,1.922v-13.764     c0-1.322,1.238-1.984,3.713-1.984h1.732c2.475,0,3.713,0.662,3.713,1.984v33.852c0,2.563,0.123,4.712,0.371,6.448l0.371,2.542     c0,0.661-0.836,1.157-2.506,1.488s-2.918,0.495-3.744,0.495c-0.824,0-1.371-0.082-1.639-0.247     c-0.27-0.165-0.486-0.435-0.65-0.807s-0.289-0.682-0.371-0.93s-0.176-0.651-0.277-1.209c-0.104-0.559-0.178-0.899-0.217-1.023     c-0.744,1.364-1.848,2.48-3.311,3.349C495.318,1508.216,493.658,1508.65,491.803,1508.65z M494.523,1501.148     c1.98,0,3.672-1.219,5.074-3.658v-13.826c-1.402-0.784-2.846-1.178-4.33-1.178c-3.838,0-5.756,3.11-5.756,9.331     C489.512,1498.039,491.184,1501.148,494.523,1501.148z"/>
			<path d="M514.076,1498.606v-21.019c0-1.322,1.238-1.983,3.713-1.983h1.732c2.475,0,3.713,0.661,3.713,1.983v19.654     c0,2.563,1.238,3.844,3.713,3.844c2.062,0,3.713-1.198,4.949-3.596v-19.902c0-1.322,1.238-1.983,3.713-1.983h1.732     c2.475,0,3.713,0.661,3.713,1.983v19.654c0,2.563,0.123,4.712,0.371,6.448l0.371,2.542c0,0.661-0.836,1.157-2.506,1.488     s-2.918,0.495-3.744,0.495c-0.824,0-1.371-0.082-1.639-0.247c-0.27-0.165-0.486-0.444-0.65-0.838     c-0.164-0.392-0.289-0.702-0.371-0.93c-0.082-0.227-0.176-0.63-0.277-1.209c-0.104-0.578-0.176-0.93-0.217-1.054     c-0.99,1.323-2.301,2.439-3.93,3.348c-1.631,0.909-3.393,1.364-5.291,1.364c-3.094,0-5.383-0.815-6.867-2.449     C514.82,1504.569,514.076,1502.038,514.076,1498.606z"/>
			<path d="M549.158,1504.589c-2.557-2.706-3.836-6.86-3.836-12.462c0-5.6,1.289-9.816,3.867-12.647s6.59-4.247,12.035-4.247     c2.516,0,4.857,0.383,7.023,1.146c2.166,0.766,3.248,1.809,3.248,3.132c0,0.619-0.424,1.571-1.268,2.852     c-0.848,1.281-1.518,1.922-2.012,1.922c-0.166,0-0.537-0.145-1.113-0.434c-1.816-0.909-3.775-1.364-5.879-1.364     s-3.713,0.766-4.826,2.294c-1.113,1.529-1.67,3.906-1.67,7.13c0,3.225,0.525,5.611,1.578,7.161     c1.051,1.55,2.66,2.325,4.826,2.325c2.164,0,4.258-0.475,6.279-1.426c0.66-0.248,1.031-0.372,1.113-0.372     c0.619,0,1.311,0.61,2.074,1.829c0.762,1.219,1.145,2.2,1.145,2.944s-0.455,1.426-1.361,2.046     c-0.908,0.62-2.002,1.075-3.279,1.364c-2.641,0.578-4.703,0.868-6.188,0.868C555.635,1508.65,551.717,1507.297,549.158,1504.589z     "/>
			<path d="M573.166,1499.598c0-1.157,0.104-2.211,0.311-3.162c0.205-0.95,0.68-1.974,1.422-3.069     c0.744-1.095,1.732-1.993,2.971-2.697c2.928-1.735,7.279-2.604,13.057-2.604v-2.046c0-2.356-1.609-3.534-4.828-3.534     c-2.268,0-4.475,0.496-6.619,1.488c-0.742,0.331-1.176,0.496-1.301,0.496c-0.617,0-1.309-0.641-2.072-1.923     c-0.764-1.28-1.145-2.294-1.145-3.037c0-1.116,1.145-2.108,3.434-2.977s5.084-1.302,8.385-1.302     c8.869,0,13.303,3.451,13.303,10.354v11.656c0,2.563,0.125,4.712,0.371,6.448l0.371,2.542c0,0.661-0.834,1.157-2.506,1.488     c-1.67,0.331-2.918,0.495-3.742,0.495c-0.826,0-1.373-0.082-1.641-0.247s-0.484-0.444-0.65-0.838     c-0.164-0.392-0.289-0.702-0.371-0.93c-0.082-0.227-0.176-0.63-0.277-1.209c-0.104-0.578-0.176-0.93-0.217-1.054     c-0.742,1.323-2.021,2.439-3.836,3.348c-1.816,0.909-3.568,1.364-5.26,1.364c-3.178,0-5.498-0.826-6.961-2.48     C573.898,1504.517,573.166,1502.326,573.166,1499.598z M582.262,1498.668c0,0.828,0.268,1.488,0.805,1.984     c0.535,0.496,1.34,0.744,2.414,0.744c1.072,0,2.123-0.372,3.154-1.116s1.795-1.674,2.291-2.79v-3.41     C585.148,1494.08,582.262,1495.61,582.262,1498.668z"/>
			<path d="M608.559,1504.589c-2.559-2.706-3.836-6.86-3.836-12.462c0-5.6,1.289-9.816,3.867-12.647s6.59-4.247,12.035-4.247     c2.516,0,4.857,0.383,7.021,1.146c2.166,0.766,3.25,1.809,3.25,3.132c0,0.619-0.424,1.571-1.27,2.852     c-0.846,1.281-1.516,1.922-2.012,1.922c-0.164,0-0.535-0.145-1.113-0.434c-1.814-0.909-3.773-1.364-5.877-1.364     s-3.713,0.766-4.826,2.294c-1.115,1.529-1.672,3.906-1.672,7.13c0,3.225,0.525,5.611,1.578,7.161s2.66,2.325,4.826,2.325     s4.26-0.475,6.281-1.426c0.658-0.248,1.029-0.372,1.113-0.372c0.619,0,1.309,0.61,2.072,1.829s1.145,2.2,1.145,2.944     s-0.453,1.426-1.361,2.046s-2,1.075-3.279,1.364c-2.641,0.578-4.701,0.868-6.188,0.868     C615.035,1508.65,611.115,1507.297,608.559,1504.589z"/>
			<path d="M637.33,1470.396c-2.477,0-3.713-0.661-3.713-1.984v-5.021c0-1.322,1.236-1.984,3.713-1.984h1.732     c2.475,0,3.713,0.662,3.713,1.984v5.021c0,1.323-1.238,1.984-3.713,1.984H637.33z M633.617,1506.294v-28.706     c0-1.322,1.236-1.983,3.713-1.983h1.732c2.475,0,3.713,0.661,3.713,1.983v28.706c0,1.323-1.238,1.984-3.713,1.984h-1.732     C634.854,1508.278,633.617,1507.617,633.617,1506.294z"/>
			<path d="M650.633,1504.341c-2.559-2.872-3.836-7.016-3.836-12.431c0-5.414,1.277-9.548,3.836-12.399     c2.557-2.853,6.289-4.278,11.199-4.278c4.908,0,8.631,1.426,11.168,4.278c2.537,2.852,3.807,6.985,3.807,12.399     c0,5.415-1.27,9.559-3.807,12.431c-2.537,2.874-6.26,4.31-11.168,4.31C656.922,1508.65,653.189,1507.215,650.633,1504.341z      M656.078,1491.941c0,6.304,1.906,9.455,5.723,9.455s5.725-3.151,5.725-9.455c0-6.303-1.908-9.455-5.725-9.455     S656.078,1485.638,656.078,1491.941z"/>
			<path d="M681.074,1506.294v-19.653c0-3.101-0.123-5.271-0.371-6.511c-0.248-1.239-0.371-1.983-0.371-2.231     c0-0.661,0.834-1.157,2.506-1.488c1.67-0.33,2.918-0.496,3.742-0.496c0.826,0,1.371,0.084,1.641,0.248     c0.268,0.166,0.484,0.425,0.65,0.775c0.164,0.352,0.287,0.641,0.371,0.868c0.082,0.228,0.174,0.61,0.277,1.146     c0.104,0.538,0.176,0.868,0.217,0.992c0.99-1.322,2.311-2.438,3.961-3.348c1.648-0.909,3.402-1.364,5.258-1.364     c3.096,0,5.385,0.816,6.869,2.449s2.227,4.164,2.227,7.595v21.018c0,1.323-1.236,1.984-3.711,1.984h-1.732     c-2.477,0-3.713-0.661-3.713-1.984v-19.653c0-2.562-1.238-3.845-3.713-3.845c-2.062,0-3.713,1.2-4.949,3.597v19.901     c0,1.323-1.238,1.984-3.713,1.984h-1.732C682.312,1508.278,681.074,1507.617,681.074,1506.294z"/>
			<path d="M712.135,1499.598c0-1.157,0.102-2.211,0.309-3.162c0.207-0.95,0.682-1.974,1.424-3.069     c0.742-1.095,1.732-1.993,2.971-2.697c2.928-1.735,7.279-2.604,13.055-2.604v-2.046c0-2.356-1.609-3.534-4.826-3.534     c-2.27,0-4.477,0.496-6.621,1.488c-0.742,0.331-1.176,0.496-1.299,0.496c-0.619,0-1.311-0.641-2.072-1.923     c-0.764-1.28-1.145-2.294-1.145-3.037c0-1.116,1.145-2.108,3.434-2.977s5.084-1.302,8.383-1.302     c8.869,0,13.305,3.451,13.305,10.354v11.656c0,2.563,0.123,4.712,0.371,6.448l0.371,2.542c0,0.661-0.836,1.157-2.506,1.488     c-1.672,0.331-2.92,0.495-3.744,0.495c-0.826,0-1.371-0.082-1.639-0.247c-0.27-0.165-0.486-0.444-0.65-0.838     c-0.166-0.392-0.289-0.702-0.371-0.93c-0.084-0.227-0.176-0.63-0.279-1.209c-0.104-0.578-0.176-0.93-0.217-1.054     c-0.742,1.323-2.021,2.439-3.836,3.348c-1.814,0.909-3.568,1.364-5.26,1.364c-3.176,0-5.496-0.826-6.961-2.48     C712.867,1504.517,712.135,1502.326,712.135,1499.598z M721.23,1498.668c0,0.828,0.268,1.488,0.805,1.984     c0.535,0.496,1.34,0.744,2.412,0.744s2.125-0.372,3.156-1.116s1.795-1.674,2.289-2.79v-3.41     C724.117,1494.08,721.23,1495.61,721.23,1498.668z"/>
			<path d="M748.455,1470.396c-2.475,0-3.713-0.661-3.713-1.984v-5.021c0-1.322,1.238-1.984,3.713-1.984h1.732     c2.475,0,3.713,0.662,3.713,1.984v5.021c0,1.323-1.238,1.984-3.713,1.984H748.455z M744.742,1506.294v-28.706     c0-1.322,1.238-1.983,3.713-1.983h1.732c2.475,0,3.713,0.661,3.713,1.983v28.706c0,1.323-1.238,1.984-3.713,1.984h-1.732     C745.98,1508.278,744.742,1507.617,744.742,1506.294z"/>
			<path d="M757.24,1504.248c0-0.66,0.393-1.591,1.176-2.79c0.783-1.198,1.486-1.798,2.104-1.798c0.082,0,0.826,0.29,2.229,0.868     c1.402,0.579,2.682,0.868,3.836,0.868c2.516,0,3.775-0.931,3.775-2.79c0-0.992-0.424-1.787-1.27-2.387     c-0.846-0.599-1.877-1.105-3.094-1.52c-1.217-0.412-2.434-0.908-3.65-1.488c-1.217-0.578-2.248-1.528-3.094-2.852     c-0.846-1.322-1.27-3.017-1.27-5.084c0-3.1,1.021-5.549,3.064-7.347c2.041-1.799,4.814-2.697,8.322-2.697     c1.648,0,3.217,0.166,4.701,0.496c2.971,0.661,4.455,1.798,4.455,3.41c0,0.537-0.309,1.437-0.928,2.696     c-0.619,1.262-1.197,1.892-1.732,1.892c-0.041,0-0.65-0.217-1.824-0.651c-1.176-0.434-2.32-0.651-3.436-0.651     c-2.227,0-3.34,0.744-3.34,2.232c0,0.827,0.422,1.499,1.268,2.015c0.846,0.518,1.877,0.992,3.094,1.427     c1.217,0.434,2.434,0.972,3.65,1.611c1.217,0.642,2.248,1.654,3.094,3.038c0.846,1.386,1.27,3.091,1.27,5.115     c0,3.266-1.062,5.88-3.188,7.843c-2.125,1.964-4.785,2.945-7.982,2.945s-5.867-0.383-8.012-1.147     C758.312,1506.739,757.24,1505.654,757.24,1504.248z"/>
			<path d="M446.016,1588.878c0-0.164,0.082-0.536,0.246-1.116l13.613-39.865c0.33-0.868,1.506-1.303,3.527-1.303h3.217     c2.021,0,3.197,0.435,3.527,1.303l13.613,39.865c0.123,0.414,0.186,0.786,0.186,1.116c0,0.91-1.031,1.364-3.094,1.364h-2.723     c-2.021,0-3.178-0.434-3.465-1.302l-2.477-7.564h-14.602l-2.475,7.564c-0.289,0.868-1.238,1.302-2.848,1.302h-2.475     C447.273,1590.242,446.016,1589.788,446.016,1588.878z M460.246,1573.192h9.281L466,1562.156l-0.928-3.968h-0.246     c-0.373,1.943-0.682,3.266-0.93,3.968L460.246,1573.192z"/>
			<path d="M487.594,1588.258v-42.903c0-1.322,1.238-1.984,3.713-1.984h1.732c2.475,0,3.713,0.662,3.713,1.984v13.764     c1.773-1.28,3.877-1.922,6.311-1.922c4.125,0,7.332,1.498,9.621,4.495c2.291,2.997,3.436,7.089,3.436,12.275     c0,5.188-1.074,9.26-3.219,12.215s-4.93,4.433-8.352,4.433c-1.857,0-3.518-0.435-4.982-1.302     c-1.465-0.868-2.566-1.984-3.311-3.349l-0.617,2.666c-0.248,1.075-1.445,1.612-3.59,1.612h-0.742     C488.832,1590.242,487.594,1589.581,487.594,1588.258z M501.826,1583.112c3.34,0,5.012-3.109,5.012-9.331     c0-6.221-1.918-9.331-5.756-9.331c-1.484,0-2.928,0.394-4.33,1.178v13.826C498.154,1581.893,499.846,1583.112,501.826,1583.112z"/>
			<path d="M524.873,1586.243c-2.66-2.914-3.99-7.119-3.99-12.617c0-5.496,1.33-9.609,3.99-12.338     c2.66-2.728,6.312-4.092,10.953-4.092s8.043,1.488,10.209,4.464s3.248,6.82,3.248,11.532c0,0.496-0.424,1.23-1.268,2.201     c-0.848,0.972-1.477,1.457-1.889,1.457H530.35c0.205,2.355,0.906,4.029,2.104,5.021c1.195,0.992,2.723,1.488,4.578,1.488     c1.857,0,3.631-0.32,5.322-0.961s2.557-0.961,2.598-0.961c0.619,0,1.311,0.61,2.074,1.829c0.762,1.22,1.145,2.181,1.145,2.883     c0,1.364-1.291,2.449-3.867,3.255c-2.578,0.806-5.002,1.209-7.271,1.209C531.586,1590.614,527.533,1589.157,524.873,1586.243z      M540.373,1570.712c0-1.9-0.371-3.42-1.113-4.557s-1.857-1.705-3.342-1.705c-3.053,0-4.91,2.088-5.568,6.262H540.373z"/>
			<path d="M555.035,1588.258v-19.653c0-3.101-0.123-5.271-0.371-6.511c-0.246-1.239-0.371-1.983-0.371-2.231     c0-0.661,0.836-1.157,2.506-1.488c1.672-0.33,2.918-0.496,3.744-0.496c0.824,0,1.371,0.084,1.639,0.248     c0.27,0.166,0.484,0.425,0.65,0.775c0.164,0.352,0.289,0.641,0.371,0.868s0.176,0.61,0.279,1.146     c0.102,0.538,0.174,0.868,0.217,0.992c1.732-3.141,3.98-4.712,6.744-4.712c1.318,0,2.236,0.341,2.754,1.022     c0.514,0.683,0.773,1.457,0.773,2.325s-0.186,1.953-0.559,3.255c-0.371,1.303-0.824,1.953-1.361,1.953     c-0.246,0-0.68-0.082-1.299-0.248c-0.619-0.164-1.154-0.248-1.607-0.248c-2.064,0-3.713,1.034-4.951,3.101v19.901     c0,1.323-1.238,1.984-3.713,1.984h-1.732C556.273,1590.242,555.035,1589.581,555.035,1588.258z"/>
			<path d="M589.562,1583.36l1.672-0.248c0.535,0,0.99,0.61,1.361,1.829c0.371,1.22,0.557,2.098,0.557,2.635     c0,2.025-1.98,3.038-5.941,3.038c-6.021,0-9.033-3.348-9.033-10.044v-15.624h-0.99c-1.236,0-1.855-1.033-1.855-3.101v-1.054     c0-2.066,0.619-3.1,1.855-3.1h0.99l0.805-5.891c0.205-1.322,1.32-1.983,3.342-1.983h1.918c2.062,0,3.094,0.661,3.094,1.983v5.891     h3.031c1.238,0,1.857,1.033,1.857,3.1v1.054c0,2.067-0.619,3.101-1.857,3.101h-3.031v15.748     C587.336,1582.471,588.078,1583.36,589.562,1583.36z"/>
			<path d="M600.576,1586.304c-2.559-2.872-3.836-7.016-3.836-12.431c0-5.414,1.277-9.548,3.836-12.399     c2.557-2.853,6.289-4.278,11.199-4.278c4.908,0,8.631,1.426,11.168,4.278c2.537,2.852,3.807,6.985,3.807,12.399     c0,5.415-1.27,9.559-3.807,12.431c-2.537,2.874-6.26,4.31-11.168,4.31C606.865,1590.614,603.133,1589.178,600.576,1586.304z      M606.021,1573.905c0,6.304,1.906,9.455,5.723,9.455s5.725-3.151,5.725-9.455c0-6.303-1.908-9.455-5.725-9.455     S606.021,1567.602,606.021,1573.905z"/>
			<path d="M630.832,1586.212c0-0.66,0.393-1.591,1.176-2.79c0.783-1.198,1.486-1.798,2.104-1.798c0.082,0,0.826,0.29,2.229,0.868     c1.402,0.579,2.682,0.868,3.836,0.868c2.516,0,3.775-0.931,3.775-2.79c0-0.992-0.424-1.787-1.27-2.387     c-0.846-0.599-1.877-1.105-3.094-1.52c-1.217-0.412-2.434-0.908-3.65-1.488c-1.217-0.578-2.248-1.528-3.094-2.852     c-0.846-1.322-1.27-3.017-1.27-5.084c0-3.1,1.021-5.549,3.064-7.347c2.041-1.799,4.814-2.697,8.322-2.697     c1.648,0,3.217,0.166,4.701,0.496c2.971,0.661,4.455,1.798,4.455,3.41c0,0.537-0.309,1.437-0.928,2.696     c-0.619,1.262-1.197,1.892-1.732,1.892c-0.041,0-0.65-0.217-1.824-0.651c-1.176-0.434-2.32-0.651-3.436-0.651     c-2.227,0-3.34,0.744-3.34,2.232c0,0.827,0.422,1.499,1.268,2.015c0.846,0.518,1.877,0.992,3.094,1.427     c1.217,0.434,2.434,0.972,3.65,1.611c1.217,0.642,2.248,1.654,3.094,3.038c0.846,1.386,1.27,3.091,1.27,5.115     c0,3.266-1.062,5.88-3.188,7.843c-2.125,1.964-4.785,2.945-7.982,2.945s-5.867-0.383-8.012-1.147     C631.904,1588.703,630.832,1587.618,630.832,1586.212z"/>
		</g>
	</g>
</g>
<g>
	<path fill="#1C75BC" d="M450.285,837.4v-39.06c0-1.652,0.824-2.48,2.475-2.48h12.066c10.27,0,15.406,3.886,15.406,11.656   c0,2.315-0.65,4.33-1.949,6.045c-1.299,1.716-3.062,2.987-5.291,3.813v0.248c0.783,0.289,1.588,0.982,2.414,2.077   c0.824,1.095,1.506,2.305,2.041,3.627l5.445,13.64c0.207,0.538,0.311,0.93,0.311,1.178c0,0.827-1.238,1.24-3.713,1.24h-2.537   c-2.062,0-3.26-0.434-3.59-1.302l-4.887-12.09c-0.703-1.364-1.455-2.325-2.26-2.884c-0.805-0.558-2.135-0.837-3.99-0.837h-2.414   V837.4c0,1.323-1.236,1.984-3.711,1.984h-2.105C451.521,839.385,450.285,838.723,450.285,837.4z M459.812,814.026h5.879   c1.277,0,2.393-0.516,3.342-1.55c0.947-1.032,1.422-2.283,1.422-3.751c0-1.467-0.463-2.624-1.391-3.472   c-0.93-0.847-2.197-1.271-3.807-1.271h-5.445V814.026z"/>
	<path fill="#1C75BC" d="M489.914,835.385c-2.66-2.914-3.99-7.119-3.99-12.617c0-5.496,1.33-9.609,3.99-12.338   c2.66-2.728,6.312-4.092,10.953-4.092s8.043,1.488,10.209,4.464s3.248,6.82,3.248,11.532c0,0.496-0.424,1.23-1.268,2.201   c-0.848,0.972-1.477,1.457-1.889,1.457h-15.777c0.205,2.355,0.906,4.029,2.104,5.021c1.195,0.992,2.723,1.488,4.578,1.488   c1.857,0,3.631-0.32,5.322-0.961s2.557-0.961,2.598-0.961c0.619,0,1.311,0.61,2.074,1.829c0.762,1.22,1.145,2.181,1.145,2.883   c0,1.364-1.291,2.449-3.867,3.255c-2.578,0.806-5.002,1.209-7.271,1.209C496.627,839.757,492.574,838.3,489.914,835.385z    M505.414,819.854c0-1.9-0.371-3.42-1.113-4.557s-1.857-1.705-3.342-1.705c-3.053,0-4.91,2.088-5.568,6.262H505.414z"/>
	<path fill="#1C75BC" d="M522.676,835.695c-2.557-2.706-3.836-6.86-3.836-12.462c0-5.6,1.289-9.816,3.867-12.647   s6.59-4.247,12.035-4.247c2.516,0,4.857,0.383,7.023,1.146c2.166,0.766,3.248,1.809,3.248,3.132c0,0.619-0.424,1.571-1.268,2.852   c-0.848,1.281-1.518,1.922-2.012,1.922c-0.166,0-0.537-0.145-1.113-0.434c-1.816-0.909-3.775-1.364-5.879-1.364   s-3.713,0.766-4.826,2.294c-1.113,1.529-1.67,3.906-1.67,7.13c0,3.225,0.525,5.611,1.578,7.161c1.051,1.55,2.66,2.325,4.826,2.325   c2.164,0,4.258-0.475,6.279-1.426c0.66-0.248,1.031-0.372,1.113-0.372c0.619,0,1.311,0.61,2.074,1.829   c0.762,1.219,1.145,2.2,1.145,2.944s-0.455,1.426-1.361,2.046c-0.908,0.62-2.002,1.075-3.279,1.364   c-2.641,0.578-4.703,0.868-6.188,0.868C529.152,839.757,525.234,838.403,522.676,835.695z"/>
	<path fill="#1C75BC" d="M549.467,829.713v-21.019c0-1.322,1.238-1.983,3.713-1.983h1.732c2.475,0,3.713,0.661,3.713,1.983v19.654   c0,2.563,1.238,3.844,3.713,3.844c2.062,0,3.713-1.198,4.949-3.596v-19.902c0-1.322,1.238-1.983,3.713-1.983h1.732   c2.475,0,3.713,0.661,3.713,1.983v19.654c0,2.563,0.123,4.712,0.371,6.448l0.371,2.542c0,0.661-0.836,1.157-2.506,1.488   s-2.918,0.495-3.744,0.495c-0.824,0-1.371-0.082-1.639-0.247c-0.27-0.165-0.486-0.444-0.65-0.838   c-0.164-0.392-0.289-0.702-0.371-0.93c-0.082-0.227-0.176-0.63-0.277-1.209c-0.104-0.578-0.176-0.93-0.217-1.054   c-0.99,1.323-2.301,2.439-3.93,3.348c-1.631,0.909-3.393,1.364-5.291,1.364c-3.094,0-5.383-0.815-6.867-2.449   C550.211,835.676,549.467,833.144,549.467,829.713z"/>
	<path fill="#1C75BC" d="M583.684,837.4v-19.653c0-3.101-0.123-5.271-0.371-6.511c-0.246-1.239-0.371-1.983-0.371-2.231   c0-0.661,0.836-1.157,2.506-1.488c1.672-0.33,2.918-0.496,3.744-0.496c0.824,0,1.371,0.084,1.639,0.248   c0.27,0.166,0.484,0.425,0.65,0.775c0.164,0.352,0.289,0.641,0.371,0.868s0.176,0.61,0.279,1.146   c0.102,0.538,0.174,0.868,0.217,0.992c1.732-3.141,3.98-4.712,6.744-4.712c1.318,0,2.236,0.341,2.754,1.022   c0.514,0.683,0.773,1.457,0.773,2.325s-0.186,1.953-0.559,3.255c-0.371,1.303-0.824,1.953-1.361,1.953   c-0.246,0-0.68-0.082-1.299-0.248c-0.619-0.164-1.154-0.248-1.607-0.248c-2.064,0-3.713,1.034-4.951,3.101V837.4   c0,1.323-1.238,1.984-3.713,1.984h-1.732C584.922,839.385,583.684,838.723,583.684,837.4z"/>
	<path fill="#1C75BC" d="M603.979,835.354c0-0.66,0.393-1.591,1.176-2.79c0.783-1.198,1.486-1.798,2.104-1.798   c0.082,0,0.826,0.29,2.229,0.868c1.402,0.579,2.682,0.868,3.836,0.868c2.516,0,3.775-0.931,3.775-2.79   c0-0.992-0.424-1.787-1.27-2.387c-0.846-0.599-1.877-1.105-3.094-1.52c-1.217-0.412-2.434-0.908-3.65-1.488   c-1.217-0.578-2.248-1.528-3.094-2.852c-0.846-1.322-1.27-3.017-1.27-5.084c0-3.1,1.021-5.549,3.064-7.347   c2.041-1.799,4.814-2.697,8.322-2.697c1.648,0,3.217,0.166,4.701,0.496c2.971,0.661,4.455,1.798,4.455,3.41   c0,0.537-0.309,1.437-0.928,2.696c-0.619,1.262-1.197,1.892-1.732,1.892c-0.041,0-0.65-0.217-1.824-0.651   c-1.176-0.434-2.32-0.651-3.436-0.651c-2.227,0-3.34,0.744-3.34,2.232c0,0.827,0.422,1.499,1.268,2.015   c0.846,0.518,1.877,0.992,3.094,1.427c1.217,0.434,2.434,0.972,3.65,1.611c1.217,0.642,2.248,1.654,3.094,3.038   c0.846,1.386,1.27,3.091,1.27,5.115c0,3.266-1.062,5.88-3.188,7.843c-2.125,1.964-4.785,2.945-7.982,2.945   s-5.867-0.383-8.012-1.147C605.051,837.845,603.979,836.76,603.979,835.354z"/>
	<path fill="#1C75BC" d="M633.617,835.447c-2.559-2.872-3.836-7.016-3.836-12.431c0-5.414,1.277-9.548,3.836-12.399   c2.557-2.853,6.289-4.278,11.199-4.278c4.908,0,8.631,1.426,11.168,4.278c2.537,2.852,3.807,6.985,3.807,12.399   c0,5.415-1.27,9.559-3.807,12.431c-2.537,2.874-6.26,4.31-11.168,4.31C639.906,839.757,636.174,838.321,633.617,835.447z    M639.062,823.048c0,6.304,1.906,9.455,5.723,9.455s5.725-3.151,5.725-9.455c0-6.303-1.908-9.455-5.725-9.455   S639.062,816.745,639.062,823.048z"/>
	<path fill="#1C75BC" d="M663.873,835.354c0-0.66,0.391-1.591,1.176-2.79c0.783-1.198,1.484-1.798,2.104-1.798   c0.082,0,0.824,0.29,2.227,0.868c1.402,0.579,2.682,0.868,3.838,0.868c2.516,0,3.773-0.931,3.773-2.79   c0-0.992-0.424-1.787-1.268-2.387c-0.848-0.599-1.879-1.105-3.094-1.52c-1.219-0.412-2.436-0.908-3.652-1.488   c-1.217-0.578-2.248-1.528-3.094-2.852c-0.846-1.322-1.268-3.017-1.268-5.084c0-3.1,1.021-5.549,3.062-7.347   c2.043-1.799,4.816-2.697,8.322-2.697c1.65,0,3.219,0.166,4.703,0.496c2.969,0.661,4.455,1.798,4.455,3.41   c0,0.537-0.311,1.437-0.928,2.696c-0.619,1.262-1.197,1.892-1.732,1.892c-0.043,0-0.65-0.217-1.826-0.651   c-1.176-0.434-2.32-0.651-3.434-0.651c-2.229,0-3.342,0.744-3.342,2.232c0,0.827,0.422,1.499,1.268,2.015   c0.846,0.518,1.877,0.992,3.094,1.427c1.217,0.434,2.434,0.972,3.652,1.611c1.215,0.642,2.246,1.654,3.094,3.038   c0.844,1.386,1.268,3.091,1.268,5.115c0,3.266-1.062,5.88-3.186,7.843c-2.125,1.964-4.787,2.945-7.982,2.945   c-3.197,0-5.869-0.383-8.014-1.147C664.945,837.845,663.873,836.76,663.873,835.354z"/>
	<path fill="#1C75BC" d="M450.285,918.744v-38.439c0-1.652,0.824-2.48,2.475-2.48h22.646c1.236,0,1.855,1.034,1.855,3.101v1.922   c0,2.067-0.619,3.1-1.855,3.1h-15.594v8.99h13.922c1.238,0,1.857,1.034,1.857,3.1v1.923c0,2.067-0.619,3.1-1.857,3.1h-13.922   v10.044h15.656c1.236,0,1.855,1.034,1.855,3.1v1.923c0,2.067-0.619,3.1-1.855,3.1H452.76   C451.109,921.224,450.285,920.398,450.285,918.744z"/>
	<path fill="#1C75BC" d="M491.803,921.72c-3.426,0-6.209-1.478-8.354-4.433c-2.146-2.955-3.219-7.026-3.219-12.215   c0-5.187,1.145-9.278,3.436-12.275c2.289-2.997,5.496-4.495,9.621-4.495c2.434,0,4.537,0.642,6.311,1.922v-13.764   c0-1.322,1.238-1.984,3.713-1.984h1.732c2.475,0,3.713,0.662,3.713,1.984v33.852c0,2.563,0.123,4.712,0.371,6.448l0.371,2.542   c0,0.661-0.836,1.157-2.506,1.488s-2.918,0.495-3.744,0.495c-0.824,0-1.371-0.082-1.639-0.247c-0.27-0.165-0.486-0.435-0.65-0.807   s-0.289-0.682-0.371-0.93s-0.176-0.651-0.277-1.209c-0.104-0.559-0.178-0.899-0.217-1.023c-0.744,1.364-1.848,2.48-3.311,3.349   C495.318,921.286,493.658,921.72,491.803,921.72z M494.523,914.219c1.98,0,3.672-1.219,5.074-3.658v-13.826   c-1.402-0.784-2.846-1.178-4.33-1.178c-3.838,0-5.756,3.11-5.756,9.331C489.512,911.109,491.184,914.219,494.523,914.219z"/>
	<path fill="#1C75BC" d="M514.076,911.677v-21.019c0-1.322,1.238-1.983,3.713-1.983h1.732c2.475,0,3.713,0.661,3.713,1.983v19.654   c0,2.563,1.238,3.844,3.713,3.844c2.062,0,3.713-1.198,4.949-3.596v-19.902c0-1.322,1.238-1.983,3.713-1.983h1.732   c2.475,0,3.713,0.661,3.713,1.983v19.654c0,2.563,0.123,4.712,0.371,6.448l0.371,2.542c0,0.661-0.836,1.157-2.506,1.488   s-2.918,0.495-3.744,0.495c-0.824,0-1.371-0.082-1.639-0.247c-0.27-0.165-0.486-0.444-0.65-0.838   c-0.164-0.392-0.289-0.702-0.371-0.93c-0.082-0.227-0.176-0.63-0.277-1.209c-0.104-0.578-0.176-0.93-0.217-1.054   c-0.99,1.323-2.301,2.439-3.93,3.348c-1.631,0.909-3.393,1.364-5.291,1.364c-3.094,0-5.383-0.815-6.867-2.449   C514.82,917.639,514.076,915.108,514.076,911.677z"/>
	<path fill="#1C75BC" d="M549.158,917.659c-2.557-2.706-3.836-6.86-3.836-12.462c0-5.6,1.289-9.816,3.867-12.647   s6.59-4.247,12.035-4.247c2.516,0,4.857,0.383,7.023,1.146c2.166,0.766,3.248,1.809,3.248,3.132c0,0.619-0.424,1.571-1.268,2.852   c-0.848,1.281-1.518,1.922-2.012,1.922c-0.166,0-0.537-0.145-1.113-0.434c-1.816-0.909-3.775-1.364-5.879-1.364   s-3.713,0.766-4.826,2.294c-1.113,1.529-1.67,3.906-1.67,7.13c0,3.225,0.525,5.611,1.578,7.161c1.051,1.55,2.66,2.325,4.826,2.325   c2.164,0,4.258-0.475,6.279-1.426c0.66-0.248,1.031-0.372,1.113-0.372c0.619,0,1.311,0.61,2.074,1.829   c0.762,1.219,1.145,2.2,1.145,2.944s-0.455,1.426-1.361,2.046c-0.908,0.62-2.002,1.075-3.279,1.364   c-2.641,0.578-4.703,0.868-6.188,0.868C555.635,921.72,551.717,920.367,549.158,917.659z"/>
	<path fill="#1C75BC" d="M573.166,912.669c0-1.157,0.104-2.211,0.311-3.162c0.205-0.95,0.68-1.974,1.422-3.069   c0.744-1.095,1.732-1.993,2.971-2.697c2.928-1.735,7.279-2.604,13.057-2.604v-2.046c0-2.356-1.609-3.534-4.828-3.534   c-2.268,0-4.475,0.496-6.619,1.488c-0.742,0.331-1.176,0.496-1.301,0.496c-0.617,0-1.309-0.641-2.072-1.923   c-0.764-1.28-1.145-2.294-1.145-3.037c0-1.116,1.145-2.108,3.434-2.977s5.084-1.302,8.385-1.302   c8.869,0,13.303,3.451,13.303,10.354v11.656c0,2.563,0.125,4.712,0.371,6.448l0.371,2.542c0,0.661-0.834,1.157-2.506,1.488   c-1.67,0.331-2.918,0.495-3.742,0.495c-0.826,0-1.373-0.082-1.641-0.247s-0.484-0.444-0.65-0.838   c-0.164-0.392-0.289-0.702-0.371-0.93c-0.082-0.227-0.176-0.63-0.277-1.209c-0.104-0.578-0.176-0.93-0.217-1.054   c-0.742,1.323-2.021,2.439-3.836,3.348c-1.816,0.909-3.568,1.364-5.26,1.364c-3.178,0-5.498-0.826-6.961-2.48   C573.898,917.588,573.166,915.396,573.166,912.669z M582.262,911.738c0,0.828,0.268,1.488,0.805,1.984   c0.535,0.496,1.34,0.744,2.414,0.744c1.072,0,2.123-0.372,3.154-1.116s1.795-1.674,2.291-2.79v-3.41   C585.148,907.15,582.262,908.68,582.262,911.738z"/>
	<path fill="#1C75BC" d="M608.559,917.659c-2.559-2.706-3.836-6.86-3.836-12.462c0-5.6,1.289-9.816,3.867-12.647   s6.59-4.247,12.035-4.247c2.516,0,4.857,0.383,7.021,1.146c2.166,0.766,3.25,1.809,3.25,3.132c0,0.619-0.424,1.571-1.27,2.852   c-0.846,1.281-1.516,1.922-2.012,1.922c-0.164,0-0.535-0.145-1.113-0.434c-1.814-0.909-3.773-1.364-5.877-1.364   s-3.713,0.766-4.826,2.294c-1.115,1.529-1.672,3.906-1.672,7.13c0,3.225,0.525,5.611,1.578,7.161s2.66,2.325,4.826,2.325   s4.26-0.475,6.281-1.426c0.658-0.248,1.029-0.372,1.113-0.372c0.619,0,1.309,0.61,2.072,1.829s1.145,2.2,1.145,2.944   s-0.453,1.426-1.361,2.046s-2,1.075-3.279,1.364c-2.641,0.578-4.701,0.868-6.188,0.868   C615.035,921.72,611.115,920.367,608.559,917.659z"/>
	<path fill="#1C75BC" d="M637.33,883.467c-2.477,0-3.713-0.661-3.713-1.984v-5.021c0-1.322,1.236-1.984,3.713-1.984h1.732   c2.475,0,3.713,0.662,3.713,1.984v5.021c0,1.323-1.238,1.984-3.713,1.984H637.33z M633.617,919.364v-28.706   c0-1.322,1.236-1.983,3.713-1.983h1.732c2.475,0,3.713,0.661,3.713,1.983v28.706c0,1.323-1.238,1.984-3.713,1.984h-1.732   C634.854,921.348,633.617,920.687,633.617,919.364z"/>
	<path fill="#1C75BC" d="M650.633,917.411c-2.559-2.872-3.836-7.016-3.836-12.431c0-5.414,1.277-9.548,3.836-12.399   c2.557-2.853,6.289-4.278,11.199-4.278c4.908,0,8.631,1.426,11.168,4.278c2.537,2.852,3.807,6.985,3.807,12.399   c0,5.415-1.27,9.559-3.807,12.431c-2.537,2.874-6.26,4.31-11.168,4.31C656.922,921.72,653.189,920.285,650.633,917.411z    M656.078,905.011c0,6.304,1.906,9.455,5.723,9.455s5.725-3.151,5.725-9.455c0-6.303-1.908-9.455-5.725-9.455   S656.078,898.709,656.078,905.011z"/>
	<path fill="#1C75BC" d="M681.074,919.364v-19.653c0-3.101-0.123-5.271-0.371-6.511c-0.248-1.239-0.371-1.983-0.371-2.231   c0-0.661,0.834-1.157,2.506-1.488c1.67-0.33,2.918-0.496,3.742-0.496c0.826,0,1.371,0.084,1.641,0.248   c0.268,0.166,0.484,0.425,0.65,0.775c0.164,0.352,0.287,0.641,0.371,0.868c0.082,0.228,0.174,0.61,0.277,1.146   c0.104,0.538,0.176,0.868,0.217,0.992c0.99-1.322,2.311-2.438,3.961-3.348c1.648-0.909,3.402-1.364,5.258-1.364   c3.096,0,5.385,0.816,6.869,2.449s2.227,4.164,2.227,7.595v21.018c0,1.323-1.236,1.984-3.711,1.984h-1.732   c-2.477,0-3.713-0.661-3.713-1.984v-19.653c0-2.562-1.238-3.845-3.713-3.845c-2.062,0-3.713,1.2-4.949,3.597v19.901   c0,1.323-1.238,1.984-3.713,1.984h-1.732C682.312,921.348,681.074,920.687,681.074,919.364z"/>
	<path fill="#1C75BC" d="M712.135,912.669c0-1.157,0.102-2.211,0.309-3.162c0.207-0.95,0.682-1.974,1.424-3.069   c0.742-1.095,1.732-1.993,2.971-2.697c2.928-1.735,7.279-2.604,13.055-2.604v-2.046c0-2.356-1.609-3.534-4.826-3.534   c-2.27,0-4.477,0.496-6.621,1.488c-0.742,0.331-1.176,0.496-1.299,0.496c-0.619,0-1.311-0.641-2.072-1.923   c-0.764-1.28-1.145-2.294-1.145-3.037c0-1.116,1.145-2.108,3.434-2.977s5.084-1.302,8.383-1.302   c8.869,0,13.305,3.451,13.305,10.354v11.656c0,2.563,0.123,4.712,0.371,6.448l0.371,2.542c0,0.661-0.836,1.157-2.506,1.488   c-1.672,0.331-2.92,0.495-3.744,0.495c-0.826,0-1.371-0.082-1.639-0.247c-0.27-0.165-0.486-0.444-0.65-0.838   c-0.166-0.392-0.289-0.702-0.371-0.93c-0.084-0.227-0.176-0.63-0.279-1.209c-0.104-0.578-0.176-0.93-0.217-1.054   c-0.742,1.323-2.021,2.439-3.836,3.348c-1.814,0.909-3.568,1.364-5.26,1.364c-3.176,0-5.496-0.826-6.961-2.48   C712.867,917.588,712.135,915.396,712.135,912.669z M721.23,911.738c0,0.828,0.268,1.488,0.805,1.984   c0.535,0.496,1.34,0.744,2.412,0.744s2.125-0.372,3.156-1.116s1.795-1.674,2.289-2.79v-3.41   C724.117,907.15,721.23,908.68,721.23,911.738z"/>
	<path fill="#1C75BC" d="M748.455,883.467c-2.475,0-3.713-0.661-3.713-1.984v-5.021c0-1.322,1.238-1.984,3.713-1.984h1.732   c2.475,0,3.713,0.662,3.713,1.984v5.021c0,1.323-1.238,1.984-3.713,1.984H748.455z M744.742,919.364v-28.706   c0-1.322,1.238-1.983,3.713-1.983h1.732c2.475,0,3.713,0.661,3.713,1.983v28.706c0,1.323-1.238,1.984-3.713,1.984h-1.732   C745.98,921.348,744.742,920.687,744.742,919.364z"/>
	<path fill="#1C75BC" d="M757.24,917.318c0-0.66,0.393-1.591,1.176-2.79c0.783-1.198,1.486-1.798,2.104-1.798   c0.082,0,0.826,0.29,2.229,0.868c1.402,0.579,2.682,0.868,3.836,0.868c2.516,0,3.775-0.931,3.775-2.79   c0-0.992-0.424-1.787-1.27-2.387c-0.846-0.599-1.877-1.105-3.094-1.52c-1.217-0.412-2.434-0.908-3.65-1.488   c-1.217-0.578-2.248-1.528-3.094-2.852c-0.846-1.322-1.27-3.017-1.27-5.084c0-3.1,1.021-5.549,3.064-7.347   c2.041-1.799,4.814-2.697,8.322-2.697c1.648,0,3.217,0.166,4.701,0.496c2.971,0.661,4.455,1.798,4.455,3.41   c0,0.537-0.309,1.437-0.928,2.696c-0.619,1.262-1.197,1.892-1.732,1.892c-0.041,0-0.65-0.217-1.824-0.651   c-1.176-0.434-2.32-0.651-3.436-0.651c-2.227,0-3.34,0.744-3.34,2.232c0,0.827,0.422,1.499,1.268,2.015   c0.846,0.518,1.877,0.992,3.094,1.427c1.217,0.434,2.434,0.972,3.65,1.611c1.217,0.642,2.248,1.654,3.094,3.038   c0.846,1.386,1.27,3.091,1.27,5.115c0,3.266-1.062,5.88-3.188,7.843c-2.125,1.964-4.785,2.945-7.982,2.945   s-5.867-0.383-8.012-1.147C758.312,919.809,757.24,918.724,757.24,917.318z"/>
	<path fill="#1C75BC" d="M446.016,1001.948c0-0.164,0.082-0.536,0.246-1.116l13.613-39.865c0.33-0.868,1.506-1.303,3.527-1.303   h3.217c2.021,0,3.197,0.435,3.527,1.303l13.613,39.865c0.123,0.414,0.186,0.786,0.186,1.116c0,0.91-1.031,1.364-3.094,1.364h-2.723   c-2.021,0-3.178-0.434-3.465-1.302l-2.477-7.564h-14.602l-2.475,7.564c-0.289,0.868-1.238,1.302-2.848,1.302h-2.475   C447.273,1003.312,446.016,1002.858,446.016,1001.948z M460.246,986.262h9.281L466,975.226l-0.928-3.968h-0.246   c-0.373,1.943-0.682,3.266-0.93,3.968L460.246,986.262z"/>
	<path fill="#1C75BC" d="M487.594,1001.328v-42.903c0-1.322,1.238-1.984,3.713-1.984h1.732c2.475,0,3.713,0.662,3.713,1.984v13.764   c1.773-1.28,3.877-1.922,6.311-1.922c4.125,0,7.332,1.498,9.621,4.495c2.291,2.997,3.436,7.089,3.436,12.275   c0,5.188-1.074,9.26-3.219,12.215s-4.93,4.433-8.352,4.433c-1.857,0-3.518-0.435-4.982-1.302c-1.465-0.868-2.566-1.984-3.311-3.349   l-0.617,2.666c-0.248,1.075-1.445,1.612-3.59,1.612h-0.742C488.832,1003.312,487.594,1002.651,487.594,1001.328z M501.826,996.182   c3.34,0,5.012-3.109,5.012-9.331c0-6.221-1.918-9.331-5.756-9.331c-1.484,0-2.928,0.394-4.33,1.178v13.826   C498.154,994.964,499.846,996.182,501.826,996.182z"/>
	<path fill="#1C75BC" d="M524.873,999.313c-2.66-2.914-3.99-7.119-3.99-12.617c0-5.496,1.33-9.609,3.99-12.338   c2.66-2.728,6.312-4.092,10.953-4.092s8.043,1.488,10.209,4.464s3.248,6.82,3.248,11.532c0,0.496-0.424,1.23-1.268,2.201   c-0.848,0.972-1.477,1.457-1.889,1.457H530.35c0.205,2.355,0.906,4.029,2.104,5.021c1.195,0.992,2.723,1.488,4.578,1.488   c1.857,0,3.631-0.32,5.322-0.961s2.557-0.961,2.598-0.961c0.619,0,1.311,0.61,2.074,1.829c0.762,1.22,1.145,2.181,1.145,2.883   c0,1.364-1.291,2.449-3.867,3.255c-2.578,0.806-5.002,1.209-7.271,1.209C531.586,1003.684,527.533,1002.227,524.873,999.313z    M540.373,983.782c0-1.9-0.371-3.42-1.113-4.557s-1.857-1.705-3.342-1.705c-3.053,0-4.91,2.088-5.568,6.262H540.373z"/>
	<path fill="#1C75BC" d="M555.035,1001.328v-19.653c0-3.101-0.123-5.271-0.371-6.511c-0.246-1.239-0.371-1.983-0.371-2.231   c0-0.661,0.836-1.157,2.506-1.488c1.672-0.33,2.918-0.496,3.744-0.496c0.824,0,1.371,0.084,1.639,0.248   c0.27,0.166,0.484,0.425,0.65,0.775c0.164,0.352,0.289,0.641,0.371,0.868s0.176,0.61,0.279,1.146   c0.102,0.538,0.174,0.868,0.217,0.992c1.732-3.141,3.98-4.712,6.744-4.712c1.318,0,2.236,0.341,2.754,1.022   c0.514,0.683,0.773,1.457,0.773,2.325s-0.186,1.953-0.559,3.255c-0.371,1.303-0.824,1.953-1.361,1.953   c-0.246,0-0.68-0.082-1.299-0.248c-0.619-0.164-1.154-0.248-1.607-0.248c-2.064,0-3.713,1.034-4.951,3.101v19.901   c0,1.323-1.238,1.984-3.713,1.984h-1.732C556.273,1003.312,555.035,1002.651,555.035,1001.328z"/>
	<path fill="#1C75BC" d="M589.562,996.43l1.672-0.248c0.535,0,0.99,0.61,1.361,1.829c0.371,1.22,0.557,2.098,0.557,2.635   c0,2.025-1.98,3.038-5.941,3.038c-6.021,0-9.033-3.348-9.033-10.044v-15.624h-0.99c-1.236,0-1.855-1.033-1.855-3.101v-1.054   c0-2.066,0.619-3.1,1.855-3.1h0.99l0.805-5.891c0.205-1.322,1.32-1.983,3.342-1.983h1.918c2.062,0,3.094,0.661,3.094,1.983v5.891   h3.031c1.238,0,1.857,1.033,1.857,3.1v1.054c0,2.067-0.619,3.101-1.857,3.101h-3.031v15.748   C587.336,995.542,588.078,996.43,589.562,996.43z"/>
	<path fill="#1C75BC" d="M600.576,999.375c-2.559-2.872-3.836-7.016-3.836-12.431c0-5.414,1.277-9.548,3.836-12.399   c2.557-2.853,6.289-4.278,11.199-4.278c4.908,0,8.631,1.426,11.168,4.278c2.537,2.852,3.807,6.985,3.807,12.399   c0,5.415-1.27,9.559-3.807,12.431c-2.537,2.874-6.26,4.31-11.168,4.31C606.865,1003.684,603.133,1002.249,600.576,999.375z    M606.021,986.975c0,6.304,1.906,9.455,5.723,9.455s5.725-3.151,5.725-9.455c0-6.303-1.908-9.455-5.725-9.455   S606.021,980.673,606.021,986.975z"/>
	<path fill="#1C75BC" d="M630.832,999.282c0-0.66,0.393-1.591,1.176-2.79c0.783-1.198,1.486-1.798,2.104-1.798   c0.082,0,0.826,0.29,2.229,0.868c1.402,0.579,2.682,0.868,3.836,0.868c2.516,0,3.775-0.931,3.775-2.79   c0-0.992-0.424-1.787-1.27-2.387c-0.846-0.599-1.877-1.105-3.094-1.52c-1.217-0.412-2.434-0.908-3.65-1.488   c-1.217-0.578-2.248-1.528-3.094-2.852c-0.846-1.322-1.27-3.017-1.27-5.084c0-3.1,1.021-5.549,3.064-7.347   c2.041-1.799,4.814-2.697,8.322-2.697c1.648,0,3.217,0.166,4.701,0.496c2.971,0.661,4.455,1.798,4.455,3.41   c0,0.537-0.309,1.437-0.928,2.696c-0.619,1.262-1.197,1.892-1.732,1.892c-0.041,0-0.65-0.217-1.824-0.651   c-1.176-0.434-2.32-0.651-3.436-0.651c-2.227,0-3.34,0.744-3.34,2.232c0,0.827,0.422,1.499,1.268,2.015   c0.846,0.518,1.877,0.992,3.094,1.427c1.217,0.434,2.434,0.972,3.65,1.611c1.217,0.642,2.248,1.654,3.094,3.038   c0.846,1.386,1.27,3.091,1.27,5.115c0,3.266-1.062,5.88-3.188,7.843c-2.125,1.964-4.785,2.945-7.982,2.945   s-5.867-0.383-8.012-1.147C631.904,1001.773,630.832,1000.688,630.832,999.282z"/>
</g>
</svg>