<?xml version="1.0" encoding="utf-8"?>
<!-- Generator: Adobe Illustrator 22.0.1, SVG Export Plug-In . SVG Version: 6.00 Build 0)  -->
<svg version="1.1" id="Layer_1" xmlns="http://www.w3.org/2000/svg" xmlns:xlink="http://www.w3.org/1999/xlink" x="0px" y="0px"
	 viewBox="0 0 100 100" style="enable-background:new 0 0 100 100;" xml:space="preserve">
<style type="text/css">
	.st0{fill:#46BC93;}
	.st1{display:none;}
	.st2{display:inline;}
</style>
<path class="st0" d="M86,77.9c1.4-1.3,2.3-3.1,2.3-5.2v-2.8c0-3.9-3.2-7.1-7.1-7.1c-3.4,0-6.3,2.4-7,5.7h-4.7
	c-0.6-1.6-2.1-2.8-4-2.8c-1.8,0-3.4,1.2-4,2.8H57c-0.6-2.8-2.8-5-5.5-5.5v-3.2c2.4-0.6,4.3-2.8,4.3-5.5h1.4c0.8,0,1.4-0.6,1.4-1.4
	v-4.3h2.8v-2.8h-2.8v0c0-2.7,1.3-5.4,3.5-7.3c4.1-3.5,6.4-8.6,6.4-14c0-5.1-2-9.8-5.7-13.3C59.1,7.7,54.3,5.8,49.3,6
	c-9.6,0.4-17.5,8.5-17.7,18.1c-0.1,5.4,2.2,10.6,6.3,14.2c2.3,2,3.6,4.7,3.6,7.4h-2.8v2.8h2.8v4.3c0,0.8,0.6,1.4,1.4,1.4h1.4
	c0,2.6,1.8,4.8,4.3,5.5v3.2c-2.8,0.6-5,2.8-5.5,5.5h-4.7c-0.6-1.6-2.1-2.8-4-2.8c-1.8,0-3.4,1.2-4,2.8h-4.7c-0.7-3.2-3.5-5.7-7-5.7
	c-3.9,0-7.1,3.2-7.1,7.1v2.8c0,2.1,0.9,3.9,2.3,5.2c-4.7,1.9-8,6.5-8,11.8v2.8C6,93.4,6.7,94,7.5,94h22.7c0.8,0,1.4-0.6,1.4-1.4
	v-2.8c0-5.3-3.3-9.9-8-11.8c1.4-1.3,2.3-3.1,2.3-5.2v-1.4h4.5c0.6,1.6,2.1,2.8,4,2.8c1.8,0,3.4-1.2,4-2.8h4.5v1.4
	c0,2.1,0.9,3.9,2.3,5.2c-4.7,1.9-8,6.5-8,11.8v2.8c0,0.8,0.6,1.4,1.4,1.4h22.7c0.8,0,1.4-0.6,1.4-1.4v-2.8c0-5.3-3.3-9.9-8-11.8
	c1.4-1.3,2.3-3.1,2.3-5.2v-1.4h4.5c0.6,1.6,2.1,2.8,4,2.8c1.8,0,3.4-1.2,4-2.8h4.5v1.4c0,2.1,0.9,3.9,2.3,5.2c-4.7,1.9-8,6.5-8,11.8
	v2.8c0,0.8,0.6,1.4,1.4,1.4h22.7c0.8,0,1.4-0.6,1.4-1.4v-2.8C94,84.4,90.7,79.8,86,77.9z M28.7,89.7v1.4h-2.8v-2.8h-2.8v2.8h-8.5
	v-2.8h-2.8v2.8H8.9v-1.4c0-5.5,4.5-9.9,9.9-9.9C24.3,79.8,28.7,84.3,28.7,89.7z M14.5,72.7v-2.8c0-2.3,1.9-4.3,4.3-4.3
	c2.3,0,4.3,1.9,4.3,4.3v2.8c0,2.3-1.9,4.3-4.3,4.3C16.5,77,14.5,75.1,14.5,72.7z M34.4,71.3c-0.8,0-1.4-0.6-1.4-1.4
	c0-0.8,0.6-1.4,1.4-1.4c0.8,0,1.4,0.6,1.4,1.4C35.8,70.7,35.2,71.3,34.4,71.3z M39.7,36.2c-3.5-3-5.4-7.4-5.3-12
	c0.1-8.1,6.9-15,15-15.3c4.3-0.2,8.4,1.4,11.5,4.3c3.1,3,4.8,7,4.8,11.3c0,4.5-2,8.8-5.4,11.8c-2.9,2.5-4.5,5.9-4.5,9.5v0H44.3
	C44.2,42.2,42.6,38.7,39.7,36.2z M55.7,48.6v2.8H44.3v-2.8H55.7z M47.2,54.3h5.7c0,1.6-1.3,2.8-2.8,2.8
	C48.5,57.1,47.2,55.8,47.2,54.3z M59.9,89.7v1.4h-2.8v-2.8h-2.8v2.8h-8.5v-2.8h-2.8v2.8h-2.8v-1.4c0-5.5,4.5-9.9,9.9-9.9
	C55.5,79.8,59.9,84.3,59.9,89.7z M45.8,72.7v-2.8c0-2.3,1.9-4.3,4.3-4.3c2.3,0,4.3,1.9,4.3,4.3v2.8c0,2.3-1.9,4.3-4.3,4.3
	C47.7,77,45.8,75.1,45.8,72.7z M65.6,71.3c-0.8,0-1.4-0.6-1.4-1.4c0-0.8,0.6-1.4,1.4-1.4c0.8,0,1.4,0.6,1.4,1.4
	C67,70.7,66.4,71.3,65.6,71.3z M77,72.7v-2.8c0-2.3,1.9-4.3,4.3-4.3c2.3,0,4.3,1.9,4.3,4.3v2.8c0,2.3-1.9,4.3-4.3,4.3
	C78.9,77,77,75.1,77,72.7z M91.2,91.2h-2.8v-2.8h-2.8v2.8H77v-2.8h-2.8v2.8h-2.8v-1.4c0-5.5,4.5-9.9,9.9-9.9c5.5,0,9.9,4.5,9.9,9.9
	V91.2z"/>
<path class="st0" d="M47.2,40.1h5.7v2.8h-5.7V40.1z"/>
<path class="st0" d="M48.6,31.4v3h2.8v-3c0.9-0.2,1.7-0.5,2.5-1l2.2,2.2l2-2l-2.2-2.2c0.5-0.7,0.9-1.6,1-2.5h3v-2.8h-3
	c-0.2-0.9-0.5-1.7-1-2.5l2.2-2.2l-2-2l-2.2,2.2c-0.7-0.5-1.6-0.9-2.5-1v-3h-2.8v3c-0.9,0.2-1.7,0.5-2.5,1l-2.2-2.2l-2,2l2.2,2.2
	c-0.5,0.7-0.9,1.6-1,2.5h-3v2.8h3c0.2,0.9,0.5,1.7,1,2.5l-2.2,2.2l2,2l2.2-2.2C46.9,30.9,47.7,31.2,48.6,31.4z M50,20.2
	c2.3,0,4.3,1.9,4.3,4.3s-1.9,4.3-4.3,4.3c-2.3,0-4.3-1.9-4.3-4.3S47.7,20.2,50,20.2z"/>
<g class="st1">
	<g class="st2">
		<g>
			<path class="st0" d="M60.4,19.7c0.2,0.2,0.5,0.2,0.8,0.2c0.4,0,0.8-0.2,1.1-0.6c0.4-0.6,0.3-1.4-0.3-1.8l-0.1-0.1
				c-0.6-0.4-1.4-0.3-1.8,0.3c-0.4,0.6-0.3,1.4,0.3,1.8L60.4,19.7z"/>
			<path class="st0" d="M51.3,25.1c-1,0.7-1.5,1.8-1.5,3v11.8c0,1.6,1,3,2.5,3.5l12.9,4.3c0,0,0,0,0,0c0,0,0.1,0,0.1,0
				c0,0,0,0,0.1,0c0,0,0,0,0.1,0c0,0,0.1,0,0.1,0c0.1,0,0.1,0,0.2,0c0,0,0,0,0,0c0.1,0,0.1,0,0.2,0c0,0,0,0,0,0l12.9-4.3
				c1.5-0.5,2.5-1.9,2.5-3.5V28.1c0-1.2-0.6-2.3-1.5-3c-1-0.7-2.2-0.9-3.4-0.5l-10.9,3.6l-10.9-3.6C53.5,24.2,52.3,24.4,51.3,25.1z
				 M66.9,30.5l10.4-3.5c0.3-0.1,0.7-0.1,1,0.2c0.3,0.2,0.5,0.5,0.5,0.9v11.8c0,0.5-0.3,0.9-0.8,1.1l-11.1,3.7V30.5z M64.2,44.7
				L53.1,41c-0.5-0.2-0.8-0.6-0.8-1.1V28.1c0-0.4,0.2-0.7,0.5-0.9c0.3-0.2,0.7-0.3,1-0.2l10.4,3.5V44.7z"/>
			<path class="st0" d="M67.1,18c0.2,0.2,0.5,0.2,0.8,0.2c0.4,0,0.8-0.2,1.1-0.6c0.4-0.6,0.3-1.4-0.3-1.8l-0.1-0.1
				c-0.6-0.4-1.4-0.3-1.8,0.3c-0.4,0.6-0.3,1.4,0.3,1.8L67.1,18z"/>
			<path class="st0" d="M64.1,22.3c0.2,0.2,0.5,0.2,0.8,0.2c0.4,0,0.8-0.2,1.1-0.6c0.4-0.6,0.3-1.4-0.3-1.8L65.4,20
				c-0.6-0.4-1.4-0.3-1.8,0.3c-0.4,0.6-0.3,1.4,0.3,1.8L64.1,22.3z"/>
			<path class="st0" d="M49.5,54h-0.2c-0.7,0-1.3,0.6-1.3,1.3c0,0.7,0.6,1.3,1.3,1.3h0.2c0.7,0,1.3-0.6,1.3-1.3
				C50.8,54.5,50.2,54,49.5,54z"/>
			<path class="st0" d="M19.9,49c-4.9-4.1-7.7-10.1-7.7-16.5c0-11.8,9.6-21.4,21.4-21.4c8,0,15.3,4.4,19,11.5
				c0.3,0.6,1.1,0.9,1.8,0.6c0.6-0.3,0.9-1.1,0.6-1.8c-4.2-8-12.3-12.9-21.3-12.9c-13.2,0-24,10.8-24,24c0,7.2,3.2,13.9,8.7,18.5
				c0.2,0.2,0.5,0.3,0.8,0.3c0.4,0,0.7-0.2,1-0.5C20.5,50.3,20.5,49.5,19.9,49z"/>
			<path class="st0" d="M31.8,32.1H32c0.7,0,1.3-0.6,1.3-1.3c0-0.7-0.6-1.3-1.3-1.3h-0.2c-0.7,0-1.3,0.6-1.3,1.3
				C30.5,31.5,31.1,32.1,31.8,32.1z"/>
			<path class="st0" d="M60.4,61.9c-0.7-0.3-1.4,0-1.7,0.7c-2.9,6.5-9.3,10.6-16.4,10.6c-9.9,0-17.9-8-17.9-17.9
				c0-3.5,1-6.9,2.9-9.8c0.4-0.6,0.2-1.4-0.4-1.8c-0.6-0.4-1.4-0.2-1.8,0.4c-2.2,3.3-3.3,7.2-3.3,11.2c0,11.3,9.2,20.5,20.5,20.5
				c8.1,0,15.5-4.8,18.8-12.2C61.4,63,61.1,62.2,60.4,61.9z"/>
			<path class="st0" d="M28.3,78.4c-3.6,0-6.6,2.9-6.6,6.6c0,3.6,2.9,6.6,6.6,6.6s6.6-2.9,6.6-6.6C34.9,81.4,31.9,78.4,28.3,78.4z
				 M28.3,88.9c-2.2,0-3.9-1.8-3.9-3.9s1.8-3.9,3.9-3.9c2.2,0,3.9,1.8,3.9,3.9S30.5,88.9,28.3,88.9z"/>
			<path class="st0" d="M66.8,8.5c-4.6,0-9.2,1.2-13.2,3.6c-0.6,0.4-0.8,1.2-0.5,1.8c0.4,0.6,1.2,0.8,1.8,0.5
				c3.6-2.1,7.7-3.2,11.8-3.2c12.8,0,23.2,10.4,23.2,23.2S79.5,57.4,66.8,57.4c-4.1,0-8.1-1.1-11.6-3.1c-0.6-0.4-1.4-0.1-1.8,0.5
				c-0.4,0.6-0.1,1.4,0.5,1.8c3.9,2.3,8.4,3.4,12.9,3.4c14.2,0,25.8-11.6,25.8-25.8S81,8.5,66.8,8.5z"/>
			<path class="st0" d="M49.5,59.2h-0.2c-0.7,0-1.3,0.6-1.3,1.3c0,0.7,0.6,1.3,1.3,1.3h0.2c0.7,0,1.3-0.6,1.3-1.3
				C50.8,59.8,50.2,59.2,49.5,59.2z"/>
			<path class="st0" d="M23.3,39.4c1.2,1.2,2.8,1.8,4.3,1.8c1.5,0,3.1-0.6,4.3-1.7c1.2,1.2,2.7,1.7,4.3,1.7c1.6,0,3.2-0.6,4.3-1.8
				c2.4-2.4,2.4-6.2,0.1-8.6c2.3-2.4,2.3-6.3-0.1-8.6c-2.4-2.4-6.2-2.4-8.6-0.1c-2.4-2.3-6.3-2.3-8.6,0.1c-2.4,2.4-2.4,6.2-0.1,8.6
				C20.9,33.2,20.9,37.1,23.3,39.4z M25.1,37.6c-1.4-1.4-1.4-3.5-0.1-4.9l5,5C28.7,38.9,26.5,38.9,25.1,37.6z M38.7,37.6
				c-1.4,1.4-3.5,1.4-4.9,0.1l5-5C40.1,34,40,36.2,38.7,37.6z M38.7,24c1.4,1.4,1.4,3.5,0.1,4.9l-5-5C35.2,22.7,37.3,22.7,38.7,24z
				 M36.9,30.8l-5,5l-5-5l5-5L36.9,30.8z M25.1,24c0.7-0.7,1.6-1,2.5-1c0.9,0,1.7,0.3,2.4,1l-5,5C23.8,27.6,23.8,25.4,25.1,24z"/>
			<path class="st0" d="M52.4,48.3c0-0.7-0.6-1.3-1.3-1.3H46c-1.7,0-3.2,1.1-3.7,2.7l-4,12.1c-0.2,0.5-0.7,0.9-1.3,0.9
				c-0.5,0-0.9-0.3-1.2-0.7l-4.5-8.6c-0.3-0.6-1.1-0.9-1.8-0.6c-0.6,0.3-0.9,1.1-0.6,1.8l4.5,8.6c0.7,1.3,2,2.1,3.5,2.1
				c1.7,0,3.2-1.1,3.7-2.7l4-12.1c0.2-0.5,0.7-0.9,1.3-0.9H51C51.8,49.6,52.4,49,52.4,48.3z"/>
			<path class="st0" d="M19.8,41.7h-0.2c-0.7,0-1.3,0.6-1.3,1.3c0,0.7,0.6,1.3,1.3,1.3h0.2c0.7,0,1.3-0.6,1.3-1.3
				C21.1,42.3,20.5,41.7,19.8,41.7z"/>
			<path class="st0" d="M35.5,51.3c0.7,0,1.3-0.6,1.3-1.3c0-0.7-0.6-1.3-1.3-1.3h-0.2c-0.7,0-1.3,0.6-1.3,1.3c0,0.7,0.6,1.3,1.3,1.3
				L35.5,51.3L35.5,51.3z"/>
		</g>
	</g>
</g>
</svg>
