<?xml version="1.0" encoding="utf-8"?>
<!-- Generator: Adobe Illustrator 22.0.1, SVG Export Plug-In . SVG Version: 6.00 Build 0)  -->
<svg version="1.1" id="Layer_1" xmlns="http://www.w3.org/2000/svg" xmlns:xlink="http://www.w3.org/1999/xlink" x="0px" y="0px"
	 viewBox="0 0 100 100" style="enable-background:new 0 0 100 100;" xml:space="preserve">
<style type="text/css">
	.st0{fill:#46BC93;}
</style>
<path class="st0" d="M88.9,61.7l-13-13c-0.9-0.9-2.1-1.4-3.3-1.4s-2.4,0.5-3.3,1.4c-0.5,0.5-0.8,1-1.1,1.6c-1.7-0.7-3.7-0.3-5.1,1
	c-0.8,0.8-1.3,1.9-1.4,3c-1.1,0.1-2.2,0.5-3,1.4c-0.4,0.4-0.7,0.8-0.9,1.2l-1.9-1.9c3.1-2.9,4.8-6.9,4.8-11.2c0-0.9-0.7-1.6-1.6-1.6
	H47V30.2c0-0.9-0.7-1.6-1.6-1.6C36.9,28.6,30,35.5,30,44c0,8.5,6.9,15.4,15.4,15.4c0.5,0,1,0,1.4-0.1l3.9,3.9H33
	c-0.9,0-1.6,0.7-1.6,1.6v7.7c0,0.9,0.7,1.6,1.6,1.6h17c0,1.5,0.6,2.9,1.8,3.9h-32v-1.6l7.5-8.7c1.1-1.3,1.4-3.1,0.8-4.7
	c-0.5-1.4-1.7-2.4-3.1-2.8c-1.4-0.4-2.9-0.1-4.1,0.9l-1.1,0.9V19.8H23v9.9c0,0.9,0.7,1.6,1.6,1.6c0.9,0,1.6-0.7,1.6-1.6v-9.9H77
	v19.1c0,0.9,0.7,1.6,1.6,1.6c0.9,0,1.6-0.7,1.6-1.6V14.6c0-3.7-3-6.7-6.7-6.7H23.3c-3.7,0-6.7,3-6.7,6.7v32.1c0,0-0.1,0.1-0.1,0.2
	l-6.2,7.9c-1.8,2.3-2.8,5.2-2.8,8.1v25.3c0,0.9,0.7,1.6,1.6,1.6c0.9,0,1.6-0.7,1.6-1.6V62.9c0-2.2,0.7-4.4,2.1-6.1l3.8-4.9v13.3
	c0,0.9,0.7,1.6,1.6,1.6c0.4,0,0.7-0.1,1-0.4c0,0,0,0,0,0l3.7-2.9c0.4-0.3,0.8-0.4,1.3-0.3c0.4,0.1,0.8,0.4,1,0.8
	c0.2,0.5,0.1,1.1-0.2,1.5L17,74.6c0,0,0,0,0,0c-0.2,0.3-0.4,0.6-0.4,1V83c0,3.7,3,6.7,6.7,6.7h50.2c1,0,1.9-0.2,2.8-0.6
	c0.7,0.2,1.4,0.4,2.1,0.6c0.1,0,0.3,0,0.4,0c0.7,0,1.4-0.5,1.5-1.2c0.2-0.9-0.3-1.7-1.2-1.9c-7-1.8-13.7-4.5-19.9-8.1l-5.3-3
	c-0.6-0.4-0.9-1.1-0.8-1.8c0.2-0.8,1.1-1.4,1.9-1.2l7,1.7c0.7,0.2,1.4-0.1,1.8-0.8c0.4-0.6,0.2-1.4-0.3-1.9l-16-16
	c-0.3-0.3-0.4-0.7-0.4-1.1s0.2-0.8,0.4-1.1c0.6-0.6,1.5-0.6,2.1,0l8.9,8.9c0,0,0,0,0,0l5.3,5.3c0.6,0.6,1.6,0.6,2.3,0
	c0.6-0.6,0.6-1.6,0-2.3L61,60.2c-0.6-0.6-0.6-1.5,0-2.1c0.6-0.6,1.5-0.6,2.1,0l5.3,5.3c0.6,0.6,1.6,0.6,2.3,0c0.6-0.6,0.6-1.6,0-2.3
	l-4.5-4.5c0,0,0,0,0,0l-0.8-0.8c-0.3-0.3-0.4-0.7-0.4-1.1s0.2-0.8,0.4-1.1c0.6-0.6,1.5-0.6,2.1,0l3.1,3.1c0,0,0,0,0,0l2.2,2.2
	c0.6,0.6,1.6,0.6,2.3,0c0.6-0.6,0.6-1.6,0-2.3l-3.6-3.6c-0.3-0.3-0.4-0.7-0.4-1.1s0.2-0.8,0.4-1.1c0.3-0.3,0.7-0.4,1.1-0.4
	c0.4,0,0.8,0.2,1.1,0.4l13,13c0.3,0.3,0.7,0.5,1.1,0.5s0.8-0.2,1.1-0.5C89.5,63.4,89.5,62.4,88.9,61.7z M23.3,11.1h50.2
	c1.9,0,3.5,1.6,3.5,3.5v1.9H19.8v-1.9C19.8,12.7,21.4,11.1,23.3,11.1z M43.8,40.1L38,34.3c1.7-1.3,3.6-2.1,5.8-2.4V40.1z M68.7,86.5
	H23.3c-1.9,0-3.5-1.6-3.5-3.5v-1.9h37.3c0.1,0,0.2,0,0.2,0l0.4,0.2C61.2,83.3,64.9,85.1,68.7,86.5z M56,69.5
	c-1.7-0.4-3.5,0.2-4.6,1.4H34.6v-4.5h19.3l3.5,3.5L56,69.5z M45.5,51.3c-1.3,1.3-1.7,3.2-1.1,4.8c-6.2-0.5-11.1-5.8-11.1-12.1
	c0-2.8,0.9-5.3,2.5-7.4l8.5,8.5c0,0,0,0,0,0c0.3,0.3,0.7,0.5,1.1,0.5h12.1c-0.4,2.8-1.7,5.4-3.8,7.3l-1.6-1.6
	C50.3,49.4,47.3,49.4,45.5,51.3z"/>
</svg>
