<svg id="Layer_1" data-name="Layer 1" xmlns="http://www.w3.org/2000/svg" viewBox="0 0 303.82 431.3">
  <defs>
    <style>
      .cls-1 {
        fill: #47bc93;
      }

      .cls-2 {
        fill: #601848;
      }
    </style>
  </defs>
  <title>art-52</title>
  <path class="cls-1" d="M359.83,443.63h-236a21,21,0,0,1-21-21V61a21,21,0,0,1,21-21h236a21,21,0,0,1,21,21V422.62A21,21,0,0,1,359.83,443.63ZM123.83,55a6,6,0,0,0-6,6V422.62a6,6,0,0,0,6,6h236a6,6,0,0,0,6-6V61a6,6,0,0,0-6-6Z" transform="translate(-102.82 -40.02)"/>
  <rect class="cls-1" x="39.91" y="158.15" width="186.73" height="18.18"/>
  <rect class="cls-1" x="39.91" y="194.38" width="166.97" height="18.18"/>
  <rect class="cls-1" x="39.91" y="230.61" width="178.18" height="18.18"/>
  <rect class="cls-1" x="39.91" y="270.22" width="90.31" height="18.18"/>
  <polygon class="cls-2" points="176.3 370.89 156.79 339.04 132.95 353.52 125.16 340.71 161.77 318.46 177.26 343.75 185.96 331.58 207.87 341.7 222.06 337.68 244.13 335.57 245.56 350.5 224.84 352.48 206.62 357.64 190.94 350.4 176.3 370.89"/>
  <path class="cls-1" d="M385.63,67.71H373V82.86l12.66-.15a6,6,0,0,1,6,6v361.6a6,6,0,0,1-6,6h-236a6,6,0,0,1-6-6V434.08h-15v16.24a21,21,0,0,0,21,21h236a21,21,0,0,0,21-21V88.72A21,21,0,0,0,385.63,67.71Z" transform="translate(-102.82 -40.02)"/>
  <path class="cls-2" d="M229.61,139.53q0-7.89,1.78-12.46a19.52,19.52,0,0,1,5.79-7.93,38.05,38.05,0,0,0,6.08-6.13,10,10,0,0,0,2.09-6.14q0-8.18-7-8.17a6.53,6.53,0,0,0-5.24,2.38,10.08,10.08,0,0,0-2.11,6.44H212.68q.1-10.81,6.81-16.85t18.82-6q12.06,0,18.69,5.57t6.62,15.85a18.43,18.43,0,0,1-1.78,8.16,27.51,27.51,0,0,1-5.73,7.52l-6.22,5.79a14.58,14.58,0,0,0-3.68,5.22,20.7,20.7,0,0,0-1.13,6.78ZM227.39,156a8.41,8.41,0,0,1,2.89-6.57,11.43,11.43,0,0,1,14.44,0,8.89,8.89,0,0,1,0,13.14,11.43,11.43,0,0,1-14.44,0A8.38,8.38,0,0,1,227.39,156Z" transform="translate(-102.82 -40.02)"/>
</svg>
