<svg id="Layer_1" data-name="Layer 1" xmlns="http://www.w3.org/2000/svg" viewBox="0 0 303.82 431.3">
  <defs>
    <style>
      .cls-1 {
        fill: #47bc93;
      }

      .cls-2, .cls-3 {
        fill: #601848;
      }

      .cls-3 {
        stroke: #601848;
        stroke-miterlimit: 10;
      }
    </style>
  </defs>
  <title>art-51</title>
  <path class="cls-1" d="M359.83,443.63h-236a21,21,0,0,1-21-21V61a21,21,0,0,1,21-21h236a21,21,0,0,1,21,21V422.62A21,21,0,0,1,359.83,443.63ZM123.83,55a6,6,0,0,0-6,6V422.62a6,6,0,0,0,6,6h236a6,6,0,0,0,6-6V61a6,6,0,0,0-6-6Z" transform="translate(-102.82 -40.02)"/>
  <rect class="cls-1" x="39.91" y="158.15" width="186.73" height="18.18"/>
  <rect class="cls-1" x="39.91" y="194.38" width="166.97" height="18.18"/>
  <rect class="cls-1" x="39.91" y="230.61" width="178.18" height="18.18"/>
  <rect class="cls-1" x="39.91" y="270.22" width="90.31" height="18.18"/>
  <polygon class="cls-2" points="176.3 370.89 156.79 339.04 132.95 353.52 125.16 340.71 161.77 318.46 177.26 343.75 185.96 331.58 207.87 341.7 222.06 337.68 244.13 335.57 245.56 350.5 224.84 352.48 206.62 357.64 190.94 350.4 176.3 370.89"/>
  <path class="cls-1" d="M385.63,67.71H373V82.86l12.66-.15a6,6,0,0,1,6,6v361.6a6,6,0,0,1-6,6h-236a6,6,0,0,1-6-6V434.08h-15v16.24a21,21,0,0,0,21,21h236a21,21,0,0,0,21-21V88.72A21,21,0,0,0,385.63,67.71Z" transform="translate(-102.82 -40.02)"/>
  <g>
    <path class="cls-3" d="M244.21,147.55a6.77,6.77,0,0,0-5.33-1.26,6.77,6.77,0,0,0-7.61-5.59,6.92,6.92,0,0,0-1.29.3,6.77,6.77,0,0,0-9.08-4.35,6.78,6.78,0,0,0-11.16-2.7l-7.11-.48L207,98.08l7.81.53h.13a1.94,1.94,0,0,0,1.73-1l2.92-5.71a3.46,3.46,0,0,1,4-1.75l4.35,1.2a1.94,1.94,0,1,0,1-3.74l-4.34-1.2a7.35,7.35,0,0,0-8.47,3.72l-2.34,4.57-6.32-.43.15-1.22a7.11,7.11,0,0,0-6.18-7.91l-15-1.84A1.94,1.94,0,1,0,186,87.1l15,1.84a3.19,3.19,0,0,1,2.14,1.22,3.16,3.16,0,0,1,.66,2.37l-5.14,41.74a3.21,3.21,0,0,1-3.58,2.8l-15-1.84a1.94,1.94,0,0,0-.47,3.85l15,1.85c.3,0,.59,0,.87,0a7.13,7.13,0,0,0,6.22-3.68l5.32.35a6.78,6.78,0,0,0,6,9.88,6,6,0,0,0,.94-.07H214a.13.13,0,0,0,0,.06,6.72,6.72,0,0,0,7.7,5.77,6.75,6.75,0,0,0,6.7,5.91,8.4,8.4,0,0,0,1-.07v.06a6.79,6.79,0,0,0,6.7,5.85A6,6,0,0,0,237,165a6.66,6.66,0,0,0,4.47-2.62l4-5.3A6.77,6.77,0,0,0,244.21,147.55Zm-30.82-3.94a2.86,2.86,0,0,1-2.14-.55,2.9,2.9,0,0,1-1.12-1.91,2.82,2.82,0,0,1,.56-2.14l1.48-2a2.9,2.9,0,0,1,4.05-.55,2.87,2.87,0,0,1,.56,4l-1.48,2A2.88,2.88,0,0,1,213.39,143.61Zm5.56,5.28a2.89,2.89,0,0,1-.56-4l1.48-2h0l1.31-1.73a2.89,2.89,0,0,1,4.61,3.49L223,148.33A2.9,2.9,0,0,1,219,148.89Zm7.71,5.83a2.87,2.87,0,0,1-.56-4h0l2.78-3.68h0l1-1.34a2.89,2.89,0,0,1,4.05-.56,2.9,2.9,0,0,1,.56,4.05l-3.8,5h0A2.88,2.88,0,0,1,226.66,154.72Zm15.76,0-4,5.31a2.89,2.89,0,0,1-4,.56,2.89,2.89,0,0,1-.56-4.05l3.8-5h0l.22-.28a2.81,2.81,0,0,1,1.91-1.12,2.88,2.88,0,0,1,2.69,4.6Z" transform="translate(-102.82 -40.02)"/>
    <path class="cls-3" d="M310.46,136.92a1.94,1.94,0,0,0-2.16-1.69l-15,1.84a3.21,3.21,0,0,1-3.58-2.8l-.16-1.24h0l0-.29-4.95-40.21a3.21,3.21,0,0,1,2.8-3.59l15-1.84a1.94,1.94,0,1,0-.47-3.85l-15,1.84a7.12,7.12,0,0,0-6.23,7.23l-3.77.46-11.69-6.57a9.31,9.31,0,0,0-5.42-1.16h0l-3.52.33a1.94,1.94,0,1,0,.36,3.86l3.52-.32a5.46,5.46,0,0,1,3.17.67l12.11,6.82a1.93,1.93,0,0,0,1.31.31l4.38-.54,3.22,26.11,1.11,9h-7a2,2,0,0,0-1.27.47l-.54.42L259.12,117.1c4-1.16,7.83-3.95,11.41-8.34a1.94,1.94,0,0,0-3-2.45c-4,4.91-8.2,7.43-12.49,7.51-6.25.11-10.84-5.07-10.89-5.12a1.94,1.94,0,0,0-3,.09l-5.21,6.79a10.12,10.12,0,0,1-11.66,3.32l-.55-.22a1.29,1.29,0,0,1-.77-.77,1.32,1.32,0,0,1,.1-1.09l13.62-23.44a5.48,5.48,0,0,1,4.19-2.68l8.07-.74a1.94,1.94,0,0,0-.36-3.87l-8.06.75a9.31,9.31,0,0,0-7.2,4.59l-13.62,23.44a5.18,5.18,0,0,0,2.65,7.45l.56.21a14.17,14.17,0,0,0,5,.92A14,14,0,0,0,239,118l3.89-5.07a19.17,19.17,0,0,0,10.94,4.79l25.37,21.86a2.23,2.23,0,0,1,.77,1.54,2.2,2.2,0,0,1-.54,1.63l-1,1.15a3.45,3.45,0,0,1-4.86.36,2.48,2.48,0,0,0-.26-.19l-6.58-5.67a1.94,1.94,0,0,0-2.54,2.94l5.35,4.61-2.44,2.84a3.45,3.45,0,0,1-4.86.36l0,0-6.12-5.27a1.94,1.94,0,0,0-2.53,2.94l4.67,4-2.45,2.85a3.47,3.47,0,0,1-3,1.18,1.94,1.94,0,0,0-2.16,1.7,2,2,0,0,0,1.7,2.16,8.43,8.43,0,0,0,.86.05,7.33,7.33,0,0,0,5.56-2.55l2.63-3a7.32,7.32,0,0,0,8.7-1.84l2.63-3.05a7.34,7.34,0,0,0,8.69-1.83l1-1.15a6.13,6.13,0,0,0-.64-8.66l-1.59-1.37H286a7.12,7.12,0,0,0,7,5.77c.29,0,.58,0,.88,0l15-1.85A1.94,1.94,0,0,0,310.46,136.92Z" transform="translate(-102.82 -40.02)"/>
    <path class="cls-3" d="M298.05,122.9a5.7,5.7,0,1,0,5.69,5.7A5.7,5.7,0,0,0,298.05,122.9Zm0,7.51a1.82,1.82,0,1,1,1.81-1.81A1.82,1.82,0,0,1,298.05,130.41Z" transform="translate(-102.82 -40.02)"/>
    <path class="cls-3" d="M195.81,128.6a5.7,5.7,0,1,0-5.7,5.69A5.7,5.7,0,0,0,195.81,128.6Zm-7.51,0a1.82,1.82,0,1,1,1.81,1.81A1.82,1.82,0,0,1,188.3,128.6Z" transform="translate(-102.82 -40.02)"/>
  </g>
</svg>
