<svg id="Layer_1" data-name="Layer 1" xmlns="http://www.w3.org/2000/svg" viewBox="0 0 303.82 431.3">
  <defs>
    <style>
      .cls-1 {
        fill: #47bc93;
      }

      .cls-2 {
        fill: #601848;
      }
    </style>
  </defs>
  <title>art-50</title>
  <path class="cls-1" d="M359.83,443.63h-236a21,21,0,0,1-21-21V61a21,21,0,0,1,21-21h236a21,21,0,0,1,21,21V422.62A21,21,0,0,1,359.83,443.63ZM123.83,55a6,6,0,0,0-6,6V422.62a6,6,0,0,0,6,6h236a6,6,0,0,0,6-6V61a6,6,0,0,0-6-6Z" transform="translate(-102.82 -40.02)"/>
  <polygon class="cls-2" points="206.74 69.4 165.01 43.11 165.01 60.17 123.47 60.17 123.47 78.62 165.01 78.62 165.01 95.68 206.74 69.4"/>
  <polygon class="cls-2" points="154.55 88.63 113.01 88.63 113.01 71.57 71.28 97.86 113.01 124.14 113.01 107.08 154.55 107.08 154.55 88.63"/>
  <rect class="cls-1" x="39.91" y="158.15" width="186.73" height="18.18"/>
  <rect class="cls-1" x="39.91" y="194.38" width="166.97" height="18.18"/>
  <rect class="cls-1" x="39.91" y="230.61" width="178.18" height="18.18"/>
  <rect class="cls-1" x="39.91" y="270.22" width="90.31" height="18.18"/>
  <polygon class="cls-2" points="176.3 370.89 156.79 339.04 132.95 353.52 125.16 340.71 161.77 318.46 177.26 343.75 185.96 331.58 207.87 341.7 222.06 337.68 244.13 335.57 245.56 350.5 224.84 352.48 206.62 357.64 190.94 350.4 176.3 370.89"/>
  <path class="cls-1" d="M385.63,67.71H373V82.86l12.66-.15a6,6,0,0,1,6,6v361.6a6,6,0,0,1-6,6h-236a6,6,0,0,1-6-6V434.08h-15v16.24a21,21,0,0,0,21,21h236a21,21,0,0,0,21-21V88.72A21,21,0,0,0,385.63,67.71Z" transform="translate(-102.82 -40.02)"/>
</svg>
