<?xml version="1.0" encoding="utf-8"?>
<!-- Generator: Adobe Illustrator 22.1.0, SVG Export Plug-In . SVG Version: 6.00 Build 0)  -->
<svg version="1.1" id="Layer_2" xmlns="http://www.w3.org/2000/svg" xmlns:xlink="http://www.w3.org/1999/xlink" x="0px" y="0px"
	 viewBox="0 0 100 100" style="enable-background:new 0 0 100 100;" xml:space="preserve">
<style type="text/css">
	.st0{fill:#46BC93;}
</style>
<g>
	<path class="st0" d="M90,23.3C90,23.3,90,23.3,90,23.3c0-0.1,0-0.2,0-0.3v0c0-0.1,0-0.2-0.1-0.2c0,0,0,0,0-0.1
		c0-0.1-0.1-0.1-0.1-0.2c0,0,0,0,0,0c0-0.1-0.1-0.1-0.1-0.2c0,0,0,0,0,0c0-0.1-0.1-0.1-0.2-0.2L70.6,3.2c-0.1-0.1-0.1-0.1-0.2-0.2
		c0,0,0,0,0,0c-0.1,0-0.1-0.1-0.2-0.1c0,0,0,0,0,0c-0.1,0-0.1-0.1-0.2-0.1c0,0,0,0-0.1,0c-0.1,0-0.1,0-0.2-0.1c0,0,0,0,0,0
		c-0.1,0-0.2,0-0.2,0c0,0,0,0-0.1,0s0,0-0.1,0H22c-1,0-1.8,0.8-1.8,1.8v66c-0.9,0.4-1.8,1-2.5,1.7L7.3,82.5c-3,3-3,7.9,0,10.9
		c1.5,1.5,3.4,2.3,5.5,2.3s4-0.8,5.5-2.3l1.9-1.9v2.4c0,1,0.8,1.8,1.8,1.8h66.2c1,0,1.8-0.8,1.8-1.8L90,23.3
		C90,23.4,90,23.4,90,23.3z M71.1,8.9l12.7,12.7H71.1V8.9z M15.6,90.9c-0.8,0.8-1.8,1.2-2.9,1.2s-2.1-0.4-2.9-1.2
		c-1.6-1.6-1.6-4.2,0-5.8l10.3-10.3c0.8-0.8,1.8-1.2,2.9-1.2c1.1,0,2.1,0.4,2.9,1.2c0.8,0.8,1.2,1.8,1.2,2.9c0,1.1-0.4,2.1-1.2,2.9
		l-5.3,5.3c0,0,0,0,0,0L15.6,90.9z M23.8,92.1v-4.2l4.8-4.8c1.5-1.5,2.3-3.4,2.3-5.5c0-1.4-0.4-2.8-1.1-4l5.5-5.5
		c3.9,3.3,8.8,5.1,14,5.1c5.8,0,11.3-2.3,15.4-6.4c4.1-4.1,6.4-9.6,6.4-15.4c0-5.8-2.3-11.3-6.4-15.4c-8.5-8.5-22.3-8.5-30.8,0
		c-2.2,2.2-3.8,4.7-4.9,7.6c-0.4,0.9,0.1,2,1,2.3c0.9,0.4,2-0.1,2.3-1c0.9-2.4,2.3-4.5,4.1-6.3c7.1-7.1,18.6-7.1,25.6,0
		c3.4,3.4,5.3,8,5.3,12.8s-1.9,9.4-5.3,12.8c-3.4,3.4-8,5.3-12.8,5.3c-4.8,0-9.4-1.9-12.8-5.3c-1.8-1.8-3.2-3.9-4.1-6.3
		c-0.4-0.9-1.4-1.4-2.3-1c-0.9,0.4-1.4,1.4-1,2.3c0.9,2.3,2.1,4.4,3.7,6.3L27.1,71c-1-0.6-2.1-1-3.3-1.1V6.3h43.7v17.1
		c0,1,0.8,1.8,1.8,1.8h17.1v66.9H23.8z"/>
	<path class="st0" d="M55.8,60.6c0.4,0.4,0.8,0.5,1.3,0.5c0.5,0,0.9-0.2,1.3-0.5c2.5-2.5,3.8-5.7,3.8-9.2c0-3.5-1.3-6.7-3.8-9.2
		c-0.7-0.7-1.9-0.7-2.6,0c-0.7,0.7-0.7,1.9,0,2.6c1.8,1.8,2.7,4.1,2.7,6.6c0,2.5-1,4.8-2.7,6.6C55.1,58.8,55.1,59.9,55.8,60.6z"/>
	<path class="st0" d="M27.5,51.5c0,1,0.8,1.8,1.8,1.8s1.8-0.8,1.8-1.8c0-1-0.8-1.8-1.8-1.8S27.5,50.5,27.5,51.5z"/>
</g>
</svg>
