<?xml version="1.0" encoding="utf-8"?>
<!-- Generator: Adobe Illustrator 22.1.0, SVG Export Plug-In . SVG Version: 6.00 Build 0)  -->
<svg version="1.1" id="Layer_3" xmlns="http://www.w3.org/2000/svg" xmlns:xlink="http://www.w3.org/1999/xlink" x="0px" y="0px"
	 viewBox="0 0 100 100" style="enable-background:new 0 0 100 100;" xml:space="preserve">
<style type="text/css">
	.st0{fill:#46BC93;}
</style>
<g id="surface1">
	<path class="st0" d="M92.5,72.1h-3V23c0-4.1-3.3-7.4-7.4-7.4H16.7c-4.1,0-7.4,3.3-7.4,7.4v49h-3c-0.8,0-1.5,0.7-1.5,1.5V78
		c0,3.3,2.7,5.9,5.9,5.9h77.3c3.3,0,5.9-2.7,5.9-5.9v-4.5C94,72.7,93.3,72.1,92.5,72.1z M12.3,23c0-2.5,2-4.5,4.5-4.5h65.4
		c2.5,0,4.5,2,4.5,4.5v49h-3V26c0-2.5-2-4.5-4.5-4.5H19.7c-2.5,0-4.5,2-4.5,4.5v46.1h-3V23z M80.6,26v46.1H58.5
		c-1.6,0-3,0.9-3.7,2.3c-0.2,0.4-0.6,0.7-1.1,0.7h-8.6c-0.5,0-0.9-0.3-1.1-0.7c-0.7-1.4-2.2-2.3-3.7-2.3H18.2V26
		c0-0.8,0.7-1.5,1.5-1.5h59.4C80,24.5,80.6,25.2,80.6,26z M91,78c0,1.6-1.3,3-3,3H10.8c-1.6,0-3-1.3-3-3v-3h32.5
		c0.5,0,0.9,0.3,1.1,0.7c0.7,1.4,2.2,2.3,3.7,2.3h8.6c1.6,0,3-0.9,3.7-2.3c0.2-0.4,0.6-0.7,1.1-0.7H91V78z"/>
	<path class="st0" d="M44.3,50.1C44.3,50.1,44.3,50.1,44.3,50.1l0.1,0.1c0.3,0.2,0.7,0.3,1,0.4c0.1,0,0.1,0,0.2,0.1
		c0.3,0.1,0.7,0.2,1,0.3c0.1,0,0.2,0,0.2,0.1c0.3,0.1,0.7,0.1,1,0.2c0.1,0,0.2,0,0.3,0c0.8,0.1,1.7,0.1,2.5,0c0.1,0,0.2,0,0.3,0
		c0.3,0,0.7-0.1,1-0.2c0.1,0,0.1,0,0.2-0.1c0.3-0.1,0.7-0.2,1-0.3c0.1,0,0.1,0,0.2-0.1c0.4-0.1,0.7-0.3,1-0.4l0.1,0c0,0,0,0,0,0
		c5-2.4,7.7-7.9,6.5-13.4c-1.2-5.4-6-9.3-11.6-9.3c-5.6,0-10.4,3.8-11.6,9.3C36.6,42.2,39.3,47.7,44.3,50.1L44.3,50.1z M52.4,47.8
		L52.4,47.8c-0.5,0.2-0.9,0.3-1.4,0.4c0,0-0.1,0-0.1,0c-0.9,0.2-1.9,0.2-2.8,0c0,0-0.1,0-0.1,0c-0.5-0.1-0.9-0.2-1.4-0.4l0,0v-2.5
		c0-1.6,1.3-3,3-3s3,1.3,3,3V47.8z M47.9,37.9c0-0.8,0.7-1.5,1.5-1.5s1.5,0.7,1.5,1.5s-0.7,1.5-1.5,1.5S47.9,38.7,47.9,37.9z
		 M49.4,30.5c3.7,0,7,2.3,8.3,5.7c1.3,3.5,0.4,7.4-2.4,9.8v-0.7c0-1.9-0.9-3.6-2.4-4.7c0.6-0.8,0.9-1.7,0.9-2.7c0-2.5-2-4.5-4.5-4.5
		s-4.5,2-4.5,4.5c0,1,0.3,1.9,0.9,2.7c-1.5,1.1-2.4,2.9-2.4,4.8V46c-2.8-2.5-3.7-6.4-2.4-9.8C42.4,32.7,45.7,30.5,49.4,30.5z"/>
	<path class="st0" d="M73.2,54.2H25.6c-0.8,0-1.5,0.7-1.5,1.5v11.9c0,0.8,0.7,1.5,1.5,1.5h47.6c0.8,0,1.5-0.7,1.5-1.5V55.7
		C74.7,54.9,74,54.2,73.2,54.2z M71.7,66.1H27.1v-8.9h44.6V66.1z"/>
	<path class="st0" d="M30.1,60.2h3v3h-3V60.2z"/>
	<path class="st0" d="M36,60.2h3v3h-3V60.2z"/>
	<path class="st0" d="M42,60.2h3v3h-3V60.2z"/>
	<path class="st0" d="M47.9,60.2h3v3h-3V60.2z"/>
	<path class="st0" d="M21.2,27.5h8.9v3h-8.9V27.5z"/>
	<path class="st0" d="M33.1,27.5h3v3h-3V27.5z"/>
</g>
</svg>
