<?xml version="1.0" encoding="utf-8"?>
<!-- Generator: Adobe Illustrator 22.1.0, SVG Export Plug-In . SVG Version: 6.00 Build 0)  -->
<svg version="1.1" xmlns="http://www.w3.org/2000/svg" xmlns:xlink="http://www.w3.org/1999/xlink" x="0px" y="0px"
	 viewBox="0 0 100 100" style="enable-background:new 0 0 100 100;" xml:space="preserve">
<style type="text/css">
	.st0{fill:#46BC93;}
</style>
<g id="Layer_3">
</g>
<g id="Layer_2">
	<g>
		<g>
			<path class="st0" d="M86.5,7.4H13.2c-4,0-7.3,3.3-7.3,7.3v49.9c0,4,3.3,7.3,7.3,7.3H66V69H13.2c-2.4,0-4.4-2-4.4-4.4V14.7
				c0-2.4,2-4.4,4.4-4.4h73.3c2.4,0,4.4,2,4.4,4.4v49.9c0,2.4-2,4.4-4.4,4.4H74.8v2.9h11.7c4,0,7.3-3.3,7.3-7.3V14.7
				C93.9,10.6,90.6,7.4,86.5,7.4z"/>
		</g>
	</g>
	<g>
		<g>
			<path class="st0" d="M80.7,13.2H13.2c-0.8,0-1.5,0.7-1.5,1.5v49.9c0,0.8,0.7,1.5,1.5,1.5H66v-2.9H14.7V16.2h64.5v46.9h-4.4V66
				h5.9c0.8,0,1.5-0.7,1.5-1.5V14.7C82.1,13.9,81.5,13.2,80.7,13.2z"/>
		</g>
	</g>
	<g>
		<g>
			<rect x="85.1" y="32.3" class="st0" width="2.9" height="14.7"/>
		</g>
	</g>
	<g>
		<g>
			<path class="st0" d="M89.5,82.2H22c-0.2,0-0.5,0-0.7,0.1l-5.9,2.9c-0.7,0.4-1,1.2-0.7,2c0.1,0.3,0.4,0.5,0.7,0.7l5.9,2.9
				c0.2,0.1,0.4,0.2,0.7,0.2h67.5c2.4,0,4.4-2,4.4-4.4S91.9,82.2,89.5,82.2z M80.7,88H22.3l-2.9-1.5l2.9-1.5h58.3V88z M89.5,88h-5.9
				v-2.9h5.9c0.8,0,1.5,0.7,1.5,1.5S90.3,88,89.5,88z"/>
		</g>
	</g>
	<g>
		<g>
			<path class="st0" d="M73.3,45.5h-4.4v-4.4c0-0.8-0.7-1.5-1.5-1.5H54.3v-1.5c0-0.8-0.7-1.5-1.5-1.5h-4.4v-4.4
				c0-0.8-0.7-1.5-1.5-1.5h-8.8v-2.9H44c0.8,0,1.5-0.7,1.5-1.5v-5.9c0-0.8-0.7-1.5-1.5-1.5H29.3c-0.8,0-1.5,0.7-1.5,1.5v5.9
				c0,0.8,0.7,1.5,1.5,1.5h5.9v2.9H24.9c-0.8,0-1.5,0.7-1.5,1.5v4.4h-4.4c-0.8,0-1.5,0.7-1.5,1.5V44c0,0.8,0.7,1.5,1.5,1.5h11.7
				c0.8,0,1.5-0.7,1.5-1.5v-5.9c0-0.8-0.7-1.5-1.5-1.5h-4.4v-2.9h19.1v2.9h-4.4c-0.8,0-1.5,0.7-1.5,1.5V44c0,0.8,0.7,1.5,1.5,1.5
				h4.4v4.4h-4.4c-0.8,0-1.5,0.7-1.5,1.5v5.9c0,0.8,0.7,1.5,1.5,1.5h11.7c0.8,0,1.5-0.7,1.5-1.5v-5.9c0-0.8-0.7-1.5-1.5-1.5h-4.4
				v-4.4h4.4c0.8,0,1.5-0.7,1.5-1.5v-1.5H66v2.9h-4.4c-0.8,0-1.5,0.7-1.5,1.5v5.9c0,0.8,0.7,1.5,1.5,1.5h11.7c0.8,0,1.5-0.7,1.5-1.5
				V47C74.8,46.1,74.1,45.5,73.3,45.5z M29.3,39.6v2.9h-8.8v-2.9H29.3z M30.8,25V22h11.7V25H30.8z M51.3,52.8v2.9h-8.8v-2.9H51.3z
				 M51.3,42.6h-8.8v-2.9h8.8V42.6z M71.9,51.4h-8.8v-2.9h8.8V51.4z"/>
		</g>
	</g>
	<g>
		<g>
			<path class="st0" d="M5.9,85.1v1.5c0,0.8,0.7,1.5,1.5,1.5h1.5v-2.9H5.9z"/>
		</g>
	</g>
	<g>
		<g>
			<path class="st0" d="M68,72.1c-0.4,0.7-0.9,1.2-1.6,1.7l1.7,2.4c0.9-0.7,1.7-1.5,2.3-2.5L68,72.1z"/>
		</g>
	</g>
	<g>
		<g>
			<path class="st0" d="M68.9,67.3V69c0,0.3,0,0.7-0.1,1l2.9,0.5c0.1-0.5,0.1-1,0.1-1.5v-1.6H68.9z"/>
		</g>
	</g>
	<g>
		<g>
			<rect x="56.1" y="74.8" class="st0" width="2.9" height="2.9"/>
		</g>
	</g>
	<g>
		<g>
			<path class="st0" d="M64.4,74.7c-0.4,0.1-0.9,0.1-1.3,0.1h-1.2v2.9h1.2c0.7,0,1.3-0.1,2-0.2L64.4,74.7z"/>
		</g>
	</g>
	<g>
		<g>
			<path class="st0" d="M12.9,75c-1.1,0.2-2.2,0.7-3.1,1.3l1.7,2.4c0.6-0.4,1.3-0.7,2.1-0.9L12.9,75z"/>
		</g>
	</g>
	<g>
		<g>
			<path class="st0" d="M7.3,78.8c-0.6,1-1.1,2-1.3,3.2l2.9,0.6C9,81.8,9.3,81,9.8,80.4L7.3,78.8z"/>
		</g>
	</g>
	<g>
		<g>
			<rect x="44.7" y="74.8" class="st0" width="2.9" height="2.9"/>
		</g>
	</g>
	<g>
		<g>
			<rect x="50.4" y="74.8" class="st0" width="2.9" height="2.9"/>
		</g>
	</g>
	<g>
		<g>
			<rect x="27.5" y="74.8" class="st0" width="2.9" height="2.9"/>
		</g>
	</g>
	<g>
		<g>
			<rect x="21.7" y="74.8" class="st0" width="2.9" height="2.9"/>
		</g>
	</g>
	<g>
		<g>
			<rect x="68.9" y="61.6" class="st0" width="2.9" height="2.9"/>
		</g>
	</g>
	<g>
		<g>
			<rect x="16" y="74.8" class="st0" width="2.9" height="2.9"/>
		</g>
	</g>
	<g>
		<g>
			<rect x="33.2" y="74.8" class="st0" width="2.9" height="2.9"/>
		</g>
	</g>
	<g>
		<g>
			<rect x="38.9" y="74.8" class="st0" width="2.9" height="2.9"/>
		</g>
	</g>
	<g>
		<g>
			<rect x="68.9" y="55.8" class="st0" width="2.9" height="2.9"/>
		</g>
	</g>
</g>
</svg>
