<?xml version="1.0" encoding="utf-8"?>
<!-- Generator: Adobe Illustrator 22.1.0, SVG Export Plug-In . SVG Version: 6.00 Build 0)  -->
<svg version="1.1" id="Layer_3" xmlns="http://www.w3.org/2000/svg" xmlns:xlink="http://www.w3.org/1999/xlink" x="0px" y="0px"
	 viewBox="0 0 100 100" style="enable-background:new 0 0 100 100;" xml:space="preserve">
<style type="text/css">
	.st0{fill:#46BC93;}
</style>
<g>
	<g>
		<g>
			<path class="st0" d="M82.6,45.5l-3.8-2.3c-0.1-0.5-0.2-0.9-0.4-1.4l2.7-4.1c0.3-0.4,0.3-1,0.1-1.5c-1-2.1-2.1-4-3.5-5.8
				c-0.3-0.4-0.8-0.6-1.3-0.6L71.4,30c-0.3-0.3-0.6-0.6-1-1l0.3-4.9c0-0.5-0.2-1-0.6-1.3c-1.9-1.3-3.9-2.5-6-3.4
				c-0.5-0.2-1-0.2-1.4,0.1l-4.3,2.7c-0.5-0.1-0.9-0.3-1.4-0.4l-2.3-4.4c-0.3-0.5-0.8-0.8-1.3-0.8h-6.6c-0.6,0-1.1,0.3-1.3,0.8
				L43,21.9c-0.5,0.1-0.9,0.2-1.4,0.4l-4.3-2.7c-0.4-0.3-1-0.3-1.4-0.1c-2.1,0.9-4.1,2.1-6,3.4c-0.4,0.3-0.7,0.8-0.6,1.3l0.3,4.9
				c-0.3,0.3-0.7,0.6-1,1l-5.1-0.3c-0.5,0-1,0.2-1.3,0.6c-1.4,1.8-2.5,3.8-3.5,5.8c-0.2,0.5-0.2,1,0.1,1.5l2.7,4.1
				c-0.1,0.5-0.3,0.9-0.4,1.4l-3.8,2.3c-0.5,0.3-0.7,0.8-0.7,1.3v6.4c0,0.5,0.3,1,0.7,1.3l3.8,2.3c0.1,0.5,0.2,0.9,0.4,1.4l-2.7,4.1
				c-0.3,0.4-0.3,1-0.1,1.5c1,2.1,2.1,4,3.5,5.8c0.3,0.4,0.8,0.6,1.3,0.6l5.1-0.3c0.3,0.3,0.6,0.6,1,1l-0.3,4.9c0,0.5,0.2,1,0.6,1.3
				c1.9,1.3,3.9,2.5,6,3.4c0.5,0.2,1,0.2,1.4-0.1l4.3-2.7c0.5,0.1,0.9,0.3,1.4,0.4l2.3,4.4c0.3,0.5,0.8,0.8,1.3,0.8h6.6
				c0.6,0,1.1-0.3,1.3-0.8l2.3-4.4c0.5-0.1,0.9-0.2,1.4-0.4l4.3,2.7c0.4,0.3,1,0.3,1.4,0.1c2.1-0.9,4.1-2.1,6-3.4
				c0.4-0.3,0.7-0.8,0.6-1.3l-0.3-4.9c0.3-0.3,0.7-0.6,1-1l5.1,0.3c0.5,0,1-0.2,1.3-0.6c1.4-1.8,2.5-3.8,3.5-5.8
				c0.2-0.5,0.2-1-0.1-1.5l-2.7-4.1c0.1-0.5,0.3-0.9,0.4-1.4l3.8-2.3c0.5-0.3,0.7-0.8,0.7-1.3v-6.4C83.4,46.2,83.1,45.8,82.6,45.5z
				 M80.3,52.3l-3.7,2.1c-0.4,0.2-0.6,0.6-0.7,1c-0.2,0.8-0.4,1.6-0.7,2.4c-0.1,0.4-0.1,0.9,0.2,1.3l0,0l2.7,4
				c-0.7,1.4-1.5,2.7-2.3,3.9l-5-0.2c-0.4,0-0.9,0.2-1.2,0.5c-0.6,0.6-1.2,1.2-1.8,1.8c-0.3,0.3-0.5,0.8-0.5,1.2l0.2,4.8
				c-1.3,0.9-2.6,1.6-4,2.3l-4.2-2.6c-0.4-0.2-0.8-0.3-1.3-0.2c-0.8,0.3-1.7,0.5-2.5,0.7c-0.4,0.1-0.8,0.4-1,0.8l-2.2,4.2h-4.8
				l-2.2-4.2c-0.2-0.4-0.6-0.7-1-0.8c-0.9-0.2-1.7-0.4-2.5-0.7c-0.4-0.1-0.9-0.1-1.3,0.2l-4.2,2.6c-1.4-0.7-2.8-1.4-4-2.3l0.2-4.8
				c0-0.5-0.2-0.9-0.5-1.2c-0.6-0.6-1.2-1.1-1.8-1.8c-0.3-0.3-0.7-0.5-1.2-0.5l-5,0.2c-0.9-1.2-1.6-2.5-2.3-3.9l2.7-4
				c0.3-0.4,0.3-0.9,0.2-1.3c-0.3-0.8-0.5-1.6-0.7-2.4c-0.1-0.4-0.3-0.8-0.7-1l-3.7-2.1v-4.7l3.7-2.1c0.4-0.2,0.6-0.6,0.7-1
				c0.2-0.8,0.4-1.6,0.7-2.4c0.1-0.4,0.1-0.9-0.2-1.3l-2.7-4c0.7-1.4,1.5-2.7,2.3-3.9l5,0.2c0.4,0,0.9-0.2,1.2-0.5
				c0.6-0.6,1.2-1.2,1.8-1.8c0.3-0.3,0.5-0.8,0.5-1.2l-0.2-4.8c1.3-0.9,2.6-1.6,4-2.3l4.2,2.6c0.4,0.2,0.8,0.3,1.3,0.2
				c0.8-0.3,1.7-0.5,2.5-0.7c0.4-0.1,0.8-0.4,1-0.8l2.2-4.2h4.8l2.2,4.2c0.2,0.4,0.6,0.7,1,0.8c0.9,0.2,1.7,0.4,2.5,0.7
				c0.4,0.1,0.9,0.1,1.3-0.2l4.2-2.6c1.4,0.7,2.8,1.4,4,2.3l-0.2,4.8c0,0.5,0.2,0.9,0.5,1.2c0.6,0.6,1.2,1.1,1.8,1.8
				c0.3,0.3,0.7,0.5,1.2,0.5l5-0.2c0.9,1.2,1.6,2.5,2.3,3.9l-2.7,4c-0.3,0.4-0.3,0.9-0.2,1.3c0.3,0.8,0.5,1.6,0.7,2.4
				c0.1,0.4,0.3,0.8,0.7,1l3.7,2.1L80.3,52.3L80.3,52.3z"/>
		</g>
	</g>
	<g>
		<g>
			<path class="st0" d="M50,27.3c-12.6,0-22.7,10.2-22.7,22.7S37.4,72.8,50,72.8S72.7,62.6,72.7,50C72.7,37.4,62.6,27.3,50,27.3z
				 M50,69.7c-10.9,0-19.7-8.8-19.7-19.7S39.1,30.3,50,30.3S69.7,39.1,69.7,50C69.7,60.9,60.9,69.7,50,69.7z"/>
		</g>
	</g>
	<g>
		<g>
			<path class="st0" d="M81.8,10.6v9.1h-9.1v3h10.6c0.8,0,1.5-0.7,1.5-1.5c0,0,0,0,0,0V10.6C84.9,10.6,81.8,10.6,81.8,10.6z"/>
		</g>
	</g>
	<g>
		<g>
			<path class="st0" d="M16.6,77.3c-0.8,0-1.5,0.7-1.5,1.5c0,0,0,0,0,0v10.6h3v-9.1h9.1v-3H16.6z"/>
		</g>
	</g>
	<g>
		<g>
			<path class="st0" d="M12.3,24.5C7.2,32,4.5,40.9,4.5,50c0,9.1,2.7,18,7.8,25.6l2.5-1.7C1.7,54.4,6.8,28,26.2,14.9
				c14.4-9.8,33.3-9.8,47.7,0l1.7-2.5C54.7-1.8,26.5,3.7,12.3,24.5z"/>
		</g>
	</g>
	<g>
		<g>
			<path class="st0" d="M88,24.9l-2.5,1.7c12.9,19.6,7.6,45.9-12,58.9c-14.4,9.5-33,9.4-47.3-0.3l-1.7,2.5
				c20.8,14.1,49.1,8.7,63.2-12.1C98,60.3,98.1,40.3,88,24.9z"/>
		</g>
	</g>
</g>
</svg>
