<?xml version="1.0" encoding="utf-8"?>
<!-- Generator: Adobe Illustrator 23.0.2, SVG Export Plug-In . SVG Version: 6.00 Build 0)  -->
<svg version="1.1" id="Capa_1" xmlns="http://www.w3.org/2000/svg" xmlns:xlink="http://www.w3.org/1999/xlink" x="0px" y="0px"
	 viewBox="0 0 512 512" style="enable-background:new 0 0 512 512;" xml:space="preserve">
<style type="text/css">
	.st0{fill:#FEDAC6;}
	.st1{fill:#F5C4B0;}
	.st2{fill:#665433;}
	.st3{fill:#DBDBDB;}
	.st4{fill:#EAEAEA;}
	.st5{fill:#661621;}
	.st6{fill:#BFBFBF;}
	.st7{fill:#513928;}
	.st8{fill:#FFFFFF;}
	.st9{fill:#4358BF;}
	.st10{fill:#DCE046;}
</style>
<path class="st0" d="M226.9,265.1h-5.9v35.2h5.9c9.7,0,17.6-7.9,17.6-17.6S236.7,265.1,226.9,265.1z"/>
<path class="st1" d="M80.3,282.7c0,9.7,7.9,17.6,17.6,17.6h5.9v-35.2h-5.9C88.2,265.1,80.3,273,80.3,282.7z"/>
<path class="st2" d="M226.9,265.1l6.9-35.6c2.3-13.5-6.9-26.3-20.4-28.6c-1.4-0.2-2.8-0.3-4.2-0.3l0,0
	c-3.5-10.5-13.3-17.6-24.4-17.6h-69.4l-11.7-17.6l-5.9,5.9c-16.2,16.2-16.2,42.4,0,58.6c0,0,0,0,0,0h105.6L226.9,265.1z"/>
<path class="st3" d="M244.9,400.4l-42.5-5.9l-39.9,23.1l-39.9-22.8L80,400.7c-23.2,3.1-40.6,22.9-40.7,46.3v64.5h246.3v-64.5
	C285.6,423.4,268.2,403.6,244.9,400.4z"/>
<polygon class="st0" points="202.4,394.8 197.6,394.2 197.6,353.1 127.2,353.1 127.2,394.2 122.5,394.8 162.4,417.6 "/>
<g>
	<polygon class="st4" points="127.2,441.1 162.4,417.6 127.2,394.2 115.5,394.2 	"/>
	<polygon class="st4" points="162.4,417.6 197.6,441.1 209.3,394.2 197.6,394.2 	"/>
</g>
<polyline class="st5" points="144.8,511.5 150.7,446.9 144.8,429.4 162.4,417.6 180,429.4 174.2,446.9 180,511.5 "/>
<path class="st1" d="M197.6,385.6v-32.5h-70.4v32.5C153.6,397,171.2,397,197.6,385.6z"/>
<path class="st6" d="M39.2,446.9v64.5h23.5V406.4C48.2,414.7,39.3,430.2,39.2,446.9z"/>
<path class="st0" d="M226.9,265.1v33.4c0,16.5-4.2,32.8-12.3,47.3l0,0c-10.5,19-30.6,30.7-52.3,30.7l0,0
	c-21.7,0-41.7-11.8-52.3-30.7l0,0c-8-14.5-12.3-30.7-12.3-47.3v-68.6h105.6L226.9,265.1z"/>
<path class="st1" d="M121.4,229.9H97.9v68.6c0,16.5,4.2,32.8,12.3,47.3c5.9,10.5,14.8,19,25.6,24.3
	C115.5,312,121.4,229.9,121.4,229.9z"/>
<path class="st7" d="M87,190.8c-3.5,14.1,0.7,28.9,10.9,39.2h93.8C125.1,229.9,97.9,206.5,87,190.8z"/>
<path d="M226.9,306.2h-5.9v-11.7h5.9c6.5,0,11.7-5.3,11.7-11.7c0-6.5-5.3-11.7-11.7-11.7h-5.9v-11.7h5.9c12.9,0,23.5,10.5,23.5,23.5
	C250.4,295.7,239.9,306.2,226.9,306.2z"/>
<path d="M103.8,306.2h-5.9c-12.9,0-23.5-10.5-23.5-23.5c0-12.9,10.5-23.5,23.5-23.5h5.9V271h-5.9c-6.5,0-11.7,5.3-11.7,11.7
	c0,6.5,5.3,11.7,11.7,11.7h5.9V306.2z"/>
<path d="M168.3,317.9h-17.6c-1.8,0-3.6-0.9-4.7-2.3c-1.1-1.5-1.5-3.4-1-5.1l11.7-41.1l11.3,3.2l-9.6,33.6h9.8L168.3,317.9
	L168.3,317.9z"/>
<path d="M162.4,382.4C162.4,382.4,162.4,382.4,162.4,382.4c-23.8,0-45.8-12.9-57.4-33.8c-8.5-15.3-13-32.6-13-50.1v-68.6
	c0-3.2,2.6-5.9,5.9-5.9h105.6c2,0,3.8,1,4.9,2.6l23.5,35.2c0.6,1,1,2.1,1,3.3v33.4c0,17.5-4.5,34.8-13,50.1
	C208.2,369.5,186.3,382.4,162.4,382.4z M162.4,370.7C162.4,370.7,162.4,370.7,162.4,370.7c19.6,0,37.6-10.6,47.1-27.7
	c7.5-13.6,11.5-28.9,11.5-44.4v-31.7l-20.7-31.1h-96.6v62.8c0,15.5,4,30.9,11.5,44.4C124.8,360.1,142.8,370.7,162.4,370.7
	C162.4,370.7,162.4,370.7,162.4,370.7z"/>
<path d="M157.6,341.4h-6.9v-11.7h6.9c9.1,0,17.7-3.6,24.2-10l8.3,8.3C181.3,336.6,169.8,341.4,157.6,341.4z"/>
<circle cx="127.3" cy="276.9" r="11.7"/>
<circle cx="197.6" cy="276.9" r="11.7"/>
<path d="M232.7,272l-11.6-1.9l6.9-41.5c0.8-5-0.3-10-3.3-14.1c-2.9-4.1-7.3-6.9-12.3-7.7c-1-0.2-2.2-0.3-3.2-0.3c0,0,0,0,0,0
	c-2.5,0-4.8-1.6-5.6-4c-2.7-8.1-10.3-13.6-18.8-13.6h-69.4c-2,0-3.8-1-4.9-2.6l-7.8-11.6l-0.8,0.8c-6.7,6.7-10.4,15.7-10.4,25.2
	c0,9.5,3.7,18.5,10.4,25.2l-8.3,8.3c-18.5-18.5-18.5-48.5,0-66.9l5.9-5.9c1.2-1.2,3-1.9,4.7-1.7c1.7,0.2,3.3,1.1,4.3,2.6l10,15h66.3
	c12.3,0,23.2,7,28.4,17.9c0.4,0,0.7,0.1,1.1,0.2c8.1,1.4,15.2,5.8,19.9,12.5c4.8,6.7,6.6,14.8,5.3,22.9L232.7,272z"/>
<path d="M45.1,511.5H33.4v-64.5c0-26.3,19.7-48.8,45.8-52.3l42.2-5.6v-24.2h11.7v29.3c0,2.9-2.2,5.4-5.1,5.8l-47.3,6.3
	c-20.3,2.7-35.6,20.2-35.6,40.7C45.1,446.9,45.1,511.5,45.1,511.5z"/>
<path d="M291.5,511.5h-11.7v-64.5c0-20.5-15.3-38-35.6-40.7l-47.3-6.3c-2.9-0.4-5.1-2.9-5.1-5.8v-29.3h11.7V389l42.2,5.6
	c26.1,3.5,45.8,26,45.8,52.3L291.5,511.5L291.5,511.5z"/>
<rect x="80.3" y="464.5" width="11.7" height="46.9"/>
<rect x="232.8" y="464.5" width="11.7" height="46.9"/>
<path d="M127.2,446.9c-0.7,0-1.4-0.1-2.1-0.4c-1.8-0.7-3.1-2.2-3.6-4l-11.7-46.9l11.4-2.8l9.7,38.8l28.3-18.8l6.5,9.8L130.5,446
	C129.5,446.6,128.4,446.9,127.2,446.9z"/>
<path d="M162.4,423.5c-1,0-2-0.3-2.9-0.8l-41.1-23.5l5.8-10.2l38.1,21.8l38.1-21.8l5.8,10.2l-41.1,23.5
	C164.4,423.2,163.4,423.5,162.4,423.5z"/>
<path d="M197.6,446.9c-1.1,0-2.3-0.3-3.3-1l-35.2-23.5l6.5-9.8l28.3,18.8l9.7-38.8l11.4,2.8l-11.7,46.9c-0.5,1.8-1.8,3.4-3.6,4
	C199,446.8,198.3,446.9,197.6,446.9z"/>
<path d="M150.7,512l-11.7-1.1l5.8-63.3l-5.5-16.4l11.1-3.7l5.9,17.6c0.3,0.8,0.4,1.6,0.3,2.4L150.7,512z"/>
<path d="M174.2,512l-5.9-64.5c-0.1-0.8,0-1.6,0.3-2.4l5.9-17.6l11.1,3.7l-5.5,16.4l5.8,63.3L174.2,512z"/>
<rect x="150.7" y="441.1" width="23.5" height="11.7"/>
<g>
	<polygon class="st8" points="237.6,42.2 242.2,22.4 261.5,17.3 448.3,17.3 462,24.3 466.9,37.9 466.9,122.5 462,135.9 445.2,145.9 
		267.6,145.9 227.2,163.3 238.4,124.2 	"/>
	<path d="M218.9,175.3l14.8-51.2V37.2c0-13.7,11.1-24.8,24.8-24.8h188.6c13.7,0,24.8,11.1,24.8,24.8v87.5
		c0,13.7-11.1,24.8-24.8,24.8H268L218.9,175.3z M258.5,22.4c-8.2,0-14.8,6.7-14.8,14.8v88.2l-8.7,30.1l30.6-16h181.6
		c8.2,0,14.8-6.7,14.8-14.8V37.2c0-8.2-6.7-14.8-14.8-14.8H258.5z"/>
	<path d="M438.1,132.3h-75.9v-103h75.9V132.3z M372.2,122.3h55.9v-83h-55.9V122.3z"/>
	<rect x="378.4" y="44.2" width="43.9" height="10"/>
	<rect x="378.4" y="61.7" width="37.1" height="10"/>
	<rect x="378.4" y="78.1" width="40.7" height="10"/>
	<polygon class="st9" points="393,117.9 385.8,108.9 383.5,111.1 376.4,104.1 386.5,93.9 393.3,102.3 397.2,97.7 407.5,102.6 
		412.4,100.9 419.9,99.8 421.4,109.7 414.8,110.6 406.9,113.5 399.8,110 	"/>
	<g>
		<circle class="st10" cx="304.5" cy="80.8" r="33.9"/>
		<path d="M304.5,119.7c-21.5,0-38.9-17.5-38.9-38.9s17.5-38.9,38.9-38.9c21.5,0,38.9,17.5,38.9,38.9S326,119.7,304.5,119.7z
			 M304.5,51.8c-16,0-28.9,13-28.9,28.9s13,28.9,28.9,28.9s28.9-13,28.9-28.9S320.5,51.8,304.5,51.8z"/>
	</g>
	<g>
		<path d="M302.3,96.1V84.4c-3.6-1-6.3-2.6-8-4.7c-1.7-2.1-2.5-4.6-2.5-7.6c0-3,1-5.6,2.9-7.6c1.9-2.1,4.5-3.2,7.6-3.6v-2.7h4v2.7
			c2.9,0.4,5.3,1.4,7,3c1.7,1.7,2.8,3.9,3.3,6.6l-7,0.9c-0.4-2.2-1.5-3.7-3.3-4.4v10.8c4.4,1.2,7.5,2.8,9.1,4.7
			c1.6,1.9,2.4,4.4,2.4,7.4c0,3.3-1,6.2-3,8.4c-2,2.3-4.8,3.7-8.4,4.2v5.2h-4v-5c-3.2-0.4-5.8-1.6-7.8-3.6c-2-2-3.3-4.8-3.8-8.5
			l7.2-0.8c0.3,1.5,0.8,2.8,1.7,3.8C300.4,94.8,301.3,95.6,302.3,96.1z M302.3,67c-1.1,0.4-2,1-2.6,1.9c-0.6,0.9-1,1.9-1,2.9
			c0,1,0.3,1.9,0.9,2.7c0.6,0.8,1.5,1.5,2.7,2V67z M306.3,96.4c1.4-0.3,2.5-0.9,3.4-1.9c0.9-1,1.3-2.2,1.3-3.6
			c0-1.2-0.4-2.3-1.1-3.2c-0.7-0.9-1.9-1.6-3.6-2.1V96.4z"/>
	</g>
</g>
</svg>
