<?xml version="1.0" encoding="utf-8"?>
<!-- Generator: Adobe Illustrator 22.0.1, SVG Export Plug-In . SVG Version: 6.00 Build 0)  -->
<svg version="1.1" id="Layer_1" xmlns="http://www.w3.org/2000/svg" xmlns:xlink="http://www.w3.org/1999/xlink" x="0px" y="0px"
	 viewBox="0 0 900 600" style="enable-background:new 0 0 900 600;" xml:space="preserve">
<style type="text/css">
	.st0{fill:#FFFFFF;}
	.st1{fill:#164193;}
	.st2{fill:#FFEC00;}
</style>
<g>
	<g>
		<path class="st0" d="M448,305.7"/>
	</g>
	<g>
		<rect x="-2" y="-0.6" class="st1" width="900" height="600"/>
		<path class="st1" d="M448,299.4"/>
	</g>
	<g>
		<polygon class="st2" points="428.8,130.1 447.8,116.3 466.8,130.1 459.6,107.7 478.9,93.8 455.1,93.8 447.8,71.2 440.5,93.9 
			416.8,93.8 436,107.7 		"/>
		<polygon class="st2" points="330.5,156.5 349.5,142.7 368.5,156.5 361.3,134.1 380.6,120.3 356.8,120.3 349.5,97.5 342.2,120.3 
			318.5,120.3 337.8,134.1 		"/>
		<polygon class="st2" points="277.6,169.6 270.3,192.3 246.6,192.3 265.9,206.2 258.6,228.6 277.6,214.7 296.6,228.6 289.4,206.2 
			308.7,192.3 284.9,192.3 		"/>
		<polygon class="st2" points="251.2,312.9 270.2,326.8 263,304.3 282.3,290.5 258.5,290.5 251.2,267.8 244,290.5 220.2,290.5 
			239.5,304.3 232.3,326.8 		"/>
		<polygon class="st2" points="284.9,388.9 277.6,366.2 270.3,389 246.6,388.9 265.9,402.8 258.6,425.2 277.6,411.3 296.6,425.2 
			289.4,402.8 308.7,388.9 		"/>
		<polygon class="st2" points="356.9,461 349.7,438.3 342.4,461 318.6,461 337.9,474.8 330.7,497.3 349.7,483.4 368.7,497.3 
			361.4,474.8 380.7,461 		"/>
		<polygon class="st2" points="455.1,487.1 447.8,464.4 440.6,487.1 416.8,487.1 436.1,500.9 428.8,523.4 447.8,509.5 466.8,523.4 
			459.6,500.9 478.9,487.1 		"/>
		<polygon class="st2" points="553.3,461 546,438.3 538.7,461 515,461 534.2,474.8 527,497.3 546,483.4 565,497.3 557.7,474.8 
			577,461 		"/>
		<polygon class="st2" points="625.3,388.9 618,366.2 610.8,389 587,388.9 606.3,402.8 599.1,425.2 618,411.3 637,425.2 
			629.8,402.8 649.1,388.9 		"/>
		<polygon class="st2" points="675.2,290.2 651.4,290.2 644.1,267.5 636.9,290.2 613.1,290.2 632.4,304.1 625.2,326.5 644.1,312.6 
			663.1,326.5 655.9,304.1 		"/>
		<polygon class="st2" points="599.1,228.3 618,214.4 637,228.3 629.8,205.9 649.1,192.1 625.3,192.1 618,169.3 610.8,192.1 
			587,192.1 606.3,205.9 		"/>
		<polygon class="st2" points="546.3,97.6 539,120.3 515.2,120.3 534.5,134.1 527.3,156.5 546.3,142.7 565.3,156.5 558,134.1 
			577.3,120.3 553.5,120.3 		"/>
	</g>
</g>
</svg>
