<?xml version="1.0" encoding="utf-8"?>
<!-- Generator: Adobe Illustrator 22.0.1, SVG Export Plug-In . SVG Version: 6.00 Build 0)  -->
<svg version="1.1" id="Layer_1" xmlns="http://www.w3.org/2000/svg" xmlns:xlink="http://www.w3.org/1999/xlink" x="0px" y="0px"
	 viewBox="0 0 40 40" style="enable-background:new 0 0 40 40;" xml:space="preserve">
<style type="text/css">
	.st0{display:none;fill:#46BC93;}
	.st1{fill:#75275A;}
	.st2{display:none;}
	.st3{display:inline;fill:#EFF4F4;}
	.st4{fill:#EFF4F4;}
	.st5{display:inline;}
	.st6{display:none;fill:#EFF4F4;}
</style>
<circle id="normal_1_" class="st0" cx="20" cy="20" r="19.5"/>
<circle id="over" class="st1" cx="20" cy="20" r="19.5"/>
<g id="governanca" class="st2">
	<path class="st3" d="M20.3,11.8c-4.4,0-7.9,3.5-7.9,7.9s3.5,7.9,7.9,7.9s7.9-3.5,7.9-7.9S24.6,11.8,20.3,11.8z M20.3,26.5
		c-3.7,0-6.8-3-6.8-6.8s3-6.8,6.8-6.8s6.8,3,6.8,6.8S24,26.5,20.3,26.5z"/>
	<path class="st3" d="M34,16.4h-1.1c-0.3-1.1-0.7-2.1-1.3-3.1l0.8-0.8c0.3-0.3,0.5-0.7,0.5-1.1c0-0.4-0.2-0.8-0.5-1.1l-2.6-2.6
		c-0.6-0.6-1.6-0.6-2.2,0l-0.8,0.8c-1-0.6-2-1-3.1-1.3V6.1c0-0.9-0.7-1.6-1.6-1.6h-3.6c-0.9,0-1.6,0.7-1.6,1.6v1.1
		c-1.1,0.3-2.1,0.7-3.1,1.3L13,7.7c-0.6-0.6-1.6-0.6-2.2,0l-2.6,2.6c-0.3,0.3-0.5,0.7-0.5,1.1c0,0.4,0.2,0.8,0.5,1.1L9,13.3
		c-0.6,1-1,2-1.3,3.1H6.6c-0.9,0-1.6,0.7-1.6,1.6v3.6c0,0.9,0.7,1.6,1.6,1.6h1.1C8,24.2,8.5,25.3,9,26.2L8.2,27
		c-0.3,0.3-0.5,0.7-0.5,1.1c0,0.4,0.2,0.8,0.5,1.1l2.6,2.6c0.6,0.6,1.6,0.6,2.2,0l0.8-0.8c1,0.6,2,1,3.1,1.3v1.1
		c0,0.9,0.7,1.6,1.6,1.6h3.6c0.9,0,1.6-0.7,1.6-1.6v-1.1c1.1-0.3,2.1-0.7,3.1-1.3l0.8,0.8c0.6,0.6,1.6,0.6,2.2,0l2.6-2.6
		c0.3-0.3,0.5-0.7,0.5-1.1c0-0.4-0.2-0.8-0.5-1.1l-0.8-0.8c0.6-1,1-2,1.3-3.1H34c0.9,0,1.6-0.7,1.6-1.6v-3.6
		C35.5,17.1,34.8,16.4,34,16.4z M34.4,21.6c0,0.2-0.2,0.4-0.4,0.4h-2l-0.1,0.4c-0.3,1.3-0.8,2.5-1.5,3.6l-0.2,0.4l1.4,1.4
		c0.2,0.2,0.2,0.5,0,0.6L29,31c-0.2,0.2-0.5,0.2-0.6,0l-1.4-1.4l-0.4,0.2c-1.1,0.7-2.3,1.2-3.6,1.5l-0.4,0.1v2
		c0,0.2-0.2,0.4-0.4,0.4h-3.6c-0.2,0-0.4-0.2-0.4-0.4v-2l-0.4-0.1c-1.3-0.3-2.5-0.8-3.6-1.5l-0.4-0.2L12.2,31
		c-0.2,0.2-0.5,0.2-0.6,0L9,28.4c-0.2-0.2-0.2-0.5,0-0.6l1.4-1.4L10.2,26c-0.7-1.1-1.2-2.3-1.5-3.6L8.6,22h-2
		c-0.2,0-0.4-0.2-0.4-0.4v-3.6c0-0.2,0.2-0.4,0.4-0.4h2l0.1-0.4c0.3-1.3,0.8-2.5,1.5-3.6l0.2-0.4L9,11.7c-0.2-0.2-0.2-0.5,0-0.6
		l2.6-2.6c0.2-0.2,0.5-0.2,0.6,0l1.4,1.4L14,9.7c1.1-0.7,2.3-1.2,3.6-1.5L18,8.1v-2c0-0.2,0.2-0.4,0.4-0.4h3.6
		c0.2,0,0.4,0.2,0.4,0.4v2L23,8.2c1.3,0.3,2.5,0.8,3.6,1.5l0.4,0.2l1.4-1.4c0.2-0.2,0.5-0.2,0.6,0l2.6,2.6c0.2,0.2,0.2,0.5,0,0.6
		l-1.4,1.4l0.2,0.4c0.7,1.1,1.2,2.3,1.5,3.6l0.1,0.4h2c0.2,0,0.4,0.2,0.4,0.4V21.6z"/>
	<path class="st3" d="M20.3,14.1c-3.1,0-5.6,2.5-5.6,5.6s2.5,5.6,5.6,5.6s5.6-2.5,5.6-5.6S23.4,14.1,20.3,14.1z M20.3,24.3
		c-2.5,0-4.5-2-4.5-4.5s2-4.5,4.5-4.5s4.5,2,4.5,4.5S22.8,24.3,20.3,24.3z"/>
</g>
<g id="fomento-a-pesquisa">
	<path class="st4" d="M23.8,9.8c0.1,0.1,0.2,0.2,0.4,0.2c0.1,0,0.3-0.1,0.4-0.2c0.2-0.2,0.2-0.6,0-0.8l0,0c-0.2-0.2-0.6-0.2-0.8,0
		C23.6,9.3,23.6,9.6,23.8,9.8L23.8,9.8z"/>
	<path class="st4" d="M16.7,8.2c-4.8,0-8.7,3.9-8.7,8.7s3.9,8.7,8.7,8.7c4.8,0,8.7-3.9,8.7-8.7S21.6,8.2,16.7,8.2z M16.7,24.5
		c-4.2,0-7.6-3.4-7.6-7.6s3.4-7.6,7.6-7.6c4.2,0,7.6,3.4,7.6,7.6S20.9,24.5,16.7,24.5z"/>
	<path class="st4" d="M33,29.3l-6.7-6.7c2.2-3.6,2.1-8.3-0.3-11.9c-0.2-0.3-0.5-0.3-0.8-0.1c-0.3,0.2-0.3,0.5-0.1,0.8
		c2.7,3.9,2.2,9.3-1.2,12.6c-3.9,3.9-10.2,3.9-14.1,0s-3.9-10.2,0-14.1c3.4-3.4,8.7-3.9,12.7-1.2c0.2,0.2,0.6,0.1,0.8-0.1
		c0.2-0.2,0.1-0.6-0.1-0.8C18.6,4.7,12.7,5.3,8.9,9c-4.3,4.3-4.3,11.4,0,15.7c2.2,2.2,5,3.2,7.8,3.2c2,0,3.9-0.5,5.7-1.6l6.7,6.7
		c0.5,0.5,1.2,0.8,1.9,0.8s1.4-0.3,1.9-0.8c0.5-0.5,0.8-1.2,0.8-1.9S33.5,29.8,33,29.3z M24.6,24.7c0.4-0.4,0.7-0.8,1-1.2l1.3,1.3
		L24.6,27l-1.3-1.3C23.8,25.4,24.2,25.1,24.6,24.7z M32.2,32.3c-0.6,0.6-1.6,0.6-2.3,0l-4.5-4.5l2.3-2.3l4.5,4.5
		c0.3,0.3,0.5,0.7,0.5,1.1C32.7,31.6,32.5,32,32.2,32.3z"/>
	<path class="st4" d="M19.3,12.8c-0.1,0-0.2,0-0.3,0c0-0.1-0.1-0.2-0.1-0.3c-0.6-1.3-1.3-2-2.2-2c-0.9,0-1.7,0.7-2.2,2
		c0,0.1-0.1,0.2-0.1,0.3c-0.1,0-0.2,0-0.3,0c-1.4-0.2-2.4,0.2-2.9,0.9c-0.4,0.8-0.2,1.8,0.6,2.9c0.1,0.1,0.1,0.1,0.2,0.2
		C12,16.9,12,17,11.9,17.1c-0.9,1.1-1.1,2.2-0.6,2.9c0.4,0.6,1.1,1,2.2,1c0.2,0,0.5,0,0.7,0c0.1,0,0.2,0,0.3,0
		c0,0.1,0.1,0.2,0.1,0.3c0.6,1.3,1.3,2,2.2,2c0.9,0,1.7-0.7,2.2-2c0-0.1,0.1-0.2,0.1-0.3c0.1,0,0.2,0,0.3,0c0.2,0,0.5,0,0.7,0
		c1,0,1.8-0.3,2.2-1c0.4-0.8,0.2-1.8-0.6-2.9c-0.1-0.1-0.1-0.1-0.2-0.2c0.1-0.1,0.1-0.1,0.2-0.2c0.9-1.1,1.1-2.2,0.6-2.9
		C21.8,13,20.7,12.6,19.3,12.8z M19.5,13.9c0.2,0,0.4,0,0.6,0c0.6,0,1.1,0.1,1.2,0.4c0.2,0.3,0,1-0.6,1.8c-0.3-0.3-0.7-0.6-1-0.9
		C19.6,14.8,19.5,14.3,19.5,13.9C19.4,13.9,19.4,13.9,19.5,13.9z M17.7,18.5c-0.3,0.2-0.6,0.3-0.9,0.5c-0.3-0.1-0.6-0.3-0.9-0.5
		c-0.3-0.2-0.6-0.4-0.9-0.6c0-0.3,0-0.7,0-1.1c0-0.4,0-0.7,0-1.1c0.3-0.2,0.6-0.4,0.9-0.6c0.3-0.2,0.6-0.3,0.9-0.5
		c0.3,0.1,0.6,0.3,0.9,0.5c0.3,0.2,0.6,0.4,0.9,0.6c0,0.3,0,0.7,0,1.1c0,0.4,0,0.7,0,1.1C18.3,18.1,18,18.3,17.7,18.5z M18.4,19.4
		c0,0.1,0,0.2-0.1,0.2c-0.1,0-0.2,0-0.2-0.1c0,0,0.1-0.1,0.1-0.1C18.3,19.4,18.3,19.4,18.4,19.4z M15.4,19.5c-0.1,0-0.2,0-0.2,0.1
		c0-0.1,0-0.2-0.1-0.2c0,0,0.1,0.1,0.1,0.1C15.3,19.5,15.3,19.5,15.4,19.5z M13.8,17c-0.1-0.1-0.1-0.1-0.2-0.2
		c0.1-0.1,0.1-0.1,0.2-0.2c0,0.1,0,0.1,0,0.2S13.8,17,13.8,17z M15.1,14.4c0-0.1,0-0.2,0.1-0.2c0.1,0,0.2,0,0.2,0.1
		c0,0-0.1,0.1-0.1,0.1C15.2,14.3,15.2,14.3,15.1,14.4z M18.1,14.2c0.1,0,0.2,0,0.2-0.1c0,0.1,0,0.2,0.1,0.2c0,0-0.1-0.1-0.1-0.1
		C18.2,14.3,18.1,14.2,18.1,14.2z M19.7,16.7c0.1,0.1,0.1,0.1,0.2,0.2c-0.1,0.1-0.1,0.1-0.2,0.2c0-0.1,0-0.1,0-0.2
		C19.7,16.8,19.7,16.8,19.7,16.7z M16.7,11.7c0.4,0,0.9,0.5,1.3,1.4c-0.4,0.1-0.8,0.3-1.3,0.5c-0.4-0.2-0.8-0.3-1.3-0.5
		C15.9,12.2,16.3,11.7,16.7,11.7z M12.2,14.3c0.2-0.3,0.6-0.4,1.2-0.4c0.2,0,0.4,0,0.6,0c0,0,0.1,0,0.1,0c-0.1,0.4-0.2,0.9-0.2,1.3
		c-0.4,0.3-0.7,0.6-1,0.9C12.2,15.3,12,14.6,12.2,14.3z M14,19.9c-0.9,0.1-1.6,0-1.8-0.4c-0.2-0.3,0-1,0.6-1.8
		c0.3,0.3,0.7,0.6,1,0.9C13.9,19,14,19.4,14,19.9C14.1,19.8,14,19.9,14,19.9z M16.7,22.1c-0.4,0-0.9-0.5-1.3-1.4
		c0.4-0.1,0.8-0.3,1.3-0.5c0.4,0.2,0.8,0.3,1.3,0.5C17.6,21.6,17.1,22.1,16.7,22.1z M21.3,19.5c-0.2,0.3-0.9,0.5-1.8,0.4
		c0,0-0.1,0-0.1,0c0.1-0.4,0.2-0.9,0.2-1.3c0.4-0.3,0.7-0.6,1-0.9C21.3,18.5,21.5,19.1,21.3,19.5z"/>
	<path class="st4" d="M16.7,16.3c-0.1,0-0.3,0.1-0.4,0.2c-0.1,0.1-0.2,0.2-0.2,0.4c0,0.1,0.1,0.3,0.2,0.4c0.1,0.1,0.2,0.2,0.4,0.2
		c0.1,0,0.3-0.1,0.4-0.2c0.1-0.1,0.2-0.2,0.2-0.4c0-0.1-0.1-0.3-0.2-0.4C17,16.4,16.9,16.3,16.7,16.3z"/>
</g>
<g id="diretrizes_x2F_planos-estrategicos" class="st2">
	<g class="st5">
		<path class="st4" d="M34.4,11.1c0-0.8-0.6-1.4-1.4-1.4H20.6V9c0.6-0.2,1-0.7,1-1.4c0-0.8-0.6-1.4-1.4-1.4c-0.8,0-1.4,0.6-1.4,1.4
			c0,0.6,0.4,1.2,1,1.4v0.6H7.4C6.6,9.7,6,10.3,6,11.1c0,0.6,0.4,1.2,1,1.4v17.3c0,0.8,0.6,1.4,1.4,1.4H32c0.8,0,1.4-0.6,1.4-1.4
			V12.5C34,12.3,34.4,11.7,34.4,11.1z M20.2,7.1c0.3,0,0.5,0.2,0.5,0.5c0,0.3-0.2,0.5-0.5,0.5S19.7,8,19.7,7.7
			C19.7,7.4,19.9,7.1,20.2,7.1z M32,30.3H8.4c-0.3,0-0.5-0.2-0.5-0.5V12.5h24.6v17.2C32.5,30,32.2,30.3,32,30.3z M32.9,11.6H7.4
			c-0.3,0-0.5-0.2-0.5-0.5s0.2-0.5,0.5-0.5h25.5c0.3,0,0.5,0.2,0.5,0.5S33.2,11.6,32.9,11.6z"/>
		<path class="st4" d="M16.6,25.6l9-9V18c0,0.3,0.2,0.5,0.5,0.5s0.5-0.2,0.5-0.5v-2.5c0-0.3-0.2-0.5-0.5-0.5h-2.5
			c-0.3,0-0.5,0.2-0.5,0.5c0,0.3,0.2,0.5,0.5,0.5H25l-9,9c0,0,0,0,0,0c-0.2-0.1-0.4-0.2-0.6-0.2c-0.8,0-1.4,0.6-1.4,1.4
			c0,0.8,0.6,1.4,1.4,1.4c0.8,0,1.4-0.6,1.4-1.4C16.7,26.1,16.7,25.9,16.6,25.6C16.6,25.7,16.6,25.7,16.6,25.6L16.6,25.6z
			 M15.3,26.8c-0.3,0-0.5-0.2-0.5-0.5c0-0.3,0.2-0.5,0.5-0.5s0.5,0.2,0.5,0.5C15.8,26.6,15.6,26.8,15.3,26.8z"/>
		<path class="st4" d="M14,17.8c0.1,0.1,0.2,0.1,0.3,0.1c0.1,0,0.2,0,0.3-0.1l0.7-0.7l0.7,0.7c0.1,0.1,0.2,0.1,0.3,0.1
			c0.1,0,0.2,0,0.3-0.1c0.2-0.2,0.2-0.5,0-0.6l-0.7-0.7l0.7-0.7c0.2-0.2,0.2-0.5,0-0.6c-0.2-0.2-0.5-0.2-0.6,0l-0.7,0.7l-0.7-0.7
			c-0.2-0.2-0.5-0.2-0.6,0c-0.2,0.2-0.2,0.5,0,0.6l0.7,0.7L14,17.2C13.8,17.3,13.8,17.6,14,17.8L14,17.8z"/>
		<path class="st4" d="M18.9,17.8c0.1,0.1,0.2,0.1,0.3,0.1c0.1,0,0.2,0,0.3-0.1l0.7-0.7l0.7,0.7c0.1,0.1,0.2,0.1,0.3,0.1
			s0.2,0,0.3-0.1c0.2-0.2,0.2-0.5,0-0.6l-0.7-0.7l0.7-0.7c0.2-0.2,0.2-0.5,0-0.6c-0.2-0.2-0.5-0.2-0.6,0l-0.7,0.7l-0.7-0.7
			c-0.2-0.2-0.5-0.2-0.6,0c-0.2,0.2-0.2,0.5,0,0.6l0.7,0.7l-0.7,0.7C18.7,17.3,18.7,17.6,18.9,17.8L18.9,17.8z"/>
		<path class="st4" d="M14,22.7c0.1,0.1,0.2,0.1,0.3,0.1c0.1,0,0.2,0,0.3-0.1l0.7-0.7l0.7,0.7c0.1,0.1,0.2,0.1,0.3,0.1
			c0.1,0,0.2,0,0.3-0.1c0.2-0.2,0.2-0.5,0-0.6l-0.7-0.7l0.7-0.7c0.2-0.2,0.2-0.5,0-0.6c-0.2-0.2-0.5-0.2-0.6,0l-0.7,0.7l-0.7-0.7
			c-0.2-0.2-0.5-0.2-0.6,0c-0.2,0.2-0.2,0.5,0,0.6l0.7,0.7L14,22.1C13.8,22.2,13.8,22.5,14,22.7L14,22.7z"/>
		<path class="st4" d="M26.4,25c-0.2-0.2-0.5-0.2-0.6,0l-0.7,0.7L24.4,25c-0.2-0.2-0.5-0.2-0.6,0c-0.2,0.2-0.2,0.5,0,0.6l0.7,0.7
			L23.8,27c-0.2,0.2-0.2,0.5,0,0.6c0.1,0.1,0.2,0.1,0.3,0.1s0.2,0,0.3-0.1l0.7-0.7l0.7,0.7c0.1,0.1,0.2,0.1,0.3,0.1s0.2,0,0.3-0.1
			c0.2-0.2,0.2-0.5,0-0.6l-0.7-0.7l0.7-0.7C26.6,25.5,26.6,25.2,26.4,25L26.4,25z"/>
		<path class="st4" d="M21.5,25c-0.2-0.2-0.5-0.2-0.6,0l-0.7,0.7L19.5,25c-0.2-0.2-0.5-0.2-0.6,0c-0.2,0.2-0.2,0.5,0,0.6l0.7,0.7
			L18.9,27c-0.2,0.2-0.2,0.5,0,0.6c0.1,0.1,0.2,0.1,0.3,0.1c0.1,0,0.2,0,0.3-0.1l0.7-0.7l0.7,0.7c0.1,0.1,0.2,0.1,0.3,0.1
			s0.2,0,0.3-0.1c0.2-0.2,0.2-0.5,0-0.6l-0.7-0.7l0.7-0.7C21.7,25.5,21.7,25.2,21.5,25L21.5,25z"/>
		<path class="st4" d="M26.4,20.1c-0.2-0.2-0.5-0.2-0.6,0l-0.7,0.7l-0.7-0.7c-0.2-0.2-0.5-0.2-0.6,0c-0.2,0.2-0.2,0.5,0,0.6l0.7,0.7
			l-0.7,0.7c-0.2,0.2-0.2,0.5,0,0.6c0.1,0.1,0.2,0.1,0.3,0.1s0.2,0,0.3-0.1l0.7-0.7l0.7,0.7c0.1,0.1,0.2,0.1,0.3,0.1s0.2,0,0.3-0.1
			c0.2-0.2,0.2-0.5,0-0.6l-0.7-0.7l0.7-0.7C26.6,20.6,26.6,20.3,26.4,20.1L26.4,20.1z"/>
	</g>
</g>
<g id="gestao-de-dados" class="st2">
	<g class="st5">
		<g>
			<path class="st4" d="M29.5,6.3c-0.1,0-0.2,0-0.3,0c0,0-0.1,0-0.1,0H13.5c-1.8,0-3.3,1.5-3.3,3.3v2.1c0,0.3,0.2,0.5,0.5,0.5
				c0.3,0,0.5-0.2,0.5-0.5V9.7c0-1.3,1-2.3,2.3-2.3h13.7c-0.5,0.6-0.9,1.3-0.9,2.2c0,0,0,0,0,0.1c0,0,0,0,0,0.1v3.5
				c0,0.3,0.2,0.5,0.5,0.5s0.5-0.2,0.5-0.5v-3.1h4.9c0.3,0,0.5-0.2,0.5-0.5C32.8,7.8,31.3,6.3,29.5,6.3z M27.4,9
				c0.2-0.9,1.1-1.7,2.1-1.7c1,0,1.9,0.7,2.1,1.7H27.4z"/>
		</g>
	</g>
	<g class="st5">
		<g>
			<path class="st4" d="M23.7,9.1h-3.3c-0.3,0-0.5,0.2-0.5,0.5c0,0.3,0.2,0.5,0.5,0.5h2.1L16.7,16l-3.4-3.4c-0.2-0.2-0.5-0.2-0.7,0
				l-4.6,4.6c-0.2,0.2-0.2,0.5,0,0.7c0.1,0.1,0.2,0.2,0.4,0.2c0.1,0,0.3-0.1,0.4-0.2l4.3-4.3l3.4,3.4c0.2,0.2,0.5,0.2,0.7,0l6.2-6.2
				v2c0,0.3,0.2,0.5,0.5,0.5s0.5-0.2,0.5-0.5V9.7C24.3,9.4,24,9.1,23.7,9.1z"/>
		</g>
	</g>
	<g class="st5">
		<g>
			<path class="st4" d="M7.1,18.7c-0.1-0.1-0.2-0.2-0.4-0.2c-0.1,0-0.3,0.1-0.4,0.2c-0.1,0.1-0.2,0.2-0.2,0.4c0,0.1,0.1,0.3,0.2,0.4
				c0.1,0.1,0.2,0.2,0.4,0.2c0.1,0,0.3-0.1,0.4-0.2c0.1-0.1,0.2-0.2,0.2-0.4C7.3,18.9,7.2,18.8,7.1,18.7z"/>
		</g>
	</g>
	<g class="st5">
		<g>
			<path class="st4" d="M29.9,22.6c0-0.3-0.2-0.5-0.5-0.5h-3.9v-3.9c0-0.3-0.2-0.5-0.5-0.5c-2.7,0-5,2.2-5,5s2.2,5,5,5
				c0.5,0,1-0.1,1.4-0.2v2.3c0,1.2-1,2.2-2.2,2.2c-1.2,0-2.2-1-2.2-2.2c0,0,0,0,0,0c0,0,0,0,0-0.1c0-0.3-0.2-0.5-0.5-0.5H11.2V17.9
				c0-0.3-0.2-0.5-0.5-0.5c-0.3,0-0.5,0.2-0.5,0.5V29H7.9c-0.3,0-0.5,0.2-0.5,0.5c0,1.8,1.5,3.3,3.3,3.3h13.5c1.8,0,3.2-1.4,3.2-3.2
				v-2.7c0,0,0,0,0,0C28.8,26,29.9,24.4,29.9,22.6z M10.7,31.8c-1.1,0-2-0.8-2.2-1.8H21c0.1,0.7,0.4,1.3,0.8,1.8H10.7z M24.9,26.5
				c-2.2,0-3.9-1.8-3.9-3.9c0-2,1.5-3.6,3.4-3.9v3.9c0,0.3,0.2,0.5,0.5,0.5h3.9C28.5,25,26.9,26.5,24.9,26.5z"/>
		</g>
	</g>
	<g class="st5">
		<g>
			<path class="st4" d="M26.6,14.7c-0.3,0-0.5,0.2-0.5,0.5v5.6c0,0.3,0.2,0.5,0.5,0.5h5.6c0.3,0,0.5-0.2,0.5-0.5
				C32.8,17.5,30,14.7,26.6,14.7z M27.2,20.3v-4.5c2.4,0.2,4.3,2.1,4.5,4.5H27.2z"/>
		</g>
	</g>
	<g class="st5">
		<g>
			<path class="st4" d="M17.2,23.1h-4.5c-0.3,0-0.5,0.2-0.5,0.5s0.2,0.5,0.5,0.5h4.5c0.3,0,0.5-0.2,0.5-0.5S17.5,23.1,17.2,23.1z"/>
		</g>
	</g>
	<g class="st5">
		<g>
			<path class="st4" d="M19.6,25.8c-0.1-0.1-0.2-0.2-0.4-0.2s-0.3,0.1-0.4,0.2c-0.1,0.1-0.2,0.2-0.2,0.4c0,0.1,0.1,0.3,0.2,0.4
				c0.1,0.1,0.2,0.2,0.4,0.2s0.3-0.1,0.4-0.2c0.1-0.1,0.2-0.2,0.2-0.4C19.7,26,19.7,25.8,19.6,25.8z"/>
		</g>
	</g>
	<g class="st5">
		<g>
			<path class="st4" d="M17.2,25.6h-4.5c-0.3,0-0.5,0.2-0.5,0.5c0,0.3,0.2,0.5,0.5,0.5h4.5c0.3,0,0.5-0.2,0.5-0.5
				C17.7,25.8,17.5,25.6,17.2,25.6z"/>
		</g>
	</g>
	<g class="st5">
		<g>
			<path class="st4" d="M14.5,20.6h-1.8c-0.3,0-0.5,0.2-0.5,0.5s0.2,0.5,0.5,0.5h1.8c0.3,0,0.5-0.2,0.5-0.5S14.8,20.6,14.5,20.6z"/>
		</g>
	</g>
</g>
<g id="plataformas-tecnologicas" class="st2">
	<path class="st3" d="M9.3,15.2h1.6V16H9.3V15.2z"/>
	<path class="st3" d="M31,13.6c0.7,0,1.2-0.6,1.2-1.2V8.3C32.3,7.6,31.7,7,31,7h-5.7c-0.7,0-1.2,0.6-1.2,1.2v4.1
		c0,0.7,0.6,1.2,1.2,1.2h1.2v0.8h-0.8v0.8h2v4.1h-1.7c-0.3-0.3-0.7-0.6-1.2-0.7c0,0,0-0.1,0-0.1c0-1.8-1.5-3.3-3.3-3.3
		c-1.1,0-2.2,0.6-2.8,1.5c-0.4-0.2-0.9-0.3-1.3-0.3c-1.4,0-2.6,0.9-3.1,2.1c-0.3,0.1-0.6,0.2-0.9,0.3h-3v-1.2h1.6
		c0.7,0,1.2-0.6,1.2-1.2V8.3c0-0.7-0.6-1.2-1.2-1.2H8.1C7.4,7,6.9,7.6,6.9,8.3v8.2c0,0.7,0.6,1.2,1.2,1.2h1.6v2h3
		c-0.2,0.2-0.3,0.5-0.4,0.8h-1.8v4.5H8.9c-0.7,0-1.2,0.6-1.2,1.2V30H6.9v1.2c0,0.7,0.6,1.2,1.2,1.2h6.6c0.7,0,1.2-0.6,1.2-1.2V30H15
		v-3.7c0-0.7-0.6-1.2-1.2-1.2h-2.5v-3.7h0.8c0,1.6,1.3,2.9,2.9,2.9h9c1.4,0,2.6-1.1,2.8-2.5h1.7v3.3h-2.9v7.4h6.6v-7.4h-2.9V21h-2.5
		c0-0.3-0.1-0.6-0.3-0.8h1.9v-4.9h2v-0.8h-0.8v-0.8H31z M12.6,13.6H7.7V9.5h4.9V13.6z M8.1,7.9h4.1c0.2,0,0.4,0.2,0.4,0.4v0.4H7.7
		V8.3C7.7,8,7.9,7.9,8.1,7.9z M7.7,16.5v-2h4.9v2c0,0.2-0.2,0.4-0.4,0.4H8.1C7.9,16.9,7.7,16.7,7.7,16.5z M15,31.2
		c0,0.2-0.2,0.4-0.4,0.4H8.1c-0.2,0-0.4-0.2-0.4-0.4v-0.4H15V31.2z M14.2,26.3V30H8.5v-3.7c0-0.2,0.2-0.4,0.4-0.4h4.9
		C14,25.9,14.2,26.1,14.2,26.3z M26.5,31.6v-2.5h4.9v2.5H26.5z M31.4,28.3h-4.9v-2.5h4.9V28.3z M24.1,23.4h-9c-1.1,0-2-0.9-2-2
		c0-1,0.8-1.9,1.8-2l0.3,0l0.1-0.3c0.3-1,1.3-1.8,2.4-1.8c0.5,0,0.9,0.1,1.3,0.4l0.4,0.2l0.2-0.4c0.4-0.9,1.3-1.4,2.2-1.4
		c1.4,0,2.5,1.1,2.5,2.5c0,0.1,0,0.2,0,0.4L24,19.3l0.4,0.1c1,0.2,1.7,1,1.7,2C26.1,22.5,25.2,23.4,24.1,23.4z M25.3,7.9H31
		c0.2,0,0.4,0.2,0.4,0.4v2.9h-6.6V8.3C24.9,8,25.1,7.9,25.3,7.9z M24.9,12.4v-0.4h6.6v0.4c0,0.2-0.2,0.4-0.4,0.4h-5.7
		C25.1,12.8,24.9,12.6,24.9,12.4z M29,14.4h-1.6v-0.8H29V14.4z"/>
	<path class="st3" d="M27.3,26.7h0.8v0.8h-0.8V26.7z"/>
	<path class="st3" d="M29.8,30h0.8v0.8h-0.8V30z"/>
	<path class="st3" d="M29,26.7h1.6v0.8H29V26.7z"/>
	<path class="st3" d="M27.3,30H29v0.8h-1.6V30z"/>
</g>
<g id="principios-e-padroes" class="st2">
	<path class="st3" d="M17.7,15h8.8c0.2,0,0.4-0.2,0.4-0.4c0-0.2-0.2-0.4-0.4-0.4h-8.8c-0.2,0-0.4,0.2-0.4,0.4S17.5,15,17.7,15z"/>
	<path class="st3" d="M17.7,20.6h8.8c0.2,0,0.4-0.2,0.4-0.4s-0.2-0.4-0.4-0.4h-8.8c-0.2,0-0.4,0.2-0.4,0.4S17.5,20.6,17.7,20.6z"/>
	<path class="st3" d="M17.7,26.2h8.8c0.2,0,0.4-0.2,0.4-0.4s-0.2-0.4-0.4-0.4h-8.8c-0.2,0-0.4,0.2-0.4,0.4S17.5,26.2,17.7,26.2z"/>
	<path class="st3" d="M31,8.7H9.4C9.2,8.7,9,8.8,9,9v21.6C9,30.8,9.2,31,9.4,31H31c0.2,0,0.4-0.2,0.4-0.4V9
		C31.3,8.8,31.2,8.7,31,8.7z M30.6,30.3H9.7V9.4h20.8V30.3z"/>
	<polygon class="st3" points="13.7,15.5 14.6,15.1 15.5,15.5 15.3,14.5 16,13.8 15,13.7 14.6,12.8 14.1,13.7 13.1,13.8 13.8,14.5 	
		"/>
	<polygon class="st3" points="13.7,21.2 14.6,20.7 15.5,21.2 15.3,20.2 16,19.4 15,19.3 14.6,18.4 14.1,19.3 13.1,19.4 13.8,20.2 	
		"/>
	<polygon class="st3" points="13.7,26.9 14.6,26.4 15.5,26.9 15.3,25.9 16,25.2 15,25 14.6,24.1 14.1,25 13.1,25.2 13.8,25.9 	"/>
</g>
<path id="capacitacao" class="st6" d="M33.4,27.3h-2.6v-4.4c0-1.4-0.6-2.6-1.5-3.5c1-0.9,1.5-2.2,1.5-3.5v-4.4h2.6
	c0.2,0,0.3-0.1,0.4-0.3c0.1-0.2,0-0.4-0.1-0.5l-4.8-4.8c-0.2-0.2-0.5-0.2-0.6,0l-4.8,4.8c-0.1,0.1-0.2,0.3-0.1,0.5
	c0.1,0.2,0.2,0.3,0.4,0.3h2.6V15c0,0.7-0.6,1.3-1.3,1.3h-0.9c0-2.8-1.9-5.2-4.4-5.9l1.2-2C21.5,8.2,22,7.7,22,7
	c0-0.7-0.6-1.3-1.3-1.3c-0.6,0-1.1,0.4-1.3,0.9l-5.9,0.8c-0.2-0.5-0.7-0.8-1.2-0.8c-0.7,0-1.3,0.6-1.3,1.3c0,0.1,0,0.1,0,0.2
	l-2.9,2.5c-0.1,0-0.2,0-0.2,0c-0.7,0-1.3,0.6-1.3,1.3c0,0.7,0.6,1.3,1.3,1.3c0.1,0,0.1,0,0.2,0l1.6,2.1c0,0.3-0.1,0.6-0.1,0.9
	l-3,6.5c-0.1,0.1-0.1,0.3,0,0.4c0.1,0.1,0.2,0.2,0.4,0.2h2.6v5.3c0,0.2,0.2,0.4,0.4,0.4h4.4v4h0.9v-4.4c0-0.2-0.2-0.4-0.4-0.4h-4.4
	v-5.3c0-0.2-0.2-0.4-0.4-0.4H7.7l2.8-6c0,0,0-0.1,0-0.1l1.7,2.2c-0.5,0.4-0.8,1-0.8,1.7c0,1.2,1,2.2,2.2,2.2c1.2,0,2.2-1,2.2-2.2
	c0-0.6-0.3-1.2-0.7-1.6l1.8-3.3c0.1,0,0.1,0,0.2,0c0.7,0,1.3-0.6,1.3-1.3c0-0.3-0.1-0.7-0.4-0.9l1.2-2c2.3,0.6,4,2.7,4,5.1h-5.7v0.9
	h7.5c1.2,0,2.2-1,2.2-2.2v-4c0-0.2-0.2-0.4-0.4-0.4h-2l3.8-3.8l3.8,3.8h-2c-0.2,0-0.4,0.2-0.4,0.4v4.8c0,1.2-0.5,2.2-1.4,3
	c-0.8-0.5-1.7-0.8-2.6-0.8h-8.4v0.9h8.4c2.2,0,4,1.8,4,4v4.8c0,0.2,0.2,0.4,0.4,0.4h2L28.6,32l-3.8-3.8h2c0.2,0,0.4-0.2,0.4-0.4v-4
	c0-1.2-1-2.2-2.2-2.2h-7.5v0.9h5.1l-1.9,4.2c0,0.1,0,0.1,0,0.2V33h0.9V27l2.1-4.5h1.4c0.7,0,1.3,0.6,1.3,1.3v3.5h-2.6
	c-0.2,0-0.3,0.1-0.4,0.3c-0.1,0.2,0,0.4,0.1,0.5l4.8,4.8c0.1,0.1,0.2,0.1,0.3,0.1c0.1,0,0.2,0,0.3-0.1l4.8-4.8
	c0.1-0.1,0.2-0.3,0.1-0.5C33.8,27.4,33.6,27.3,33.4,27.3z M15.9,13.5l-3.7-1.1c0.6-0.6,1.3-1,2.1-1.2l1.8,2
	C16,13.3,16,13.4,15.9,13.5z M11.2,12.2l-2.1-0.6c0-0.2-0.1-0.3-0.2-0.5l2.5-2.2c0.2,0.2,0.5,0.3,0.9,0.3c0.1,0,0.2,0,0.2,0l1.2,1.3
	C12.7,10.9,11.9,11.4,11.2,12.2z M13.3,8.8c0.1-0.1,0.2-0.3,0.3-0.5l5.9-0.8C19.5,7.8,19.7,8,20,8.2l-1.2,2c-0.3,0-0.5-0.1-0.8-0.1
	h-2.2c-0.4,0-0.8,0-1.2,0.1L13.3,8.8z M20.6,6.6c0.2,0,0.4,0.2,0.4,0.4c0,0.2-0.2,0.4-0.4,0.4c-0.2,0-0.4-0.2-0.4-0.4
	C20.2,6.8,20.4,6.6,20.6,6.6z M12.3,7.5c0.2,0,0.4,0.2,0.4,0.4c0,0.2-0.2,0.4-0.4,0.4c-0.2,0-0.4-0.2-0.4-0.4
	C11.8,7.7,12,7.5,12.3,7.5z M7.4,11.9c0-0.2,0.2-0.4,0.4-0.4c0.2,0,0.4,0.2,0.4,0.4c0,0.2-0.2,0.4-0.4,0.4
	C7.6,12.3,7.4,12.1,7.4,11.9z M8.8,12.8c0.1-0.1,0.2-0.2,0.2-0.3l1.6,0.5c-0.3,0.4-0.5,0.9-0.7,1.3L8.8,12.8z M13.6,21.6
	c-0.7,0-1.3-0.6-1.3-1.3c0-0.7,0.6-1.3,1.3-1.3c0.7,0,1.3,0.6,1.3,1.3C14.9,21,14.3,21.6,13.6,21.6z M13.6,18.1
	c-0.2,0-0.4,0-0.6,0.1l-2.3-3.1c0.2-0.7,0.5-1.4,0.9-1.9l4.3,1.3c0.1,0.2,0.2,0.4,0.3,0.6l-1.8,3.2C14.1,18.1,13.9,18.1,13.6,18.1z
	 M17.1,14.5c-0.2,0-0.4-0.2-0.4-0.4c0-0.2,0.2-0.4,0.4-0.4c0.2,0,0.4,0.2,0.4,0.4C17.6,14.3,17.4,14.5,17.1,14.5z M17.3,12.8
	c-0.1,0-0.1,0-0.2,0c-0.1,0-0.2,0-0.2,0L15.3,11c0.2,0,0.3,0,0.5,0H18c0.1,0,0.2,0,0.3,0L17.3,12.8z"/>
<g id="comunicacao" class="st2">
	<g class="st5">
		<g>
			<g>
				<path class="st4" d="M29.6,24.6h-3.6c-0.7,0-1.5,0.2-2.1,0.6c-0.5,0.3-1,0.7-1.4,1.2c-0.2,0-0.5-0.1-0.7-0.1h-3.6
					c-0.2,0-0.5,0-0.7,0.1c-0.4-0.5-0.8-0.9-1.4-1.2c-0.6-0.4-1.4-0.6-2.1-0.6h-3.6c-2.4,0-4.3,1.9-4.3,4.3v2.4
					c0,0.3,0.2,0.5,0.5,0.5H14V33c0,0.3,0.2,0.5,0.5,0.5h11.2c0.3,0,0.5-0.2,0.5-0.5v-1.3h7.3c0.3,0,0.5-0.2,0.5-0.5v-2.4
					C33.9,26.5,32,24.6,29.6,24.6z M14.1,30.2L14.1,30.2c0,0.1,0,0.2,0,0.2v0.2v0.2H7.2v-1.9c0-1.9,1.5-3.4,3.4-3.4h3.6
					c0.6,0,1.1,0.1,1.6,0.4c0.3,0.2,0.6,0.4,0.9,0.7C15.2,27.3,14.2,28.7,14.1,30.2z M25.2,30.6v2H15v-2c0,0,0-0.1,0-0.1
					c0-0.1,0-0.1,0-0.2v-0.1c0,0,0-0.1,0-0.1V30v0v0v-0.1l0-0.1l0-0.1l0-0.1c0.5-1.4,1.7-2.3,3.2-2.3l0.1-0.1h3.6
					c1.7,0,3.1,1.3,3.3,2.9c0,0.1,0,0.1,0,0.2C25.2,30.5,25.2,30.6,25.2,30.6z M33,30.9h-6.8v-0.3c0,0,0-0.1,0-0.1c0,0,0-0.1,0-0.1
					c0-0.1,0-0.1,0-0.2v0v-0.1V30v0v0v0v0v0v0v0v0v0v0v-0.1v0v0v0l0-0.1v0v0v0v0v0l0-0.1c-0.4-1.1-1.3-2-2.3-2.4
					c0.2-0.3,0.4-0.5,0.7-0.7c0.5-0.3,1.1-0.4,1.6-0.4h3.6c1.9,0,3.4,1.5,3.4,3.4V30.9z"/>
			</g>
		</g>
		<g>
			<g>
				<circle class="st4" cx="20.1" cy="9.5" r="0.5"/>
			</g>
		</g>
		<g>
			<g>
				<path class="st4" d="M14.6,18.3c-0.6-0.6-1.4-1-2.3-1c-1.8,0-3.2,1.4-3.2,3.2c0,1.8,1.4,3.2,3.2,3.2c1.8,0,3.2-1.4,3.2-3.2
					C15.6,19.8,15.2,18.9,14.6,18.3z M14,22.3c-0.9,0.9-2.4,0.9-3.3,0c-0.9-0.9-0.9-2.4,0-3.3c0.9-0.9,2.4-0.9,3.3,0
					c0.4,0.4,0.7,1,0.7,1.6C14.7,21.2,14.4,21.8,14,22.3z"/>
			</g>
		</g>
		<g>
			<g>
				<circle class="st4" cx="23.5" cy="9.5" r="0.5"/>
			</g>
		</g>
		<g>
			<g>
				<path class="st4" d="M25.5,5.1C24,4,22.1,3.3,20.1,3.3c-2,0-3.9,0.6-5.4,1.8c-1.4,1.1-2.3,2.7-2.3,4.5c0,0.9,0.2,1.8,0.7,2.5
					c0.4,0.7,1,1.4,1.6,1.9l-0.4,2.4c0,0.2,0.1,0.5,0.4,0.5c0.1,0,0.2,0,0.3-0.1l2.5-1.4c0.4,0.1,0.8,0.2,1.2,0.3
					c0.5,0.1,1,0.1,1.5,0.1c2,0,3.9-0.6,5.4-1.8c1.4-1.1,2.3-2.7,2.3-4.5S26.9,6.3,25.5,5.1z M24.9,13.4c-1.4,1.1-3.1,1.6-4.8,1.6
					c-0.4,0-0.9,0-1.3-0.1c-0.4-0.1-0.9-0.2-1.3-0.3c-0.1,0-0.3,0-0.4,0l-1.8,1.1l0.3-1.7c0-0.2,0-0.3-0.2-0.4
					c-0.6-0.5-1.2-1.1-1.6-1.8c-0.4-0.6-0.5-1.4-0.5-2.1c0-1.5,0.7-2.8,1.9-3.7c1.4-1.1,3.1-1.6,4.8-1.6c1.7,0,3.5,0.5,4.8,1.6
					c1.2,1,1.9,2.3,1.9,3.7S26.1,12.4,24.9,13.4z"/>
			</g>
		</g>
		<g>
			<g>
				<path class="st4" d="M27.9,17.4c-1.8,0-3.2,1.4-3.2,3.2c0,0.9,0.3,1.7,0.9,2.3c0.6,0.6,1.4,1,2.3,1c1.8,0,3.2-1.4,3.2-3.2
					C31.1,18.8,29.7,17.4,27.9,17.4z M29.5,22.2c-0.9,0.9-2.4,0.9-3.3,0c-0.4-0.4-0.7-1-0.7-1.6c0-0.6,0.2-1.2,0.7-1.6
					c0.9-0.9,2.4-0.9,3.3,0C30.4,19.9,30.4,21.3,29.5,22.2z"/>
			</g>
		</g>
		<g>
			<g>
				<circle class="st4" cx="16.8" cy="9.5" r="0.5"/>
			</g>
		</g>
		<g>
			<g>
				<path class="st4" d="M22.4,20c-0.6-0.6-1.4-0.9-2.3-0.9c-0.9,0-1.7,0.3-2.3,1c-1.3,1.3-1.3,3.3,0,4.6c1.3,1.3,3.3,1.3,4.6,0
					C23.6,23.4,23.6,21.3,22.4,20z M20.1,24.7c-1.3,0-2.3-1-2.3-2.3s1-2.3,2.3-2.3c0.6,0,1.2,0.2,1.6,0.7c0.4,0.4,0.7,1,0.7,1.6
					C22.4,23.6,21.4,24.7,20.1,24.7z"/>
			</g>
		</g>
	</g>
</g>
</svg>
