<?xml version="1.0" encoding="utf-8"?>
<!-- Generator: Adobe Illustrator 22.1.0, SVG Export Plug-In . SVG Version: 6.00 Build 0)  -->
<svg version="1.1" id="Layer_1" xmlns="http://www.w3.org/2000/svg" xmlns:xlink="http://www.w3.org/1999/xlink" x="0px" y="0px"
	 viewBox="0 0 40 40" style="enable-background:new 0 0 40 40;" xml:space="preserve">
<style type="text/css">
	.st0{fill:#46BC93;}
	.st1{display:none;}
	.st2{display:inline;}
	.st3{fill:#EFF4F4;}
</style>
<circle class="st0" cx="20" cy="20" r="19.5"/>
<g id="comunicacao" class="st1">
	<g class="st2">
		<g>
			<g>
				<path class="st3" d="M29.6,24.6h-3.6c-0.7,0-1.5,0.2-2.1,0.6c-0.5,0.3-1,0.7-1.4,1.2c-0.2,0-0.5-0.1-0.7-0.1h-3.6
					c-0.2,0-0.5,0-0.7,0.1c-0.4-0.5-0.8-0.9-1.4-1.2c-0.6-0.4-1.4-0.6-2.1-0.6h-3.6c-2.4,0-4.3,1.9-4.3,4.3v2.4
					c0,0.3,0.2,0.5,0.5,0.5H14V33c0,0.3,0.2,0.5,0.5,0.5h11.2c0.3,0,0.5-0.2,0.5-0.5v-1.3h7.3c0.3,0,0.5-0.2,0.5-0.5v-2.4
					C33.9,26.5,32,24.6,29.6,24.6z M14.1,30.2L14.1,30.2c0,0.1,0,0.2,0,0.2v0.2v0.2H7.2v-1.9c0-1.9,1.5-3.4,3.4-3.4h3.6
					c0.6,0,1.1,0.1,1.6,0.4c0.3,0.2,0.6,0.4,0.9,0.7C15.2,27.3,14.2,28.7,14.1,30.2z M25.2,30.6v2H15v-2c0,0,0-0.1,0-0.1
					c0-0.1,0-0.1,0-0.2v-0.1c0,0,0-0.1,0-0.1V30v0v0v-0.1l0-0.1l0-0.1l0-0.1c0.5-1.4,1.7-2.3,3.2-2.3l0.1-0.1h3.6
					c1.7,0,3.1,1.3,3.3,2.9c0,0.1,0,0.1,0,0.2C25.2,30.5,25.2,30.6,25.2,30.6z M33,30.9h-6.8v-0.3c0,0,0-0.1,0-0.1c0,0,0-0.1,0-0.1
					c0-0.1,0-0.1,0-0.2v0v-0.1V30v0v0v0v0v0v0v0v0v0v0v-0.1v0v0v0l0-0.1v0v0v0v0v0l0-0.1c-0.4-1.1-1.3-2-2.3-2.4
					c0.2-0.3,0.4-0.5,0.7-0.7c0.5-0.3,1.1-0.4,1.6-0.4h3.6c1.9,0,3.4,1.5,3.4,3.4V30.9z"/>
			</g>
		</g>
		<g>
			<g>
				<circle class="st3" cx="20.1" cy="9.5" r="0.5"/>
			</g>
		</g>
		<g>
			<g>
				<path class="st3" d="M14.6,18.3c-0.6-0.6-1.4-1-2.3-1c-1.8,0-3.2,1.4-3.2,3.2c0,1.8,1.4,3.2,3.2,3.2c1.8,0,3.2-1.4,3.2-3.2
					C15.6,19.8,15.2,18.9,14.6,18.3z M14,22.3c-0.9,0.9-2.4,0.9-3.3,0c-0.9-0.9-0.9-2.4,0-3.3c0.9-0.9,2.4-0.9,3.3,0
					c0.4,0.4,0.7,1,0.7,1.6C14.7,21.2,14.4,21.8,14,22.3z"/>
			</g>
		</g>
		<g>
			<g>
				<circle class="st3" cx="23.5" cy="9.5" r="0.5"/>
			</g>
		</g>
		<g>
			<g>
				<path class="st3" d="M25.5,5.1C24,4,22.1,3.3,20.1,3.3c-2,0-3.9,0.6-5.4,1.8c-1.4,1.1-2.3,2.7-2.3,4.5c0,0.9,0.2,1.8,0.7,2.5
					c0.4,0.7,1,1.4,1.6,1.9l-0.4,2.4c0,0.2,0.1,0.5,0.4,0.5c0.1,0,0.2,0,0.3-0.1l2.5-1.4c0.4,0.1,0.8,0.2,1.2,0.3
					c0.5,0.1,1,0.1,1.5,0.1c2,0,3.9-0.6,5.4-1.8c1.4-1.1,2.3-2.7,2.3-4.5S26.9,6.3,25.5,5.1z M24.9,13.4c-1.4,1.1-3.1,1.6-4.8,1.6
					c-0.4,0-0.9,0-1.3-0.1c-0.4-0.1-0.9-0.2-1.3-0.3c-0.1,0-0.3,0-0.4,0l-1.8,1.1l0.3-1.7c0-0.2,0-0.3-0.2-0.4
					c-0.6-0.5-1.2-1.1-1.6-1.8c-0.4-0.6-0.5-1.4-0.5-2.1c0-1.5,0.7-2.8,1.9-3.7c1.4-1.1,3.1-1.6,4.8-1.6c1.7,0,3.5,0.5,4.8,1.6
					c1.2,1,1.9,2.3,1.9,3.7S26.1,12.4,24.9,13.4z"/>
			</g>
		</g>
		<g>
			<g>
				<path class="st3" d="M27.9,17.4c-1.8,0-3.2,1.4-3.2,3.2c0,0.9,0.3,1.7,0.9,2.3c0.6,0.6,1.4,1,2.3,1c1.8,0,3.2-1.4,3.2-3.2
					C31.1,18.8,29.7,17.4,27.9,17.4z M29.5,22.2c-0.9,0.9-2.4,0.9-3.3,0c-0.4-0.4-0.7-1-0.7-1.6c0-0.6,0.2-1.2,0.7-1.6
					c0.9-0.9,2.4-0.9,3.3,0C30.4,19.9,30.4,21.3,29.5,22.2z"/>
			</g>
		</g>
		<g>
			<g>
				<circle class="st3" cx="16.8" cy="9.5" r="0.5"/>
			</g>
		</g>
		<g>
			<g>
				<path class="st3" d="M22.4,20c-0.6-0.6-1.4-0.9-2.3-0.9c-0.9,0-1.7,0.3-2.3,1c-1.3,1.3-1.3,3.3,0,4.6c1.3,1.3,3.3,1.3,4.6,0
					C23.6,23.4,23.6,21.3,22.4,20z M20.1,24.7c-1.3,0-2.3-1-2.3-2.3s1-2.3,2.3-2.3c0.6,0,1.2,0.2,1.6,0.7c0.4,0.4,0.7,1,0.7,1.6
					C22.4,23.6,21.4,24.7,20.1,24.7z"/>
			</g>
		</g>
	</g>
</g>
<g class="st1">
	<g class="st2">
		<g>
			<path class="st3" d="M29.5,6.3c-0.1,0-0.2,0-0.3,0c0,0-0.1,0-0.1,0H13.5c-1.8,0-3.3,1.5-3.3,3.3v2.1c0,0.3,0.2,0.5,0.5,0.5
				c0.3,0,0.5-0.2,0.5-0.5V9.7c0-1.3,1-2.3,2.3-2.3h13.7c-0.5,0.6-0.9,1.3-0.9,2.2c0,0,0,0,0,0.1c0,0,0,0,0,0.1v3.5
				c0,0.3,0.2,0.5,0.5,0.5s0.5-0.2,0.5-0.5v-3.1h4.9c0.3,0,0.5-0.2,0.5-0.5C32.8,7.8,31.3,6.3,29.5,6.3z M27.4,9
				c0.2-0.9,1.1-1.7,2.1-1.7c1,0,1.9,0.7,2.1,1.7H27.4z"/>
		</g>
	</g>
	<g class="st2">
		<g>
			<path class="st3" d="M23.7,9.1h-3.3c-0.3,0-0.5,0.2-0.5,0.5c0,0.3,0.2,0.5,0.5,0.5h2.1L16.7,16l-3.4-3.4c-0.2-0.2-0.5-0.2-0.7,0
				l-4.6,4.6c-0.2,0.2-0.2,0.5,0,0.7c0.1,0.1,0.2,0.2,0.4,0.2c0.1,0,0.3-0.1,0.4-0.2l4.3-4.3l3.4,3.4c0.2,0.2,0.5,0.2,0.7,0l6.2-6.2
				v2c0,0.3,0.2,0.5,0.5,0.5s0.5-0.2,0.5-0.5V9.7C24.3,9.4,24,9.1,23.7,9.1z"/>
		</g>
	</g>
	<g class="st2">
		<g>
			<path class="st3" d="M7.1,18.7c-0.1-0.1-0.2-0.2-0.4-0.2c-0.1,0-0.3,0.1-0.4,0.2c-0.1,0.1-0.2,0.2-0.2,0.4c0,0.1,0.1,0.3,0.2,0.4
				c0.1,0.1,0.2,0.2,0.4,0.2c0.1,0,0.3-0.1,0.4-0.2c0.1-0.1,0.2-0.2,0.2-0.4C7.3,18.9,7.2,18.8,7.1,18.7z"/>
		</g>
	</g>
	<g class="st2">
		<g>
			<path class="st3" d="M29.9,22.6c0-0.3-0.2-0.5-0.5-0.5h-3.9v-3.9c0-0.3-0.2-0.5-0.5-0.5c-2.7,0-5,2.2-5,5s2.2,5,5,5
				c0.5,0,1-0.1,1.4-0.2v2.3c0,1.2-1,2.2-2.2,2.2c-1.2,0-2.2-1-2.2-2.2c0,0,0,0,0,0c0,0,0,0,0-0.1c0-0.3-0.2-0.5-0.5-0.5H11.2V17.9
				c0-0.3-0.2-0.5-0.5-0.5c-0.3,0-0.5,0.2-0.5,0.5V29H7.9c-0.3,0-0.5,0.2-0.5,0.5c0,1.8,1.5,3.3,3.3,3.3h13.5c1.8,0,3.2-1.4,3.2-3.2
				v-2.7c0,0,0,0,0,0C28.8,26,29.9,24.4,29.9,22.6z M10.7,31.8c-1.1,0-2-0.8-2.2-1.8H21c0.1,0.7,0.4,1.3,0.8,1.8H10.7z M24.9,26.5
				c-2.2,0-3.9-1.8-3.9-3.9c0-2,1.5-3.6,3.4-3.9v3.9c0,0.3,0.2,0.5,0.5,0.5h3.9C28.5,25,26.9,26.5,24.9,26.5z"/>
		</g>
	</g>
	<g class="st2">
		<g>
			<path class="st3" d="M26.6,14.7c-0.3,0-0.5,0.2-0.5,0.5v5.6c0,0.3,0.2,0.5,0.5,0.5h5.6c0.3,0,0.5-0.2,0.5-0.5
				C32.8,17.5,30,14.7,26.6,14.7z M27.2,20.3v-4.5c2.4,0.2,4.3,2.1,4.5,4.5H27.2z"/>
		</g>
	</g>
	<g class="st2">
		<g>
			<path class="st3" d="M17.2,23.1h-4.5c-0.3,0-0.5,0.2-0.5,0.5s0.2,0.5,0.5,0.5h4.5c0.3,0,0.5-0.2,0.5-0.5S17.5,23.1,17.2,23.1z"/>
		</g>
	</g>
	<g class="st2">
		<g>
			<path class="st3" d="M19.6,25.8c-0.1-0.1-0.2-0.2-0.4-0.2s-0.3,0.1-0.4,0.2c-0.1,0.1-0.2,0.2-0.2,0.4c0,0.1,0.1,0.3,0.2,0.4
				c0.1,0.1,0.2,0.2,0.4,0.2s0.3-0.1,0.4-0.2c0.1-0.1,0.2-0.2,0.2-0.4C19.7,26,19.7,25.8,19.6,25.8z"/>
		</g>
	</g>
	<g class="st2">
		<g>
			<path class="st3" d="M17.2,25.6h-4.5c-0.3,0-0.5,0.2-0.5,0.5c0,0.3,0.2,0.5,0.5,0.5h4.5c0.3,0,0.5-0.2,0.5-0.5
				C17.7,25.8,17.5,25.6,17.2,25.6z"/>
		</g>
	</g>
	<g class="st2">
		<g>
			<path class="st3" d="M14.5,20.6h-1.8c-0.3,0-0.5,0.2-0.5,0.5s0.2,0.5,0.5,0.5h1.8c0.3,0,0.5-0.2,0.5-0.5S14.8,20.6,14.5,20.6z"/>
		</g>
	</g>
</g>
<g id="governanca">
	<path class="st3" d="M20.3,11.8c-4.4,0-7.9,3.5-7.9,7.9s3.5,7.9,7.9,7.9s7.9-3.5,7.9-7.9S24.6,11.8,20.3,11.8z M20.3,26.5
		c-3.7,0-6.8-3-6.8-6.8s3-6.8,6.8-6.8s6.8,3,6.8,6.8S24,26.5,20.3,26.5z"/>
	<path class="st3" d="M34,16.4h-1.1c-0.3-1.1-0.7-2.1-1.3-3.1l0.8-0.8c0.3-0.3,0.5-0.7,0.5-1.1c0-0.4-0.2-0.8-0.5-1.1l-2.6-2.6
		c-0.6-0.6-1.6-0.6-2.2,0l-0.8,0.8c-1-0.6-2-1-3.1-1.3V6.1c0-0.9-0.7-1.6-1.6-1.6h-3.6c-0.9,0-1.6,0.7-1.6,1.6v1.1
		c-1.1,0.3-2.1,0.7-3.1,1.3L13,7.7c-0.6-0.6-1.6-0.6-2.2,0l-2.6,2.6c-0.3,0.3-0.5,0.7-0.5,1.1c0,0.4,0.2,0.8,0.5,1.1L9,13.3
		c-0.6,1-1,2-1.3,3.1H6.6c-0.9,0-1.6,0.7-1.6,1.6v3.6c0,0.9,0.7,1.6,1.6,1.6h1.1C8,24.2,8.5,25.3,9,26.2L8.2,27
		c-0.3,0.3-0.5,0.7-0.5,1.1c0,0.4,0.2,0.8,0.5,1.1l2.6,2.6c0.6,0.6,1.6,0.6,2.2,0l0.8-0.8c1,0.6,2,1,3.1,1.3v1.1
		c0,0.9,0.7,1.6,1.6,1.6h3.6c0.9,0,1.6-0.7,1.6-1.6v-1.1c1.1-0.3,2.1-0.7,3.1-1.3l0.8,0.8c0.6,0.6,1.6,0.6,2.2,0l2.6-2.6
		c0.3-0.3,0.5-0.7,0.5-1.1c0-0.4-0.2-0.8-0.5-1.1l-0.8-0.8c0.6-1,1-2,1.3-3.1H34c0.9,0,1.6-0.7,1.6-1.6v-3.6
		C35.5,17.1,34.8,16.4,34,16.4z M34.4,21.6c0,0.2-0.2,0.4-0.4,0.4h-2l-0.1,0.4c-0.3,1.3-0.8,2.5-1.5,3.6l-0.2,0.4l1.4,1.4
		c0.2,0.2,0.2,0.5,0,0.6L29,31c-0.2,0.2-0.5,0.2-0.6,0l-1.4-1.4l-0.4,0.2c-1.1,0.7-2.3,1.2-3.6,1.5l-0.4,0.1v2
		c0,0.2-0.2,0.4-0.4,0.4h-3.6c-0.2,0-0.4-0.2-0.4-0.4v-2l-0.4-0.1c-1.3-0.3-2.5-0.8-3.6-1.5l-0.4-0.2L12.2,31
		c-0.2,0.2-0.5,0.2-0.6,0L9,28.4c-0.2-0.2-0.2-0.5,0-0.6l1.4-1.4L10.2,26c-0.7-1.1-1.2-2.3-1.5-3.6L8.6,22h-2
		c-0.2,0-0.4-0.2-0.4-0.4v-3.6c0-0.2,0.2-0.4,0.4-0.4h2l0.1-0.4c0.3-1.3,0.8-2.5,1.5-3.6l0.2-0.4L9,11.7c-0.2-0.2-0.2-0.5,0-0.6
		l2.6-2.6c0.2-0.2,0.5-0.2,0.6,0l1.4,1.4L14,9.7c1.1-0.7,2.3-1.2,3.6-1.5L18,8.1v-2c0-0.2,0.2-0.4,0.4-0.4h3.6
		c0.2,0,0.4,0.2,0.4,0.4v2L23,8.2c1.3,0.3,2.5,0.8,3.6,1.5l0.4,0.2l1.4-1.4c0.2-0.2,0.5-0.2,0.6,0l2.6,2.6c0.2,0.2,0.2,0.5,0,0.6
		l-1.4,1.4l0.2,0.4c0.7,1.1,1.2,2.3,1.5,3.6l0.1,0.4h2c0.2,0,0.4,0.2,0.4,0.4V21.6z"/>
	<path class="st3" d="M20.3,14.1c-3.1,0-5.6,2.5-5.6,5.6s2.5,5.6,5.6,5.6s5.6-2.5,5.6-5.6S23.4,14.1,20.3,14.1z M20.3,24.3
		c-2.5,0-4.5-2-4.5-4.5s2-4.5,4.5-4.5s4.5,2,4.5,4.5S22.8,24.3,20.3,24.3z"/>
</g>
</svg>
