<?xml version="1.0" encoding="utf-8"?>
<!-- Generator: Adobe Illustrator 22.0.1, SVG Export Plug-In . SVG Version: 6.00 Build 0)  -->
<svg version="1.1" id="Layer_1" xmlns="http://www.w3.org/2000/svg" xmlns:xlink="http://www.w3.org/1999/xlink" x="0px" y="0px"
	 viewBox="0 0 50 50" style="enable-background:new 0 0 50 50;" xml:space="preserve">
<style type="text/css">
	.st0{fill:#2DC997;}
</style>
<g>
	<rect x="23.7" y="27.9" class="st0" width="1.7" height="17.6"/>
</g>
<g>
	<path class="st0" d="M40.1,32h-13c-0.2,0-0.5-0.1-0.6-0.3l-2-2l-2,2c-0.2,0.2-0.4,0.3-0.6,0.3h-13c-0.5,0-0.9-0.4-0.9-0.9V7.1h1.7
		v23.2h11.8l0.9-0.9H11.5c-0.5,0-0.9-0.4-0.9-0.9V5.1c0-0.5,0.4-0.9,0.9-0.9h26c0.5,0,0.9,0.4,0.9,0.9v23.4c0,0.5-0.4,0.9-0.9,0.9
		H26.6l0.9,0.9h11.8V7.1H41v24.1C41,31.6,40.6,32,40.1,32z M12.4,27.7h24.3V6H12.4V27.7z M25.4,25.3h-1.7V8.4h1.7V25.3z M35.6,24.2
		h-9.1v-1.7h9.1V24.2z M22.6,24.2h-9.1v-1.7h9.1V24.2z M35.6,21.6h-9.1v-1.7h9.1V21.6z M22.6,21.6h-9.1v-1.7h9.1V21.6z M35.6,19
		h-9.1v-1.7h9.1V19z M22.6,19h-9.1v-1.7h9.1V19z M34.3,15.7H33V14h1.3V15.7z M31.7,15.7h-1.3V14h1.3V15.7z M29.1,15.7h-1.3V14h1.3
		V15.7z M35.6,12.5h-9.1v-1.7h9.1V12.5z M35.6,9.9h-9.1V8.2h9.1V9.9z"/>
</g>
<g>
	<path class="st0" d="M40.8,46.3H8.3v-1.7h32.5V46.3z M22.8,16.4h-9.5V8.2h9.5V16.4z M15,14.7h6.1V9.9H15V14.7z"/>
</g>
</svg>
