<?xml version="1.0" encoding="utf-8"?>
<!-- Generator: Adobe Illustrator 22.0.1, SVG Export Plug-In . SVG Version: 6.00 Build 0)  -->
<svg version="1.1" xmlns="http://www.w3.org/2000/svg" xmlns:xlink="http://www.w3.org/1999/xlink" x="0px" y="0px"
	 viewBox="0 0 50 50" style="enable-background:new 0 0 50 50;" xml:space="preserve">
<style type="text/css">
	.st0{display:none;}
	.st1{display:inline;}
	.st2{fill:#2DC997;}
</style>
<g id="Layer_1" class="st0">
	<g class="st1">
		<rect x="23.7" y="27.9" class="st2" width="1.7" height="17.6"/>
	</g>
	<g class="st1">
		<path class="st2" d="M40.1,32h-13c-0.2,0-0.5-0.1-0.6-0.3l-2-2l-2,2c-0.2,0.2-0.4,0.3-0.6,0.3h-13c-0.5,0-0.9-0.4-0.9-0.9V7.1h1.7
			v23.2h11.8l0.9-0.9H11.5c-0.5,0-0.9-0.4-0.9-0.9V5.1c0-0.5,0.4-0.9,0.9-0.9h26c0.5,0,0.9,0.4,0.9,0.9v23.4c0,0.5-0.4,0.9-0.9,0.9
			H26.6l0.9,0.9h11.8V7.1H41v24.1C41,31.6,40.6,32,40.1,32z M12.4,27.7h24.3V6H12.4V27.7z M25.4,25.3h-1.7V8.4h1.7V25.3z M35.6,24.2
			h-9.1v-1.7h9.1V24.2z M22.6,24.2h-9.1v-1.7h9.1V24.2z M35.6,21.6h-9.1v-1.7h9.1V21.6z M22.6,21.6h-9.1v-1.7h9.1V21.6z M35.6,19
			h-9.1v-1.7h9.1V19z M22.6,19h-9.1v-1.7h9.1V19z M34.3,15.7H33V14h1.3V15.7z M31.7,15.7h-1.3V14h1.3V15.7z M29.1,15.7h-1.3V14h1.3
			V15.7z M35.6,12.5h-9.1v-1.7h9.1V12.5z M35.6,9.9h-9.1V8.2h9.1V9.9z"/>
	</g>
	<g class="st1">
		<path class="st2" d="M40.8,46.3H8.3v-1.7h32.5V46.3z M22.8,16.4h-9.5V8.2h9.5V16.4z M15,14.7h6.1V9.9H15V14.7z"/>
	</g>
</g>
<g id="Layer_2" class="st0">
	<g id="icon2" class="st1">
		<g>
			<path class="st2" d="M24.6,46c-4.5,0-8.2-3.7-8.2-8.2c0-1.1,0.2-2.2,0.6-3.1L3.4,12.5c0,0,0,0,0-0.1c-0.1-0.3-0.1-0.7,0.1-0.9
				l4-5.3C7.6,6,7.8,5.9,8.1,5.9h33.1c0.3,0,0.5,0.1,0.7,0.4l4,5.3c0.2,0.3,0.2,0.6,0.1,0.9c0,0,0,0,0,0.1L32.2,34.7
				c0.4,1,0.6,2,0.6,3.1C32.8,42.3,29.1,46,24.6,46z M24.6,31.5c-3.5,0-6.4,2.9-6.4,6.4c0,3.5,2.9,6.4,6.4,6.4
				c3.5,0,6.4-2.9,6.4-6.4C31,34.3,28.1,31.5,24.6,31.5z M5.7,12.9l12.4,20c0.3-0.4,0.6-0.7,0.9-1L7.3,13.2l0.4-0.2H5.7z M30.3,32
				c0.3,0.3,0.6,0.7,0.9,1l12.4-20h-2l0.4,0.2L30.3,32z M9.3,12.9l11.1,17.9c0.3-0.2,0.7-0.4,1.1-0.5L10.9,12.9H9.3z M27.8,30.3
				c0.4,0.2,0.7,0.3,1.1,0.5L40,12.9h-1.6L27.8,30.3z M13,12.9l10.2,16.9c0.9-0.2,1.9-0.2,2.8,0l10.2-16.9H13z M5.9,11.2h37.5
				L42.5,10v0.3H6.8V10L5.9,11.2z M7.9,8.5h33.5l-0.7-0.9H8.5L7.9,8.5z M24.6,43.4c-3,0-5.5-2.5-5.5-5.5c0-3,2.5-5.5,5.5-5.5
				s5.5,2.5,5.5,5.5C30.1,40.9,27.7,43.4,24.6,43.4z M24.6,34.1c-2.1,0-3.7,1.7-3.7,3.7c0,2.1,1.7,3.7,3.7,3.7
				c2.1,0,3.7-1.7,3.7-3.7C28.4,35.8,26.7,34.1,24.6,34.1z M25.5,40.5h-1.8v-3.7h-0.4V35h1.3c0.5,0,0.9,0.4,0.9,0.9V40.5z
				 M27.9,18.2h-1.3v-1.8h1.3V18.2z M25.3,18.2H24v-1.8h1.3V18.2z M22.6,18.2h-1.3v-1.8h1.3V18.2z"/>
		</g>
	</g>
</g>
<g id="Layer_3">
	<g id="icon3">
		<g>
			<rect x="30.4" y="35.5" class="st2" width="1.9" height="1.6"/>
		</g>
		<g>
			<path class="st2" d="M33,43.8h-1.6v-7.4c0-0.4,0.4-0.8,0.8-0.8h3.7c1.6,0,2.9-1.3,2.9-2.9v-5.5c0-0.4,0.4-0.8,0.8-0.8h2.9v-0.3
				l-3.6-7.8c0-0.1-0.1-0.2-0.1-0.3C38.7,11.4,33.3,6,26.7,6c-2.5,0-4.9,0.7-6.9,2.2l-0.9-1.3c2.3-1.6,5-2.5,7.8-2.5
				c7.5,0,13.6,6,13.7,13.5l3.6,7.8c0,0.1,0.1,0.2,0.1,0.3v1.2c0,0.4-0.4,0.8-0.8,0.8h-2.9v4.7c0,2.5-2,4.5-4.5,4.5H33V43.8z
				 M19.5,43.8h-1.6v-7.4c0-1.6-0.3-3.2-1.1-5.3l1.5-0.5c0.8,2.2,1.2,4,1.2,5.8V43.8z M15.6,29.3c-0.2,0-0.3,0-0.4-0.1l-1.6-1.1H5.2
				c-0.4,0-0.8-0.4-0.8-0.8V10.1c0-0.4,0.4-0.8,0.8-0.8h8.6c0.2,0,0.3,0,0.4,0.1l1.4,0.9L17,9.4c0.1-0.1,0.3-0.1,0.4-0.1H26
				c0.4,0,0.8,0.4,0.8,0.8v17.2c0,0.4-0.4,0.8-0.8,0.8h-8.3l-1.6,1.1C15.9,29.2,15.8,29.3,15.6,29.3z M16.4,11.7V27l0.6-0.4
				c0.1-0.1,0.3-0.1,0.4-0.1h7.8V10.9h-7.5L16.4,11.7z M6,26.5h7.8c0.2,0,0.3,0,0.4,0.1l0.6,0.4V11.7l-1.3-0.9H6V26.5z M24.2,24.4
				h-6.7v-1.6h6.7V24.4z M13.8,24.4H7v-1.6h6.7V24.4z M24.2,21.9h-6.7v-1.6h6.7V21.9z M13.8,21.9H7v-1.6h6.7V21.9z M24.2,19.5h-6.7
				v-1.6h6.7V19.5z M13.8,19.5H7v-1.6h6.7V19.5z M24.2,17h-6.7v-1.6h6.7V17z M13.8,17H7v-1.6h6.7V17z M24.2,14.6h-6.7V13h6.7V14.6z
				 M13.8,14.6H7V13h6.7V14.6z"/>
		</g>
		<g>
			<path class="st2" d="M29.2,24.1h-1.2v-1.6h1.2V24.1z M31.6,21.7h-1.2v-1.6h1.2V21.7z M29.2,21.7h-1.2v-1.6h1.2V21.7z M34.1,19.4
				h-1.2v-1.6h1.2V19.4z M31.6,19.4h-1.2v-1.6h1.2V19.4z M29.2,19.4h-1.2v-1.6h1.2V19.4z M31.6,17h-1.2v-1.6h1.2V17z M29.2,17h-1.2
				v-1.6h1.2V17z M29.2,14.6h-1.2V13h1.2V14.6z"/>
		</g>
	</g>
</g>
</svg>
