<?xml version="1.0" encoding="utf-8"?>
<!-- Generator: Adobe Illustrator 22.0.1, SVG Export Plug-In . SVG Version: 6.00 Build 0)  -->
<svg version="1.1"
	 id="svg6337" inkscape:output_extension="org.inkscape.output.svg.inkscape" inkscape:version="0.45.1" sodipodi:docbase="D:\WIKIPEDIA\chômage Europe\carte" sodipodi:docname="init_map.svg" sodipodi:version="0.32" xmlns:cc="http://web.resource.org/cc/" xmlns:dc="http://purl.org/dc/elements/1.1/" xmlns:inkscape="http://www.inkscape.org/namespaces/inkscape" xmlns:ns="http://creativecommons.org/ns#" xmlns:rdf="http://www.w3.org/1999/02/22-rdf-syntax-ns#" xmlns:sodipodi="http://sodipodi.sourceforge.net/DTD/sodipodi-0.dtd" xmlns:svg="http://www.w3.org/2000/svg"
	 xmlns="http://www.w3.org/2000/svg" xmlns:xlink="http://www.w3.org/1999/xlink" x="0px" y="0px" viewBox="0 0 454.2 340.2"
	 style="enable-background:new 0 0 454.2 340.2;" xml:space="preserve">
<style type="text/css">
	.st0{fill:#75275A;stroke:#FFFFFF;stroke-width:0.1;stroke-linecap:round;stroke-linejoin:round;}
</style>
<defs>
	
	
		<inkscape:perspective  id="perspective2637" inkscape:persp3d-origin="227.08525 : 149.90885 : 1" inkscape:vp_x="0 : 224.86328 : 1" inkscape:vp_y="0 : 1000 : 0" inkscape:vp_z="454.1705 : 224.86328 : 1" sodipodi:type="inkscape:persp3d">
		</inkscape:perspective>
</defs>
<sodipodi:namedview  bordercolor="#666666" borderopacity="1.0" gridtolerance="10000" guidetolerance="10" id="base" inkscape:current-layer="layer1" inkscape:cx="137.89905" inkscape:cy="148.39934" inkscape:document-units="px" inkscape:pageopacity="0.0" inkscape:pageshadow="2" inkscape:window-height="740" inkscape:window-width="1280" inkscape:window-x="0" inkscape:window-y="26" inkscape:zoom="4.4214916" objecttolerance="10" pagecolor="#ffffff" showgrid="false">
	</sodipodi:namedview>
<g>
	<path id="AL" class="st0" d="M272.6,270.8l0.3,0.2l1,1.5l0.7,0.3l1,0.7l0.7,1.6l0.1,1.1l-0.3,1.3l0.2,1.1l-0.4,0.4l0.4,1l0.1,1
		l0.6,1.1l0.6,0.6l0.7,1.2l0.8-0.1l0.7,0.6v0.6l0.6,0.9l-0.4,1.3l-0.9,0.4l-0.6,1.6l-0.2,1l-0.3,0.3l-1,0.2l-0.9,0.7l0.5,1.1
		l-0.5,0.4l-0.2,0.8l-0.4,0.4l-1.4-0.5l-0.4-1.3l-0.9-1.4l-2.5-1.3l-0.6-0.6l0.2-0.8l-0.1-0.7l-0.7-1.2l0.2-1.3l0.4-1.1l-0.2-1.4
		l0.1-1.1l-0.4-1.5l0.3-1.1l0.5-0.7l-0.1-1.1l-0.8-0.6l-0.8-0.1v-1.6l-0.2-0.3h0.9l-0.9-1.4l1.6-2.7l0.6,0.2l0.4,1.1L272.6,270.8
		L272.6,270.8z"/>
	<path id="AD" class="st0" d="M154.6,271.1l-1.4,0.6l-0.4-0.2v-1.1l0.5-0.4l1.3,0.3V271.1L154.6,271.1z"/>
	<path id="AM" class="st0" d="M435.8,293.4l-1.6-1.4l-1.2-0.9l-0.8-0.4l-1.8,0.2l-1.5-0.5L428,290l0.3-0.3l-1-1.5l-0.4-1l0.5-0.7
		l0.1-1.2l-0.9-1.7l-0.9-0.6l-0.7-0.8l2.2-0.2l2.7-0.7l1.6,0.2l0.6-0.1l1.8-0.1l-0.3-0.4l1.2-0.3l0.7,0.8l0.8,0.5l-0.5,0.5l1.2,0.5
		h0.6l1.7,1.3v0.4l-1,0.8l-0.1,0.6l1.6,1.7l1.2,0.7l1.6,0.8l0.1,0.5l-0.5,1.3H441l0.3,0.5l1,0.6l3.1,2.2l0.8-0.2l1.1,0.5l0.1,0.7
		l-0.5,0.7l1,0.7l0.4,0.8l-0.9,0.3l0.7,0.8l0.3,1.3l-1.1-0.1l-1.3,0.3l-1.5-2.4l0.1-0.5l-1.6-1.1l0.1-0.9l-0.4-0.6l-0.9,0.1l-1,0.5
		l-1.5-0.8l-0.6,0.1l-0.2-0.6l-0.9-0.9L435.8,293.4L435.8,293.4z"/>
	<path id="AT" class="st0" d="M248.7,223.2l-0.5,1.2l0.1,0.4l0.8,1.5l1.2,1.5l-0.3,0.4l-0.3,1l0.4,1l-2,0.2l-1.3-0.5l-0.7,0.7
		l1.3,0.4l0.3,0.6l-0.3,0.7l-1.1,0.6l0.2,0.8l-0.3,0.4l0.6,0.8l-0.2,0.9l-1.3,0.3l-0.9,0.9l-0.7,0.5l-0.1,1l-1.2-0.3l-0.8,0.1
		l-1.2,0.6l-1.4-0.1l-1.3,0.1l-1,0.4l-0.5,0.7l-1.5,0.6l-2.6-0.4l-2.6-0.5l-1.3-0.3l-2-0.2l-4.4-0.8l-0.6-0.3l-1.6-1.8v-1.2
		l-2.4,0.8l-1.6-0.1l-1.7,0.2l-0.7,0.3l-0.6,1.1l-0.6,0.2l-1.1-0.2l-0.5-0.4l-1.5-0.2l-0.3-0.8l-0.4-0.2l-1,1l-1.2-0.2l-0.8-0.4
		l-0.2-0.5l-1.7-0.4l0.2-0.4l-0.6-1.3l0.5-1.5l-0.5-0.4l0.9-0.3l0.4-0.3l1.8,0.8l0.5,0.7l0.6,0.2l-0.1,0.7l0.8-0.3l0.5-0.8l0.1-1
		l1.4-0.1l1.4,0.2l0.7,1l1.9-0.3l0.6-0.5l2-0.8l2.9-0.3l0.1-0.7l1,0.2l0.8,0.4l1.3-0.3l0.6,0.3l0.1,0.6l0.6,0.5l0.9,0.2l0.2-0.8
		l-0.2-1l-0.9-0.2l0.3-0.7l-0.1-0.7l-1.3-1.4l0.3-0.7l1.6-0.9l1.5-0.4l0.5-0.5l0.4-1.5l1.2,0.5l0.7-0.5l0.1-1.4l1.1,0.6l0.4,0.7
		l2,0.2l0.7-0.4l1.3,0.2l0.1-0.6l0.7-0.8h0.6l0.2-1.6l0.6-0.1l0.8,0.4l0.7-0.2l2.4,0.9l0.8-0.1l1.5,0.9l1.9,0.1l0.6-0.5l2.6,0.8
		L248.7,223.2L248.7,223.2z"/>
	<path id="BE" class="st0" d="M178.4,206.4l0.8-0.3l0.4,0.4l0.6,0.1l1.5,1.2l-0.2,0.8l0.9,0.4l0.2,1l-1.2,0.7l-0.3,0.9l-0.9-0.4
		l-0.7,0.7l-0.7,1.3l-0.1,0.9l1,1.2l-0.6,0.9l-1.7,0.2l-1.4-1.3l-1.7-0.8l-0.9-0.1l-0.2-1l-0.3-0.3l0.4-1.4l-1,0.3l-0.3,0.7
		l-0.7,0.3l-1.1,0.2l-1.2-0.2l-0.3-0.3l0.4-0.7l-0.4-0.4l0.2-0.8l-0.8-0.6l-1.8-0.2l-0.5,0.2l-0.3-1l-2.1-0.6l-0.3-1l-0.8-0.9
		l-1.6,0.5l-1.5-1.2V205l-0.5-1.1l2.6-1.3l2.4-0.9l0.2,0.7l0.6,0.4l0.6-0.3l2,0.6l1.6-0.8l0.3-0.6l1.1,0.2l-0.1-0.5l0.7-0.4l0.8,0.4
		l0.8-0.5l0.6,0.7l1.3-0.4l0.3,0.8l1.3,0.7l1-0.2l0.9,0.7l1.3,0.6l-0.5,1.5l-0.6,0.7L178.4,206.4L178.4,206.4z"/>
	<path id="BG" class="st0" d="M326.1,261.4l0.1,1.9l-0.5,0.9l-1-0.3l-1.1,0.3l-0.5,1l-0.6,0.6v1.3l0.2,2.1l-0.8,0.4l-1.5,1.9
		l1.5,0.9l0.9,1.1l1.2,1.3l0.3,0.6l-0.9-0.1l-0.5,0.2h-0.9l-0.8,0.3l-1.7-1.3l-1.8,0.2l-0.8,0.6l-1.7,0.2l-0.5,1.1l-1,0.2l-0.2,0.7
		l-0.8-0.3l-0.8,0.6l0.4,0.5l0.5,1.4l-0.1,0.4l-1.3,0.6l-0.9-0.2l-1.6,0.2l-1.7,0.5l-0.9-0.6l-1.9-0.6l-0.5,0.3l-1.2-0.7l-0.6-0.9
		l-0.8,0.3l-2.1-0.1l-0.1,0.5l-1,0.1l-1.5,0.6l-1.3-0.1L294,280l-0.5,0.5l-1.5-0.1v-2.1l0.3-0.9l-0.5-0.5l-0.9-1.7l-1.7-0.9
		l-1.7-1.6l0.5-0.2l0.6-0.9l-0.7-1.5v-1.7l0.6-0.3l0.9-0.1l0.6-0.8l0.8-0.9l0.2-0.7l-0.8-0.5l-0.7-0.8l-1.5-0.8l-1.2-2l-0.3-1.2
		l0.2-1.2l1.1-0.5l0.1-1l0.5-0.4l2.2,1.3l-0.9,1l0.5,0.9l1.9-0.3l2,0.2l2.7,0.5l1.8,0.2l1.3-0.3l4.8,0.9l2.1,0.1l1.2-0.3l0.8-0.5
		l0.6-0.8l1.7-1.1l1.6-0.6l2.2-0.5l1.5-0.2l2.3,1.2l1.6,0.2l0.5,0.3l0.9-0.3l1.3,1.3l1.1,0.4l1.3,0.3L326.1,261.4L326.1,261.4z"/>
	<path id="BA" class="st0" d="M264.2,252.5l1.4-0.4l0.8,0.4l-0.3,1.3l-0.8,1.4l-0.1,1.3l0.3,0.4l1.2,0.6l1.7,1.5l-0.2,0.4l-1.6-0.1
		l-0.3,0.4l1.6,1.9l-0.1,1.1l-1.3-0.2l-0.4,0.4l-1.6,0.3l0.7,1.1l-1.2,0.1l-1,0.9l-0.3,0.9l0.1,0.8l-0.9,0.1l-0.3,0.4l0.3,1.5
		l0.6,0.8l-0.1,0.4l-0.6,0.5l-0.9-0.4l-3.2-1.9l-0.3-0.5L257,268l-0.6-0.3l0.2-0.8l-1.5-1.3l-0.8-0.8l-0.2-1.1l-1.2-0.6l-2.6-2.1
		l-0.9-1l-1.4-1.2l-1.2-1.2l-0.7-2l-1.7-1.6l-1-0.7l-0.1-0.7l0.2-2.6l0.6-0.3l0.9,0.2l0.9,0.9l0.9,0.5l1.4-1.6l1.6,0.2l0.8-0.6
		l1.4,0.8l1.3,0.1l1.4,0.4l0.9-0.3l0.8,0.7l1.1-0.5l0.9,0.2l0.9-0.1l1.3,0.4l1.1,0.1l0.6,0.4l0.7,1.1L264.2,252.5z"/>
	<path id="BY" class="st0" d="M308.2,165.4l0.9,0.7l0.6-0.2l1-0.1l1.6,1.1l0.8-0.5l0.8-0.2l1.8,0.6l0.1,1.2l0.9,0.8l1.1-0.7l1.4-0.6
		h1.7l1.4,0.5l1.2,0.9l1.8,0.7l0.2,1.3l-0.3,0.9l1.1,1.1l0.3,0.7l-0.7,1v1l2.1,1l0.3,0.3l-0.3,0.9l0.7,0.3l0.9,1.2l0.8,0.7l2.5,1.1
		l0.4,0.4l-0.2,1.4l2.7,0.3l1.6,0.7v0.6l0.4,0.6l1.4,0.7l0.3,0.9l-1.3,0.5l-0.2,0.5l-1.5,0.9l-1.8-0.1l-1.2-0.8l-1.5,0.1l-0.7,1.4
		l2,1.7l0.3,0.5l-0.1,0.8l0.5,0.8l0.3,1.7l0.8,0.7l0.7,0.9l-2.6-0.1l-0.7,0.4l-0.9-0.2l-0.6,0.3l-1.1,1.2l-0.4,0.6l-0.5,1.7l0.9,1.8
		l-0.4,0.7l-1.4-0.5l-0.3-0.6l-1-0.6l-3.6,0.3l-1.2,0.4l-0.3-0.3l-1.3-1.5l-1.9,0.8l-0.3,0.6l-0.5-0.2l-0.4-0.7l-2.6-0.5l-1,0.4
		l-1-0.3l-0.6,0.9l-0.4-0.7l-0.6-0.2l-1.5,0.1l-0.5-0.2l-0.9-1.1H307l-3.1-0.5l-3.3-0.8l-4-0.2l-1.2,0.1l-1.2,0.3l-3,0.3l-0.4,0.7
		l-0.8,0.8l-1,0.6l-0.6-0.3l-1-0.2l-0.6,0.3l0.1,0.7l-0.5-0.8l-0.1-0.7l0.4-0.8l-0.2-0.6l0.1-1.2l-0.4-0.5l-0.9-0.5l-1.7-0.7v-0.6
		l1-1.4l0.4-0.3l2-0.9l0.3-0.8l-0.5-2l-0.9-1.8l-1.5-2.5l-1.1-2.6l1.5,0.2l0.8-0.2l1.9-0.2l0.8,0.5l1.7-0.7l0.9,0.1l0.4-1.3l1,0.1
		l0.7-0.6l1.1-0.3l0.5-0.4l0.9,1.2l1-0.1v-0.5l-0.5-0.6l-1-0.3l0.3-1l0.5-0.8l-0.2-1.2l0.6-1.5l1.3-0.3l0.4-0.3l0.5-1l1.8,0.1
		l0.2-0.6l0.7-0.5l-2-0.5l0.4-1.6V169l1.3-0.3l0.6-0.8l0.6-0.2l1.5,0.2l1.6,0.1l0.2-0.9l1.3-1.2l0.7-0.4L308.2,165.4L308.2,165.4z"
		/>
	<path id="CH" class="st0" d="M200.9,230.5l0.4,0.6l1.3,0.7h0.6l0.5,0.4l-0.5,1.5l-0.3,0.8l0.1,0.9l0.6,0.1l1.7,0.4l0.2,0.5l0.8,0.4
		l1.2,0.2l1-1l0.4,0.2l0.3,0.8l-0.3,1.6l0.3,0.9l-1-0.1l-0.5-0.5l-0.7,0.2l-0.3,0.9l0.8,1.8l-0.6,0.2l-0.7-1l-0.4-0.1l-1.5,0.6
		l-1-0.4l-0.4-1.1l-1,0.1v1.5l-0.3,0.6l-1.1,1.3l-0.1,0.5l0.4,0.9l-0.6,0.4l-0.5-0.7l-0.7-0.6l0.2-0.6l-1.1-0.3l-1.2-1l-0.1-1.3
		l-0.5-0.3l-1.7,1.5l0.3,0.8l-0.8,1.1l-1.2,0.7l-1.6-0.4l-1.3,0.5l-1.2,0.3l-0.7-0.4l-0.5-0.7l-1.2-1.2l0.3-0.9l-0.4-1.1l-1.1-0.2
		l-1,0.1l-1.2,0.8l0.3,0.7l-1.2,0.8l-0.7-0.1v-0.5l0.8-0.5l0.2-0.8l-0.4-0.4l0.6-1.5l1.5-1.1l0.3-1.5l1.1-0.5l1.9-2l0.3-0.5
		l-0.7-0.6l0.9-0.7h0.6l0.4,0.4l1.4-0.2l0.4-0.7l0.8-0.4l0.5,0.2l1.4,0.1l1.7-0.3l1.3,0.1l-0.1-0.8l0.7-0.6h0.7l0.7,0.5l0.4-0.1
		l0.6,0.5L200.9,230.5L200.9,230.5z"/>
	<path id="CZ" class="st0" d="M234,205.7l1.1-0.2l-0.1-1l1.7,0.4l0.2,0.6l0.5,0.6l2.3,0.6l1.4,0.6l0.4,0.5l1.6-0.4l0.9,0.6l-0.4,0.6
		l-0.8,0.6l0.8,0.5l1,0.9l0.8,1l0.5,0.2l1.8-1.3l-0.9-1.2h0.7l1.1,0.3l1.7,1l1.8-0.4v0.8l-0.7,0.3l1.4,1.2l0.5,0.3l0.9-0.5l1.8,0.9
		l0.3-0.1l1.4,0.4l0.3,0.9l1.4,1.1l0.3,0.8l-1.4,0.2l-1,0.8l-0.3,0.4l-1.2,0.6l-0.4,1.5l-0.8,0.4l-1.1,1l-0.8,0.4l-0.9,0.1l-1.8-0.3
		l-0.7,0.6l-0.6,1.4l-0.5-0.8l-2.6-0.8l-0.6,0.5L243,222l-1.5-0.9l-0.8,0.1l-2.4-0.9l-0.7,0.2l-0.8-0.4l-0.6,0.1l-0.2,1.6h-0.6
		l-0.7,0.8l-0.1,0.6l-1.3-0.2l-0.7,0.4l-2-0.2l-0.4-0.7l-1.1-0.6l-0.3-0.4l-1.5-1.1h-0.7l-0.7-0.8l-1.3-0.8l-1.5-1.3h-0.7l-1.2-1
		l-0.9-1.4l-0.7-0.8l0.6-0.9l-0.3-0.8L219,212l-1.3-1.7l0.3-0.4l1,1l1-1.3l0.6-0.3l1.3-0.3l1.1,0.2l0.4-0.7l1-0.2l0.3-0.5l0.8-0.4
		l0.6,0.1l0.3-0.6l2.2-0.5l1.8-0.8l1-0.3l-0.8-0.8l0.4-0.3l1.1,0.2l0.8,0.8v0.5l0.7,0.3L234,205.7L234,205.7z"/>
	<path id="DE" class="st0" d="M228.4,182.6l-1.7-0.1l-0.1-0.9l-0.6-0.5l-0.1-0.5l2.4,1.3L228.4,182.6z M210.6,178.5h-0.9l-0.7-0.4
		l0.4-0.5l0.9,0.2L210.6,178.5L210.6,178.5z M225,178.7l-0.7,0.4h-0.7l-0.7,0.7l-1.1-0.6l-0.3-0.6l0.1-1.1l0.3-0.7l1-0.5l0.5,0.6
		l0.9,0.3l-0.3,0.9L225,178.7L225,178.7z M201.3,175.3l0.9,0.4l0.8,0.8l0.1,0.7l-0.9,0.8l1.6-0.2l0.4,0.6l0.9-0.2l2.3,0.9l1.6-0.5
		l0.4,0.7l-0.3,0.8l-1.1,0.8l0.7,0.6l1.1-0.1l1.8,0.5l1.7-1.3l0.6-0.3l1.8-0.2l2.6-2.3l2.7,0.5l0.8,1l1.9,1.1l1.6-0.1l0.7,1l0.4,1.3
		l1,0.7l1.4,0.3l0.4,1.3l0.9,2.1l-0.2,1.4l-1,0.9l-0.4,0.8l0.8,0.7l1.7,1.1l0.7,0.9l-0.3,1.3l1,1.2l0.4,1l-0.4,1.3l-0.4,0.6l1,1.6
		v0.8l1.1,0.5l0.8,1.6l-0.2,1.2l-0.8,1.8l-0.5,0.4l-0.7-0.3v-0.5l-0.8-0.8l-1.1-0.2l-0.4,0.3l0.8,0.8l-1,0.3l-1.8,0.8l-2.2,0.5
		l-0.3,0.6l-0.6-0.1l-0.8,0.4l-0.3,0.5l-1,0.2l-0.4,0.7l-1.1-0.2l-1.3,0.3l-0.6,0.3l-1,1.3l-1-1l-0.3,0.4l1.3,1.7l1.2,0.7l0.3,0.8
		l-0.6,0.9l0.7,0.8l0.9,1.4l1.2,1h0.7l1.5,1.3l1.3,0.8l0.7,0.8h0.7l1.5,1.1l0.3,0.4l-0.1,1.4l-0.7,0.5l-1.2-0.5l-0.4,1.5l-0.5,0.5
		l-1.5,0.4l-1.6,0.9l-0.3,0.7l1.3,1.4l0.1,0.7l-0.3,0.7l0.9,0.2l0.2,1l-0.2,0.8l-0.9-0.2l-0.6-0.5l-0.1-0.6l-0.6-0.3l-1.3,0.3
		l-0.8-0.4l-1-0.2l-0.1,0.7l-2.9,0.3l-2,0.8l-0.6,0.5l-1.9,0.3l-0.7-1l-1.4-0.2l-1.4,0.1l-0.1,1l-0.5,0.8l-0.8,0.3l0.1-0.7l-0.6-0.2
		l-0.5-0.7l-1.8-0.8l-0.4,0.3l-1.1-0.6l-2.6-1.2l0.5,0.8l-1.9,0.1l-0.6-0.5l-0.4,0.1l-0.7-0.5h-0.7l-0.7,0.6l0.1,0.8l-1.3-0.1
		l-1.7,0.3l-1.4-0.1l-0.5-0.2l-0.6-0.7v-0.8l0.3-1l-0.1-1.2l0.2-0.8l0.5-0.9l0.7-2.8l1.8-1.9l-0.1-0.7l-0.8-0.3l-2.4-0.4l-1-0.7
		l-1.5,0.3l-1.1-0.1l-0.2-0.5l-0.7-0.2l-0.9,0.4l-1.8-2.2l-0.7-0.1l0.3-1.5l0.5-0.5v-0.7l-1.4-0.6l-0.8-0.8l-0.2-1.1l0.3-0.9
		l1.2-0.7l-0.2-1l-0.9-0.4l0.2-0.8l-1.5-1.2l0.3-1.2l-1-0.6l0.3-0.4l1.1-0.8l-0.4-0.6l0.7-1.4v-0.6l-1.6-2.1l0.4-0.6l0.9-0.4
		l1.2,0.4l2.3-0.7l0.4-0.5l-0.5-0.5l0.2-0.5l1.3-0.8l0.3-1.3l-0.4-0.5l-1.3-0.2l-0.4-0.5l0.3-0.8l1.6,0.1l0.6-1.9l0.4-0.9l-0.1-2.2
		l-0.9-0.7l0.3-1.4l0.6-0.7l0.5-0.2l2-0.2l2.3,0.1l1,1.1l-0.3,0.6l0.8,0.2l0.5-1.2l0.7,0.4l0.6-0.1l-0.3-0.9l0.1-0.8l0.5-0.7
		l1.7,0.3l1.8-0.2l0.1-0.3l-1.4-0.3l-0.5-0.6l-0.1-2l-0.8-0.4l-0.8,0.2v-0.8l1.7-0.6v-0.5l-1.7-1.9l-0.1-0.8l1.4,0.1l2.7,0.7
		l1.6-0.4L201.3,175.3L201.3,175.3z"/>
	<path id="DK" class="st0" d="M210.8,174.8l1.1,0.5l1.2,0.2l0.2,1l-1.8,0.4l-2.6-1.1l0.1-1.3l1.2-0.1L210.8,174.8L210.8,174.8z
		 M217.8,174.3l-1.2,0.1l-1,0.5l-0.2-0.6l0.8-0.5l0.6,0.1L217.8,174.3z M203.1,174.9l-0.6,0.1l-0.9-0.3l-0.3-1.2l1.4,0.6
		L203.1,174.9L203.1,174.9z M207.2,175.9l-0.7-0.8l1.3-1.5l0.4-0.1L207.2,175.9z M232.7,173.9l-1.2-0.1l-1.2-0.5l0.1-1l0.3-0.5
		l2.3,1.2L232.7,173.9L232.7,173.9z M206.2,169.4l1.2,2.2l-0.1,1.4l-0.9,0.6h-1.1l-2.8-0.9l-0.9-1.5l-0.1-1.2l2.4-0.7l1.3,0.4
		L206.2,169.4z M218,169.5l-0.5,0.3l-0.4-0.5l0.5-0.5L218,169.5L218,169.5z M205.9,168.1h-0.5v-1.5l0.8,0.8L205.9,168.1z
		 M217.4,168.1l0.1,0.8l-0.4,0.4l-1,0.4l-0.6,0.9l1,0.6l0.3,0.8l-0.5,0.4l-1.3,0.4v2.9l-1.1,0.3l-0.8-1.1l-0.1-0.5l-0.7-1.6l-1-0.2
		l-1.1,0.1l-0.8-0.9l0.1-1.1l-0.5-1l-0.7-0.3l0.2-0.7l1.6-0.1l0.8-1v-0.5l0.9-0.1l0.4,0.4l0.1,1.3l0.8,0.3l0.6-1.5l-0.5-0.6l2-1.1
		l0.6-0.1l1.5,0.5l-0.2,1.1L217.4,168.1L217.4,168.1z M201.3,175.3l-0.8-0.2l-1.6,0.4l-2.7-0.7l-1.4-0.1l-0.3-1.1l-0.4-0.7l0.6-0.2
		l-0.5-2l-1.6-0.7l-1.3-0.7l0.3-2.9l-0.5-1.2l0.1-3.5l0.7-0.1l1.6,0.4l0.8,0.5l0.3-1l0.8-0.8l1-0.4l0.8,0.7l0.2-2.3l-0.8-0.3
		l-0.7,0.2l-0.7,1l-0.5,1.2l-1,0.1l-0.8,0.4l-1.2-0.7l0.1-0.7l0.8-1l1-1h1.1l0.8-0.3l2,0.1l1.4-0.7l1.4-1.8l0.8-0.8l1.7-0.3l1.5-0.9
		l-0.4,1.3l0.6,0.9v1.5l-0.5,0.5l-0.7,1.3l0.1,2.9l1.3,0.8h2.1l0.5,0.6l-0.4,1.1l-1.3,0.7h-0.5l-0.7-0.6l-0.6,0.5l-0.6,2.6l-1-0.1
		l-0.6,0.3l0.7,0.6l-0.7,0.4l-1.7,1.6l0.6,1.7l-0.1,0.5l-0.8,0.7l-0.3,0.6l1.2,0.2L201.3,175.3L201.3,175.3z"/>
	<path id="EE" class="st0" d="M273,146.9l2,0.1l2,0.9l-0.9,0.4l-1.9,1.3l-0.2,0.3l-1.3-0.1l-0.7,0.1l-0.5,0.5l-0.5,1.4l-0.8,0.3
		l-0.2-0.5l0.8-0.9l-0.8-0.7l-1-0.4l0.5-0.9l-0.8-0.8l0.8-0.1l0.5,0.3l1-0.3l0.3-0.5L273,146.9L273,146.9z M277.3,147.4l-0.5,0.1
		l-1.2-0.6l0.5-0.5l1,0.3L277.3,147.4z M274.5,145.4l-0.4,0.4l-0.5-0.3l-0.5,0.8l-0.7,0.2l-1-1.3l-1.5-0.3l-0.7-0.4l2.3-0.2l0.6-0.8
		l0.7,0.1l0.2,0.5l1.1,0.2l0.5,0.5L274.5,145.4L274.5,145.4z M301.7,155l-1-0.1l-1.7-0.5l-2,0.6l-1.4-0.6l-1.8-1.4l-0.3-0.4
		l-1.2-0.3l-2.9-1.3l-0.6,0.4l-0.8-0.5l-4.3,1.4l0.5-1.7l0.1-1.8l-1.2-0.2l-0.5,0.7l-0.7,0.2l-2.1-0.7l-0.6-1.1l-0.8-0.6l-0.4-0.6
		v-0.9l-0.8-1l0.4-0.6l-0.4-1.4l1.5-0.6l1.7-0.1l0.5-0.7l1-0.7l1.2,0.1l1.6-0.5l3.2,0.1l0.2-0.9h1.6l3.9,0.6h0.9l1.4,0.6l0.7,0.2h2
		l3.2,0.3l0.6-0.5l0.8,0.6l-0.5,0.7l-0.6,0.2l-0.5,1.6l-0.4,0.5l-0.9-0.2l-1.3,0.1l-1,0.3l-0.7,0.6l0.1,0.6l1.3,1.2l0.7,1.4l1.3,1.1
		l0.4,0.7l1.2,1.5l0.9,1.3l-1.2,0.3l-0.6,1L301.7,155L301.7,155z"/>
	<path id="FI" class="st0" d="M268.4,134l1,0.1l-0.3,1.4l-1.2-0.9L268.4,134L268.4,134z M267.5,134.3l-1.1-0.3l0.5-0.4L267.5,134.3
		L267.5,134.3z M264.2,132.9l-0.8,0.4l-0.2-0.9L264.2,132.9z M277.2,100.8l-0.8,0.3l-0.7-0.2l-0.1-0.5l1-0.3L277.2,100.8z M292.5,73
		l-1.9,0.7l0.8,0.4l0.4,0.6l-1,1.6l0.1,0.3l1.6,2l3.7,0.9l1.2,0.9l1.8,1.2l0.9,0.5l0.1,1l-1.5,1.5l-1.3,1.6l-0.6,0.9l0.2,0.9
		l1.3,1.1l1.2,1.1l1.5,1.8l1.5,1.3l1.5,2.1l0.2,0.7l-1.9,0.4l0.6,0.5l-0.3,0.7l0.2,1l-0.3,0.8l1,0.2l0.2,0.7l-0.9,0.5v0.5l0.7,0.9
		l0.5,0.3l1.6,0.3l0.5,0.8l-0.5,0.9l0.9,1.1l2.3,0.9l0.4,0.7l0.1,0.9l-1.2,1.5l-1,0.4l0.4,0.4l2.3,1.3l3.4,1.5l1.3,0.7l1.1,1
		l1.1,0.8l0.3,0.5l-0.8,2.3l-0.4,0.6l-1.1,1.1l-1.7,1.4l-1.2,1.2l-2.7,3l-1,0.8l-1.1,1.1l-2.5,1.7l-0.4,0.4l-1.3,0.8l-2.9,2.7
		l-1.8,0.5l-1.3-0.6l-0.9,0.1l-0.6,0.4l-1.3,0.1l-1,0.3l-0.5-0.4l-0.4,0.3l-1,0.1l-1-0.5l0.2,0.8l-1.7,0.8l-0.4-0.5l-1,0.5l-1.1,0.1
		l-0.6,0.4l-3,0.6l-0.8,0.7l-0.6-0.2l-3.4,0.6l-1.5-0.1l-1.4,1l-0.9,0.2l0.8-1.5l-1.2-0.6l-0.6-0.8l-0.4,0.2l-0.2,0.8l-0.8,0.4
		l-1-0.1l-0.2-1.2l0.4-1.2l-1.8-0.3l-1.9-0.7l-0.5-0.1l-0.4-0.7l-1,0.5l-1.1-0.5l-0.9-2.7V129l0.5-0.8l-0.1-1.7l-0.3-1l0.6-0.3
		l-0.5-0.8l-1.1-1.5l-0.8-0.6l0.3-1.7l-0.3-0.8l-1-0.6l-0.6-1.5l0.3-1.2l1.2-1.1v-0.6l0.5-0.6l-0.3-0.7l1.4-0.3l0.5,0.2l1.2-0.2
		l1-0.5l-0.6-0.9l0.8-0.4l0.6-0.6l-0.1-0.5l1.2-0.3l1.2-1l1.2-0.6l1.2-1l0.6-0.1l0.2-0.7l1.3-1l0.4-0.8l1.2-0.9l1.1-2l1.9-0.6
		l1.9,0.2l-0.3-0.9l0.5-0.2l-0.3-0.7l-0.5-0.3v-2.3l-0.7-0.5l-2.3-0.8l-0.9-0.1l-0.6-0.6l-2.3-0.4l-0.8-1.3l-1-1.1l-0.9-0.3
		l-0.7-1.3v-0.7l0.8-0.7l-0.1-0.9l0.4-0.7l-0.3-0.5l-1.7-1.3l-0.4-0.8l0.1-0.6l0.5-0.4l-0.3-0.7l-1.4-0.2l0.2-1l-0.4-0.7l-0.2-1.2
		l0.6-0.5l-0.9-0.5l-1-0.8L264,79l-0.6-0.8l-1.8-0.9l-4.2-0.9l-2.1-0.9l-2.4-1.2l-1.5-0.6l-0.2-0.5l-1.5-0.4l0.3-0.2h1.1l1,0.2
		l0.3-0.3l-0.5-0.7l1-0.6h1.8l4,2.8l0.7,0.9l3.5,0.3l0.4,0.3l0.9-0.1l1.9-0.5l0.6-0.6l0.8,0.1l1.8,0.6l2,0.4l1.3,0.4l0.7-0.3
		l0.3-0.9l0.8-0.7l1.1-0.2l0.8-0.7l-0.4-1.6l0.3-0.9l0.4-1.9l1.3-0.9l0.9-0.9l1.1-0.1l1.9,0.2l0.5-0.1l1.8-0.8l1.5-0.2l0.9,0.6
		l2.1,1l2.1,0.6l1.8,0.4l1.3,1.4l-0.4,0.5l-1.6,1.5v0.4L292.5,73L292.5,73z"/>
	<path id="GB" class="st0" d="M137.1,207l-0.8,0.7l-0.7,0.1l-1.3-0.6v-0.3l1.3-0.6l1,0.3L137.1,207z M118.5,186.8l0.7,0.5l-1.7,1
		l-0.6-0.3l-0.5-0.6l-0.1-1l0.6-0.3h0.9L118.5,186.8L118.5,186.8z M106.6,181l-1.1,0.2h-1.5l0.1-0.8l-0.7-0.3l-0.9-1.4l-0.7-0.3
		l-1,0.8l0.3,0.5l-1.2,0.9l-1.5-0.2l-0.4-0.4l-1.1-0.2l-0.1-0.5l-1.4-1l0.5-0.7l1.5-0.5l-0.5-0.7l0.1-0.4l0.8,0.1l1.1-0.4l0.6-0.8
		l0.5-1.2l1-0.5l0.7,0.3l1-1l1.4-0.1l1.4-0.4l2,0.2l0.6,0.6l0.3,0.9l0.7,0.9l0.9,0.7v0.5l-1,0.6l1.8,0.2l0.6,1.3l-1.1,0.2l-0.1,0.7
		l0.6,0.1l-0.3,0.7l-1.3,0.3l-0.7,1.1l-0.5,0.3L106.6,181L106.6,181z M113.6,170.7l-1.3-0.3l-0.3-1l0.5-0.7l0.9,0.4l0.3,0.7
		L113.6,170.7L113.6,170.7z M107.8,167l0.4,1.7l-1.2,0.7l-0.4-1.2l-0.7,0.5l0.1-1l0.8-0.2L107.8,167L107.8,167z M108.6,167.9
		l-0.6-0.6l0.8-1.1l0.9-0.5l-0.1,0.8L108.6,167.9L108.6,167.9z M109.9,163.9l-2.3,0.4l0.3-1.5l-1-0.5l0.2-0.5l1.1-0.3l0.9,0.9
		l1.1,0.3L109.9,163.9L109.9,163.9z M101.6,158.1l-0.8-0.1l-0.2-0.7l0.1-1.2l0.8,0.1L101.6,158.1L101.6,158.1z M108.2,155.2
		l-0.1,1.4l1.5,0.4l1-0.1l0.2,0.3l-1.7,1.4l-0.4-0.1l-0.1-1.1l-0.7,0.2l-1-0.2l-0.6-1l-1.4-0.3l-0.5-0.6l0.7-0.3l0.2-0.6l1.4-0.3
		l0.8-0.4l0.5,0.5L108.2,155.2L108.2,155.2z M102.1,153.9l0.6,0.5l-0.6,0.7h-0.8l-1.1-0.5l0.1-0.3L102.1,153.9L102.1,153.9z
		 M108.1,148.8l-0.8,1.3l-0.5,0.4l-0.1,0.9l-1.5,0.8l-1.6,1.2l-0.7-0.5l1.3-0.9l-1.1-0.5l-0.1-1.3l0.4-0.4l0.7,0.4l1-0.2l-0.4-0.6
		l3.2-1.6L108.1,148.8L108.1,148.8z M125.9,147.7v0.6l-0.7,0.8l-1.1,0.6l-2.1,1.4l-1.3,0.7l-0.3,0.8l0.7,0.1l0.1,0.4l-1.1,0.8
		l-0.3,0.8l1.5-0.2l2.7-0.8l1.8,0.3l1.3-0.2l3.5,0.1l1-0.2l1.2,0.7l0.5,0.9l-1.4,1.7l-0.4,1.2l-1,1.8l-1,1l-1,1.3l-1.1,0.6l-1.6,0.3
		l2.3,1l-0.7,0.9l-1.2,0.1l-1.2,0.9l-1.1,0.4l1.8,0.6l1.2-0.5l1.4-0.1l2.7,1l1.8,1.7l1,0.8l0.3,0.6l1.1,3.5l0.8,1.9l0.8,0.9l2.3,0.8
		l0.6,0.3l1.7,1.7l1.7,1.2l-0.7,0.8l0.2,0.6l1.1,1.5l0.2,0.8l-0.7-0.1l-1.2-0.7l-0.2,0.4l2.6,1.7l0.8,1l0.5,1.4l-0.3,0.6l-1.5,1.4
		l1.4,0.7l0.6-0.1l1-1.1l0.9-0.1l2.1,0.2l1.9,0.5l1.7,1.1l0.4,0.6l0.2,1.6l-1.1,3l-1.4,1l-0.3,0.9l-1.1,0.5l-0.9-0.2l-1.2,0.6
		l0.9,0.3v0.9l-0.6,0.3l-1.3,0.1l0.6,1l1.3,0.2l2.2-0.1l1,0.1l-0.1,1.4l-0.2,0.2l-1.9,0.9l-0.5,0.9l-1.1-0.1l-0.6,0.4l-2.9,1
		l-2.5-0.4l-1.5,0.1l-2,0.3l-2.1-0.6l-0.9-0.1l-1.4,0.9l-2.1,0.3l-1-0.1l0.5,0.8l-0.5,0.2l-1.9-0.3l-0.5,0.3l-0.7-0.1l-1.4-0.7
		l-1.3-0.1l-2.5,0.6l-0.5,0.7l-0.7,1.8l-0.6,0.6l-0.7,0.1l-2.3-1.3l-0.8,0.3l-1.3,0.2l-1.4,0.4l-2,1.2l-0.5,0.8l-0.7,0.1l-0.6-0.5
		l-0.7-0.2l-1.2,0.4l-0.2-0.7l0.5-0.5l1.4-0.4l1.3-1l1.1-1.2l2.3-1.9l0.4-1.6l1.4-0.4l0.7-1.3l2.1-0.3h1.4l1.4,0.3l1.5-0.1l0.6-0.4
		l1-1.2l1.8-1.5l-2.4,0.5l-1.9,1.2l-1.6-0.2l-1.2-1l-1.1-0.4l-1.1,0.2l-0.4-0.5l-1.2-0.9h-1.3l-1.8,0.9l-1.3-0.6l-0.5-1.2l0.2-0.7
		l0.6-0.4l1.3-0.3l1.9-0.9l1.1-0.4l1.4-1l0.6-1.2l-0.2-1l0.3-0.7l-0.5-0.9l0.2-0.8l-1.5,0.2l-1.4,0.6l-0.4-0.6l1.4-0.9l0.5-0.7
		l1.3-0.9l1.8-0.7l1,0.1l1.9-0.4l1.4,0.7l-0.4-1.1l0.6-0.2l0.1-1.2l0.8-1.1l-0.6-0.3l0.1-1l0.8-0.4l0.4-1.3l-0.9-0.3l-1.1,0.3
		l-0.9-0.8l-1.4-1.8l-0.2-0.7l0.8-1.6l1.2-1l-1-0.4l-0.7,0.1l-1.4,0.6l-1,0.7h-1.1l-0.4-0.5l-0.6,0.1l-1.3,0.6l-1.8-0.7l-0.6,1.2
		l-1.3-1.3l-0.2-1h0.7l0.6-1.2l1.5-2l0.3-0.6l-0.3-0.7l-1-0.8l0.2-1.3l0.4-0.5l0.8-0.2l-1-0.6l-1.5,0.5l-0.9,0.5l0.2-1l-0.3-0.2
		l-0.8,0.7l0.1,1.7l-1.1,2.9l-0.6,0.5l-0.7-0.3l0.6-2l0.7-1.3l-0.3-0.2l0.2-1.8l0.5-1.5l0.9-1.9l1.1-1.8l-2.1,1.4l-0.5,0.3l-1.2-0.2
		l-0.4-0.4l-0.5-1.2l0.9-0.1l0.9-0.6l-0.8-0.4l0.8-0.5l0.9-1.1l0.2-1l-0.5-0.8l-0.8-0.3l-0.1-0.5l0.9-1l-0.4-0.8l0.8-1.6l1.5,0.1
		l1-0.2l-1.2-1l0.4-1.5l1.9-0.2l-0.4-0.9l0.2-1l0.8-0.5l0.7,0.1l0.5,0.5l1.3-0.5l0.3,0.4l1.4-0.3l1.9-0.2l2.3-0.3l1.1-0.2l1.2,0.1
		L125.9,147.7L125.9,147.7z M125.6,145.7l-0.7,0.1l-0.7-0.7l0.8-0.2L125.6,145.7L125.6,145.7z M126.2,143.9l1.4,0.3l-0.3,0.7
		l-0.7-0.4l-1,0.2l-1-0.5l0.2-1.1l0.9-0.1l0.6,0.3L126.2,143.9L126.2,143.9z M128.1,142.8l-0.5,0.2l-0.2-0.6l-0.9-0.3l0.2-0.4
		L128.1,142.8L128.1,142.8z M136.3,132.8l0.8,0.9l0.5,0.3l-0.7,1.9l-0.1,0.8l-0.5,0.9l-0.4-0.2l0.5-1.5l-0.3-0.6l-0.9,0.2l-0.2-0.5
		l0.8-0.7l-0.4-1l-0.6-0.1l0.8-0.8L136.3,132.8L136.3,132.8z M137.8,133l-0.7-0.7l0.7-0.3L137.8,133z"/>
	<path id="GE" class="st0" d="M435,280.8l-1.2,0.3l0.3,0.4l-1.8,0.1l-0.6,0.1l-1.6-0.2l-2.7,0.7l-2.2,0.2l-0.7-0.6l-1-0.1l-0.6-0.9
		l-1.8-1.3l-0.6-0.2l-0.3-0.6l-0.7-0.2l-0.7,0.2l-0.5,1l-1.7-0.4l-1.8-0.1l-0.6,0.5L412,279l1-1.5l0.2-0.9l-0.2-1.2l-0.9-1.4
		l-1.9-4.1l-0.6-0.6l-2-0.7l-0.6-0.8l-1.6-1.1l-2.1-0.5l-2.4-1.5l-1.5-0.9l0.5-1.1l0.4-0.1l2.4,0.5l0.8-0.2l3,1.3l1.8,0.4l1.6,0.9
		l3.1,0.3l1.4-0.3h0.9l1,0.6l1.2-0.1l1.6,0.6l0.8,0.8l1.8,0.7l1.4,0.4l1.6,0.8l0.1,1.2l1.3,0.2l2.2-1.1l1.1-0.4l0.9,0.1l1,1l0.4-1.1
		l2.3,0.9l1.1,0.9l1.4-0.1l1.1,0.5l-0.1,2.1l1.5,0.7l0.8,0.6l1.7,0.4l1.6,0.8l-0.6,1.1l-0.6,0.2v0.7l0.6,0.4l0.5,0.8l2.3,1.3
		l0.5,0.4l-0.1,1l-0.9,0.7l-2.1-1l-0.9,0.3l-1.6-0.5l-0.7-0.5l0.1-0.4l-2-0.7l-1-0.2L435,280.8L435,280.8z"/>
	<path id="GR" class="st0" d="M302.3,326.7h1.2l0.9-0.5l1.1,1.9l0.9-0.1l1.8-0.5l1.9,0.1l0.7,0.5l1.3,0.1l1.2,0.3l1.7-0.4l0.2,0.2
		l0.1,1.4l0.6,0.1l0.4-0.4l0.9-0.3h0.9l0.8-0.4l-0.2,1.8l-0.5,0.2l-2.2-0.1l-4.1,0.5l-2.7,0.2l-0.4-0.1l-0.4-1.1l-1.7-0.6l-3.2-0.5
		l-0.8-0.2l-1.6,0.1l-0.6-0.5l-0.2-0.9l0.1-1l0.7,0.2l0.2-0.7L302.3,326.7L302.3,326.7z M324.5,327.3l-0.8-1.1l0.6-0.3l0.6,1.2
		L324.5,327.3L324.5,327.3z M296.6,321.4l-0.7,0.1l-0.4-1.1l0.3-0.5l1.1,1.1L296.6,321.4L296.6,321.4z M328.5,323.5l-0.9-0.2
		l0.2-0.9l-0.4-0.8l1.2-1.4l1.6-0.7l0.5,0.5l-0.5,1.3l-0.5,0.7l0.2,0.5l-0.8,0.1L328.5,323.5L328.5,323.5z M318.8,318.3l-0.8,0.6
		l-0.5-0.3l1-0.6L318.8,318.3z M322,317.2v-0.4l0.7-0.6l1.3-0.5l0.6,0.3l-1.3,0.7l-0.8,0.1L322,317.2z M310.7,314.4l-0.5,0.7
		l-0.7-0.4l0.2-0.6l0.6-0.3L310.7,314.4z M312.5,315.2l-0.6,0.3l-0.7-1.1l1-1l0.5,0.4l0.1,0.9L312.5,315.2L312.5,315.2z
		 M315.3,310.7l0.3-0.8l0.8-0.1v0.6L315.3,310.7L315.3,310.7z M304.2,310.4l-0.5-0.2l0.2-0.6l0.6,0.3L304.2,310.4L304.2,310.4z
		 M320.3,308.5l1.4,0.4l-0.4,0.5l-0.8,0.5l-0.9-0.5l-0.6-0.6L320.3,308.5z M281.2,308.5l0.2,0.6l-0.6,0.5l-0.8-0.6l-0.6-0.9l0.5-0.6
		l0.5,0.6L281.2,308.5L281.2,308.5z M308.3,308.9l-0.7-0.1l-1.2-1.1l0.5-0.7l0.5,0.6l0.7,0.1L308.3,308.9z M279.1,303.9l0.2,0.9
		l0.5,0.2l0.7,0.8l-0.1,0.6l-1.1-0.4l-0.5,0.1l-0.6-1l-0.7,0.1l0.3-0.9l0.7,0.1L279.1,303.9L279.1,303.9z M315.2,305.2l-0.6,0.5
		l-0.9-0.9l0.7-0.7l-1.1-1.2l-0.1-0.5l1.1-0.3l0.7,0.5l0.3,0.6l0.2,1.3L315.2,305.2L315.2,305.2z M279.4,302.1l-0.7,0.1l-0.2-0.5
		l0.4-1.2l0.6,0.2l0.1,1.3L279.4,302.1L279.4,302.1z M297,299.4l0.5,0.9l2.8,1.3l1.4,0.2l0.9,1.3l-0.1,0.3l0.8,1.9l0.6,0.5l1.4,0.2
		l0.2,1l-0.5,0.4l-1-0.4l-1.1-0.8l-0.2-0.7l-1.1-1.5l-1.8-0.1l-0.8-0.4l-0.3-0.9l-0.8-0.5l-1-1l-0.8-0.6l-1.5-0.6l-0.3-0.4l1-0.7
		l1.1-0.3L297,299.4L297,299.4z M316.3,296.4l-0.1,0.5l1,0.8l0.4,0.5l-0.6,1.1l-2-0.4l-0.4-0.4l0.8-0.7l-0.5-0.3l-0.6,0.8l-1.1-0.4
		l-0.5-0.5l0.4-0.7l0.8,0.1l0.9-0.4V296l1.2-0.1L316.3,296.4z M274.9,295.6l-0.7,0.2l-0.6-0.4l-0.6-1l-1.1-1.1l0.4-0.6l0.8-0.2
		l0.7,0.6l-0.6,0.6l0.4,0.4l0.5,1.2L274.9,295.6z M309.5,291.2l-0.4,0.7l-0.1,0.7l-1.9-0.4L307,291l1.1-0.1l0.4,0.4l0.5-0.5
		L309.5,291.2L309.5,291.2z M310.7,287.7l-0.7,0.2l-0.9-0.7l0.7-0.3L310.7,287.7L310.7,287.7z M304.6,286.1l-0.8,0.3l-0.9-0.6
		l0.6-1.2l0.7,0.1l0.5,0.7V286.1z M312.7,285.3l-0.3-0.4l-1.1-0.6l-2.3-0.3l-1.2-0.5l-0.5,0.1l-1-0.5l-0.6,0.2l-1.3,0.9l-0.8-0.1
		l-0.8-0.5l-1.1,0.2l-0.9,1l-0.9,0.5l-0.9-0.2h-1.2l-0.1,0.6l1,1.1l-0.3,0.5l0.3,0.5l1.1,0.1l1.3,0.7l-0.4,0.4l-1.6-0.6l-0.6-0.1
		l-0.6,0.6l1.8,1.4l0.3,0.7l-0.3,0.5l-0.8-0.4l-1.3-1.6l-1.6-0.3l-0.2,0.3l0.6,1.2l1.5,0.9l-0.3,0.3l-1.5-0.5l-0.6-0.8l-0.2-1
		l-2.8-1.4l-0.7-1.4l-1.1,0.7l0.2,1l-0.3,1.9l0.2,0.7l1.8,1.9l0.7,1.4l1.3,1.1l1.3,1.6l0.4,0.9l-0.7,0.6l-0.7-0.3l0.2-1l-1.1-0.6
		l-1,0.6l0.8,1.2l0.3,0.6l-0.2,0.7l-0.8,0.4l-1.3,0.1l1.2,0.7l1.7,0.5l0.8,0.6l0.8,0.1l0.9,1.1l1.3,0.3l0.9,1.1l1,0.3l0.9,0.4
		l0.5,1.1l0.2,1.5l0.3,1.1l0.1,0.9l-0.6,0.3l-0.7-0.8l-2.1-1.8l-0.5-0.2l-0.5,0.4l-1.5,0.3l-1,0.7l0.8,0.7l0.1,0.6l0.4,0.8l1,0.2
		l1,1.2l-1.5,0.5l-0.6,0.4l-0.4-0.3l-0.1-0.6l-2.2-1.1l-0.3,0.3l0.4,1.2l0.7,0.8l1.1,2.2l0.7,1.9l-0.1,1.1l0.5,0.8l0.1,0.8l-0.9-0.6
		l-1.1-1.3l-0.4-0.8l-1.1,0.1l-0.7,1.7l0.1,1l-0.8-0.6l-0.1-1.5l-1.1-1.4l-0.5-0.2l-0.7-1l-0.8,0.3l-0.1,1.5l-0.2,0.5l-1.1-1
		l-1.2-1.8l-0.1-0.9l0.7-0.9l-0.2-0.6l-0.8-1.3l-1.1-0.8l-0.6-0.3l-0.4-0.8l-1-0.7v-0.5l1-0.9l0.5-1.3l1,0.3l0.7-0.1l1-1.2l0.8,0.1
		l2,1.1l2.1,0.6l1.1,0.5l0.6,0.6l0.8,0.2l-0.3-0.7l0.4-0.2h1.1l0.1-0.8l-1-0.3l-0.4,0.1l-1.2-0.7l-1.2-0.4l-1.1-0.8l-0.6,0.7h-0.6
		l-1.7-0.5l-1.1,0.4l-2.1,0.4l-0.6-0.7l-1.3,0.5l-0.5-0.4l-1-2.1l-0.9-1l-0.6-0.3l-0.1-1l0.8-0.1l1.2,0.5l0.5-0.3l-0.3-0.8l-1.3-0.1
		l-0.9,0.3l-1.4-1.1l-0.8-0.9l-1.1-0.6l-0.9-1.7l-1.3-1.3l1.4,0.5l0.4-0.4l0.2-0.8l0.5-0.4l-0.5-1.1l0.9-0.7l1-0.2l0.3-0.3l0.2-1
		l0.6-1.6l0.9-0.4l0.4-1.3l-0.6-0.9v-0.6l2.3-0.2l0.5-0.3l1.2,0.3l1.2-0.7l0.9-1.3l0.4-0.2l1.5-0.2l1.7,0.3l1.5-0.5l0.1-1.1l1-0.2
		l1.5,0.1l0.5-0.5l1.2-0.1l1.3,0.1l1.5-0.6l1-0.1l0.1-0.5l2.1,0.1l0.8-0.3l0.6,0.9l1.2,0.7l0.5-0.3l1.9,0.6l0.9,0.6l1.7-0.5l1.6-0.2
		l0.9,0.2l1.3-0.6l0.1-0.4l-0.5-1.4l-0.4-0.5l0.8-0.6l0.8,0.3l0.6,0.2l1.2,0.8l0.5,1.6l-1.7,1.3l0.3,2.2l-1.3,1.6L312.7,285.3
		L312.7,285.3z"/>
	<path id="HR" class="st0" d="M250.4,267.3l1.2,0.2l-0.6,0.5L250.4,267.3L250.4,267.3z M257,268l0.8-0.1l0.3,0.5l3.2,1.9l0.9,0.4
		l0.6,1l-2.4-1.6l-2.2-1.3l-1.6-0.4l-2.2-1l-0.3-0.5L257,268L257,268z M253.8,266.3l-0.4,0.1l-2.9-0.1l-0.9-0.2l-0.3-0.7l0.9,0.1
		l0.3,0.3L253.8,266.3z M251.1,265.1l-1,0.1l-1.3-0.4l0.2-0.6l2.4,0.3L251.1,265.1z M240.3,256.7l-0.2,0.2l-1.7-1.4l-0.2-1l1.4,1.4
		L240.3,256.7z M237.8,253.3l-1-0.1l0.4-0.6L237.8,253.3L237.8,253.3z M235.6,254.1l-0.5-0.1l-0.9-2.1l0.2-0.6l-0.4-1l0.5-0.2
		l0.3,1.1l0.5,0.5l-0.1,0.8L235.6,254.1L235.6,254.1z M237.5,251.6l-0.8,0.2l-0.5-0.5l-0.7-0.1l-0.5-0.5l0.5-0.4l0.3-0.6
		L237.5,251.6L237.5,251.6z M262.8,244.1l-0.4,0.8l0.8,1.4l0.1,0.8l0.7,0.2l-0.2,1l0.6,0.5l1.5,0.5l0.5,0.8l-1.2,0.1l-0.9,0.2
		l0.4,1.3l-0.5,0.8l-1.1-0.1l-0.7-1.1l-0.6-0.4l-1.1-0.1l-1.3-0.4l-0.9,0.1l-0.9-0.2l-1.1,0.5l-0.8-0.7l-0.9,0.3l-1.4-0.4l-1.3-0.1
		l-1.4-0.8l-0.8,0.6l-1.6-0.2l-1.4,1.6l-0.9-0.5l-0.9-0.9l-0.9-0.2l-0.6,0.3l-0.2,2.6l0.1,0.7l1,0.7l1.7,1.6l0.7,2l1.2,1.2l1.4,1.2
		l0.9,1l2.6,2.1l1.2,0.6l0.2,1.1l0.8,0.8l1.5,1.3l-0.2,0.8l-1.8-1.4l-1.3-0.8l-1.6-1.4l-1.9-0.6l-1.4-0.6l-1.7,0.3l-0.9-0.1
		l-0.4-1.1l-3-2l-2.2-2l-0.4-0.7l1.6-0.6l-0.7-0.4l-2-1.7l-0.6-0.8l-0.1-2.1l-0.4-0.9l-1.5-1.1l-0.6-0.6l-1.1-0.4l-0.7,0.5l-0.2,1
		l-1.5,2.6h-0.7l-1.6-2.1l-0.3-1l-0.7-2l0.4-0.3l0.3,0.3l1.7,0.4l0.7-0.7l0.6,0.3l1.8-0.1l0.3-0.2l0.6-1.1l1.3,1.1l0.8,0.4l0.7-0.3
		l1,0.4l0.8,0.1l0.6-0.2l-0.4-1.2l0.4-0.4l-0.5-0.6l1.1-0.5l1.1-0.3l0.2-0.6l-0.1-1.1l-0.5-0.5l0.2-0.7l2.2-0.9l0.4-0.5h1v-0.9
		l0.5-0.4l1.3,0.3l1.5,0.6l0.9,0.6l0.5,0.7l1.4,0.9l1.1,1.1l0.7,0.4l1.3,0.3l0.7,0.7l1.7,0.5l2.5,0.1l1.3-0.5l0.6-0.7L262.8,244.1
		L262.8,244.1z"/>
	<path id="HU" class="st0" d="M280.9,224.7h0.8l0.7,1.2l1.1,0.4l0.5,0.6l1.2,0.2l0.5,0.4l0.4,0.9l-1.1,1.2l-2.3,0.6l-1,1.2l-0.6,0.5
		l0.1,0.9l-0.7,0.7l-0.4,1.3l-0.7,0.8v0.6l-0.8,1.4l0.1,0.7l-1.1,0.8l-0.8,2.4l-0.7,0.5l-1.3-0.2l-1.3,1l-0.7-0.3l-1.6,0.5l-0.5-0.3
		l-1.4-0.2l-0.6,0.1l-1.5-0.2l-0.5,0.2l-0.8,0.8l-1.1,0.5l-0.8-0.3l-1.1,0.7l-1.5,0.2l-0.6,0.7l-1.3,0.5l-2.5-0.1l-1.7-0.5l-0.7-0.7
		l-1.3-0.3l-0.7-0.4l-1.1-1.1l-1.4-0.9l-0.5-0.7l-0.9-0.6l-1.5-0.6l-1-1.1l-0.7-1.7l-1.2-0.1l0.9-0.9l1.3-0.3l0.2-0.9l-0.6-0.8
		l0.3-0.4l-0.2-0.8l1.1-0.6l0.3-0.7l-0.3-0.6l-1.3-0.4l0.7-0.7l1.3,0.5l2-0.2l-0.4-1l0.3-1l0.3-0.4l1.1,0.2l2.1,1.4l0.8,0.4l2.4,0.1
		l3.6-0.2l0.3-0.5l-0.3-0.7l0.2-0.5l0.7-0.4l2.2-0.2l1.2-0.3l0.5-0.8l0.4-0.1l1.8,0.7l2.6-1.3l0.8-1.8l0.9-0.2l1.4,0.1l1.3,0.3
		l2.3-0.4l0.7,0.5l1.1,1.1l0.3,0.1L280.9,224.7L280.9,224.7z"/>
	<path id="IE" class="st0" d="M106.6,181l0.4,0.6l-1.1,0.2l0.8,2.7l0.3,0.5v2.1l0.5,1.6l0.1,1.3l-0.7,0.9l-0.5,1.1l-0.1,0.9
		l-0.8,1.1l-0.8,0.5l0.8,0.8l-1.4,0.4l-1.3-0.2l-0.7,0.4l-2,0.1l-1.9,0.4l-0.9,0.9l-1.3,0.4l-0.5,0.5l-1.2,0.4l-0.9-0.6l-0.5,0.1
		l0.1,1.1l-1.5,0.7l-0.9,0.2l-0.5,0.4l-3,0.7l-1-0.3l-1.7,0.4l-0.6-0.1l0.8-0.9l0.8-0.7l-1.9,0.3l-0.7,0.3l-0.3-0.3l1.6-1l-1.7,0.1
		l-1.5-0.2l-0.2-0.5l1.5-1.2l1.2-0.5l-0.1-0.5l-2.6,0.1l0.3-0.6l0.9-0.5l0.9-0.1l0.8,0.3l0.6-0.4l-0.3-0.9l2-1.2l1.5-0.2l1.7-0.4
		l1.7-0.4l-1.2-0.6l-1.2,0.9l-1.3,0.2l-1-0.3h-1.1l1.4-1l0.8-0.9l-0.4-0.4l1-1.2l1.8-0.5l-0.8-0.7l-2,0.1l-0.7-0.7l-1.3,0.1l0.2-0.6
		l-1.8-0.1l0.3-0.5l-0.3-0.6l1.4-0.3l-0.1-1l1-0.4l1-0.2l0.1-0.6l-1-0.1l-1,0.2l0.4-1.1l-0.4-0.5l-0.2-0.9l-0.5-0.5l1.4-0.1l0.6-0.3
		l2.4,0.1l1,0.7l0.9-0.6l2.4,0.5l0.3-1.3l1.9-0.8l0.6-1l-1.9,0.2l-1.8-0.5l0.4-0.4l1.1-0.4l1-0.8l-0.2-0.6l0.9-1.4l1.6-0.4h1.2
		l0.8-0.5l0.6,1l-0.5,0.5l0.3,0.5l0.6-0.4l-0.3-1.1l0.5-0.7l1-0.2l0.3-0.4l1.6,0.9l-1.3,0.8l-0.3,0.4l-1,0.5l-0.5,1.2l-0.6,0.8
		l-1.1,0.4l-0.8-0.1l-0.1,0.4l0.5,0.7l-1.5,0.5l-0.5,0.7l1.4,1l0.1,0.5l1.1,0.2l0.4,0.4l1.5,0.2l1.2-0.9l-0.3-0.5l1-0.8l0.7,0.3
		l0.9,1.4l0.7,0.3l-0.1,0.8h1.5L106.6,181L106.6,181z"/>
	<path id="IS" class="st0" d="M61.2,92.1l0.6,0.1l1.4-0.4l1.1-0.6l0.3,0.6L63.4,93l1.1,0.5l1,0.2l-0.1,0.9l-0.9,0.8l0.4,0.2l1.8-0.3
		l0.5,1.2l0.8-0.1l1.2,0.2L70,97l0.6-0.2l0.3,0.5L70.5,98l-0.8,0.3l1.1,1.5v0.6l-0.5,0.4h-0.7l-0.5,1.1l-0.6,0.6l-1,0.5l-1.3-0.3
		l-0.6,0.8l0.1,0.7l-0.7,0.7l-2.7,1.1h-1.3l-1.3,0.3l-3.2,1l-2.4,1.4l-1,0.4l-1.6,0.2l-0.9,0.3l-3,0.4l-1,0.3l-0.6,0.6l-0.3,0.7
		l-2,0.6l-1.9,0.4l-3.3-0.3l-2.8-0.7l-2.3-0.2l-1.9-1.3l-1.5-0.5l-1.8-0.9l-1.2,0.6l-6.3,0.2l-0.4-0.3l-0.1-1.1l0.6-0.4l0.7,0.6
		l2.6-0.6l1.4-1l1.3-1.4l-1.8,0.6l-0.1-1l-0.5-0.6l-0.9-0.4l-0.2-0.4l0.6-0.5l-1.2-0.6l-1.3,0.1L18,102l-1.9,0.5l-1,0.1l-0.5-0.5
		v-0.6l0.8-0.2l0.9,0.1l2.1-0.3l0.7-0.3l0.4,0.3l1.8-0.6l0.5,0.1l2-0.1l2.2-0.1l0.6-0.4l0.2-0.6l-1.4,0.5l-1.9-0.3l-0.3-0.5l1.8-0.8
		l1.4-0.4L26,97.3l-1.6,0.1L24,97l-1.3-0.2l-0.9,0.2l-0.5-0.3L20.1,97l-2.7,0.5l-1.7,0.5l-1.6-0.6L13,97.2l0.7-0.7l1-0.1l0.9,0.4
		l0.1-1.6l0.6,0.2l1.4,0.6l-0.4-1.4l1.1,0.1l-1.1-0.8l0.3-0.5l0.8-0.2l0.4-0.5H20l1.2,0.6l0.1,0.7h1.1l0.6-0.4l0.5,0.3l0.3,0.6h0.6
		l0.2-1.1l-1.8-0.6L22.5,92l1.9-0.1l-0.9-0.6L22,91.5l-0.7-0.2l1.3-0.6h1.7l0.7,0.1l1.2,0.9l1,0.3l1.6,1.2l1.1,0.5v0.6l0.4,0.4
		l-1.2,1.7l0.5,0.4l-0.4,0.8l1,0.3l0.5,0.9l0.5-0.9l0.8-1l1.2-0.7l0.5,0.1l0.5,0.5l0.5,0.1l0.7-1l0.4-2.2l0.9-0.5l0.9,0.4l0.7,0.8
		l1.3,1.1l0.9-0.3l0.1-1.2l0.5-0.7l1-0.2l1.1-0.4l1.2-0.1l0.9,0.7l0.6,0.7l0.9,0.6l0.4,0.9l0.5-0.2l-0.1-0.9l-0.7-1.3l0.2-0.5
		l2.1,0.1l1.5,1.2l0.7-0.2l1.8-1.4l1.2,0.4l0.9,0.1l1.4-0.4l0.4-0.6l-0.5-1.2l0.3-0.2l1.3-0.3l1.4,0.1l1.3,1.1l-0.1,0.5L61.2,92.1
		L61.2,92.1z"/>
	<path id="IT" class="st0" d="M246.1,305.2l-0.6,1.3l-1.4,2.2l-0.8,2.6l0.2,1l0.8,0.7l-0.4,0.3l0.8,0.9l0.1,0.7l-0.9,1l-0.2,0.9
		l0.1,0.8l-1.5-0.3l-0.7,0.2l-1.9-0.7l-1-1.4l-1.5-1h-1.5l-0.7-0.3l-1.5-1l-1.5-0.7l-1.3-1.1l-0.9-0.2l-0.8-0.5h-1.5l-1.2-0.8
		l-0.7-1.2l0.7-1.9l0.7-0.4l0.5-0.6l1.2,1.2l0.9-0.4l0.7-0.8l1.2,0.1l0.3,0.5l0.7,0.2l1.3,0.8l0.7,0.2l1.7-0.5l1.5,0.2l1.4-0.3
		l0.9-0.3l0.6-0.5l0.7-0.2l1.8,0.2l1-0.6l0.4,0.1l1-0.6L246.1,305.2L246.1,305.2z M206.1,284.1l0.4,0.5l0.9,2.6l-0.3,0.8l-0.7,1
		l0.4,1.4l-0.3,5.9l-0.3,1.5l-0.5,0.2l-1.5-0.6l-0.8,0.2l-0.6-0.3l-0.2,1.5l-0.9,1.1l-1.5-0.1l-0.4-0.3l-1.2-1.9l-0.2-2.2l0.3-0.7
		v-1.3l0.6-0.1v-0.9l-0.9-0.6v-1l0.4-0.7l-0.1-1.3l-0.4-0.5l-0.4-1.2l-1.1-1.2l0.1-1.7l1.7,0.3l0.7-0.2l1.6-0.8l1.1-1.3l0.7-0.3
		l0.8-0.9l0.4,0.5l1.1,0.4l0.6,0.8l0.5,0.3l-0.4,0.7L206.1,284.1L206.1,284.1z M210.3,268.3l0.2,0.7l-1.3,0.3l-0.6-0.6l1.5-0.1
		L210.3,268.3L210.3,268.3z M229.7,239.5l-0.1,0.5l-1.7,1.2l0.4,0.7l1.2,0.4l-0.8,1.1l0.2,0.5l0.7,0.1l-0.2,1l1,0.6l0.8,0.7l0.1,0.7
		l-0.8,0.1l0.4-0.3l-1-1.1l-1,0.5l-1.6-0.5l-1.1,1l-0.8,0.2l-0.9,0.6l-1.6,0.6l-0.9-0.2l-0.5,0.4l-0.2,1.6l0.4,0.3l0.8,1.3l0.9,0.6
		l-0.4,1l-0.5,0.4l-0.7-0.3l-0.2,0.9l0.5,2.3l0.7,1.6l0.6,0.7l1.4,1.1l1.4,0.6l2.6,1.9l1.4,0.6l0.4,0.4l0.9,1.4l0.8,1.6l0.9,2.6
		l0.7,1.3l1.2,1.5l2.4,2.1l2.2,1.5l2,1l1.5,0.2l3.6-0.2l1.3,0.4l0.2,0.6l-0.2,0.5l-1.5,1.1v0.9l0.8,0.6l3.6,1.6l3.7,1.3l1.1,0.7
		l1.4,1.1l3.3,1.5l0.6,0.7l2,1.5l0.9,1.2l0.3,0.9l-0.8,2.2l-0.8-0.3l-1-0.7l-1.6-2.8l-2.6-0.3l-1.5-0.7l-0.4-0.7l-1.2-0.2l-0.7,0.5
		l-0.7,1l-0.8,1.5l-0.8,2.2v0.9l0.6,0.9l1.5,0.5l1.2,0.8l0.8,0.8l0.2,1.9l0.5,1.1l-0.5,0.7l-1-0.2l-1.3,0.4l-0.9,0.7l-0.4,0.7
		l0.3,1.7l-0.2,0.7l-1.7,1.3l-0.8,1.3l-0.5,1.2h-2.2l-0.6-0.8l-0.1-1.1l0.3-0.7l0.8-0.4l0.5-1.4l-0.3-1l0.6-0.8l1.4-0.4v-1.5
		l-0.7-0.7l-0.7-2.6l-1.2-2.2l-0.7-1.9l-0.6-0.9l-0.7-0.5l-1.9-0.2l-2.3-1.3l-0.2-0.6l0.3-0.6l-0.6-1.4l-1-0.9l-1.3,0.3l-0.6-0.1
		l-0.1-0.8l-1-0.7l-1.4-0.1l-0.4-0.4l-1.3-2l-0.9-0.9l-1.2,0.1l-2-0.5l-1,0.4l-1.6-1.3l-1.4-0.5l-2.9-2.7l-0.9-1l-1.8-1.1l-1.2-1.6
		l-0.9-0.6l-2-0.7l-0.2-0.7l-1.6-1.6l-0.9-0.5l-0.7-1.1l-1.3-0.3l0.1-1.4l-0.6-1.8l-0.9-1.1l-0.6-2.7l-0.4-0.8l-0.9-0.6l-2-0.6
		l-2.9-1.7l-0.6-0.1l-1.7-0.7l-1.1-0.1l-1.3,0.6l-1.6,1.6l-1.3,1.7l-0.5,0.3l-1.7,0.6l-1.5,0.3l-0.1-0.8l1.1-1.3l-0.2-1l-1.7,0.3
		l-2.6-1.2l-0.5-0.5l-0.1-0.7l-0.4-0.7l0.7-1.3l0.4-0.4l-0.3-0.9l-1.6-0.7l-0.8-1.6l0.4-0.2l1,0.1l0.9-0.7l0.6-0.2l0.4-1.3l-0.9-0.8
		l-0.9-1.3l-0.5-0.3l-0.1-0.8l1.3-0.9l0.7,0.4l1.2-0.3l1.3-0.5l1.6,0.4l1.2-0.7l0.8-1.1l-0.3-0.8l1.7-1.5l0.5,0.3l0.1,1.3l1.2,1
		l1.1,0.3l-0.2,0.6l0.7,0.6l0.5,0.7l0.6-0.4l-0.4-0.9l0.1-0.5l1.1-1.3l0.3-0.6v-1.5l1-0.1l0.4,1.1l1,0.4l1.5-0.6l0.4,0.1l0.7,1
		l0.6-0.2l-0.8-1.8l0.3-0.9l0.7-0.2l0.5,0.5l1,0.1l-0.3-0.9l0.3-1.6l1.5,0.2l0.5,0.4l1.1,0.2l0.6-0.2l0.6-1.1l0.7-0.3l1.7-0.2
		l1.6,0.1l2.4-0.8v1.2l1.6,1.8l0.6,0.3l4.4,0.8l2,0.2L229.7,239.5L229.7,239.5z"/>
	<path id="LI" class="st0" d="M203.6,235.3l-0.6-0.1l-0.1-0.9l0.3-0.8l0.6,1.3L203.6,235.3L203.6,235.3z"/>
	<path id="LT" class="st0" d="M299.8,169v0.9l-0.4,1.6l2,0.5l-0.7,0.5l-0.2,0.6l-1.8-0.1l-0.5,1l-0.4,0.3l-1.3,0.3l-0.6,1.5l0.2,1.2
		l-0.5,0.8l-0.3,1l1,0.3l0.5,0.6v0.5l-1,0.1l-0.9-1.2l-0.5,0.4l-1.1,0.3l-0.7,0.6l-1-0.1l-0.4,1.3l-0.9-0.1l-1.7,0.7l-0.8-0.5
		l-1.9,0.2l-0.8,0.2l-1.5-0.2l-0.4-1.5l-0.6-0.5l-2.3-1.1l-1.2-0.4l-0.3,0.3l-0.7-1v-1.1l0.5-1.6l-0.7-0.7l-0.7-0.3l-0.5-0.7
		l-2.9-0.1l-1.2-0.3l-2-0.7l-1-0.6l-0.9,0.1l-0.3-0.6l0.1-0.8l-0.6-1.2l-0.8-1.5l-0.4-1.9l1.4-0.9l1.8-1l2.4-0.7l3,0.3l2.2-0.1
		l0.5,0.5l0.8-0.4l2.5,0.3l1.2,0.1l1.9,0.5l2.3-0.2l0.9-0.7l1.2-0.1l1.2,1.5l3.1,0.5l0.5,0.2l2.8,1.6l1.3,1.1l0.8,0.4L299.8,169
		L299.8,169z"/>
	<path id="LU" class="st0" d="M181.2,211.4l0.2,1.1l0.8,0.8l1.4,0.6v0.7l-0.5,0.5l-0.3,1.5l-0.7-0.4l-1,0.3h-0.7l-1.1-0.6l0.6-0.9
		l-1-1.2l0.1-0.9l0.7-1.3l0.7-0.7L181.2,211.4z"/>
	<path id="LV" class="st0" d="M301.7,155l1,0.2l0.3,0.6l1.6,0.9l0.4,1.1l-0.4,0.8l-0.2,1.6l0.9-0.2l0.5,0.3l0.2,0.6l0.9,1.1l0.7,0.4
		l1,2.1l-0.2,0.9l-0.7,0.1l-0.7,0.4l-1.3,1.2l-0.2,0.9l-1.6-0.1l-1.5-0.2l-0.6,0.2l-0.6,0.8l-1.3,0.3l-1.2-0.3l-0.8-0.4l-1.3-1.1
		l-2.8-1.6l-0.5-0.2l-3.1-0.5l-1.2-1.5l-1.2,0.1l-0.9,0.7l-2.3,0.2l-1.9-0.5l-1.2-0.1l-2.5-0.3l-0.8,0.4l-0.5-0.5l-2.2,0.1l-3-0.3
		l-2.4,0.7l-1.8,1l-1.4,0.9l-0.4-1.4l-0.3-2.8l0.1-1.4l1-0.8l0.4-0.6l0.3-2.3l1.3-1.8l1.2-0.2l1.6-0.5l1.8-0.5l0.7,1l2.5,1.5
		l0.6,0.5l1.2,1.7l2.2,0.9l1.6-0.3l1.8-1.2l0.5-0.6v-0.6l-0.6-2.4l-0.6-1l0.1-0.7l4.3-1.4l0.8,0.5l0.6-0.4l2.9,1.3l1.2,0.3l0.3,0.4
		l1.8,1.4l1.4,0.6l2-0.6l1.7,0.5L301.7,155L301.7,155z"/>
	<path id="MD" class="st0" d="M322,247.9l-1-1.2l0.5-0.4l-0.7-2.6l-0.1-1.3l0.5-2.4l-0.3-1.5l-0.7-1.2l-0.7-1.5l-1.5-1.1l-0.7-0.9
		l-1.1-0.9l-1.3-1.6l-0.8-0.7l-1.5-2.5l-1.3-1.5l-1.3-0.8H309l0.1-0.3l1.2-0.7l0.4,0.1l2,0.1l0.6-0.5l0.4,0.2l0.8-0.5l1.8,0.5
		l1.8,1.2l1.3,0.2l0.3,0.6l2.9,0.3l0.7,1l0.7,0.5l0.7-0.4l0.7,0.7l0.3,1.2l-0.3,1.6l0.3,0.6l1.2,0.6l1.5,1v1.2l0.5,1l1,0.7l1.1,0.4
		l0.5,0.8l0.1,1.5l1.5,0.9l-0.3,0.4l-1.5,0.2l-0.6-0.7l-0.8,0.3l-1.1-0.4l-1-0.1l-1.1-0.5l-1.3,0.8l0.3,1.1l0.5,0.9l-0.2,1l-1.2,0.9
		v0.7l-1.3,1.5l0.3,0.7l-0.2,0.5l-1,0.1L322,247.9L322,247.9z"/>
	<path id="MK" class="st0" d="M287.5,272.7l1.7,1.6l1.7,0.9l0.9,1.7l0.5,0.5l-0.3,0.9v2.1l-1,0.2l-0.1,1.1l-1.5,0.5l-1.7-0.3
		l-1.5,0.2l-0.4,0.2l-0.9,1.3l-1.2,0.7l-1.2-0.3l-0.5,0.3l-2.3,0.2l-0.7-0.6l-0.8,0.1l-0.7-1.2l-0.6-0.6l-0.6-1.1l-0.1-1l-0.4-1
		l0.4-0.4l-0.2-1.1l0.3-1.3l0.9,0.2l0.3-0.4l0.1-1.3l1.7-0.8l0.5-0.1l0.8,0.6l0.8-1l1.1-0.2l1.1-0.2l1-0.5l1,0.2l1.2-0.4
		L287.5,272.7L287.5,272.7z"/>
	<path id="ME" class="st0" d="M266.4,263l0.2,0.6l1.3,0.9l1,1l1.5,0.8l1.1,0.3l2.7,1.5l0.1,0.5l-0.8,0.2l-0.1,0.4l-1,0.2l0.5,0.8
		l-0.1,0.7l-1.7,0.6l-0.4-1.1l-0.6-0.2l-1.6,2.7l-0.4,0.2l-1.3-0.1l0.8,1l0.9,0.4l0.2,0.3v1.6l-1.1-0.6l-0.5-0.9l-1.6-1.5l-1.8-1
		l0.1-0.5l-0.8,0.1l-0.6-1l0.6-0.5l0.1-0.4l-0.6-0.8l-0.3-1.5l0.3-0.4l0.9-0.1l-0.1-0.8l0.3-0.9l1-0.9l1.2-0.1l-0.7-1.1L266.4,263
		L266.4,263z"/>
	<path id="NO" class="st0" d="M172.3,134.5l0.1,0.9l-0.5-0.1l-0.4-0.6l-0.1-1l0.4-0.3L172.3,134.5z M171.4,128.8h-0.9l0.2-0.7
		l0.5-0.2L171.4,128.8z M187.9,112.6l-1.2-0.1l-0.5-0.4l1.4-0.4l0.4,0.3L187.9,112.6z M189.8,110.2l-0.2-0.5l1.4-0.3l0.5,0.5
		L189.8,110.2L189.8,110.2z M204.1,101.7l-2.1,0.2l-0.2-0.6l1.1-0.4h0.6L204.1,101.7z M207.5,96.4l-1,0.2l0.1-0.6l0.9-0.2
		L207.5,96.4L207.5,96.4z M209.6,93.5l-0.1-0.6l0.5-0.6l0.5,0.2l-0.2,0.8L209.6,93.5L209.6,93.5z M211.2,80.8l-0.8,0.4l0.6-1.3
		l0.6-0.4l0.2,0.8L211.2,80.8z M215.5,78.1l1.2,0.1l-0.3,0.4l-0.7,0.2l-0.6,0.4l-1,0.1l-1,0.5l-0.8,0.2l-0.2-0.6l0.5-0.5h0.7
		l0.5-0.6L215.5,78.1L215.5,78.1z M221.9,73.5l1.1,1.1l-0.2,0.8l-0.6,0.4l-1.7,0.1l-0.8-0.5l-1.1,0.3l-0.8-0.6l0.8-0.7l1.3,0.2
		l0.3-0.9l0.9,0.2l0.2-0.8L221.9,73.5L221.9,73.5z M225.1,76.1l0.7-0.6l0.8-0.2l0.3-1.1l0.9-0.3l0.8,0.5l0.5,0.6l-0.1,0.6l-1.6,0.6
		l-1.3,1l-0.8-0.1l-0.4,0.4l-1.2,0.3l-0.9-0.5l-0.5,0.5l-0.7,0.2l-0.6-0.2l-1.5,0.8l-1.4,0.2l-0.5-0.6l1.6-1l2.6-0.3l1.5-1.2
		l0.2-1.3l0.3-0.5l-0.7-0.3l0.1-0.9l1.2-0.9l0.7-0.7l0.8-0.2l0.5,0.6l-0.6,0.7l-0.8,0.6l0.6,0.8l0.3,1.2L225.1,76.1L225.1,76.1z
		 M233,69.1l0.7,0.4l0.8-0.2l1.2,0.4l0.5,0.8l-0.6,0.5l0.2,0.9l-1.9,0.3l-0.5-0.3l-0.8,0.5l-0.7,0.7l-1.1-0.3l0.1-0.8l-0.2-1.2
		l0.4-0.3l1.5,0.2l-0.2-1L233,69.1L233,69.1z M296.2,67.8l-0.9,0.2l0.1-0.9L296.2,67.8L296.2,67.8z M249.1,65.8l-0.7,0.2l-0.9-0.2
		l-0.4-0.5l1.1-0.5l0.9,0.2L249.1,65.8L249.1,65.8z M241.4,66l0.5,0.4l0.8-0.3l0.6,0.5l-0.7,0.4l-0.4,0.6l-1,0.1l-1.5,1.2l-0.1,0.4
		l-2.6,0.3l-0.8-0.2l0.9-1.4h0.9l0.9-0.4l-0.2-0.4l1.3-1l0.3-0.9l0.7-0.5C241,64.8,241.4,66,241.4,66z M243.9,65l0.7,0.1l0.7,0.8
		h-1.2l-1-0.9C243,65,243.9,65,243.9,65z M262.9,62.8l0.3,0.6l-1.7,1.1l-0.8,0.1l-1.1-0.6l0.1-0.4l1-0.5l0.5,0.1l1.4-0.7L262.9,62.8
		L262.9,62.8z M264.9,62.6l-0.9,0.3l-0.9-0.5l-0.1-0.8l0.4-0.2l1.6,0.6C265,62.1,264.9,62.6,264.9,62.6z M261.6,61l-0.2,0.4
		l-1.4,1.1l-1.1,0.4l-0.9-0.2l-0.4,0.3h-1l-1-0.3l-1-0.6l1.8-0.1l0.3-0.3h0.8l1.4-0.2l0.6,0.2l1.1-0.7H261.6L261.6,61z M292.5,73
		l-0.9-0.7v-0.4l1.6-1.5l0.4-0.5l-1.3-1.4l-1.8-0.4l-2.1-0.6l-2.1-1l-0.9-0.6l-1.5,0.2l-1.8,0.8l-0.5,0.1l-1.9-0.2l-1.1,0.1
		l-0.9,0.9l-1.3,0.9l-0.4,1.9l-0.3,0.9l0.4,1.6l-0.8,0.7l-1.1,0.2l-0.8,0.7l-0.3,0.9l-0.7,0.3l-1.3-0.4l-2-0.4l-1.8-0.6l-0.8-0.1
		l-0.6,0.6l-1.9,0.5l-0.9,0.1l-0.4-0.3l-3.5-0.3l-0.7-0.9l-4-2.8h-1.8l-1,0.6l0.5,0.7l-0.3,0.3l-1-0.2h-1.1l-0.3,0.2L247,73l1.3,0.8
		l0.1,1l-0.7,1l-0.8,0.5l1.5,0.5l-1.3,0.8l-0.5-0.1l-4.4-0.9l-1.5-0.1l-2.1-0.5l-1.1,0.3v0.4l0.4,1.8l-1.1,1.6l-3.2-0.9l-0.8,0.5
		l-1.9,1l-0.8,1.8l-0.6,0.6l-1.4,0.3l-0.3,0.6l1.4,1.2l0.5,0.7l-0.1,0.7l-0.8,0.5l-1.7,1.5l-1.5,1.5l-0.7,0.5l0.5,1.3l-1.7,0.8
		l-1.2,0.3l-1.9,0.2l0.7,2l-0.3,1.4l-0.1,2.4l-1.7,2.6l-2.2,2.6l2.4,0.8l0.6,1.5l0.1,0.6l-0.9,1.1l-3.6-0.5l-1.7,0.2l-1.7,0.8
		l-1.8,1.9l-0.6,0.5l0.3,0.8l-1,1.4l1.4,2.1l-0.6,0.6l0.3,1.4l-0.1,0.9l1.3,2.2v0.8l-0.5,3.3l1.9,1.1l0.6,0.2l1.7,1.4l-0.2,1
		l-0.7,1.3h-1.2l-0.9,0.3l0.2,0.8l1.6,2.5l0.3,0.7l-0.3,1.1l-0.1,1.4l-1,1l-0.7,0.4l-1.3,0.4l-0.5,1.2l-0.8,0.8l0.8,2.2l-0.3,2
		l-0.4,0.7l-1,0.1l-0.5-0.9l-0.2-0.5l-3.1-0.6l-1.2-1.5l-0.2-1.6l-1.3,0.6l0.3,0.6v1.2l-1.3,2l-0.6-0.1l-0.7,0.4l-0.7,0.1l-0.3-0.5
		l-0.6,0.1l-0.4,0.5l-1.7,0.7l0.5,0.4l-0.9,0.5l-0.3,0.5l-1.4,0.8l-2.2,2l-1.2,0.6l-0.8,0.6h-0.7l-0.9,0.5l-2.3,0.5l-1.6-0.2
		l-1.1,0.2l-0.6-0.4v-0.6l-0.6-0.1l-0.4,0.6l-0.8-0.2l0.4-1.2l-1.6-0.1l-1.9-0.8l-0.5-0.4l-1.6-0.7l-0.7-0.7l-0.4-0.8l0.2-1.8
		l0.3-0.3l1.4,0.4l1.4,0.7l-0.1-0.6l-1.2-0.8l0.4-0.9l-0.1-0.8l1.3-1.1l-0.2-0.4l-1.7,1l-1.6,0.5l-0.6,0.6l-0.6,0.3h-1.1l-0.3-0.5
		l0.3-1.7l0.6-1.4l0.9-0.5l1.7,0.4l0.5-0.5l0.7-0.1l1.2-0.6l-2.1,0.3l-0.6-0.5l1.4-1.2l0.6-0.7l0.2-0.8l1.1-0.9l0.9-0.4l0.8,0.3
		l0.8-1l-2.6,0.6l-1,0.6l-1.4,1.4l-0.1,0.6l-1,0.5l-0.8,0.8l-0.3,0.6l-1.4,1l-0.7,0.2V138l0.6-1l-0.2-0.8l1.6,0.1l0.9-0.6h-1.4
		l-0.7-0.4l-0.6-0.8l-0.3-1l0.6-0.9l-1.1-1l-0.3-1.1l-0.1-1.3l0.5-0.3l1.1,0.2l1.2-0.1l2.7-0.5l1.7,0.3l0.7-0.1l1-0.4l1-0.1l1.1,0.6
		l0.4-0.3l2.8-0.6l-1.5-0.8l0.1,0.7l-1.8,0.2l-1.6-0.3l-0.7-0.3l-0.3,0.7l-0.6,0.2l-1.7-0.3l-2.4,0.2l-1.1,0.4l-0.7-0.1l-1.3-0.6
		l-0.5-0.5l-0.2-1.3l1.4-0.2l-1-1.2l-1-0.7l-0.1-0.7l0.4-0.7l0.8,0.1l1.9-0.1l3.1,0.8l2.5-0.2l-0.4-0.3h-1.5l-3.7-0.7l-1.1,0.1
		l-0.6-0.2l-0.4-0.5l0.2-1l0.6-0.2l0.6,0.3l1-1.2l1-0.5l1-0.3l1,0.5l0.7-0.1l2-0.4l-0.7-0.3l-1.8,0.3l-0.1-0.3l1.2-1.2l2.1-0.2
		l3,0.3l1.2,0.4l0.2-0.9l2.7-0.7l-3.5,0.4l-0.9-0.3l-2.5,0.4l-0.1-0.7l1.2-1.2l2.1-0.5l1-0.6l1.6-0.1l1.3,0.2l0.6,0.7l2.2,0.9
		l-2.6-2l0.6-0.9l1.7-0.2v-0.8l-1.1-0.2v-0.6l1-0.5l1.4-0.4l1.6,0.4l-0.3,0.7l0.5,0.3l0.9-0.8l2-0.4l1.4,1.1l0.3,0.6l0.6-0.3
		l1.4-0.3l1.4,0.2l0.9-0.1l-0.5-0.7l0.2-0.5l1.2-0.5l0.9-0.2l1.3-0.6l-0.4-0.5l-0.7-0.2l1.5-0.8l-0.9-0.3l-1.2,0.5l-0.8,0.5l0.8,0.5
		l-0.6,0.6l-3.1,1.4l-1.5,0.4l-0.7-0.1l-1-1.3l-1.1-0.1l0.7-1.1l0.8-0.4l0.7-1.2l1.2-0.7l1.6-1.7l1.4-0.6l0.5-0.6l1.5-0.8l1.5-0.5
		l0.2-0.5l-1.4,0.5l0.2-1.1l0.7-0.5l3.5-1.4l0.8,0.7l1.1-0.1l1.2-0.8l-0.2-0.4l-1.1,0.5h-0.8l-0.2-0.3l-1.1-0.3l-0.2-0.6l0.7-1.4
		l1.7-1.7l0.3-0.7l0.7-0.4l0.9,0.1l-0.1-0.6l-1.1-0.6l3.2-0.6h1.5l1.2-0.5l0.3-0.5l-3.3,0.6l-1.2,0.1l-0.4-1.4l0.1-0.8l1-1.1
		l0.7-0.1l0.9-0.6l0.1-0.8l1.2-0.4l1.1-1.1l1.2-0.3l0.7,0.1l1.5-0.4l3.4-0.1l0.1-0.3l-3.2-0.2l-1.8,0.1l-0.2-0.3l1.4-1.4l1-0.5
		l0.9,0.1l0.9,0.5l0.3-0.4l-0.8-0.8l0.4-0.8l-1.3,0.6l-0.9,0.2l-0.5-1l1.2-1h1.2l0.2-0.8l1.7-0.7l1-0.1l0.8-0.3l0.3,0.2l0.5,1.2
		l0.8,0.2l0.5-0.4l-0.7-0.6l-0.6-0.9l1-0.8l1.2-0.1l1.3,0.4l1.2-0.1l0.5-0.6l-3.2-0.1l-0.4-0.5l0.6-0.6l1.1-0.4l1.3-0.1l1.2-0.7
		l0.5-0.6l0.2-0.8l0.7-0.7l2-0.4l-0.3-1.1l0.4-0.7l0.5-0.3l1.1,0.8l0.9,0.3l-0.3-0.7l0.2-0.6h1.1l0.5-0.3l0.2-0.7l0.7-0.6l2.4-0.4
		l0.3,1.3l0.4,0.7l0.4-1.4l0.8-1.1l1.2-0.5l0.5,0.6l-0.2,2.2l-1,1.2l0.8-0.1l1.3-1.2l0.3-0.6l-0.4-1.4l0.3-0.4l1.8-0.1l1,0.2
		l0.4-0.8l0.9-0.1l0.9,0.5l2.1,0.7l-0.7-1.1l-0.5-0.4l-1.1-0.3l-1.1-0.5l0.6-0.5l1.2,0.2l1-0.4l1.1-0.1l0.6,0.3l0.4-0.5l1.3-0.3
		l1.4,0.5l0.8,1.4l1.2,0.7l-0.1-0.7l0.3-1l1.2-1l1.1-0.5l0.7-0.1l1.5-1.7l-0.8-0.5l1.7-1.2l0.6-0.1l2.8,1.1l0.8-0.5l1.7,0.4
		l-0.4,0.5l-1.6,1.5l-0.3,0.4l-0.1,1.1l-0.6,0.7l0.4,0.7l0.8-0.2l0.9-0.7l0.1-0.7l2.2-1.9l1-1.1l1.2-0.9l0.8-0.2l0.5,0.6l-0.1,0.8
		l0.1,2.2L280,63l0.6-1.5l0.6-0.4l-0.4-0.7l0.2-0.6l1.2-0.7l1.1,0.2l1.7,0.2l1.4,0.4l0.1,0.7l-0.4,0.5l-1.5,0.6l0.4,0.4l1-0.3
		l0.5,2.8l0.5-1.1l0.5-0.4l0.1-0.8l0.4-1l0.9-0.7h1.4l1.7,0.9l1.3,0.2l0.9,0.4l1.2-0.4l1,0.5l0.1,0.5l1.9,0.2l1.9,0.8l0.3,0.8
		l-2.2,0.5l-0.9,0.5l-1.7,0.2l-5.9-0.4l0.2,0.4l4.2,0.8l0.3,0.3l0.2,1.1l0.9,0.4l1.8-0.1v-0.7l1.6,0.3l1.9,0.1l0.6,0.9l-0.2,0.8
		l-1.2,0.1l-2.1-0.7l-0.2,1.2l-0.6,0.5l-3,0.7l-0.6,1.3L292.5,73L292.5,73z M271.9,58.8l1.9,0.3l1.1,0.7l-1.8,0.3l-0.9-0.1l-1-0.9
		L271.9,58.8L271.9,58.8z M98.6,60.8l-0.1-0.5l2.3-0.8l1-0.7l1.7-0.3l-0.1,0.9l-1.5,0.4l-1.7,0.3L98.6,60.8L98.6,60.8z M236,37.9
		l-0.5,0.3l-1-0.4l-0.4-0.6l1.5-0.1L236,37.9z M240.8,12.3l2,0.1l1,1l0.7,1l0.7,0.1l2.4-0.2l1.7,0.4l-0.7,0.6v0.6l2.8,0.7l0.9,0.1
		l1.5-0.2l3.3,0.9l-3.4,0.6l-1,1l-1.9,0.7h-1.3l-1.2,0.7l-1.1,0.1l-0.8-1l1.1-0.7l-1.6-0.2l-0.6,0.3l-5.4,0.5l-0.6-0.1l-0.5-0.6
		l1.4-0.3l0.1-0.6l1.3-1.2l-2.8-0.8l-1-0.6l-0.4-0.5l-1.3-0.5v-0.5l-0.9,0.1l-0.2-0.6L240.8,12.3L240.8,12.3z M264.4,12h-0.7
		l-1.3-0.4l0.4-0.5L264.4,12L264.4,12z M194.2,12.2L196,13l1,0.3l1.2,0.8l-0.4,0.5l-1-0.6l-1.8-0.7l-1.2-0.1l-1.7-1.3l-0.8-0.4
		l-0.4-0.9l1.8,0.4l0.8,0.5l-0.2,0.4L194.2,12.2L194.2,12.2z M273.6,10.5l1.4,0.1l-0.1,0.3l-3.7-0.2l-1.9,0.4l0.2-0.5l1.2-0.3
		l1.9-0.1L273.6,10.5L273.6,10.5z M217.5,5l0.7-0.3l2.8,0.4l1.3,0.5l0.7,0.5l-1,1l0.9,0.5l1.6-0.9l1.4,0.2l0.9,0.5l0.5,0.6l-0.1,0.7
		l1.6,0.6l1.7-0.1l1.2,0.2l0.8,0.5l1-0.1l0.1-0.4l1.3,0.1l1.5,0.4l-1.1,0.5l1.1,0.4l1.7,0.3l1.1,0.3l-0.8,0.7h-1.6l-1.5,0.2
		l-2.8,0.2L231,13l-1.3,0.9l-0.2,0.8l0.3,0.6l-0.8,0.3l-1.7,0.1l0.1,2l-0.4,1l-1.7,0.2l-0.9,0.6l-0.6,1.1l-1.1,1l0.5,0.5l-1.1,1
		l0.6,0.9l-0.5,0.3l-1.1,0.2l-1.1-0.2l-1.2-0.6l-3.4-1.1l-2.2-1.2l-3.1-0.7l-1.7-0.8l-0.8-0.7l0.2-0.7l1.4-0.1l1.5,0.4l0.9-1
		l5.8-0.6l3.7-0.1l-1-0.7l-3.5,0.4l-2.2-0.1l-1.1,0.1l-1.1,0.3l-2.2,0.3l-2.3-0.1l-1.5-0.5l-0.7-1l0.6-0.3l1.9,0.1l3.3-0.5l1.5-0.4
		l1.6-0.1l-0.3-0.4l0.9-0.2l1.2-0.1l2.9,0.1l0.1-0.3l-1.3-0.3l-0.5-0.3l1.3-0.9l-1.1,0.1l-1.5,0.7l-0.9,0.3l-2.3,0.2l-0.9-0.8
		l0.5-0.6l-0.4-0.4l-0.7,0.7l-1.1,0.2l-1-0.5l-1,0.3l0.4,0.5l-0.3,0.5l1,0.5l-1.2,0.3l-1.1,0.6l-2,0.1l-2.3,0.1l-2.3-0.8l-1.1-0.6
		l-0.9-0.6l-1.4-0.3l-0.9-0.4l-0.2-0.6l-0.7-0.4l-0.4-0.6h2.2l-0.9-0.9l0.3-0.8l-1.7,0.1l0.2,0.5l-1.1,0.5l-0.6-0.1l-1.2-1l-1.2-1.2
		l0.2-0.7l-0.6-0.5l0.8-0.4l1.3,0.5l0.4-0.4l1.9-0.2l2.3,0.6l0.2-0.6l2.1,0.3l1.5-0.3l2.6-0.2l1,0.2L204.5,6l-3.2,0.2l-2,0.7
		l2.9-0.1l0.5,0.1l0.3,0.6l1.5,0.3l1.2,0.5l0.4-0.3l-0.3-1.1l2.2-1.2l1.1,0.2l1.1,0.5l2,1.5l1.2,1l3.1,1.4l-0.4-0.8L214,7.1
		l-0.5-0.9l0.5-0.9l0.6-0.3l-0.2-0.7l0.7-0.3l1.2,0.2C216.2,4.3,217.5,5,217.5,5z M286.3,3.8L282.2,4l-0.5-0.2l8-0.7l0.9,0.3
		L286.3,3.8z M225.6,2.8l-0.9,0.3L223,2.9l0.5-0.4L225.6,2.8z M235.1,3.1l2.9,0.1l0.8,0.5l2.8,0.6l0.4-0.8l-0.3-1.1l1-0.1l0.9-0.3
		l1.6,0.2l0.1,0.7l-0.3,0.7l1.1,0.1l1.4-0.2l1-0.6l1.2,0.1l0.7-0.3l0.7,0.3l4.2,0.4l1.7,0.3h2.7l1.9,0.1l1.4,0.5l0.6,0.9l-0.5,0.2
		l-3.4,1l-0.8,0.4l-1.2,1.2l-2.1,0.4l-1.8-0.2L252,8.3l-1,0.5l-0.8,0.1l-4.7-0.2l-1.1-0.6l0.6-0.5l-4.2,0.2l-4.7-0.1l-0.5-0.3
		l-2.9-0.3l-2.1-0.6l0.6-0.3h3l-0.4-0.8l-1.5-0.1l-0.9,0.2l-2.2,0.1l-2-0.1l-1-0.2l-1.9-0.5L224,4.8l1.4-0.2l1.1-0.4l-2.3-0.2
		l-1-0.2l-0.3-0.5l3-0.1l2.6,0.4l-0.4-1.1l2,0.6l0.1-0.6l-1-0.7l1-0.1l2.3,0.4L235.1,3.1L235.1,3.1z"/>
	<path id="PL" class="st0" d="M278.8,178.9l0.3-0.3l1.2,0.4l2.3,1.1l0.6,0.5l0.4,1.5l1.1,2.6l1.5,2.5l0.9,1.8l0.5,2l-0.3,0.8l-2,0.9
		l-0.4,0.3l-1,1.4v0.6l1.7,0.7l0.9,0.5l0.4,0.5l-0.1,1.2l0.2,0.6l-0.4,0.8l0.1,0.7l0.5,0.8l0.6,0.9v0.7l1.4,1.4l1,1.4l0.7,0.5
		l-0.6,0.7l0.9,1.3l0.1,0.7l-0.6,0.9l-1.5,0.3l-2.4,2.3l-1.2,1.4l-1.7,2.2l-0.3,0.5l0.8,1.9l-0.1,0.9l1,0.7l-0.2,0.5l-1.7-0.4
		l-0.5-0.1l-2.9-1l-0.4-0.7l-0.5-0.4l-1.6-0.5l-1.8-0.2l-1.6,0.1l-0.7,0.8l-0.9-0.1l-1.2-0.5l-1.5,0.1l-1.2,0.5l-0.6,1.1l-0.9-0.3
		l-0.7,0.2l-0.3-1.4l-0.7-0.2l-1.5-1.5l-1.1,0.7l-0.5,0.9h-1.1l-0.3-0.8l-0.7-0.1l-0.3-0.8l-1.4-1.1l-0.3-0.9l-1.4-0.4l-0.3,0.1
		l-1.8-0.9l-0.9,0.5l-0.5-0.3l-1.4-1.2l0.7-0.3V210l-1.8,0.4l-1.7-1l-1.1-0.3h-0.7l0.9,1.2l-1.8,1.3l-0.5-0.2l-0.8-1l-1-0.9
		l-0.8-0.5l0.8-0.6l0.4-0.6l-0.9-0.6l-1.6,0.4l-0.4-0.5l-1.4-0.6l-2.3-0.6l-0.5-0.6l-0.2-0.6l-1.7-0.4l0.1,1l-1.1,0.2l0.8-1.8
		l0.2-1.2l-0.8-1.6l-1.1-0.5v-0.8l-1-1.6l0.4-0.6l0.4-1.3l-0.4-1l-1-1.2l0.3-1.3L231,192l-1.7-1.1l-0.8-0.7l0.4-0.8l1-0.9l0.2-1.4
		l-0.9-2.1l-0.4-1.3l1.4,0.5l0.4-0.3l-0.1-0.9l-2.1-0.4l-0.1-0.6l1,0.2l1.9-0.7l3.3-0.9l3.5-0.9l1.7-0.3l1-1.1l1-0.9l1.9-0.4
		l0.7-0.4l1.4-0.6l3.4-0.6l2.8-0.2l2.8,1.2l-0.5,0.2l-1.5-0.6l1.1,1.8l0.6,0.6l1,0.5l0.9,0.2l2.5-0.3l1.1-0.6l0.3,0.1l3.4,0.2
		l11.7,0.5L278.8,178.9L278.8,178.9z"/>
	<path id="PT" class="st0" d="M94.8,313.5l-0.6,0.1l-2.3,1.3h-0.7l-1.3-0.6l-2.3-0.2l-0.8-0.2l-0.9,0.4h-0.8l-0.6,0.5l-0.4-0.2
		l0.5-1.1l0.8-2.1v-1.3l0.2-1.1l-0.2-1.1l-0.4-0.7l0.6-1.8v-0.9l-0.5-1.2l1.4,0.2l-0.9-0.7h-0.8l-1.2,0.5l-0.8,0.1l0.1-0.7l-0.3-0.9
		l1-0.3l0.8-0.9l-0.2-0.8l-0.6,0.6l-0.3,0.7l-1.4,0.4l-0.8-0.3v-1l0.3-0.9l0.2-1.2l0.4-1.1l-0.1-0.7l0.8-0.7l0.7-1l2.2-4.5l-0.3-0.5
		l0.9-3.4l0.6-1.2l0.3-2.2l-0.1-1l-0.4-1l-0.4-2.2v-0.7l-0.5-0.9l0.1-0.5l0.7-0.9l0.6-0.6l1-0.5l2.1-0.5l0.5,0.9l-0.7,1l0.5,0.7
		l1.5-0.6L94,276l1.1,0.4h0.7l1.3-0.5l0.4-0.7l0.8,0.3l2.7,0.1l0.4,0.6l0.1,1.6l1,0.1l1,0.5l0.2,0.6l-1.3,1.3l-1.1,0.6l-0.8,0.7
		l-0.6,0.8l-1,0.8l0.4,1l0.2,1.8l-0.2,1.9l0.2,0.6l-1.4,1.1l-0.1,0.5l0.7,0.7v1l-0.9,1.8l-0.5,0.3H95l-0.6,0.2l0.6,1l0.7,0.6l0.2,1
		l0.8,1.6l0.9,0.2l0.3,0.4l-0.3,1.2l-1.6,1.5l-0.5,2l1.5,2.2l0.9-0.1l-0.4,1.2l-1.1,0.3l-1.8,2.2l-0.4,1.1L94.8,313.5L94.8,313.5z"
		/>
	<path id="RO" class="st0" d="M322,247.9l0.8,0.8l0.9,0.5l2,0.5l0.3-0.6l0.5,0.2l0.8-0.3l1.1-0.7l1.1-0.1l1.1,0.4l1,0.9l-0.1,2.2
		l-0.4,1.1l-3.2,0.7l0.2-0.3l-0.4-1l-0.5-0.5l-0.5,0.6l0.3,0.9l-0.4,0.7l-0.1,1.2l0.3,0.5l-0.8,1l-0.3,0.7l0.4,2.4l-0.2,1.9h-1
		l-1.3-0.3l-1.1-0.4l-1.3-1.3l-0.9,0.3l-0.5-0.3l-1.6-0.2l-2.3-1.2l-1.5,0.2l-2.2,0.5l-1.6,0.6l-1.7,1.1l-0.6,0.8l-0.8,0.5l-1.2,0.3
		l-2.1-0.1l-4.8-0.9l-1.3,0.3l-1.8-0.2l-2.7-0.5l-2-0.2l-1.9,0.3l-0.5-0.9l0.9-1l-2.2-1.3l-0.4-0.6l-0.8-0.5l-0.3-0.9l1.3-0.9
		l-1.5-0.8l-0.9,0.3l-0.9,0.9l-0.7,0.1l-0.5-0.6l-0.8-0.4l-1.8-0.4l-0.8-0.6l-1.1-0.3l0.1-0.3l0.9-0.4l-1.2-0.6l0.8-1l-0.5-0.6
		l-1.3-0.4l-1.9-1l-1.1-0.9l-0.2-2.1l-0.4,0.1l-0.9-1l-1.5-0.9l-0.9-1l1.6-0.5l0.7,0.3l1.3-1l1.3,0.2l0.7-0.5l0.8-2.4l1.1-0.8
		l-0.1-0.7l0.8-1.4v-0.6l0.7-0.8l0.4-1.3l0.7-0.7l-0.1-0.9l0.6-0.5l1-1.2l2.3-0.6l1.1-1.2l1.1-0.5l0.5-0.6h0.4l1.4,0.8l1.4-0.1
		l3.5,0.7l1.8-0.4l0.6,0.2l2.2,1.7l1.1-0.3l0.5-0.6l1.7-0.7l4.3-0.6l0.6-1l0.1-0.7l1.9-0.4h1.1l1.3,0.8l1.3,1.5l1.5,2.5l0.8,0.7
		l1.3,1.6l1.1,0.9l0.7,0.9l1.5,1.1l0.7,1.5l0.7,1.2l0.3,1.5l-0.5,2.4l0.1,1.3l0.7,2.6l-0.5,0.4L322,247.9L322,247.9z"/>
	<path id="RS" class="st0" d="M271,242.7l0.9,1l1.5,0.9l0.9,1l0.4-0.1l0.2,2.1l1.1,0.9l1.9,1l1.3,0.4l0.5,0.6l-0.8,1l1.2,0.6
		l-0.9,0.4l-0.1,0.3l1.1,0.3l0.8,0.6l1.8,0.4l0.8,0.4l0.5,0.6l0.7-0.1l0.9-0.9l0.9-0.3l1.5,0.8l-1.3,0.9l0.3,0.9l0.8,0.5l0.4,0.6
		l-0.5,0.4l-0.1,1l-1.1,0.5l-0.2,1.2l0.3,1.2l1.2,2l1.5,0.8l0.7,0.8l0.8,0.5l-0.2,0.7l-0.8,0.9l-0.6,0.8l-0.9,0.1l-0.6,0.3v1.7
		l0.7,1.5l-0.6,0.9l-0.5,0.2l-0.7-0.4l-1.2,0.4l-1-0.2l-1,0.5l-1.1,0.2l-0.3-0.7l0.5-0.5l0.6-1.6l0.1-0.6l-2.4-0.6v-0.7l-1.1-0.6
		l-0.1-0.4l-1.2-1.1l-1.4-0.7l-0.6-0.7l-0.9,0.5l0.3,0.8l-0.2,0.5l-0.9,0.7v0.7l-0.8,0.3l-0.1-0.5l-2.7-1.5l-1.1-0.3l-1.5-0.8l-1-1
		l-1.3-0.9l-0.2-0.6l0.4-0.4l1.3,0.2l0.1-1.1l-1.6-1.9l0.3-0.4l1.6,0.1l0.2-0.4l-1.7-1.5l-1.2-0.6l-0.3-0.4l0.1-1.3l0.8-1.4l0.3-1.3
		l-0.8-0.4l-1.4,0.4l0.5-0.8l-0.4-1.3l0.9-0.2l1.2-0.1l-0.5-0.8l-1.5-0.5l-0.6-0.5l0.2-1l-0.7-0.2l-0.1-0.8l-0.8-1.4l0.4-0.8
		l1.1-0.7l0.8,0.3l1.1-0.5l0.8-0.8l0.5-0.2l1.5,0.2l0.6-0.1l1.4,0.2L271,242.7L271,242.7z"/>
	<path id="SK" class="st0" d="M282.9,219.6l-0.8,1.5l-0.4,1.5l-0.8,0.9l0.1,1.3l-2.2,0.6l-0.3-0.1l-1.1-1.1l-0.7-0.5l-2.3,0.4
		l-1.3-0.3l-1.4-0.1l-0.9,0.2l-0.8,1.8l-2.6,1.3l-1.8-0.7l-0.4,0.1l-0.5,0.8l-1.2,0.3l-2.2,0.2l-0.7,0.4l-0.2,0.5l0.3,0.7l-0.3,0.5
		l-3.6,0.2l-2.4-0.1l-0.8-0.4l-2.1-1.4l-1.1-0.2l-1.2-1.5l-0.8-1.5l-0.1-0.4l0.5-1.2l0.6-1.4l0.7-0.6l1.8,0.3l0.9-0.1l0.8-0.4l1.1-1
		l0.8-0.4l0.4-1.5l1.2-0.6l0.3-0.4l1-0.8l1.4-0.2l0.7,0.1l0.3,0.8h1.1l0.5-0.9l1.1-0.7l1.5,1.5l0.7,0.2l0.3,1.4l0.7-0.2l0.9,0.3
		l0.6-1.1l1.2-0.5l1.5-0.1l1.2,0.5l0.9,0.1l0.7-0.8l1.6-0.1l1.8,0.2l1.6,0.5l0.5,0.4l0.4,0.7l2.9,1L282.9,219.6L282.9,219.6z"/>
	<path id="SI" class="st0" d="M247.4,239.7l-1.3-0.3l-0.5,0.4v0.9h-1l-0.4,0.5L242,242l-0.2,0.7l0.5,0.5l0.1,1.1l-0.2,0.6l-1.1,0.3
		l-1.1,0.5l0.5,0.6l-0.4,0.4l0.4,1.2L240,248l-0.8-0.1l-1-0.4l-0.7,0.3l-0.8-0.4l-1.3-1.1l-0.6,1.1l-0.3,0.2l-1.8,0.1l-0.6-0.3
		l-0.7,0.7l-1.7-0.4l-0.3-0.3l0.9-0.6l0.8-0.1l-0.1-0.7l-0.8-0.7l-1-0.6l0.2-1l-0.7-0.1l-0.2-0.5l0.8-1.1l-1.2-0.4l-0.4-0.7l1.7-1.2
		l0.1-0.5l2.6,0.5l2.6,0.4l1.5-0.6l0.5-0.7l1-0.4l1.3-0.1l1.4,0.1l1.2-0.6l0.8-0.1l1.2,0.3l0.1-1l0.7-0.5l1.2,0.1l0.7,1.7
		L247.4,239.7L247.4,239.7z"/>
	<path id="SE" class="st0" d="M240.2,164.3l-0.8-0.2l-0.2-1.9l1-2.3l0.5-0.2l1.4-3.3l0.3,1l-0.8,1.6l-0.2,1.1l-0.3,0.3L240.2,164.3
		L240.2,164.3z M253.6,152.7l-0.7,0.7l-0.7,0.3l0.1,1.7l0.8,0.6l-0.7,0.3l-0.4,0.9l-0.9,0.3l-0.8,0.8l-0.2,0.8l-1.1,0.5l0.6-1.2
		l-0.5-0.4l-0.7-1.1l0.2-0.5l-0.3-1.6l1.4-1.5l0.7-0.6l1.7-0.5h0.7L253.6,152.7L253.6,152.7z M272.3,95.1l-1.4,0.2l-1.1-0.3
		l-0.5,0.2l-1.9,0.2l-0.6,0.4l-1.1-0.4l-1-0.6l-1,0.6l-0.8-0.5l-0.5,1l0.1,0.9l-0.9-0.1l0.2,0.6l-1,0.8l-1.6,0.1l0.4,0.8l-0.5,0.4
		l0.5,0.9l-0.7,0.8l-1.1,1l-0.3,0.5l0.9,0.6l0.8,1.3l0.8,0.6l-0.2,0.6l-1.1,0.6l-1.1,0.9l-1,2.2l-1.6,0.7l-1.2,0.8l-1.5,0.4
		l-1.2,1.1l-0.9-0.4l-0.8,0.3l-0.5,0.9l-1,0.8l-1.2-0.1l0.1,0.4l-1.2,0.2l-0.5,2l-1.1,0.3l-0.4,0.4l-0.5-0.3l-1.1,0.1l0.8,1.4
		l-0.9,0.9h-0.6l-0.8,0.4l-1-0.4l-0.1,0.6l0.4,0.7l0.7,0.5l-0.1,0.7l-0.5,2.2l0.4,0.9l-1.1,0.6l-0.4,0.6l0.3,0.9l-0.1,0.6l0.4,1
		l0.4,2.1l0.6,1l-0.1,0.8l0.7,0.5l1.1-0.1l0.7,0.8l1.6-0.4l0.4,0.6l1.5,1.1l0.9,0.2l1,0.6v0.8l1.5,0.5l1,1l0.4,0.8l-0.1,0.5
		l-1.3,0.8l-0.7,0.7l-1.9,1.1l-0.3-0.1l-1.1,0.5l1,0.3l0.7-0.4l1.3-0.3l0.7,0.6l-1.1,0.3l-0.2,0.8l-0.4,0.5l-1,0.4l-1.4,0.8l-2,0.7
		l-0.6,0.6l-1.3,0.5l-0.7,0.4h-1.9l-1.9-0.1l0.5,0.5l0.5-0.1l1.8,0.2l0.9,0.7l-1.5,0.5l0.9,1.6l-0.4,0.4l0.2,1.8l-0.6,0.1l-0.2,0.7
		l0.3,1.3l0.5,1.1l-0.1,0.5l-0.8,1.2l0.5,1.5l-0.8,2.7l-1,1.6l-0.7,2.1l-0.9,0.7l-1.2-0.5l-1.7,0.3l-1.6-0.2l-1.5,0.1l-0.4,0.2
		l0.4,0.7l-1.2-0.1l-0.9,0.6l-1,1.1v0.8l1,1.5l-0.9,1h-0.6l-1.6-0.3l-2.8,0.6l-2.6-0.5l0.3-0.5l0.1-1.6l-0.3-0.9l-0.7-0.6l-1.6-1.9
		l-0.6-1.2l1.2,0.5l0.5-0.3l-0.9-1.3l1.1-0.1l0.4-0.5l-0.3-0.8l-1-0.3l-1-1.2l-0.9-0.6l-1.8-2.4l-0.7-1.6l-0.6,0.2l-0.6-1.9
		l-0.9-0.3l-0.3-1.9l-0.9-0.2l-0.7-0.9l-0.2-1.6l-0.6-0.3l-0.4-0.7l-0.4-1.5l-0.2-1.4l-0.5-0.9l0.3-0.6l0.6-0.1l0.6,0.4l0.5,0.9
		l1-0.1l0.4-0.7l0.3-2l-0.8-2.2l0.8-0.8l0.5-1.2l1.3-0.4l0.7-0.4l1-1l0.1-1.4l0.3-1.1l-0.3-0.7l-1.6-2.5l-0.2-0.8l0.9-0.3h1.2
		l0.7-1.3l0.2-1l-1.7-1.4l-0.6-0.2l-1.9-1.1l0.5-3.3v-0.8l-1.3-2.2l0.1-0.9l-0.3-1.4l0.6-0.6l-1.4-2.1l1-1.4l-0.3-0.8l0.6-0.5
		l1.8-1.9l1.7-0.8l1.7-0.2l3.6,0.5l0.9-1.1l-0.1-0.6l-0.6-1.5l-2.4-0.8l2.2-2.6l1.7-2.6l0.1-2.4l0.3-1.4l-0.7-2l1.9-0.2l1.2-0.3
		l1.7-0.8l-0.5-1.3l0.7-0.5l1.5-1.5l1.7-1.5l0.8-0.5l0.1-0.7l-0.5-0.7l-1.4-1.2l0.3-0.6l1.4-0.3l0.6-0.6l0.8-1.8l1.9-1l0.8-0.5
		l3.2,0.9l1.1-1.6l-0.4-1.8v-0.4l1.1-0.3l2.1,0.5l1.5,0.1l4.4,0.9l0.5,0.1l1.3-0.8l-1.5-0.5l0.8-0.5l0.7-1l-0.1-1L247,73l2.6-0.1
		l1.5,0.4l0.2,0.5l1.5,0.6l2.4,1.2l2.1,0.9l4.2,0.9l1.8,0.9L264,79l0.7,0.1l1,0.8l0.9,0.5l-0.6,0.5l0.2,1.2l0.4,0.7l-0.2,1l1.4,0.2
		l0.3,0.7l-0.5,0.4l-0.1,0.6l0.4,0.8l1.7,1.3l0.3,0.5l-0.4,0.7l0.1,0.9l-0.8,0.7v0.7l0.7,1.3l0.9,0.3l1,1.1L272.3,95.1L272.3,95.1z"
		/>
	<path id="TR" class="st0" d="M312.8,290l-1.5,0.3l-0.1-0.8l1.1-0.3L312.8,290z M412,279l2.2,0.7l0.6-0.5l1.8,0.1l1.7,0.4l0.5-1
		l0.7-0.2l0.7,0.2l0.3,0.6l0.6,0.2l1.8,1.3l0.6,0.9l1,0.1l0.7,0.6l0.7,0.8l0.9,0.6l0.9,1.7l-0.1,1.2l-0.5,0.7l0.4,1l1,1.5L428,290
		l0.9,0.5l1.5,0.5l1.8-0.2l0.8,0.4l1.2,0.9l1.6,1.4l0.4,0.5l-1.7-1l-0.7,0.8l-0.1,1.9l-0.3,0.2l-1.4-0.1l-0.6,0.2l0.6,1.3l0.7,0.6
		v1.2l1.1,1.3l0.1,1.1l0.5,1.1l0.2,1.1l0.3,0.4l0.7,0.2l-0.3,1.9l-0.3,0.6l-0.2,1l0.9,0.3l1.6,1l0.1,0.7l0.3,0.8l0.2,1l1.6,1.2v1.2
		l-1.1-0.3l-1.9,1.6l-0.6-0.6l-0.2-1.2l-0.8-0.8l-0.7-0.1l-1.1,0.7L431,313l-1.5-0.6l-1.5-0.4l-1,0.3l-1.1-0.4l-0.8,1l-1,1l-0.6,0.2
		l-0.8-1.3l-0.7-0.1l-0.6,0.7l-1.1,0.4l-2.3,0.5l-1.6,0.2l-2.1-0.3l-1.6,0.1l-1.6,0.7l-2.7,1.4l-2.1,0.7l-2.1,0.5l-3.9-0.1l-0.6-0.2
		l-1.8-1.2l-1.7-0.3l-1.7,0.8l-1.2,0.4l-1.8,0.8l-2.4-0.1l-1-0.9l-1.9-0.4l-0.3,0.8l-0.2,1.9l0.9,1.6l-1.7,0.7v1.3l-0.9,0.6
		l-0.4,0.8l-1.1-0.6l-0.5-0.1l0.4-0.7l-1.3-2.5l0.4-0.8l1.8-2l-0.2-1.2l-1-0.8l-1.5,1.1l-0.9,0.4l-0.2,0.6l-0.6,0.4l-0.9,0.2
		l-1.5-0.5l-1.6-0.7l-1-0.6l-0.7-0.2l-0.7,0.3l-1.8,1.4l-1.6,2.1l-0.4,0.4l-1.6,0.9l-1.1,0.3l-0.5-0.1l-2.2,0.4l-1.1,0.1l-0.8,0.5
		l-1.8-0.5l-1.1-0.7l-0.7-0.7l-1.2-1.5l-0.8-0.7l-1.7-0.6l-3-1.5l-2.7-0.4l-2-0.2l-0.4,0.6l0.1,2.1l-0.3,0.6l-0.1,1.1l-0.6,0.6
		l-1.1-0.5l-1,0.5l-1.9,0.7l-0.6,0.1l-2.3-0.8l-1.5-1.1l-0.3-1l-0.7-1.4l-0.9,0.2l-1.2-0.2l-1.6-0.8l-1.2-0.1l-0.6,1l-0.5,0.4
		l-0.7-0.2l0.4-0.7l-1.9,0.1l-0.9,0.5l-0.8-0.1l-0.5-0.5l1-0.3l2-0.2l0.5-0.2l0.5-0.7l0.9-0.6l-0.6-0.3l-3.1,0.2l-2.1-0.1l-0.5,0.4
		l-0.2-0.8l1.8-0.7l-0.2-0.7l-2.1-1.1l-0.2-0.8l-1-1.6l1-0.3l0.1-1.3l-0.2-0.8l-2-0.7l-0.4,0.1l-0.6-0.7l-0.9-0.5l-0.6,0.4l-1.7-0.7
		l-0.3-0.3l0.3-0.7l0.5-0.6l-0.5-1l-0.1-0.5l0.9-0.1l0.5,0.6l0.2,1.1l1.8,0.4l1.5-0.3l-1.3-0.6l-0.6-0.6l-0.6-1.2l0.9-0.6l0.6-0.9
		l-1.4-0.6l0.1-1.2l-1.3-1.4l0.2-0.4l1.2-1.4l-0.6-0.4l-2.2,0.4l-0.8,0.3l-1.6,0.1l-0.2-0.8l0.3-0.7l-0.3-1.7l0.1-0.9l0.9-0.3
		l0.9-1.4l1.5-1.6h1.8l0.7-0.5h1.1l0.4,0.6l1,0.5l1.6-0.1l0.7-0.5l-0.8-0.8l0.9-0.3l0.8,0.2l-0.1,0.9l2.1-0.3l2.2,0.2l0.7-0.1h1.7
		l0.3-0.3l-1.8-0.9l1-0.8l3.5-0.6l1.9-0.4l-2.9-0.4l-0.7-0.3l-1-0.7L332,283l0.2-1.3l0.3-0.4l1.1-0.1l3.9,0.6l2.7-0.4l3.1,0.9
		l2.9-0.2l0.6-0.4l0.6-1.3l3.8-2.1l1.2-1.1l1.4-0.6l2.6-0.7l2-0.9l0.6-0.1l5.3,0.4l3.6,0.1l1.5-0.8l1,0.3l-0.1,1.1l1.3,1.3l1.8,0.7
		l2.2-0.6l0.9,0.3l1.1,2l0.8,0.7l0.9,0.5l0.7,0.1l0.8-0.7l0.9-0.1l1.5,0.7l0.6,0.7l2.4,0.6l2.2,0.3l1,0.6l3.2,0.6l1.1-0.1l1.8-0.7
		l3.6-0.7l2.7,1l1.3,0.1l0.9,0.3l0.9-0.2l2.6-1.2l0.7-0.6l0.9-0.2l2.7-1.7L412,279L412,279z M324.3,275.4l-0.1,0.9l0.5,1l1.2,1.4
		l1,0.7l4.1,1.7l0.7,0.2l-0.5,1.8l-1.1,0.3l-3.3-0.8l-0.8-0.1l-1.5,0.7l-1.2-0.2l-1.6,0.3l-0.3,1.1l-1,1.2l-1.7,1l-1.3,0.5l-1.8,1.9
		l-0.8,1.1l-0.8,0.4l0.3-1l-0.2-0.9l1.2-1l1.7-0.8l0.4-0.7l-2.8,0.2h-1.7l-0.5-0.9l0.4-0.2l1.3-1.6l-0.3-2.2l1.7-1.3l-0.5-1.6
		l-1.2-0.8l-0.6-0.2l0.2-0.7l1-0.2l0.5-1.1l1.7-0.2l0.8-0.6l1.8-0.2l1.7,1.3l0.8-0.3h0.9l0.5-0.2L324.3,275.4L324.3,275.4z"/>
	<path id="UA" class="st0" d="M345.1,242v0.3l-2-0.4l-0.5-0.5L345.1,242L345.1,242z M331.6,249.4l-1-0.9l-1.1-0.4l-1.1,0.1l-1.1,0.7
		l-0.8,0.3L326,249l-0.3,0.6l-2-0.5l-0.9-0.5l-0.8-0.8l0.6-0.4l1-0.1l0.2-0.5l-0.3-0.7l1.3-1.5v-0.7l1.2-0.9l0.2-1l-0.5-0.9
		l-0.3-1.1l1.3-0.8l1.1,0.5l1,0.1l1.1,0.4l0.8-0.3l0.6,0.7l1.5-0.2l0.3-0.4l-1.5-0.9l-0.1-1.5l-0.5-0.8l-1.1-0.4l-1-0.7l-0.5-1v-1.2
		l-1.5-1l-1.2-0.6l-0.3-0.6l0.3-1.6l-0.3-1.2l-0.7-0.7l-0.7,0.4l-0.7-0.5l-0.7-1l-2.9-0.3l-0.3-0.6l-1.3-0.2l-1.8-1.2l-1.8-0.5
		l-0.8,0.5l-0.4-0.2l-0.6,0.5l-2-0.1l-0.4-0.1l-1.2,0.7l-0.1,0.3l-1.9,0.4L307,227l-0.6,1l-4.3,0.6l-1.7,0.7l-0.5,0.6l-1.1,0.3
		l-2.2-1.7l-0.6-0.2l-1.8,0.4l-3.5-0.7l-1.4,0.1l-1.4-0.8h-0.4l-0.5,0.6l-1.1,0.5l-0.4-0.9l-0.5-0.4l-1.2-0.2l-0.5-0.6l-1.1-0.4
		l-0.7-1.2h-0.8l-0.1-1.3l0.8-0.9l0.4-1.5l0.8-1.5l1.7,0.4l0.2-0.5l-1-0.7l0.1-0.9l-0.8-1.9l0.3-0.5l1.7-2.2l1.2-1.4l2.4-2.3
		l1.5-0.3l0.6-0.9l-0.1-0.7l-0.9-1.3l0.6-0.7l-0.7-0.5l-1-1.4l-1.4-1.4v-0.7l-0.6-0.9l-0.1-0.7l0.6-0.3l1,0.2l0.6,0.3l1-0.6l0.8-0.8
		l0.4-0.7l3-0.3l1.2-0.3l1.2-0.1l4,0.2l3.3,0.8l3.1,0.5h1.2l0.9,1.1l0.5,0.2l1.5-0.1l0.6,0.2l0.4,0.7l0.6-0.9l1,0.3l1-0.4l2.6,0.5
		l0.4,0.7l0.5,0.2l0.3-0.6l1.9-0.8l1.3,1.5l0.3,0.3l1.2-0.4l3.6-0.3l1,0.6l0.3,0.6l1.4,0.5l0.4-0.7l-0.9-1.8l0.5-1.7l0.4-0.6
		l1.1-1.2l0.6-0.3l0.9,0.2l0.7-0.4l2.6,0.1l1.3,0.4l0.9-0.1l0.9-0.5l0.3-1.2l0.8-0.3l1.9,0.5l0.5-0.1l1.4-0.6l0.8-0.1l1,0.2l1.7-0.1
		l1.3,0.7l0.7,0.7l0.9,1.4l2,1.5l-0.1,0.5l-1.5,0.3l0.7,1l0.3,1l0.6,0.9l-0.2,0.5l1.6,0.1l1.5,0.5l2.1-0.3l0.8,1.1l1,0.1l0.1,0.5
		l0.7,1.4l0.5,0.6l-0.1,0.9l0.3,0.5l1,0.8l0.4,0.5l0.6,0.2l1.2-0.7l1.4,0.2l1.4,1h1.2l0.9,0.6l0.7-0.7l2.2-0.5l1.2-0.5l0.5,0.1
		l1.2,0.9l0.3,0.6l0.8,0.8l2.4,1.5l0.7-0.3l0.5-0.8l1.3,0.7l1.2,0.1l1.8,1l0.7,0.1l0.8-0.3l1,0.9l1,0.1l2.2,1.2l1.5-0.2l0.5,0.4
		l-0.1,0.9l0.5,0.5l-0.1,1.3l-0.9,1.1l-1.2,0.4l0.6,0.8l1.6,0.5l-0.5,0.5l-0.7-0.1l-0.4,0.5l-0.2,1.2l1.3,0.4l0.6,1.4v0.6l0.6,0.2
		l-0.7,2.4l-0.1,0.9l-2.1,0.1l-3.1-0.2l-0.5,0.1l-0.5,1l-1.2,0.7l-0.9,0.1l-0.4,0.4v1.2l-0.2,0.7l0.6,0.4l-0.4,0.8l0.3,0.7l-0.3,0.1
		l-2.2-0.1l-1.7,0.2l-1.1,1.2h-0.8l-1.6,0.8l-0.7,0.9l-0.7-0.4l-1.6,0.3l-0.9,0.6l-1.6-0.1l-1.2,0.3l-2.3,1.9l-0.7,0.1l-0.5-0.5
		l-0.8,1.3l-1.2,0.6l0.3,1.6l1.4,2.3l1.8,2l0.9,0.7l1.2,0.4l1.6-0.7l1.2,0.2l0.9-0.6l0.8-0.1l1.9,0.5l-0.6,1.3l-0.2,1.3l-1,0.3
		l-1.1-0.1l-1.1,0.2l-1.4-0.8h-1.3l-0.6,1l-1.2,0.7l-0.3,0.7l-1.3-0.2l-1.1,0.1l-1.4,0.7l-1,1.4l-1.2,0.9l-1,0.3l-1-0.1l-0.7-0.3
		l-1.5-0.9l0.4-1l0.3-1.8l-0.6-1.5L355,250l-0.8,0.1l-0.5-0.2l-1.9-1.2l-1-0.1l-1,0.3l-0.8-0.6l1.8-1.5l1.8-1.2l0.9-0.1l1.1-0.6
		l1.1-0.8l-0.7-1.2l-1,0.3l-1.1-0.6l-0.5-0.4l-1.6,0.4l-0.9-0.1l-1.9,0.4l-1-0.4l-2-1l-1.3-0.2v-0.5l0.9-0.2l0.1-0.5l-1.9-0.3
		l-0.1-0.7l1,0.3l1.6,0.1l1.5,0.3l1.1-0.9l-1.2,0.3l-1.5-0.3l-1.1-0.9l-1.1,0.6l-1.6-0.3l-1.2,0.4l-1.2-0.1l-2.1,0.6l-0.2,1.5l-1,2
		l-1.6,1.9l-2.3,1.1l-0.9-0.2l-0.5,0.6l0.1,0.7l0.5,0.5l0.6,1.6L331.6,249.4L331.6,249.4z"/>
	<path id="XK" class="st0" d="M282.5,273.2l-1.1,0.2l-0.8,1l-0.8-0.6l-0.5,0.1l-1.7,0.8l-0.1,1.3l-0.3,0.4l-0.9-0.2l-0.1-1.1
		l-0.7-1.6l-1-0.7l-0.7-0.3l-1-1.5l-0.3-0.2l0.1-0.7l-0.5-0.8l1-0.2l0.1-0.4l0.8-0.2l0.8-0.3v-0.7l0.9-0.7l0.2-0.5l-0.3-0.8l0.9-0.5
		l0.6,0.7l1.4,0.7l1.2,1.1l0.1,0.4l1.1,0.6v0.7l2.4,0.6l-0.1,0.6l-0.6,1.6l-0.5,0.5L282.5,273.2L282.5,273.2z"/>
	<path id="NL" class="st0" d="M169.3,201.6l-0.3,0.6l-1.6,0.8l-2-0.6l-0.6,0.3l-0.6-0.4l-0.2-0.7l1.4-0.2l1.8,0.4l0.8-0.3l0.6,0.3
		L169.3,201.6L169.3,201.6z M167.6,198.9l0.8,0.7l-0.8,0.2l-0.8-0.5L167.6,198.9L167.6,198.9z M176.8,194.6l-1.5-0.2l-0.5-0.4
		l1.2-0.9l1.6-0.8l0.9,0.2l0.3,0.5l-0.6,0.6L176.8,194.6L176.8,194.6z M173,188.7l-0.6,0.6l-0.3-0.7l0.9-0.7V188.7L173,188.7z
		 M169.3,201.6l-1.3-0.4l-1.1,0.3l-1.4-0.4l-0.9-0.7l0.6-0.4l1.2-0.1l2,0.4l0.6-0.5l-0.3-0.5l-1.2-1.1l0.8-1.4l0.7-0.5l1.6-1.9
		l0.5-1l0.6-2.8l0.5-1l0.7,0.3l1-0.4l1.7-1l0.5-0.9l0.5-0.5l2-0.8l1.1-0.2l4.5-0.3l0.9,0.9l1.4,0.3l0.1,2.2l-0.4,0.9l-0.6,1.9
		l-1.6-0.1l-0.3,0.8l0.4,0.5l1.3,0.2l0.4,0.5l-0.3,1.3l-1.3,0.8l-0.2,0.5l0.5,0.5l-0.4,0.5l-2.3,0.7l-1.2-0.4l-0.9,0.4l-0.4,0.6
		l1.6,2.1v0.6l-0.7,1.4l0.4,0.6l-1.1,0.8l-0.3,0.4l1,0.6l-0.3,1.2l-0.6-0.1l-1.2-0.2l-0.4-0.6l0.6-0.7l0.5-1.5l-1.3-0.6l-0.9-0.7
		l-1,0.2l-1.3-0.7l-0.3-0.8l-1.3,0.4l-0.6-0.7l-0.8,0.5L171,201l-0.7,0.4l0.1,0.5L169.3,201.6L169.3,201.6z M178.6,193.7l0.5-0.5
		l-0.3-1l-1.1-0.2l-0.3-0.4l0.2-1.3l-1.4-0.2l-0.2-1.3l-0.8,0.2l-1.2,0.8l0.3,0.7l0.8,0.8v0.5l-1.1,0.4l0.1,1.3l-0.1,0.8l2.8,0.7
		L178.6,193.7L178.6,193.7z"/>
	<path id="ES" class="st0" d="M153.1,299.7l-0.2,0.5l-1-0.2v-0.8l0.6-0.8l1.4-0.4l0.4,0.7L153.1,299.7L153.1,299.7z M164.2,292.7
		l0.6,0.3l0.7-0.3l0.7,0.2l0.1,0.5l-1.1,1.8l-0.3,0.7l-1.1,0.7l-2-0.9l-0.2-0.8l-0.7-0.4l-0.9,0.7l-0.7-0.5l-0.2-0.6l2.7-1.9
		l0.8-0.5l1.6-0.5l0.3,0.6L164.2,292.7L164.2,292.7z M171.7,292.3l-0.2,0.1l-2-1l-0.8-0.2l0.1-0.7l1.3-0.1l1.1,0.4l0.6,0.9
		L171.7,292.3L171.7,292.3z M132.2,264l0.3,0.7l2.2,0.7l-0.2,1.6l0.9-0.2l2.2,0.9l1.1,0.1l1.1,1.1l1.8-0.2l1.6,1.1l1.6-0.2l0.4,0.2
		h2.4l0.4-1.2l2,0.6l1.3,0.5l0.9,0.2l0.6,0.8v1.1l0.4,0.2l1.4-0.6l1.4,0.6l0.7,0.6l1.1-0.6l2.4,0.6l0.6-0.4l1.9-0.6l1.6,0.3l0.6,1.1
		l-0.9,0.3l-0.1,0.7l0.6,0.7l0.1,1.1l-1.5,1.4l-4.4,2.4l-1.5,1.4l-3.4,0.8l-2.3,0.8l-1.1,0.3l-2.1,1.9l0.6,0.2l0.6,0.6l-0.2,0.3
		l-1.3,0.6h-0.5l-1.5,2.3l-1.3,1.7l-0.8,0.8l-0.8,1.1l-1.6,2.9l-0.1,0.8l0.8,2.8l1.1,1.4l1.2,0.6l0.3,0.5l-0.4,0.5l-1.2,0.9
		l-2.2,1.2l-0.9,1l-0.2,0.9l-0.7,0.4l-0.3,1.3l-0.9,2.2l0.7,0.6l-0.7,0.4l-3.3,0.2l-2.1,1.4l-1,1.2l-1,2.3l-1.1,1.3l-0.5,0.3
		l-0.8-0.6l-1-0.1l-1,0.2L126,317l-0.8,0.3l-0.8-0.3l-2.3-0.1l-1.2,0.4l-1-0.3l-1.6-0.2l-3.6,0.3l-2,1.7H111l-1.6,0.6l-1.1,1.5
		l-0.3,0.8l-0.5-0.2l-0.2,0.6l-1.1,0.4l-1.2-0.5l-1-0.8l-0.5-0.1l-0.8-1.1l-0.6-1.6v-0.6l-0.8-0.3l-0.2-0.7l0.1-0.8l-0.6-1l-2.6-1.9
		l-1.9-0.2l-1.5,0.3l-0.6-3.3l0.4-1.1l1.8-2.2l1.1-0.3l0.4-1.2l-0.9,0.1l-1.5-2.2l0.5-2l1.6-1.5l0.3-1.2l-0.3-0.4l-0.9-0.2l-0.8-1.6
		l-0.2-1l-0.7-0.6l-0.6-1l0.6-0.2h2.2l0.5-0.3l0.9-1.8v-1l-0.7-0.7l0.1-0.5l1.4-1.1l-0.2-0.6l0.2-1.9l-0.2-1.8l-0.4-1l1-0.8l0.6-0.8
		l0.8-0.7l1.1-0.6l1.3-1.3l-0.2-0.6l-1-0.5l-1-0.1l-0.1-1.6l-0.4-0.6l-2.7-0.1l-0.8-0.3l-0.4,0.7l-1.3,0.5h-0.7L94,276l-1.5,0.1
		l-1.5,0.6l-0.5-0.7l0.7-1l-0.5-0.9l-2.1,0.5l-1,0.5l-0.6,0.6l-0.7-0.1v-1.3l1.3-1.3l-0.8-0.1l0.6-1l-0.5-0.5l0.1-1.3l-1.2,0.5
		l-0.3-0.6l0.7-1.1l-0.7-0.1l-1.2-1.3l0.4-1.6l1-0.5l1-0.8l1.3,0.2l0.9-0.2l1.8-0.8l-0.2-0.8l0.2-0.4l1.6-0.9l1-0.1l1-0.5l0.7,0.3
		l0.6-0.1l0.7,0.3l0.9,0.8l1.3,0.3l1-0.3l1.8-0.1l0.9,0.1l1.6-0.2l0.9,0.1l1.5-0.4l1.2,0.5l2.2,0.2l1.3,0.4l3.7,0.7h1.4l1.9-0.4
		l0.8-0.3l0.8,0.2l1.1-0.3l1.2,0.5l2.4,0.7l1.1-0.7l1.7,0.3l1.7,0.7l0.9,0.1l1.3-0.2L132.2,264L132.2,264z"/>
	<path id="FR" class="st0" d="M204.5,268.8l-0.2,1.2l0.5,0.9l0.3,3.3l-0.9,1.6l0.1,1.5l-0.8,2.2l-0.4,0.6l-1.9-1l-0.6-0.6l0.5-0.9
		l-1.1-0.5l0.2-0.9l-0.1-0.5l-0.8-0.3l0.5-0.7v-0.4l-0.8-0.5l-0.2-0.5l0.7-0.6l-0.3-0.5l0.1-0.7l0.5-1l0.6-0.5l1.4-0.4l0.6-0.6
		l1,0.3l0.3-0.6l-0.1-1.4l0.2-0.6l0.7,0.3L204.5,268.8L204.5,268.8z M136.2,244.3L136,245l-1-1.2l0.5-0.3L136.2,244.3z M179.3,216
		l1.1,0.6h0.7l1-0.3l0.7,0.4l0.7,0.1l1.8,2.2l0.9-0.4l0.7,0.2l0.2,0.5l1.1,0.1l1.5-0.3l1,0.7l2.4,0.4l0.8,0.3l0.1,0.7l-1.8,1.9
		l-0.7,2.8l-0.5,0.9l-0.2,0.8l0.1,1.2l-0.3,1v0.8l0.6,0.7l-0.8,0.4l-0.4,0.7l-1.4,0.2l-0.4-0.4h-0.6l-0.9,0.7l0.7,0.6l-0.3,0.5
		l-1.9,2l-1.1,0.5l-0.3,1.5l-1.5,1.1l-0.6,1.5l0.4,0.4l-0.2,0.8l-0.8,0.5v0.5l0.7,0.1l1.2-0.8l-0.3-0.7l1.2-0.8l1-0.1l1.1,0.2
		l0.4,1.1l-0.3,0.9l1.2,1.2l0.5,0.7l-1.3,0.9l0.1,0.8l0.5,0.3l0.9,1.3l0.9,0.8l-0.4,1.3l-0.6,0.2l-0.9,0.7l-1-0.1l-0.4,0.2l0.8,1.6
		l1.6,0.7l0.3,0.9l-0.4,0.4l-0.7,1.3l0.4,0.7l0.1,0.7l0.5,0.5l2.6,1.2l1.7-0.3l0.2,1l-1.1,1.3l0.1,0.8l-0.3,0.2l-0.4,0.2l-1.2,0.6
		l-2,1.7l-0.9,0.5l-0.4,0.9l-1,0.7l-1.2,0.3l-1.2,0.5l-0.6-0.2h-1.4l-0.9-0.6l-1.7-0.4l-0.6-0.9l-1.3-0.1l-0.4-0.8l-1,0.2l-0.8,0.4
		l-1-0.1l-3-0.9l-0.7-0.7l-0.9,0.3l-0.8,0.8l-3.3,2.1l-1.3,2.2l-0.1,0.6l0.4,2l0.8,1.3l-1.6-0.3l-1.9,0.6l-0.6,0.4l-2.4-0.6
		l-1.1,0.6l-0.7-0.6l-1.4-0.6v-0.8l-1.3-0.3l-0.5,0.4l-0.6-0.8l-0.9-0.2l-1.3-0.5l-2-0.6l-0.4,1.2h-2.4l-0.4-0.2l-1.6,0.2l-1.6-1.1
		l-1.8,0.2l-1.1-1.1l-1.1-0.1l-2.2-0.9l-0.9,0.2l0.2-1.6l-2.2-0.7l-0.3-0.7l1-0.3l1-1l0.9-3.6l0.7-4.2l0.5-0.8l0.6-0.2l-0.5-0.6
		l-0.6,0.8l0.4-3.9l0.3-1.4l0.5-1.5l1.6,1.2l0.4,0.5l0.5,1.7l0.3,0.1l-0.6-2.3l-0.9-1.2l-1.8-1.2l-0.3-0.7l0.9-0.3l-0.3-0.9l-0.3-3
		l-1.5-0.3l-2.4-1.3l-0.9-1.3l-0.8-1l-0.2-0.9l0.5-0.9l-0.4-0.6l-0.7-0.4l0.6-0.8l-1.5-0.1l-0.9-0.3l-0.2-0.6l0.7-0.7l-0.8-0.4
		l-1.3,0.1l-0.1-0.9l-1.1,0.2l-0.6-0.2l-0.6-0.6l-0.7,0.1l-1.1-0.2l-0.4-0.4l-2.4-0.7l-1-0.1l-1,0.3l-0.6-0.2l-0.7-1.1l-1.6-0.6
		l0.3-0.4l1.6-0.3l0.3-0.4l-1.1-0.5l-0.1-0.6l0.8,0.2l0.1-0.6l-2,0.1l-0.2-0.7l0.3-0.7l1.2-0.6l3-0.7l1.3,0.1l0.9-0.1l1.5-0.8
		l1.5-0.2l1.4,0.4l1.3,1.4l0.6,0.5l1.6-0.9l2.2,0.1l0.5,0.5l0.6-0.9l0.5,0.5l2.4-0.1l-0.8-1.3l-0.1-3.1l-0.7-0.9l-1.1-2.2l0.1-0.7
		l1.6,0.2l1.4-0.3l0.7,0.2l0.2,1.4l0.6,0.8h1.1l1.2,0.3l1.5,0.1l2.2,0.4l0.9-0.3l1.8-1l-0.9-0.4l-0.1-0.4l0.5-1.1l2.7-1.3l1.9-0.4
		l1.9-0.7l1-0.7l0.6-0.9l0.3-0.7l0.2-3.5l0.5-1.1l1.5-0.8l3.3-0.6l0.5-0.3l0.5,1.1v0.6l1.5,1.2l1.6-0.5l0.8,0.9l0.3,1l2.1,0.6l0.3,1
		l0.5-0.2l1.8,0.2l0.8,0.6l-0.2,0.8l0.4,0.4l-0.4,0.7l0.3,0.3l1.2,0.2l1.1-0.2l0.7-0.3l0.3-0.7l1-0.3l-0.4,1.4l0.3,0.3l0.2,1
		l0.9,0.1l1.7,0.8l1.4,1.3L179.3,216L179.3,216z"/>
	<path id="PT_1_" class="st0" d="M94.8,313.5l-0.6,0.1l-2.3,1.3h-0.7l-1.3-0.6l-2.3-0.2l-0.8-0.2l-0.9,0.4h-0.8l-0.6,0.5l-0.4-0.2
		l0.5-1.1l0.8-2.1v-1.3l0.2-1.1l-0.2-1.1l-0.4-0.7l0.6-1.8v-0.9l-0.5-1.2l1.4,0.2l-0.9-0.7h-0.8l-1.2,0.5l-0.8,0.1l0.1-0.7l-0.3-0.9
		l1-0.3l0.8-0.9l-0.2-0.8l-0.6,0.6l-0.3,0.7l-1.4,0.4l-0.8-0.3v-1l0.3-0.9l0.2-1.2l0.4-1.1l-0.1-0.7l0.8-0.7l0.7-1l2.2-4.5l-0.3-0.5
		l0.9-3.4l0.6-1.2l0.3-2.2l-0.1-1l-0.4-1l-0.4-2.2v-0.7l-0.5-0.9l0.1-0.5l0.7-0.9l0.6-0.6l1-0.5l2.1-0.5l0.5,0.9l-0.7,1l0.5,0.7
		l1.5-0.6L94,276l1.1,0.4h0.7l1.3-0.5l0.4-0.7l0.8,0.3l2.7,0.1l0.4,0.6l0.1,1.6l1,0.1l1,0.5l0.2,0.6l-1.3,1.3l-1.1,0.6l-0.8,0.7
		l-0.6,0.8l-1,0.8l0.4,1l0.2,1.8l-0.2,1.9l0.2,0.6l-1.4,1.1l-0.1,0.5l0.7,0.7v1l-0.9,1.8l-0.5,0.3H95l-0.6,0.2l0.6,1l0.7,0.6l0.2,1
		l0.8,1.6l0.9,0.2l0.3,0.4l-0.3,1.2l-1.6,1.5l-0.5,2l1.5,2.2l0.9-0.1l-0.4,1.2l-1.1,0.3l-1.8,2.2l-0.4,1.1L94.8,313.5L94.8,313.5z"
		/>
	<path id="CY" class="st0" d="M368.8,331.1L368.8,331.1h-0.1H368.8L368.8,331.1z M368.8,331.1L368.8,331.1h0.1l0.1,0.1h-0.1
		L368.8,331.1L368.8,331.1L368.8,331.1z M368.6,330.9L368.6,330.9L368.6,330.9L368.6,330.9v-0.1V330.9L368.6,330.9L368.6,330.9z
		 M370.4,330.5l0.1,0.1l0.2,0.2l0.1,0.2l0.1,0.2l0.1,0.1l0.1,0.1h-0.1h-0.2l-0.2-0.1l-0.1-0.1h-0.1l-0.4,0.1l-0.3,0.1l-0.1,0.1
		l-0.1,0.1h-0.2h-0.2l-0.1-0.1l0.1-0.1h0.1l-0.1-0.2h-0.1l-0.1-0.1v-0.2l-0.1-0.1l-0.2-0.1v-0.1l0.1-0.1l0.1-0.1l0.1,0.1l0.1,0.1
		l0.1-0.1l0.1-0.1l0.1-0.1l0.1-0.1l0.1,0.1l0.1,0.1h0.1l0.1,0.1h0.1l0.2-0.1h0.1l0.1,0.1h0.1L370.4,330.5L370.4,330.5L370.4,330.5
		L370.4,330.5z M368.3,331.1v0.1l-0.2,0.1l-0.2,0.2v0.1l-0.1,0.2v0.2v0.2v0.2v0.1h-0.1l-0.1,0.1v0.2l-0.1,0.1h-0.1h-0.2l-0.1,0.1
		l-0.1,0.1l-0.1,0.1l-0.1,0.1l-0.1,0.1l-0.2,0.1l-0.2,0.1l-0.2,0.1l-0.1-0.2l0.1,0.3l-0.2,0.1l-0.5,0.1l-0.1,0.1l-0.1,0.1l-0.1,0.1
		h-0.1l-0.5-0.1l-0.5,0.1l-0.1,0.1l-0.1,0.1l-0.3,0.3l-0.1,0.2h-0.2l-0.2,0.1v0.1l-0.1-0.1l-0.1-0.1l0.1-0.1l0.1,0.1h0.2l-0.1-0.2
		l-0.2-0.1l-0.1,0.1l-0.1,0.1l-0.1-0.1v0.1l-0.2-0.1l-0.2-0.1l-0.1-0.1v-0.1h-0.1h-0.1h-0.1h-0.1l-0.1,0.1v0.1h-0.1l-0.1,0.1h-0.1
		h-0.1l-0.1,0.1l0.1,0.1l-0.1,0.1H362l-0.3-0.1l-0.3-0.1l-0.4-0.2l-0.2-0.1l-0.2-0.1h-0.3l-0.2-0.1l-0.1-0.1L360,333l-0.1-0.1
		l-0.1-0.2v-0.1l-0.1-0.1l-0.2-0.5l-0.1-0.1l-0.2-0.1l-0.1-0.1l-0.1-0.1l-0.1-0.1v-0.1l0.1-0.1l-0.2-0.2l-0.1-0.1v-0.2L359,331
		l-0.2-0.3l-0.1-0.2l-0.1-0.2l0.1-0.2h0.1l0.2,0.1l0.2,0.3l0.2,0.1l0.1,0.1h0.3l0.2-0.1l0.2-0.2l0.2-0.2l0.1-0.3l0.1-0.2l0.1-0.1
		l0.1-0.1v-0.1h0.1l0.1,0.1h0.1h0.1l0.1,0.1l0.1,0.1h0.1h0.1l0.1-0.1l0.1-0.1v-0.1l0.2,0.1l0.1,0.2l0.1,0.1l0.1,0.1l0.1,0.1l0.2,0.1
		l0.2,0.1l0.1,0.1l0.1,0.1l0.1,0.1v0.1l0.1,0.1l0.1,0.1h0.1l0.2-0.1l0.1-0.1l0.1-0.1l0.1-0.1l0.1,0.1l0.1,0.1l0.1,0.1h0.1l0.1-0.1
		l0.1-0.1l0.1-0.1l0.1-0.1l0.2-0.1l0.1-0.1h0.1l0.2,0.1h0.2h0.2l0.1-0.1h0.1l0.1-0.1l0.2-0.1h0.1l0.1,0.1l0.1,0.1h0.1h0.1l0.1,0.1
		l0.1,0.1l0.1,0.1l0.2,0.1h0.1l0.1-0.1V330l0.1-0.1l0.2-0.2h0.1h0.1h0.2h0.1h0.1v0.1l0.1,0.1l0.1,0.1l0.1,0.1l0.1,0.1v0.1l0.1,0.2
		v0.1v0.2v0.2l-0.1,0.2l0.1,0.1l0.1,0.1h0.1h0.1V331v-0.2l0.1-0.1l0.1-0.1l0.1-0.1l0.1,0.1l0.1,0.2l0.1,0.1l0.1,0.1l0.2-0.1v-0.1
		l0.1-0.1h0.1l0.1,0.1h0.1l0.1-0.1l0.1,0.1h0.1l0.2,0.1h0.1h0.1L368.3,331.1L368.3,331.1z"/>
	<polygon id="_x30_" class="st0" points="142.7,200.8 142.7,200.8 142.7,200.8 142.7,200.8 	"/>
	<polygon id="_x31_" class="st0" points="232.2,211.6 232.2,211.6 232.2,211.6 232.2,211.6 	"/>
	<polygon id="_x32_" class="st0" points="204.4,137.4 204.4,137.4 204.4,137.4 204.4,137.4 	"/>
</g>
</svg>
