<?xml version="1.0" encoding="utf-8"?>
<!-- Generator: Adobe Illustrator 23.0.2, SVG Export Plug-In . SVG Version: 6.00 Build 0)  -->
<svg version="1.1" id="Layer_1" xmlns="http://www.w3.org/2000/svg" xmlns:xlink="http://www.w3.org/1999/xlink" x="0px" y="0px"
	 viewBox="0 0 511 511" style="enable-background:new 0 0 511 511;" xml:space="preserve">
<style type="text/css">
	.st0{fill:#2DC997;}
</style>
<path class="st0" d="M209.4,360.3l9.3,0.3c0.2,0,0.4,0.2,0.5,0.4l4,12.1c1.3,4,5.6,6.1,9.5,4.8s6.1-5.6,4.8-9.5l-4-12.1
	c-2.1-6.2-7.8-10.5-14.3-10.7c-9.2-0.3-9.8,0-9.8-0.8l-5.7-58.1c-0.8-7.8-7.2-14.3-16.4-14.1c-0.6,0-2,0.1-2.6-0.2
	c-0.1-0.2-7-23-7.1-23.2c-1.5-4.9-5.3-8.7-10.1-10.3c-39.9-13.1-31.4-9.4-45.7-18.2h0c-0.2-0.1-0.3-0.3-0.3-0.5l0.4-6.1
	c0.7-11.7-11.2-19.9-21.9-15.2c-19.1,8.5-27.4,12.3-29.7,13.1c-12.9-0.8-13.2-0.5-13.2-1.3l-0.1-2.2c-0.2-5-2.7-9.6-6.9-12.4
	c-4.1-2.8-9.4-3.4-14.1-1.7c-0.2,0.1-0.4,0.1-0.6-0.2l-20.2-22.9c-0.1-0.1-0.2-0.4-0.1-0.5l7.5-21c0.1-0.2,0.2-0.3,0.4-0.4l29.4-5.8
	c6.8-1.3,11.8-6.9,12.5-13.8c5.4-53,5.8-38.3-0.3-66.2c-0.2-0.9-0.1-0.6,20.2-3.7c0.2,0,0.4,0,0.5,0.2l11.9,13.7
	c4.8,5.6,13,7,19.5,3.3l16.2-9.1c6.5-3.6,9.5-11.4,7.2-18.5l-5-15.3c-0.3-0.9,0.1-0.6,39.8-7.3c0.7-0.1-0.1-1.8,11.7,33.7
	c2.6,7.7,10.5,12.1,18.4,10.3l21.2-5c7.8-1.8,11.3-8.5,12-12.9c0.4-0.6-0.6-0.6,23,5.9c6.3,1.7,13.1-0.7,16.9-6l5.7-8
	c0.3-0.4,0.8-0.3,0.9,0.1c13.2,34.5,12.7,36.3,19.6,39.7l22,11c3.7,1.9,8.3,0.4,10.1-3.4c1.9-3.7,0.4-8.3-3.4-10.1
	c-5.9-3-20.6-10.3-22-11c-1.4-2.5-4.9-12.5-12.2-31.6c-4.4-11.6-20.1-13.6-27.3-3.5l-5.7,8c-0.1,0.2-0.4,0.3-0.6,0.2l-22.4-6.2
	c-4.2-1.1-8.7-0.5-12.3,1.8c-4.3,2.6-5.9,6-7.1,10.2c0,0.4-0.1,0.9-0.5,1c-22.1,5.2-21.5,5.4-21.8,4.6l-11.1-33.4
	c-2.4-7.3-9.8-11.8-17.4-10.5l-39.3,6.6c-9.4,1.6-15.2,11.2-12.3,20.3l5,15.3c0.2,0.7,0.5,0.2-16.5,9.8c-0.2,0.1-0.5,0.1-0.7-0.1
	L96.7,50.3c-3.5-4.1-8.8-6-14.1-5.2l-19.8,3c-4.3,0.6-8.1,3.1-10.5,6.6s-3.3,8-2.4,12.2l4.3,19.4c-0.1,2.4-1.2,12.1-4.2,42
	c-0.1,0.6,1.5,0.1-29.8,6.3c-5.4,1.1-9.9,4.9-11.7,10.1l-7.5,21c-1.9,5.4-0.8,11.3,3,15.6l20.2,22.9c4.3,4.8,11,6.5,17.1,4.3
	c0.4-0.1,0.7,0.1,0.7,0.5l0.1,2.2c0.3,8.1,6.6,14.5,14.6,15.1c20.8,1.3,10.8,3.6,49.5-13.5c0.4-0.2,0.8,0.1,0.8,0.5
	c-0.3,5.8-2,14.8,7.1,20.3l0,0l0,0c16.1,9.9,6.3,5.7,48.9,19.6c0.2,0.1,0.3,0.2,0.3,0.4l7,22.9c2.6,8.6,9.3,11.1,18,11.1
	c0.8,0,0.2-3.1,6.2,58.6C195.1,354,201.6,360,209.4,360.3z"/>
<path class="st0" d="M457.3,234.2C435,255,434,254.9,432.7,260.8c-9.5,43.2-12.6,57.8-13.5,61c-0.2,0.3-35.9,51.8-36.3,51.8
	c-55.3,4.3-53,3.2-58,7.6c-26.3,23-27.6,22.8-28.6,29.9c-2.5,16.6-3.6,25.1-4.3,27.5c0,0-45.7,46.4-45.8,46.4
	c-0.2,0.2-0.5,0.2-0.8,0L213,453.1c-0.8-0.7-1.6,0.5,33-26.5c5.2-4,7.3-10.8,5.3-17l-3-10.9c-1.1-4-5.2-6.4-9.3-5.3
	c-4,1.1-6.4,5.2-5.3,9.3c0.1,0.3,3,11.2,3.1,11.5c0.1,0.2,0,0.5-0.2,0.6l-33,25.6c-7.5,5.8-8.1,16.8-1.4,23.5l32.4,31.9
	c6.1,6,16,6,22.1-0.2l45.8-46.4c5.8-5.9,4.1-11.9,8.5-35.8c1.8-2,9.3-8.3,23.6-20.7c3.4-0.6,17.1-1.4,49.3-3.9
	c4.7-0.4,8.9-2.8,11.6-6.7l36-51.6c2.2-2.9,1.5-1.5,15.8-66.4c1.5-1.8,8-7.6,20.1-18.9c3-2.8,3.2-7.6,0.4-10.7
	S460.3,231.3,457.3,234.2z"/>
<path class="st0" d="M507.2,161.9c-0.9-7.9-7.6-13.8-15.5-13.8h-11.1c-3.3-2.2-15.1-12.6-43.3-36.6c-6.1-5.2-8.3-3.8-49.6-1.8
	c-2.2-0.9-9.8-5-26.4-13.5c-3.7-1.9-8.3-0.4-10.2,3.3c-1.9,3.7-0.4,8.3,3.3,10.2c29.3,15,28.7,15.4,34,15.1c25-1.2,35.6-2,39.2-1.7
	c45,38.3,45.5,40.2,52.3,40.2c11.9,0,12.3-0.3,12.4,0.5c0,0.4,3.8,31,3.5,31.3l-16.9,16.7c-4.8,4.8-1.4,12.9,5.3,12.9
	c4.1,0,4-0.8,22.2-18.9c3-2.9,4.6-7,4.6-11.1C511,193.3,511.2,195.5,507.2,161.9z"/>
</svg>
