<?xml version="1.0" encoding="utf-8"?>
<!-- Generator: Adobe Illustrator 23.0.1, SVG Export Plug-In . SVG Version: 6.00 Build 0)  -->
<svg version="1.1" id="Layer_1" xmlns="http://www.w3.org/2000/svg" xmlns:xlink="http://www.w3.org/1999/xlink" x="0px" y="0px"
	 viewBox="0 0 100 100" style="enable-background:new 0 0 100 100;" xml:space="preserve">
<style type="text/css">
	.st0{fill:#46BB92;}
</style>
<g>
	<path d="M50,69.6"/>
	<path class="st0" d="M90.3,23.2h-10v-4.5c0-1.7-0.6-3.2-1.8-4.4c-1.2-1.2-2.7-1.8-4.4-1.8c-1.1,0-2.1,0.3-3,0.8
		C70.3,10.8,67.9,9,65.2,9c-1.7,0-3.3,0.7-4.5,1.9c0,0,0,0,0,0C59.5,9.6,57.9,9,56.2,9c-1.7,0-3.3,0.7-4.5,1.9
		C50.6,9.7,49.1,9,47.3,9c-3.4,0-6.2,2.8-6.2,6.2v8H20.4c0,0,0,0,0,0c-0.1,0-0.1,0-0.2,0c0,0,0,0-0.1,0c0,0-0.1,0-0.1,0
		c0,0,0,0-0.1,0c0,0-0.1,0-0.1,0c0,0,0,0-0.1,0c0,0-0.1,0-0.1,0.1c0,0,0,0,0,0l0,0c0,0,0,0,0,0L5.3,30.6c-0.6,0.3-1,0.9-1,1.6
		c0,0.7,0.4,1.3,1,1.6l14.2,7.1c0,0,0,0,0,0l0,0c0,0,0,0,0,0c0,0,0.1,0,0.1,0.1c0,0,0,0,0.1,0c0,0,0.1,0,0.1,0c0,0,0,0,0.1,0
		c0,0,0.1,0,0.1,0c0,0,0,0,0.1,0c0.1,0,0.1,0,0.2,0H33c0.6,1.6,1.6,3.1,2.8,4.4l6.2,6.2c1.7,1.7,2.6,3.9,2.6,6.3v4.5h-1.8
		c-1,0-1.8,0.8-1.8,1.8v25c0,1,0.8,1.8,1.8,1.8h35.7c1,0,1.8-0.8,1.8-1.8v-25c0-1-0.8-1.8-1.8-1.8h-1.8v-4.9c0-2.2,0.5-4.4,1.4-6.4
		c1.4-3,2.1-5.8,2.1-8.5v-1.5h10c2.9,0,5.4-2.4,5.4-5.4v-7.1C95.7,25.6,93.3,23.2,90.3,23.2L90.3,23.2z M71.4,18.8
		c0-1.5,1.2-2.7,2.7-2.7c0.7,0,1.4,0.3,1.9,0.8c0.5,0.5,0.8,1.2,0.8,1.9v8.9c0,1.5-1.2,2.7-2.7,2.7c-1.5,0-2.7-1.2-2.7-2.7V18.8z
		 M62.5,25v-9.8c0-1.5,1.2-2.7,2.7-2.7c1.5,0,2.7,1.2,2.7,2.7v12.5c0,1.5-1.2,2.7-2.7,2.7c-1.5,0-2.7-1.2-2.7-2.7V25z M53.6,15.2
		c0-1.5,1.2-2.7,2.7-2.7c0.7,0,1.4,0.3,1.9,0.8c0.5,0.5,0.8,1.2,0.8,1.9v8h-5.4V15.2z M44.6,15.2c0-1.5,1.2-2.7,2.7-2.7
		s2.7,1.2,2.7,2.7v8h-5.4V15.2z M19.9,37.1l-9.8-4.9l9.8-4.9C22.1,30.2,22.1,34.2,19.9,37.1L19.9,37.1z M32.2,35.7v0.9
		c0,0.3,0,0.6,0,0.9h-8.3c1.7-3.4,1.7-7.3,0-10.7h12.1c-0.4,0.4-0.9,0.9-1.3,1.4C33,30.4,32.2,33,32.2,35.7L32.2,35.7z M76.8,87.5
		H44.6V66.1h32.1V87.5z M76.8,42.6c0,2.1-0.6,4.4-1.8,7c-1.2,2.5-1.8,5.2-1.8,7.9v4.9h-25V58c0-3.3-1.3-6.5-3.7-8.8L38.3,43
		c-1.1-1.1-1.9-2.5-2.3-4.1c-0.2-0.7-0.3-1.5-0.3-2.2v-0.9c0-1.9,0.6-3.8,1.8-5.4c1.4-1.8,3.4-3.1,5.7-3.4c0.5-0.1,1-0.1,1.5-0.1h14
		c-0.3,1.2-0.9,2.3-1.9,3.3c-1.3,1.3-3.1,2.1-5,2.1h-5.4c-0.9,0-1.7,0.7-1.8,1.6c-0.1,0.9,0.6,1.8,1.5,1.9c2.9,0.5,5.5,2.2,7.2,4.6
		c0,0,0,0,0,0c1.3,1.9,2,4,2,6.3l0,3.4c0,1,0.8,1.8,1.8,1.8h0c1,0,1.8-0.8,1.8-1.8l0-3.4c0-1.9-0.4-3.8-1.1-5.5h19V42.6z M85,37.5
		H55.7c-0.6-0.7-1.2-1.4-1.9-2c2.1-0.4,4-1.4,5.5-2.9c0.3-0.3,0.6-0.7,0.9-1c1.1,1.5,2.9,2.4,4.9,2.4c1.7,0,3.3-0.7,4.5-1.9
		c1.1,1.2,2.7,1.9,4.5,1.9c3.4,0,6.2-2.8,6.2-6.2v-0.9H85V37.5z M92.1,35.7c0,1-0.8,1.8-1.8,1.8h-1.8V26.8h1.8c1,0,1.8,0.8,1.8,1.8
		V35.7z M92.1,35.7"/>
</g>
</svg>
