<?xml version="1.0" encoding="utf-8"?>
<!-- Generator: Adobe Illustrator 24.0.2, SVG Export Plug-In . SVG Version: 6.00 Build 0)  -->
<svg version="1.1" id="Layer_1" xmlns="http://www.w3.org/2000/svg" xmlns:xlink="http://www.w3.org/1999/xlink" x="0px" y="0px"
	 viewBox="0 0 188.9 165.1" style="enable-background:new 0 0 188.9 165.1;" xml:space="preserve">
<style type="text/css">
	.st0{fill:#FF8831;}
	.st1{fill:#FFFFFF;}
	.st2{fill:none;stroke:#B2550F;stroke-width:1.6305;stroke-linecap:round;stroke-miterlimit:10;stroke-dasharray:3.261,6.5221;}
	.st3{fill:#F05E23;stroke:#B2550F;stroke-width:3;stroke-linecap:round;stroke-linejoin:round;}
	.st4{fill:#FEBF00;stroke:#B2550F;stroke-width:3;stroke-linecap:round;stroke-linejoin:round;}
	.st5{fill:#FF8831;stroke:#B2550F;stroke-width:3;stroke-linecap:round;stroke-linejoin:round;}
	.st6{fill:#87C6C0;}
	.st7{fill:#FEBF00;}
	.st8{fill:#F05E23;}
	.st9{fill:#FFAF5E;stroke:#B2550F;stroke-width:3;stroke-linecap:round;stroke-linejoin:round;}
	.st10{fill:#87C6C0;stroke:#B2550F;stroke-width:3;stroke-linecap:round;stroke-linejoin:round;}
	.st11{fill:#FFAF5E;stroke:#B2550F;stroke-width:4;stroke-linecap:round;stroke-linejoin:round;}
	.st12{fill:#F05E23;stroke:#B2550F;stroke-width:1.43;stroke-linecap:round;stroke-linejoin:round;}
	.st13{fill:#FF8831;stroke:#B2550F;stroke-width:2.86;stroke-linecap:round;stroke-linejoin:round;}
	.st14{fill:#B2550F;}
</style>
<title>justice-data</title>
<g>
	<g>
		<polygon class="st0" points="21.4,18 30.1,16.6 21.4,15.2 20.1,6.6 18.7,15.2 10,16.6 18.7,18 20.1,26.6 		"/>
	</g>
	<g>
		<polygon class="st0" points="167.3,134.1 171.8,133.3 167.3,132.6 166.5,128.1 165.8,132.6 161.2,133.3 165.8,134.1 166.5,138.6 
					"/>
	</g>
	<g>
		<polygon class="st0" points="25.6,145.3 34.3,143.9 25.6,142.5 24.3,133.9 22.9,142.5 14.2,143.9 22.9,145.3 24.3,153.9 		"/>
	</g>
	<g>
		<polygon class="st1" points="20.8,95.6 25.8,94.8 20.8,94.1 20,89.1 19.2,94.1 14.2,94.8 19.2,95.6 20,100.6 		"/>
	</g>
	<g>
		<polygon class="st0" points="156.2,37 161.2,36.2 156.2,35.5 155.4,30.5 154.6,35.5 149.6,36.2 154.6,37 155.4,42 		"/>
	</g>
</g>
<g>
	<circle class="st2" cx="66" cy="69.3" r="51.8"/>
	<circle class="st2" cx="133.1" cy="63" r="51.8"/>
	<circle class="st2" cx="97.8" cy="111.3" r="51.8"/>
</g>
<g id="Layer_2_1_">
	<g id="Layer_1-2">
		<g id="Flat">
			<path class="st3" d="M46.9,129.1H36.5c-3.4,0-6.2-2.8-6.2-6.2c0,0,0,0,0,0V77.5c0-3.4,2.8-6.2,6.2-6.2h10.3V129.1z"/>
			<path class="st4" d="M36.5,129.1h80.8c9,0,16.3-7.3,16.3-16.3V44.5c0-3.4-2.8-6.2-6.2-6.2H48.9c-3.4,0-6.2,2.8-6.2,6.2V123
				C42.7,126.4,40,129.1,36.5,129.1C36.5,129.1,36.5,129.1,36.5,129.1z"/>
			<path class="st5" d="M127.4,38.3H48.9c-3.4,0-6.2,2.8-6.2,6.2v10.3h90.9V44.5C133.6,41,130.8,38.3,127.4,38.3
				C127.4,38.3,127.4,38.3,127.4,38.3z"/>
			<path class="st6" d="M48.9,44.5h4.1v4.1h-4.1V44.5z"/>
			<path class="st7" d="M57.2,44.5h4.1v4.1h-4.1V44.5z"/>
			<path class="st8" d="M65.4,44.5h4.2v4.1h-4.2V44.5z"/>
			<path class="st9" d="M82,79.6c0-8-6.5-14.5-14.4-14.5c0,0,0,0,0,0c-1.6,0-3.1,0.3-4.6,0.7l4.6,13.7l10.2,10.2
				C80.4,87.1,82,83.4,82,79.6z"/>
			<path class="st10" d="M63,65.9c-7.6,2.5-11.7,10.7-9.2,18.3c1.2,3.6,3.8,6.7,7.3,8.4l6.5-12.9L63,65.9z"/>
			<path class="st5" d="M61,92.5c5.6,2.8,12.3,1.7,16.7-2.7L67.5,79.6L61,92.5z"/>
			<path class="st8" d="M73.7,75.4L73.7,75.4c-0.6-1-0.3-2.2,0.7-2.9l14.3-8.9c0.7-0.4,1.4-0.6,2.2-0.6H115c1.2,0,2.1,0.9,2.1,2.1
				l0,0c0,1.2-0.9,2.1-2.1,2.1H91.4c-0.4,0-0.8,0.1-1.1,0.3l-13.8,8.6C75.6,76.7,74.3,76.4,73.7,75.4z"/>
			<path class="st8" d="M123.3,63L123.3,63c1.2,0,2.1,0.9,2.1,2.1l0,0c0,1.2-0.9,2.1-2.1,2.1l0,0c-1.2,0-2.1-0.9-2.1-2.1l0,0
				C121.2,64,122.1,63,123.3,63z"/>
			<path class="st8" d="M98.5,71.3h24.8c1.2,0,2.1,0.9,2.1,2.1l0,0c0,1.2-0.9,2.1-2.1,2.1H98.5c-1.2,0-2.1-0.9-2.1-2.1l0,0
				C96.4,72.2,97.3,71.3,98.5,71.3z"/>
			<path class="st8" d="M59.3,102.3L59.3,102.3c1.2,0,2.1,0.9,2.1,2.1l0,0c0,1.2-0.9,2.1-2.1,2.1l0,0c-1.2,0-2.1-0.9-2.1-2.1l0,0
				C57.2,103.2,58.1,102.3,59.3,102.3z"/>
			<path class="st8" d="M67.5,102.3h12.4c1.2,0,2.1,0.9,2.1,2.1l0,0c0,1.2-0.9,2.1-2.1,2.1H67.5c-1.2,0-2.1-0.9-2.1-2.1l0,0
				C65.4,103.2,66.4,102.3,67.5,102.3z"/>
			<path class="st8" d="M55.1,110.6h20.7c1.2,0,2.1,0.9,2.1,2.1l0,0l0,0c0,1.2-0.9,2.1-2.1,2.1H55.1c-1.2,0-2.1-0.9-2.1-2.1l0,0
				C53,111.5,54,110.6,55.1,110.6L55.1,110.6z"/>
		</g>
		<path class="st11" d="M157.1,138.7c1.4,2.1,1.5,4.9,0.2,7.1c-1.9,3.5-6.2,4.7-9.6,2.9c-0.6-0.3-1.2-0.7-1.6-1.2
			c-0.1-0.1-0.3-0.3-0.4-0.4l-6-6.9l9.1-9.1l6.9,6C156.2,137.5,156.7,138.1,157.1,138.7z"/>
		<polygon class="st4" points="148.7,131 139.6,140.1 135.9,135.8 135.9,135.8 144.4,127.3 144.4,127.3 		"/>
		<path class="st11" d="M131.8,93.1c1.7,1.6,1.7,4.3,0.1,6c-1.6,1.7-4.3,1.7-6,0.1c0,0-0.1-0.1-0.1-0.1l-12-12c-1.7-1.7-1.7-4.3,0-6
			c0.8-0.8,1.9-1.2,3-1.2c1.1,0,2.2,0.4,3,1.2L131.8,93.1z"/>
		<path class="st11" d="M126.8,100.1l-5,5l0,0l-8,8l0,0l-5,5l-1-1l-12-12l-1-1l18-18l1,1l12,12L126.8,100.1z"/>
		<path class="st11" d="M124.8,110.1l1-1c1.1-1.1,1.1-2.9,0-4c-1.1-1.1-2.9-1.1-4,0l0,0l-8.1,8.1c-0.5,0.5-0.8,1.2-0.8,2
			c0,1.6,1.3,2.8,2.8,2.8c0.8,0,1.5-0.3,2-0.8l1-1l17.1,19.7l0,0l8.5-8.5l0,0L124.8,110.1z"/>
		<path class="st12" d="M125.3,148.1v1.4H88.5v-1.4c0-3.1,2.5-5.7,5.7-5.7h25.5C122.8,142.5,125.3,145,125.3,148.1z"/>
		<path class="st13" d="M118.9,135.4c2,0,3.5,1.6,3.5,3.5c0,2-1.6,3.5-3.5,3.5c0,0,0,0,0,0H94.9c-2,0-3.5-1.6-3.5-3.5
			c0-2,1.6-3.5,3.5-3.5c0,0,0,0,0,0H118.9z"/>
		<path class="st11" d="M107.7,117.1c1.6,1.7,1.6,4.4-0.1,6c-1.6,1.6-4.3,1.6-5.9,0l-12-12c-1.7-1.6-1.7-4.3-0.1-6
			c1.6-1.7,4.3-1.7,6-0.1c0,0,0.1,0.1,0.1,0.1L107.7,117.1z"/>
		<path class="st6" d="M101.7,103.1c-0.5,0.6-0.5,1.4,0,2c0.6,0.5,1.4,0.5,2,0c0.5-0.5,0.5-1.4,0-1.9
			C103.2,102.6,102.3,102.6,101.7,103.1C101.8,103.1,101.8,103.1,101.7,103.1z"/>
		<path class="st14" d="M122.9,141.8c0.6-0.8,1-1.9,1-2.9c0-2.7-2.2-5-5-5H94.9c-2.7,0-5,2.2-5,4.9c0,1.1,0.3,2.1,1,2.9
			c-2.3,1.2-3.8,3.6-3.8,6.3v1.4c0,0.8,0.6,1.4,1.4,1.4h36.8c0.8,0,1.4-0.6,1.4-1.4v-1.4C126.7,145.5,125.2,143.1,122.9,141.8z
			 M93.4,137.4c0.4-0.4,0.9-0.6,1.5-0.6h24.1c1.2,0,2.1,1,2.1,2.1c0,1.2-0.9,2.1-2.1,2.1H94.9c-1.2,0-2.1-1-2.1-2.1
			C92.7,138.3,93,137.8,93.4,137.4z M89.9,148.1c0-2.3,1.9-4.2,4.2-4.2h25.5c2.3,0,4.2,1.9,4.2,4.2H89.9z"/>
		<path class="st6" d="M113.8,93.1c-0.5-0.6-1.4-0.6-2,0c0,0,0,0,0,0l-6,6c-0.6,0.5-0.6,1.4,0,2c0.5,0.6,1.4,0.6,2,0l6-6
			C114.3,94.6,114.3,93.7,113.8,93.1C113.8,93.2,113.8,93.1,113.8,93.1z"/>
	</g>
</g>
</svg>
