<svg xmlns="http://www.w3.org/2000/svg" viewBox="0 0 188.86 165.09"><defs><style>.cls-1,.cls-10,.cls-6{fill:#f05e23;}.cls-1,.cls-10,.cls-11,.cls-2,.cls-3,.cls-7,.cls-8,.cls-9{stroke:#b2550f;stroke-linecap:round;stroke-linejoin:round;}.cls-1,.cls-3{stroke-width:5px;}.cls-2,.cls-5{fill:#febf00;}.cls-2,.cls-8,.cls-9{stroke-width:5.09px;}.cls-11,.cls-3,.cls-9{fill:#ff8831;}.cls-4,.cls-8{fill:#87c6c0;}.cls-7{fill:#ffaf5e;stroke-width:5px;}.cls-10{stroke-width:1.43px;}.cls-11{stroke-width:2.86px;}.cls-12{fill:#b2550f;}</style></defs><title>justice-data</title><g id="Layer_2" data-name="Layer 2"><g id="Layer_1-2" data-name="Layer 1"><g id="Flat"><path class="cls-1" d="M26.27,133.28H11.41a8.91,8.91,0,0,1-8.91-8.91V59a8.91,8.91,0,0,1,8.91-8.91H26.27v83.19Z"/><path class="cls-2" d="M11.41,133.28H127.57a23.5,23.5,0,0,0,23.5-23.49V11.46a8.92,8.92,0,0,0-8.92-8.92H29.24a8.92,8.92,0,0,0-8.91,8.92V124.37A8.91,8.91,0,0,1,11.41,133.28Z"/><path class="cls-3" d="M142.15,2.54H29.24a8.92,8.92,0,0,0-8.91,8.92V26.31H151.07V11.46A8.92,8.92,0,0,0,142.15,2.54Z"/><path class="cls-4" d="M29.24,11.46h5.94V17.4H29.24Z"/><path class="cls-5" d="M41.13,11.46h5.94V17.4H41.13Z"/><path class="cls-6" d="M53,11.46h6V17.4H53Z"/><path class="cls-7" d="M76.78,62A20.8,20.8,0,0,0,56,41.17a20.59,20.59,0,0,0-6.56,1.07L56,62,70.69,76.68A20.72,20.72,0,0,0,76.78,62Z"/><path class="cls-8" d="M49.42,42.24a20.79,20.79,0,0,0-2.74,38.33L56,62Z"/><path class="cls-9" d="M46.68,80.57a20.79,20.79,0,0,0,24-3.89L56,62Z"/><path class="cls-6" d="M64.9,56h0a3,3,0,0,1,.94-4.1L86.37,39.1a6,6,0,0,1,3.15-.9h34.8a3,3,0,0,1,3,3h0a3,3,0,0,1-3,3H90.37a3,3,0,0,0-1.57.45L69,57A3,3,0,0,1,64.9,56Z"/><path class="cls-6" d="M136.21,38.2h0a3,3,0,0,1,3,3h0a3,3,0,0,1-3,3h0a3,3,0,0,1-3-3h0A3,3,0,0,1,136.21,38.2Z"/><path class="cls-6" d="M100.55,50.09h35.66a3,3,0,0,1,3,3h0a3,3,0,0,1-3,3H100.55a3,3,0,0,1-3-3h0A3,3,0,0,1,100.55,50.09Z"/><path class="cls-6" d="M44.1,94.66h0a3,3,0,0,1,3,3h0a3,3,0,0,1-3,3h0a3,3,0,0,1-3-3h0A3,3,0,0,1,44.1,94.66Z"/><path class="cls-6" d="M56,94.66H73.81a3,3,0,0,1,3,3h0a3,3,0,0,1-3,3H56a3,3,0,0,1-3-3h0A3,3,0,0,1,56,94.66Z"/><path class="cls-6" d="M38.16,106.54H67.87a3,3,0,0,1,3,3h0a3,3,0,0,1-3,3H38.16a3,3,0,0,1-3-3h0A3,3,0,0,1,38.16,106.54Z"/></g><path class="cls-7" d="M184.79,147a10,10,0,0,1,.34,10.2,10.21,10.21,0,0,1-16.2,2.39,8,8,0,0,1-.56-.62l-8.66-9.94L172.78,136l9.94,8.67A10.4,10.4,0,0,1,184.79,147Z"/><polygon class="cls-2" points="172.78 135.97 159.71 149.05 154.34 142.88 154.38 142.85 166.62 130.61 166.63 130.6 172.78 135.97"/><path class="cls-7" d="M148.43,81.45a6.11,6.11,0,1,1-8.64,8.64L122.5,72.81a6.11,6.11,0,0,1,4.32-10.43,6,6,0,0,1,4.32,1.79Z"/><path class="cls-7" d="M141.23,91.53l-7.17,7.17,0,0L122.5,110.25l0,0-7.17,7.17L113.86,116,96.58,98.73l-1.44-1.44,25.92-25.92,1.44,1.44,17.29,17.28Z"/><path class="cls-7" d="M138.35,105.93l1.44-1.44a4.07,4.07,0,0,0-5.73-5.79l-11.59,11.59a4,4,0,0,0-1.16,2.84,4.07,4.07,0,0,0,6.95,2.89l1.44-1.44,24.64,28.3,0,0,12.24-12.24h0Z"/><path class="cls-10" d="M139.1,160.55v2H86.15v-2a8.15,8.15,0,0,1,8.14-8.15H131A8.14,8.14,0,0,1,139.1,160.55Z"/><path class="cls-11" d="M129.94,142.22a5.09,5.09,0,1,1,0,10.18H95.31a5.09,5.09,0,1,1,0-10.18Z"/><path class="cls-7" d="M113.86,116a6.11,6.11,0,0,1-8.64,8.64L87.94,107.37a6.11,6.11,0,1,1,8.64-8.64Z"/><path class="cls-4" d="M105.22,95.85a2,2,0,1,0,2.88,0A2,2,0,0,0,105.22,95.85Z"/><path class="cls-12" d="M135.68,151.53a7,7,0,0,0,1.39-4.22,7.14,7.14,0,0,0-7.13-7.13H95.31a7.12,7.12,0,0,0-5.74,11.35,10.21,10.21,0,0,0-5.46,9v2a2,2,0,0,0,2,2H139.1a2,2,0,0,0,2-2v-2A10.19,10.19,0,0,0,135.68,151.53Zm-42.53-6.38a3,3,0,0,1,2.16-.89h34.63a3.06,3.06,0,0,1,3.05,3.05,3.06,3.06,0,0,1-3.05,3.06H95.31a3.06,3.06,0,0,1-2.16-5.22Zm-5,15.4a6.12,6.12,0,0,1,6.11-6.11H131a6.12,6.12,0,0,1,6.11,6.11Z"/><path class="cls-12" d="M186.5,145.91a12.51,12.51,0,0,0-2.45-2.81l-9.52-8.3a1.59,1.59,0,0,0-.26-.32,1.9,1.9,0,0,0-.55-.39l-5.75-5-26.64-23.24a6.11,6.11,0,0,0-.1-8.54,6.25,6.25,0,0,0-1.69-1.19L142,93.64a8.36,8.36,0,0,0,2.11.27A8.15,8.15,0,0,0,149.87,80L132.58,62.73A8.14,8.14,0,0,0,119,70.59L94.37,95.18a8.25,8.25,0,0,0-2.11-.27,8.14,8.14,0,0,0-5.76,13.9l17.28,17.29a8.15,8.15,0,0,0,13.63-7.87l2.46-2.46a6,6,0,0,0,1.19,1.69,6.11,6.11,0,0,0,8.54.1L158,150.16a1.81,1.81,0,0,0,.28.34,1.14,1.14,0,0,1,.11.11l8.46,9.71c.21.25.43.49.67.73a12.12,12.12,0,0,0,8.61,3.58,12.32,12.32,0,0,0,10.81-6.42A12.06,12.06,0,0,0,186.5,145.91ZM157.13,143l9.59-9.59,3.08,2.68-10,10Zm-24.64-28.31,5.95-6,25.21,22-9.2,9.2Zm-8.55-49.06a4.06,4.06,0,0,1,5.76,0L147,82.89a4.07,4.07,0,1,1-5.76,5.76L123.94,71.37h0A4.07,4.07,0,0,1,123.94,65.61Zm-11.52,57.61a4.09,4.09,0,0,1-5.76,0L89.38,105.93a4.07,4.07,0,0,1,5.76-5.76l17.28,17.29A4.07,4.07,0,0,1,112.42,123.22ZM98,97.29l23-23,17.29,17.28-5.71,5.71-.06.05-11.51,11.52-.07.07-5.7,5.7Zm27.36,17.88a2,2,0,0,1-2-2,2,2,0,0,1,.57-1.41l11.57-11.57a2,2,0,0,1,3.45,1.46,2,2,0,0,1-.59,1.44l-1.43,1.43,0,0-8.62,8.62h0l-1.44,1.44A2,2,0,0,1,125.38,115.17Zm58,41.05a8.26,8.26,0,0,1-6.1,4.25,8.06,8.06,0,0,1-6.88-2.3c-.16-.16-.31-.32-.45-.49l0,0-7.41-8.52,10.39-10.38,8.5,7.41,0,0a8.71,8.71,0,0,1,1.68,1.93A8,8,0,0,1,183.35,156.22Z"/><path class="cls-4" d="M122.5,81.45a2,2,0,0,0-2.88,0L111,90.09A2,2,0,1,0,113.86,93l8.64-8.64A2,2,0,0,0,122.5,81.45Z"/></g></g></svg>