<?xml version="1.0" encoding="utf-8"?>
<!-- Generator: Adobe Illustrator 23.0.2, SVG Export Plug-In . SVG Version: 6.00 Build 0)  -->
<svg version="1.1" id="Layer_1" xmlns="http://www.w3.org/2000/svg" xmlns:xlink="http://www.w3.org/1999/xlink" x="0px" y="0px"
	 viewBox="0 0 100 100" style="enable-background:new 0 0 100 100;" xml:space="preserve">
<style type="text/css">
	.st0{fill:#46BC93;}
</style>
<g>
	<path class="st0" d="M86.7,17.3H24.1v-3c0-4.9-4-8.9-8.9-8.9s-8.9,4-8.9,8.9v65.6c0,4.9,4,8.9,8.9,8.9h71.5c4.9,0,8.9-4,8.9-8.9
		V26.2C95.7,21.3,91.7,17.3,86.7,17.3z M15.2,8.3c3.3,0,6,2.7,6,6v52.9c-3.4-3.1-8.5-3.1-11.9,0V14.3C9.2,11,11.9,8.3,15.2,8.3z
		 M92.7,79.8c0,3.3-2.7,6-6,6H15.2c-3.3,0-6-2.7-6-6v-6c0-3.3,2.7-6,6-6s6,2.7,6,6c0,0.8,0.7,1.5,1.5,1.5c0.8,0,1.5-0.7,1.5-1.5
		V20.2h62.6c3.3,0,6,2.7,6,6V79.8z"/>
	<path class="st0" d="M83.7,69.4c-0.8,0-1.5,0.7-1.5,1.5v4.5h-3v-1.5c0-0.8-0.7-1.5-1.5-1.5c-0.8,0-1.5,0.7-1.5,1.5v1.5h-4.5v-1.5
		c0-0.8-0.7-1.5-1.5-1.5c-0.8,0-1.5,0.7-1.5,1.5v1.5h-4.5v-1.5c0-0.8-0.7-1.5-1.5-1.5c-0.8,0-1.5,0.7-1.5,1.5v1.5h-4.5v-1.5
		c0-0.8-0.7-1.5-1.5-1.5c-0.8,0-1.5,0.7-1.5,1.5v1.5h-4.5v-1.5c0-0.8-0.7-1.5-1.5-1.5c-0.8,0-1.5,0.7-1.5,1.5v1.5H42v-1.5
		c0-0.8-0.7-1.5-1.5-1.5c-0.8,0-1.5,0.7-1.5,1.5v1.5h-4.5v-4.5h1.5c0.8,0,1.5-0.7,1.5-1.5c0-0.8-0.7-1.5-1.5-1.5h-1.5v-4.5h1.5
		c0.8,0,1.5-0.7,1.5-1.5c0-0.8-0.7-1.5-1.5-1.5h-1.5V56h1.5c0.8,0,1.5-0.7,1.5-1.5c0-0.8-0.7-1.5-1.5-1.5h-1.5v-4.5h1.5
		c0.8,0,1.5-0.7,1.5-1.5c0-0.8-0.7-1.5-1.5-1.5h-1.5v-4.5h1.5c0.8,0,1.5-0.7,1.5-1.5c0-0.8-0.7-1.5-1.5-1.5h-1.5v-4.5h1.5
		c0.8,0,1.5-0.7,1.5-1.5c0-0.8-0.7-1.5-1.5-1.5h-1.5v-4.5h3c0.8,0,1.5-0.7,1.5-1.5c0-0.8-0.7-1.5-1.5-1.5h-4.5
		c-0.8,0-1.5,0.7-1.5,1.5v50.7h-1.5c-0.8,0-1.5,0.7-1.5,1.5c0,0.8,0.7,1.5,1.5,1.5h1.5v1.5c0,0.8,0.7,1.5,1.5,1.5
		c0.8,0,1.5-0.7,1.5-1.5v-1.5h49.2c0.8,0,1.5-0.7,1.5-1.5v-6C85.2,70.1,84.6,69.4,83.7,69.4z"/>
	<path class="st0" d="M41.7,51.5l5.9,1.2c0,0.1,0,0.1,0.1,0.2l-3.3,5c-0.4,0.6-0.3,1.4,0.2,1.9l4.2,4.2c0.5,0.5,1.3,0.6,1.9,0.2
		l5-3.3l0.2,0.1l1.2,5.9c0.1,0.7,0.8,1.2,1.5,1.2h6c0.7,0,1.3-0.5,1.5-1.2l1.2-5.9l0.2-0.1l5,3.3c0.6,0.4,1.4,0.3,1.9-0.2l4.2-4.2
		c0.5-0.5,0.6-1.3,0.2-1.9l-3.3-5c0-0.1,0-0.1,0.1-0.2l5.9-1.2c0.7-0.1,1.2-0.8,1.2-1.5v-6c0-0.7-0.5-1.3-1.2-1.5l-5.9-1.2
		c0-0.1,0-0.1-0.1-0.2l3.3-5c0.4-0.6,0.3-1.4-0.2-1.9L74,30.2c-0.5-0.5-1.3-0.6-1.9-0.2l-5,3.3L67,33.3l-1.2-5.9
		c-0.1-0.7-0.8-1.2-1.5-1.2h-6c-0.7,0-1.3,0.5-1.5,1.2l-1.2,5.9l-0.2,0.1l-5-3.3c-0.6-0.4-1.4-0.3-1.9,0.2l-4.2,4.2
		c-0.5,0.5-0.6,1.3-0.2,1.9l3.3,5c0,0.1,0,0.1-0.1,0.2l-5.9,1.2c-0.7,0.1-1.2,0.8-1.2,1.5v6C40.5,50.7,41,51.4,41.7,51.5z
		 M43.5,45.3l5.5-1.1c0.5-0.1,0.9-0.5,1.1-1c0.2-0.5,0.4-1,0.6-1.4c0.2-0.5,0.2-1-0.1-1.5l-3.1-4.7l2.5-2.5l4.7,3.1
		c0.4,0.3,1,0.3,1.5,0.1c0.5-0.2,0.9-0.4,1.4-0.6c0.5-0.2,0.9-0.6,1-1.1l1.1-5.5h3.5l1.1,5.5c0.1,0.5,0.5,0.9,1,1.1
		c0.5,0.2,1,0.4,1.4,0.6c0.5,0.2,1,0.2,1.5-0.1l4.7-3.1l2.5,2.5l-3.1,4.7c-0.3,0.4-0.3,1-0.1,1.5c0.2,0.5,0.4,0.9,0.6,1.4
		c0.2,0.5,0.6,0.9,1.1,1l5.5,1.1v3.5l-5.5,1.1c-0.5,0.1-0.9,0.5-1.1,1c-0.2,0.5-0.4,1-0.6,1.4c-0.2,0.5-0.2,1,0.1,1.5l3.1,4.7
		l-2.5,2.5l-4.7-3.1c-0.4-0.3-1-0.3-1.5-0.1c-0.5,0.2-0.9,0.4-1.4,0.6c-0.5,0.2-0.9,0.6-1,1.1l-1.1,5.5h-3.5l-1.1-5.5
		c-0.1-0.5-0.5-0.9-1-1.1c-0.5-0.2-1-0.4-1.4-0.6c-0.5-0.2-1-0.2-1.5,0.1L50,60.9l-2.5-2.5l3.1-4.7c0.3-0.4,0.3-1,0.1-1.5
		c-0.2-0.5-0.4-0.9-0.6-1.4c-0.2-0.5-0.6-0.9-1.1-1l-5.5-1.1V45.3z"/>
	<path class="st0" d="M61.4,56c4.9,0,8.9-4,8.9-8.9s-4-8.9-8.9-8.9c-4.9,0-8.9,4-8.9,8.9C52.5,52,56.5,56,61.4,56z M61.4,41.1
		c3.3,0,6,2.7,6,6c0,3.3-2.7,6-6,6s-6-2.7-6-6C55.4,43.8,58.1,41.1,61.4,41.1z"/>
</g>
</svg>
