<?xml version="1.0" encoding="utf-8"?>
<!-- Generator: Adobe Illustrator 23.0.1, SVG Export Plug-In . SVG Version: 6.00 Build 0)  -->
<svg version="1.1" id="icons" xmlns="http://www.w3.org/2000/svg" xmlns:xlink="http://www.w3.org/1999/xlink" x="0px" y="0px"
	 viewBox="0 0 100 100" style="enable-background:new 0 0 100 100;" xml:space="preserve">
<style type="text/css">
	.st0{display:none;}
	.st1{display:inline;fill:#46BC93;}
	.st2{fill:#46BC93;}
</style>
<g id="ic1_1_" class="st0">
	<path class="st1" d="M74.4,55.2c-0.5-1.3-1.2-2.5-1.9-3.6V30.5c0-6-2.3-11.6-6.6-15.9C61.7,10.4,56.1,8,50.1,8l0,0
		c-6,0-11.6,2.3-15.9,6.6c-4.2,4.2-6.6,9.9-6.6,15.9v3.1h9v-3.1c0-3.6,1.4-7,3.9-9.5s5.9-3.9,9.5-3.9l0,0c7.4,0,13.5,6,13.5,13.5
		v12.3c-1-0.6-2.1-1.2-3.2-1.6C57,39.7,53.6,39,50,39s-7,0.7-10.3,2.1c-3.2,1.3-6,3.2-8.4,5.7c-2.4,2.4-4.3,5.3-5.7,8.4
		c-1.4,3.3-2.1,6.7-2.1,10.3c0,3.6,0.7,7,2.1,10.3c1.3,3.2,3.2,6,5.7,8.4c2.4,2.4,5.3,4.3,8.4,5.7C43,91.3,46.4,92,50,92
		s7-0.7,10.3-2.1c3.2-1.3,6-3.2,8.4-5.7c2.4-2.4,4.3-5.3,5.7-8.4c1.4-3.3,2.1-6.7,2.1-10.3C76.5,61.9,75.8,58.5,74.4,55.2z M50,83
		c-9.6,0-17.5-7.8-17.5-17.5S40.4,48,50,48s17.5,7.8,17.5,17.5S59.6,83,50,83z"/>
	<circle class="st1" cx="50.1" cy="65.6" r="7.4"/>
</g>
<g>
	<path class="st2" d="M19.22,25.11v1.56h3.13v-3.13h-1.56C19.92,23.55,19.22,24.25,19.22,25.11L19.22,25.11z M19.22,25.11"/>
	<rect x="19.22" y="55.56" class="st2" width="3.13" height="3.21"/>
	<rect x="19.22" y="49.14" class="st2" width="3.13" height="3.21"/>
	<rect x="19.22" y="68.4" class="st2" width="3.13" height="3.21"/>
	<rect x="19.22" y="61.98" class="st2" width="3.13" height="3.21"/>
	<rect x="19.22" y="42.72" class="st2" width="3.13" height="3.21"/>
	<rect x="19.22" y="81.24" class="st2" width="3.13" height="3.21"/>
	<rect x="19.22" y="36.3" class="st2" width="3.13" height="3.21"/>
	<rect x="19.22" y="74.82" class="st2" width="3.13" height="3.21"/>
	<rect x="19.22" y="29.88" class="st2" width="3.13" height="3.21"/>
	<path class="st2" d="M19.22,89.22c0,0.86,0.7,1.56,1.56,1.56h1.56v-3.13h-3.13V89.22z M19.22,89.22"/>
	<rect x="31.73" y="87.65" class="st2" width="3.13" height="3.13"/>
	<rect x="37.98" y="87.65" class="st2" width="3.13" height="3.13"/>
	<rect x="50.49" y="87.65" class="st2" width="3.13" height="3.13"/>
	<rect x="56.75" y="87.65" class="st2" width="3.13" height="3.13"/>
	<rect x="44.24" y="87.65" class="st2" width="3.13" height="3.13"/>
	<rect x="25.47" y="87.65" class="st2" width="3.13" height="3.13"/>
	<path class="st2" d="M63,90.78h1.56c0.86,0,1.56-0.7,1.56-1.56v-1.56H63V90.78z M63,90.78"/>
	<rect x="63" y="82.96" class="st2" width="3.13" height="3.13"/>
	<rect x="23.91" y="23.55" class="st2" width="3.13" height="3.13"/>
	<path class="st2" d="M84.79,23.04c-0.01-0.05-0.03-0.1-0.05-0.15c-0.07-0.16-0.17-0.31-0.3-0.44l-17.2-17.2
		c-0.13-0.13-0.28-0.23-0.45-0.3c-0.04-0.02-0.09-0.04-0.13-0.05c-0.14-0.05-0.29-0.08-0.43-0.09c-0.04-0.01-0.07-0.03-0.1-0.03
		H39.55c-0.86,0-1.56,0.7-1.56,1.56v7.82h-7.82c-0.86,0-1.56,0.7-1.56,1.56v64.11c0,0.86,0.7,1.56,1.56,1.56h43.78
		c0.86,0,1.56-0.7,1.56-1.56v-7.82h7.82c0.86,0,1.56-0.7,1.56-1.56V23.55c0-0.03-0.02-0.06-0.02-0.1
		C84.86,23.31,84.83,23.17,84.79,23.04L84.79,23.04z M67.69,10.12l11.86,11.86H67.69V10.12z M72.38,78.27H31.73V17.29h6.25v53.16
		c0,0.86,0.7,1.56,1.56,1.56h32.84V78.27z M81.76,68.89H41.11V7.91h23.45v15.64c0,0.86,0.7,1.56,1.56,1.56h15.64V68.89z
		 M81.76,68.89"/>
	<path class="st2" d="M50.49,42.31c0,6.05,4.9,10.95,10.95,10.95s10.95-4.9,10.95-10.95s-4.9-10.95-10.95-10.95
		C55.39,31.37,50.5,36.27,50.49,42.31L50.49,42.31z M69.25,42.31c0,4.32-3.5,7.82-7.82,7.82c-4.32,0-7.82-3.5-7.82-7.82
		c0-4.32,3.5-7.82,7.82-7.82C65.75,34.5,69.25,37.99,69.25,42.31L69.25,42.31z M69.25,42.31"/>
	<path class="st2" d="M59.87,37.62v3.13h-3.13v3.13h3.13V47H63v-3.13h3.13v-3.13H63v-3.13H59.87z M59.87,37.62"/>
</g>
</svg>
