<?xml version="1.0" encoding="utf-8"?>
<!-- Generator: Adobe Illustrator 23.0.1, SVG Export Plug-In . SVG Version: 6.00 Build 0)  -->
<svg version="1.1" id="icons" xmlns="http://www.w3.org/2000/svg" xmlns:xlink="http://www.w3.org/1999/xlink" x="0px" y="0px"
	 viewBox="0 0 100 100" style="enable-background:new 0 0 100 100;" xml:space="preserve">
<style type="text/css">
	.st0{display:none;}
	.st1{display:inline;fill:#46BC93;}
	.st2{fill:#46BC93;}
</style>
<g id="ic1_1_" class="st0">
	<path class="st1" d="M74.4,55.2c-0.5-1.3-1.2-2.5-1.9-3.6V30.5c0-6-2.3-11.6-6.6-15.9C61.7,10.4,56.1,8,50.1,8l0,0
		c-6,0-11.6,2.3-15.9,6.6c-4.2,4.2-6.6,9.9-6.6,15.9v3.1h9v-3.1c0-3.6,1.4-7,3.9-9.5s5.9-3.9,9.5-3.9l0,0c7.4,0,13.5,6,13.5,13.5
		v12.3c-1-0.6-2.1-1.2-3.2-1.6C57,39.7,53.6,39,50,39s-7,0.7-10.3,2.1c-3.2,1.3-6,3.2-8.4,5.7c-2.4,2.4-4.3,5.3-5.7,8.4
		c-1.4,3.3-2.1,6.7-2.1,10.3c0,3.6,0.7,7,2.1,10.3c1.3,3.2,3.2,6,5.7,8.4c2.4,2.4,5.3,4.3,8.4,5.7C43,91.3,46.4,92,50,92
		s7-0.7,10.3-2.1c3.2-1.3,6-3.2,8.4-5.7c2.4-2.4,4.3-5.3,5.7-8.4c1.4-3.3,2.1-6.7,2.1-10.3C76.5,61.9,75.8,58.5,74.4,55.2z M50,83
		c-9.6,0-17.5-7.8-17.5-17.5S40.4,48,50,48s17.5,7.8,17.5,17.5S59.6,83,50,83z"/>
	<circle class="st1" cx="50.1" cy="65.6" r="7.4"/>
</g>
<g>
	<path class="st2" d="M50,30.74c-10.15,0-18.41,8.26-18.41,18.41S39.85,67.56,50,67.56s18.41-8.26,18.41-18.41S60.15,30.74,50,30.74
		L50,30.74z M50,64.93c-8.7,0-15.78-7.08-15.78-15.78c0-8.7,7.08-15.78,15.78-15.78c8.7,0,15.78,7.08,15.78,15.78
		C65.78,57.85,58.7,64.93,50,64.93L50,64.93z M50,64.93"/>
	<path class="st2" d="M81.84,41.26h-2.65c-0.68-2.51-1.67-4.92-2.97-7.18l1.88-1.88c0.69-0.69,1.07-1.61,1.07-2.58
		c0-0.98-0.38-1.9-1.07-2.59l-5.99-5.99c-1.38-1.38-3.79-1.38-5.17,0l-1.87,1.88c-2.26-1.3-4.66-2.29-7.18-2.97v-2.65
		c0-2.02-1.64-3.66-3.66-3.66h-8.46c-2.02,0-3.66,1.64-3.66,3.66v2.65c-2.51,0.68-4.92,1.67-7.18,2.97l-1.88-1.88
		c-1.38-1.38-3.79-1.38-5.17,0l-5.99,5.99c-0.69,0.68-1.07,1.61-1.07,2.58c0,0.98,0.38,1.9,1.07,2.59l1.88,1.87
		c-1.3,2.26-2.29,4.66-2.97,7.18h-2.65c-2.02,0-3.66,1.64-3.66,3.66v8.46c0,2.02,1.64,3.66,3.66,3.66h2.65
		c0.68,2.51,1.67,4.92,2.97,7.18l-1.88,1.88c-0.69,0.69-1.07,1.61-1.07,2.58c0,0.98,0.38,1.9,1.07,2.59l5.99,5.99
		c1.38,1.38,3.79,1.38,5.17,0l1.87-1.88c2.26,1.3,4.66,2.29,7.18,2.97v2.65c0,2.02,1.64,3.66,3.66,3.66h8.46
		c2.02,0,3.66-1.64,3.66-3.66v-2.65c2.51-0.68,4.92-1.67,7.18-2.97l1.88,1.88c1.38,1.38,3.79,1.38,5.17,0l5.98-5.99
		c0.69-0.69,1.07-1.61,1.07-2.59c0-0.97-0.38-1.89-1.07-2.58l-1.88-1.88c1.3-2.26,2.29-4.66,2.97-7.18h2.65
		c2.02,0,3.66-1.64,3.66-3.66v-8.46C85.5,42.9,83.86,41.26,81.84,41.26L81.84,41.26z M82.87,53.38c0,0.57-0.46,1.03-1.03,1.03h-4.72
		l-0.24,1.01c-0.69,2.95-1.84,5.74-3.44,8.3l-0.55,0.89l3.34,3.34c0.4,0.4,0.4,1.05,0,1.45l-5.98,5.99c-0.4,0.4-1.05,0.4-1.45,0
		l-3.34-3.34l-0.89,0.55c-2.56,1.6-5.35,2.75-8.3,3.44l-1.01,0.24v4.72c0,0.57-0.46,1.03-1.03,1.03h-8.46
		c-0.57,0-1.03-0.46-1.03-1.03v-4.72l-1.01-0.24c-2.95-0.69-5.74-1.84-8.3-3.44l-0.89-0.55l-3.34,3.34c-0.4,0.4-1.05,0.4-1.45,0
		l-5.99-5.99c-0.4-0.4-0.4-1.06,0-1.45l3.34-3.34l-0.55-0.89c-1.6-2.56-2.75-5.35-3.44-8.3l-0.24-1.01h-4.72
		c-0.57,0-1.03-0.46-1.03-1.03v-8.46c0-0.57,0.46-1.03,1.03-1.03h4.72l0.24-1.01c0.69-2.95,1.84-5.74,3.44-8.3l0.55-0.89l-3.34-3.34
		c-0.4-0.4-0.4-1.05,0-1.45l5.99-5.99c0.4-0.4,1.05-0.4,1.45,0l3.34,3.34l0.89-0.55c2.56-1.6,5.35-2.75,8.3-3.44l1.01-0.24v-4.72
		c0-0.57,0.46-1.03,1.03-1.03h8.46c0.57,0,1.03,0.46,1.03,1.03v4.72l1.01,0.24c2.95,0.69,5.74,1.84,8.3,3.44l0.89,0.55l3.34-3.34
		c0.4-0.4,1.05-0.4,1.45,0l5.98,5.99c0.4,0.4,0.4,1.06,0,1.45l-3.34,3.34l0.55,0.89c1.6,2.56,2.75,5.35,3.44,8.3l0.24,1.01h4.72
		c0.57,0,1.03,0.46,1.03,1.03V53.38z M82.87,53.38"/>
	<path class="st2" d="M50,36c-7.25,0-13.15,5.9-13.15,13.15c0,7.25,5.9,13.15,13.15,13.15c7.25,0,13.15-5.9,13.15-13.15
		C63.15,41.9,57.25,36,50,36L50,36z M50,59.67c-5.8,0-10.52-4.72-10.52-10.52S44.2,38.63,50,38.63s10.52,4.72,10.52,10.52
		S55.8,59.67,50,59.67L50,59.67z M50,59.67"/>
</g>
</svg>
