<?xml version="1.0" encoding="utf-8"?>
<!-- Generator: Adobe Illustrator 23.0.1, SVG Export Plug-In . SVG Version: 6.00 Build 0)  -->
<svg version="1.1" id="icons" xmlns="http://www.w3.org/2000/svg" xmlns:xlink="http://www.w3.org/1999/xlink" x="0px" y="0px"
	 viewBox="0 0 100 100" style="enable-background:new 0 0 100 100;" xml:space="preserve">
<style type="text/css">
	.st0{display:none;}
	.st1{display:inline;fill:#46BC93;}
	.st2{clip-path:url(#SVGID_2_);fill:#46BC93;}
	.st3{fill:#46BC93;}
</style>
<g id="ic1_1_" class="st0">
	<path class="st1" d="M74.4,55.2c-0.5-1.3-1.2-2.5-1.9-3.6V30.5c0-6-2.3-11.6-6.6-15.9C61.7,10.4,56.1,8,50.1,8l0,0
		c-6,0-11.6,2.3-15.9,6.6c-4.2,4.2-6.6,9.9-6.6,15.9v3.1h9v-3.1c0-3.6,1.4-7,3.9-9.5s5.9-3.9,9.5-3.9l0,0c7.4,0,13.5,6,13.5,13.5
		v12.3c-1-0.6-2.1-1.2-3.2-1.6C57,39.7,53.6,39,50,39s-7,0.7-10.3,2.1c-3.2,1.3-6,3.2-8.4,5.7c-2.4,2.4-4.3,5.3-5.7,8.4
		c-1.4,3.3-2.1,6.7-2.1,10.3c0,3.6,0.7,7,2.1,10.3c1.3,3.2,3.2,6,5.7,8.4c2.4,2.4,5.3,4.3,8.4,5.7C43,91.3,46.4,92,50,92
		s7-0.7,10.3-2.1c3.2-1.3,6-3.2,8.4-5.7c2.4-2.4,4.3-5.3,5.7-8.4c1.4-3.3,2.1-6.7,2.1-10.3C76.5,61.9,75.8,58.5,74.4,55.2z M50,83
		c-9.6,0-17.5-7.8-17.5-17.5S40.4,48,50,48s17.5,7.8,17.5,17.5S59.6,83,50,83z"/>
	<circle class="st1" cx="50.1" cy="65.6" r="7.4"/>
</g>
<g>
	<g>
		<defs>
			<rect id="SVGID_1_" x="13.72" y="5" width="70.28" height="90.56"/>
		</defs>
		<clipPath id="SVGID_2_">
			<use xlink:href="#SVGID_1_"  style="overflow:visible;"/>
		</clipPath>
		<path class="st2" d="M83.73,66.66l-5.65-12.03c-0.22-0.47-0.69-0.76-1.2-0.76c-1.21,0-54.81,0-56.02,0c-0.51,0-0.98,0.3-1.2,0.76
			L14,66.66c-0.83,1.76,0.42,3.8,2.31,3.8h3.22v21.93c0,1.74,1.37,3.16,3.05,3.16h52.57c1.68,0,3.05-1.42,3.05-3.16v-7.54
			c0-0.73-0.59-1.33-1.33-1.33c-0.73,0-1.33,0.59-1.33,1.33v7.54c0,0.28-0.18,0.51-0.4,0.51H50.19V61.14l3.52,7.5
			c0.52,1.11,1.63,1.83,2.82,1.83h19.01v8.19c0,0.73,0.59,1.33,1.33,1.33c0.73,0,1.33-0.59,1.33-1.33v-8.19h3.22
			C83.31,70.47,84.56,68.43,83.73,66.66L83.73,66.66z M16.39,67.81c0-0.01,0-0.01,0.01-0.02l5.29-11.27h25.08l-5.16,10.98
			c-0.08,0.17-0.23,0.3-0.42,0.3C40.34,67.81,17.64,67.81,16.39,67.81L16.39,67.81z M47.53,92.9H22.58c-0.22,0-0.4-0.23-0.4-0.51
			V70.47h19.01c1.19,0,2.3-0.72,2.82-1.83l3.52-7.5V92.9z M56.53,67.81c-0.17,0-0.33-0.12-0.42-0.3l-5.16-10.98h25.08l5.29,11.27
			c0,0.01,0,0.01,0.01,0.02C80.59,67.81,57.88,67.81,56.53,67.81L56.53,67.81z M56.53,67.81"/>
	</g>
	<path class="st3" d="M32.95,23.34h-2.43c-0.73,0-1.33,0.59-1.33,1.33S29.78,26,30.52,26h2.43c0.73,0,1.33-0.59,1.33-1.33
		S33.68,23.34,32.95,23.34L32.95,23.34z M32.95,23.34"/>
	<path class="st3" d="M67.21,23.34h-2.43c-0.73,0-1.33,0.59-1.33,1.33S64.04,26,64.77,26h2.43c0.73,0,1.33-0.59,1.33-1.33
		S67.94,23.34,67.21,23.34L67.21,23.34z M67.21,23.34"/>
	<path class="st3" d="M36.23,31.96c-0.37-0.63-1.18-0.85-1.81-0.49l-2.1,1.22c-0.63,0.37-0.85,1.18-0.49,1.81
		c0.37,0.63,1.18,0.85,1.81,0.49l2.1-1.22C36.38,33.41,36.6,32.6,36.23,31.96L36.23,31.96z M36.23,31.96"/>
	<path class="st3" d="M65.9,14.84c-0.37-0.63-1.18-0.85-1.81-0.49l-2.11,1.22c-0.63,0.37-0.85,1.18-0.49,1.81
		c0.37,0.63,1.18,0.85,1.81,0.49l2.11-1.22C66.05,16.28,66.26,15.47,65.9,14.84L65.9,14.84z M65.9,14.84"/>
	<path class="st3" d="M58.7,7.64c-0.63-0.37-1.45-0.15-1.81,0.49l-1.22,2.11c-0.37,0.63-0.15,1.45,0.49,1.81
		c0.63,0.37,1.45,0.15,1.81-0.49l1.22-2.11C59.55,8.81,59.33,8,58.7,7.64L58.7,7.64z M58.7,7.64"/>
	<path class="st3" d="M48.86,5c-0.73,0-1.33,0.59-1.33,1.33v2.43c0,0.73,0.59,1.33,1.33,1.33c0.73,0,1.33-0.59,1.33-1.33V6.33
		C50.19,5.59,49.6,5,48.86,5L48.86,5z M48.86,5"/>
	<path class="st3" d="M42.06,10.23l-1.22-2.11c-0.37-0.63-1.18-0.85-1.81-0.49C38.39,8,38.17,8.81,38.54,9.45l1.22,2.11
		c0.37,0.63,1.18,0.85,1.81,0.49C42.2,11.67,42.42,10.86,42.06,10.23L42.06,10.23z M42.06,10.23"/>
	<path class="st3" d="M65.41,32.69l-2.1-1.22c-0.64-0.37-1.45-0.15-1.81,0.49c-0.37,0.63-0.15,1.45,0.49,1.81l2.1,1.22
		c0.64,0.37,1.45,0.15,1.81-0.49C66.26,33.87,66.05,33.06,65.41,32.69L65.41,32.69z M65.41,32.69"/>
	<path class="st3" d="M35.74,15.57l-2.1-1.22c-0.64-0.37-1.45-0.15-1.81,0.49c-0.37,0.63-0.15,1.45,0.49,1.81l2.1,1.22
		c0.64,0.37,1.45,0.15,1.81-0.49C36.6,16.74,36.38,15.93,35.74,15.57L35.74,15.57z M35.74,15.57"/>
	<path class="st3" d="M62.02,25.11c0-5.93-3.99-11.15-9.71-12.7c-0.71-0.19-1.44,0.23-1.63,0.93c-0.19,0.71,0.23,1.44,0.94,1.63
		c9.63,2.61,10.53,16.09,1.19,19.87c-0.69,0.28-1.13,0.94-1.13,1.68v1.92h-1.48v-7.96h0.67c1.66,0,3.02-1.35,3.02-3.02v-0.09
		c0-1.66-1.35-3.02-3.02-3.02h-3.99c-1.66,0-3.02,1.35-3.02,3.02v0.09c0,1.66,1.35,3.02,3.02,3.02h0.67v7.96h-1.48v-1.98
		c0-0.71-0.43-1.34-1.09-1.6c-9.31-3.72-8.58-17.23,1.15-19.89c0.71-0.19,1.12-0.92,0.93-1.63c-0.19-0.71-0.92-1.12-1.63-0.93
		c-5.81,1.59-9.81,6.9-9.71,12.91c0.08,5.11,3.08,9.65,7.69,11.76v1.41c-1.42,0.24-2.5,1.48-2.5,2.96v1.22
		c0,1.4,0.96,2.57,2.25,2.91l1.4,2.81c1.78,3.55,6.85,3.55,8.62,0l1.4-2.81c1.29-0.34,2.25-1.51,2.25-2.91v-1.22
		c0-1.49-1.09-2.72-2.5-2.97v-1.41C59.02,34.95,62.02,30.31,62.02,25.11L62.02,25.11z M46.87,27.84c-0.2,0-0.36-0.17-0.36-0.36
		v-0.09c0-0.2,0.16-0.36,0.36-0.36h3.99c0.2,0,0.36,0.16,0.36,0.36v0.09c0,0.2-0.16,0.36-0.36,0.36H46.87z M50.8,47.21
		c-0.8,1.6-3.07,1.6-3.87,0l-0.76-1.52h5.39L50.8,47.21z M54.17,42.68c0,0.19-0.16,0.36-0.36,0.36c-1.33,0-8.81,0-9.91,0
		c-0.19,0-0.36-0.16-0.36-0.36v-1.21c0-0.19,0.16-0.36,0.36-0.36c1.2,0,8.72,0,9.91,0c0.19,0,0.36,0.16,0.36,0.36V42.68z
		 M54.17,42.68"/>
</g>
</svg>
