<?xml version="1.0" encoding="utf-8"?>
<!-- Generator: Adobe Illustrator 23.1.0, SVG Export Plug-In . SVG Version: 6.00 Build 0)  -->
<svg version="1.1" id="Layer_1" xmlns="http://www.w3.org/2000/svg" xmlns:xlink="http://www.w3.org/1999/xlink" x="0px" y="0px"
	 viewBox="0 0 255 210" style="enable-background:new 0 0 255 210;" xml:space="preserve">
<style type="text/css">
	.st0{fill:#F68212;}
	.st1{fill:none;stroke:#FEBF00;stroke-width:2;stroke-linecap:round;stroke-miterlimit:10;stroke-dasharray:4,8;}
	.st2{fill:none;stroke:#FEBF00;stroke-linecap:round;stroke-miterlimit:10;stroke-dasharray:4,4;}
	.st3{fill:none;stroke:#FEBF00;stroke-width:2;stroke-linecap:round;stroke-miterlimit:10;stroke-dasharray:4,5;}
	.st4{fill:#EF7216;}
	.st5{fill:#B2550F;}
	.st6{fill:#87C6C0;}
	.st7{fill:#FEBF00;}
</style>
<g>
	<polygon class="st0" points="523.2,213.3 528,212.6 523.2,211.8 522.5,207.1 521.8,211.8 517,212.6 521.8,213.3 522.5,218 	"/>
</g>
<g>
	<polygon class="st0" points="358.1,302.7 365.5,301.5 358.1,300.3 356.9,292.9 355.8,300.3 348.4,301.5 355.8,302.7 356.9,310 	"/>
</g>
<g>
	<polygon class="st0" points="390.6,256.2 395.3,255.5 390.6,254.7 389.8,250 389.1,254.7 384.4,255.5 389.1,256.2 389.8,260.9 	"/>
</g>
<g>
	<polygon class="st0" points="338.2,247 342.9,246.2 338.2,245.5 337.5,240.8 336.7,245.5 332,246.2 336.7,247 337.5,251.7 	"/>
</g>
<g>
	<polygon class="st0" points="521.4,228.6 524.5,228.1 521.4,227.6 520.9,224.4 520.4,227.6 517.2,228.1 520.4,228.6 520.9,231.7 	
		"/>
</g>
<g>
	<polygon class="st0" points="506.6,260 510.3,259.4 506.6,258.8 506,255.1 505.4,258.8 501.7,259.4 505.4,260 506,263.7 	"/>
</g>
<g>
	<polygon class="st0" points="417,172.6 420.7,172 417,171.4 416.4,167.7 415.8,171.4 412.1,172 415.8,172.6 416.4,176.3 	"/>
</g>
<g>
	<polygon class="st0" points="523.4,285.5 530.8,284.4 523.4,283.2 522.3,275.9 521.1,283.2 513.8,284.4 521.1,285.5 522.3,292.8 	
		"/>
</g>
<g>
	<polygon class="st0" points="408.2,280.9 411.3,280.4 408.2,279.9 407.7,276.8 407.2,279.9 404.1,280.4 407.2,280.9 407.7,284.1 	
		"/>
</g>
<g>
	<polygon class="st0" points="484.2,174.4 486.9,173.9 484.2,173.5 483.8,170.8 483.4,173.5 480.7,173.9 483.4,174.4 483.8,177 	"/>
</g>
<g>
	<polygon class="st0" points="363.2,209.8 365.9,209.4 363.2,209 362.8,206.3 362.4,209 359.7,209.4 362.4,209.8 362.8,212.5 	"/>
</g>
<g>
	<polygon class="st0" points="546.3,319.2 549.6,318.7 546.3,318.2 545.8,315 545.3,318.2 542.1,318.7 545.3,319.2 545.8,322.5 	"/>
</g>
<g>
	<polygon class="st0" points="447.3,211.7 452.6,210.9 447.3,210.1 446.5,204.8 445.6,210.1 440.4,210.9 445.6,211.7 446.5,217 	"/>
</g>
<g>
	<polygon class="st0" points="395.2,195.7 403.9,194.3 395.2,193 393.9,184.3 392.5,193 383.8,194.3 392.5,195.7 393.9,204.4 	"/>
</g>
<circle class="st1" cx="434.8" cy="264.6" r="69.8"/>
<path class="st2" d="M345.6,291.9c4.7-2.3,9.8-4.1,15.1-5.4c34-7.9,68,10.6,80.5,42.1"/>
<circle class="st3" cx="510.5" cy="294.3" r="47.5"/>
<g>
	<path class="st4" d="M415.3,234.5v4.2h12.2v-4.2c0-10.1,8.2-18.2,18.2-18.2c10,0,18.2,8.2,18.2,18.2v30.1h12.2v-30.1
		c0-16.8-13.6-30.4-30.4-30.4C428.9,204.1,415.3,217.7,415.3,234.5 M455.8,282.1c0,5.5-4.5,10-10,10s-10-4.5-10-10
		c0-5.6,4.5-10.1,10-10.1C451.3,272,455.8,276.5,455.8,282.1"/>
	<path class="st4" d="M422,281.9c0-13.1,10.6-23.7,23.7-23.7s23.7,10.6,23.7,23.7s-10.6,23.7-23.7,23.7
		C432.6,305.6,422,295,422,281.9 M409.8,281.9c0,19.8,16.1,35.9,35.9,35.9c19.8,0,35.9-16.1,35.9-35.9c0-19.8-16.1-35.9-35.9-35.9
		C425.9,246.1,409.8,262.2,409.8,281.9"/>
</g>
<g>
	<g>
		<path class="st5" d="M467.9,358.2h-6.6c0-9.8-7.8-17.7-17.3-17.7s-17.3,7.9-17.3,17.7h-6.6c0-13.5,10.7-24.4,23.9-24.4
			S467.9,344.7,467.9,358.2z"/>
	</g>
	<g>
		<g>
			<path class="st6" d="M451.9,336.6c-0.2,0-0.4-0.1-0.6-0.2c-0.6-0.4-0.8-1.2-0.4-1.8c0.4-0.7,4.4-7.1,25.1-9.2
				c37.5-3.8,73.3,4.1,73.6,4.2c0.7,0.1,1.1,0.9,1,1.6c-0.1,0.7-0.8,1.2-1.5,1c-0.3-0.1-35.7-7.9-72.9-4.1
				c-19.4,2-23.2,7.8-23.2,7.9C452.7,336.4,452.3,336.6,451.9,336.6z"/>
		</g>
		<g>
			<path class="st6" d="M557,344.6h-98.3c-0.7,0-1.3-0.6-1.3-1.3c0-0.7,0.6-1.3,1.3-1.3H557c0.7,0,1.3,0.6,1.3,1.3
				C558.2,344,557.7,344.6,557,344.6z"/>
		</g>
		<g>
			<path class="st6" d="M555.8,341.9h-98.3c-0.7,0-1.3-0.6-1.3-1.3s0.6-1.3,1.3-1.3h98.3c0.7,0,1.3,0.6,1.3,1.3
				C557.1,341.3,556.5,341.9,555.8,341.9z"/>
		</g>
		<g>
			<path class="st6" d="M456.3,339.1c-0.7,0-1.2-0.6-1.3-1.3c0-0.7,0.5-1.4,1.2-1.4c0.3,0,31.6-1.5,42.1-1.5
				c13.9,0,55.9,1.5,56.3,1.5c0.7,0,1.3,0.6,1.2,1.4c0,0.7-0.6,1.4-1.3,1.3c-0.4,0-42.4-1.5-56.2-1.5
				C488,337.6,456.7,339.1,456.3,339.1C456.4,339.1,456.3,339.1,456.3,339.1z"/>
		</g>
		<g>
			<path class="st6" d="M454,337.6c-0.5,0-1-0.3-1.2-0.9c-0.3-0.7,0.1-1.5,0.7-1.7c0.4-0.1,9.4-3.7,28.9-4.8
				c38.8-2.2,69.8,3.5,70.1,3.5c0.7,0.1,1.1,0.8,1,1.5c-0.1,0.7-0.8,1.2-1.5,1.1c-0.3-0.1-31.1-5.7-69.5-3.5
				c-19.1,1.1-28.1,4.6-28.1,4.7C454.3,337.5,454.2,337.6,454,337.6z"/>
		</g>
		<g>
			<path class="st6" d="M448,335.5c-0.2,0-0.4-0.1-0.6-0.2c-0.6-0.4-0.8-1.2-0.5-1.8c0.7-1.2,17.3-29.9,99.8-9.9
				c0.7,0.2,1.1,0.9,1,1.6c-0.2,0.7-0.8,1.2-1.5,1c-80.3-19.4-96.9,8.4-97,8.7C448.9,335.3,448.5,335.5,448,335.5z"/>
		</g>
		<g>
			<path class="st6" d="M445.1,335.5c-0.2,0-0.3,0-0.5-0.1c-0.6-0.3-0.9-1.1-0.7-1.8c0.6-1.5,15.7-35.7,93.3-19.4
				c0.7,0.1,1.1,0.9,1,1.6c-0.1,0.7-0.8,1.2-1.5,1.1c-75.4-15.9-90.3,17.5-90.5,17.8C446.1,335.2,445.6,335.5,445.1,335.5z"/>
		</g>
		<g>
			<path class="st6" d="M436.1,336.7c-0.4,0-0.8-0.2-1.1-0.6c-0.1-0.1-4-5.9-23.2-7.9c-37.2-3.8-72.5,4-72.9,4.1
				c-0.7,0.1-1.4-0.3-1.5-1c-0.1-0.7,0.3-1.4,1-1.6c0.4-0.1,36.1-8,73.6-4.2c20.7,2.1,24.7,8.5,25.1,9.2c0.4,0.6,0.2,1.5-0.5,1.8
				C436.6,336.6,436.4,336.7,436.1,336.7z"/>
		</g>
		<g>
			<path class="st6" d="M428.2,347.4h-98.3c-0.7,0-1.3-0.6-1.3-1.3c0-0.7,0.6-1.3,1.3-1.3h98.3c0.7,0,1.3,0.6,1.3,1.3
				S428.9,347.4,428.2,347.4z"/>
		</g>
		<g>
			<path class="st6" d="M429.4,344.6H331c-0.7,0-1.3-0.6-1.3-1.3c0-0.7,0.6-1.3,1.3-1.3h98.3c0.7,0,1.3,0.6,1.3,1.3
				S430.1,344.6,429.4,344.6z"/>
		</g>
		<g>
			<path class="st6" d="M430.5,341.9h-98.3c-0.7,0-1.3-0.6-1.3-1.3s0.6-1.3,1.3-1.3h98.3c0.7,0,1.3,0.6,1.3,1.3
				S431.2,341.9,430.5,341.9z"/>
		</g>
		<g>
			<path class="st6" d="M431.7,339.1C431.7,339.1,431.6,339.1,431.7,339.1c-0.4,0-31.6-1.5-42-1.5c-13.8,0-55.8,1.5-56.2,1.5
				c-0.7,0.1-1.3-0.5-1.3-1.3c0-0.7,0.5-1.4,1.2-1.4c0.4,0,42.4-1.5,56.3-1.5c10.5,0,41.8,1.5,42.1,1.5c0.7,0,1.2,0.7,1.2,1.4
				C432.9,338.5,432.4,339.1,431.7,339.1z"/>
		</g>
		<g>
			<path class="st6" d="M434,337.6c-0.1,0-0.3,0-0.5-0.1c-0.1,0-9.1-3.6-28.1-4.7c-38.5-2.2-69.2,3.4-69.5,3.5
				c-0.7,0.1-1.3-0.4-1.5-1.1c-0.1-0.7,0.3-1.4,1-1.6c0.3-0.1,31.3-5.8,70.1-3.5c19.5,1.1,28.5,4.7,28.9,4.8c0.7,0.3,1,1,0.7,1.7
				C435,337.2,434.5,337.6,434,337.6z"/>
		</g>
		<g>
			<path class="st6" d="M440,335.5c-0.4,0-0.9-0.2-1.1-0.7c-0.2-0.4-16.9-28-97-8.7c-0.7,0.2-1.4-0.3-1.5-1
				c-0.2-0.7,0.3-1.4,0.9-1.6c82.4-19.9,99.1,8.7,99.8,9.9c0.4,0.6,0.1,1.5-0.5,1.8C440.4,335.5,440.2,335.5,440,335.5z"/>
		</g>
		<g>
			<path class="st6" d="M442.9,335.5c-0.5,0-1-0.3-1.2-0.8l0,0c-0.1-0.3-15.1-33.7-90.5-17.8c-0.7,0.1-1.3-0.3-1.5-1.1
				c-0.1-0.7,0.3-1.4,1-1.6c77.6-16.3,92.7,17.9,93.3,19.4c0.3,0.7,0,1.5-0.6,1.8C443.2,335.5,443,335.5,442.9,335.5z"/>
		</g>
		<g>
			<path class="st6" d="M558.1,347.4h-98.3c-0.7,0-1.3-0.6-1.3-1.3c0-0.7,0.6-1.3,1.3-1.3h98.3c0.7,0,1.3,0.6,1.3,1.3
				S558.8,347.4,558.1,347.4z"/>
		</g>
		<g>
			<rect x="327.5" y="347.6" class="st5" width="98.7" height="10.5"/>
		</g>
		<g>
			<rect x="461.8" y="347.6" class="st5" width="98.7" height="10.5"/>
		</g>
	</g>
	<g>
		<g>
			<g>
				<path class="st5" d="M457.1,351.9c0.8,1.6,1.2,3.4,1.3,5.2l12.3-0.9c-0.2-3.3-1.1-6.6-2.5-9.6L457.1,351.9z"/>
			</g>
		</g>
		<g>
			<g>
				<path class="st5" d="M453.3,346.8c1.4,1.1,2.5,2.6,3.4,4.1l10.7-6.1c-1.6-2.9-3.7-5.5-6.2-7.6L453.3,346.8z"/>
			</g>
		</g>
		<g>
			<g>
				<path class="st5" d="M447.7,343.9c1.7,0.4,3.3,1.2,4.8,2.3l7.1-10.2c-2.6-1.9-5.6-3.4-8.8-4.2L447.7,343.9z"/>
			</g>
		</g>
		<g>
			<g>
				<path class="st5" d="M441.4,343.6c1.7-0.3,3.6-0.3,5.3,0l2.2-12.3c-3.2-0.6-6.5-0.6-9.7,0L441.4,343.6z"/>
			</g>
		</g>
		<g>
			<g>
				<path class="st5" d="M435.6,346.1c1.4-1,3.1-1.8,4.8-2.3l-3.1-12.1c-3.2,0.8-6.2,2.3-8.8,4.2L435.6,346.1z"/>
			</g>
		</g>
		<g>
			<g>
				<path class="st5" d="M431.4,350.9c0.9-1.6,2-3,3.4-4.1l-7.9-9.6c-2.5,2.1-4.6,4.7-6.2,7.6L431.4,350.9z"/>
			</g>
		</g>
		<g>
			<g>
				<path class="st5" d="M429.5,357.1c0.1-1.8,0.6-3.6,1.3-5.2l-11.1-5.3c-1.4,3-2.2,6.3-2.5,9.6L429.5,357.1z"/>
			</g>
		</g>
	</g>
</g>
<g>
	<path class="st7" d="M110.1,142.3l3.5,0.1c0.1,0,0.2,0.1,0.2,0.1l1.5,4.6c0.5,1.5,2.1,2.3,3.6,1.8c1.5-0.5,2.3-2.1,1.8-3.6
		l-1.5-4.6c-0.8-2.3-2.9-3.9-5.4-4c-3.5-0.1-3.7,0-3.7-0.3l-2.1-21.9c-0.3-2.9-2.7-5.4-6.2-5.3c-0.2,0-0.8,0-1-0.1
		c0-0.1-2.6-8.7-2.7-8.7c-0.6-1.8-2-3.3-3.8-3.9c-15-4.9-11.8-3.6-17.2-6.9h0c-0.1,0-0.1-0.1-0.1-0.2l0.1-2.3
		c0.3-4.4-4.2-7.5-8.3-5.7c-7.2,3.2-10.3,4.6-11.2,4.9c-4.9-0.3-5-0.2-5-0.5l0-0.8c-0.1-1.9-1-3.6-2.6-4.7c-1.6-1.1-3.5-1.3-5.3-0.7
		c-0.1,0-0.2,0-0.2-0.1L36.9,71c0-0.1-0.1-0.1,0-0.2l2.8-7.9c0-0.1,0.1-0.1,0.2-0.1l11.1-2.2c2.6-0.5,4.5-2.6,4.7-5.2
		c2-20,2.2-14.5-0.1-24.9c-0.1-0.3,0-0.2,7.6-1.4c0.1,0,0.1,0,0.2,0.1l4.5,5.2c1.8,2.1,4.9,2.6,7.3,1.3l6.1-3.4
		c2.4-1.4,3.6-4.3,2.7-7l-1.9-5.8c-0.1-0.3,0-0.2,15-2.7c0.3,0,0-0.7,4.4,12.7c1,2.9,4,4.6,6.9,3.9l8-1.9c2.9-0.7,4.3-3.2,4.5-4.9
		c0.1-0.2-0.2-0.2,8.7,2.2c2.4,0.7,4.9-0.3,6.4-2.3l2.2-3c0.1-0.1,0.3-0.1,0.4,0c5,13,4.8,13.7,7.4,15l8.3,4.2
		c1.4,0.7,3.1,0.1,3.8-1.3c0.7-1.4,0.1-3.1-1.3-3.8c-2.2-1.1-7.8-3.9-8.3-4.2c-0.5-0.9-1.9-4.7-4.6-11.9c-1.7-4.4-7.6-5.1-10.3-1.3
		l-2.2,3c0,0.1-0.1,0.1-0.2,0.1l-8.5-2.3c-1.6-0.4-3.3-0.2-4.7,0.7c-1.6,1-2.2,2.3-2.7,3.9c0,0.1-0.1,0.4-0.2,0.4
		c-8.3,2-8.1,2-8.2,1.7L102.8,15c-0.9-2.8-3.7-4.4-6.6-3.9l-14.8,2.5c-3.6,0.6-5.7,4.2-4.6,7.6l1.9,5.8c0.1,0.3,0.2,0.1-6.2,3.7
		c-0.1,0-0.2,0-0.3,0l-4.5-5.2c-1.3-1.5-3.3-2.3-5.3-2l-7.5,1.1c-1.6,0.2-3.1,1.2-4,2.5s-1.2,3-0.9,4.6l1.6,7.3
		c0,0.9-0.4,4.6-1.6,15.8c0,0.2,0.6,0-11.3,2.4c-2,0.4-3.7,1.9-4.4,3.8l-2.8,7.9c-0.7,2-0.3,4.3,1.1,5.9l7.6,8.6
		c1.6,1.8,4.1,2.5,6.4,1.6c0.1,0,0.3,0,0.3,0.2l0,0.8c0.1,3,2.5,5.5,5.5,5.7c7.8,0.5,4.1,1.4,18.7-5.1c0.1-0.1,0.3,0,0.3,0.2
		c-0.1,2.2-0.7,5.6,2.7,7.7l0,0l0,0c6.1,3.7,2.4,2.2,18.4,7.4c0.1,0,0.1,0.1,0.1,0.1l2.6,8.6c1,3.2,3.5,4.2,6.8,4.2
		c0.3,0,0.1-1.2,2.4,22.1C104.7,139.9,107.2,142.2,110.1,142.3z"/>
	<path class="st7" d="M203.6,94.7c-8.4,7.8-8.8,7.8-9.3,10.1c-3.6,16.3-4.7,21.8-5.1,23c-0.1,0.1-13.5,19.5-13.7,19.5
		c-20.8,1.6-20,1.2-21.9,2.9c-9.9,8.7-10.4,8.6-10.8,11.3c-1,6.3-1.4,9.5-1.6,10.3c0,0-17.2,17.5-17.3,17.5c-0.1,0.1-0.2,0.1-0.3,0
		l-12.2-12c-0.3-0.3-0.6,0.2,12.4-10c1.9-1.5,2.7-4.1,2-6.4l-1.1-4.1c-0.4-1.5-2-2.4-3.5-2c-1.5,0.4-2.4,2-2,3.5
		c0,0.1,1.1,4.2,1.2,4.3c0,0.1,0,0.2-0.1,0.2l-12.4,9.7c-2.8,2.2-3.1,6.4-0.5,8.9l12.2,12c2.3,2.3,6,2.2,8.3-0.1l17.3-17.5
		c2.2-2.2,1.5-4.5,3.2-13.5c0.7-0.8,3.5-3.1,8.9-7.8c1.3-0.2,6.5-0.5,18.6-1.5c1.8-0.1,3.4-1.1,4.4-2.5l13.6-19.5
		c0.8-1.1,0.6-0.6,6-25c0.6-0.7,3-2.9,7.6-7.1c1.1-1.1,1.2-2.9,0.1-4C206.5,93.7,204.7,93.6,203.6,94.7z"/>
	<path class="st7" d="M222.4,67.5c-0.4-3-2.9-5.2-5.9-5.2h-4.2c-1.2-0.8-5.7-4.8-16.3-13.8c-2.3-2-3.1-1.4-18.7-0.7
		c-0.8-0.3-3.7-1.9-10-5.1c-1.4-0.7-3.1-0.2-3.8,1.2c-0.7,1.4-0.2,3.1,1.2,3.8c11,5.7,10.8,5.8,12.8,5.7c9.4-0.5,13.4-0.8,14.8-0.6
		c17,14.4,17.2,15.2,19.7,15.2c4.5,0,4.6-0.1,4.7,0.2c0,0.2,1.4,11.7,1.3,11.8l-6.4,6.3c-1.8,1.8-0.5,4.9,2,4.9
		c1.5,0,1.5-0.3,8.4-7.1c1.1-1.1,1.8-2.6,1.8-4.2C223.8,79.3,223.9,80.1,222.4,67.5z"/>
</g>
<g>
	<path class="st4" d="M120.8,71.8v2.6h7.7v-2.6c0-6.3,5.2-11.5,11.5-11.5c6.3,0,11.5,5.2,11.5,11.5v18.9h7.7V71.8
		c0-10.6-8.6-19.2-19.2-19.2C129.5,52.6,120.8,61.2,120.8,71.8 M146.4,101.8c0,3.5-2.8,6.3-6.3,6.3c-3.5,0-6.3-2.8-6.3-6.3
		c0-3.5,2.8-6.3,6.3-6.3C143.6,95.4,146.4,98.3,146.4,101.8"/>
	<path class="st4" d="M125,101.7c0-8.2,6.7-14.9,14.9-14.9c8.2,0,14.9,6.7,14.9,14.9s-6.7,14.9-14.9,14.9
		C131.7,116.6,125,109.9,125,101.7 M117.4,101.7c0,12.5,10.1,22.6,22.6,22.6s22.6-10.1,22.6-22.6S152.4,79.1,140,79.1
		C127.5,79.1,117.4,89.2,117.4,101.7"/>
</g>
<path class="st0" d="M20.9,38.4h7.4v-7.4h7.4v-7.4h-7.4v-7.4h-7.4v7.4h-7.4v7.4h7.4V38.4z"/>
<path class="st0" d="M224.1,188.2h5v-5h5v-5h-5v-5h-5v5h-5v5h5V188.2z"/>
<path class="st0" d="M216.7,42.4h5v-5h5v-5h-5v-5h-5v5h-5v5h5V42.4z"/>
<path class="st0" d="M51.2,148.2v5h-5v5h5v5h5v-5h5v-5h-5v-5H51.2z"/>
<path class="st0" d="M12.9,49.6h7.4V57h-7.4V49.6z"/>
<path class="st0" d="M208.4,18.3h5.4v5.4h-5.4V18.3z"/>
<path class="st0" d="M204.6,145.3h7.4v7.4h-7.4V145.3z"/>
<path class="st0" d="M20.2,129.7h7.4v7.4h-7.4V129.7z"/>
</svg>
