<?xml version="1.0" encoding="utf-8"?>
<!-- Generator: Adobe Illustrator 23.1.0, SVG Export Plug-In . SVG Version: 6.00 Build 0)  -->
<svg version="1.1" id="Layer_1" xmlns="http://www.w3.org/2000/svg" xmlns:xlink="http://www.w3.org/1999/xlink" x="0px" y="0px"
	 viewBox="0 0 255 210" style="enable-background:new 0 0 255 210;" xml:space="preserve">
<style type="text/css">
	.st0{fill:none;stroke:#FEBF00;stroke-width:2;stroke-linecap:round;stroke-miterlimit:10;stroke-dasharray:4,8;}
	.st1{fill:#B2550F;}
	.st2{fill:none;stroke:#FEBF00;stroke-width:2;stroke-linecap:round;stroke-miterlimit:10;stroke-dasharray:4,5;}
</style>
<path class="st0" d="M32.4,160.2c-13.2-15.1-21.1-34.9-21.1-56.5c0-47.5,38.5-86,86-86c0.6,0,1.1,0,1.7,0"/>
<path class="st0" d="M141,29.7c7.4,4.4,14.2,9.9,19.9,16.3"/>
<path class="st0" d="M163.9,158.1c-7.6,9.3-17.2,17.1-28.1,22.5"/>
<path class="st1" d="M134.3,11.4H91c-1.8,0-3.3,1.5-3.3,3.3v23H37.8c-1.8,0-3.3,1.5-3.3,3.3v164.4c0,1.8,1.5,3.3,3.3,3.3h96.5
	c1.8,0,3.3-1.5,3.3-3.3V14.7C137.6,12.9,136.1,11.4,134.3,11.4z M131,182.4H94.4v-6.6H131V182.4z M41.1,60.7h46.6v98.7H41.1V60.7z
	 M131,47.6H94.4v-9.9H131V47.6z M41.1,166h46.6v9.9H41.1V166z M94.4,169.3V54.2H131v115.1H94.4z M131,18v13.2H94.4V18H131z
	 M87.7,44.3v9.9H41.1v-9.9H87.7z M41.1,182.4h46.6v19.7H41.1V182.4z M94.4,202.2V189H131v13.2H94.4z"/>
<path class="st1" d="M77.7,70.6H51.1c-1.8,0-3.3,1.5-3.3,3.3v26.3c0,1.8,1.5,3.3,3.3,3.3h26.6c1.8,0,3.3-1.5,3.3-3.3V73.9
	C81,72.1,79.5,70.6,77.7,70.6z M74.4,96.9h-20V77.2h20V96.9z"/>
<g>
	<path class="st2" d="M214.2,112.4c23.1,3.3,40.8,23.1,40.8,47c0,26.2-21.3,47.5-47.5,47.5c-6.9,0-13.4-1.5-19.3-4.1"/>
	<path class="st2" d="M178.2,196.8c-11.1-8.7-18.2-22.2-18.2-37.4c0-7,1.5-13.7,4.3-19.7"/>
</g>
<path class="st1" d="M234,191.5L194.1,40.2c-0.2-0.8-0.8-1.6-1.5-2c-0.8-0.4-1.7-0.6-2.5-0.3L140.1,51c-1.8,0.5-2.8,2.3-2.4,4
	l39.9,151.3c0.2,0.8,0.8,1.6,1.5,2c0.8,0.4,1.7,0.6,2.5,0.3l49.9-13.2C233.5,195,234.5,193.2,234,191.5z M150.3,76.6l43.5-11.5
	l1.6,5.9l-43.5,11.5L150.3,76.6z M197.1,77.4l19.3,73.2l-43.5,11.5l-19.3-73.2L197.1,77.4z M218.1,157l3.4,12.9L178,181.3l-3.4-12.9
	L218.1,157z M188.5,45l3.6,13.7l-43.5,11.5L145,56.5L188.5,45z M183.3,201.4l-3.6-13.7l43.5-11.5l3.6,13.7L183.3,201.4z"/>
</svg>
