<svg id="Layer_1" data-name="Layer 1" xmlns="http://www.w3.org/2000/svg" xmlns:xlink="http://www.w3.org/1999/xlink" viewBox="0 0 200 200"><defs><style>.cls-1{fill:url(#radial-gradient);}.cls-2{fill:#fff;}.cls-3{fill:#3f51b5;}.cls-4{fill:#ececec;}.cls-5{fill:#06bac5;}.cls-6{fill:#f9e0a6;}.cls-7{fill:#659afc;}.cls-8{fill:#1a237e;}</style><radialGradient id="radial-gradient" cx="100" cy="646" r="100" gradientTransform="translate(0 -546)" gradientUnits="userSpaceOnUse"><stop offset="0" stop-color="#659afc"/><stop offset="0.12" stop-color="#5785e4"/><stop offset="0.55" stop-color="#284298"/><stop offset="0.85" stop-color="#0b1868"/><stop offset="1" stop-color="#000856"/></radialGradient></defs><rect class="cls-1" width="200" height="200"/><circle class="cls-2" cx="101.75" cy="101.75" r="68.75"/><path class="cls-2" d="M96.45,191.23H94.57v2.41H91.1v-2.41H84.44v-2.32L90.09,181h3.69l-5.13,7.36h2.56v-2.14h3.36v2.14h1.88Z"/><path class="cls-2" d="M98,193.23a2,2,0,0,1-.59-1.46,1.92,1.92,0,0,1,.58-1.46,2.22,2.22,0,0,1,3,0,2.14,2.14,0,0,1,0,2.92,2,2,0,0,1-1.47.57A2,2,0,0,1,98,193.23Z"/><path class="cls-2" d="M107.7,181v12.6h-3.57v-9.85h-2.34V181Z"/><path class="cls-2" d="M112.27,193.12a5.2,5.2,0,0,1-2-2.26,9.08,9.08,0,0,1,0-7,5.2,5.2,0,0,1,2-2.26,5.73,5.73,0,0,1,5.74,0,5.2,5.2,0,0,1,2,2.26,9.08,9.08,0,0,1,0,7,5.2,5.2,0,0,1-2,2.26,5.73,5.73,0,0,1-5.74,0Zm4.31-3a7.45,7.45,0,0,0,0-5.52,1.63,1.63,0,0,0-2.88,0,7.45,7.45,0,0,0,0,5.52,1.62,1.62,0,0,0,2.88,0Z"/><rect class="cls-3" x="105.81" y="97.24" width="35.84" height="8.27"/><polygon class="cls-4" points="86.51 97.24 86.51 58.65 141.65 58.65 141.65 97.24 105.81 97.24 86.51 97.24"/><path class="cls-5" d="M67.21,127.57V95.86a19.3,19.3,0,0,1,19.3-19.29h0a19.3,19.3,0,0,1,19.3,19.29v31.71Z"/><path class="cls-6" d="M98.92,98.62h2.75a4.14,4.14,0,0,1,4.14,4.14h0a4.13,4.13,0,0,1-4.14,4.13H98.92V98.62Z"/><path class="cls-4" d="M110.21,130.73a8.27,8.27,0,0,0-6.41-5.34l-11.78-2H81l-11.78,2a8.29,8.29,0,0,0-6.41,5.34l-3.87,10.62h55.14Z"/><polygon class="cls-7" points="99 124.59 94.78 135.84 86.51 128.94 92.03 123.43 99 124.59"/><polygon class="cls-7" points="74.03 124.59 78.24 135.84 86.51 128.94 81 123.43 74.03 124.59"/><path class="cls-6" d="M74.11,98.62H71.35a4.14,4.14,0,0,0-4.14,4.14h0a4.14,4.14,0,0,0,4.14,4.13h2.76Z"/><path class="cls-6" d="M81,120.68v2.75A5.52,5.52,0,0,0,86.51,129h0A5.51,5.51,0,0,0,92,123.43v-2.75Z"/><path class="cls-6" d="M72.73,95.86v12.41a13.78,13.78,0,0,0,13.78,13.78h0a13.78,13.78,0,0,0,13.78-13.78V95.86h0a24.91,24.91,0,0,1-12.8-3.54l-1-.59-1,.59a24.88,24.88,0,0,1-12.8,3.54Z"/><path class="cls-4" d="M96.16,109.65H93.4a4.13,4.13,0,0,1-4.13-4.14v-2.75a1.38,1.38,0,0,1,1.38-1.38h8.27a1.37,1.37,0,0,1,1.37,1.38v2.75A4.13,4.13,0,0,1,96.16,109.65Z"/><path class="cls-4" d="M76.86,109.65h2.76a4.13,4.13,0,0,0,4.13-4.14v-2.75a1.37,1.37,0,0,0-1.37-1.38H74.11a1.38,1.38,0,0,0-1.38,1.38v2.75A4.13,4.13,0,0,0,76.86,109.65Z"/><path class="cls-8" d="M143,104.82V59.89a2.63,2.63,0,0,0-2.72-2.62H87.2s-2.07.31-2.07,2.21V75.19h2.76V60h52.38V95.86h-2.76v2.76h2.76v5.52H107.19V98.62h32.36V95.86H107.19a20.68,20.68,0,0,0-41.35,0v29.32a9.63,9.63,0,0,0-4.33,5.08L57,142.73h59.07l-4.54-12.48a9.67,9.67,0,0,0-4.32-5.07V106.89H141A2,2,0,0,0,143,104.82ZM79.82,125a6.9,6.9,0,0,0,3.72,4.59l-4.69,3.92-2.95-7.86Zm6.69,2.54a4.14,4.14,0,0,1-4.13-4.14v-.59a14.79,14.79,0,0,0,8.27,0v.59A4.15,4.15,0,0,1,86.51,127.57ZM93.2,125l3.92.65-3,7.86-4.69-3.92A6.89,6.89,0,0,0,93.2,125Zm-6.69-4.35A12.42,12.42,0,0,1,74.3,110.36a5.42,5.42,0,0,0,2.56.67h2.76a5.52,5.52,0,0,0,5.51-5.52h2.76A5.52,5.52,0,0,0,93.4,111h2.76a5.46,5.46,0,0,0,2.57-.67A12.42,12.42,0,0,1,86.51,120.68ZM98.92,100H90.65a2.77,2.77,0,0,0-2.76,2.76H85.13A2.76,2.76,0,0,0,82.38,100H74.11V97.21A26.38,26.38,0,0,0,86.24,93.5l.27-.16.27.16a26.39,26.39,0,0,0,12.14,3.71Zm-2.76,8.27H93.4a2.76,2.76,0,0,1-2.75-2.76v-2.75h8.27v2.75A2.77,2.77,0,0,1,96.16,108.27Zm-13.78-5.51v2.75a2.77,2.77,0,0,1-2.76,2.76H76.86a2.76,2.76,0,0,1-2.75-2.76v-2.75Zm-11,0v2.75a2.76,2.76,0,1,1,0-5.51Zm30.32,0V100a2.76,2.76,0,1,1,0,5.51ZM86.51,78a17.94,17.94,0,0,1,17.92,17.91V98a5.5,5.5,0,0,0-2.76-.77V94.49h-1.38A23.56,23.56,0,0,1,88.2,91.14l-1.69-1-1.69,1a23.5,23.5,0,0,1-12.09,3.35H71.35v2.75a5.53,5.53,0,0,0-2.76.77V95.86A17.94,17.94,0,0,1,86.51,78ZM68.59,107.5a5.43,5.43,0,0,0,2.76.77,15.18,15.18,0,0,0,8.27,13.49v.5L69,124l-.4.09Zm40.33,23.7,3.19,8.77h-6.6l-1.12-4.47-2.68.67,1,3.8H70.36l1-3.8-2.68-.67L67.52,140H60.91l3.19-8.77a6.93,6.93,0,0,1,5.35-4.45l3.68-.61,4.5,12,8.88-7.4,8.88,7.4,4.5-12,3.68.61A6.93,6.93,0,0,1,108.92,131.2Zm-4.49-7.07c-.14,0-.26-.07-.4-.09L93.4,122.26v-.5a15.18,15.18,0,0,0,8.27-13.49,5.4,5.4,0,0,0,2.76-.77"/><polygon class="cls-8" points="107.66 86.22 111.07 86.22 115.21 65.54 126.48 65.54 126.48 62.78 112.95 62.78 109.02 82.41 105.34 73.81 100.3 73.81 100.3 76.57 103.52 76.57 107.66 86.22"/><polygon class="cls-8" points="125.51 76.97 122.35 80.13 119.19 76.97 117.24 78.92 120.4 82.08 117.24 85.24 119.19 87.19 122.35 84.03 125.51 87.19 127.46 85.24 124.3 82.08 127.46 78.92 125.51 76.97"/></svg>