<svg id="Layer_1" data-name="Layer 1" xmlns="http://www.w3.org/2000/svg" xmlns:xlink="http://www.w3.org/1999/xlink" viewBox="0 0 200 200"><defs><style>.cls-1{fill:url(#radial-gradient);}.cls-2{fill:#fff;}.cls-3{fill:#f9e0a6;}.cls-4{fill:#659afc;}.cls-5{fill:#ececec;}.cls-6{fill:#3f51b5;}.cls-7{fill:#1a237e;}</style><radialGradient id="radial-gradient" cx="100" cy="646" r="100" gradientTransform="translate(0 -546)" gradientUnits="userSpaceOnUse"><stop offset="0" stop-color="#659afc"/><stop offset="0.12" stop-color="#5785e4"/><stop offset="0.55" stop-color="#284298"/><stop offset="0.85" stop-color="#0b1868"/><stop offset="1" stop-color="#000856"/></radialGradient></defs><rect class="cls-1" width="200" height="200"/><path class="cls-2" d="M98.87,191.23H97v2.41H93.52v-2.41H86.86v-2.32L92.52,181h3.69l-5.13,7.36h2.55v-2.14H97v2.14h1.87Z"/><path class="cls-2" d="M100.42,193.23a2.09,2.09,0,0,1,0-2.92,2.21,2.21,0,0,1,2.94,0,2.11,2.11,0,0,1,0,2.92,2.15,2.15,0,0,1-2.92,0Z"/><path class="cls-2" d="M117,191.23h-1.87v2.41h-3.47v-2.41H105v-2.32l5.65-7.87h3.69l-5.13,7.36h2.55v-2.14h3.37v2.14H117Z"/><circle class="cls-2" cx="101.75" cy="101.75" r="68.75"/><path class="cls-3" d="M118.24,77.92h-6.16v-7.6a2.21,2.21,0,0,0-2.2-2.2H90.12a2.21,2.21,0,0,0-2.2,2.2v7.6H81.76V68.56a6.61,6.61,0,0,1,6.6-6.6h23.28a6.61,6.61,0,0,1,6.6,6.6v9.36Z"/><path class="cls-4" d="M136.25,138H62.43a6.18,6.18,0,0,1-6.2-6.16V82.32a6.18,6.18,0,0,1,6.2-6.16h73.82a6.18,6.18,0,0,1,6.19,6.16v49.56A6.18,6.18,0,0,1,136.25,138Z"/><path class="cls-5" d="M120,124.34h14.4a1.76,1.76,0,0,1,1.76,1.76v4.22a1.76,1.76,0,0,1-1.76,1.76H120a1.76,1.76,0,0,1-1.76-1.76V126.1A1.76,1.76,0,0,1,120,124.34Z"/><path class="cls-6" d="M136.25,76.16H62.43a6.18,6.18,0,0,0-6.2,6.16v18.62a6.18,6.18,0,0,0,6.2,6.16h73.82a6.18,6.18,0,0,0,6.19-6.16V82.32a6.18,6.18,0,0,0-6.19-6.16Z"/><path class="cls-3" d="M104.64,115.76H95.36A1.76,1.76,0,0,1,93.6,114v-6.9h12.8V114A1.76,1.76,0,0,1,104.64,115.76Z"/><g id="_10_briefcase" data-name="10 briefcase"><path class="cls-7" d="M54.91,131.88a7.49,7.49,0,0,0,7.49,7.48H79a1.32,1.32,0,0,0,0-2.64H62.4a4.84,4.84,0,0,1-4.84-4.84V106.64a7.43,7.43,0,0,0,4.84,1.78H92.28V114a3.08,3.08,0,0,0,3.08,3.08h9.28a3.08,3.08,0,0,0,3.08-3.08v-5.58h29.6a1.32,1.32,0,0,0,0-2.64H62.4a4.84,4.84,0,0,1-4.84-4.84V82.32a4.84,4.84,0,0,1,4.84-4.84h75.2a4.84,4.84,0,0,1,4.84,4.84v18.62a4.84,4.84,0,0,1-4.84,4.84h-9.14a1.32,1.32,0,0,0,0,2.64h9.14a7.43,7.43,0,0,0,4.84-1.78v25.24a4.84,4.84,0,0,1-4.84,4.84H75.66a1.32,1.32,0,0,0,0,2.64H137.6a7.49,7.49,0,0,0,7.49-7.48V82.32a7.49,7.49,0,0,0-7.49-7.48h-18V68.56a7.93,7.93,0,0,0-7.92-7.92H98.13a1.32,1.32,0,1,0,0,2.64h13.51a5.29,5.29,0,0,1,5.28,5.28v6.28H113.4V70.32a3.53,3.53,0,0,0-3.52-3.52H90.12a3.53,3.53,0,0,0-3.52,3.52v4.52H83.08V68.56a5.29,5.29,0,0,1,5.28-5.28h24.13a1.32,1.32,0,1,0,0-2.64H88.36a7.93,7.93,0,0,0-7.92,7.92v6.28h-18a7.49,7.49,0,0,0-7.49,7.48Zm50.17-23.46V114a.44.44,0,0,1-.44.44H95.36a.44.44,0,0,1-.44-.44v-5.58ZM89.24,70.32a.89.89,0,0,1,.88-.88h19.76a.89.89,0,0,1,.88.88v4.52H89.24Z"/><circle class="cls-7" cx="100" cy="111.43" r="1.32"/><path class="cls-7" d="M134.4,133.4a3.09,3.09,0,0,0,3.09-3.08V126.1A3.09,3.09,0,0,0,134.4,123H120a3.08,3.08,0,0,0-3.08,3.08v4.22A3.08,3.08,0,0,0,120,133.4Zm.44-7.3v4.22a.44.44,0,0,1-.44.44h-6.87l2.32-5.1h4.55a.44.44,0,0,1,.44.44Zm-15.28,4.22V126.1a.44.44,0,0,1,.44-.44h7l-2.32,5.1H120A.44.44,0,0,1,119.56,130.32Z"/></g></svg>