<svg id="Layer_1" data-name="Layer 1" xmlns="http://www.w3.org/2000/svg" xmlns:xlink="http://www.w3.org/1999/xlink" viewBox="0 0 200 200"><defs><style>.cls-1{fill:url(#radial-gradient);}.cls-2{fill:#fff;}.cls-3{fill:#06bac5;}.cls-4{fill:#1a237e;}.cls-5{fill:#f9e0a6;stroke:#1a237e;stroke-miterlimit:10;stroke-width:2px;}</style><radialGradient id="radial-gradient" cx="100" cy="646" r="100" gradientTransform="translate(0 -546)" gradientUnits="userSpaceOnUse"><stop offset="0.45" stop-color="#fffffc"/><stop offset="0.66" stop-color="#95e2e5"/><stop offset="0.82" stop-color="#48ccd4"/><stop offset="0.94" stop-color="#18bfc9"/><stop offset="0.99" stop-color="#06bac5"/></radialGradient></defs><rect class="cls-1" width="200" height="200"/><path class="cls-2" d="M99.5,191.23H97.63v2.41H94.15v-2.41H87.49v-2.32L93.15,181h3.69l-5.13,7.36h2.55v-2.14h3.37v2.14H99.5Z"/><path class="cls-2" d="M101.05,193.23a2.09,2.09,0,0,1,0-2.92,2.21,2.21,0,0,1,2.94,0,2.11,2.11,0,0,1,0,2.92,2.15,2.15,0,0,1-2.92,0Z"/><path class="cls-2" d="M114,186.11a4,4,0,0,1,1.58,1.4,3.77,3.77,0,0,1,.58,2.08,4,4,0,0,1-.65,2.26,4.34,4.34,0,0,1-1.79,1.51,6.38,6.38,0,0,1-6.77-1.07,6.3,6.3,0,0,1-1.57-4.61,7.67,7.67,0,0,1,.84-3.71,5.65,5.65,0,0,1,2.35-2.37,7.33,7.33,0,0,1,3.51-.81,9.07,9.07,0,0,1,2,.23,5.35,5.35,0,0,1,1.66.69l-1.3,2.55a4,4,0,0,0-2.32-.65,3,3,0,0,0-3.19,2.94,4.17,4.17,0,0,1,2.85-.94A4.78,4.78,0,0,1,114,186.11Zm-1.77,4.81a1.64,1.64,0,0,0,0-2.32,1.78,1.78,0,0,0-1.25-.43,1.81,1.81,0,0,0-1.26.44,1.5,1.5,0,0,0-.49,1.16,1.47,1.47,0,0,0,.48,1.14,1.81,1.81,0,0,0,1.29.44A1.76,1.76,0,0,0,112.27,190.92Z"/><circle class="cls-2" cx="101.75" cy="101.75" r="68.75"/><path class="cls-3" d="M143.33,95.39a2.46,2.46,0,0,0,2.46-2.46V62.5a2.46,2.46,0,0,0-2.46-2.45h-30a2.46,2.46,0,0,0-2.46,2.45V75.06H95.44V62.5A2.46,2.46,0,0,0,93,60.05H63A2.46,2.46,0,0,0,60.5,62.5V92.93A2.46,2.46,0,0,0,63,95.39H75.32v14.86H62.91a2.45,2.45,0,0,0-2.45,2.45v30.43a2.46,2.46,0,0,0,2.45,2.46h30a2.46,2.46,0,0,0,2.45-2.46V130.57h15.46v12.56a2.46,2.46,0,0,0,2.46,2.46h30a2.46,2.46,0,0,0,2.46-2.46V112.7a2.46,2.46,0,0,0-2.46-2.45H131V95.39ZM110.85,112.7v12.56H95.39V112.7a2.45,2.45,0,0,0-2.45-2.45H80.63V95.39H93a2.46,2.46,0,0,0,2.46-2.46V80.37h15.41V92.93a2.46,2.46,0,0,0,2.46,2.46h12.36v14.86H113.31A2.46,2.46,0,0,0,110.85,112.7Z"/><path class="cls-4" d="M143.33,146.85h-30a3.72,3.72,0,0,1-3.71-3.72v-11.3H96.65v11.3a3.72,3.72,0,0,1-3.71,3.72h-30a3.72,3.72,0,0,1-3.71-3.72V112.7A3.71,3.71,0,0,1,62.91,109H74.06V96.65H63a3.72,3.72,0,0,1-3.71-3.72V62.5A3.71,3.71,0,0,1,63,58.79H93A3.72,3.72,0,0,1,96.7,62.5V73.81h12.9V62.5a3.71,3.71,0,0,1,3.71-3.71h30a3.72,3.72,0,0,1,3.72,3.71V92.93a3.73,3.73,0,0,1-3.72,3.72h-11.1V109h11.1a3.72,3.72,0,0,1,3.72,3.71v30.43A3.73,3.73,0,0,1,143.33,146.85Zm-49.2-17.54h18v13.82a1.2,1.2,0,0,0,1.2,1.2h30a1.2,1.2,0,0,0,1.2-1.2V112.7a1.2,1.2,0,0,0-1.2-1.2H129.72V94.13h13.61a1.2,1.2,0,0,0,1.2-1.2V62.5a1.2,1.2,0,0,0-1.2-1.2h-30a1.2,1.2,0,0,0-1.2,1.2V76.32H94.18V62.5A1.2,1.2,0,0,0,93,61.3H63a1.2,1.2,0,0,0-1.2,1.2V92.93a1.2,1.2,0,0,0,1.2,1.2H76.58V111.5H62.91a1.2,1.2,0,0,0-1.2,1.2v30.43a1.2,1.2,0,0,0,1.2,1.2h30a1.19,1.19,0,0,0,1.19-1.2Zm18-2.79h-18V112.7a1.19,1.19,0,0,0-1.19-1.2H79.37V94.13H93a1.2,1.2,0,0,0,1.2-1.2V79.11h17.93V92.93a1.2,1.2,0,0,0,1.2,1.2h13.62V111.5H113.31a1.2,1.2,0,0,0-1.2,1.2ZM96.65,124H109.6V112.7a3.71,3.71,0,0,1,3.71-3.71h11.1V96.65h-11.1a3.72,3.72,0,0,1-3.71-3.72V81.63H96.7v11.3A3.73,3.73,0,0,1,93,96.65H81.88V109H92.94a3.72,3.72,0,0,1,3.71,3.71Z"/><path class="cls-5" d="M71.27,80.33a2.65,2.65,0,0,1,0-5.3h4V71a2.66,2.66,0,1,1,5.31,0v4h4.05a2.65,2.65,0,0,1,0,5.3H80.63v4a2.66,2.66,0,1,1-5.31,0v-4Z"/><path class="cls-5" d="M134.94,71.1h0a2.66,2.66,0,0,1,0,3.75l-9.48,9.48a2.65,2.65,0,0,1-1.88.78,2.61,2.61,0,0,1-1.87-.78,2.64,2.64,0,0,1,0-3.75l9.48-9.48a2.64,2.64,0,0,1,3.75,0"/><circle class="cls-5" cx="123.58" cy="72.98" r="2.73"/><path class="cls-5" d="M130.33,82.46a2.73,2.73,0,1,1,2.73,2.72,2.73,2.73,0,0,1-2.73-2.72h0"/><path class="cls-5" d="M84.63,130.57H71.22a2.66,2.66,0,0,1,0-5.31H84.63a2.66,2.66,0,0,1,0,5.31"/><path class="cls-5" d="M131.19,121.3a2.65,2.65,0,0,1,3.75,3.75l-2.87,2.87,2.87,2.86a2.66,2.66,0,0,1-1.88,4.53,2.61,2.61,0,0,1-1.87-.78l-2.87-2.86-2.86,2.86a2.65,2.65,0,0,1-1.88.78,2.61,2.61,0,0,1-1.87-.78,2.64,2.64,0,0,1,0-3.75l2.86-2.86-2.86-2.87a2.65,2.65,0,0,1,3.75-3.75l2.86,2.86Z"/></svg>