<svg id="Layer_1" data-name="Layer 1" xmlns="http://www.w3.org/2000/svg" xmlns:xlink="http://www.w3.org/1999/xlink" viewBox="0 0 200 200"><defs><style>.cls-1{fill:url(#radial-gradient);}.cls-2{fill:#fff;}.cls-3{fill:#06bac5;}.cls-4{fill:#1a237e;}.cls-5{fill:#f9e0a6;stroke:#1a237e;stroke-miterlimit:10;stroke-width:2px;}</style><radialGradient id="radial-gradient" cx="100" cy="646" r="100" gradientTransform="translate(0 -546)" gradientUnits="userSpaceOnUse"><stop offset="0.45" stop-color="#fffffc"/><stop offset="0.66" stop-color="#95e2e5"/><stop offset="0.82" stop-color="#48ccd4"/><stop offset="0.94" stop-color="#18bfc9"/><stop offset="0.99" stop-color="#06bac5"/></radialGradient></defs><rect class="cls-1" width="200" height="200"/><circle class="cls-2" cx="101.75" cy="101.75" r="68.75"/><path class="cls-3" d="M143.33,95.39a2.46,2.46,0,0,0,2.46-2.46V62.5a2.46,2.46,0,0,0-2.46-2.45h-30a2.46,2.46,0,0,0-2.46,2.45V75.06H95.44V62.5A2.46,2.46,0,0,0,93,60.05H63A2.46,2.46,0,0,0,60.5,62.5V92.93A2.46,2.46,0,0,0,63,95.39H75.32v14.86H62.91a2.45,2.45,0,0,0-2.45,2.45v30.43a2.46,2.46,0,0,0,2.45,2.46h30a2.46,2.46,0,0,0,2.45-2.46V130.57h15.46v12.56a2.46,2.46,0,0,0,2.46,2.46h30a2.46,2.46,0,0,0,2.46-2.46V112.7a2.46,2.46,0,0,0-2.46-2.45H131V95.39ZM110.85,112.7v12.56H95.39V112.7a2.45,2.45,0,0,0-2.45-2.45H80.63V95.39H93a2.46,2.46,0,0,0,2.46-2.46V80.37h15.41V92.93a2.46,2.46,0,0,0,2.46,2.46h12.36v14.86H113.31A2.46,2.46,0,0,0,110.85,112.7Z"/><path class="cls-4" d="M143.33,146.85h-30a3.72,3.72,0,0,1-3.71-3.72v-11.3H96.65v11.3a3.72,3.72,0,0,1-3.71,3.72h-30a3.72,3.72,0,0,1-3.71-3.72V112.7A3.71,3.71,0,0,1,62.91,109H74.06V96.65H63a3.72,3.72,0,0,1-3.71-3.72V62.5A3.71,3.71,0,0,1,63,58.79H93A3.72,3.72,0,0,1,96.7,62.5V73.81h12.9V62.5a3.71,3.71,0,0,1,3.71-3.71h30a3.72,3.72,0,0,1,3.72,3.71V92.93a3.73,3.73,0,0,1-3.72,3.72h-11.1V109h11.1a3.72,3.72,0,0,1,3.72,3.71v30.43A3.73,3.73,0,0,1,143.33,146.85Zm-49.2-17.54h18v13.82a1.2,1.2,0,0,0,1.2,1.2h30a1.2,1.2,0,0,0,1.2-1.2V112.7a1.2,1.2,0,0,0-1.2-1.2H129.72V94.13h13.61a1.2,1.2,0,0,0,1.2-1.2V62.5a1.2,1.2,0,0,0-1.2-1.2h-30a1.2,1.2,0,0,0-1.2,1.2V76.32H94.18V62.5A1.2,1.2,0,0,0,93,61.3H63a1.2,1.2,0,0,0-1.2,1.2V92.93a1.2,1.2,0,0,0,1.2,1.2H76.58V111.5H62.91a1.2,1.2,0,0,0-1.2,1.2v30.43a1.2,1.2,0,0,0,1.2,1.2h30a1.19,1.19,0,0,0,1.19-1.2Zm18-2.79h-18V112.7a1.19,1.19,0,0,0-1.19-1.2H79.37V94.13H93a1.2,1.2,0,0,0,1.2-1.2V79.11h17.93V92.93a1.2,1.2,0,0,0,1.2,1.2h13.62V111.5H113.31a1.2,1.2,0,0,0-1.2,1.2ZM96.65,124H109.6V112.7a3.71,3.71,0,0,1,3.71-3.71h11.1V96.65h-11.1a3.72,3.72,0,0,1-3.71-3.72V81.63H96.7v11.3A3.73,3.73,0,0,1,93,96.65H81.88V109H92.94a3.72,3.72,0,0,1,3.71,3.71Z"/><path class="cls-5" d="M71.27,80.33a2.65,2.65,0,0,1,0-5.3h4V71a2.66,2.66,0,1,1,5.31,0v4h4.05a2.65,2.65,0,0,1,0,5.3H80.63v4a2.66,2.66,0,1,1-5.31,0v-4Z"/><path class="cls-5" d="M134.94,71.1h0a2.66,2.66,0,0,1,0,3.75l-9.48,9.48a2.65,2.65,0,0,1-1.88.78,2.61,2.61,0,0,1-1.87-.78,2.64,2.64,0,0,1,0-3.75l9.48-9.48a2.64,2.64,0,0,1,3.75,0"/><circle class="cls-5" cx="123.58" cy="72.98" r="2.73"/><path class="cls-5" d="M130.33,82.46a2.73,2.73,0,1,1,2.73,2.72,2.73,2.73,0,0,1-2.73-2.72h0"/><path class="cls-5" d="M84.63,130.57H71.22a2.66,2.66,0,0,1,0-5.31H84.63a2.66,2.66,0,0,1,0,5.31"/><path class="cls-5" d="M131.19,121.3a2.65,2.65,0,0,1,3.75,3.75l-2.87,2.87,2.87,2.86a2.66,2.66,0,0,1-1.88,4.53,2.61,2.61,0,0,1-1.87-.78l-2.87-2.86-2.86,2.86a2.65,2.65,0,0,1-1.88.78,2.61,2.61,0,0,1-1.87-.78,2.64,2.64,0,0,1,0-3.75l2.86-2.86-2.86-2.87a2.65,2.65,0,0,1,3.75-3.75l2.86,2.86Z"/><path class="cls-2" d="M47.88,190.05a6.3,6.3,0,0,1-3.42-5.71,6.36,6.36,0,0,1,.91-3.36,6.3,6.3,0,0,1,2.51-2.34,8,8,0,0,1,7.18,0,6.31,6.31,0,0,1,3.41,5.7,6.31,6.31,0,0,1-3.41,5.71,8.09,8.09,0,0,1-7.18,0Zm5.31-2.56a3.2,3.2,0,0,0,1.23-1.27,4.15,4.15,0,0,0,0-3.76,3.27,3.27,0,0,0-1.23-1.27,3.53,3.53,0,0,0-3.45,0,3.27,3.27,0,0,0-1.23,1.27,4.15,4.15,0,0,0,0,3.76,3.2,3.2,0,0,0,1.23,1.27,3.53,3.53,0,0,0,3.45,0Z"/><path class="cls-2" d="M68.74,181.34a4.39,4.39,0,0,1,1.72,1.75,5.85,5.85,0,0,1,0,5.32,4.44,4.44,0,0,1-1.72,1.77,4.77,4.77,0,0,1-2.42.62,3.52,3.52,0,0,1-2.88-1.13v1H60.18V177.29H63.6v4.44a3.64,3.64,0,0,1,2.72-1A4.87,4.87,0,0,1,68.74,181.34Zm-1.67,6.12a2.8,2.8,0,0,0,0-3.41,2.09,2.09,0,0,0-2.95,0,2.8,2.8,0,0,0,0,3.41,2,2,0,0,0,2.95,0Z"/><path class="cls-2" d="M69.9,193.79l.86-2.43a2,2,0,0,0,1.06.29.93.93,0,0,0,.74-.32,1.48,1.48,0,0,0,.27-1v-9.48h3.42v9.5a3.85,3.85,0,0,1-1,2.85,4,4,0,0,1-2.93,1.06A4.74,4.74,0,0,1,69.9,193.79ZM73,179.28a1.65,1.65,0,0,1-.58-1.29,1.67,1.67,0,0,1,.58-1.3,2.49,2.49,0,0,1,3,0,1.57,1.57,0,0,1,.58,1.26,1.72,1.72,0,0,1-.58,1.34,2.1,2.1,0,0,1-1.51.54A2.16,2.16,0,0,1,73,179.28Z"/><path class="cls-2" d="M88.36,186.63H81.27a2,2,0,0,0,.84,1.16,2.78,2.78,0,0,0,1.56.4,3.42,3.42,0,0,0,1.21-.19,3.86,3.86,0,0,0,1-.65l1.8,1.87a5.3,5.3,0,0,1-4.16,1.58,6.7,6.7,0,0,1-3-.64,4.93,4.93,0,0,1-2-1.8,4.83,4.83,0,0,1-.72-2.61,4.93,4.93,0,0,1,.7-2.59,4.85,4.85,0,0,1,1.91-1.79,5.85,5.85,0,0,1,2.76-.65,5.64,5.64,0,0,1,2.64.61,4.6,4.6,0,0,1,1.89,1.74,5.15,5.15,0,0,1,.69,2.71S88.4,186.09,88.36,186.63Zm-6.47-3a2,2,0,0,0-.67,1.23h4a2,2,0,0,0-.67-1.23,2,2,0,0,0-1.32-.45A2,2,0,0,0,81.89,183.6Z"/><path class="cls-2" d="M96.73,190.25a3.38,3.38,0,0,1-1,.41,5.57,5.57,0,0,1-1.32.14,4.25,4.25,0,0,1-2.94-.93,3.62,3.62,0,0,1-1-2.79V183.8H89v-2.55H90.4v-2.54h3.42v2.54h2.23v2.55H93.82V187a1.13,1.13,0,0,0,.28.82,1,1,0,0,0,.74.3,1.78,1.78,0,0,0,1-.31Z"/><path class="cls-2" d="M98.25,179.28a1.65,1.65,0,0,1-.58-1.29,1.67,1.67,0,0,1,.58-1.3,2.13,2.13,0,0,1,1.51-.52,2.19,2.19,0,0,1,1.51.5,1.6,1.6,0,0,1,.58,1.26,1.75,1.75,0,0,1-.58,1.34,2.12,2.12,0,0,1-1.51.54A2.14,2.14,0,0,1,98.25,179.28Zm-.2,1.61h3.42v9.75H98.05Z"/><path class="cls-2" d="M114,180.89l-4,9.75H106.4l-4-9.75h3.51l2.34,6,2.46-6Z"/><path class="cls-2" d="M116.64,190.16a5,5,0,0,1-2-1.8,5.13,5.13,0,0,1,0-5.21,5,5,0,0,1,2-1.79,6.62,6.62,0,0,1,5.68,0,4.77,4.77,0,0,1,2,1.78,4.95,4.95,0,0,1-2,7,6.6,6.6,0,0,1-5.67,0Zm4.3-2.7a2.8,2.8,0,0,0,0-3.41,1.94,1.94,0,0,0-1.47-.61,2,2,0,0,0-1.48.61,2.84,2.84,0,0,0,0,3.41,1.93,1.93,0,0,0,1.48.63A1.89,1.89,0,0,0,120.94,187.46Z"/><path class="cls-2" d="M143.19,188.23h-1.87v2.41h-3.47v-2.41h-6.66v-2.32l5.65-7.87h3.69l-5.13,7.36H138v-2.14h3.37v2.14h1.87Z"/><path class="cls-2" d="M144.74,190.23a2.09,2.09,0,0,1,0-2.92,2.06,2.06,0,0,1,1.47-.56,2,2,0,0,1,1.47.56,1.92,1.92,0,0,1,.58,1.46,2,2,0,0,1-.59,1.46,2.15,2.15,0,0,1-2.92,0Z"/><path class="cls-2" d="M157.73,183.11a4,4,0,0,1,1.58,1.4,3.77,3.77,0,0,1,.58,2.08,4,4,0,0,1-.65,2.26,4.31,4.31,0,0,1-1.78,1.51,5.75,5.75,0,0,1-2.52.53,5.66,5.66,0,0,1-4.26-1.6,6.3,6.3,0,0,1-1.57-4.61A7.67,7.67,0,0,1,150,181a5.65,5.65,0,0,1,2.35-2.37,7.33,7.33,0,0,1,3.51-.81,9.07,9.07,0,0,1,2.05.23,5.35,5.35,0,0,1,1.66.69l-1.3,2.55a3.94,3.94,0,0,0-2.32-.64,2.94,2.94,0,0,0-3.19,2.93,4.22,4.22,0,0,1,2.85-.94A4.78,4.78,0,0,1,157.73,183.11ZM156,187.92a1.64,1.64,0,0,0,0-2.32,1.78,1.78,0,0,0-1.25-.43,1.81,1.81,0,0,0-1.26.44,1.62,1.62,0,0,0,0,2.31,1.85,1.85,0,0,0,1.29.44A1.76,1.76,0,0,0,156,187.92Z"/></svg>