<svg id="Layer_1" data-name="Layer 1" xmlns="http://www.w3.org/2000/svg" xmlns:xlink="http://www.w3.org/1999/xlink" viewBox="0 0 200 200"><defs><style>.cls-1{fill:url(#radial-gradient);}.cls-2{fill:#fff;}.cls-3{fill:#005c7b;}.cls-4{fill:#f9e0a6;}.cls-5{fill:#ffd064;}.cls-6{fill:#659afc;}.cls-7{fill:#80b4fb;}.cls-8{fill:#3f51b5;}.cls-9{fill:#000856;}.cls-10{fill:#efe7e4;}.cls-11{fill:#ececec;}.cls-12{fill:#1a237e;}</style><radialGradient id="radial-gradient" cx="100" cy="646" r="100" gradientTransform="translate(0 -546)" gradientUnits="userSpaceOnUse"><stop offset="0.45" stop-color="#fffffc"/><stop offset="0.49" stop-color="#f3f7fc"/><stop offset="0.74" stop-color="#a7c5fc"/><stop offset="0.91" stop-color="#77a6fc"/><stop offset="1" stop-color="#659afc"/></radialGradient></defs><rect class="cls-1" width="200" height="200"/><path class="cls-2" d="M99.7,191.23H97.83v2.41H94.35v-2.41H87.69v-2.32L93.34,181H97L91.9,188.4h2.56v-2.14h3.37v2.14H99.7Z"/><path class="cls-2" d="M101.25,193.23a2.09,2.09,0,0,1,0-2.92,2.21,2.21,0,0,1,2.94,0,2.14,2.14,0,0,1,0,2.92,2.15,2.15,0,0,1-2.92,0Z"/><path class="cls-2" d="M114.92,187.37a3.46,3.46,0,0,1,.83,2.33,3.83,3.83,0,0,1-.6,2.07,4.18,4.18,0,0,1-1.84,1.54,7.06,7.06,0,0,1-3,.58,11.2,11.2,0,0,1-2.63-.32,7.75,7.75,0,0,1-2.26-.92l1.29-2.68a6.08,6.08,0,0,0,1.67.77,6.54,6.54,0,0,0,1.83.27,2.66,2.66,0,0,0,1.45-.34,1.09,1.09,0,0,0,.54-1q0-1.23-1.92-1.23h-1.5v-2.25l2.25-2.43h-5V181h9.1v2.23l-2.61,2.81A4.24,4.24,0,0,1,114.92,187.37Z"/><circle class="cls-2" cx="101.75" cy="101.75" r="68.75"/><path class="cls-3" d="M135.06,64.93l-2,2c6.29,4,11.81,5.47,14.49,3.52l.21-.18C149.54,68.49,147,63,142,58s-10.48-7.55-12.3-5.74.64,7,5.37,11.92A.51.51,0,0,1,135.06,64.93Z"/><path class="cls-3" d="M133,67l2-2a.53.53,0,0,0,0-.75c-4.56-4.7-7-9.78-5.54-11.72l-5.6,7.37A63.11,63.11,0,0,0,133,67Z"/><path class="cls-3" d="M130.35,69.64a43.85,43.85,0,0,0,9,7l8.17-6.2c-4.2,3.06-15.36-2.34-25.5-12.47h0A39.08,39.08,0,0,0,130.35,69.64Z"/><path class="cls-3" d="M122,58h0c.63.63,1.27,1.24,1.9,1.83l5.6-7.37a1.63,1.63,0,0,1,.17-.2,1.9,1.9,0,0,1,.79-.46c-3.84-2-7.07-2.42-8.62-.87-1.35,1.35-1.18,4,.18,7.16Z"/><path class="cls-3" d="M148.19,69.52a1.9,1.9,0,0,1-.46.78l-.21.18-.05,0,.05,0-8.17,6.2-.13-.08c4.37,2.52,8.13,3.25,9.84,1.53,1.55-1.54,1.09-4.77-.87-8.61Z"/><circle class="cls-4" cx="98.43" cy="101.56" r="7.95"/><circle class="cls-5" cx="98.43" cy="101.56" r="2.92"/><path class="cls-6" d="M92.81,95.94a7.94,7.94,0,0,1,5.28-2.32,58.94,58.94,0,0,1-4.92-7L93,86.35a.84.84,0,0,0-1.48.07l-.8,1.64A7,7,0,0,1,87,91.48l-1,.37a.85.85,0,0,0-.43,1.22l.44.74a58.85,58.85,0,0,0,4.58,6.57,7.91,7.91,0,0,1,2.24-4.44Z"/><path class="cls-6" d="M93.64,107.9v25.58a.14.14,0,0,0,.22.11l3.49-2.37a1.91,1.91,0,0,1,2.17,0l3.49,2.37a.14.14,0,0,0,.22-.11V107.9A7.94,7.94,0,0,1,93.64,107.9Z"/><path class="cls-7" d="M100.18,109.32h0Z"/><path class="cls-8" d="M116.47,128.32l-11-23.09a7.94,7.94,0,0,1-2.26,2.67v14.92l4.58,9.62a.14.14,0,0,0,.25,0l2.13-3.64a1.94,1.94,0,0,1,2-.93l4.17.65A.15.15,0,0,0,116.47,128.32Z"/><path class="cls-9" d="M108.85,112.3a7,7,0,0,1,3.09-3l1.64-.81a.84.84,0,0,0,.06-1.47l-.27-.17a58.06,58.06,0,0,1-7-4.91,7.94,7.94,0,0,1-.89,3.32Z"/><path class="cls-10" d="M65.05,145.39c5.69,4.15,11,5.78,13.09,3.66a2.69,2.69,0,0,0,.27-.32l15.23-19.87V108.07Z"/><path class="cls-11" d="M93.64,107.9h0a6.2,6.2,0,0,1-.83-.72,7.94,7.94,0,0,1-2.24-6.8h0A57.22,57.22,0,0,1,86,93.85a175.37,175.37,0,0,1-13.4,11.38L51.26,121.58h0a2.61,2.61,0,0,0-.31.27c-2.82,2.82,1,11.2,8.49,18.71a48.37,48.37,0,0,0,5.61,4.83l28.59-37.32v-.17Z"/><path class="cls-11" d="M135.6,74.2a48.69,48.69,0,0,1-5.25-4.56c-7.24-7.25-11-15.3-8.76-18.38L105.23,72.61a175.52,175.52,0,0,1-12,14.09,57.84,57.84,0,0,0,4.88,6.92,8,8,0,0,1,6,2.32,7.85,7.85,0,0,1,1.41,1.92q4.77-4.24,9.85-8.13Z"/><path class="cls-10" d="M135.6,74.2,115.32,89.73q-5.08,3.88-9.85,8.13a7.89,7.89,0,0,1,.91,4,58.93,58.93,0,0,0,6.92,4.87,175.52,175.52,0,0,1,14.09-12l21.35-16.35c-2.35,1.73-7.58-.06-13.14-4.21Z"/><path class="cls-12" d="M95.3,98.43a4.43,4.43,0,1,0,6.27,0,4.42,4.42,0,0,0-6.27,0Zm4.13,2.13a1.41,1.41,0,1,1-2,0A1.42,1.42,0,0,1,99.43,100.56Z"/><path class="cls-12" d="M75.47,151.5a5.12,5.12,0,0,0,3.74-1.38c.3-.31-.54.75,12.92-16.81v.17a1.65,1.65,0,0,0,2.58,1.36l3.49-2.38a.44.44,0,0,1,.47,0l3.48,2.38a1.66,1.66,0,0,0,2.59-1.36v-4l1.7,3.59a1.65,1.65,0,0,0,2.92.12l2.13-3.64a.41.41,0,0,1,.43-.2l4.17.65a1.65,1.65,0,0,0,1.74-2.34l-7.27-15.3a5.38,5.38,0,0,1,2-1.76l1.63-.8a2.35,2.35,0,0,0,1.16-2.95c4.11-3.83,8.45-7.5,12.9-10.91,23-17.66,21.52-16.45,21.82-16.76,1.94-1.94,1.82-5.44-.35-9.88a8.18,8.18,0,0,0-.92-4.45,1.51,1.51,0,1,0-2.75,1.25c.94,2.06.71,3,.56,3.11l0,0c-1.82,1.33-6.11.31-11.17-2.59l.67-.67a2,2,0,0,0,0-2.86,25,25,0,0,1-4.84-6.7c-.92-2.06-.7-2.95-.55-3.11l.09-.06.21-.07c1.21-.23,5.21,1.22,9.86,5.87.49.5,1,1,1.42,1.51a1.51,1.51,0,1,0,2.26-2c-.49-.56-1-1.11-1.54-1.65-4-4-9.07-7.14-12.37-6.71-4.45-2.17-8-2.3-9.9-.36a4.76,4.76,0,0,0-.44.53C102.8,73.31,97.9,79.2,95.72,81.88a1.51,1.51,0,0,0,2.34,1.91c2.24-2.75,7.33-8.9,21.7-27.67a17.78,17.78,0,0,0,.9,2.57c2.42,5.69,7.65,11.57,12.47,15.5-18.73,14.35-21.75,16.51-27.36,21.4a9.45,9.45,0,0,0-7-3.48,56.59,56.59,0,0,1-3.71-5.22c1.12-1.19,2.22-2.4,3.29-3.61a1.51,1.51,0,1,0-2.26-2c-1,1.11-2,2.22-3,3.31a2.35,2.35,0,0,0-2.94,1.16l-.81,1.64a5.4,5.4,0,0,1-2.94,2.68l-1,.37a2.36,2.36,0,0,0-1.33,3.13c-4,3.66-8.13,7.18-12.41,10.46-22.9,17.54-21.52,16.46-21.82,16.76-1.84,1.84-1.82,5.13.07,9.28C54.4,139.89,67.68,151.5,75.47,151.5ZM100.37,130a3.42,3.42,0,0,0-3.87,0l-1.35.92v-8.61a1.51,1.51,0,0,0-3,0v6.06c-15.94,20.82-15,19.55-15,19.64-1.12,1.12-4.88.41-9.87-2.92l24.92-32.54v2.72a1.51,1.51,0,0,0,3,0v-4.81a9.51,9.51,0,0,0,6.57,0v20.46Zm12-3.58a3.39,3.39,0,0,0-3.49,1.66l-.83,1.41-3.32-7V108.61c.17-.15.32-.3.47-.45L114,126.64Zm-3.24-17-2-4.19c.08-.2.16-.4.23-.6,1.43,1.07,2.91,2.09,4.43,3a9,9,0,0,0-2.68,1.76ZM147.75,72.2c1,2.69.83,4.28.24,4.87s-2.76.73-5.81-.64Zm-14.43-7.66-.49.49A61.24,61.24,0,0,1,126,59.66l2.22-2.92A25.57,25.57,0,0,0,133.32,64.54Zm-5.53-12.29-4.05,5.34c-.15-.16-.31-.31-.47-.47-1-2.41-1.1-4.35-.34-5.11.59-.59,2.18-.79,4.86.24Zm1.34,13.87c3.66,2.68,8.61,5.65,13.09,6.49l-3,2.25A45.4,45.4,0,0,1,129.13,66.12Zm6.49,10a27.05,27.05,0,0,0,8.25,4.16l-17.4,13.32c-4.62,3.54-9.11,7.35-13.37,11.33a59.33,59.33,0,0,1-5.22-3.7,9.48,9.48,0,0,0-.58-2.93c5.8-5.09,8.53-7,28.32-22.18Zm-32.63,30A6.44,6.44,0,1,1,103,97,6.45,6.45,0,0,1,103,106.12ZM87.5,92.89a8.43,8.43,0,0,0,4.58-4.17l.27-.55c.94,1.52,2,3,3,4.44A9.44,9.44,0,0,0,90,97.2c-1-1.38-1.92-2.77-2.78-4.22ZM52,122.92c.09-.09-1.29,1,21.52-16.5,4.19-3.21,8.28-6.64,12.18-10.22,1,1.6,2.13,3.15,3.3,4.64a9.44,9.44,0,0,0,2.65,7.33L64.77,143.28a48,48,0,0,1-4.26-3.79C52.86,131.84,50.37,124.57,52,122.92Z"/></svg>