<svg id="Layer_1" data-name="Layer 1" xmlns="http://www.w3.org/2000/svg" xmlns:xlink="http://www.w3.org/1999/xlink" viewBox="0 0 200 200"><defs><style>.cls-1{fill:url(#radial-gradient);}.cls-2{fill:#fff;}.cls-3{fill:#659afc;}.cls-4{fill:#1a237e;}.cls-5{fill:#06bac5;}.cls-6{fill:#ececec;}.cls-7{fill:#005c7b;}</style><radialGradient id="radial-gradient" cx="100" cy="646" r="100" gradientTransform="translate(0 -546)" gradientUnits="userSpaceOnUse"><stop offset="0" stop-color="#ecfffc"/><stop offset="0.16" stop-color="#cddfef"/><stop offset="0.57" stop-color="#8193d0"/><stop offset="0.86" stop-color="#5163bc"/><stop offset="1" stop-color="#3f51b5"/></radialGradient></defs><rect class="cls-1" width="200" height="200"/><circle class="cls-2" cx="101.75" cy="101.75" r="68.75"/><path class="cls-3" d="M122.14,99.64H79.86A2.64,2.64,0,0,1,77.22,97V54.55a2.64,2.64,0,0,1,2.64-2.64h42.28a2.64,2.64,0,0,1,2.64,2.64V97A2.64,2.64,0,0,1,122.14,99.64Z"/><path class="cls-4" d="M122.14,101.59H79.86A4.6,4.6,0,0,1,75.27,97V54.55A4.6,4.6,0,0,1,79.86,50h42.28a4.6,4.6,0,0,1,4.59,4.6V97A4.6,4.6,0,0,1,122.14,101.59ZM79.86,53.86a.69.69,0,0,0-.69.69V97a.69.69,0,0,0,.69.69h42.28a.69.69,0,0,0,.69-.69V54.55a.69.69,0,0,0-.69-.69Z"/><path class="cls-5" d="M101,97l5.28,21.14-5.28,24H58.55a2.61,2.61,0,0,1-2.64-2.64V99.64A2.61,2.61,0,0,1,58.55,97Z"/><path class="cls-4" d="M102.57,144.05h-44a4.55,4.55,0,0,1-4.6-4.6V99.64a4.55,4.55,0,0,1,4.6-4.59h44l5.77,23.06ZM58.55,99a.67.67,0,0,0-.69.69v39.81a.67.67,0,0,0,.69.69H99.43l4.85-22L99.48,99Z"/><path class="cls-2" d="M113.93,82.61,103.36,61.47a2.68,2.68,0,0,0-4.72,0L88.07,82.61A2.64,2.64,0,1,0,92.79,85l1.92-3.82h12.58L109.21,85a2.64,2.64,0,0,0,4.72-2.36ZM97.35,75.86l3.65-7.3,3.65,7.3Z"/><path class="cls-2" d="M79.86,107.57H69.29a2.64,2.64,0,0,0-2.64,2.64v21.14A2.64,2.64,0,0,0,69.29,134H79.86a7.89,7.89,0,0,0,5.87-13.21,7.89,7.89,0,0,0-5.87-13.21Zm-7.92,5.28h7.92a2.65,2.65,0,0,1,0,5.29H71.94Zm7.92,15.86H71.94v-5.29h7.92a2.65,2.65,0,0,1,0,5.29Z"/><path class="cls-6" d="M79.86,107.57H77.22v5.28h2.64a2.65,2.65,0,0,1,0,5.29H77.22v5.28h2.64a2.65,2.65,0,0,1,0,5.29H77.22V134h2.64a7.89,7.89,0,0,0,5.87-13.21,7.89,7.89,0,0,0-5.87-13.21Z"/><path class="cls-4" d="M79.86,135.29H69.29a4,4,0,0,1-3.94-3.92V110.21a4,4,0,0,1,3.94-3.94H79.86a9.24,9.24,0,0,1,9.23,9.23,9.12,9.12,0,0,1-1.7,5.28,9.12,9.12,0,0,1,1.7,5.28A9.24,9.24,0,0,1,79.86,135.29ZM68,131.35a1.34,1.34,0,0,0,1.34,1.34H79.86a6.59,6.59,0,0,0,4.9-11l-.78-.87.78-.87a6.59,6.59,0,0,0-4.9-11H69.29A1.34,1.34,0,0,0,68,110.21ZM79.86,130H70.64v-7.89h9.22a3.95,3.95,0,0,1,0,7.89Zm-6.62-2.6h6.62a1.35,1.35,0,0,0,0-2.69H73.24Zm6.62-8H70.64v-7.89h9.22a3.95,3.95,0,0,1,0,7.89Zm-6.62-2.6h6.62a1.35,1.35,0,0,0,0-2.69H73.24Z"/><path class="cls-7" d="M143.45,97H101v45.09h42.45a2.61,2.61,0,0,0,2.64-2.64V99.64A2.61,2.61,0,0,0,143.45,97Z"/><path class="cls-4" d="M143.45,144.05H99.05v-49h44.4a4.55,4.55,0,0,1,4.6,4.59v39.81A4.55,4.55,0,0,1,143.45,144.05ZM103,140.14h40.5a.67.67,0,0,0,.69-.69V99.64a.67.67,0,0,0-.69-.69H103Z"/><path class="cls-2" d="M124.78,134a13.21,13.21,0,1,1,9.35-22.55,2.64,2.64,0,0,1-3.75,3.73,7.93,7.93,0,1,0,0,11.22,2.64,2.64,0,0,1,3.75,3.73A13.11,13.11,0,0,1,124.78,134Z"/><path class="cls-6" d="M134.13,130.12a2.64,2.64,0,0,0-3.75-3.73,7.87,7.87,0,0,1-5.6,2.32,7.79,7.79,0,0,1-2.47-.4v5.45a13.43,13.43,0,0,0,2.47.23,13.11,13.11,0,0,0,9.35-3.87Z"/><path class="cls-6" d="M124.78,107.57a13.43,13.43,0,0,0-2.47.23v5.45a7.79,7.79,0,0,1,2.47-.4,7.87,7.87,0,0,1,5.6,2.32,2.64,2.64,0,0,0,3.75-3.73,13.11,13.11,0,0,0-9.35-3.87Z"/><path class="cls-6" d="M109.21,85a2.64,2.64,0,0,0,4.72-2.36L103.36,61.47A2.56,2.56,0,0,0,101,60.06v8.5l3.65,7.3H101v5.29h6.29Z"/><path class="cls-4" d="M90.42,87.73a4,4,0,0,1-1.75-.41A4,4,0,0,1,86.9,82L97.47,60.89a4,4,0,0,1,7.06,0L115.1,82A3.94,3.94,0,1,1,108,85.55l-1.55-3.1h-11L94,85.55A4,4,0,0,1,90.42,87.73ZM101,61.36a1.32,1.32,0,0,0-1.2.69L89.23,83.19a1.34,1.34,0,1,0,2.4,1.2l2.27-4.54h14.2l2.27,4.54a1.34,1.34,0,1,0,2.4-1.2L102.2,62.05A1.32,1.32,0,0,0,101,61.36Zm5.76,15.8H95.24L101,65.65Zm-7.31-2.6h3.1L101,71.47Z"/><path class="cls-4" d="M124.78,135.29a14.51,14.51,0,1,1,10.27-24.77,3.95,3.95,0,0,1-5.59,5.57,6.57,6.57,0,0,0-4.68-1.94,6.63,6.63,0,0,0,0,13.26,6.57,6.57,0,0,0,4.68-1.94,3.89,3.89,0,0,1,2.79-1.16h0a3.95,3.95,0,0,1,2.8,6.73A14.43,14.43,0,0,1,124.78,135.29Zm0-26.42a11.91,11.91,0,1,0,8.43,20.33,1.35,1.35,0,0,0-1-2.29h0a1.36,1.36,0,0,0-.95.39,9.12,9.12,0,0,1-6.52,2.71,9.23,9.23,0,0,1,0-18.46,9.12,9.12,0,0,1,6.52,2.71,1.35,1.35,0,0,0,1.9,0,1.33,1.33,0,0,0,0-1.9A11.8,11.8,0,0,0,124.78,108.87Z"/><path class="cls-2" d="M48.11,190.05a6.41,6.41,0,0,1-2.5-2.34,6.44,6.44,0,0,1,2.5-9.07,8,8,0,0,1,7.18,0,6.54,6.54,0,0,1,2.5,9.07,6.41,6.41,0,0,1-2.5,2.34,8.09,8.09,0,0,1-7.18,0Zm5.32-2.56a3.24,3.24,0,0,0,1.22-1.27,4.15,4.15,0,0,0,0-3.76,3.31,3.31,0,0,0-1.22-1.27,3.55,3.55,0,0,0-3.46,0,3.31,3.31,0,0,0-1.22,1.27,4.15,4.15,0,0,0,0,3.76A3.24,3.24,0,0,0,50,187.49a3.55,3.55,0,0,0,3.46,0Z"/><path class="cls-2" d="M69,181.34a4.41,4.41,0,0,1,1.73,1.75,5.42,5.42,0,0,1,.64,2.66,5.48,5.48,0,0,1-.64,2.66A4.47,4.47,0,0,1,69,190.18a4.74,4.74,0,0,1-2.42.62,3.55,3.55,0,0,1-2.88-1.13v1H60.41V177.29h3.42v4.44a3.65,3.65,0,0,1,2.72-1A4.84,4.84,0,0,1,69,181.34Zm-1.66,6.12a2.84,2.84,0,0,0,0-3.41,2.1,2.1,0,0,0-3,0,2.84,2.84,0,0,0,0,3.41,2.05,2.05,0,0,0,3,0Z"/><path class="cls-2" d="M70.13,193.79l.87-2.43a2,2,0,0,0,1.06.29.9.9,0,0,0,.73-.32,1.43,1.43,0,0,0,.28-1v-9.48h3.42v9.5a3.86,3.86,0,0,1-1.06,2.85,4,4,0,0,1-2.92,1.06A4.75,4.75,0,0,1,70.13,193.79Zm3.13-14.51a1.67,1.67,0,0,1-.57-1.29,1.69,1.69,0,0,1,.57-1.3,2.18,2.18,0,0,1,1.52-.52,2.2,2.2,0,0,1,1.51.5,1.6,1.6,0,0,1,.57,1.26,1.75,1.75,0,0,1-.57,1.34,2.13,2.13,0,0,1-1.51.54A2.18,2.18,0,0,1,73.26,179.28Z"/><path class="cls-2" d="M88.6,186.63H81.51a2,2,0,0,0,.83,1.16,2.83,2.83,0,0,0,1.56.4,3.47,3.47,0,0,0,1.22-.19,3.82,3.82,0,0,0,1-.65l1.8,1.87a5.28,5.28,0,0,1-4.16,1.58,6.63,6.63,0,0,1-3-.64,5,5,0,0,1-2-7,4.81,4.81,0,0,1,1.92-1.79,5.81,5.81,0,0,1,2.75-.65,5.65,5.65,0,0,1,2.65.61A4.57,4.57,0,0,1,88,183.07a5.15,5.15,0,0,1,.69,2.71S88.63,186.09,88.6,186.63Zm-6.47-3a2,2,0,0,0-.68,1.23h4a2,2,0,0,0-.68-1.23,2.16,2.16,0,0,0-2.64,0Z"/><path class="cls-2" d="M97,190.25a3.6,3.6,0,0,1-1,.41,5.71,5.71,0,0,1-1.33.14,4.21,4.21,0,0,1-2.93-.93,3.59,3.59,0,0,1-1-2.79V183.8H89.21v-2.55h1.42v-2.54h3.42v2.54h2.24v2.55H94.05V187a1.18,1.18,0,0,0,.28.82,1,1,0,0,0,.75.3,1.77,1.77,0,0,0,1-.31Z"/><path class="cls-2" d="M98.48,179.28A1.68,1.68,0,0,1,97.9,178a1.7,1.7,0,0,1,.58-1.3,2.49,2.49,0,0,1,3,0,1.57,1.57,0,0,1,.58,1.26,1.72,1.72,0,0,1-.58,1.34,2.1,2.1,0,0,1-1.51.54A2.16,2.16,0,0,1,98.48,179.28Zm-.2,1.61h3.42v9.75H98.28Z"/><path class="cls-2" d="M114.19,180.89l-4,9.75h-3.53l-4-9.75h3.51l2.34,6,2.47-6Z"/><path class="cls-2" d="M116.88,190.16a5,5,0,0,1-2-1.8,4.92,4.92,0,0,1,2-7,6.2,6.2,0,0,1,2.83-.64,6.29,6.29,0,0,1,2.85.64,4.83,4.83,0,0,1,2,1.78,5.22,5.22,0,0,1,0,5.22,5,5,0,0,1-2,1.8,6.16,6.16,0,0,1-2.85.64A6.1,6.1,0,0,1,116.88,190.16Zm4.3-2.7a2.84,2.84,0,0,0,0-3.41,2,2,0,0,0-1.48-.61,1.94,1.94,0,0,0-1.47.61,2.8,2.8,0,0,0,0,3.41,1.89,1.89,0,0,0,1.47.63A1.93,1.93,0,0,0,121.18,187.46Z"/><path class="cls-2" d="M143.43,188.23h-1.88v2.41h-3.47v-2.41h-6.66v-2.32l5.65-7.87h3.69l-5.13,7.36h2.56v-2.14h3.36v2.14h1.88Z"/><path class="cls-2" d="M145,190.23a2,2,0,0,1-.59-1.46,1.92,1.92,0,0,1,.58-1.46,2.22,2.22,0,0,1,2.95,0,2.14,2.14,0,0,1,0,2.92,2.17,2.17,0,0,1-2.93,0Z"/><path class="cls-2" d="M159.52,187.82v2.82h-9.81v-2.23l4.71-4.41a4.42,4.42,0,0,0,.92-1.11,1.93,1.93,0,0,0,.23-.92,1.17,1.17,0,0,0-.41-1,1.86,1.86,0,0,0-1.21-.34,2.66,2.66,0,0,0-1.28.31,2.72,2.72,0,0,0-1,.91l-2.64-1.47a5.15,5.15,0,0,1,2.07-1.93,6.65,6.65,0,0,1,3.15-.7,6.55,6.55,0,0,1,2.55.47,3.94,3.94,0,0,1,1.72,1.34,3.36,3.36,0,0,1,.62,2,4.31,4.31,0,0,1-.44,1.94,7.31,7.31,0,0,1-1.7,2.06l-2.37,2.2Z"/></svg>