<svg id="Layer_1" data-name="Layer 1" xmlns="http://www.w3.org/2000/svg" xmlns:xlink="http://www.w3.org/1999/xlink" viewBox="0 0 200 200"><defs><style>.cls-1{fill:url(#radial-gradient);}.cls-2{fill:#fff;}.cls-3{fill:#f9e0a6;}.cls-4{fill:#659afc;}.cls-5{fill:#ececec;}.cls-6{fill:#eb423f;}.cls-7{fill:#005c7b;}.cls-8{fill:#1a237e;}</style><radialGradient id="radial-gradient" cx="100" cy="646" r="100" gradientTransform="translate(0 -546)" gradientUnits="userSpaceOnUse"><stop offset="0" stop-color="#ecfffc"/><stop offset="0.16" stop-color="#cddfef"/><stop offset="0.57" stop-color="#8193d0"/><stop offset="0.86" stop-color="#5163bc"/><stop offset="1" stop-color="#3f51b5"/></radialGradient></defs><rect class="cls-1" width="200" height="200"/><path class="cls-2" d="M47.85,190.05a6.41,6.41,0,0,1-2.5-2.34,6.44,6.44,0,0,1,2.5-9.07,8,8,0,0,1,7.18,0,6.54,6.54,0,0,1,2.5,9.07,6.48,6.48,0,0,1-2.5,2.34,8.09,8.09,0,0,1-7.18,0Zm5.32-2.56a3.24,3.24,0,0,0,1.22-1.27,4.15,4.15,0,0,0,0-3.76,3.31,3.31,0,0,0-1.22-1.27,3.55,3.55,0,0,0-3.46,0,3.24,3.24,0,0,0-1.22,1.27,4.15,4.15,0,0,0,0,3.76,3.18,3.18,0,0,0,1.22,1.27,3.55,3.55,0,0,0,3.46,0Z"/><path class="cls-2" d="M68.71,181.34a4.48,4.48,0,0,1,1.73,1.75,5.42,5.42,0,0,1,.64,2.66,5.48,5.48,0,0,1-.64,2.66,4.53,4.53,0,0,1-1.73,1.77,4.74,4.74,0,0,1-2.42.62,3.52,3.52,0,0,1-2.88-1.13v1H60.15V177.29h3.42v4.44a3.65,3.65,0,0,1,2.72-1A4.84,4.84,0,0,1,68.71,181.34ZM67,187.46a2.8,2.8,0,0,0,0-3.41,1.94,1.94,0,0,0-1.47-.61,2,2,0,0,0-1.48.61,2.84,2.84,0,0,0,0,3.41,1.93,1.93,0,0,0,1.48.63A1.89,1.89,0,0,0,67,187.46Z"/><path class="cls-2" d="M69.87,193.79l.86-2.43a2,2,0,0,0,1.07.29.91.91,0,0,0,.73-.32,1.48,1.48,0,0,0,.27-1v-9.48h3.42v9.5a3.85,3.85,0,0,1-1,2.85,4,4,0,0,1-2.92,1.06A4.75,4.75,0,0,1,69.87,193.79ZM73,179.28a1.67,1.67,0,0,1-.57-1.29,1.69,1.69,0,0,1,.57-1.3,2.17,2.17,0,0,1,1.51-.52,2.21,2.21,0,0,1,1.52.5,1.6,1.6,0,0,1,.57,1.26,1.75,1.75,0,0,1-.57,1.34,2.14,2.14,0,0,1-1.52.54A2.17,2.17,0,0,1,73,179.28Z"/><path class="cls-2" d="M88.34,186.63H81.25a2,2,0,0,0,.83,1.16,2.83,2.83,0,0,0,1.56.4,3.38,3.38,0,0,0,1.21-.19,3.71,3.71,0,0,0,1-.65l1.8,1.87a5.28,5.28,0,0,1-4.16,1.58,6.63,6.63,0,0,1-3-.64,4.9,4.9,0,0,1-2-1.8,4.82,4.82,0,0,1-.71-2.61,4.92,4.92,0,0,1,.69-2.59,4.81,4.81,0,0,1,1.92-1.79,5.79,5.79,0,0,1,2.75-.65,5.68,5.68,0,0,1,2.65.61,4.57,4.57,0,0,1,1.88,1.74,5.15,5.15,0,0,1,.69,2.71S88.37,186.09,88.34,186.63Zm-6.47-3a2,2,0,0,0-.68,1.23h4a2,2,0,0,0-.68-1.23,2.16,2.16,0,0,0-2.64,0Z"/><path class="cls-2" d="M96.71,190.25a3.55,3.55,0,0,1-1.06.41,5.57,5.57,0,0,1-1.32.14,4.21,4.21,0,0,1-2.93-.93,3.59,3.59,0,0,1-1-2.79V183.8H89v-2.55h1.42v-2.54h3.42v2.54H96v2.55H93.79V187a1.13,1.13,0,0,0,.28.82,1,1,0,0,0,.75.3,1.77,1.77,0,0,0,1-.31Z"/><path class="cls-2" d="M98.22,179.28a1.65,1.65,0,0,1-.58-1.29,1.67,1.67,0,0,1,.58-1.3,2.15,2.15,0,0,1,1.51-.52,2.19,2.19,0,0,1,1.51.5,1.57,1.57,0,0,1,.58,1.26,1.72,1.72,0,0,1-.58,1.34,2.12,2.12,0,0,1-1.51.54A2.16,2.16,0,0,1,98.22,179.28Zm-.2,1.61h3.42v9.75H98Z"/><path class="cls-2" d="M113.93,180.89l-4,9.75h-3.53l-4-9.75h3.51l2.34,6,2.46-6Z"/><path class="cls-2" d="M116.62,190.16a5.07,5.07,0,0,1-2-1.8,4.91,4.91,0,0,1,2-7,6.17,6.17,0,0,1,2.83-.64,6.29,6.29,0,0,1,2.85.64,4.83,4.83,0,0,1,2,1.78,4.95,4.95,0,0,1-2,7,6.16,6.16,0,0,1-2.85.64A6.1,6.1,0,0,1,116.62,190.16Zm4.3-2.7a2.84,2.84,0,0,0,0-3.41,2.1,2.1,0,0,0-3,0,2.84,2.84,0,0,0,0,3.41,2.05,2.05,0,0,0,3,0Z"/><path class="cls-2" d="M143.16,188.23h-1.87v2.41h-3.47v-2.41h-6.66v-2.32l5.65-7.87h3.69l-5.13,7.36h2.56v-2.14h3.36v2.14h1.87Z"/><path class="cls-2" d="M144.71,190.23a2.11,2.11,0,0,1,0-2.92,2.06,2.06,0,0,1,1.47-.56,2,2,0,0,1,1.47.56,1.92,1.92,0,0,1,.58,1.46,2,2,0,0,1-.58,1.46,2.17,2.17,0,0,1-2.93,0Z"/><path class="cls-2" d="M157.87,181.83a4.26,4.26,0,0,1,1.28,3.39v5.42H156v-1.26a2.93,2.93,0,0,1-2.88,1.42,4.54,4.54,0,0,1-2-.39,2.94,2.94,0,0,1-1.25-1.07,2.79,2.79,0,0,1-.43-1.54,2.49,2.49,0,0,1,1.07-2.15,5.61,5.61,0,0,1,3.27-.77h1.95c-.06-1-.75-1.55-2.07-1.55a4.8,4.8,0,0,0-1.43.23,3.89,3.89,0,0,0-1.22.62l-1.15-2.32a6.47,6.47,0,0,1,2-.84,9.25,9.25,0,0,1,2.33-.3A5.5,5.5,0,0,1,157.87,181.83Zm-2.79,6.53a1.7,1.7,0,0,0,.65-.85v-.85h-1.48c-1,0-1.49.33-1.49,1a.86.86,0,0,0,.34.72,1.47,1.47,0,0,0,.93.27A1.92,1.92,0,0,0,155.08,188.36Z"/><circle class="cls-2" cx="101.75" cy="101.75" r="68.75"/><path class="cls-3" d="M112.06,58.76,103,57.25v-6l9.06,1.51Z"/><path class="cls-4" d="M119.61,138.79H86.39V75.37L103,63.29l16.61,12.08Z"/><circle class="cls-5" cx="103" cy="84.43" r="7.55"/><path class="cls-4" d="M119.61,75.37h24.16v63.42H119.61Z"/><path class="cls-6" d="M104.51,85.94H103a1.52,1.52,0,0,1-1.51-1.51v-3a1.51,1.51,0,0,1,3,0v1.51a1.51,1.51,0,0,1,0,3Z"/><path class="cls-7" d="M92.43,98h21.14v6H92.43Z"/><path class="cls-7" d="M103,111.61a9.06,9.06,0,0,1,9.06,9.06v18.12H93.94V120.67A9.06,9.06,0,0,1,103,111.61Z"/><path class="cls-4" d="M62.23,75.37H86.39v63.42H62.23Z"/><path class="cls-5" d="M69.78,82.92h9.06V95H69.78Z"/><path class="cls-5" d="M69.78,101h9.06v12.08H69.78Z"/><path class="cls-5" d="M69.78,119.16h9.06v12.08H69.78Z"/><path class="cls-5" d="M127.16,82.92h9.06V95h-9.06Z"/><path class="cls-5" d="M127.16,101h9.06v12.08h-9.06Z"/><path class="cls-5" d="M127.16,119.16h9.06v12.08h-9.06Z"/><path class="cls-8" d="M103,93.49a9.06,9.06,0,1,0-9.06-9.06A9.06,9.06,0,0,0,103,93.49Zm0-15.1a6,6,0,1,1-6,6A6,6,0,0,1,103,78.39Z"/><path class="cls-8" d="M103,85.94h1.51a1.51,1.51,0,0,0,0-3V81.41a1.51,1.51,0,0,0-3,0v3A1.52,1.52,0,0,0,103,85.94Z"/><path class="cls-8" d="M115.08,104.06V98a1.52,1.52,0,0,0-1.51-1.51H92.43A1.52,1.52,0,0,0,90.92,98v6a1.52,1.52,0,0,0,1.51,1.51h21.14A1.52,1.52,0,0,0,115.08,104.06Zm-3-1.51H93.94v-3h18.12Z"/><path class="cls-8" d="M68.27,96.51H80.35a1.51,1.51,0,0,0,0-3V82.92a1.51,1.51,0,0,0-1.51-1.51H69.78a1.52,1.52,0,0,0-1.51,1.51V93.49a1.51,1.51,0,1,0,0,3Zm3-12.08h6v9.06h-6Z"/><path class="cls-8" d="M80.35,111.61V101a1.51,1.51,0,0,0-1.51-1.51H69.78A1.52,1.52,0,0,0,68.27,101v10.57a1.51,1.51,0,1,0,0,3H80.35a1.51,1.51,0,1,0,0-3Zm-9.06-9.06h6v9.06h-6Z"/><path class="cls-8" d="M80.35,129.73V119.16a1.51,1.51,0,0,0-1.51-1.51H69.78a1.52,1.52,0,0,0-1.51,1.51v10.57a1.51,1.51,0,0,0,0,3H80.35a1.51,1.51,0,0,0,0-3Zm-9.06-9.06h6v9.06h-6Z"/><path class="cls-8" d="M125.65,96.51h12.08a1.51,1.51,0,1,0,0-3V82.92a1.52,1.52,0,0,0-1.51-1.51h-9.06a1.51,1.51,0,0,0-1.51,1.51V93.49a1.51,1.51,0,0,0,0,3Zm3-12.08h6v9.06h-6Z"/><path class="cls-8" d="M125.65,114.63h12.08a1.51,1.51,0,1,0,0-3V101a1.52,1.52,0,0,0-1.51-1.51h-9.06a1.51,1.51,0,0,0-1.51,1.51v10.57a1.51,1.51,0,0,0,0,3Zm3-12.08h6v9.06h-6Z"/><path class="cls-8" d="M125.65,132.75h12.08a1.51,1.51,0,1,0,0-3V119.16a1.52,1.52,0,0,0-1.51-1.51h-9.06a1.51,1.51,0,0,0-1.51,1.51v10.57a1.51,1.51,0,0,0,0,3Zm3-12.08h6v9.06h-6Z"/><path class="cls-8" d="M146.79,76.88a1.51,1.51,0,1,0,0-3H120.1L104.51,62.52V59l7.3,1.22A1.51,1.51,0,0,0,113.55,59a2,2,0,0,0,0-.25v-6a1.5,1.5,0,0,0-1.26-1.49l-9.06-1.51h0A1.51,1.51,0,0,0,101.51,51a2.11,2.11,0,0,0,0,.26V62.52L85.9,73.86H59.21a1.51,1.51,0,0,0,0,3h1.51v60.4H59.21a1.51,1.51,0,1,0,0,3h87.58a1.51,1.51,0,1,0,0-3h-1.51V76.88Zm-45.3,60.4h-6V120.67a7.56,7.56,0,0,1,6-7.4Zm3-24a7.56,7.56,0,0,1,6,7.4v16.61h-6ZM103,110.1a10.59,10.59,0,0,0-10.57,10.57v16.61H87.9V76.14l15.1-11,15.1,11v61.14h-4.53V120.67A10.59,10.59,0,0,0,103,110.1ZM110.55,57l-6-1V53l6,1ZM63.74,76.88H84.88v60.4H63.74Zm78.52,60.4H121.12V76.88h21.14Z"/></svg>