<svg id="Layer_1" data-name="Layer 1" xmlns="http://www.w3.org/2000/svg" xmlns:xlink="http://www.w3.org/1999/xlink" viewBox="0 0 200 200"><defs><style>.cls-1{fill:url(#radial-gradient);}.cls-2{fill:#fff;}.cls-3{fill:#3f51b5;}.cls-4{fill:#06bac5;}.cls-5{fill:#659afc;}.cls-6{fill:#aab2bd;}.cls-7{fill:#ececec;}.cls-8{fill:#005c7b;}.cls-9{fill:#f9e0a6;}.cls-10{fill:#1a237e;}</style><radialGradient id="radial-gradient" cx="100" cy="646" r="100" gradientTransform="translate(0 -546)" gradientUnits="userSpaceOnUse"><stop offset="0" stop-color="#ecfffc"/><stop offset="0.35" stop-color="#8fbfc9"/><stop offset="0.67" stop-color="#428a9f"/><stop offset="0.89" stop-color="#126985"/><stop offset="1" stop-color="#005c7b"/></radialGradient></defs><rect class="cls-1" width="200" height="200"/><path class="cls-2" d="M99.75,191.23H97.88v2.41H94.41v-2.41H87.75v-2.32L93.4,181h3.69L92,188.4h2.55v-2.14h3.37v2.14h1.87Z"/><path class="cls-2" d="M101.3,193.23a2.11,2.11,0,0,1,0-2.92,2.06,2.06,0,0,1,1.47-.56,2,2,0,0,1,1.47.56,1.92,1.92,0,0,1,.58,1.46,2,2,0,0,1-.59,1.46,2.15,2.15,0,0,1-2.92,0Z"/><path class="cls-2" d="M114.56,186.71a3.6,3.6,0,0,1,1.26,2.88,4,4,0,0,1-.6,2.15,4.13,4.13,0,0,1-1.83,1.57,7.14,7.14,0,0,1-3.06.58,11.2,11.2,0,0,1-2.63-.32,7.51,7.51,0,0,1-2.24-.92l1.27-2.68a6.48,6.48,0,0,0,3.5,1,2.61,2.61,0,0,0,1.46-.35,1.09,1.09,0,0,0,.55-1,1,1,0,0,0-.54-1,3.92,3.92,0,0,0-1.91-.33h-3.42L107,181h8v2.75H110l-.17,1.84h.85A6,6,0,0,1,114.56,186.71Z"/><circle class="cls-2" cx="101.75" cy="101.75" r="68.75"/><path class="cls-3" d="M101.52,100.69l4.79.3v8.48H93.21A12.16,12.16,0,0,1,81.06,97.32V92.85a11.44,11.44,0,0,1,6.31-10.21,21.07,21.07,0,0,1,5.46,2.76v0a20.26,20.26,0,0,1,4.36,4.16A20.8,20.8,0,0,1,101.52,100.69Z"/><path class="cls-4" d="M102.23,53.58a3.11,3.11,0,0,1,.93,2.23,6.31,6.31,0,0,1-6.32,6.31H93.12A3.16,3.16,0,0,0,90,64.66L87.37,77.9a12.55,12.55,0,0,1-7.89-11.66v-1A12.55,12.55,0,0,1,92,52.65h8A3.11,3.11,0,0,1,102.23,53.58Z"/><path class="cls-5" d="M137.88,122.1v12.62H131a9.47,9.47,0,0,0-8.93-6.31h6.31a3.16,3.16,0,0,0,3.11-3.69,3.28,3.28,0,0,0-3.28-2.62h-3v-6.32a6.24,6.24,0,0,0-.85-3.15h4A9.48,9.48,0,0,1,137.88,122.1Z"/><path class="cls-6" d="M131.57,137.88a9.49,9.49,0,0,0-.54-3.16h6.85a3.17,3.17,0,0,1,3.16,3.16V141H131A9.53,9.53,0,0,0,131.57,137.88Z"/><path class="cls-7" d="M81.06,109.47h37.88a6.33,6.33,0,0,1,6.31,6.31v6.32h-6.31v-4.74a1.58,1.58,0,0,0-1.58-1.58H92a19,19,0,0,0-11-6Z"/><path class="cls-7" d="M81.06,109.47v.27a18.57,18.57,0,0,0-6.31,0V89a1.58,1.58,0,0,0-1.58-1.58H62.29A3.28,3.28,0,0,1,59,84.75a3.16,3.16,0,0,1,3.11-3.69H74.75a6.31,6.31,0,0,1,6.31,6.31v22.1Z"/><path class="cls-7" d="M131.52,124.72a3.16,3.16,0,0,1-3.11,3.69H96.84a19.08,19.08,0,0,0-1.07-6.31h32.47A3.28,3.28,0,0,1,131.52,124.72Z"/><path class="cls-8" d="M95.77,122.1a18.95,18.95,0,1,1-21-12.36,18.57,18.57,0,0,1,6.31,0A18.9,18.9,0,0,1,95.77,122.1Zm-8.93,15.24A12.64,12.64,0,1,0,77.9,141,12.65,12.65,0,0,0,86.84,137.34Z"/><path class="cls-8" d="M131,134.72a9.47,9.47,0,1,1-8.93-6.31A9.49,9.49,0,0,1,131,134.72Z"/><path class="cls-7" d="M80.13,126.18a3.11,3.11,0,0,1,.93,2.23,3.14,3.14,0,0,1-5.38,2.22,3,3,0,0,1-.93-2.22,3.07,3.07,0,0,1,.93-2.23,3.13,3.13,0,0,1,4.45,0Z"/><circle class="cls-7" cx="122.1" cy="137.88" r="3.16"/><path class="cls-9" d="M115.78,107.51v2h-9.47V101l3.55.23a6.3,6.3,0,0,1,5.92,6.29Z"/><path class="cls-9" d="M100.24,61.13l2.92,7.3L101.58,70v3.16a6.31,6.31,0,0,1-6.31,6.31H93.69l-.86,5.92a21.07,21.07,0,0,0-5.46-2.76V77.9L90,64.66a3.16,3.16,0,0,1,3.09-2.54h3.72A6.27,6.27,0,0,0,100.24,61.13Z"/><path class="cls-10" d="M122.1,133.14a4.74,4.74,0,1,0,4.73,4.74A4.75,4.75,0,0,0,122.1,133.14Zm0,6.32a1.58,1.58,0,1,1,1.57-1.58A1.58,1.58,0,0,1,122.1,139.46Z"/><path class="cls-10" d="M77.9,114.2a14.21,14.21,0,1,0,14.21,14.21A14.22,14.22,0,0,0,77.9,114.2Zm0,15.79a1.58,1.58,0,1,1,1.58-1.58A1.57,1.57,0,0,1,77.9,130Zm2-5.84a3,3,0,0,0-.45-.18v-6.48a11,11,0,0,1,5,2.08Zm-3.6-.19a4.68,4.68,0,0,0-.45.19l-4.58-4.58a11,11,0,0,1,5-2.08Zm-2.69,2.42a4.22,4.22,0,0,0-.18.45H67a11,11,0,0,1,2.09-5ZM73.46,130a4.22,4.22,0,0,0,.18.45L69.07,135A11,11,0,0,1,67,130Zm2.42,2.68a3,3,0,0,0,.45.18v6.48a10.9,10.9,0,0,1-5-2.09Zm3.6.18a3,3,0,0,0,.45-.18l4.58,4.58a11,11,0,0,1-5,2.08Zm2.68-2.41c.07-.15.13-.3.19-.45h6.47a10.89,10.89,0,0,1-2.08,5Zm.19-3.61-.18-.45,4.57-4.57a11,11,0,0,1,2.09,5Z"/><path class="cls-10" d="M142.61,137.88a4.73,4.73,0,0,0-3.15-4.45V122.1a11.06,11.06,0,0,0-11.05-11h-3.2a7.84,7.84,0,0,0-6.27-3.16h-1.58v-.38a7.91,7.91,0,0,0-7.4-7.88l-7-.43a22.24,22.24,0,0,0-8.4-14.49l.53-3.65h.21a7.9,7.9,0,0,0,7.89-7.89v-2.5L105,68.81l-2.88-7.19a7.81,7.81,0,0,0,2.6-5.81A4.74,4.74,0,0,0,100,51.07H92A14.15,14.15,0,0,0,77.9,65.2v1a14.06,14.06,0,0,0,7.9,12.68v2.81a13.23,13.23,0,0,0-3.6,3.17,7.87,7.87,0,0,0-7.45-5.43H62.12A4.75,4.75,0,0,0,57.45,85,4.87,4.87,0,0,0,62.3,89H73.17v19.51A20.51,20.51,0,1,0,98.34,130h16a11,11,0,1,0,17.68,12.62h10.55Zm-14.2-23.68a7.9,7.9,0,0,1,7.89,7.9v11h-4.24a11.15,11.15,0,0,0-2.44-3.33,4.66,4.66,0,0,0,2.4-1.5,4.74,4.74,0,0,0,1.06-3.85,4.87,4.87,0,0,0-4.85-3.94h-1.4v-4.74a7.5,7.5,0,0,0-.16-1.58Zm-9.47-3.15a4.73,4.73,0,0,1,4.73,4.73v4.74h-3.15v-3.16a3.17,3.17,0,0,0-3.16-3.16H92.68a20.72,20.72,0,0,0-3.89-3.15h30.15Zm-23.77,6.31h22.19v3.16H96.84A20.26,20.26,0,0,0,95.17,117.36Zm-12.53-11.3a14.38,14.38,0,0,0,1.83,1.83H82.64Zm31.56,1.45v.38h-6.31v-5.22l1.87.11A4.75,4.75,0,0,1,114.2,107.51ZM101.31,68.05,100,69.36v3.81a4.73,4.73,0,0,1-4.73,4.73h-3l-.7,4.9A20.39,20.39,0,0,0,89,81.54V78.06L91.57,65a1.58,1.58,0,0,1,1.55-1.27h3.72a7.63,7.63,0,0,0,2.54-.46Zm-20.25-1.8v-1a11,11,0,0,1,11-11h8a1.58,1.58,0,0,1,1.58,1.58,4.74,4.74,0,0,1-4.74,4.73H93.12a4.74,4.74,0,0,0-4.64,3.81L86.23,75.57A10.92,10.92,0,0,1,81.06,66.25Zm6.45,18.11A19.17,19.17,0,0,1,99.71,99l-5.62-.35a3.15,3.15,0,0,1-2.87-2.39l-.74-3-3.06.77.74,3a6.29,6.29,0,0,0,5.73,4.77l10.84.68v5.42H93.22A10.58,10.58,0,0,1,82.64,97.31V92.85a9.78,9.78,0,0,1,4.87-8.49ZM73.17,85.8H62.3a1.72,1.72,0,0,1-1.73-1.31,1.58,1.58,0,0,1,1.55-1.85H74.75a4.73,4.73,0,0,1,4.73,4.73V108c-.52,0-1-.08-1.58-.08s-1.05,0-1.57.08V89A3.16,3.16,0,0,0,73.17,85.8Zm4.73,60a17.36,17.36,0,1,1,17.37-17.36A17.38,17.38,0,0,1,77.9,145.77Zm20.44-18.94a20.59,20.59,0,0,0-.49-3.16h30.38A1.72,1.72,0,0,1,130,125a1.58,1.58,0,0,1-1.55,1.85Zm23.76,18.94a7.89,7.89,0,1,1,7.89-7.89A7.9,7.9,0,0,1,122.1,145.77Zm17.36-6.31H133a10.46,10.46,0,0,0,0-3.16h4.86a1.58,1.58,0,0,1,1.58,1.58Z"/></svg>