<svg id="Layer_1" data-name="Layer 1" xmlns="http://www.w3.org/2000/svg" xmlns:xlink="http://www.w3.org/1999/xlink" viewBox="0 0 200 200"><defs><style>.cls-1{fill:url(#radial-gradient);}.cls-2{fill:#fff;}.cls-3{fill:#3f51b5;}.cls-3,.cls-8,.cls-9{stroke:#1a237e;stroke-miterlimit:10;}.cls-3,.cls-9{stroke-width:2px;}.cls-4{fill:#ececec;}.cls-5,.cls-8{fill:#1a237e;}.cls-6{fill:#06bac5;}.cls-7,.cls-9{fill:#f9e0a6;}.cls-8{stroke-width:3px;}</style><radialGradient id="radial-gradient" cx="100" cy="646" r="100" gradientTransform="translate(0 -546)" gradientUnits="userSpaceOnUse"><stop offset="0" stop-color="#659afc"/><stop offset="0.43" stop-color="#4161c0"/><stop offset="0.81" stop-color="#253490"/><stop offset="1" stop-color="#1a237e"/></radialGradient></defs><rect class="cls-1" width="200" height="200"/><circle class="cls-2" cx="102.01" cy="102.16" r="68.75"/><g id="Fill_Outline" data-name="Fill Outline"><g id="Color"><polygon class="cls-3" points="127.03 120.71 120.1 113.78 120.09 113.78 113.64 107.33 113.64 107.32 106.57 100.25 106.56 100.25 106.56 100.25 102.66 104.15 123.12 124.6 123.12 124.6 123.13 124.61 127.03 120.71"/><circle class="cls-4" cx="90.05" cy="87.62" r="27.56"/><path class="cls-5" d="M90.05,116.68A29.06,29.06,0,1,1,119.1,87.62,29.08,29.08,0,0,1,90.05,116.68Zm0-55.11A26.06,26.06,0,1,0,116.1,87.62,26.09,26.09,0,0,0,90.05,61.57Z"/><circle class="cls-6" cx="90.05" cy="87.62" r="22.05"/><path class="cls-5" d="M90.05,111.17a23.55,23.55,0,1,1,23.54-23.55A23.57,23.57,0,0,1,90.05,111.17Zm0-44.09a20.55,20.55,0,1,0,20.54,20.54A20.57,20.57,0,0,0,90.05,67.08Z"/><polygon class="cls-7" points="99.69 84.87 90.05 84.87 94.18 72.47 85.41 82.99 85.41 82.99 80.4 89 90.05 89 83.16 102.78 99.69 84.87"/><polygon class="cls-6" points="131.38 60.07 120.36 71.09 125.87 71.09 125.87 87.62 136.9 93.14 136.9 87.22 136.9 71.09 142.41 71.09 131.38 60.07"/><path class="cls-8" d="M142.09,133.5a4.12,4.12,0,0,0,.22-.76h0a4,4,0,0,0,0-1.55c0-.05,0-.09,0-.13a3.47,3.47,0,0,0-.16-.55c0-.1-.08-.2-.13-.3a1.76,1.76,0,0,0-.09-.2h0a4.2,4.2,0,0,0-.71-1l-13.64-13.64a4.13,4.13,0,0,0-5.84,0l-3.9,3.9a4.1,4.1,0,0,0-1,4.09v0a4.19,4.19,0,0,0,.22.59.16.16,0,0,1,0,.07,3.25,3.25,0,0,0,.32.53h0a4.24,4.24,0,0,0,.43.52l13.64,13.64a4.15,4.15,0,0,0,5.86,0h0l3.9-3.89a4.24,4.24,0,0,0,.88-1.36Z"/><polygon class="cls-6" points="106.58 123.45 103.83 123.45 103.83 139.98 109.34 139.98 109.34 137.23 109.34 123.45 106.58 123.45"/><polygon class="cls-6" points="95.56 128.96 92.8 128.96 92.8 139.98 98.31 139.98 98.31 137.23 98.31 128.96 95.56 128.96"/><polygon class="cls-6" points="84.53 131.72 81.78 131.72 81.78 139.98 87.29 139.98 87.29 137.23 87.29 131.72 84.53 131.72"/><polygon class="cls-6" points="73.51 134.47 70.76 134.47 70.76 139.98 76.27 139.98 76.27 137.23 76.27 134.47 73.51 134.47"/></g><g id="Outline_copy" data-name="Outline copy"><path class="cls-9" d="M94.85,71.26a1.38,1.38,0,0,0-1.73.33L79.34,88.12a1.38,1.38,0,0,0,1.06,2.26h7.42l-5.9,11.78a1.38,1.38,0,0,0,2.25,1.56L100.7,85.8a1.37,1.37,0,0,0-.08-1.94,1.33,1.33,0,0,0-.93-.37H92L95.49,72.9A1.38,1.38,0,0,0,94.85,71.26Z"/><path class="cls-5" d="M120.36,72.47h4.13V87.62a1.38,1.38,0,1,0,2.76,0V71.09a1.38,1.38,0,0,0-1.38-1.38h-2.18l7.69-7.7,7.7,7.7H136.9a1.38,1.38,0,0,0-1.38,1.38v22a1.38,1.38,0,0,0,2.75,0V72.47h4.14a1.39,1.39,0,0,0,1-2.36l-11-11a1.38,1.38,0,0,0-2,0l-11,11a1.39,1.39,0,0,0,1,2.36Z"/><path class="cls-5" d="M87.29,130.34H81.78a1.38,1.38,0,0,0-1.38,1.38V140a1.38,1.38,0,0,0,1.38,1.38h5.51A1.38,1.38,0,0,0,88.67,140v-8.26A1.38,1.38,0,0,0,87.29,130.34Zm-1.38,8.27H83.16v-5.52h2.75Z"/><path class="cls-5" d="M98.31,127.58H92.8A1.38,1.38,0,0,0,91.42,129v11a1.38,1.38,0,0,0,1.38,1.38h5.51A1.37,1.37,0,0,0,99.69,140V129A1.38,1.38,0,0,0,98.31,127.58Zm-1.37,11H94.18v-8.27h2.76Z"/><path class="cls-5" d="M109.34,122.07h-5.51a1.38,1.38,0,0,0-1.38,1.38V140a1.37,1.37,0,0,0,1.38,1.38h5.51a1.38,1.38,0,0,0,1.38-1.38V123.45A1.38,1.38,0,0,0,109.34,122.07ZM108,138.61H105.2V124.83H108Z"/><path class="cls-5" d="M76.27,133.09H70.76a1.38,1.38,0,0,0-1.38,1.38V140a1.37,1.37,0,0,0,1.38,1.38h5.51A1.38,1.38,0,0,0,77.65,140v-5.51A1.38,1.38,0,0,0,76.27,133.09Zm-1.38,5.52H72.13v-2.76h2.76Z"/></g></g><path class="cls-2" d="M48.06,190.05a6.31,6.31,0,0,1-3.41-5.71,6.31,6.31,0,0,1,3.41-5.7,8,8,0,0,1,7.19,0,6.31,6.31,0,0,1,3.41,5.7,6.31,6.31,0,0,1-3.41,5.71,8.11,8.11,0,0,1-7.19,0Zm5.32-2.56a3.2,3.2,0,0,0,1.23-1.27,4.15,4.15,0,0,0,0-3.76,3.27,3.27,0,0,0-1.23-1.27,3.53,3.53,0,0,0-3.45,0,3.27,3.27,0,0,0-1.23,1.27,4.15,4.15,0,0,0,0,3.76,3.2,3.2,0,0,0,1.23,1.27,3.53,3.53,0,0,0,3.45,0Z"/><path class="cls-2" d="M68.93,181.34a4.39,4.39,0,0,1,1.72,1.75,5.85,5.85,0,0,1,0,5.32,4.44,4.44,0,0,1-1.72,1.77,4.78,4.78,0,0,1-2.43.62,3.51,3.51,0,0,1-2.87-1.13v1H60.37V177.29h3.42v4.44a3.63,3.63,0,0,1,2.71-1A4.88,4.88,0,0,1,68.93,181.34Zm-1.67,6.12a2.8,2.8,0,0,0,0-3.41,2,2,0,0,0-1.48-.61,1.94,1.94,0,0,0-1.47.61,2.8,2.8,0,0,0,0,3.41,1.89,1.89,0,0,0,1.47.63A1.91,1.91,0,0,0,67.26,187.46Z"/><path class="cls-2" d="M70.09,193.79l.86-2.43a2,2,0,0,0,1.06.29.93.93,0,0,0,.74-.32,1.48,1.48,0,0,0,.27-1v-9.48h3.42v9.5a3.85,3.85,0,0,1-1,2.85,4,4,0,0,1-2.93,1.06A4.71,4.71,0,0,1,70.09,193.79Zm3.13-14.51a1.65,1.65,0,0,1-.58-1.29,1.67,1.67,0,0,1,.58-1.3,2.15,2.15,0,0,1,1.51-.52,2.19,2.19,0,0,1,1.51.5,1.57,1.57,0,0,1,.58,1.26,1.72,1.72,0,0,1-.58,1.34,2.12,2.12,0,0,1-1.51.54A2.16,2.16,0,0,1,73.22,179.28Z"/><path class="cls-2" d="M88.55,186.63H81.46a2,2,0,0,0,.84,1.16,2.78,2.78,0,0,0,1.56.4,3.42,3.42,0,0,0,1.21-.19,3.86,3.86,0,0,0,1-.65l1.8,1.87a5.3,5.3,0,0,1-4.16,1.58,6.7,6.7,0,0,1-3-.64,4.93,4.93,0,0,1-2-1.8,4.94,4.94,0,0,1,1.89-7,5.85,5.85,0,0,1,2.76-.65,5.64,5.64,0,0,1,2.64.61,4.6,4.6,0,0,1,1.89,1.74,5.15,5.15,0,0,1,.69,2.71S88.59,186.09,88.55,186.63Zm-6.47-3a2,2,0,0,0-.67,1.23h4a2,2,0,0,0-.67-1.23,2,2,0,0,0-1.32-.45A2,2,0,0,0,82.08,183.6Z"/><path class="cls-2" d="M96.92,190.25a3.38,3.38,0,0,1-1,.41,5.57,5.57,0,0,1-1.32.14,4.25,4.25,0,0,1-2.94-.93,3.62,3.62,0,0,1-1-2.79V183.8H89.17v-2.55h1.42v-2.54H94v2.54h2.23v2.55H94V187a1.13,1.13,0,0,0,.28.82,1,1,0,0,0,.74.3,1.78,1.78,0,0,0,1-.31Z"/><path class="cls-2" d="M98.44,179.28a1.65,1.65,0,0,1-.58-1.29,1.67,1.67,0,0,1,.58-1.3,2.13,2.13,0,0,1,1.51-.52,2.19,2.19,0,0,1,1.51.5,1.6,1.6,0,0,1,.58,1.26,1.75,1.75,0,0,1-.58,1.34,2.12,2.12,0,0,1-1.51.54A2.14,2.14,0,0,1,98.44,179.28Zm-.2,1.61h3.42v9.75H98.24Z"/><path class="cls-2" d="M114.15,180.89l-4,9.75h-3.53l-4-9.75h3.5l2.35,6,2.46-6Z"/><path class="cls-2" d="M116.83,190.16a5,5,0,0,1-2-1.8,4.92,4.92,0,0,1,2-7,6.62,6.62,0,0,1,5.68,0,4.77,4.77,0,0,1,2,1.78,4.95,4.95,0,0,1-2,7,6.6,6.6,0,0,1-5.67,0Zm4.3-2.7a2.8,2.8,0,0,0,0-3.41,1.94,1.94,0,0,0-1.47-.61,2,2,0,0,0-1.48.61,2.84,2.84,0,0,0,0,3.41,1.93,1.93,0,0,0,1.48.63A1.89,1.89,0,0,0,121.13,187.46Z"/><path class="cls-2" d="M143.38,188.23h-1.87v2.41H138v-2.41h-6.66v-2.32L137,178h3.69l-5.13,7.36h2.55v-2.14h3.37v2.14h1.87Z"/><path class="cls-2" d="M144.93,190.23a2.09,2.09,0,0,1,0-2.92,2.06,2.06,0,0,1,1.47-.56,2,2,0,0,1,1.47.56,1.92,1.92,0,0,1,.58,1.46,2,2,0,0,1-.59,1.46,2.15,2.15,0,0,1-2.92,0Z"/><path class="cls-2" d="M159.47,178v2.23L155,190.64h-3.89l4.24-9.77h-3.31v1.94h-3V178Z"/></svg>