<svg id="Layer_1" data-name="Layer 1" xmlns="http://www.w3.org/2000/svg" xmlns:xlink="http://www.w3.org/1999/xlink" viewBox="0 0 200 200"><defs><style>.cls-1{fill:url(#radial-gradient);}.cls-2{fill:#fff;}.cls-3{fill:#f9e0a6;}.cls-4{fill:#659afc;}.cls-5{fill:#ececec;}.cls-6{fill:#3f51b5;}.cls-7{fill:#1a237e;}</style><radialGradient id="radial-gradient" cx="100" cy="646" r="100" gradientTransform="translate(0 -546)" gradientUnits="userSpaceOnUse"><stop offset="0" stop-color="#659afc"/><stop offset="0.12" stop-color="#5785e4"/><stop offset="0.55" stop-color="#284298"/><stop offset="0.85" stop-color="#0b1868"/><stop offset="1" stop-color="#000856"/></radialGradient></defs><rect class="cls-1" width="200" height="200"/><circle class="cls-2" cx="101.75" cy="101.75" r="68.75"/><path class="cls-3" d="M118.24,77.92h-6.16v-7.6a2.21,2.21,0,0,0-2.2-2.2H90.12a2.21,2.21,0,0,0-2.2,2.2v7.6H81.76V68.56a6.61,6.61,0,0,1,6.6-6.6h23.28a6.61,6.61,0,0,1,6.6,6.6v9.36Z"/><path class="cls-4" d="M136.25,138H62.43a6.18,6.18,0,0,1-6.2-6.16V82.32a6.18,6.18,0,0,1,6.2-6.16h73.82a6.18,6.18,0,0,1,6.19,6.16v49.56A6.18,6.18,0,0,1,136.25,138Z"/><path class="cls-5" d="M120,124.34h14.4a1.76,1.76,0,0,1,1.76,1.76v4.22a1.76,1.76,0,0,1-1.76,1.76H120a1.76,1.76,0,0,1-1.76-1.76V126.1A1.76,1.76,0,0,1,120,124.34Z"/><path class="cls-6" d="M136.25,76.16H62.43a6.18,6.18,0,0,0-6.2,6.16v18.62a6.18,6.18,0,0,0,6.2,6.16h73.82a6.18,6.18,0,0,0,6.19-6.16V82.32a6.18,6.18,0,0,0-6.19-6.16Z"/><path class="cls-3" d="M104.64,115.76H95.36A1.76,1.76,0,0,1,93.6,114v-6.9h12.8V114A1.76,1.76,0,0,1,104.64,115.76Z"/><g id="_10_briefcase" data-name="10 briefcase"><path class="cls-7" d="M54.91,131.88a7.49,7.49,0,0,0,7.49,7.48H79a1.32,1.32,0,0,0,0-2.64H62.4a4.84,4.84,0,0,1-4.84-4.84V106.64a7.43,7.43,0,0,0,4.84,1.78H92.28V114a3.08,3.08,0,0,0,3.08,3.08h9.28a3.08,3.08,0,0,0,3.08-3.08v-5.58h29.6a1.32,1.32,0,0,0,0-2.64H62.4a4.84,4.84,0,0,1-4.84-4.84V82.32a4.84,4.84,0,0,1,4.84-4.84h75.2a4.84,4.84,0,0,1,4.84,4.84v18.62a4.84,4.84,0,0,1-4.84,4.84h-9.14a1.32,1.32,0,0,0,0,2.64h9.14a7.43,7.43,0,0,0,4.84-1.78v25.24a4.84,4.84,0,0,1-4.84,4.84H75.66a1.32,1.32,0,0,0,0,2.64H137.6a7.49,7.49,0,0,0,7.49-7.48V82.32a7.49,7.49,0,0,0-7.49-7.48h-18V68.56a7.93,7.93,0,0,0-7.92-7.92H98.13a1.32,1.32,0,1,0,0,2.64h13.51a5.29,5.29,0,0,1,5.28,5.28v6.28H113.4V70.32a3.53,3.53,0,0,0-3.52-3.52H90.12a3.53,3.53,0,0,0-3.52,3.52v4.52H83.08V68.56a5.29,5.29,0,0,1,5.28-5.28h24.13a1.32,1.32,0,1,0,0-2.64H88.36a7.93,7.93,0,0,0-7.92,7.92v6.28h-18a7.49,7.49,0,0,0-7.49,7.48Zm50.17-23.46V114a.44.44,0,0,1-.44.44H95.36a.44.44,0,0,1-.44-.44v-5.58ZM89.24,70.32a.89.89,0,0,1,.88-.88h19.76a.89.89,0,0,1,.88.88v4.52H89.24Z"/><circle class="cls-7" cx="100" cy="111.43" r="1.32"/><path class="cls-7" d="M134.4,133.4a3.09,3.09,0,0,0,3.09-3.08V126.1A3.09,3.09,0,0,0,134.4,123H120a3.08,3.08,0,0,0-3.08,3.08v4.22A3.08,3.08,0,0,0,120,133.4Zm.44-7.3v4.22a.44.44,0,0,1-.44.44h-6.87l2.32-5.1h4.55a.44.44,0,0,1,.44.44Zm-15.28,4.22V126.1a.44.44,0,0,1,.44-.44h7l-2.32,5.1H120A.44.44,0,0,1,119.56,130.32Z"/></g><path class="cls-2" d="M47.25,190.05a6.3,6.3,0,0,1-3.42-5.71,6.36,6.36,0,0,1,.91-3.36,6.3,6.3,0,0,1,2.51-2.34,8,8,0,0,1,7.18,0,6.31,6.31,0,0,1,3.41,5.7,6.31,6.31,0,0,1-3.41,5.71,8.09,8.09,0,0,1-7.18,0Zm5.31-2.56a3.2,3.2,0,0,0,1.23-1.27,4.15,4.15,0,0,0,0-3.76,3.27,3.27,0,0,0-1.23-1.27,3.53,3.53,0,0,0-3.45,0,3.27,3.27,0,0,0-1.23,1.27,4.15,4.15,0,0,0,0,3.76,3.2,3.2,0,0,0,1.23,1.27,3.53,3.53,0,0,0,3.45,0Z"/><path class="cls-2" d="M68.11,181.34a4.39,4.39,0,0,1,1.72,1.75,5.85,5.85,0,0,1,0,5.32,4.44,4.44,0,0,1-1.72,1.77,4.77,4.77,0,0,1-2.42.62,3.52,3.52,0,0,1-2.88-1.13v1H59.55V177.29H63v4.44a3.64,3.64,0,0,1,2.72-1A4.87,4.87,0,0,1,68.11,181.34Zm-1.67,6.12a2.8,2.8,0,0,0,0-3.41,2.09,2.09,0,0,0-2.95,0,2.8,2.8,0,0,0,0,3.41,2,2,0,0,0,2.95,0Z"/><path class="cls-2" d="M69.27,193.79l.86-2.43a2,2,0,0,0,1.06.29.93.93,0,0,0,.74-.32,1.48,1.48,0,0,0,.27-1v-9.48h3.42v9.5a3.85,3.85,0,0,1-1.05,2.85,4,4,0,0,1-2.93,1.06A4.74,4.74,0,0,1,69.27,193.79Zm3.13-14.51a1.65,1.65,0,0,1-.58-1.29,1.67,1.67,0,0,1,.58-1.3,2.49,2.49,0,0,1,3,0,1.57,1.57,0,0,1,.58,1.26,1.72,1.72,0,0,1-.58,1.34,2.1,2.1,0,0,1-1.51.54A2.16,2.16,0,0,1,72.4,179.28Z"/><path class="cls-2" d="M87.73,186.63H80.64a2,2,0,0,0,.84,1.16,2.78,2.78,0,0,0,1.56.4,3.42,3.42,0,0,0,1.21-.19,3.86,3.86,0,0,0,1-.65l1.8,1.87a5.3,5.3,0,0,1-4.16,1.58,6.7,6.7,0,0,1-3-.64,4.93,4.93,0,0,1-2-1.8,4.82,4.82,0,0,1-.71-2.61,4.92,4.92,0,0,1,.69-2.59,4.85,4.85,0,0,1,1.91-1.79,5.85,5.85,0,0,1,2.76-.65,5.64,5.64,0,0,1,2.64.61,4.6,4.6,0,0,1,1.89,1.74,5.15,5.15,0,0,1,.69,2.71S87.77,186.09,87.73,186.63Zm-6.47-3a2,2,0,0,0-.67,1.23h4a2,2,0,0,0-.67-1.23,2,2,0,0,0-1.32-.45A2,2,0,0,0,81.26,183.6Z"/><path class="cls-2" d="M96.1,190.25a3.38,3.38,0,0,1-1,.41,5.57,5.57,0,0,1-1.32.14,4.25,4.25,0,0,1-2.94-.93,3.62,3.62,0,0,1-1-2.79V183.8H88.35v-2.55h1.42v-2.54h3.42v2.54h2.23v2.55H93.19V187a1.13,1.13,0,0,0,.28.82,1,1,0,0,0,.74.3,1.78,1.78,0,0,0,1.05-.31Z"/><path class="cls-2" d="M97.62,179.28A1.65,1.65,0,0,1,97,178a1.67,1.67,0,0,1,.58-1.3,2.13,2.13,0,0,1,1.51-.52,2.19,2.19,0,0,1,1.51.5,1.6,1.6,0,0,1,.58,1.26,1.75,1.75,0,0,1-.58,1.34,2.12,2.12,0,0,1-1.51.54A2.14,2.14,0,0,1,97.62,179.28Zm-.2,1.61h3.42v9.75H97.42Z"/><path class="cls-2" d="M113.33,180.89l-4,9.75h-3.53l-4-9.75h3.51l2.34,6,2.46-6Z"/><path class="cls-2" d="M116,190.16a5,5,0,0,1-2-1.8,5.13,5.13,0,0,1,0-5.21,5,5,0,0,1,2-1.79,6.62,6.62,0,0,1,5.68,0,4.77,4.77,0,0,1,2,1.78,4.95,4.95,0,0,1-2,7,6.6,6.6,0,0,1-5.67,0Zm4.3-2.7a2.8,2.8,0,0,0,0-3.41,1.94,1.94,0,0,0-1.47-.61,2,2,0,0,0-1.48.61,2.84,2.84,0,0,0,0,3.41,1.93,1.93,0,0,0,1.48.63A1.89,1.89,0,0,0,120.31,187.46Z"/><path class="cls-2" d="M142.56,188.23h-1.87v2.41h-3.47v-2.41h-6.66v-2.32l5.65-7.87h3.69l-5.13,7.36h2.55v-2.14h3.37v2.14h1.87Z"/><path class="cls-2" d="M144.11,190.23a2.09,2.09,0,0,1,0-2.92,2.06,2.06,0,0,1,1.47-.56,2,2,0,0,1,1.47.56,1.92,1.92,0,0,1,.58,1.46,2,2,0,0,1-.59,1.46,2.15,2.15,0,0,1-2.92,0Z"/><path class="cls-2" d="M160.7,188.23h-1.87v2.41h-3.47v-2.41H148.7v-2.32l5.65-7.87H158l-5.13,7.36h2.56v-2.14h3.36v2.14h1.87Z"/></svg>