<svg id="Layer_1" data-name="Layer 1" xmlns="http://www.w3.org/2000/svg" xmlns:xlink="http://www.w3.org/1999/xlink" viewBox="0 0 200 200"><defs><style>.cls-1{fill:url(#radial-gradient);}.cls-2{fill:#fff;}.cls-3{fill:#3f51b5;}.cls-4{fill:#f5f5f5;}.cls-5{fill:#cfd8dc;}.cls-6{fill:#06bac5;}.cls-7{fill:#005c7b;}.cls-8{fill:#f9e0a6;stroke:#1a237e;stroke-miterlimit:10;}.cls-9{fill:#1a237e;}</style><radialGradient id="radial-gradient" cx="100" cy="646" r="100" gradientTransform="translate(0 -546)" gradientUnits="userSpaceOnUse"><stop offset="0" stop-color="#659afc"/><stop offset="0.43" stop-color="#4161c0"/><stop offset="0.81" stop-color="#253490"/><stop offset="1" stop-color="#1a237e"/></radialGradient></defs><rect class="cls-1" width="200" height="200"/><path class="cls-2" d="M101.73,191.23H99.86v2.41H96.39v-2.41H89.73v-2.32L95.38,181h3.69l-5.13,7.36h2.55v-2.14h3.37v2.14h1.87Z"/><path class="cls-2" d="M103.28,193.23a2.09,2.09,0,0,1,0-2.92,2.06,2.06,0,0,1,1.47-.56,2,2,0,0,1,1.47.56,1.92,1.92,0,0,1,.58,1.46,2,2,0,0,1-.59,1.46,2.15,2.15,0,0,1-2.92,0Z"/><path class="cls-2" d="M113,181v12.6h-3.56v-9.85h-2.34V181Z"/><circle class="cls-2" cx="101.75" cy="101.75" r="68.75"/><g id="Page-1"><g id="_026---Idea" data-name="026---Idea"><path id="Shape" class="cls-3" d="M94.1,130.47l-.76,9.15H57.06a3.35,3.35,0,0,1-3.32-4l7.37-37.81a1.69,1.69,0,0,1,1.65-1.37h4.67l-5.6,33.68a1.69,1.69,0,0,0,.57,1.54A1.64,1.64,0,0,0,64,132a57.63,57.63,0,0,1,30.1-1.53Z"/><path id="Shape-2" data-name="Shape" class="cls-3" d="M146.44,139.62H110.16l-.76-9.15A57.63,57.63,0,0,1,139.5,132a1.64,1.64,0,0,0,1.6-.34,1.69,1.69,0,0,0,.57-1.54l-5.6-33.68h4.67a1.69,1.69,0,0,1,1.65,1.37l7.37,37.81a3.35,3.35,0,0,1-3.32,4Z"/><path id="Shape-3" data-name="Shape" class="cls-4" d="M139.5,132a57.63,57.63,0,0,0-30.1-1.53,39.58,39.58,0,0,0-7.65,2.43,39.58,39.58,0,0,0-7.65-2.43A57.63,57.63,0,0,0,64,132a1.64,1.64,0,0,1-1.6-.34,1.69,1.69,0,0,1-.57-1.54l5.6-33.68.48-2.84a1.69,1.69,0,0,1,1.41-1.39c1.14-.17,2.32-.34,3.5-.48A12,12,0,0,0,87.64,97.5a8.86,8.86,0,0,0,15.09,2.9,14.64,14.64,0,0,0,5.28,1h.1c.35,3,1.93,4.81,7.21,6.58a9.15,9.15,0,0,1,4.18,2.76,3.58,3.58,0,0,0,4.12,1.06,3.5,3.5,0,0,0,1.95-4.29,14.78,14.78,0,0,0-2.22-4.48,12.48,12.48,0,0,0,6.37-8.75,8.54,8.54,0,0,0,1.57-2.45c1,.12,1.93.23,2.89.39a1.69,1.69,0,0,1,1.41,1.39l.48,2.84,5.6,33.68a1.69,1.69,0,0,1-.57,1.54,1.64,1.64,0,0,1-1.6.34Z"/><path id="Shape-4" data-name="Shape" class="cls-5" d="M141.67,130.12l-5.6-33.68-.48-2.84a1.69,1.69,0,0,0-1.41-1.39c-1-.16-1.92-.27-2.89-.39a8.84,8.84,0,0,1-.84,1.5,1.31,1.31,0,0,1,.09.28l.47,2.84,5.61,33.68a1.68,1.68,0,0,1-.17,1c1,.26,2,.55,3,.88a1.71,1.71,0,0,0,1.61-.34A1.69,1.69,0,0,0,141.67,130.12Z"/><path id="Shape-5" data-name="Shape" class="cls-3" d="M110.16,139.62c0,1.86-3.77,3.37-8.41,3.37s-8.41-1.51-8.41-3.37l.76-9.15a39.58,39.58,0,0,1,7.65,2.43,39.58,39.58,0,0,1,7.65-2.43Z"/><path id="Shape-6" data-name="Shape" class="cls-6" d="M132,88.3a8.72,8.72,0,0,1-.74,3.52,8.54,8.54,0,0,1-1.57,2.45,12.48,12.48,0,0,1-6.37,8.75,14.78,14.78,0,0,1,2.22,4.48,3.5,3.5,0,0,1-1.95,4.29,3.58,3.58,0,0,1-4.12-1.06,9.15,9.15,0,0,0-4.18-2.76c-5.28-1.77-6.86-3.55-7.21-6.58H108a14.64,14.64,0,0,1-5.28-1,8.86,8.86,0,0,1-15.09-2.9A12,12,0,0,1,73.86,79a5,5,0,0,1-.3-1.71,5.24,5.24,0,0,1,4.2-5.15c0-.2,0-.4,0-.62a6.81,6.81,0,0,1,6.8-6.8,6.67,6.67,0,0,1,2.94.68A9.9,9.9,0,0,1,96,60.57,9.76,9.76,0,0,1,102.54,63a5.22,5.22,0,0,1,9.25.75,14.09,14.09,0,0,1,1.45-.08,12.54,12.54,0,0,1,12.48,11.51h0A5.22,5.22,0,0,1,131,80.45a5.5,5.5,0,0,1-.68,2.59A8.9,8.9,0,0,1,132,88.3Z"/><path id="Shape-7" data-name="Shape" class="cls-7" d="M130.31,83a5.5,5.5,0,0,0,.68-2.59,5.22,5.22,0,0,0-5.22-5.23h0a12.54,12.54,0,0,0-12.48-11.51,14.09,14.09,0,0,0-1.45.08,5.18,5.18,0,0,0-7.35-2.56,5.19,5.19,0,0,1,2.31,2.56,13.9,13.9,0,0,1,1.44-.08,12.54,12.54,0,0,1,12.48,11.51h0a5.21,5.21,0,0,1,5.22,5.23,5.49,5.49,0,0,1-.67,2.59A9,9,0,0,1,127,88.3a8.4,8.4,0,0,1-.74,3.52,8.73,8.73,0,0,1-1.56,2.45A12.52,12.52,0,0,1,118.3,103a14.78,14.78,0,0,1,2.22,4.48,3.24,3.24,0,0,1,.17,1.07,3.43,3.43,0,0,1-1,2.37,3.47,3.47,0,0,0,6-2.37,3.52,3.52,0,0,0-.17-1.07,14.78,14.78,0,0,0-2.22-4.48,12.48,12.48,0,0,0,6.37-8.75,8.54,8.54,0,0,0,1.57-2.45A8.72,8.72,0,0,0,132,88.3,8.9,8.9,0,0,0,130.31,83Z"/><path id="Shape-8" data-name="Shape" class="cls-7" d="M119.52,88.29a1.69,1.69,0,0,0-3,1.52A2.51,2.51,0,0,1,115.7,93a2.56,2.56,0,0,1-2,.34A2.49,2.49,0,0,1,112.05,92a1.68,1.68,0,0,0-3,1.51,5.86,5.86,0,0,0,10.48-5.25Z"/><path id="Shape-9" data-name="Shape" class="cls-7" d="M109.32,87.47a10,10,0,0,0,4.17-6.4,1.71,1.71,0,0,0-.54-1.62,1.68,1.68,0,0,0-2.76,1,6.72,6.72,0,0,1-2.79,4.28,6.87,6.87,0,0,1-8.85-1A1.68,1.68,0,0,0,96.06,86a10.09,10.09,0,0,0,5.39,3.1,5,5,0,0,1-4.1,2.11,1.68,1.68,0,1,0,0,3.36,8.32,8.32,0,0,0,7.84-5.39,10.23,10.23,0,0,0,4.13-1.68Z"/><path id="Shape-10" data-name="Shape" class="cls-7" d="M86.82,91.22a2.53,2.53,0,0,1-2.21-.4,2.5,2.5,0,0,1-1-2v0a1.69,1.69,0,0,0-3.37,0,5.86,5.86,0,0,0,5.86,5.87,6,6,0,0,0,1.68-.24,1.68,1.68,0,0,0-1-3.23Z"/><path id="Shape-11" data-name="Shape" class="cls-7" d="M98.05,74a1.68,1.68,0,0,0-1.68-1.68,7.75,7.75,0,0,0-7.74,7.74,1.68,1.68,0,0,0,3.36,0A4.37,4.37,0,0,1,93.27,77a4.42,4.42,0,0,1,3.1-1.29A1.68,1.68,0,0,0,98.05,74Z"/><path id="Shape-12" data-name="Shape" class="cls-8" d="M101.75,50.47a1.68,1.68,0,0,1-1.68-1.68V47.11a1.68,1.68,0,0,1,3.36,0v1.68A1.68,1.68,0,0,1,101.75,50.47Z"/><path id="Shape-13" data-name="Shape" class="cls-8" d="M128.86,62.05a1.68,1.68,0,0,1-1.19-2.87l1.68-1.68a1.68,1.68,0,0,1,2.84.74,1.7,1.7,0,0,1-.46,1.64l-1.68,1.68A1.71,1.71,0,0,1,128.86,62.05Z"/><path id="Shape-14" data-name="Shape" class="cls-8" d="M74.64,62.05a1.71,1.71,0,0,1-1.19-.49l-1.68-1.68a1.7,1.7,0,0,1-.46-1.64,1.68,1.68,0,0,1,2.84-.74l1.68,1.68a1.68,1.68,0,0,1-1.19,2.87Z"/><path id="Shape-15" data-name="Shape" class="cls-8" d="M87.59,55a1.69,1.69,0,0,1-1.56-1L84.1,49.27a1.69,1.69,0,0,1,.2-1.69,1.66,1.66,0,0,1,1.57-.65,1.68,1.68,0,0,1,1.34,1l1.93,4.67a1.67,1.67,0,0,1,0,1.28,1.65,1.65,0,0,1-.91.92,1.73,1.73,0,0,1-.64.12Z"/><path id="Shape-16" data-name="Shape" class="cls-8" d="M115.91,55a1.56,1.56,0,0,1-.64-.13,1.68,1.68,0,0,1-.91-2.19L116.29,48a1.68,1.68,0,0,1,1.34-1,1.66,1.66,0,0,1,1.57.65,1.69,1.69,0,0,1,.2,1.69l-1.93,4.66A1.69,1.69,0,0,1,115.91,55Z"/><path id="Shape-17" data-name="Shape" class="cls-8" d="M135.94,75a1.68,1.68,0,0,1-1.66-1.35,1.7,1.7,0,0,1,1-1.89L140,69.83a1.68,1.68,0,0,1,2.31,1.78,1.68,1.68,0,0,1-1,1.33l-4.66,1.93a1.56,1.56,0,0,1-.64.13Z"/><path id="Shape-18" data-name="Shape" class="cls-8" d="M67.56,75a1.56,1.56,0,0,1-.64-.13l-4.66-1.93a1.68,1.68,0,0,1-.39-2.89,1.7,1.7,0,0,1,1.67-.22l4.67,1.93a1.7,1.7,0,0,1,1,1.89A1.68,1.68,0,0,1,67.56,75Z"/><path id="Shape-19" data-name="Shape" class="cls-9" d="M144,97.49a3.36,3.36,0,0,0-3.3-2.73h-3.25l-.24-1.43a3.38,3.38,0,0,0-2.81-2.79c-.32-.05-.64-.08-1-.12a10.21,10.21,0,0,0-1.28-7.5,6.88,6.88,0,0,0-5-9.21,14.33,14.33,0,0,0-14-11.69c-.16,0-.31,0-.47,0a6.85,6.85,0,0,0-10.47-1.3A11.57,11.57,0,0,0,96,58.88a11.71,11.71,0,0,0-9.18,4.52,8.38,8.38,0,0,0-10.71,7.53,6.93,6.93,0,0,0-4.24,6.38,6.3,6.3,0,0,0,.17,1.44,13.5,13.5,0,0,0-1.62,11.6l-1.34.19a3.39,3.39,0,0,0-2.84,2.78L66,94.76H62.76a3.36,3.36,0,0,0-3.3,2.72L52.09,135.3a5.06,5.06,0,0,0,5,6H92.14c1.39,2.29,5.62,3.36,9.61,3.36s8.14-1,9.57-3.36h35.12a5.05,5.05,0,0,0,5-6ZM77,80.36a3.56,3.56,0,0,1,1.82-6.6,3.51,3.51,0,0,1,2.83,1.43,1.68,1.68,0,0,0,2.89-.34,1.7,1.7,0,0,0-.19-1.67,6.82,6.82,0,0,0-4.77-2.69,5.11,5.11,0,0,1,5-4,4.36,4.36,0,0,1,.62.07,9.27,9.27,0,0,0-.36,1A1.68,1.68,0,0,0,88,68.4a7.9,7.9,0,0,1,.87-2.1,8.31,8.31,0,0,1,7.1-4,8.1,8.1,0,0,1,4.45,1.34,7,7,0,0,0-.39,2.21,1.68,1.68,0,1,0,3.36,0,3.54,3.54,0,0,1,7.08,0,1.68,1.68,0,0,0,3.36,0c0-.13,0-.25,0-.38a10.92,10.92,0,0,1,10,8.42,6.74,6.74,0,0,0-2.18,1.08,1.69,1.69,0,0,0-.66,1.55,1.68,1.68,0,0,0,2.68,1.14,3.55,3.55,0,1,1,3.61,6.06,1.68,1.68,0,0,0,.71,3.2,1.64,1.64,0,0,0,.72-.16,7.11,7.11,0,0,0,1.25-.79,7.18,7.18,0,0,1-1.42,7.18l0,0a7.26,7.26,0,0,1-8.58,1.58,7,7,0,0,1-2-1.5,1.68,1.68,0,1,0-2.48,2.27,10.21,10.21,0,0,0,2.94,2.23,10.38,10.38,0,0,0,7.77.72,10.7,10.7,0,0,1-6.93,4.24,1.69,1.69,0,0,0,.27,3.35l.26,0a13.51,13.51,0,0,0,3-.88A14.76,14.76,0,0,1,124,108a1.71,1.71,0,0,1,.09.55,1.8,1.8,0,0,1-1.1,1.66,1.89,1.89,0,0,1-2.17-.58,10.78,10.78,0,0,0-4.93-3.27c-3.63-1.22-5-2.31-5.63-3.49a16.44,16.44,0,0,0,2.58-.54,1.69,1.69,0,0,0,1.14-1.23,1.67,1.67,0,0,0-.49-1.61,1.7,1.7,0,0,0-1.64-.38,13.1,13.1,0,0,1-2.91.54,12.48,12.48,0,0,1-5.57-.84,1.69,1.69,0,0,0-1.89.47,7.2,7.2,0,0,1-11.61-8.43A1.68,1.68,0,1,0,87,89.14a10.43,10.43,0,0,0-1.35,7.18A10.28,10.28,0,0,1,74,82.24a7,7,0,0,0,1.25,1A1.68,1.68,0,0,0,77,80.36Zm-7.4,13.51,2.37-.32a13.58,13.58,0,0,0,14.76,6,10.53,10.53,0,0,0,16.5,2.8,16.08,16.08,0,0,0,3.51.64c.81,3.08,3.16,5,8.1,6.6a7.46,7.46,0,0,1,3.42,2.26,5.4,5.4,0,0,0,4.07,1.91,5.06,5.06,0,0,0,2-.41,5.15,5.15,0,0,0,2.89-6.36,18.84,18.84,0,0,0-1.49-3.42A14.12,14.12,0,0,0,131.27,95a9.8,9.8,0,0,0,1-1.35c.57.07,1.13.13,1.7.23L140,130.4a57.8,57.8,0,0,0-36.58,0V109.35a1.68,1.68,0,1,0-3.36,0v21.06a57.73,57.73,0,0,0-36.58,0ZM55.75,137.32a1.68,1.68,0,0,1-.36-1.38l7.37-37.81h2.69l-5.28,31.72a3.38,3.38,0,0,0,4.34,3.76,56.34,56.34,0,0,1,27.79-1.77l-.5,6.1H57.06A1.66,1.66,0,0,1,55.75,137.32Zm46,4c-4,0-6.38-1.2-6.72-1.73l.58-7a35.42,35.42,0,0,1,5.41,1.81,1.65,1.65,0,0,0,1.46,0,36.63,36.63,0,0,1,5.41-1.83l.58,7c-.34.54-2.67,1.74-6.72,1.74Zm46-4a1.66,1.66,0,0,1-1.31.62H111.71l-.5-6.11A56.35,56.35,0,0,1,139,133.61a3.35,3.35,0,0,0,3.21-.68,3.39,3.39,0,0,0,1.12-3.09l-5.28-31.71h2.7l7.36,37.81a1.64,1.64,0,0,1-.36,1.38Z"/></g></g></svg>