<svg id="Layer_1" data-name="Layer 1" xmlns="http://www.w3.org/2000/svg" xmlns:xlink="http://www.w3.org/1999/xlink" viewBox="0 0 200 200"><defs><style>.cls-1{fill:url(#radial-gradient);}.cls-2{fill:#fff;}.cls-3{fill:#3f51b5;}.cls-4{fill:#06bac5;}.cls-5{fill:#659afc;}.cls-6{fill:#aab2bd;}.cls-7{fill:#ececec;}.cls-8{fill:#005c7b;}.cls-9{fill:#f9e0a6;}.cls-10{fill:#1a237e;}</style><radialGradient id="radial-gradient" cx="100" cy="646" r="100" gradientTransform="translate(0 -546)" gradientUnits="userSpaceOnUse"><stop offset="0" stop-color="#ecfffc"/><stop offset="0.35" stop-color="#8fbfc9"/><stop offset="0.67" stop-color="#428a9f"/><stop offset="0.89" stop-color="#126985"/><stop offset="1" stop-color="#005c7b"/></radialGradient></defs><rect class="cls-1" width="200" height="200"/><circle class="cls-2" cx="101.75" cy="101.75" r="68.75"/><path class="cls-3" d="M101.52,100.69l4.79.3v8.48H93.21A12.16,12.16,0,0,1,81.06,97.32V92.85a11.44,11.44,0,0,1,6.31-10.21,21.07,21.07,0,0,1,5.46,2.76v0a20.26,20.26,0,0,1,4.36,4.16A20.8,20.8,0,0,1,101.52,100.69Z"/><path class="cls-4" d="M102.23,53.58a3.11,3.11,0,0,1,.93,2.23,6.31,6.31,0,0,1-6.32,6.31H93.12A3.16,3.16,0,0,0,90,64.66L87.37,77.9a12.55,12.55,0,0,1-7.89-11.66v-1A12.55,12.55,0,0,1,92,52.65h8A3.11,3.11,0,0,1,102.23,53.58Z"/><path class="cls-5" d="M137.88,122.1v12.62H131a9.47,9.47,0,0,0-8.93-6.31h6.31a3.16,3.16,0,0,0,3.11-3.69,3.28,3.28,0,0,0-3.28-2.62h-3v-6.32a6.24,6.24,0,0,0-.85-3.15h4A9.48,9.48,0,0,1,137.88,122.1Z"/><path class="cls-6" d="M131.57,137.88a9.49,9.49,0,0,0-.54-3.16h6.85a3.17,3.17,0,0,1,3.16,3.16V141H131A9.53,9.53,0,0,0,131.57,137.88Z"/><path class="cls-7" d="M81.06,109.47h37.88a6.33,6.33,0,0,1,6.31,6.31v6.32h-6.31v-4.74a1.58,1.58,0,0,0-1.58-1.58H92a19,19,0,0,0-11-6Z"/><path class="cls-7" d="M81.06,109.47v.27a18.57,18.57,0,0,0-6.31,0V89a1.58,1.58,0,0,0-1.58-1.58H62.29A3.28,3.28,0,0,1,59,84.75a3.16,3.16,0,0,1,3.11-3.69H74.75a6.31,6.31,0,0,1,6.31,6.31v22.1Z"/><path class="cls-7" d="M131.52,124.72a3.16,3.16,0,0,1-3.11,3.69H96.84a19.08,19.08,0,0,0-1.07-6.31h32.47A3.28,3.28,0,0,1,131.52,124.72Z"/><path class="cls-8" d="M95.77,122.1a18.95,18.95,0,1,1-21-12.36,18.57,18.57,0,0,1,6.31,0A18.9,18.9,0,0,1,95.77,122.1Zm-8.93,15.24A12.64,12.64,0,1,0,77.9,141,12.65,12.65,0,0,0,86.84,137.34Z"/><path class="cls-8" d="M131,134.72a9.47,9.47,0,1,1-8.93-6.31A9.49,9.49,0,0,1,131,134.72Z"/><path class="cls-7" d="M80.13,126.18a3.11,3.11,0,0,1,.93,2.23,3.14,3.14,0,0,1-5.38,2.22,3,3,0,0,1-.93-2.22,3.07,3.07,0,0,1,.93-2.23,3.13,3.13,0,0,1,4.45,0Z"/><circle class="cls-7" cx="122.1" cy="137.88" r="3.16"/><path class="cls-9" d="M115.78,107.51v2h-9.47V101l3.55.23a6.3,6.3,0,0,1,5.92,6.29Z"/><path class="cls-9" d="M100.24,61.13l2.92,7.3L101.58,70v3.16a6.31,6.31,0,0,1-6.31,6.31H93.69l-.86,5.92a21.07,21.07,0,0,0-5.46-2.76V77.9L90,64.66a3.16,3.16,0,0,1,3.09-2.54h3.72A6.27,6.27,0,0,0,100.24,61.13Z"/><path class="cls-10" d="M122.1,133.14a4.74,4.74,0,1,0,4.73,4.74A4.75,4.75,0,0,0,122.1,133.14Zm0,6.32a1.58,1.58,0,1,1,1.57-1.58A1.58,1.58,0,0,1,122.1,139.46Z"/><path class="cls-10" d="M77.9,114.2a14.21,14.21,0,1,0,14.21,14.21A14.22,14.22,0,0,0,77.9,114.2Zm0,15.79a1.58,1.58,0,1,1,1.58-1.58A1.57,1.57,0,0,1,77.9,130Zm2-5.84a3,3,0,0,0-.45-.18v-6.48a11,11,0,0,1,5,2.08Zm-3.6-.19a4.68,4.68,0,0,0-.45.19l-4.58-4.58a11,11,0,0,1,5-2.08Zm-2.69,2.42a4.22,4.22,0,0,0-.18.45H67a11,11,0,0,1,2.09-5ZM73.46,130a4.22,4.22,0,0,0,.18.45L69.07,135A11,11,0,0,1,67,130Zm2.42,2.68a3,3,0,0,0,.45.18v6.48a10.9,10.9,0,0,1-5-2.09Zm3.6.18a3,3,0,0,0,.45-.18l4.58,4.58a11,11,0,0,1-5,2.08Zm2.68-2.41c.07-.15.13-.3.19-.45h6.47a10.89,10.89,0,0,1-2.08,5Zm.19-3.61-.18-.45,4.57-4.57a11,11,0,0,1,2.09,5Z"/><path class="cls-10" d="M142.61,137.88a4.73,4.73,0,0,0-3.15-4.45V122.1a11.06,11.06,0,0,0-11.05-11h-3.2a7.84,7.84,0,0,0-6.27-3.16h-1.58v-.38a7.91,7.91,0,0,0-7.4-7.88l-7-.43a22.24,22.24,0,0,0-8.4-14.49l.53-3.65h.21a7.9,7.9,0,0,0,7.89-7.89v-2.5L105,68.81l-2.88-7.19a7.81,7.81,0,0,0,2.6-5.81A4.74,4.74,0,0,0,100,51.07H92A14.15,14.15,0,0,0,77.9,65.2v1a14.06,14.06,0,0,0,7.9,12.68v2.81a13.23,13.23,0,0,0-3.6,3.17,7.87,7.87,0,0,0-7.45-5.43H62.12A4.75,4.75,0,0,0,57.45,85,4.87,4.87,0,0,0,62.3,89H73.17v19.51A20.51,20.51,0,1,0,98.34,130h16a11,11,0,1,0,17.68,12.62h10.55Zm-14.2-23.68a7.9,7.9,0,0,1,7.89,7.9v11h-4.24a11.15,11.15,0,0,0-2.44-3.33,4.66,4.66,0,0,0,2.4-1.5,4.74,4.74,0,0,0,1.06-3.85,4.87,4.87,0,0,0-4.85-3.94h-1.4v-4.74a7.5,7.5,0,0,0-.16-1.58Zm-9.47-3.15a4.73,4.73,0,0,1,4.73,4.73v4.74h-3.15v-3.16a3.17,3.17,0,0,0-3.16-3.16H92.68a20.72,20.72,0,0,0-3.89-3.15h30.15Zm-23.77,6.31h22.19v3.16H96.84A20.26,20.26,0,0,0,95.17,117.36Zm-12.53-11.3a14.38,14.38,0,0,0,1.83,1.83H82.64Zm31.56,1.45v.38h-6.31v-5.22l1.87.11A4.75,4.75,0,0,1,114.2,107.51ZM101.31,68.05,100,69.36v3.81a4.73,4.73,0,0,1-4.73,4.73h-3l-.7,4.9A20.39,20.39,0,0,0,89,81.54V78.06L91.57,65a1.58,1.58,0,0,1,1.55-1.27h3.72a7.63,7.63,0,0,0,2.54-.46Zm-20.25-1.8v-1a11,11,0,0,1,11-11h8a1.58,1.58,0,0,1,1.58,1.58,4.74,4.74,0,0,1-4.74,4.73H93.12a4.74,4.74,0,0,0-4.64,3.81L86.23,75.57A10.92,10.92,0,0,1,81.06,66.25Zm6.45,18.11A19.17,19.17,0,0,1,99.71,99l-5.62-.35a3.15,3.15,0,0,1-2.87-2.39l-.74-3-3.06.77.74,3a6.29,6.29,0,0,0,5.73,4.77l10.84.68v5.42H93.22A10.58,10.58,0,0,1,82.64,97.31V92.85a9.78,9.78,0,0,1,4.87-8.49ZM73.17,85.8H62.3a1.72,1.72,0,0,1-1.73-1.31,1.58,1.58,0,0,1,1.55-1.85H74.75a4.73,4.73,0,0,1,4.73,4.73V108c-.52,0-1-.08-1.58-.08s-1.05,0-1.57.08V89A3.16,3.16,0,0,0,73.17,85.8Zm4.73,60a17.36,17.36,0,1,1,17.37-17.36A17.38,17.38,0,0,1,77.9,145.77Zm20.44-18.94a20.59,20.59,0,0,0-.49-3.16h30.38A1.72,1.72,0,0,1,130,125a1.58,1.58,0,0,1-1.55,1.85Zm23.76,18.94a7.89,7.89,0,1,1,7.89-7.89A7.9,7.9,0,0,1,122.1,145.77Zm17.36-6.31H133a10.46,10.46,0,0,0,0-3.16h4.86a1.58,1.58,0,0,1,1.58,1.58Z"/><path class="cls-2" d="M48.13,190.05a6.31,6.31,0,0,1-3.41-5.71,6.27,6.27,0,0,1,.91-3.36,6.2,6.2,0,0,1,2.5-2.34,8,8,0,0,1,7.18,0,6.54,6.54,0,0,1,2.5,9.07,6.48,6.48,0,0,1-2.5,2.34,8.09,8.09,0,0,1-7.18,0Zm5.32-2.56a3.24,3.24,0,0,0,1.22-1.27,4.15,4.15,0,0,0,0-3.76,3.31,3.31,0,0,0-1.22-1.27,3.41,3.41,0,0,0-1.73-.45,3.36,3.36,0,0,0-1.73.45,3.24,3.24,0,0,0-1.22,1.27,4.15,4.15,0,0,0,0,3.76A3.18,3.18,0,0,0,50,187.49a3.36,3.36,0,0,0,1.73.45A3.41,3.41,0,0,0,53.45,187.49Z"/><path class="cls-2" d="M69,181.34a4.48,4.48,0,0,1,1.73,1.75,5.42,5.42,0,0,1,.64,2.66,5.48,5.48,0,0,1-.64,2.66A4.53,4.53,0,0,1,69,190.18a4.74,4.74,0,0,1-2.42.62,3.52,3.52,0,0,1-2.88-1.13v1H60.43V177.29h3.42v4.44a3.65,3.65,0,0,1,2.72-1A4.84,4.84,0,0,1,69,181.34Zm-1.67,6.12a2.8,2.8,0,0,0,0-3.41,1.94,1.94,0,0,0-1.47-.61,2,2,0,0,0-1.48.61,2.8,2.8,0,0,0,0,3.41,1.91,1.91,0,0,0,1.48.63A1.89,1.89,0,0,0,67.32,187.46Z"/><path class="cls-2" d="M70.15,193.79l.86-2.43a2,2,0,0,0,1.07.29.91.91,0,0,0,.73-.32,1.48,1.48,0,0,0,.27-1v-9.48H76.5v9.5a3.85,3.85,0,0,1-1,2.85,4,4,0,0,1-2.93,1.06A4.74,4.74,0,0,1,70.15,193.79Zm3.13-14.51a1.67,1.67,0,0,1-.57-1.29,1.69,1.69,0,0,1,.57-1.3,2.49,2.49,0,0,1,3,0,1.57,1.57,0,0,1,.58,1.26,1.72,1.72,0,0,1-.58,1.34,2.1,2.1,0,0,1-1.51.54A2.17,2.17,0,0,1,73.28,179.28Z"/><path class="cls-2" d="M88.62,186.63h-7.1a2,2,0,0,0,.84,1.16,2.8,2.8,0,0,0,1.56.4,3.38,3.38,0,0,0,1.21-.19,3.71,3.71,0,0,0,1-.65l1.8,1.87a5.3,5.3,0,0,1-4.16,1.58,6.7,6.7,0,0,1-3-.64,4.93,4.93,0,0,1-2-1.8,4.82,4.82,0,0,1-.71-2.61,4.92,4.92,0,0,1,.69-2.59,4.81,4.81,0,0,1,1.92-1.79,5.79,5.79,0,0,1,2.75-.65,5.71,5.71,0,0,1,2.65.61A4.57,4.57,0,0,1,88,183.07a5.15,5.15,0,0,1,.69,2.71S88.65,186.09,88.62,186.63Zm-6.47-3a2,2,0,0,0-.68,1.23h4a2,2,0,0,0-.68-1.23,2.16,2.16,0,0,0-2.64,0Z"/><path class="cls-2" d="M97,190.25a3.55,3.55,0,0,1-1.06.41,5.57,5.57,0,0,1-1.32.14,4.21,4.21,0,0,1-2.93-.93,3.59,3.59,0,0,1-1-2.79V183.8H89.23v-2.55h1.42v-2.54h3.42v2.54H96.3v2.55H94.07V187a1.13,1.13,0,0,0,.28.82,1,1,0,0,0,.75.3,1.77,1.77,0,0,0,1-.31Z"/><path class="cls-2" d="M98.5,179.28a1.65,1.65,0,0,1-.58-1.29,1.67,1.67,0,0,1,.58-1.3,2.15,2.15,0,0,1,1.51-.52,2.19,2.19,0,0,1,1.51.5,1.57,1.57,0,0,1,.58,1.26,1.72,1.72,0,0,1-.58,1.34,2.12,2.12,0,0,1-1.51.54A2.16,2.16,0,0,1,98.5,179.28Zm-.2,1.61h3.42v9.75H98.3Z"/><path class="cls-2" d="M114.21,180.89l-4,9.75h-3.53l-4-9.75h3.51l2.34,6,2.46-6Z"/><path class="cls-2" d="M116.89,190.16a5,5,0,0,1-2-1.8,4.91,4.91,0,0,1,2-7,6.17,6.17,0,0,1,2.83-.64,6.25,6.25,0,0,1,2.84.64,4.86,4.86,0,0,1,2,1.78,4.94,4.94,0,0,1-2,7,6.6,6.6,0,0,1-5.67,0Zm4.31-2.7a2.84,2.84,0,0,0,0-3.41,2.1,2.1,0,0,0-3,0,2.84,2.84,0,0,0,0,3.41,2.05,2.05,0,0,0,3,0Z"/><path class="cls-2" d="M143.44,188.23h-1.87v2.41H138.1v-2.41h-6.66v-2.32l5.65-7.87h3.69l-5.13,7.36h2.56v-2.14h3.36v2.14h1.87Z"/><path class="cls-2" d="M145,190.23a2.11,2.11,0,0,1,0-2.92,2.06,2.06,0,0,1,1.47-.56,2,2,0,0,1,1.47.56,1.92,1.92,0,0,1,.58,1.46,2,2,0,0,1-2.05,2A2,2,0,0,1,145,190.23Z"/><path class="cls-2" d="M158.25,183.71a3.61,3.61,0,0,1,1.27,2.88,4,4,0,0,1-.61,2.15,4.13,4.13,0,0,1-1.83,1.57,7.12,7.12,0,0,1-3.05.58,10.72,10.72,0,0,1-2.64-.32,7.51,7.51,0,0,1-2.24-.92l1.28-2.68a5.87,5.87,0,0,0,1.66.77,6.44,6.44,0,0,0,1.83.27,2.61,2.61,0,0,0,1.46-.35,1.09,1.09,0,0,0,.55-1,1,1,0,0,0-.54-1,3.9,3.9,0,0,0-1.9-.33h-3.42l.63-7.36h8v2.76h-5.07l-.16,1.83h.84A6,6,0,0,1,158.25,183.71Z"/></svg>