<svg id="Layer_1" data-name="Layer 1" xmlns="http://www.w3.org/2000/svg" xmlns:xlink="http://www.w3.org/1999/xlink" viewBox="0 0 200 200"><defs><style>.cls-1{fill:url(#radial-gradient);}.cls-2{fill:#fff;}.cls-3{fill:#f9e0a6;}.cls-4{fill:#659afc;}.cls-5{fill:#ececec;}.cls-6{fill:#eb423f;}.cls-7{fill:#005c7b;}.cls-8{fill:#1a237e;}</style><radialGradient id="radial-gradient" cx="100" cy="646" r="100" gradientTransform="translate(0 -546)" gradientUnits="userSpaceOnUse"><stop offset="0" stop-color="#ecfffc"/><stop offset="0.16" stop-color="#cddfef"/><stop offset="0.57" stop-color="#8193d0"/><stop offset="0.86" stop-color="#5163bc"/><stop offset="1" stop-color="#3f51b5"/></radialGradient></defs><rect class="cls-1" width="200" height="200"/><path class="cls-2" d="M99.1,191.23H97.23v2.41H93.76v-2.41H87.1v-2.32L92.75,181h3.69l-5.13,7.36h2.56v-2.14h3.36v2.14H99.1Z"/><path class="cls-2" d="M100.65,193.23a2.11,2.11,0,0,1,0-2.92,2.06,2.06,0,0,1,1.47-.56,2,2,0,0,1,1.47.56,1.92,1.92,0,0,1,.58,1.46,2,2,0,0,1-.58,1.46,2.17,2.17,0,0,1-2.93,0Z"/><path class="cls-2" d="M115.86,188.24a3.11,3.11,0,0,1,.47,1.69,3.4,3.4,0,0,1-.68,2.09,4.4,4.4,0,0,1-1.93,1.39,8.76,8.76,0,0,1-5.72,0,4.4,4.4,0,0,1-1.93-1.39,3.34,3.34,0,0,1-.68-2.09,3.11,3.11,0,0,1,.46-1.69,3.83,3.83,0,0,1,1.34-1.24,3.08,3.08,0,0,1-1-1.1,2.9,2.9,0,0,1-.35-1.44,3.1,3.1,0,0,1,.63-1.93,4,4,0,0,1,1.77-1.29,7.09,7.09,0,0,1,2.62-.45,7.16,7.16,0,0,1,2.62.45,4,4,0,0,1,1.77,1.29,3.1,3.1,0,0,1,.63,1.93,3,3,0,0,1-.35,1.44,3.27,3.27,0,0,1-1,1.1A3.71,3.71,0,0,1,115.86,188.24ZM112.23,191a1.4,1.4,0,0,0,.52-1.15,1.38,1.38,0,0,0-.52-1.14,2.46,2.46,0,0,0-2.75,0,1.4,1.4,0,0,0-.51,1.14,1.42,1.42,0,0,0,.51,1.15,2.46,2.46,0,0,0,2.75,0Zm-2.45-7.33a1.21,1.21,0,0,0-.42,1,1.23,1.23,0,0,0,.41,1,1.62,1.62,0,0,0,1.09.35,1.69,1.69,0,0,0,1.1-.35,1.36,1.36,0,0,0,0-2,1.69,1.69,0,0,0-1.1-.35A1.61,1.61,0,0,0,109.78,183.64Z"/><circle class="cls-2" cx="101.75" cy="101.75" r="68.75"/><path class="cls-3" d="M112.06,58.76,103,57.25v-6l9.06,1.51Z"/><path class="cls-4" d="M119.61,138.79H86.39V75.37L103,63.29l16.61,12.08Z"/><circle class="cls-5" cx="103" cy="84.43" r="7.55"/><path class="cls-4" d="M119.61,75.37h24.16v63.42H119.61Z"/><path class="cls-6" d="M104.51,85.94H103a1.52,1.52,0,0,1-1.51-1.51v-3a1.51,1.51,0,0,1,3,0v1.51a1.51,1.51,0,0,1,0,3Z"/><path class="cls-7" d="M92.43,98h21.14v6H92.43Z"/><path class="cls-7" d="M103,111.61a9.06,9.06,0,0,1,9.06,9.06v18.12H93.94V120.67A9.06,9.06,0,0,1,103,111.61Z"/><path class="cls-4" d="M62.23,75.37H86.39v63.42H62.23Z"/><path class="cls-5" d="M69.78,82.92h9.06V95H69.78Z"/><path class="cls-5" d="M69.78,101h9.06v12.08H69.78Z"/><path class="cls-5" d="M69.78,119.16h9.06v12.08H69.78Z"/><path class="cls-5" d="M127.16,82.92h9.06V95h-9.06Z"/><path class="cls-5" d="M127.16,101h9.06v12.08h-9.06Z"/><path class="cls-5" d="M127.16,119.16h9.06v12.08h-9.06Z"/><path class="cls-8" d="M103,93.49a9.06,9.06,0,1,0-9.06-9.06A9.06,9.06,0,0,0,103,93.49Zm0-15.1a6,6,0,1,1-6,6A6,6,0,0,1,103,78.39Z"/><path class="cls-8" d="M103,85.94h1.51a1.51,1.51,0,0,0,0-3V81.41a1.51,1.51,0,0,0-3,0v3A1.52,1.52,0,0,0,103,85.94Z"/><path class="cls-8" d="M115.08,104.06V98a1.52,1.52,0,0,0-1.51-1.51H92.43A1.52,1.52,0,0,0,90.92,98v6a1.52,1.52,0,0,0,1.51,1.51h21.14A1.52,1.52,0,0,0,115.08,104.06Zm-3-1.51H93.94v-3h18.12Z"/><path class="cls-8" d="M68.27,96.51H80.35a1.51,1.51,0,0,0,0-3V82.92a1.51,1.51,0,0,0-1.51-1.51H69.78a1.52,1.52,0,0,0-1.51,1.51V93.49a1.51,1.51,0,1,0,0,3Zm3-12.08h6v9.06h-6Z"/><path class="cls-8" d="M80.35,111.61V101a1.51,1.51,0,0,0-1.51-1.51H69.78A1.52,1.52,0,0,0,68.27,101v10.57a1.51,1.51,0,1,0,0,3H80.35a1.51,1.51,0,1,0,0-3Zm-9.06-9.06h6v9.06h-6Z"/><path class="cls-8" d="M80.35,129.73V119.16a1.51,1.51,0,0,0-1.51-1.51H69.78a1.52,1.52,0,0,0-1.51,1.51v10.57a1.51,1.51,0,0,0,0,3H80.35a1.51,1.51,0,0,0,0-3Zm-9.06-9.06h6v9.06h-6Z"/><path class="cls-8" d="M125.65,96.51h12.08a1.51,1.51,0,1,0,0-3V82.92a1.52,1.52,0,0,0-1.51-1.51h-9.06a1.51,1.51,0,0,0-1.51,1.51V93.49a1.51,1.51,0,0,0,0,3Zm3-12.08h6v9.06h-6Z"/><path class="cls-8" d="M125.65,114.63h12.08a1.51,1.51,0,1,0,0-3V101a1.52,1.52,0,0,0-1.51-1.51h-9.06a1.51,1.51,0,0,0-1.51,1.51v10.57a1.51,1.51,0,0,0,0,3Zm3-12.08h6v9.06h-6Z"/><path class="cls-8" d="M125.65,132.75h12.08a1.51,1.51,0,1,0,0-3V119.16a1.52,1.52,0,0,0-1.51-1.51h-9.06a1.51,1.51,0,0,0-1.51,1.51v10.57a1.51,1.51,0,0,0,0,3Zm3-12.08h6v9.06h-6Z"/><path class="cls-8" d="M146.79,76.88a1.51,1.51,0,1,0,0-3H120.1L104.51,62.52V59l7.3,1.22A1.51,1.51,0,0,0,113.55,59a2,2,0,0,0,0-.25v-6a1.5,1.5,0,0,0-1.26-1.49l-9.06-1.51h0A1.51,1.51,0,0,0,101.51,51a2.11,2.11,0,0,0,0,.26V62.52L85.9,73.86H59.21a1.51,1.51,0,0,0,0,3h1.51v60.4H59.21a1.51,1.51,0,1,0,0,3h87.58a1.51,1.51,0,1,0,0-3h-1.51V76.88Zm-45.3,60.4h-6V120.67a7.56,7.56,0,0,1,6-7.4Zm3-24a7.56,7.56,0,0,1,6,7.4v16.61h-6ZM103,110.1a10.59,10.59,0,0,0-10.57,10.57v16.61H87.9V76.14l15.1-11,15.1,11v61.14h-4.53V120.67A10.59,10.59,0,0,0,103,110.1ZM110.55,57l-6-1V53l6,1ZM63.74,76.88H84.88v60.4H63.74Zm78.52,60.4H121.12V76.88h21.14Z"/></svg>