<svg id="Layer_1" data-name="Layer 1" xmlns="http://www.w3.org/2000/svg" xmlns:xlink="http://www.w3.org/1999/xlink" viewBox="0 0 200 200"><defs><style>.cls-1{fill:url(#radial-gradient);}.cls-2{fill:#fff;}.cls-3{fill:#659afc;}.cls-4{fill:#3f51b5;}.cls-5{fill:#dbedff;}.cls-6{fill:#1a237e;}</style><radialGradient id="radial-gradient" cx="100" cy="646" r="100" gradientTransform="translate(0 -546)" gradientUnits="userSpaceOnUse"><stop offset="0.45" stop-color="#fffffc"/><stop offset="0.49" stop-color="#f3f7fc"/><stop offset="0.74" stop-color="#a7c5fc"/><stop offset="0.91" stop-color="#77a6fc"/><stop offset="1" stop-color="#659afc"/></radialGradient></defs><rect class="cls-1" width="200" height="200"/><path class="cls-2" d="M47.33,190.05a6.31,6.31,0,0,1-3.41-5.71,6.31,6.31,0,0,1,3.41-5.7,8,8,0,0,1,7.19,0,6.31,6.31,0,0,1,3.41,5.7,6.31,6.31,0,0,1-3.41,5.71,8.11,8.11,0,0,1-7.19,0Zm5.32-2.56a3.2,3.2,0,0,0,1.23-1.27,4.15,4.15,0,0,0,0-3.76,3.27,3.27,0,0,0-1.23-1.27,3.53,3.53,0,0,0-3.45,0A3.27,3.27,0,0,0,48,182.46a4.15,4.15,0,0,0,0,3.76,3.2,3.2,0,0,0,1.23,1.27,3.53,3.53,0,0,0,3.45,0Z"/><path class="cls-2" d="M68.2,181.34a4.39,4.39,0,0,1,1.72,1.75,5.85,5.85,0,0,1,0,5.32,4.44,4.44,0,0,1-1.72,1.77,4.77,4.77,0,0,1-2.42.62,3.52,3.52,0,0,1-2.88-1.13v1H59.64V177.29h3.42v4.44a3.64,3.64,0,0,1,2.72-1A4.87,4.87,0,0,1,68.2,181.34Zm-1.67,6.12a2.8,2.8,0,0,0,0-3.41,2.09,2.09,0,0,0-3,0,2.8,2.8,0,0,0,0,3.41,2,2,0,0,0,3,0Z"/><path class="cls-2" d="M69.36,193.79l.86-2.43a2,2,0,0,0,1.06.29.93.93,0,0,0,.74-.32,1.48,1.48,0,0,0,.27-1v-9.48h3.42v9.5a3.85,3.85,0,0,1-1,2.85,4,4,0,0,1-2.93,1.06A4.74,4.74,0,0,1,69.36,193.79Zm3.13-14.51a1.65,1.65,0,0,1-.58-1.29,1.67,1.67,0,0,1,.58-1.3,2.49,2.49,0,0,1,3,0,1.57,1.57,0,0,1,.58,1.26,1.72,1.72,0,0,1-.58,1.34,2.1,2.1,0,0,1-1.51.54A2.16,2.16,0,0,1,72.49,179.28Z"/><path class="cls-2" d="M87.82,186.63H80.73a2,2,0,0,0,.84,1.16,2.78,2.78,0,0,0,1.56.4,3.42,3.42,0,0,0,1.21-.19,3.86,3.86,0,0,0,1-.65l1.8,1.87A5.3,5.3,0,0,1,83,190.8a6.7,6.7,0,0,1-3-.64,4.93,4.93,0,0,1-2-1.8,4.83,4.83,0,0,1-.72-2.61,4.93,4.93,0,0,1,.7-2.59,4.85,4.85,0,0,1,1.91-1.79,5.85,5.85,0,0,1,2.76-.65,5.64,5.64,0,0,1,2.64.61,4.6,4.6,0,0,1,1.89,1.74,5.15,5.15,0,0,1,.69,2.71S87.86,186.09,87.82,186.63Zm-6.47-3a2,2,0,0,0-.67,1.23h4A2,2,0,0,0,84,183.6a2,2,0,0,0-1.32-.45A2,2,0,0,0,81.35,183.6Z"/><path class="cls-2" d="M96.19,190.25a3.38,3.38,0,0,1-1,.41,5.57,5.57,0,0,1-1.32.14,4.25,4.25,0,0,1-2.94-.93,3.62,3.62,0,0,1-1-2.79V183.8H88.44v-2.55h1.42v-2.54h3.42v2.54h2.23v2.55H93.28V187a1.13,1.13,0,0,0,.28.82,1,1,0,0,0,.74.3,1.78,1.78,0,0,0,1-.31Z"/><path class="cls-2" d="M97.71,179.28a1.65,1.65,0,0,1-.58-1.29,1.67,1.67,0,0,1,.58-1.3,2.13,2.13,0,0,1,1.51-.52,2.19,2.19,0,0,1,1.51.5,1.6,1.6,0,0,1,.58,1.26,1.75,1.75,0,0,1-.58,1.34,2.12,2.12,0,0,1-1.51.54A2.14,2.14,0,0,1,97.71,179.28Zm-.2,1.61h3.42v9.75H97.51Z"/><path class="cls-2" d="M113.42,180.89l-4,9.75h-3.53l-4-9.75h3.51l2.34,6,2.46-6Z"/><path class="cls-2" d="M116.1,190.16a5,5,0,0,1-2-1.8,5.13,5.13,0,0,1,0-5.21,5,5,0,0,1,2-1.79,6.62,6.62,0,0,1,5.68,0,4.77,4.77,0,0,1,2,1.78,4.95,4.95,0,0,1-2,7,6.6,6.6,0,0,1-5.67,0Zm4.3-2.7a2.8,2.8,0,0,0,0-3.41,1.94,1.94,0,0,0-1.47-.61,2,2,0,0,0-1.48.61,2.84,2.84,0,0,0,0,3.41,1.93,1.93,0,0,0,1.48.63A1.89,1.89,0,0,0,120.4,187.46Z"/><path class="cls-2" d="M142.65,188.23h-1.87v2.41h-3.47v-2.41h-6.66v-2.32L136.3,178H140l-5.13,7.36h2.55v-2.14h3.37v2.14h1.87Z"/><path class="cls-2" d="M144.2,190.23a2.09,2.09,0,0,1,0-2.92,2.06,2.06,0,0,1,1.47-.56,2,2,0,0,1,1.47.56,1.92,1.92,0,0,1,.58,1.46,2,2,0,0,1-.59,1.46,2.15,2.15,0,0,1-2.92,0Z"/><path class="cls-2" d="M157.87,181.34a4.48,4.48,0,0,1,1.73,1.75,5.42,5.42,0,0,1,.64,2.66,5.48,5.48,0,0,1-.64,2.66,4.53,4.53,0,0,1-1.73,1.77,4.74,4.74,0,0,1-2.42.62,3.52,3.52,0,0,1-2.88-1.13v1h-3.26V177.29h3.42v4.44a3.65,3.65,0,0,1,2.72-1A4.84,4.84,0,0,1,157.87,181.34Zm-1.67,6.12a2.8,2.8,0,0,0,0-3.41,1.94,1.94,0,0,0-1.47-.61,2,2,0,0,0-1.48.61,2.84,2.84,0,0,0,0,3.41,1.93,1.93,0,0,0,1.48.63A1.89,1.89,0,0,0,156.2,187.46Z"/><circle class="cls-2" cx="101.75" cy="101.91" r="68.75"/><path class="cls-3" d="M141.41,72.88h-3.88v50.87s-5.21,1.52-17.53-2.2a20,20,0,0,0-17.68,2.75c-.68.48-1.48,1.26-2.3,1.26h-.1c-.83,0-1.63-.78-2.3-1.26a20,20,0,0,0-17.69-2.75c-12.32,3.72-17.53,2.2-17.53,2.2V72.88H58.52a1.88,1.88,0,0,0-1.88,1.89v53a1.89,1.89,0,0,0,1.88,1.89H92.41a2.58,2.58,0,0,1,2.35,1.46,5.75,5.75,0,0,0,10.41,0,2.61,2.61,0,0,1,2.36-1.46h33.88a1.89,1.89,0,0,0,1.89-1.89v-53a1.89,1.89,0,0,0-1.89-1.89Z"/><path class="cls-4" d="M66.28,127.8v-3.75a14.73,14.73,0,0,1-3.88-.3V72.88H58.52a1.88,1.88,0,0,0-1.88,1.89v53a1.89,1.89,0,0,0,1.88,1.89h9.65A1.89,1.89,0,0,1,66.28,127.8Z"/><path class="cls-5" d="M136.37,68.82c-2.51.2-7.87.13-16.37-2.43a20,20,0,0,0-20,4.72l-1.35,1.77v50.81l1.35,1.8v.07h0a4.05,4.05,0,0,0,2.3-.73A19.91,19.91,0,0,1,120,122.08c12.32,3.71,18.06,2.19,18.06,2.19V70.38a1.57,1.57,0,0,0-1.69-1.56Z"/><path class="cls-6" d="M100,127.06h-1.5l0-1-1.36-1.82V72.37l1.74-2.27A21.34,21.34,0,0,1,120.43,65c8.3,2.51,13.48,2.56,15.82,2.38h0a3,3,0,0,1,2.32.8,3.07,3.07,0,0,1,1,2.25v55l-1.12.3c-.25.07-6.29,1.58-18.87-2.21a18.56,18.56,0,0,0-16.39,2.54A5.47,5.47,0,0,1,100,127.06Zm.1-3.87.58.77a2.36,2.36,0,0,0,.75-.36,21.51,21.51,0,0,1,19-3c8.67,2.61,14,2.55,16.13,2.34V70.38l-.19-1.56.12,1.5c-2.55.2-8.15.15-16.92-2.49a18.33,18.33,0,0,0-18.46,4.26l-1,1.3Z"/><path class="cls-5" d="M63.56,68.82c2.52.2,7.88.13,16.37-2.43a20,20,0,0,1,20,4.72v54.45h0a4,4,0,0,1-2.3-.73,19.93,19.93,0,0,0-17.69-2.75c-12.32,3.71-18.05,2.19-18.05,2.19V70.38a1.56,1.56,0,0,1,1.68-1.56Z"/><path class="cls-6" d="M132.11,76.57a56.29,56.29,0,0,1-11.7-2.35,21.18,21.18,0,0,0-14.84.71,1.31,1.31,0,1,0,1,2.4,18.7,18.7,0,0,1,13.06-.61,58.85,58.85,0,0,0,12.25,2.46h.1a1.31,1.31,0,0,0,.1-2.61Z"/><path class="cls-6" d="M132.11,82.13a56.42,56.42,0,0,1-11.7-2.35,21.18,21.18,0,0,0-14.84.71,1.31,1.31,0,1,0,1,2.4,18.64,18.64,0,0,1,13.06-.61,58.14,58.14,0,0,0,12.25,2.45h.1a1.31,1.31,0,0,0,.1-2.61Z"/><path class="cls-6" d="M132.11,109.92a56.29,56.29,0,0,1-11.7-2.35,21.18,21.18,0,0,0-14.84.71,1.31,1.31,0,1,0,1,2.4,18.7,18.7,0,0,1,13.06-.61,58.14,58.14,0,0,0,12.25,2.45h.1a1.31,1.31,0,0,0,.1-2.61Z"/><path class="cls-6" d="M132.11,115.48a56.29,56.29,0,0,1-11.7-2.35,21.18,21.18,0,0,0-14.84.71,1.31,1.31,0,1,0,1,2.4,18.64,18.64,0,0,1,13.06-.61,58.14,58.14,0,0,0,12.25,2.45h.1a1.31,1.31,0,0,0,.1-2.61Z"/><path class="cls-6" d="M132.11,87.68a55.57,55.57,0,0,1-11.7-2.34,21.18,21.18,0,0,0-14.84.71,1.31,1.31,0,1,0,1,2.4,18.64,18.64,0,0,1,13.06-.61,58.14,58.14,0,0,0,12.25,2.45h.1a1.31,1.31,0,0,0,.1-2.62Z"/><path class="cls-6" d="M132.11,98.8a56.42,56.42,0,0,1-11.7-2.35,21.18,21.18,0,0,0-14.84.71,1.31,1.31,0,1,0,1,2.41A18.59,18.59,0,0,1,119.66,99a58.78,58.78,0,0,0,12.25,2.45h.1a1.31,1.31,0,0,0,.1-2.61Z"/><path class="cls-6" d="M132.11,93.24a55.57,55.57,0,0,1-11.7-2.34,21.07,21.07,0,0,0-14.84.71,1.3,1.3,0,0,0-.69,1.71,1.31,1.31,0,0,0,1.72.69,18.64,18.64,0,0,1,13.06-.61,58.78,58.78,0,0,0,12.25,2.45h.1a1.31,1.31,0,0,0,.1-2.61Z"/><path class="cls-6" d="M132.11,104.36a56.42,56.42,0,0,1-11.7-2.35,21.18,21.18,0,0,0-14.84.71,1.31,1.31,0,1,0,1,2.41,18.59,18.59,0,0,1,13.06-.61A58.78,58.78,0,0,0,131.91,107h.1a1.31,1.31,0,0,0,.1-2.61Z"/><path class="cls-6" d="M68,79.18h.1a58.85,58.85,0,0,0,12.25-2.46,18.7,18.7,0,0,1,13.06.61,1.31,1.31,0,1,0,1-2.4,21.18,21.18,0,0,0-14.84-.71,56.42,56.42,0,0,1-11.7,2.35,1.31,1.31,0,0,0,.1,2.61Z"/><path class="cls-6" d="M68,84.74h.1a58.14,58.14,0,0,0,12.25-2.45,18.64,18.64,0,0,1,13.06.61,1.31,1.31,0,1,0,1-2.4,21.18,21.18,0,0,0-14.84-.71,56.42,56.42,0,0,1-11.7,2.35,1.31,1.31,0,0,0,.1,2.61Z"/><path class="cls-6" d="M68,112.53h.1a58.14,58.14,0,0,0,12.25-2.45,18.7,18.7,0,0,1,13.06.61,1.31,1.31,0,1,0,1-2.4,21.18,21.18,0,0,0-14.84-.71,56.29,56.29,0,0,1-11.7,2.35,1.31,1.31,0,0,0,.1,2.61Z"/><path class="cls-6" d="M68,118.09h.1a58.14,58.14,0,0,0,12.25-2.45,18.64,18.64,0,0,1,13.06.61,1.31,1.31,0,1,0,1-2.4,21.18,21.18,0,0,0-14.84-.71,56.42,56.42,0,0,1-11.7,2.35,1.31,1.31,0,0,0,.1,2.61Z"/><path class="cls-6" d="M68,90.3h.1a58.14,58.14,0,0,0,12.25-2.45,18.64,18.64,0,0,1,13.06.61,1.31,1.31,0,1,0,1-2.4,21.18,21.18,0,0,0-14.84-.71,55.57,55.57,0,0,1-11.7,2.34A1.31,1.31,0,0,0,68,90.3Z"/><path class="cls-6" d="M68,101.41h.1A58.78,58.78,0,0,0,80.34,99a18.59,18.59,0,0,1,13.06.61,1.31,1.31,0,1,0,1-2.41,21.18,21.18,0,0,0-14.84-.71,56.42,56.42,0,0,1-11.7,2.35,1.31,1.31,0,0,0,.1,2.61Z"/><path class="cls-6" d="M68,95.85h.1A58.78,58.78,0,0,0,80.34,93.4,18.64,18.64,0,0,1,93.4,94a1.31,1.31,0,0,0,1.72-.69,1.3,1.3,0,0,0-.69-1.71,21.07,21.07,0,0,0-14.84-.71,55.7,55.7,0,0,1-11.7,2.34,1.31,1.31,0,0,0,.1,2.61Z"/><path class="cls-6" d="M68,107h.1a58.78,58.78,0,0,0,12.25-2.45,18.59,18.59,0,0,1,13.06.61,1.31,1.31,0,1,0,1-2.41A21.18,21.18,0,0,0,79.59,102a56.42,56.42,0,0,1-11.7,2.35A1.31,1.31,0,0,0,68,107Z"/><path class="cls-6" d="M141.45,71.63h-2V70.44a2.87,2.87,0,0,0-3.1-2.86,40.41,40.41,0,0,1-12.77-1.52,1.31,1.31,0,0,0-.65,2.54c6.64,1.68,11.08,1.79,13.63,1.58a.25.25,0,0,1,.27.26v52.77c-4.95.54-11.57-.88-16.37-2.33-10.72-3.23-17.64,2.32-19.1,3.11V71.72a18.7,18.7,0,0,1,15.58-4.66,1.31,1.31,0,1,0,.42-2.58A21.17,21.17,0,0,0,100,69.37,21.36,21.36,0,0,0,79.59,65.2c-8.33,2.51-13.53,2.57-15.89,2.38a2.87,2.87,0,0,0-3.1,2.86v1.19H58.55a3.2,3.2,0,0,0-3.19,3.2v53a3.19,3.19,0,0,0,3.19,3.19H92.44a1.27,1.27,0,0,1,1.17.72,7.08,7.08,0,0,0,12.78,0,1.29,1.29,0,0,1,1.17-.72h33.88a3.19,3.19,0,0,0,3.2-3.19v-24.8a1.31,1.31,0,0,0-2.62,0v24.8a.58.58,0,0,1-.58.58H107.56a3.93,3.93,0,0,0-3.54,2.21,4.45,4.45,0,0,1-8,0,3.93,3.93,0,0,0-3.54-2.21H58.55a.58.58,0,0,1-.57-.58v-53a.58.58,0,0,1,.57-.58H60.6v50.08a1.3,1.3,0,0,0,1,1.26c.24.07,6.23,1.57,18.76-2.2A18.75,18.75,0,0,1,96.9,126a5.41,5.41,0,0,0,6.2,0,18.77,18.77,0,0,1,16.56-2.57c12.53,3.77,18.52,2.27,18.76,2.2a1.3,1.3,0,0,0,1-1.26V74.25h2a.58.58,0,0,1,.57.58V107a1.31,1.31,0,0,0,2.62,0V74.83A3.2,3.2,0,0,0,141.45,71.63ZM63.22,70.44a.25.25,0,0,1,.27-.26c2.54.21,8.11.16,16.85-2.48a18.65,18.65,0,0,1,18.35,4V124a21.6,21.6,0,0,0-19.1-3.11c-.71.22-1.48.44-2.2.63h0c-4.21,1.12-9.81,2.16-14.14,1.69V70.44Z"/></svg>