<svg xmlns="http://www.w3.org/2000/svg" viewBox="0 0 191.02 176.13"><defs><style>.cls-1{fill:none;stroke-width:1.63px;stroke-dasharray:3.26 6.52;}.cls-1,.cls-10,.cls-3,.cls-4,.cls-6,.cls-7,.cls-8,.cls-9{stroke:#b2550f;}.cls-1,.cls-3,.cls-4,.cls-6,.cls-7,.cls-8,.cls-9{stroke-linecap:round;}.cls-1,.cls-10{stroke-miterlimit:10;}.cls-2{fill:#fff;}.cls-3{fill:#ffaf5e;}.cls-3,.cls-4,.cls-6,.cls-7,.cls-8,.cls-9{stroke-linejoin:round;}.cls-3,.cls-4{stroke-width:5px;}.cls-4,.cls-6{fill:#f05e23;}.cls-10,.cls-5{fill:#b2550f;}.cls-6,.cls-7,.cls-8,.cls-9{stroke-width:1.88px;}.cls-7{fill:#ff8831;}.cls-8{fill:#febf00;}.cls-9{fill:#87c6c0;}</style></defs><title>data-paper</title><g id="Layer_2" data-name="Layer 2"><g id="Layer_1-2" data-name="Layer 1"><path class="cls-1" d="M88.6,134.22a56.91,56.91,0,1,1,9.3-92.4"/><path class="cls-1" d="M75,51.42a56.88,56.88,0,1,1,71.4,61.2"/><path class="cls-1" d="M153.5,60a60,60,0,1,1-80.1,74.8"/><polygon class="cls-2" points="30.95 14.71 39.65 13.31 30.95 11.91 29.65 3.31 28.25 11.91 19.55 13.31 28.25 14.71 29.65 23.32 30.95 14.71"/><polygon class="cls-2" points="171.1 138.41 175.6 137.62 171.1 136.91 170.3 132.41 169.6 136.91 165 137.62 169.6 138.41 170.3 142.91 171.1 138.41"/><polygon class="cls-2" points="11.4 135.31 20.1 133.91 11.4 132.51 10.1 123.92 8.7 132.51 0 133.91 8.7 135.31 10.1 143.91 11.4 135.31"/><polygon class="cls-2" points="24.6 99.92 29.6 99.11 24.6 98.42 23.8 93.42 23 98.42 18 99.11 23 99.92 23.8 104.92 24.6 99.92"/><polygon class="cls-2" points="171.1 35.03 176.1 34.23 171.1 33.53 170.3 28.53 169.5 33.53 164.5 34.23 169.5 35.03 170.3 40.03 171.1 35.03"/><path class="cls-3" d="M152.32,131.19v23.25H61.92V22.72s0-10.33-10.33-10.33H142a10.34,10.34,0,0,1,10.33,10.33V131.19Z"/><path class="cls-4" d="M51.59,12.39A10.33,10.33,0,0,1,61.92,22.72V56.3H41.26V22.72A10.34,10.34,0,0,1,51.59,12.39Z"/><path class="cls-5" d="M71.56,20.67H92.22a2.59,2.59,0,0,1,2.59,2.58h0a2.59,2.59,0,0,1-2.59,2.59H71.56A2.58,2.58,0,0,1,69,23.25h0A2.58,2.58,0,0,1,71.56,20.67Z"/><path class="cls-5" d="M71.56,29.12H92.22a2.58,2.58,0,0,1,2.59,2.58h0a2.58,2.58,0,0,1-2.59,2.58H71.56A2.57,2.57,0,0,1,69,31.7h0A2.57,2.57,0,0,1,71.56,29.12Z"/><path class="cls-5" d="M71.56,37.56h7.75a2.58,2.58,0,0,1,2.58,2.59h0a2.58,2.58,0,0,1-2.58,2.58H71.56A2.58,2.58,0,0,1,69,40.15h0A2.58,2.58,0,0,1,71.56,37.56Z"/><path class="cls-5" d="M131.11,76.85h7.75a2.59,2.59,0,0,1,2.59,2.59h0A2.59,2.59,0,0,1,138.86,82h-7.75a2.59,2.59,0,0,1-2.58-2.58h0A2.59,2.59,0,0,1,131.11,76.85Z"/><path class="cls-5" d="M132,29.54h7.74a2.59,2.59,0,0,1,2.59,2.59h0a2.59,2.59,0,0,1-2.59,2.58H132a2.59,2.59,0,0,1-2.59-2.58h0A2.59,2.59,0,0,1,132,29.54Z"/><path class="cls-5" d="M132,37.29h7.74a2.59,2.59,0,0,1,2.59,2.59h0a2.59,2.59,0,0,1-2.59,2.58H132a2.59,2.59,0,0,1-2.59-2.58h0A2.59,2.59,0,0,1,132,37.29Z"/><path class="cls-6" d="M118.33,105.19H107.59v-5h10.74l2.48,2.47Z"/><path class="cls-7" d="M144.76,114.28H107.59v-5h37.17l2.48,2.48Z"/><path class="cls-8" d="M122.46,132.45H107.59V127.5h14.87l2.48,2.47Z"/><path class="cls-9" d="M134.85,123.37H107.59v-5h27.26l2.48,2.48Z"/><path class="cls-7" d="M137.33,141.54H107.59v-5h29.74l2.48,2.48Z"/><path class="cls-5" d="M107.59,96.11h0a.83.83,0,0,1,.83.82v47.91a.83.83,0,0,1-.83.83h0a.83.83,0,0,1-.82-.83V96.93A.82.82,0,0,1,107.59,96.11Z"/><path class="cls-5" d="M74.4,96.78H91.52a2.4,2.4,0,0,1,2.14,2.58h0A2.4,2.4,0,0,1,91.52,102H74.4a2.39,2.39,0,0,1-2.14-2.59h0A2.39,2.39,0,0,1,74.4,96.78Z"/><path class="cls-5" d="M75,107.11H97.21a2.69,2.69,0,0,1,2.78,2.58h0a2.69,2.69,0,0,1-2.78,2.59H75a2.68,2.68,0,0,1-2.77-2.59h0A2.68,2.68,0,0,1,75,107.11Z"/><path class="cls-5" d="M74.4,117.44H91.52A2.4,2.4,0,0,1,93.66,120h0a2.4,2.4,0,0,1-2.14,2.58H74.4A2.39,2.39,0,0,1,72.26,120h0A2.39,2.39,0,0,1,74.4,117.44Z"/><path class="cls-5" d="M74.84,127.5H95.5a2.57,2.57,0,0,1,2.58,2.58h0a2.58,2.58,0,0,1-2.58,2.58H74.84a2.58,2.58,0,0,1-2.58-2.58h0A2.57,2.57,0,0,1,74.84,127.5Z"/><path class="cls-5" d="M74.84,137.83h7.75a2.58,2.58,0,0,1,2.58,2.58h0A2.58,2.58,0,0,1,82.59,143H74.84a2.57,2.57,0,0,1-2.58-2.58h0A2.57,2.57,0,0,1,74.84,137.83Z"/><path class="cls-9" d="M103.77,43.77a18.42,18.42,0,1,0,13,31.44l-13-13Z"/><path class="cls-6" d="M120.15,43.3a18.41,18.41,0,0,0-13-5.4V56.32Z"/><path class="cls-8" d="M121,47.86l-13,13,13,13A18.4,18.4,0,0,0,121,47.86Z"/><path class="cls-10" d="M112.15,43.77h0a.86.86,0,0,1-.38-1.13l5.49-11a.84.84,0,0,1,.75-.46h5.86a.83.83,0,0,1,.83.83h0a.83.83,0,0,1-.83.84H119a.84.84,0,0,0-.75.46l-5,10A.84.84,0,0,1,112.15,43.77Z"/><path class="cls-10" d="M129.73,73.9h0a.83.83,0,0,1-.84-.83v-6.3a.84.84,0,0,0-.59-.8l-8.9-2.74a.84.84,0,0,1-.56-1h0a.84.84,0,0,1,1-.55l9.49,2.92a1.68,1.68,0,0,1,1.18,1.6v6.92A.83.83,0,0,1,129.73,73.9Z"/><path class="cls-10" d="M93.39,57.88l-6.82-8.33a1.64,1.64,0,0,1-.38-1.06V43.77a.84.84,0,0,1,.84-.84h0a.84.84,0,0,1,.84.84v4.42a.85.85,0,0,0,.18.53l6.63,8.1A.84.84,0,0,1,94.56,58h0A.83.83,0,0,1,93.39,57.88Z"/></g></g></svg>