<svg xmlns="http://www.w3.org/2000/svg" viewBox="0 0 165.2 153.01"><defs><style>.cls-1{fill:#b2550f;}</style></defs><title>icon-flip-card</title><g id="Layer_2" data-name="Layer 2"><g id="Layer_1-2" data-name="Layer 1"><path class="cls-1" d="M108.67,153H56.52A20.84,20.84,0,0,1,35.7,132.19V20.83A20.85,20.85,0,0,1,56.52,0h52.15A20.85,20.85,0,0,1,129.5,20.83V132.19A20.85,20.85,0,0,1,108.67,153ZM56.52,11a9.84,9.84,0,0,0-9.82,9.83V132.19A9.84,9.84,0,0,0,56.52,142h52.15a9.84,9.84,0,0,0,9.83-9.82V20.83A9.84,9.84,0,0,0,108.67,11Z"/><path class="cls-1" d="M74.19,108.56h-.14C38.38,107.3,0,97.47,0,78.83,0,68.66,11.87,60,33.42,54.51a4,4,0,0,1,2,7.75C15.18,67.44,8,74.42,8,78.83c0,9.37,26.65,20.34,66.33,21.73a4,4,0,0,1-.14,8Z"/><polygon class="cls-1" points="65.89 92.89 109.6 103.14 66.63 116.12 65.89 92.89"/><path class="cls-1" d="M124,104.83a4,4,0,0,1-.8-7.92c23.49-4.8,34-12.54,34-18.08,0-4.43-7.24-11.45-27.63-16.62a4,4,0,0,1,2-7.76C153.25,60,165.2,68.62,165.2,78.83c0,11.22-14.73,20.67-40.4,25.92A4.43,4.43,0,0,1,124,104.83Z"/></g></g></svg>