<svg xmlns="http://www.w3.org/2000/svg" viewBox="0 0 328.51 352.87"><defs><style>.cls-1{fill:#b2550f;}.cls-2{fill:#87c6c0;}.cls-2,.cls-3,.cls-4,.cls-5{stroke:#b2550f;stroke-linecap:round;stroke-linejoin:round;stroke-width:5.09px;}.cls-3{fill:#f05e23;}.cls-4{fill:#febf00;}.cls-5{fill:#ff8831;}.cls-6{fill:#fff;}</style></defs><title>img1</title><g id="Layer_2" data-name="Layer 2"><g id="Layer_1-2" data-name="Layer 1"><path class="cls-1" d="M2.26,131.16H133.43a2.27,2.27,0,0,1,2.26,2.27h0a2.26,2.26,0,0,1-2.26,2.26H2.26A2.26,2.26,0,0,1,0,133.43H0A2.27,2.27,0,0,1,2.26,131.16Z"/><path class="cls-2" d="M4.52,97.24H22.61v27.14H4.52Z"/><path class="cls-3" d="M31.66,70.11H49.75v54.27H31.66Z"/><path class="cls-4" d="M58.8,83.67H76.89v40.71H58.8Z"/><path class="cls-2" d="M85.94,47.49H104v76.89H85.94Z"/><path class="cls-5" d="M113.07,20.35h18.1v104h-18.1Z"/><path class="cls-1" d="M2.26,70.11h0a2.27,2.27,0,0,1,0-3.2L37.51,31.66a4.51,4.51,0,0,1,6.39,0L61.72,49.48a2.27,2.27,0,0,0,3.2,0L112.14,2.26a2.26,2.26,0,0,1,3.19,0h0a2.25,2.25,0,0,1,0,3.2L66.52,54.28a4.54,4.54,0,0,1-6.4,0L42.31,36.46a2.25,2.25,0,0,0-3.2,0L5.46,70.11A2.27,2.27,0,0,1,2.26,70.11Z"/><path class="cls-1" d="M115.34,13.57h0a2.26,2.26,0,0,1-2.26-2.26V6.78a2.26,2.26,0,0,0-2.26-2.26h-4.52A2.26,2.26,0,0,1,104,2.26h0A2.26,2.26,0,0,1,106.29,0h6.78a4.52,4.52,0,0,1,4.53,4.52v6.79A2.26,2.26,0,0,1,115.34,13.57Z"/><path class="cls-1" d="M2.26,0H29.4a2.26,2.26,0,0,1,2.26,2.26h0A2.26,2.26,0,0,1,29.4,4.52H2.26A2.26,2.26,0,0,1,0,2.26H0A2.26,2.26,0,0,1,2.26,0Z"/><path class="cls-1" d="M2.26,6.78H29.4a2.27,2.27,0,0,1,2.26,2.27h0a2.26,2.26,0,0,1-2.26,2.26H2.26A2.26,2.26,0,0,1,0,9.05H0A2.27,2.27,0,0,1,2.26,6.78Z"/><path class="cls-1" d="M2.26,13.57H29.4a2.26,2.26,0,0,1,2.26,2.26h0a2.26,2.26,0,0,1-2.26,2.26H2.26A2.26,2.26,0,0,1,0,15.83H0A2.26,2.26,0,0,1,2.26,13.57Z"/><path class="cls-1" d="M2.26,20.35H13.57a2.26,2.26,0,0,1,2.26,2.26h0a2.27,2.27,0,0,1-2.26,2.27H2.26A2.27,2.27,0,0,1,0,22.61H0A2.26,2.26,0,0,1,2.26,20.35Z"/><path class="cls-3" d="M76.89,211.44,57,251.18H96.76Z"/><path class="cls-4" d="M96.76,251.18H57L41.83,281.56H112Z"/><path class="cls-2" d="M112,281.56H41.83L25.47,314.29H128.31Z"/><path class="cls-5" d="M128.31,314.29H25.47L9.1,347H144.68Z"/><path class="cls-1" d="M20.79,218.45h14a2.33,2.33,0,0,1,2.33,2.34h0a2.33,2.33,0,0,1-2.33,2.34h-14a2.34,2.34,0,0,1-2.34-2.34h0A2.34,2.34,0,0,1,20.79,218.45Z"/><path class="cls-1" d="M20.79,227.8h14a2.33,2.33,0,0,1,2.33,2.34h0a2.33,2.33,0,0,1-2.33,2.34h-14a2.34,2.34,0,0,1-2.34-2.34h0A2.34,2.34,0,0,1,20.79,227.8Z"/><path class="cls-1" d="M20.79,237.15h14a2.33,2.33,0,0,1,2.33,2.34h0a2.33,2.33,0,0,1-2.33,2.34h-14a2.34,2.34,0,0,1-2.34-2.34h0A2.34,2.34,0,0,1,20.79,237.15Z"/><path class="cls-1" d="M123.64,258.19h11.69a2.33,2.33,0,0,1,2.33,2.34h0a2.33,2.33,0,0,1-2.33,2.33H123.64a2.33,2.33,0,0,1-2.34-2.33h0A2.34,2.34,0,0,1,123.64,258.19Z"/><path class="cls-1" d="M123.64,267.54h11.69a2.33,2.33,0,0,1,2.33,2.34h0a2.33,2.33,0,0,1-2.33,2.33H123.64a2.33,2.33,0,0,1-2.34-2.33h0A2.34,2.34,0,0,1,123.64,267.54Z"/><path class="cls-5" d="M249.23,161.36a36.5,36.5,0,1,1,0-73V58.72a66.15,66.15,0,1,0,21.45,128.72l-9.63-28.07a36.26,36.26,0,0,1-11.82,2Z"/><path class="cls-2" d="M285.72,124.87h29.66a66.15,66.15,0,0,0-66.15-66.15V88.37A36.5,36.5,0,0,1,285.72,124.87Z"/><path class="cls-4" d="M275,150.67l21,21a65.92,65.92,0,0,0,19.38-46.77H285.72A36.34,36.34,0,0,1,275,150.67Z"/><path class="cls-3" d="M275,150.67a36.54,36.54,0,0,1-14,8.7l9.62,28.07A66.18,66.18,0,0,0,296,171.64Z"/><path class="cls-1" d="M185.36,58.72h13.69A2.28,2.28,0,0,1,201.33,61h0a2.28,2.28,0,0,1-2.28,2.28H185.36A2.28,2.28,0,0,1,183.08,61h0A2.28,2.28,0,0,1,185.36,58.72Z"/><path class="cls-1" d="M185.36,67.84h13.69a2.29,2.29,0,0,1,2.28,2.28h0a2.29,2.29,0,0,1-2.28,2.29H185.36a2.29,2.29,0,0,1-2.28-2.29h0A2.29,2.29,0,0,1,185.36,67.84Z"/><path class="cls-1" d="M315.38,61h0a2.28,2.28,0,0,1-2.28,2.28h-16A2.28,2.28,0,0,1,294.85,61h0a2.28,2.28,0,0,1,2.28-2.28h16A2.28,2.28,0,0,1,315.38,61Z"/><path class="cls-1" d="M274.32,108.9h0a2.28,2.28,0,0,1-2.28,2.28h-16a2.28,2.28,0,0,1-2.28-2.28h0a2.28,2.28,0,0,1,2.28-2.28h16A2.28,2.28,0,0,1,274.32,108.9Z"/><path class="cls-1" d="M274.32,118h0a2.29,2.29,0,0,1-2.28,2.28h-16a2.29,2.29,0,0,1-2.28-2.29h0a2.29,2.29,0,0,1,2.28-2.28h16A2.29,2.29,0,0,1,274.32,118Z"/><path class="cls-1" d="M274.32,127.15h0a2.28,2.28,0,0,1-2.28,2.28h-16a2.28,2.28,0,0,1-2.28-2.28h0a2.28,2.28,0,0,1,2.28-2.28h16A2.28,2.28,0,0,1,274.32,127.15Z"/><path class="cls-1" d="M202.5,188.73H185.36a2.27,2.27,0,0,1-2.28-2.27h0a2.28,2.28,0,0,1,2.28-2.28h16a2.27,2.27,0,0,0,1.8-.88l14.6-18.76a2.28,2.28,0,0,1,3.19-.4h0a2.26,2.26,0,0,1,.4,3.19L206.1,187A4.58,4.58,0,0,1,202.5,188.73Z"/><path class="cls-1" d="M220.47,170.4a4.56,4.56,0,1,1,3.58-3.58A4.57,4.57,0,0,1,220.47,170.4Z"/><circle class="cls-2" cx="144.58" cy="175.92" r="76.74"/><path class="cls-6" d="M180.86,162a7,7,0,0,1-6-3.49,35,35,0,0,0-4.22-5.82,7,7,0,0,1,10.39-9.3,48.19,48.19,0,0,1,5.9,8.13,7,7,0,0,1-6,10.48Z"/><path class="cls-3" d="M300.15,345.9a15.21,15.21,0,0,0,10.68,4.43,9.32,9.32,0,0,0,1.18-.05,15.14,15.14,0,0,0,9.53-25.79l-92.77-92.76-21.4,21.4,92.78,92.79"/><path class="cls-3" d="M144.58,71.28A104.65,104.65,0,1,0,249.23,175.92,104.64,104.64,0,0,0,144.58,71.28Zm0,181.38a76.74,76.74,0,1,1,76.74-76.74A76.74,76.74,0,0,1,144.58,252.66Z"/><path class="cls-6" d="M102.72,182.9a7,7,0,0,1-7-7,48.89,48.89,0,0,1,48.83-48.83,7,7,0,1,1,0,13.95,34.92,34.92,0,0,0-34.88,34.88A7,7,0,0,1,102.72,182.9Z"/></g></g></svg>