<svg xmlns="http://www.w3.org/2000/svg" viewBox="0 0 311.41 308.82"><defs><style>.cls-1{fill:#87c6c0;}.cls-1,.cls-2,.cls-3,.cls-4{stroke:#b2550f;stroke-linecap:round;stroke-linejoin:round;stroke-width:5.09px;}.cls-2{fill:#febf00;}.cls-3{fill:#ff8831;}.cls-4{fill:#f05e23;}.cls-5{fill:#71c285;stroke:#000;stroke-miterlimit:10;stroke-width:5px;}</style></defs><title>img2</title><g id="Layer_2" data-name="Layer 2"><g id="Layer_1-2" data-name="Layer 1"><path class="cls-1" d="M12.93,49.27H23.31a5.19,5.19,0,0,1,5.19,5.19v109H7.74v-109A5.19,5.19,0,0,1,12.93,49.27Z"/><path class="cls-2" d="M54.46,2.54H64.85A5.19,5.19,0,0,1,70,7.74V163.49H49.27V7.74A5.2,5.2,0,0,1,54.46,2.54Z"/><path class="cls-3" d="M96,80.42h10.38a5.2,5.2,0,0,1,5.2,5.2v77.87H90.81V85.62A5.19,5.19,0,0,1,96,80.42Z"/><path class="cls-4" d="M163.49,218a5.17,5.17,0,0,1-3.47-1.33l-50.44-48H7.74a5.2,5.2,0,1,1,0-10.39H111.58a5.2,5.2,0,0,1,3.47,1.34L167,209a5.19,5.19,0,0,1-3.48,9Z"/><path class="cls-4" d="M106.38,264.74a5.2,5.2,0,0,1-3.24-9.25l57.11-46.72a5.19,5.19,0,0,1,6.49,8.1L109.63,263.6A5.19,5.19,0,0,1,106.38,264.74Z"/><path class="cls-4" d="M220.6,106.38h26a41.54,41.54,0,0,1,41.54,41.54v98.64a36.38,36.38,0,0,1-36.34,36.35l20.77,10.38,23.25-10.38a56.88,56.88,0,0,0,13.09-36.35V147.92a62.29,62.29,0,0,0-62.31-62.3h-26Z"/><path class="cls-4" d="M215.41,246.56v-26H194.65v26a56.83,56.83,0,0,0,13.09,36.35l18.06,10.38,26-10.38A36.39,36.39,0,0,1,215.41,246.56Z"/><path class="cls-3" d="M194.65,2.54h20.76a5.19,5.19,0,0,1,5.19,5.2V33.69H189.45V7.74A5.2,5.2,0,0,1,194.65,2.54Z"/><path class="cls-3" d="M189.45,147.92H220.6v36.34a5.19,5.19,0,0,1-5.19,5.19H194.65a5.19,5.19,0,0,1-5.2-5.19Z"/><path class="cls-5" d="M111.58,254.35a51.92,51.92,0,1,1-51.92-51.92A51.92,51.92,0,0,1,111.58,254.35Z"/><path class="cls-4" d="M184.26,23.31H225.8A5.19,5.19,0,0,1,231,28.5V153.11a5.19,5.19,0,0,1-5.19,5.19H184.26a5.19,5.19,0,0,1-5.19-5.19V28.5A5.2,5.2,0,0,1,184.26,23.31Z"/><path class="cls-3" d="M161.38,205.8h80a5.19,5.19,0,0,1,5.19,5.19V225.8a5.19,5.19,0,0,1-5.19,5.19h-80a5.19,5.19,0,0,1-5.19-5.19V211A5.19,5.19,0,0,1,161.38,205.8Z"/><path class="cls-3" d="M179.07,132.34H231v10.39H179.07Z"/><path class="cls-3" d="M205,282.91h93.46a10.39,10.39,0,0,1,0,20.77H205a10.39,10.39,0,0,1,0-20.77Z"/><path class="cls-1" d="M59.66,202.43v51.92L23,291.06a51.92,51.92,0,0,1,36.71-88.63Z"/><path class="cls-3" d="M111.58,254.35H59.66V202.43A52,52,0,0,1,111.58,254.35Z"/><path class="cls-2" d="M111.58,254.35A51.92,51.92,0,0,1,23,291.06l36.71-36.71Z"/></g></g></svg>