<svg xmlns="http://www.w3.org/2000/svg" viewBox="0 0 331.71 331.71"><defs><style>.cls-1{fill:#f05e23;}.cls-1,.cls-2,.cls-3,.cls-4,.cls-5{stroke:#b2550f;stroke-linecap:round;stroke-linejoin:round;}.cls-1,.cls-3,.cls-4,.cls-5{stroke-width:5.09px;}.cls-2{fill:#ffaf5e;stroke-width:5px;}.cls-3{fill:#ff8831;}.cls-4{fill:#87c6c0;}.cls-5{fill:#febf00;}</style></defs><title>img3</title><g id="Layer_2" data-name="Layer 2"><g id="Layer_1-2" data-name="Layer 1"><path class="cls-1" d="M87,306.64A33.79,33.79,0,0,1,55.2,284.11L42,278.48l-10.12,5.63A56.09,56.09,0,0,0,42,306.64l16.83,5.63Z"/><path class="cls-2" d="M143.33,250.33h88.11L301,180.76V8.18a5.64,5.64,0,0,0-5.63-5.64H137.7a5.64,5.64,0,0,0-5.63,5.64V121.4Z"/><path class="cls-3" d="M132.07,194h45.05v22.53H132.07Z"/><path class="cls-4" d="M329.17,222.17c0,6.87-12.21,11.27-14.68,17.24-2.57,6.2,2.85,17.91-1.82,22.58s-16.38-.75-22.58,1.81c-6,2.48-10.37,14.68-17.24,14.68s-11.27-12.2-17.24-14.68c-6.2-2.56-17.91,2.86-22.58-1.81s.75-16.38-1.81-22.58c-2.48-6-14.68-10.37-14.68-17.24s12.2-11.27,14.68-17.24c2.56-6.2-2.86-17.91,1.81-22.58s16.38.75,22.58-1.82c6-2.47,10.37-14.68,17.24-14.68s11.27,12.21,17.24,14.68c6.2,2.57,17.91-2.85,22.58,1.82s-.75,16.38,1.82,22.58C317,210.9,329.17,215.3,329.17,222.17Z"/><path class="cls-5" d="M295.38,222.17a22.53,22.53,0,1,1-22.53-22.53A22.53,22.53,0,0,1,295.38,222.17Z"/><path class="cls-5" d="M304.57,263.91a38.33,38.33,0,0,0-14.48-.11c-5.84,2.42-10.18,14.14-16.79,14.66L285,327.19a2.57,2.57,0,0,0,4.39,1.15l7.21-9.73a5.61,5.61,0,0,1,7-1.68l10.83,5.41a2.57,2.57,0,0,0,3.39-3Z"/><path class="cls-5" d="M255.61,263.8a38.33,38.33,0,0,0-14.48.11l-13.26,55.42a2.58,2.58,0,0,0,3.4,3l10.83-5.41a5.62,5.62,0,0,1,7,1.68l7.2,9.73a2.58,2.58,0,0,0,4.4-1.15l11.67-48.73C265.8,277.94,261.45,266.22,255.61,263.8Z"/><path class="cls-3" d="M25.07,194H58.86v39.42a5.63,5.63,0,0,1-5.63,5.63H30.7a5.63,5.63,0,0,1-5.63-5.63Z"/><path class="cls-3" d="M25.07,2.54H58.86a5.64,5.64,0,0,1,5.63,5.64V47.6h-45V8.18A5.64,5.64,0,0,1,25.07,2.54Z"/><path class="cls-3" d="M8.18,261.59H75.75a5.63,5.63,0,0,1,5.63,5.63v11.26a5.63,5.63,0,0,1-5.63,5.63H8.18a5.64,5.64,0,0,1-5.64-5.63V267.22A5.64,5.64,0,0,1,8.18,261.59Z"/><path class="cls-1" d="M103.91,109.54H87v22.53h16.89A16.89,16.89,0,0,1,120.8,149V272.85A33.82,33.82,0,0,1,87,306.64l28.15,11.26L132,306.64a55.94,55.94,0,0,0,11.37-33.79V149A39.42,39.42,0,0,0,103.91,109.54Z"/><path class="cls-3" d="M64.49,87H87A11.26,11.26,0,0,1,98.28,98.28v45.05A11.26,11.26,0,0,1,87,154.59H64.49Z"/><path class="cls-1" d="M177.12,177.12a11.26,11.26,0,0,1,11.26,11.26v33.79a11.27,11.27,0,0,1-22.53,0V188.38A11.27,11.27,0,0,1,177.12,177.12Z"/><path class="cls-4" d="M160.22,25.07H272.85a5.63,5.63,0,0,1,5.63,5.63V42a5.64,5.64,0,0,1-5.63,5.64H160.22A5.64,5.64,0,0,1,154.59,42V30.7A5.63,5.63,0,0,1,160.22,25.07Z"/><path class="cls-1" d="M250.33,75.75H154.59a5.63,5.63,0,1,1,0-11.26h95.74a5.63,5.63,0,0,1,0,11.26Z"/><path class="cls-1" d="M177.12,98.28H154.59a5.63,5.63,0,1,1,0-11.26h22.53a5.63,5.63,0,0,1,0,11.26Z"/><path class="cls-1" d="M250.33,120.8H154.59a5.63,5.63,0,0,1,0-11.26h95.74a5.63,5.63,0,0,1,0,11.26Z"/><path class="cls-1" d="M278.48,143.33H165.85a5.63,5.63,0,1,1,0-11.26H278.48a5.63,5.63,0,0,1,0,11.26Z"/><path class="cls-1" d="M250.33,165.85H199.64a5.63,5.63,0,0,1,0-11.26h50.69a5.63,5.63,0,0,1,0,11.26Z"/><path class="cls-1" d="M13.81,36.33H70.12A5.63,5.63,0,0,1,75.75,42V199.64a5.63,5.63,0,0,1-5.63,5.63H13.81a5.63,5.63,0,0,1-5.63-5.63V42A5.63,5.63,0,0,1,13.81,36.33Z"/><path class="cls-3" d="M8.18,165.85H75.75v11.27H8.18Z"/><path class="cls-3" d="M25.07,306.64H149a5.63,5.63,0,0,1,5.63,5.63v11.26a5.64,5.64,0,0,1-5.63,5.64H25.07a5.64,5.64,0,0,1-5.63-5.64V312.27A5.63,5.63,0,0,1,25.07,306.64Z"/></g></g></svg>