<svg xmlns="http://www.w3.org/2000/svg" viewBox="0 0 200 200"><defs><style>.cls-1{fill:#ffaf5e;}.cls-2{fill:#b2550f;}.cls-3{fill:#f05e23;}.cls-4{fill:none;}.cls-5{fill:#fff;}</style></defs><title>privacidade</title><g id="Layer_2" data-name="Layer 2"><g id="Layer_1-2" data-name="Layer 1"><path class="cls-1" d="M200,0H27.09A27,27,0,0,0,14.15,3.28L37.93,200H200V0Z"/><polygon class="cls-2" points="168.4 0 0 0 0 0 0 152.16 168.4 0"/><path class="cls-3" d="M15.18,0H0V200H140.76Z"/><rect class="cls-4" width="200" height="200"/><path class="cls-5" d="M158.59,135.24a9,9,0,0,0-8.55,6.32h-5.18l-9.16-9.16a108.29,108.29,0,0,0,12-9.24,133.51,133.51,0,0,0,14.15-14.62c1.85-2.24,3.13-3.94,3.88-5,1.6-2.22,1.81-2.73,1.81-3.56s-.24-1.33-1.82-3.5c-.76-1-2.05-2.74-3.87-4.93A137.23,137.23,0,0,0,147.7,76.94a99.26,99.26,0,0,0-21.14-14.63c-8.92-4.47-17.79-6.74-26.36-6.74-11.85,0-22.87,4.33-32.16,9.92l-10-10a2.67,2.67,0,0,0-1.86-.77H50A8.94,8.94,0,1,0,50,60h5.18l8.37,8.38a108.65,108.65,0,0,0-10.8,8.44A133.51,133.51,0,0,0,38.56,91.46c-1.85,2.24-3.13,3.94-3.88,5-1.6,2.22-1.81,2.73-1.81,3.56s.24,1.33,1.82,3.5c.76,1,2.05,2.74,3.87,4.93a136.51,136.51,0,0,0,14.15,14.63,99,99,0,0,0,21.13,14.63c8.92,4.47,17.79,6.74,26.36,6.74,11.33,0,21.89-4,30.91-9.18l10.8,10.8a2.63,2.63,0,0,0,1.86.77H150a8.94,8.94,0,1,0,8.55-11.58ZM41.41,61.07a3.68,3.68,0,1,1,3.68-3.68A3.68,3.68,0,0,1,41.41,61.07Zm58.79,78.1c-17.31,0-33-10.46-43.09-19.24a125.38,125.38,0,0,1-18.48-20A120.5,120.5,0,0,1,57.19,79.91c10.07-8.71,25.71-19.08,43-19.08s33,10.46,43.09,19.24a126,126,0,0,1,18.49,20,121.52,121.52,0,0,1-18.57,20.07C133.14,128.8,117.5,139.17,100.2,139.17Zm58.39,8.7a3.69,3.69,0,1,1,3.68-3.68A3.69,3.69,0,0,1,158.59,147.87Z"/><path class="cls-5" d="M133,39h-15.8a2.67,2.67,0,0,0-1.86.77L109,46.06a2.63,2.63,0,0,0,0,3.72,2.63,2.63,0,0,0,3.72,0l5.54-5.54H133A2.63,2.63,0,0,0,133,39Z"/><path class="cls-5" d="M144.4,39.75a2.62,2.62,0,0,0-3.71,0,2.61,2.61,0,0,0,0,3.72,2.62,2.62,0,0,0,3.71,0,2.63,2.63,0,0,0,0-3.72Z"/><path class="cls-5" d="M91.4,150.22a2.63,2.63,0,0,0-3.72,0l-5.54,5.54H50.35a8.94,8.94,0,1,0,0,5.26H83.23a2.63,2.63,0,0,0,1.86-.77l6.31-6.31A2.63,2.63,0,0,0,91.4,150.22ZM41.8,162.07a3.68,3.68,0,1,1,3.69-3.68A3.68,3.68,0,0,1,41.8,162.07Z"/><path class="cls-5" d="M111.28,91.92V90a11.07,11.07,0,1,0-22.14,0v1.88a5.45,5.45,0,0,0-5.24,5.44v7.35a16.31,16.31,0,0,0,32.62,0V97.36A5.45,5.45,0,0,0,111.28,91.92ZM94.4,90A5.81,5.81,0,0,1,106,90v1.87H94.4V90Zm16.86,14.67a11.05,11.05,0,0,1-22.1,0V97.36a.19.19,0,0,1,.19-.19h21.72a.19.19,0,0,1,.19.19v7.35Z"/><path class="cls-5" d="M100.21,101.39A2.63,2.63,0,0,0,97.58,104v2.44a2.63,2.63,0,0,0,5.26,0V104A2.63,2.63,0,0,0,100.21,101.39Z"/><path class="cls-5" d="M123.64,76.56a33.17,33.17,0,0,0-46.86,0A32.81,32.81,0,0,0,67.39,95.4,33.36,33.36,0,0,0,71,115.7a2.63,2.63,0,1,0,4.63-2.49A27.88,27.88,0,1,1,87,124.55a2.63,2.63,0,0,0-2.49,4.63,33.39,33.39,0,0,0,15.76,3.95,33.13,33.13,0,0,0,23.38-9.71A33.17,33.17,0,0,0,123.64,76.56Z"/><path class="cls-5" d="M80.5,119.7a2.64,2.64,0,0,0-3.72,0l0,0a2.63,2.63,0,0,0,0,3.72,2.63,2.63,0,0,0,3.72,0l0,0A2.64,2.64,0,0,0,80.5,119.7Z"/><path class="cls-5" d="M158.59,32.67a8.94,8.94,0,1,0,8.94,8.94A8.95,8.95,0,0,0,158.59,32.67Zm0,12.62a3.68,3.68,0,1,1,3.68-3.68A3.68,3.68,0,0,1,158.59,45.29Z"/></g></g></svg>