<svg xmlns="http://www.w3.org/2000/svg" viewBox="0 0 200 200"><defs><style>.cls-1{fill:#f05e23;}.cls-2{fill:#ffaf5e;}.cls-3{fill:#b2550f;}.cls-4{fill:none;}.cls-5{fill:#fff;}</style></defs><title>propriedade</title><g id="Layer_2" data-name="Layer 2"><g id="Layer_1-2" data-name="Layer 1"><path class="cls-1" d="M200,0H27.09A27,27,0,0,0,14.15,3.28L37.93,200H200V0Z"/><polygon class="cls-2" points="168.4 0 0 0 0 152.16 168.4 0"/><path class="cls-3" d="M15.39,0H0V200H140.76Z"/><rect class="cls-4" width="200" height="200" rx="27.09"/><path class="cls-5" d="M140.38,77.37A40.37,40.37,0,1,0,69.9,104.26,46.6,46.6,0,0,1,79.55,121a2.93,2.93,0,0,0,1.11,5.65H81a43.63,43.63,0,0,1,.71,7.81v6.76A18.34,18.34,0,0,0,97.07,159.3v2.15a2.94,2.94,0,0,0,5.88,0V159.3a18.34,18.34,0,0,0,15.37-18.08v-6.76a44.47,44.47,0,0,1,.7-7.81h.17A2.93,2.93,0,0,0,120.4,121a44.68,44.68,0,0,1,9.51-16.55A40.28,40.28,0,0,0,140.38,77.37Zm-27.93,63.85a12.44,12.44,0,1,1-24.88,0v-3.14h24.88v3.14Zm.06-9h-25a51.84,51.84,0,0,0-.57-5.56h26.12A51.81,51.81,0,0,0,112.51,132.21ZM96.36,120.78v-6a3.65,3.65,0,0,1,7.3,0v6Zm18,0h-4.82v-6a9.46,9.46,0,0,0-2.45-6.38l7.39-13.8a2.94,2.94,0,0,0-5.18-2.77L102,105.42a10.1,10.1,0,0,0-2-.2,9.33,9.33,0,0,0-1.92.19L90.8,91.79a2.93,2.93,0,1,0-5.17,2.77L93,108.31a9.49,9.49,0,0,0-2.51,6.43v6H85.63a52.47,52.47,0,0,0-11.35-20.43,34.5,34.5,0,1,1,51.28.19A50.63,50.63,0,0,0,114.35,120.78Z"/><path class="cls-5" d="M116.3,74.73a2.93,2.93,0,0,0-2.93,2.93,2.5,2.5,0,0,1-5,0,2.94,2.94,0,0,0-5.87,0,2.5,2.5,0,1,1-5,0,2.94,2.94,0,0,0-5.87,0,2.5,2.5,0,1,1-5,0,2.94,2.94,0,0,0-5.88,0A8.37,8.37,0,0,0,94.57,84a8.38,8.38,0,0,0,10.87,0,8.37,8.37,0,0,0,13.8-6.37A2.94,2.94,0,0,0,116.3,74.73Z"/></g></g></svg>