<svg xmlns="http://www.w3.org/2000/svg" viewBox="0 0 191.02 176.13"><defs><style>.cls-1{fill:none;stroke-miterlimit:10;stroke-width:1.63px;stroke-dasharray:3.26 6.52;}.cls-1,.cls-10,.cls-11,.cls-12,.cls-13,.cls-14,.cls-15,.cls-3,.cls-5,.cls-6,.cls-7,.cls-8,.cls-9{stroke:#b2550f;stroke-linecap:round;}.cls-2{fill:#fff;}.cls-3{fill:#ffaf5e;stroke-width:5px;}.cls-10,.cls-11,.cls-12,.cls-13,.cls-14,.cls-15,.cls-3,.cls-5,.cls-6,.cls-7,.cls-8,.cls-9{stroke-linejoin:round;}.cls-4{fill:#b2550f;}.cls-10,.cls-12,.cls-5{fill:#87c6c0;}.cls-5,.cls-6,.cls-7{stroke-width:1.88px;}.cls-13,.cls-6,.cls-8{fill:#f05e23;}.cls-14,.cls-7,.cls-9{fill:#febf00;}.cls-10,.cls-11,.cls-8,.cls-9{stroke-width:2px;}.cls-11,.cls-15{fill:#ff8831;}.cls-12,.cls-13,.cls-14,.cls-15{stroke-width:1.94px;}</style></defs><title>repositorio-de-dados</title><g id="Layer_2" data-name="Layer 2"><g id="Layer_1-2" data-name="Layer 1"><path class="cls-1" d="M88.6,134.22a56.91,56.91,0,1,1,9.3-92.4"/><path class="cls-1" d="M75,51.42a56.88,56.88,0,1,1,71.4,61.2"/><path class="cls-1" d="M153.5,60a60,60,0,1,1-80.1,74.8"/><polygon class="cls-2" points="35.2 18.09 43.9 16.69 35.2 15.29 33.9 6.69 32.5 15.29 23.8 16.69 32.5 18.09 33.9 26.69 35.2 18.09"/><polygon class="cls-2" points="148.11 155.19 152.61 154.39 148.11 153.69 147.31 149.19 146.61 153.69 142.01 154.39 146.61 155.19 147.31 159.69 148.11 155.19"/><polygon class="cls-2" points="11.4 135.31 20.1 133.91 11.4 132.51 10.1 123.92 8.7 132.51 0 133.91 8.7 135.31 10.1 143.91 11.4 135.31"/><polygon class="cls-2" points="24.6 99.92 29.6 99.11 24.6 98.42 23.8 93.42 23 98.42 18 99.11 23 99.92 23.8 104.92 24.6 99.92"/><polygon class="cls-2" points="185.2 13.14 190.2 12.34 185.2 11.64 184.4 6.64 183.6 11.64 178.6 12.34 183.6 13.14 184.4 18.14 185.2 13.14"/><rect class="cls-3" x="39.82" y="26.86" width="133.44" height="87.06" rx="8.27"/><rect class="cls-4" x="98.86" y="112.81" width="15.36" height="17.08"/><path class="cls-4" d="M53.32,89.83H90.39C92.94,89.83,95,91,95,92.42h0C95,93.84,92.94,95,90.39,95H53.32c-2.56,0-4.63-1.16-4.63-2.58h0C48.69,91,50.76,89.83,53.32,89.83Z"/><path class="cls-4" d="M135.07,89.83h9.56c.66,0,1.19,1.16,1.19,2.59h0c0,1.42-.53,2.58-1.19,2.58h-9.56c-.66,0-1.2-1.16-1.2-2.58h0C133.87,91,134.41,89.83,135.07,89.83Z"/><path class="cls-5" d="M153.79,89.83h9.56c.66,0,1.19,1.16,1.19,2.59h0c0,1.42-.53,2.58-1.19,2.58h-9.56c-.66,0-1.2-1.16-1.2-2.58h0C152.59,91,153.13,89.83,153.79,89.83Z"/><path class="cls-4" d="M112.48,89.83h13.61c.94,0,1.7,1.16,1.7,2.59h0c0,1.42-.76,2.58-1.7,2.58H112.48c-.94,0-1.7-1.16-1.7-2.58h0C110.78,91,111.54,89.83,112.48,89.83Z"/><path class="cls-4" d="M52.71,78.71H84.88c2.22,0,4,1.15,4,2.58h0c0,1.43-1.8,2.58-4,2.58H52.71c-2.22,0-4-1.15-4-2.58h0C48.69,79.86,50.49,78.71,52.71,78.71Z"/><path class="cls-4" d="M135.07,78.71h9.56c.66,0,1.19,1.15,1.19,2.58h0c0,1.43-.53,2.58-1.19,2.58h-9.56c-.66,0-1.2-1.15-1.2-2.58h0C133.87,79.86,134.41,78.71,135.07,78.71Z"/><path class="cls-6" d="M153.79,78.71h9.56c.66,0,1.19,1.15,1.19,2.58h0c0,1.43-.53,2.58-1.19,2.58h-9.56c-.66,0-1.2-1.15-1.2-2.58h0C152.59,79.86,153.13,78.71,153.79,78.71Z"/><path class="cls-4" d="M112.48,78.71h13.61c.94,0,1.7,1.15,1.7,2.58h0c0,1.43-.76,2.58-1.7,2.58H112.48c-.94,0-1.7-1.15-1.7-2.58h0C110.78,79.86,111.54,78.71,112.48,78.71Z"/><path class="cls-4" d="M51.46,99.83H73.65a2.68,2.68,0,0,1,2.77,2.59h0A2.68,2.68,0,0,1,73.65,105H51.46a2.68,2.68,0,0,1-2.77-2.58h0A2.68,2.68,0,0,1,51.46,99.83Z"/><path class="cls-4" d="M135.07,99.83h9.56c.66,0,1.19,1.16,1.19,2.59h0c0,1.42-.53,2.58-1.19,2.58h-9.56c-.66,0-1.2-1.16-1.2-2.58h0C133.87,101,134.41,99.83,135.07,99.83Z"/><path class="cls-7" d="M153.79,99.83h9.56c.66,0,1.19,1.16,1.19,2.59h0c0,1.42-.53,2.58-1.19,2.58h-9.56c-.66,0-1.2-1.16-1.2-2.58h0C152.59,101,153.13,99.83,153.79,99.83Z"/><path class="cls-4" d="M112.48,99.83h13.61c.94,0,1.7,1.16,1.7,2.59h0c0,1.42-.76,2.58-1.7,2.58H112.48c-.94,0-1.7-1.16-1.7-2.58h0C110.78,101,111.54,99.83,112.48,99.83Z"/><rect class="cls-4" x="39.82" y="129.89" width="133.44" height="6.61" rx="3.3"/><path class="cls-8" d="M147.31,35.71l-5,9.94h9.94Z"/><path class="cls-9" d="M152.28,45.65h-9.94l-3.8,7.61h17.55Z"/><path class="cls-10" d="M156.09,53.26H138.53l-4.09,8.19h25.74Z"/><path class="cls-11" d="M160.18,61.45H134.44l-4.1,8.19h33.94Z"/><path class="cls-4" d="M49.87,67.3h68.74a1.18,1.18,0,0,1,1.18,1.19h0a1.18,1.18,0,0,1-1.18,1.18H49.87a1.18,1.18,0,0,1-1.18-1.18h0A1.18,1.18,0,0,1,49.87,67.3Z"/><path class="cls-12" d="M51.06,56.2h9.48v7.55H51.06Z"/><path class="cls-13" d="M65.28,48.66h9.48V63.75H65.28Z"/><path class="cls-14" d="M79.5,52.43H89V63.75H79.5Z"/><path class="cls-12" d="M93.72,42.38h9.48V63.75H93.72Z"/><path class="cls-15" d="M107.94,34.84h9.48V63.75h-9.48Z"/></g></g></svg>