<svg xmlns="http://www.w3.org/2000/svg" viewBox="0 0 200 200"><defs><style>.cls-1{fill:#b2550f;}.cls-2{fill:#f05e23;}.cls-3{fill:#ffaf5e;}.cls-4{fill:none;}.cls-5{fill:#fff;}</style></defs><title>risco</title><g id="Layer_2" data-name="Layer 2"><g id="Layer_1-2" data-name="Layer 1"><path class="cls-1" d="M27.09,0A27,27,0,0,0,14.15,3.28L37.93,200H200V0Z"/><polygon class="cls-2" points="168.4 0 0 0 0 152.16 168.4 0"/><path class="cls-3" d="M15.44,0H0V200H140.76Z"/><path class="cls-4" d="M27.09,0H172.91A27.09,27.09,0,0,1,200,27.09V200a0,0,0,0,1,0,0H27.09A27.09,27.09,0,0,1,0,172.91V27.09A27.09,27.09,0,0,1,27.09,0Z"/><path class="cls-5" d="M167.14,143.75,110,44.74a11.51,11.51,0,0,0-19.94,0l-57.17,99a11.52,11.52,0,0,0,10,17.27H157.17a11.52,11.52,0,0,0,10-17.27Zm-3.49,9.5a7.4,7.4,0,0,1-6.48,3.75H42.83a7.5,7.5,0,0,1-6.48-11.24l57.17-99a7.48,7.48,0,0,1,13,0l57.17,99h0A7.43,7.43,0,0,1,163.65,153.25Z"/><path class="cls-5" d="M110.34,71.2a2,2,0,1,0-3.48,2l40.92,70.88H115.06a2,2,0,1,0,0,4h36.21a2,2,0,0,0,1.74-3Z"/><path class="cls-5" d="M84.94,144.09H52.22L100,61.33l2.33,4a2,2,0,0,0,3.49-2l-4.08-7.06a2,2,0,0,0-3.48,0L47,145.1a2,2,0,0,0,1.74,3H84.94a2,2,0,1,0,0-4Z"/><path class="cls-5" d="M100,133.33a8.47,8.47,0,1,0,8.47,8.47A8.48,8.48,0,0,0,100,133.33Zm0,12.91a4.44,4.44,0,1,1,4.44-4.44A4.44,4.44,0,0,1,100,146.24Z"/><path class="cls-5" d="M95.81,83.86a4.23,4.23,0,0,0-3,1.3,4.17,4.17,0,0,0-1.13,3.08l1.92,36.57a4.17,4.17,0,0,0,4.16,3.95h4.52a4.17,4.17,0,0,0,4.16-3.95l1.92-36.57a4.15,4.15,0,0,0-4.15-4.38ZM104.32,88,102.4,124.6a.13.13,0,0,1-.14.13H97.74a.14.14,0,0,1-.14-.13L95.68,88a.12.12,0,0,1,0-.1.14.14,0,0,1,.1,0h8.38a.14.14,0,0,1,.1,0A.12.12,0,0,1,104.32,88Z"/></g></g></svg>