<?xml version="1.0" encoding="utf-8"?>
<!-- Generator: Adobe Illustrator 24.0.0, SVG Export Plug-In . SVG Version: 6.00 Build 0)  -->
<svg version="1.1" id="fluxograma" xmlns="http://www.w3.org/2000/svg" xmlns:xlink="http://www.w3.org/1999/xlink" x="0px" y="0px"
	 viewBox="0 0 900 2642" style="enable-background:new 0 0 900 2642;" xml:space="preserve">
<style type="text/css">
	.st0{fill:#EFF5F5;}
	.st1{fill:#FFFFFF;}
	.st2{fill:#EF7216;}
	.st3{fill:none;stroke:#B6B9BA;stroke-miterlimit:10;}
	.st4{fill:#B6B9BA;}
	.st5{fill:none;}
	.st6{fill:#FFFAFA;}
	.st7{font-family:'Montserrat-Bold';}
	.st8{font-size:16px;}
	.st9{fill:#46BC93;}
	.st10{font-family:'Montserrat-Regular';}
	.st11{enable-background:new    ;}
	.st12{fill:#B2550F;}
	.st13{fill:#FFFFFF;stroke:#EF7216;stroke-width:2;stroke-miterlimit:10;}
</style>
<rect id="bg1" x="-0.1" y="-0.2" class="st0" width="899.9" height="2642.2"/>
<path class="st1" d="M483.7,240.3H116.3c-6.6,0-12-5.4-12-12V115.4c0-6.6,5.4-12,12-12h367.3c6.6,0,12,5.4,12,12v112.9
	C495.7,234.9,490.3,240.3,483.7,240.3z"/>
<path class="st1" d="M483.7,464.5H116.3c-6.6,0-12-5.4-12-12V339.7c0-6.6,5.4-12,12-12h367.3c6.6,0,12,5.4,12,12v112.9
	C495.7,459.1,490.3,464.5,483.7,464.5z"/>
<g id="inicio_1_">
	<path id="box-inicio" class="st2" d="M309.5,45.5h-51.3c-3.3,0-6-2.7-6-6v-16c0-3.3,2.7-6,6-6h51.3c3.3,0,6,2.7,6,6v16
		C315.5,42.8,312.8,45.5,309.5,45.5z"/>
	<g id="seta">
		<line id="linha" class="st3" x1="283.5" y1="45.9" x2="283.5" y2="84.9"/>
		<polygon id="triangulo" class="st4" points="283.3,88.4 287.9,80.3 278.7,80.3 		"/>
	</g>
	<rect x="255.7" y="22.9" class="st5" width="55" height="17.2"/>
	<text transform="matrix(1 0 0 1 256.2482 36.4941)" class="st6 st7 st8">INÍCIO</text>
</g>
<g id="inicio_2_">
	<path id="box-inicio_1_" class="st2" d="M309.5,2585h-51.3c-3.3,0-6-2.7-6-6v-16c0-3.3,2.7-6,6-6h51.3c3.3,0,6,2.7,6,6v16
		C315.5,2582.3,312.8,2585,309.5,2585z"/>
	<rect x="266.6" y="2562.1" class="st5" width="34.5" height="17.2"/>
	<text transform="matrix(1 0 0 1 268.4744 2575.7192)" class="st6 st7 st8">FIM</text>
</g>
<g>
	<g>
		<g>
			<path class="st9" d="M-230,26h-3.4c0.4-3.6,2.6-3.8,3.4-4c1,0,1.6-0.8,1.6-1.8v-5.3c0-0.4-0.2-1-0.6-1.4
				c-0.4-0.4-0.8-0.6-1.4-0.4c-5.7,0.4-12.5,3.2-12.5,15.1v9.3c0,1.6,1.2,2.8,2.8,2.8h9.7c1.6,0,2.8-1.2,2.8-2.8v-8.7
				C-227.2,27.2-228.6,26-230,26z M-230.8,36.7h-8.1v-8.5c0-8.3,3.8-10.5,7.1-11.3v2c-2.4,0.8-5.2,3-5.2,8.9c0,1,0.8,1.8,1.8,1.8
				h4.4C-230.8,29.6-230.8,36.7-230.8,36.7z"/>
		</g>
	</g>
	<g>
		<g>
			<path class="st9" d="M-211.8,26h-3.4c0.4-3.6,2.6-3.8,3.4-4c1,0,1.6-0.8,1.6-1.8v-5.3c0-0.4-0.2-1-0.6-1.4
				c-0.4-0.4-0.8-0.6-1.4-0.4c-5.7,0.4-12.5,3.2-12.5,15.1v9.3c0,1.6,1.2,2.8,2.8,2.8h9.7c1.6,0,2.8-1.2,2.8-2.8v-8.7
				C-208.8,27.2-210.2,26-211.8,26z M-212.4,36.7h-8.1v-8.5c0-8.3,3.8-10.5,7.1-11.3v2c-2.4,0.8-5.2,3-5.2,8.9c0,1,0.8,1.8,1.8,1.8
				h4.4V36.7L-212.4,36.7z"/>
		</g>
	</g>
	<g>
		<g>
			<path class="st9" d="M-201.1,27.6c-0.4-0.4-0.8-0.6-1.2-0.6s-1,0.2-1.2,0.6c-0.4,0.4-0.6,0.8-0.6,1.2c0,0.4,0.2,1,0.6,1.2
				c0.4,0.4,0.8,0.6,1.2,0.6s1-0.2,1.2-0.6c0.4-0.4,0.6-0.8,0.6-1.2C-200.5,28.4-200.7,28-201.1,27.6z"/>
		</g>
	</g>
	<g>
		<g>
			<path class="st9" d="M-192.2,27.2h-2.2c-1,0-1.8,0.8-1.8,1.8s0.8,1.8,1.8,1.8h2.2c15.7,0,28.3,12.7,28.3,28.3
				c0,13.3-9.5,25-22.6,27.7c-0.8,0.2-1.4,1-1.4,1.8v10.5L-199,88c-0.4-0.4-0.8-0.6-1.2-0.6h-20.2c-15.7,0-28.3-12.7-28.3-28.3
				c0-4.8,1.2-9.5,3.6-13.9c0.4-0.8,0.2-2-0.8-2.4c-0.8-0.4-2-0.2-2.4,0.8c-2.6,4.8-4,10.1-4,15.5c0,17.6,14.3,31.9,31.9,31.9h19.4
				l13.7,13.7c0.4,0.4,0.8,0.6,1.2,0.6c0.2,0,0.4,0,0.6-0.2c0.6-0.2,1.2-1,1.2-1.6V90.2c6.5-1.8,12.5-5.3,16.6-10.7
				c4.8-5.7,7.3-12.9,7.3-20.2C-160.3,41.5-174.5,27.2-192.2,27.2z"/>
		</g>
	</g>
	<g>
		<g>
			<path class="st9" d="M-184.2,45h-44.4c-1,0-1.8,0.8-1.8,1.8s0.8,1.8,1.8,1.8h44.4c1,0,1.8-0.8,1.8-1.8S-183.3,45-184.2,45z"/>
		</g>
	</g>
	<g>
		<g>
			<path class="st9" d="M-184.2,54.7h-44.4c-1,0-1.8,0.8-1.8,1.8s0.8,1.8,1.8,1.8h44.4c1,0,1.8-0.8,1.8-1.8
				C-182.5,55.5-183.3,54.7-184.2,54.7z"/>
		</g>
	</g>
	<g>
		<g>
			<path class="st9" d="M-184.2,64.3h-44.4c-1,0-1.8,0.8-1.8,1.8s0.8,1.8,1.8,1.8h44.4c1,0,1.8-0.8,1.8-1.8
				C-182.5,65-183.3,64.3-184.2,64.3z"/>
		</g>
	</g>
	<g>
		<g>
			<path class="st9" d="M-184.2,73.8h-23.6c-1,0-1.8,0.8-1.8,1.8s0.8,1.8,1.8,1.8h23.6c1,0,1.8-0.8,1.8-1.8S-183.3,73.8-184.2,73.8z
				"/>
		</g>
	</g>
	<g>
		<g>
			<path class="st9" d="M-217.9,73.8L-217.9,73.8c-1,0-1.8,0.8-1.8,1.8s0.8,1.8,1.8,1.8l0,0c1,0,1.8-0.8,1.8-1.8
				S-216.9,73.8-217.9,73.8z"/>
		</g>
	</g>
</g>
<rect x="258.9" y="150.7" class="st5" width="193.9" height="47"/>
<rect x="258.9" y="150.7" class="st5" width="197.1" height="17.8"/>
<text transform="matrix(1 0 0 1 258.8955 164.3155)" class="st10 st8">Autor submete o artigo </text>
<rect x="258.9" y="169.9" class="st5" width="193.8" height="17.8"/>
<text transform="matrix(1 0 0 1 258.8955 183.5156)" class="st10 st8">a revista de sua escolha</text>
<rect x="258.9" y="382.8" class="st5" width="193.9" height="47"/>
<rect x="258.9" y="382.8" class="st5" width="210" height="21.5"/>
<text transform="matrix(1 0 0 1 258.8955 396.4286)" class="st10 st8">Editor analisa artigo</text>
<path class="st1" d="M747,711.9H575.3c-6.6,0-12-5.4-12-12V544.1c0-6.6,5.4-12,12-12H747c6.6,0,12,5.4,12,12v155.8
	C759,706.5,753.6,711.9,747,711.9z"/>
<rect x="582" y="651.2" class="st5" width="166.1" height="46.4"/>
<rect x="592.5" y="651.2" class="st5" width="149.2" height="17.8"/>
<text transform="matrix(1 0 0 1 592.4911 664.8055)" class="st10 st8">Artigo é devolvido </text>
<rect x="631.7" y="670.4" class="st5" width="66.5" height="17.8"/>
<text transform="matrix(1 0 0 1 631.6911 684.0055)" class="st10 st8">ao </text>
<g id="seta_1_">
	<line id="linha_1_" class="st3" x1="287.1" y1="240" x2="287.1" y2="315.1"/>
	<polygon id="triangulo_1_" class="st4" points="286.9,318.6 291.5,310.5 282.2,310.5 	"/>
</g>
<g id="seta_6_">
	<line id="linha_6_" class="st3" x1="287.1" y1="990" x2="287.1" y2="1065.1"/>
	<polygon id="triangulo_6_" class="st4" points="286.9,1068.6 291.5,1060.5 282.2,1060.5 	"/>
</g>
<g>
	<g>
		<path class="st2" d="M200.7,366.1c-7,7-7,18.2,0,25.2c3.4,3.4,8,5.2,12.5,5.2s9.1-1.8,12.5-5.2c7-7,7-18.2,0-25.2
			C218.9,359.2,207.5,359.2,200.7,366.1z M223.9,389.5c-5.9,5.9-15.5,5.9-21.4,0s-5.9-15.5,0-21.4c3-3,6.8-4.5,10.7-4.5
			s7.9,1.4,10.7,4.5C229.8,373.8,229.8,383.4,223.9,389.5z"/>
		<path class="st2" d="M201.6,382.3c0.7-0.2,1.1-0.9,1.1-1.6c-0.2-0.7-0.2-1.4-0.2-2.1s-0.5-1.2-1.2-1.2s-1.2,0.5-1.2,1.2
			c0,0.9,0.2,1.8,0.4,2.7C200.5,381.8,201.1,382.3,201.6,382.3C201.4,382.3,201.6,382.3,201.6,382.3z"/>
		<path class="st2" d="M213.2,389.5c-3.9,0-7.5-2.1-9.5-5.5c-0.4-0.5-1.1-0.9-1.8-0.5c-0.5,0.4-0.9,1.1-0.5,1.8
			c2.3,4.3,6.8,7,11.6,7c0.7,0,1.2-0.5,1.2-1.2S213.9,389.5,213.2,389.5z"/>
		<path class="st2" d="M223.7,376.5c0.2,0.7,0.2,1.4,0.2,2.1s0.5,1.2,1.2,1.2s1.2-0.5,1.2-1.2c0-0.9-0.2-1.8-0.4-2.7
			c-0.2-0.7-0.9-1.1-1.6-1.1C224.1,375.2,223.5,375.7,223.7,376.5z"/>
		<path class="st2" d="M212,366.6c0,0.7,0.5,1.2,1.2,1.2c3.7,0,7.1,2,9.3,5.2c0.2,0.4,0.7,0.5,1.1,0.5c0.2,0,0.5,0,0.7-0.2
			c0.5-0.4,0.7-1.2,0.4-1.8c-2.5-3.9-6.8-6.4-11.4-6.4C212.5,365.4,212,365.9,212,366.6z"/>
		<path class="st2" d="M246.6,406.1L232,391.5c6.1-8.7,5-20.9-2.7-28.7c-1.1-1.1-2.1-2-3.4-2.9v-13.2c0-0.7-0.5-1.2-1.2-1.2h-72.3
			c-0.7,0-1.2,0.5-1.2,1.2v98.9c0,0.7,0.5,1.2,1.2,1.2h72.1c0.7,0,1.2-0.5,1.2-1.2v-48.2c0,0,0.2,0,0.2-0.2l14.6,14.6
			c0.9,0.9,2,1.2,3,1.2c1.1,0,2.1-0.4,3-1.2c0.7-0.7,1.2-1.8,1.2-3C247.8,407.9,247.5,406.8,246.6,406.1z M227.3,392.9
			c-3.7,3.7-8.7,5.9-14.1,5.9s-10.3-2.1-14.1-5.9c-3.7-3.7-5.9-8.7-5.9-14.1s2.1-10.3,5.9-14.1c3.7-3.7,8.7-5.9,14.1-5.9
			s10.3,2.1,14.1,5.9C235.1,372.4,235.1,385,227.3,392.9z M223.2,444.3h-69.4v-96.4h69.4v10.3c-3-1.4-6.4-2.3-10-2.3
			c-2.5,0-4.8,0.4-7.1,1.1h-3.9c-0.7,0-1.2,0.5-1.2,1.2c0,0.4,0.2,0.7,0.5,1.1c-1.4,0.9-2.7,2-3.9,3.2c-0.4,0.4-0.7,0.9-1.2,1.2
			c0-0.2,0-0.2,0-0.4c0-0.7-0.5-1.2-1.2-1.2h-14.1c-0.7,0-1.2,0.5-1.2,1.2s0.5,1.2,1.2,1.2H195c0.2,0,0.4,0,0.7-0.2
			c-0.7,0.9-1.2,1.8-1.8,2.7h-12.8c-0.7,0-1.2,0.5-1.2,1.2s0.5,1.2,1.2,1.2h11.4c-0.4,0.7-0.7,1.6-0.9,2.5h-10.5
			c-0.7,0-1.2,0.5-1.2,1.2s0.5,1.2,1.2,1.2h10c-0.2,0.9-0.2,1.6-0.4,2.5h-9.6c-0.7,0-1.2,0.5-1.2,1.2s0.5,1.2,1.2,1.2h9.6
			c0,0.9,0.2,1.6,0.2,2.5h-9.8c-0.7,0-1.2,0.5-1.2,1.2s0.5,1.2,1.2,1.2h10.5c0.2,0.9,0.5,1.6,0.9,2.5h-11.4c-0.7,0-1.2,0.5-1.2,1.2
			s0.5,1.2,1.2,1.2h12.7c0.5,0.9,1.1,1.8,1.8,2.5c-0.2,0-0.4-0.2-0.5-0.2h-13.9c-0.7,0-1.2,0.5-1.2,1.2s0.5,1.2,1.2,1.2h13.9
			c0.7,0,1.2-0.5,1.2-1.2c0-0.2,0-0.2,0-0.4c0.4,0.4,0.7,0.9,1.1,1.2c1.2,1.2,2.5,2.3,3.9,3.2c-0.2,0.2-0.4,0.5-0.4,0.9
			c0,0.7,0.5,1.2,1.2,1.2h3.7c2.3,0.9,4.8,1.2,7.5,1.2c3.6,0,7-0.7,10-2.3L223.2,444.3L223.2,444.3z M244.8,410.2
			c-0.7,0.7-1.8,0.7-2.3,0L228,395.7c0.4-0.4,0.9-0.7,1.2-1.1c0.4-0.4,0.7-0.9,1.1-1.2l14.5,14.5c0.4,0.4,0.5,0.7,0.5,1.2
			C245.3,409.5,245.1,409.8,244.8,410.2z"/>
		<path class="st2" d="M173.8,352.2h-13.9c-0.7,0-1.2,0.5-1.2,1.2v20.2c0,0.7,0.5,1.2,1.2,1.2h13.9c0.7,0,1.2-0.5,1.2-1.2v-20.2
			C175,352.7,174.5,352.2,173.8,352.2z M172.5,372.4h-11.2v-17.5h11.2V372.4L172.5,372.4z"/>
		<path class="st2" d="M173.8,377.4h-13.9c-0.7,0-1.2,0.5-1.2,1.2s0.5,1.2,1.2,1.2h13.9c0.7,0,1.2-0.5,1.2-1.2
			S174.5,377.4,173.8,377.4z"/>
		<path class="st2" d="M173.8,382.3h-13.9c-0.7,0-1.2,0.5-1.2,1.2s0.5,1.2,1.2,1.2h13.9c0.7,0,1.2-0.5,1.2-1.2
			S174.5,382.3,173.8,382.3z"/>
		<path class="st2" d="M173.8,387.3h-13.9c-0.7,0-1.2,0.5-1.2,1.2s0.5,1.2,1.2,1.2h13.9c0.7,0,1.2-0.5,1.2-1.2
			S174.5,387.3,173.8,387.3z"/>
		<path class="st2" d="M173.8,392.5h-13.9c-0.7,0-1.2,0.5-1.2,1.2s0.5,1.2,1.2,1.2h13.9c0.7,0,1.2-0.5,1.2-1.2
			S174.5,392.5,173.8,392.5z"/>
		<path class="st2" d="M173.8,397.5h-13.9c-0.7,0-1.2,0.5-1.2,1.2s0.5,1.2,1.2,1.2h13.9c0.7,0,1.2-0.5,1.2-1.2
			S174.5,397.5,173.8,397.5z"/>
		<path class="st2" d="M173.8,402.5h-13.9c-0.7,0-1.2,0.5-1.2,1.2s0.5,1.2,1.2,1.2h13.9c0.7,0,1.2-0.5,1.2-1.2
			S174.5,402.5,173.8,402.5z"/>
		<path class="st2" d="M173.8,407.5h-13.9c-0.7,0-1.2,0.5-1.2,1.2s0.5,1.2,1.2,1.2h13.9c0.7,0,1.2-0.5,1.2-1.2
			S174.5,407.5,173.8,407.5z"/>
		<path class="st2" d="M173.8,412.5h-13.9c-0.7,0-1.2,0.5-1.2,1.2s0.5,1.2,1.2,1.2h13.9c0.7,0,1.2-0.5,1.2-1.2
			S174.5,412.5,173.8,412.5z"/>
		<path class="st2" d="M173.8,417.5h-13.9c-0.7,0-1.2,0.5-1.2,1.2s0.5,1.2,1.2,1.2h13.9c0.7,0,1.2-0.5,1.2-1.2
			S174.5,417.5,173.8,417.5z"/>
		<path class="st2" d="M173.8,422.7h-13.9c-0.7,0-1.2,0.5-1.2,1.2s0.5,1.2,1.2,1.2h13.9c0.7,0,1.2-0.5,1.2-1.2
			S174.5,422.7,173.8,422.7z"/>
		<path class="st2" d="M173.8,427.7h-13.9c-0.7,0-1.2,0.5-1.2,1.2s0.5,1.2,1.2,1.2h13.9c0.7,0,1.2-0.5,1.2-1.2
			S174.5,427.7,173.8,427.7z"/>
		<path class="st2" d="M173.8,432.7h-13.9c-0.7,0-1.2,0.5-1.2,1.2s0.5,1.2,1.2,1.2h13.9c0.7,0,1.2-0.5,1.2-1.2
			S174.5,432.7,173.8,432.7z"/>
		<path class="st2" d="M173.8,437.7h-13.9c-0.7,0-1.2,0.5-1.2,1.2s0.5,1.2,1.2,1.2h13.9c0.7,0,1.2-0.5,1.2-1.2
			S174.5,437.7,173.8,437.7z"/>
		<path class="st2" d="M180.9,354.7h13.9c0.7,0,1.2-0.5,1.2-1.2s-0.5-1.2-1.2-1.2h-13.9c-0.7,0-1.2,0.5-1.2,1.2
			S180.2,354.7,180.9,354.7z"/>
		<path class="st2" d="M180.9,359.9h13.9c0.7,0,1.2-0.5,1.2-1.2s-0.5-1.2-1.2-1.2h-13.9c-0.7,0-1.2,0.5-1.2,1.2
			S180.2,359.9,180.9,359.9z"/>
		<path class="st2" d="M180.9,400h13.9c0.7,0,1.2-0.5,1.2-1.2s-0.5-1.2-1.2-1.2h-13.9c-0.7,0-1.2,0.5-1.2,1.2S180.2,400,180.9,400z"
			/>
		<path class="st2" d="M179.7,403.8V429c0,0.7,0.5,1.2,1.2,1.2h35c0.7,0,1.2-0.5,1.2-1.2v-25.2c0-0.7-0.5-1.2-1.2-1.2h-35
			C180.2,402.5,179.7,403,179.7,403.8z M182.3,405h32.3v22.5h-32.3V405z"/>
		<path class="st2" d="M194.8,432.7h-13.9c-0.7,0-1.2,0.5-1.2,1.2s0.5,1.2,1.2,1.2h13.9c0.7,0,1.2-0.5,1.2-1.2
			S195.5,432.7,194.8,432.7z"/>
		<path class="st2" d="M194.8,437.7h-13.9c-0.7,0-1.2,0.5-1.2,1.2s0.5,1.2,1.2,1.2h13.9c0.7,0,1.2-0.5,1.2-1.2
			S195.5,437.7,194.8,437.7z"/>
		<path class="st2" d="M202,354.7h13.9c0.7,0,1.2-0.5,1.2-1.2s-0.5-1.2-1.2-1.2H202c-0.7,0-1.2,0.5-1.2,1.2S201.2,354.7,202,354.7z"
			/>
		<path class="st2" d="M215.9,432.7H202c-0.7,0-1.2,0.5-1.2,1.2s0.5,1.2,1.2,1.2h13.9c0.7,0,1.2-0.5,1.2-1.2
			S216.6,432.7,215.9,432.7z"/>
		<path class="st2" d="M215.9,437.7H202c-0.7,0-1.2,0.5-1.2,1.2s0.5,1.2,1.2,1.2h13.9c0.7,0,1.2-0.5,1.2-1.2
			S216.6,437.7,215.9,437.7z"/>
	</g>
</g>
<path class="st1" d="M483.7,987.6H116.3c-6.6,0-12-5.4-12-12V862.8c0-6.6,5.4-12,12-12h367.3c6.6,0,12,5.4,12,12v112.9
	C495.7,982.2,490.3,987.6,483.7,987.6z"/>
<rect x="258.9" y="905.9" class="st5" width="204.5" height="46.4"/>
<text transform="matrix(1 0 0 1 258.8955 919.5287)" class="st11"><tspan x="0" y="0" class="st10 st8">Artigo segue para revisão </tspan><tspan x="0" y="19.2" class="st10 st8">pelos pares</tspan></text>
<g>
	<g>
		<path class="st2" d="M200.7,889.2c-7,7-7,18.2,0,25.2c3.4,3.4,8,5.2,12.5,5.2s9.1-1.8,12.5-5.2c7-7,7-18.2,0-25.2
			C218.9,882.3,207.5,882.3,200.7,889.2z M223.9,912.6c-5.9,5.9-15.5,5.9-21.4,0c-5.9-5.9-5.9-15.5,0-21.4c3-3,6.8-4.5,10.7-4.5
			s7.9,1.4,10.7,4.5C229.8,896.9,229.8,906.5,223.9,912.6z"/>
		<path class="st2" d="M201.6,905.4c0.7-0.2,1.1-0.9,1.1-1.6c-0.2-0.7-0.2-1.4-0.2-2.1s-0.5-1.2-1.2-1.2s-1.2,0.5-1.2,1.2
			c0,0.9,0.2,1.8,0.4,2.7C200.5,904.9,201.1,905.4,201.6,905.4C201.4,905.4,201.6,905.4,201.6,905.4z"/>
		<path class="st2" d="M213.2,912.6c-3.9,0-7.5-2.1-9.5-5.5c-0.4-0.5-1.1-0.9-1.8-0.5c-0.5,0.4-0.9,1.1-0.5,1.8
			c2.3,4.3,6.8,7,11.6,7c0.7,0,1.2-0.5,1.2-1.2S213.9,912.6,213.2,912.6z"/>
		<path class="st2" d="M223.7,899.6c0.2,0.7,0.2,1.4,0.2,2.1s0.5,1.2,1.2,1.2s1.2-0.5,1.2-1.2c0-0.9-0.2-1.8-0.4-2.7
			c-0.2-0.7-0.9-1.1-1.6-1.1C224.1,898.3,223.5,898.8,223.7,899.6z"/>
		<path class="st2" d="M212,889.7c0,0.7,0.5,1.2,1.2,1.2c3.7,0,7.1,2,9.3,5.2c0.2,0.4,0.7,0.5,1.1,0.5c0.2,0,0.5,0,0.7-0.2
			c0.5-0.4,0.7-1.2,0.4-1.8c-2.5-3.9-6.8-6.4-11.4-6.4C212.5,888.5,212,889,212,889.7z"/>
		<path class="st2" d="M246.6,929.2L232,914.6c6.1-8.7,5-20.9-2.7-28.7c-1.1-1.1-2.1-2-3.4-2.9v-13.2c0-0.7-0.5-1.2-1.2-1.2h-72.3
			c-0.7,0-1.2,0.5-1.2,1.2v98.9c0,0.7,0.5,1.2,1.2,1.2h72.1c0.7,0,1.2-0.5,1.2-1.2v-48.2c0,0,0.2,0,0.2-0.2l14.6,14.6
			c0.9,0.9,2,1.2,3,1.2c1.1,0,2.1-0.4,3-1.2c0.7-0.7,1.2-1.8,1.2-3C247.8,931,247.5,929.9,246.6,929.2z M227.3,916
			c-3.7,3.7-8.7,5.9-14.1,5.9s-10.3-2.1-14.1-5.9c-3.7-3.7-5.9-8.7-5.9-14.1c0-5.4,2.1-10.3,5.9-14.1c3.7-3.7,8.7-5.9,14.1-5.9
			s10.3,2.1,14.1,5.9C235.1,895.5,235.1,908.1,227.3,916z M223.2,967.4h-69.4V871h69.4v10.3c-3-1.4-6.4-2.3-10-2.3
			c-2.5,0-4.8,0.4-7.1,1.1h-3.9c-0.7,0-1.2,0.5-1.2,1.2c0,0.4,0.2,0.7,0.5,1.1c-1.4,0.9-2.7,2-3.9,3.2c-0.4,0.4-0.7,0.9-1.2,1.2
			c0-0.2,0-0.2,0-0.4c0-0.7-0.5-1.2-1.2-1.2h-14.1c-0.7,0-1.2,0.5-1.2,1.2s0.5,1.2,1.2,1.2H195c0.2,0,0.4,0,0.7-0.2
			c-0.7,0.9-1.2,1.8-1.8,2.7h-12.8c-0.7,0-1.2,0.5-1.2,1.2s0.5,1.2,1.2,1.2h11.4c-0.4,0.7-0.7,1.6-0.9,2.5h-10.5
			c-0.7,0-1.2,0.5-1.2,1.2s0.5,1.2,1.2,1.2h10c-0.2,0.9-0.2,1.6-0.4,2.5h-9.6c-0.7,0-1.2,0.5-1.2,1.2s0.5,1.2,1.2,1.2h9.6
			c0,0.9,0.2,1.6,0.2,2.5h-9.8c-0.7,0-1.2,0.5-1.2,1.2s0.5,1.2,1.2,1.2h10.5c0.2,0.9,0.5,1.6,0.9,2.5h-11.4c-0.7,0-1.2,0.5-1.2,1.2
			s0.5,1.2,1.2,1.2h12.7c0.5,0.9,1.1,1.8,1.8,2.5c-0.2,0-0.4-0.2-0.5-0.2h-13.9c-0.7,0-1.2,0.5-1.2,1.2s0.5,1.2,1.2,1.2h13.9
			c0.7,0,1.2-0.5,1.2-1.2c0-0.2,0-0.2,0-0.4c0.4,0.4,0.7,0.9,1.1,1.2c1.2,1.2,2.5,2.3,3.9,3.2c-0.2,0.2-0.4,0.5-0.4,0.9
			c0,0.7,0.5,1.2,1.2,1.2h3.7c2.3,0.9,4.8,1.2,7.5,1.2c3.6,0,7-0.7,10-2.3L223.2,967.4L223.2,967.4z M244.8,933.3
			c-0.7,0.7-1.8,0.7-2.3,0L228,918.8c0.4-0.4,0.9-0.7,1.2-1.1c0.4-0.4,0.7-0.9,1.1-1.2l14.5,14.5c0.4,0.4,0.5,0.7,0.5,1.2
			C245.3,932.6,245.1,932.9,244.8,933.3z"/>
		<path class="st2" d="M173.8,875.3h-13.9c-0.7,0-1.2,0.5-1.2,1.2v20.2c0,0.7,0.5,1.2,1.2,1.2h13.9c0.7,0,1.2-0.5,1.2-1.2v-20.2
			C175,875.8,174.5,875.3,173.8,875.3z M172.5,895.5h-11.2V878h11.2V895.5L172.5,895.5z"/>
		<path class="st2" d="M173.8,900.5h-13.9c-0.7,0-1.2,0.5-1.2,1.2s0.5,1.2,1.2,1.2h13.9c0.7,0,1.2-0.5,1.2-1.2
			S174.5,900.5,173.8,900.5z"/>
		<path class="st2" d="M173.8,905.4h-13.9c-0.7,0-1.2,0.5-1.2,1.2s0.5,1.2,1.2,1.2h13.9c0.7,0,1.2-0.5,1.2-1.2
			S174.5,905.4,173.8,905.4z"/>
		<path class="st2" d="M173.8,910.4h-13.9c-0.7,0-1.2,0.5-1.2,1.2s0.5,1.2,1.2,1.2h13.9c0.7,0,1.2-0.5,1.2-1.2
			S174.5,910.4,173.8,910.4z"/>
		<path class="st2" d="M173.8,915.6h-13.9c-0.7,0-1.2,0.5-1.2,1.2s0.5,1.2,1.2,1.2h13.9c0.7,0,1.2-0.5,1.2-1.2
			S174.5,915.6,173.8,915.6z"/>
		<path class="st2" d="M173.8,920.6h-13.9c-0.7,0-1.2,0.5-1.2,1.2s0.5,1.2,1.2,1.2h13.9c0.7,0,1.2-0.5,1.2-1.2
			S174.5,920.6,173.8,920.6z"/>
		<path class="st2" d="M173.8,925.6h-13.9c-0.7,0-1.2,0.5-1.2,1.2s0.5,1.2,1.2,1.2h13.9c0.7,0,1.2-0.5,1.2-1.2
			S174.5,925.6,173.8,925.6z"/>
		<path class="st2" d="M173.8,930.6h-13.9c-0.7,0-1.2,0.5-1.2,1.2s0.5,1.2,1.2,1.2h13.9c0.7,0,1.2-0.5,1.2-1.2
			S174.5,930.6,173.8,930.6z"/>
		<path class="st2" d="M173.8,935.6h-13.9c-0.7,0-1.2,0.5-1.2,1.2s0.5,1.2,1.2,1.2h13.9c0.7,0,1.2-0.5,1.2-1.2
			S174.5,935.6,173.8,935.6z"/>
		<path class="st2" d="M173.8,940.6h-13.9c-0.7,0-1.2,0.5-1.2,1.2s0.5,1.2,1.2,1.2h13.9c0.7,0,1.2-0.5,1.2-1.2
			S174.5,940.6,173.8,940.6z"/>
		<path class="st2" d="M173.8,945.8h-13.9c-0.7,0-1.2,0.5-1.2,1.2s0.5,1.2,1.2,1.2h13.9c0.7,0,1.2-0.5,1.2-1.2
			S174.5,945.8,173.8,945.8z"/>
		<path class="st2" d="M173.8,950.8h-13.9c-0.7,0-1.2,0.5-1.2,1.2s0.5,1.2,1.2,1.2h13.9c0.7,0,1.2-0.5,1.2-1.2
			S174.5,950.8,173.8,950.8z"/>
		<path class="st2" d="M173.8,955.8h-13.9c-0.7,0-1.2,0.5-1.2,1.2s0.5,1.2,1.2,1.2h13.9c0.7,0,1.2-0.5,1.2-1.2
			S174.5,955.8,173.8,955.8z"/>
		<path class="st2" d="M173.8,960.8h-13.9c-0.7,0-1.2,0.5-1.2,1.2s0.5,1.2,1.2,1.2h13.9c0.7,0,1.2-0.5,1.2-1.2
			S174.5,960.8,173.8,960.8z"/>
		<path class="st2" d="M180.9,877.8h13.9c0.7,0,1.2-0.5,1.2-1.2s-0.5-1.2-1.2-1.2h-13.9c-0.7,0-1.2,0.5-1.2,1.2
			S180.2,877.8,180.9,877.8z"/>
		<path class="st2" d="M180.9,883h13.9c0.7,0,1.2-0.5,1.2-1.2s-0.5-1.2-1.2-1.2h-13.9c-0.7,0-1.2,0.5-1.2,1.2S180.2,883,180.9,883z"
			/>
		<path class="st2" d="M180.9,923.1h13.9c0.7,0,1.2-0.5,1.2-1.2s-0.5-1.2-1.2-1.2h-13.9c-0.7,0-1.2,0.5-1.2,1.2
			S180.2,923.1,180.9,923.1z"/>
		<path class="st2" d="M179.7,926.9v25.2c0,0.7,0.5,1.2,1.2,1.2h35c0.7,0,1.2-0.5,1.2-1.2v-25.2c0-0.7-0.5-1.2-1.2-1.2h-35
			C180.2,925.6,179.7,926.1,179.7,926.9z M182.3,928.1h32.3v22.5h-32.3V928.1z"/>
		<path class="st2" d="M194.8,955.8h-13.9c-0.7,0-1.2,0.5-1.2,1.2s0.5,1.2,1.2,1.2h13.9c0.7,0,1.2-0.5,1.2-1.2
			S195.5,955.8,194.8,955.8z"/>
		<path class="st2" d="M194.8,960.8h-13.9c-0.7,0-1.2,0.5-1.2,1.2s0.5,1.2,1.2,1.2h13.9c0.7,0,1.2-0.5,1.2-1.2
			S195.5,960.8,194.8,960.8z"/>
		<path class="st2" d="M202,877.8h13.9c0.7,0,1.2-0.5,1.2-1.2s-0.5-1.2-1.2-1.2H202c-0.7,0-1.2,0.5-1.2,1.2S201.2,877.8,202,877.8z"
			/>
		<path class="st2" d="M215.9,955.8H202c-0.7,0-1.2,0.5-1.2,1.2s0.5,1.2,1.2,1.2h13.9c0.7,0,1.2-0.5,1.2-1.2
			S216.6,955.8,215.9,955.8z"/>
		<path class="st2" d="M215.9,960.8H202c-0.7,0-1.2,0.5-1.2,1.2s0.5,1.2,1.2,1.2h13.9c0.7,0,1.2-0.5,1.2-1.2
			S216.6,960.8,215.9,960.8z"/>
	</g>
</g>
<g id="seta_21_">
	<line id="linha_23_" class="st3" x1="287.1" y1="2465.1" x2="287.1" y2="2540.2"/>
	<polygon id="triangulo_23_" class="st4" points="286.9,2543.7 291.5,2535.6 282.2,2535.6 	"/>
</g>
<path class="st1" d="M483.7,2462.7H116.3c-6.6,0-12-5.4-12-12v-112.8c0-6.6,5.4-12,12-12h367.3c6.6,0,12,5.4,12,12v112.9
	C495.7,2457.3,490.3,2462.7,483.7,2462.7z"/>
<rect x="258.9" y="2381" class="st5" width="226.2" height="46.4"/>
<text transform="matrix(1 0 0 1 258.8955 2394.604)" class="st11"><tspan x="0" y="0" class="st10 st8">Artigo é publicado e </tspan><tspan x="0" y="19.2" class="st10 st8">indexado na base de dados</tspan></text>
<g>
	<g>
		<path class="st2" d="M200.7,2364.3c-7,7-7,18.2,0,25.2c3.4,3.4,8,5.2,12.5,5.2s9.1-1.8,12.5-5.2c7-7,7-18.2,0-25.2
			C218.9,2357.4,207.5,2357.4,200.7,2364.3z M223.9,2387.7c-5.9,5.9-15.5,5.9-21.4,0c-5.9-5.9-5.9-15.5,0-21.4c3-3,6.8-4.5,10.7-4.5
			s7.9,1.4,10.7,4.5C229.8,2372,229.8,2381.6,223.9,2387.7z"/>
		<path class="st2" d="M201.6,2380.5c0.7-0.2,1.1-0.9,1.1-1.6c-0.2-0.7-0.2-1.4-0.2-2.1s-0.5-1.2-1.2-1.2s-1.2,0.5-1.2,1.2
			c0,0.9,0.2,1.8,0.4,2.7C200.5,2380,201.1,2380.5,201.6,2380.5C201.4,2380.5,201.6,2380.5,201.6,2380.5z"/>
		<path class="st2" d="M213.2,2387.7c-3.9,0-7.5-2.1-9.5-5.5c-0.4-0.5-1.1-0.9-1.8-0.5c-0.5,0.4-0.9,1.1-0.5,1.8
			c2.3,4.3,6.8,7,11.6,7c0.7,0,1.2-0.5,1.2-1.2S213.9,2387.7,213.2,2387.7z"/>
		<path class="st2" d="M223.7,2374.7c0.2,0.7,0.2,1.4,0.2,2.1s0.5,1.2,1.2,1.2s1.2-0.5,1.2-1.2c0-0.9-0.2-1.8-0.4-2.7
			c-0.2-0.7-0.9-1.1-1.6-1.1C224.1,2373.4,223.5,2373.9,223.7,2374.7z"/>
		<path class="st2" d="M212,2364.8c0,0.7,0.5,1.2,1.2,1.2c3.7,0,7.1,2,9.3,5.2c0.2,0.4,0.7,0.5,1.1,0.5c0.2,0,0.5,0,0.7-0.2
			c0.5-0.4,0.7-1.2,0.4-1.8c-2.5-3.9-6.8-6.4-11.4-6.4C212.5,2363.6,212,2364.1,212,2364.8z"/>
		<path class="st2" d="M246.6,2404.3l-14.6-14.6c6.1-8.7,5-20.9-2.7-28.7c-1.1-1.1-2.1-2-3.4-2.9v-13.2c0-0.7-0.5-1.2-1.2-1.2h-72.3
			c-0.7,0-1.2,0.5-1.2,1.2v98.9c0,0.7,0.5,1.2,1.2,1.2h72.1c0.7,0,1.2-0.5,1.2-1.2v-48.2c0,0,0.2,0,0.2-0.2l14.6,14.6
			c0.9,0.9,2,1.2,3,1.2c1.1,0,2.1-0.4,3-1.2c0.7-0.7,1.2-1.8,1.2-3C247.8,2406.1,247.5,2405,246.6,2404.3z M227.3,2391.1
			c-3.7,3.7-8.7,5.9-14.1,5.9s-10.3-2.1-14.1-5.9c-3.7-3.7-5.9-8.7-5.9-14.1c0-5.4,2.1-10.3,5.9-14.1c3.7-3.7,8.7-5.9,14.1-5.9
			s10.3,2.1,14.1,5.9C235.1,2370.6,235.1,2383.2,227.3,2391.1z M223.2,2442.5h-69.4v-96.4h69.4v10.3c-3-1.4-6.4-2.3-10-2.3
			c-2.5,0-4.8,0.4-7.1,1.1h-3.9c-0.7,0-1.2,0.5-1.2,1.2c0,0.4,0.2,0.7,0.5,1.1c-1.4,0.9-2.7,2-3.9,3.2c-0.4,0.4-0.7,0.9-1.2,1.2
			c0-0.2,0-0.2,0-0.4c0-0.7-0.5-1.2-1.2-1.2h-14.1c-0.7,0-1.2,0.5-1.2,1.2c0,0.7,0.5,1.2,1.2,1.2H195c0.2,0,0.4,0,0.7-0.2
			c-0.7,0.9-1.2,1.8-1.8,2.7h-12.8c-0.7,0-1.2,0.5-1.2,1.2s0.5,1.2,1.2,1.2h11.4c-0.4,0.7-0.7,1.6-0.9,2.5h-10.5
			c-0.7,0-1.2,0.5-1.2,1.2c0,0.7,0.5,1.2,1.2,1.2h10c-0.2,0.9-0.2,1.6-0.4,2.5h-9.6c-0.7,0-1.2,0.5-1.2,1.2s0.5,1.2,1.2,1.2h9.6
			c0,0.9,0.2,1.6,0.2,2.5h-9.8c-0.7,0-1.2,0.5-1.2,1.2c0,0.7,0.5,1.2,1.2,1.2h10.5c0.2,0.9,0.5,1.6,0.9,2.5h-11.4
			c-0.7,0-1.2,0.5-1.2,1.2s0.5,1.2,1.2,1.2h12.7c0.5,0.9,1.1,1.8,1.8,2.5c-0.2,0-0.4-0.2-0.5-0.2h-13.9c-0.7,0-1.2,0.5-1.2,1.2
			c0,0.7,0.5,1.2,1.2,1.2h13.9c0.7,0,1.2-0.5,1.2-1.2c0-0.2,0-0.2,0-0.4c0.4,0.4,0.7,0.9,1.1,1.2c1.2,1.2,2.5,2.3,3.9,3.2
			c-0.2,0.2-0.4,0.5-0.4,0.9c0,0.7,0.5,1.2,1.2,1.2h3.7c2.3,0.9,4.8,1.2,7.5,1.2c3.6,0,7-0.7,10-2.3L223.2,2442.5L223.2,2442.5z
			 M244.8,2408.4c-0.7,0.7-1.8,0.7-2.3,0l-14.5-14.5c0.4-0.4,0.9-0.7,1.2-1.1c0.4-0.4,0.7-0.9,1.1-1.2l14.5,14.5
			c0.4,0.4,0.5,0.7,0.5,1.2C245.3,2407.7,245.1,2408,244.8,2408.4z"/>
		<path class="st2" d="M173.8,2350.4h-13.9c-0.7,0-1.2,0.5-1.2,1.2v20.2c0,0.7,0.5,1.2,1.2,1.2h13.9c0.7,0,1.2-0.5,1.2-1.2v-20.2
			C175,2350.9,174.5,2350.4,173.8,2350.4z M172.5,2370.6h-11.2v-17.5h11.2V2370.6L172.5,2370.6z"/>
		<path class="st2" d="M173.8,2375.6h-13.9c-0.7,0-1.2,0.5-1.2,1.2s0.5,1.2,1.2,1.2h13.9c0.7,0,1.2-0.5,1.2-1.2
			S174.5,2375.6,173.8,2375.6z"/>
		<path class="st2" d="M173.8,2380.5h-13.9c-0.7,0-1.2,0.5-1.2,1.2c0,0.7,0.5,1.2,1.2,1.2h13.9c0.7,0,1.2-0.5,1.2-1.2
			C175,2381,174.5,2380.5,173.8,2380.5z"/>
		<path class="st2" d="M173.8,2385.5h-13.9c-0.7,0-1.2,0.5-1.2,1.2c0,0.7,0.5,1.2,1.2,1.2h13.9c0.7,0,1.2-0.5,1.2-1.2
			C175,2386,174.5,2385.5,173.8,2385.5z"/>
		<path class="st2" d="M173.8,2390.7h-13.9c-0.7,0-1.2,0.5-1.2,1.2s0.5,1.2,1.2,1.2h13.9c0.7,0,1.2-0.5,1.2-1.2
			S174.5,2390.7,173.8,2390.7z"/>
		<path class="st2" d="M173.8,2395.7h-13.9c-0.7,0-1.2,0.5-1.2,1.2s0.5,1.2,1.2,1.2h13.9c0.7,0,1.2-0.5,1.2-1.2
			S174.5,2395.7,173.8,2395.7z"/>
		<path class="st2" d="M173.8,2400.7h-13.9c-0.7,0-1.2,0.5-1.2,1.2s0.5,1.2,1.2,1.2h13.9c0.7,0,1.2-0.5,1.2-1.2
			S174.5,2400.7,173.8,2400.7z"/>
		<path class="st2" d="M173.8,2405.7h-13.9c-0.7,0-1.2,0.5-1.2,1.2s0.5,1.2,1.2,1.2h13.9c0.7,0,1.2-0.5,1.2-1.2
			S174.5,2405.7,173.8,2405.7z"/>
		<path class="st2" d="M173.8,2410.7h-13.9c-0.7,0-1.2,0.5-1.2,1.2s0.5,1.2,1.2,1.2h13.9c0.7,0,1.2-0.5,1.2-1.2
			S174.5,2410.7,173.8,2410.7z"/>
		<path class="st2" d="M173.8,2415.7h-13.9c-0.7,0-1.2,0.5-1.2,1.2s0.5,1.2,1.2,1.2h13.9c0.7,0,1.2-0.5,1.2-1.2
			S174.5,2415.7,173.8,2415.7z"/>
		<path class="st2" d="M173.8,2420.9h-13.9c-0.7,0-1.2,0.5-1.2,1.2s0.5,1.2,1.2,1.2h13.9c0.7,0,1.2-0.5,1.2-1.2
			S174.5,2420.9,173.8,2420.9z"/>
		<path class="st2" d="M173.8,2425.9h-13.9c-0.7,0-1.2,0.5-1.2,1.2s0.5,1.2,1.2,1.2h13.9c0.7,0,1.2-0.5,1.2-1.2
			S174.5,2425.9,173.8,2425.9z"/>
		<path class="st2" d="M173.8,2430.9h-13.9c-0.7,0-1.2,0.5-1.2,1.2s0.5,1.2,1.2,1.2h13.9c0.7,0,1.2-0.5,1.2-1.2
			S174.5,2430.9,173.8,2430.9z"/>
		<path class="st2" d="M173.8,2435.9h-13.9c-0.7,0-1.2,0.5-1.2,1.2s0.5,1.2,1.2,1.2h13.9c0.7,0,1.2-0.5,1.2-1.2
			S174.5,2435.9,173.8,2435.9z"/>
		<path class="st2" d="M180.9,2352.9h13.9c0.7,0,1.2-0.5,1.2-1.2c0-0.7-0.5-1.2-1.2-1.2h-13.9c-0.7,0-1.2,0.5-1.2,1.2
			C179.7,2352.4,180.2,2352.9,180.9,2352.9z"/>
		<path class="st2" d="M180.9,2358.1h13.9c0.7,0,1.2-0.5,1.2-1.2c0-0.7-0.5-1.2-1.2-1.2h-13.9c-0.7,0-1.2,0.5-1.2,1.2
			C179.7,2357.6,180.2,2358.1,180.9,2358.1z"/>
		<path class="st2" d="M180.9,2398.2h13.9c0.7,0,1.2-0.5,1.2-1.2c0-0.7-0.5-1.2-1.2-1.2h-13.9c-0.7,0-1.2,0.5-1.2,1.2
			C179.7,2397.7,180.2,2398.2,180.9,2398.2z"/>
		<path class="st2" d="M179.7,2402v25.2c0,0.7,0.5,1.2,1.2,1.2h35c0.7,0,1.2-0.5,1.2-1.2V2402c0-0.7-0.5-1.2-1.2-1.2h-35
			C180.2,2400.7,179.7,2401.2,179.7,2402z M182.3,2403.2h32.3v22.5h-32.3V2403.2z"/>
		<path class="st2" d="M194.8,2430.9h-13.9c-0.7,0-1.2,0.5-1.2,1.2s0.5,1.2,1.2,1.2h13.9c0.7,0,1.2-0.5,1.2-1.2
			S195.5,2430.9,194.8,2430.9z"/>
		<path class="st2" d="M194.8,2435.9h-13.9c-0.7,0-1.2,0.5-1.2,1.2s0.5,1.2,1.2,1.2h13.9c0.7,0,1.2-0.5,1.2-1.2
			S195.5,2435.9,194.8,2435.9z"/>
		<path class="st2" d="M202,2352.9h13.9c0.7,0,1.2-0.5,1.2-1.2c0-0.7-0.5-1.2-1.2-1.2H202c-0.7,0-1.2,0.5-1.2,1.2
			C200.8,2352.4,201.2,2352.9,202,2352.9z"/>
		<path class="st2" d="M215.9,2430.9H202c-0.7,0-1.2,0.5-1.2,1.2s0.5,1.2,1.2,1.2h13.9c0.7,0,1.2-0.5,1.2-1.2
			S216.6,2430.9,215.9,2430.9z"/>
		<path class="st2" d="M215.9,2435.9H202c-0.7,0-1.2,0.5-1.2,1.2s0.5,1.2,1.2,1.2h13.9c0.7,0,1.2-0.5,1.2-1.2
			S216.6,2435.9,215.9,2435.9z"/>
	</g>
</g>
<path class="st1" d="M483.7,1219.3H116.3c-6.6,0-12-5.4-12-12v-112.8c0-6.6,5.4-12,12-12h367.3c6.6,0,12,5.4,12,12v112.9
	C495.7,1213.9,490.3,1219.3,483.7,1219.3z"/>
<rect x="258.9" y="1137.6" class="st5" width="204.5" height="46.4"/>
<text transform="matrix(1 0 0 1 258.8955 1151.2429)" class="st11"><tspan x="0" y="0" class="st10 st8">Editor convida 2 ou mais </tspan><tspan x="0" y="19.2" class="st10 st8">revisores externos</tspan></text>
<g>
	<g>
		<path class="st2" d="M200.7,1120.9c-7,7-7,18.2,0,25.2c3.4,3.4,8,5.2,12.5,5.2s9.1-1.8,12.5-5.2c7-7,7-18.2,0-25.2
			C218.9,1114,207.5,1114,200.7,1120.9z M223.9,1144.3c-5.9,5.9-15.5,5.9-21.4,0c-5.9-5.9-5.9-15.5,0-21.4c3-3,6.8-4.5,10.7-4.5
			s7.9,1.4,10.7,4.5C229.8,1128.6,229.8,1138.2,223.9,1144.3z"/>
		<path class="st2" d="M201.6,1137.1c0.7-0.2,1.1-0.9,1.1-1.6c-0.2-0.7-0.2-1.4-0.2-2.1c0-0.7-0.5-1.2-1.2-1.2s-1.2,0.5-1.2,1.2
			c0,0.9,0.2,1.8,0.4,2.7C200.5,1136.6,201.1,1137.1,201.6,1137.1C201.4,1137.1,201.6,1137.1,201.6,1137.1z"/>
		<path class="st2" d="M213.2,1144.3c-3.9,0-7.5-2.1-9.5-5.5c-0.4-0.5-1.1-0.9-1.8-0.5c-0.5,0.4-0.9,1.1-0.5,1.8
			c2.3,4.3,6.8,7,11.6,7c0.7,0,1.2-0.5,1.2-1.2C214.2,1145.2,213.9,1144.3,213.2,1144.3z"/>
		<path class="st2" d="M223.7,1131.3c0.2,0.7,0.2,1.4,0.2,2.1s0.5,1.2,1.2,1.2s1.2-0.5,1.2-1.2c0-0.9-0.2-1.8-0.4-2.7
			c-0.2-0.7-0.9-1.1-1.6-1.1C224.1,1130,223.5,1130.5,223.7,1131.3z"/>
		<path class="st2" d="M212,1121.4c0,0.7,0.5,1.2,1.2,1.2c3.7,0,7.1,2,9.3,5.2c0.2,0.4,0.7,0.5,1.1,0.5c0.2,0,0.5,0,0.7-0.2
			c0.5-0.4,0.7-1.2,0.4-1.8c-2.5-3.9-6.8-6.4-11.4-6.4C212.5,1120.2,212,1120.7,212,1121.4z"/>
		<path class="st2" d="M246.6,1160.9l-14.6-14.6c6.1-8.7,5-20.9-2.7-28.7c-1.1-1.1-2.1-2-3.4-2.9v-13.2c0-0.7-0.5-1.2-1.2-1.2h-72.3
			c-0.7,0-1.2,0.5-1.2,1.2v98.9c0,0.7,0.5,1.2,1.2,1.2h72.1c0.7,0,1.2-0.5,1.2-1.2v-48.2c0,0,0.2,0,0.2-0.2l14.6,14.6
			c0.9,0.9,2,1.2,3,1.2c1.1,0,2.1-0.4,3-1.2c0.7-0.7,1.2-1.8,1.2-3C247.8,1162.7,247.5,1161.6,246.6,1160.9z M227.3,1147.7
			c-3.7,3.7-8.7,5.9-14.1,5.9s-10.3-2.1-14.1-5.9c-3.7-3.7-5.9-8.7-5.9-14.1s2.1-10.3,5.9-14.1c3.7-3.7,8.7-5.9,14.1-5.9
			s10.3,2.1,14.1,5.9C235.1,1127.2,235.1,1139.8,227.3,1147.7z M223.2,1199.1h-69.4v-96.4h69.4v10.3c-3-1.4-6.4-2.3-10-2.3
			c-2.5,0-4.8,0.4-7.1,1.1h-3.9c-0.7,0-1.2,0.5-1.2,1.2c0,0.4,0.2,0.7,0.5,1.1c-1.4,0.9-2.7,2-3.9,3.2c-0.4,0.4-0.7,0.9-1.2,1.2
			c0-0.2,0-0.2,0-0.4c0-0.7-0.5-1.2-1.2-1.2h-14.1c-0.7,0-1.2,0.5-1.2,1.2c0,0.7,0.5,1.2,1.2,1.2H195c0.2,0,0.4,0,0.7-0.2
			c-0.7,0.9-1.2,1.8-1.8,2.7h-12.8c-0.7,0-1.2,0.5-1.2,1.2c0,0.7,0.5,1.2,1.2,1.2h11.4c-0.4,0.7-0.7,1.6-0.9,2.5h-10.5
			c-0.7,0-1.2,0.5-1.2,1.2c0,0.7,0.5,1.2,1.2,1.2h10c-0.2,0.9-0.2,1.6-0.4,2.5h-9.6c-0.7,0-1.2,0.5-1.2,1.2c0,0.7,0.5,1.2,1.2,1.2
			h9.6c0,0.9,0.2,1.6,0.2,2.5h-9.8c-0.7,0-1.2,0.5-1.2,1.2c0,0.7,0.5,1.2,1.2,1.2h10.5c0.2,0.9,0.5,1.6,0.9,2.5h-11.4
			c-0.7,0-1.2,0.5-1.2,1.2c0,0.7,0.5,1.2,1.2,1.2h12.7c0.5,0.9,1.1,1.8,1.8,2.5c-0.2,0-0.4-0.2-0.5-0.2h-13.9
			c-0.7,0-1.2,0.5-1.2,1.2c0,0.7,0.5,1.2,1.2,1.2h13.9c0.7,0,1.2-0.5,1.2-1.2c0-0.2,0-0.2,0-0.4c0.4,0.4,0.7,0.9,1.1,1.2
			c1.2,1.2,2.5,2.3,3.9,3.2c-0.2,0.2-0.4,0.5-0.4,0.9c0,0.7,0.5,1.2,1.2,1.2h3.7c2.3,0.9,4.8,1.2,7.5,1.2c3.6,0,7-0.7,10-2.3
			L223.2,1199.1L223.2,1199.1z M244.8,1165c-0.7,0.7-1.8,0.7-2.3,0l-14.5-14.5c0.4-0.4,0.9-0.7,1.2-1.1c0.4-0.4,0.7-0.9,1.1-1.2
			l14.5,14.5c0.4,0.4,0.5,0.7,0.5,1.2C245.3,1164.3,245.1,1164.6,244.8,1165z"/>
		<path class="st2" d="M173.8,1107h-13.9c-0.7,0-1.2,0.5-1.2,1.2v20.2c0,0.7,0.5,1.2,1.2,1.2h13.9c0.7,0,1.2-0.5,1.2-1.2v-20.2
			C175,1107.5,174.5,1107,173.8,1107z M172.5,1127.2h-11.2v-17.5h11.2V1127.2L172.5,1127.2z"/>
		<path class="st2" d="M173.8,1132.2h-13.9c-0.7,0-1.2,0.5-1.2,1.2s0.5,1.2,1.2,1.2h13.9c0.7,0,1.2-0.5,1.2-1.2
			S174.5,1132.2,173.8,1132.2z"/>
		<path class="st2" d="M173.8,1137.1h-13.9c-0.7,0-1.2,0.5-1.2,1.2c0,0.7,0.5,1.2,1.2,1.2h13.9c0.7,0,1.2-0.5,1.2-1.2
			C175,1137.6,174.5,1137.1,173.8,1137.1z"/>
		<path class="st2" d="M173.8,1142.1h-13.9c-0.7,0-1.2,0.5-1.2,1.2c0,0.7,0.5,1.2,1.2,1.2h13.9c0.7,0,1.2-0.5,1.2-1.2
			C175,1142.6,174.5,1142.1,173.8,1142.1z"/>
		<path class="st2" d="M173.8,1147.3h-13.9c-0.7,0-1.2,0.5-1.2,1.2c0,0.7,0.5,1.2,1.2,1.2h13.9c0.7,0,1.2-0.5,1.2-1.2
			C175,1147.8,174.5,1147.3,173.8,1147.3z"/>
		<path class="st2" d="M173.8,1152.3h-13.9c-0.7,0-1.2,0.5-1.2,1.2c0,0.7,0.5,1.2,1.2,1.2h13.9c0.7,0,1.2-0.5,1.2-1.2
			C175,1152.8,174.5,1152.3,173.8,1152.3z"/>
		<path class="st2" d="M173.8,1157.3h-13.9c-0.7,0-1.2,0.5-1.2,1.2c0,0.7,0.5,1.2,1.2,1.2h13.9c0.7,0,1.2-0.5,1.2-1.2
			C175,1157.8,174.5,1157.3,173.8,1157.3z"/>
		<path class="st2" d="M173.8,1162.3h-13.9c-0.7,0-1.2,0.5-1.2,1.2c0,0.7,0.5,1.2,1.2,1.2h13.9c0.7,0,1.2-0.5,1.2-1.2
			C175,1162.8,174.5,1162.3,173.8,1162.3z"/>
		<path class="st2" d="M173.8,1167.3h-13.9c-0.7,0-1.2,0.5-1.2,1.2c0,0.7,0.5,1.2,1.2,1.2h13.9c0.7,0,1.2-0.5,1.2-1.2
			C175,1167.8,174.5,1167.3,173.8,1167.3z"/>
		<path class="st2" d="M173.8,1172.3h-13.9c-0.7,0-1.2,0.5-1.2,1.2c0,0.7,0.5,1.2,1.2,1.2h13.9c0.7,0,1.2-0.5,1.2-1.2
			C175,1172.8,174.5,1172.3,173.8,1172.3z"/>
		<path class="st2" d="M173.8,1177.5h-13.9c-0.7,0-1.2,0.5-1.2,1.2c0,0.7,0.5,1.2,1.2,1.2h13.9c0.7,0,1.2-0.5,1.2-1.2
			C175,1178,174.5,1177.5,173.8,1177.5z"/>
		<path class="st2" d="M173.8,1182.5h-13.9c-0.7,0-1.2,0.5-1.2,1.2c0,0.7,0.5,1.2,1.2,1.2h13.9c0.7,0,1.2-0.5,1.2-1.2
			C175,1183,174.5,1182.5,173.8,1182.5z"/>
		<path class="st2" d="M173.8,1187.5h-13.9c-0.7,0-1.2,0.5-1.2,1.2c0,0.7,0.5,1.2,1.2,1.2h13.9c0.7,0,1.2-0.5,1.2-1.2
			C175,1188,174.5,1187.5,173.8,1187.5z"/>
		<path class="st2" d="M173.8,1192.5h-13.9c-0.7,0-1.2,0.5-1.2,1.2c0,0.7,0.5,1.2,1.2,1.2h13.9c0.7,0,1.2-0.5,1.2-1.2
			C175,1193,174.5,1192.5,173.8,1192.5z"/>
		<path class="st2" d="M180.9,1109.5h13.9c0.7,0,1.2-0.5,1.2-1.2c0-0.7-0.5-1.2-1.2-1.2h-13.9c-0.7,0-1.2,0.5-1.2,1.2
			C179.7,1109,180.2,1109.5,180.9,1109.5z"/>
		<path class="st2" d="M180.9,1114.7h13.9c0.7,0,1.2-0.5,1.2-1.2s-0.5-1.2-1.2-1.2h-13.9c-0.7,0-1.2,0.5-1.2,1.2
			S180.2,1114.7,180.9,1114.7z"/>
		<path class="st2" d="M180.9,1154.8h13.9c0.7,0,1.2-0.5,1.2-1.2c0-0.7-0.5-1.2-1.2-1.2h-13.9c-0.7,0-1.2,0.5-1.2,1.2
			C179.7,1154.3,180.2,1154.8,180.9,1154.8z"/>
		<path class="st2" d="M179.7,1158.6v25.2c0,0.7,0.5,1.2,1.2,1.2h35c0.7,0,1.2-0.5,1.2-1.2v-25.2c0-0.7-0.5-1.2-1.2-1.2h-35
			C180.2,1157.3,179.7,1157.8,179.7,1158.6z M182.3,1159.8h32.3v22.5h-32.3V1159.8z"/>
		<path class="st2" d="M194.8,1187.5h-13.9c-0.7,0-1.2,0.5-1.2,1.2c0,0.7,0.5,1.2,1.2,1.2h13.9c0.7,0,1.2-0.5,1.2-1.2
			C196,1188,195.5,1187.5,194.8,1187.5z"/>
		<path class="st2" d="M194.8,1192.5h-13.9c-0.7,0-1.2,0.5-1.2,1.2c0,0.7,0.5,1.2,1.2,1.2h13.9c0.7,0,1.2-0.5,1.2-1.2
			C196,1193,195.5,1192.5,194.8,1192.5z"/>
		<path class="st2" d="M202,1109.5h13.9c0.7,0,1.2-0.5,1.2-1.2c0-0.7-0.5-1.2-1.2-1.2H202c-0.7,0-1.2,0.5-1.2,1.2
			C200.8,1109,201.2,1109.5,202,1109.5z"/>
		<path class="st2" d="M215.9,1187.5H202c-0.7,0-1.2,0.5-1.2,1.2c0,0.7,0.5,1.2,1.2,1.2h13.9c0.7,0,1.2-0.5,1.2-1.2
			C217.1,1188,216.6,1187.5,215.9,1187.5z"/>
		<path class="st2" d="M215.9,1192.5H202c-0.7,0-1.2,0.5-1.2,1.2c0,0.7,0.5,1.2,1.2,1.2h13.9c0.7,0,1.2-0.5,1.2-1.2
			C217.1,1193,216.6,1192.5,215.9,1192.5z"/>
	</g>
</g>
<g id="seta_8_">
	<line id="linha_12_" class="st3" x1="287.1" y1="1732.3" x2="287.1" y2="1807.4"/>
	<polygon id="triangulo_12_" class="st4" points="286.9,1810.9 291.5,1802.8 282.2,1802.8 	"/>
</g>
<path class="st1" d="M483.7,1732.8H116.3c-6.6,0-12-5.4-12-12V1608c0-6.6,5.4-12,12-12h367.3c6.6,0,12,5.4,12,12v112.9
	C495.7,1727.4,490.3,1732.8,483.7,1732.8z"/>
<rect x="258.9" y="1651.2" class="st5" width="204.5" height="46.4"/>
<text transform="matrix(1 0 0 1 258.8955 1664.7644)" class="st10 st8">Revisores avaliam artigo</text>
<g>
	<g>
		<path class="st2" d="M200.7,1634.4c-7,7-7,18.2,0,25.2c3.4,3.4,8,5.2,12.5,5.2s9.1-1.8,12.5-5.2c7-7,7-18.2,0-25.2
			C218.9,1627.5,207.5,1627.5,200.7,1634.4z M223.9,1657.8c-5.9,5.9-15.5,5.9-21.4,0s-5.9-15.5,0-21.4c3-3,6.8-4.5,10.7-4.5
			s7.9,1.4,10.7,4.5C229.8,1642.1,229.8,1651.7,223.9,1657.8z"/>
		<path class="st2" d="M201.6,1650.6c0.7-0.2,1.1-0.9,1.1-1.6c-0.2-0.7-0.2-1.4-0.2-2.1c0-0.7-0.5-1.2-1.2-1.2s-1.2,0.5-1.2,1.2
			c0,0.9,0.2,1.8,0.4,2.7C200.5,1650.1,201.1,1650.6,201.6,1650.6C201.4,1650.6,201.6,1650.6,201.6,1650.6z"/>
		<path class="st2" d="M213.2,1657.8c-3.9,0-7.5-2.1-9.5-5.5c-0.4-0.5-1.1-0.9-1.8-0.5c-0.5,0.4-0.9,1.1-0.5,1.8
			c2.3,4.3,6.8,7,11.6,7c0.7,0,1.2-0.5,1.2-1.2C214.2,1658.7,213.9,1657.8,213.2,1657.8z"/>
		<path class="st2" d="M223.7,1644.8c0.2,0.7,0.2,1.4,0.2,2.1c0,0.7,0.5,1.2,1.2,1.2s1.2-0.5,1.2-1.2c0-0.9-0.2-1.8-0.4-2.7
			c-0.2-0.7-0.9-1.1-1.6-1.1C224.1,1643.5,223.5,1644,223.7,1644.8z"/>
		<path class="st2" d="M212,1634.9c0,0.7,0.5,1.2,1.2,1.2c3.7,0,7.1,2,9.3,5.2c0.2,0.4,0.7,0.5,1.1,0.5c0.2,0,0.5,0,0.7-0.2
			c0.5-0.4,0.7-1.2,0.4-1.8c-2.5-3.9-6.8-6.4-11.4-6.4C212.5,1633.7,212,1634.2,212,1634.9z"/>
		<path class="st2" d="M246.6,1674.4l-14.6-14.6c6.1-8.7,5-20.9-2.7-28.7c-1.1-1.1-2.1-2-3.4-2.9V1615c0-0.7-0.5-1.2-1.2-1.2h-72.3
			c-0.7,0-1.2,0.5-1.2,1.2v98.9c0,0.7,0.5,1.2,1.2,1.2h72.1c0.7,0,1.2-0.5,1.2-1.2v-48.2c0,0,0.2,0,0.2-0.2l14.6,14.6
			c0.9,0.9,2,1.2,3,1.2c1.1,0,2.1-0.4,3-1.2c0.7-0.7,1.2-1.8,1.2-3C247.8,1676.2,247.5,1675.1,246.6,1674.4z M227.3,1661.2
			c-3.7,3.7-8.7,5.9-14.1,5.9s-10.3-2.1-14.1-5.9c-3.7-3.7-5.9-8.7-5.9-14.1c0-5.4,2.1-10.3,5.9-14.1c3.7-3.7,8.7-5.9,14.1-5.9
			s10.3,2.1,14.1,5.9C235.1,1640.7,235.1,1653.3,227.3,1661.2z M223.2,1712.6h-69.4v-96.4h69.4v10.3c-3-1.4-6.4-2.3-10-2.3
			c-2.5,0-4.8,0.4-7.1,1.1h-3.9c-0.7,0-1.2,0.5-1.2,1.2c0,0.4,0.2,0.7,0.5,1.1c-1.4,0.9-2.7,2-3.9,3.2c-0.4,0.4-0.7,0.9-1.2,1.2
			c0-0.2,0-0.2,0-0.4c0-0.7-0.5-1.2-1.2-1.2h-14.1c-0.7,0-1.2,0.5-1.2,1.2c0,0.7,0.5,1.2,1.2,1.2H195c0.2,0,0.4,0,0.7-0.2
			c-0.7,0.9-1.2,1.8-1.8,2.7h-12.8c-0.7,0-1.2,0.5-1.2,1.2c0,0.7,0.5,1.2,1.2,1.2h11.4c-0.4,0.7-0.7,1.6-0.9,2.5h-10.5
			c-0.7,0-1.2,0.5-1.2,1.2c0,0.7,0.5,1.2,1.2,1.2h10c-0.2,0.9-0.2,1.6-0.4,2.5h-9.6c-0.7,0-1.2,0.5-1.2,1.2c0,0.7,0.5,1.2,1.2,1.2
			h9.6c0,0.9,0.2,1.6,0.2,2.5h-9.8c-0.7,0-1.2,0.5-1.2,1.2c0,0.7,0.5,1.2,1.2,1.2h10.5c0.2,0.9,0.5,1.6,0.9,2.5h-11.4
			c-0.7,0-1.2,0.5-1.2,1.2c0,0.7,0.5,1.2,1.2,1.2h12.7c0.5,0.9,1.1,1.8,1.8,2.5c-0.2,0-0.4-0.2-0.5-0.2h-13.9
			c-0.7,0-1.2,0.5-1.2,1.2c0,0.7,0.5,1.2,1.2,1.2h13.9c0.7,0,1.2-0.5,1.2-1.2c0-0.2,0-0.2,0-0.4c0.4,0.4,0.7,0.9,1.1,1.2
			c1.2,1.2,2.5,2.3,3.9,3.2c-0.2,0.2-0.4,0.5-0.4,0.9c0,0.7,0.5,1.2,1.2,1.2h3.7c2.3,0.9,4.8,1.2,7.5,1.2c3.6,0,7-0.7,10-2.3
			L223.2,1712.6L223.2,1712.6z M244.8,1678.5c-0.7,0.7-1.8,0.7-2.3,0L228,1664c0.4-0.4,0.9-0.7,1.2-1.1c0.4-0.4,0.7-0.9,1.1-1.2
			l14.5,14.5c0.4,0.4,0.5,0.7,0.5,1.2C245.3,1677.8,245.1,1678.1,244.8,1678.5z"/>
		<path class="st2" d="M173.8,1620.5h-13.9c-0.7,0-1.2,0.5-1.2,1.2v20.2c0,0.7,0.5,1.2,1.2,1.2h13.9c0.7,0,1.2-0.5,1.2-1.2v-20.2
			C175,1621,174.5,1620.5,173.8,1620.5z M172.5,1640.7h-11.2v-17.5h11.2V1640.7L172.5,1640.7z"/>
		<path class="st2" d="M173.8,1645.7h-13.9c-0.7,0-1.2,0.5-1.2,1.2c0,0.7,0.5,1.2,1.2,1.2h13.9c0.7,0,1.2-0.5,1.2-1.2
			C175,1646.2,174.5,1645.7,173.8,1645.7z"/>
		<path class="st2" d="M173.8,1650.6h-13.9c-0.7,0-1.2,0.5-1.2,1.2c0,0.7,0.5,1.2,1.2,1.2h13.9c0.7,0,1.2-0.5,1.2-1.2
			C175,1651.1,174.5,1650.6,173.8,1650.6z"/>
		<path class="st2" d="M173.8,1655.6h-13.9c-0.7,0-1.2,0.5-1.2,1.2c0,0.7,0.5,1.2,1.2,1.2h13.9c0.7,0,1.2-0.5,1.2-1.2
			C175,1656.1,174.5,1655.6,173.8,1655.6z"/>
		<path class="st2" d="M173.8,1660.8h-13.9c-0.7,0-1.2,0.5-1.2,1.2c0,0.7,0.5,1.2,1.2,1.2h13.9c0.7,0,1.2-0.5,1.2-1.2
			C175,1661.3,174.5,1660.8,173.8,1660.8z"/>
		<path class="st2" d="M173.8,1665.8h-13.9c-0.7,0-1.2,0.5-1.2,1.2c0,0.7,0.5,1.2,1.2,1.2h13.9c0.7,0,1.2-0.5,1.2-1.2
			C175,1666.3,174.5,1665.8,173.8,1665.8z"/>
		<path class="st2" d="M173.8,1670.8h-13.9c-0.7,0-1.2,0.5-1.2,1.2c0,0.7,0.5,1.2,1.2,1.2h13.9c0.7,0,1.2-0.5,1.2-1.2
			C175,1671.3,174.5,1670.8,173.8,1670.8z"/>
		<path class="st2" d="M173.8,1675.8h-13.9c-0.7,0-1.2,0.5-1.2,1.2c0,0.7,0.5,1.2,1.2,1.2h13.9c0.7,0,1.2-0.5,1.2-1.2
			C175,1676.3,174.5,1675.8,173.8,1675.8z"/>
		<path class="st2" d="M173.8,1680.8h-13.9c-0.7,0-1.2,0.5-1.2,1.2c0,0.7,0.5,1.2,1.2,1.2h13.9c0.7,0,1.2-0.5,1.2-1.2
			C175,1681.3,174.5,1680.8,173.8,1680.8z"/>
		<path class="st2" d="M173.8,1685.8h-13.9c-0.7,0-1.2,0.5-1.2,1.2c0,0.7,0.5,1.2,1.2,1.2h13.9c0.7,0,1.2-0.5,1.2-1.2
			C175,1686.3,174.5,1685.8,173.8,1685.8z"/>
		<path class="st2" d="M173.8,1691h-13.9c-0.7,0-1.2,0.5-1.2,1.2c0,0.7,0.5,1.2,1.2,1.2h13.9c0.7,0,1.2-0.5,1.2-1.2
			C175,1691.5,174.5,1691,173.8,1691z"/>
		<path class="st2" d="M173.8,1696h-13.9c-0.7,0-1.2,0.5-1.2,1.2c0,0.7,0.5,1.2,1.2,1.2h13.9c0.7,0,1.2-0.5,1.2-1.2
			C175,1696.5,174.5,1696,173.8,1696z"/>
		<path class="st2" d="M173.8,1701h-13.9c-0.7,0-1.2,0.5-1.2,1.2c0,0.7,0.5,1.2,1.2,1.2h13.9c0.7,0,1.2-0.5,1.2-1.2
			C175,1701.5,174.5,1701,173.8,1701z"/>
		<path class="st2" d="M173.8,1706h-13.9c-0.7,0-1.2,0.5-1.2,1.2c0,0.7,0.5,1.2,1.2,1.2h13.9c0.7,0,1.2-0.5,1.2-1.2
			C175,1706.5,174.5,1706,173.8,1706z"/>
		<path class="st2" d="M180.9,1623h13.9c0.7,0,1.2-0.5,1.2-1.2c0-0.7-0.5-1.2-1.2-1.2h-13.9c-0.7,0-1.2,0.5-1.2,1.2
			C179.7,1622.5,180.2,1623,180.9,1623z"/>
		<path class="st2" d="M180.9,1628.2h13.9c0.7,0,1.2-0.5,1.2-1.2c0-0.7-0.5-1.2-1.2-1.2h-13.9c-0.7,0-1.2,0.5-1.2,1.2
			C179.7,1627.7,180.2,1628.2,180.9,1628.2z"/>
		<path class="st2" d="M180.9,1668.3h13.9c0.7,0,1.2-0.5,1.2-1.2c0-0.7-0.5-1.2-1.2-1.2h-13.9c-0.7,0-1.2,0.5-1.2,1.2
			C179.7,1667.8,180.2,1668.3,180.9,1668.3z"/>
		<path class="st2" d="M179.7,1672.1v25.2c0,0.7,0.5,1.2,1.2,1.2h35c0.7,0,1.2-0.5,1.2-1.2v-25.2c0-0.7-0.5-1.2-1.2-1.2h-35
			C180.2,1670.8,179.7,1671.3,179.7,1672.1z M182.3,1673.3h32.3v22.5h-32.3V1673.3z"/>
		<path class="st2" d="M194.8,1701h-13.9c-0.7,0-1.2,0.5-1.2,1.2c0,0.7,0.5,1.2,1.2,1.2h13.9c0.7,0,1.2-0.5,1.2-1.2
			C196,1701.5,195.5,1701,194.8,1701z"/>
		<path class="st2" d="M194.8,1706h-13.9c-0.7,0-1.2,0.5-1.2,1.2c0,0.7,0.5,1.2,1.2,1.2h13.9c0.7,0,1.2-0.5,1.2-1.2
			C196,1706.5,195.5,1706,194.8,1706z"/>
		<path class="st2" d="M202,1623h13.9c0.7,0,1.2-0.5,1.2-1.2c0-0.7-0.5-1.2-1.2-1.2H202c-0.7,0-1.2,0.5-1.2,1.2
			C200.8,1622.5,201.2,1623,202,1623z"/>
		<path class="st2" d="M215.9,1701H202c-0.7,0-1.2,0.5-1.2,1.2c0,0.7,0.5,1.2,1.2,1.2h13.9c0.7,0,1.2-0.5,1.2-1.2
			C217.1,1701.5,216.6,1701,215.9,1701z"/>
		<path class="st2" d="M215.9,1706H202c-0.7,0-1.2,0.5-1.2,1.2c0,0.7,0.5,1.2,1.2,1.2h13.9c0.7,0,1.2-0.5,1.2-1.2
			C217.1,1706.5,216.6,1706,215.9,1706z"/>
	</g>
</g>
<path class="st1" d="M483.7,1961.9H116.3c-6.6,0-12-5.4-12-12v-112.8c0-6.6,5.4-12,12-12h367.3c6.6,0,12,5.4,12,12V1950
	C495.7,1956.5,490.3,1961.9,483.7,1961.9z"/>
<rect x="258.9" y="1880.2" class="st5" width="204.5" height="46.4"/>
<text transform="matrix(1 0 0 1 258.8955 1893.804)" class="st11"><tspan x="0" y="0" class="st10 st8">Editor analisa parecer </tspan><tspan x="0" y="19.2" class="st10 st8">dos revisores</tspan></text>
<g>
	<g>
		<path class="st2" d="M200.7,1863.5c-7,7-7,18.2,0,25.2c3.4,3.4,8,5.2,12.5,5.2s9.1-1.8,12.5-5.2c7-7,7-18.2,0-25.2
			C218.9,1856.6,207.5,1856.6,200.7,1863.5z M223.9,1886.9c-5.9,5.9-15.5,5.9-21.4,0c-5.9-5.9-5.9-15.5,0-21.4c3-3,6.8-4.5,10.7-4.5
			s7.9,1.4,10.7,4.5C229.8,1871.2,229.8,1880.8,223.9,1886.9z"/>
		<path class="st2" d="M201.6,1879.7c0.7-0.2,1.1-0.9,1.1-1.6c-0.2-0.7-0.2-1.4-0.2-2.1c0-0.7-0.5-1.2-1.2-1.2s-1.2,0.5-1.2,1.2
			c0,0.9,0.2,1.8,0.4,2.7C200.5,1879.2,201.1,1879.7,201.6,1879.7C201.4,1879.7,201.6,1879.7,201.6,1879.7z"/>
		<path class="st2" d="M213.2,1886.9c-3.9,0-7.5-2.1-9.5-5.5c-0.4-0.5-1.1-0.9-1.8-0.5c-0.5,0.4-0.9,1.1-0.5,1.8
			c2.3,4.3,6.8,7,11.6,7c0.7,0,1.2-0.5,1.2-1.2C214.2,1887.8,213.9,1886.9,213.2,1886.9z"/>
		<path class="st2" d="M223.7,1873.9c0.2,0.7,0.2,1.4,0.2,2.1c0,0.7,0.5,1.2,1.2,1.2s1.2-0.5,1.2-1.2c0-0.9-0.2-1.8-0.4-2.7
			c-0.2-0.7-0.9-1.1-1.6-1.1C224.1,1872.6,223.5,1873.1,223.7,1873.9z"/>
		<path class="st2" d="M212,1864c0,0.7,0.5,1.2,1.2,1.2c3.7,0,7.1,2,9.3,5.2c0.2,0.4,0.7,0.5,1.1,0.5c0.2,0,0.5,0,0.7-0.2
			c0.5-0.4,0.7-1.2,0.4-1.8c-2.5-3.9-6.8-6.4-11.4-6.4C212.5,1862.8,212,1863.3,212,1864z"/>
		<path class="st2" d="M246.6,1903.5l-14.6-14.6c6.1-8.7,5-20.9-2.7-28.7c-1.1-1.1-2.1-2-3.4-2.9v-13.2c0-0.7-0.5-1.2-1.2-1.2h-72.3
			c-0.7,0-1.2,0.5-1.2,1.2v98.9c0,0.7,0.5,1.2,1.2,1.2h72.1c0.7,0,1.2-0.5,1.2-1.2v-48.2c0,0,0.2,0,0.2-0.2l14.6,14.6
			c0.9,0.9,2,1.2,3,1.2c1.1,0,2.1-0.4,3-1.2c0.7-0.7,1.2-1.8,1.2-3C247.8,1905.3,247.5,1904.2,246.6,1903.5z M227.3,1890.3
			c-3.7,3.7-8.7,5.9-14.1,5.9s-10.3-2.1-14.1-5.9c-3.7-3.7-5.9-8.7-5.9-14.1s2.1-10.3,5.9-14.1c3.7-3.7,8.7-5.9,14.1-5.9
			s10.3,2.1,14.1,5.9C235.1,1869.8,235.1,1882.4,227.3,1890.3z M223.2,1941.7h-69.4v-96.4h69.4v10.3c-3-1.4-6.4-2.3-10-2.3
			c-2.5,0-4.8,0.4-7.1,1.1h-3.9c-0.7,0-1.2,0.5-1.2,1.2c0,0.4,0.2,0.7,0.5,1.1c-1.4,0.9-2.7,2-3.9,3.2c-0.4,0.4-0.7,0.9-1.2,1.2
			c0-0.2,0-0.2,0-0.4c0-0.7-0.5-1.2-1.2-1.2h-14.1c-0.7,0-1.2,0.5-1.2,1.2c0,0.7,0.5,1.2,1.2,1.2H195c0.2,0,0.4,0,0.7-0.2
			c-0.7,0.9-1.2,1.8-1.8,2.7h-12.8c-0.7,0-1.2,0.5-1.2,1.2c0,0.7,0.5,1.2,1.2,1.2h11.4c-0.4,0.7-0.7,1.6-0.9,2.5h-10.5
			c-0.7,0-1.2,0.5-1.2,1.2c0,0.7,0.5,1.2,1.2,1.2h10c-0.2,0.9-0.2,1.6-0.4,2.5h-9.6c-0.7,0-1.2,0.5-1.2,1.2c0,0.7,0.5,1.2,1.2,1.2
			h9.6c0,0.9,0.2,1.6,0.2,2.5h-9.8c-0.7,0-1.2,0.5-1.2,1.2c0,0.7,0.5,1.2,1.2,1.2h10.5c0.2,0.9,0.5,1.6,0.9,2.5h-11.4
			c-0.7,0-1.2,0.5-1.2,1.2c0,0.7,0.5,1.2,1.2,1.2h12.7c0.5,0.9,1.1,1.8,1.8,2.5c-0.2,0-0.4-0.2-0.5-0.2h-13.9
			c-0.7,0-1.2,0.5-1.2,1.2c0,0.7,0.5,1.2,1.2,1.2h13.9c0.7,0,1.2-0.5,1.2-1.2c0-0.2,0-0.2,0-0.4c0.4,0.4,0.7,0.9,1.1,1.2
			c1.2,1.2,2.5,2.3,3.9,3.2c-0.2,0.2-0.4,0.5-0.4,0.9c0,0.7,0.5,1.2,1.2,1.2h3.7c2.3,0.9,4.8,1.2,7.5,1.2c3.6,0,7-0.7,10-2.3
			L223.2,1941.7L223.2,1941.7z M244.8,1907.6c-0.7,0.7-1.8,0.7-2.3,0l-14.5-14.5c0.4-0.4,0.9-0.7,1.2-1.1c0.4-0.4,0.7-0.9,1.1-1.2
			l14.5,14.5c0.4,0.4,0.5,0.7,0.5,1.2C245.3,1906.9,245.1,1907.2,244.8,1907.6z"/>
		<path class="st2" d="M173.8,1849.6h-13.9c-0.7,0-1.2,0.5-1.2,1.2v20.2c0,0.7,0.5,1.2,1.2,1.2h13.9c0.7,0,1.2-0.5,1.2-1.2v-20.2
			C175,1850.1,174.5,1849.6,173.8,1849.6z M172.5,1869.8h-11.2v-17.5h11.2V1869.8L172.5,1869.8z"/>
		<path class="st2" d="M173.8,1874.8h-13.9c-0.7,0-1.2,0.5-1.2,1.2c0,0.7,0.5,1.2,1.2,1.2h13.9c0.7,0,1.2-0.5,1.2-1.2
			C175,1875.3,174.5,1874.8,173.8,1874.8z"/>
		<path class="st2" d="M173.8,1879.7h-13.9c-0.7,0-1.2,0.5-1.2,1.2c0,0.7,0.5,1.2,1.2,1.2h13.9c0.7,0,1.2-0.5,1.2-1.2
			C175,1880.2,174.5,1879.7,173.8,1879.7z"/>
		<path class="st2" d="M173.8,1884.7h-13.9c-0.7,0-1.2,0.5-1.2,1.2c0,0.7,0.5,1.2,1.2,1.2h13.9c0.7,0,1.2-0.5,1.2-1.2
			C175,1885.2,174.5,1884.7,173.8,1884.7z"/>
		<path class="st2" d="M173.8,1889.9h-13.9c-0.7,0-1.2,0.5-1.2,1.2c0,0.7,0.5,1.2,1.2,1.2h13.9c0.7,0,1.2-0.5,1.2-1.2
			C175,1890.4,174.5,1889.9,173.8,1889.9z"/>
		<path class="st2" d="M173.8,1894.9h-13.9c-0.7,0-1.2,0.5-1.2,1.2c0,0.7,0.5,1.2,1.2,1.2h13.9c0.7,0,1.2-0.5,1.2-1.2
			C175,1895.4,174.5,1894.9,173.8,1894.9z"/>
		<path class="st2" d="M173.8,1899.9h-13.9c-0.7,0-1.2,0.5-1.2,1.2c0,0.7,0.5,1.2,1.2,1.2h13.9c0.7,0,1.2-0.5,1.2-1.2
			C175,1900.4,174.5,1899.9,173.8,1899.9z"/>
		<path class="st2" d="M173.8,1904.9h-13.9c-0.7,0-1.2,0.5-1.2,1.2c0,0.7,0.5,1.2,1.2,1.2h13.9c0.7,0,1.2-0.5,1.2-1.2
			C175,1905.4,174.5,1904.9,173.8,1904.9z"/>
		<path class="st2" d="M173.8,1909.9h-13.9c-0.7,0-1.2,0.5-1.2,1.2c0,0.7,0.5,1.2,1.2,1.2h13.9c0.7,0,1.2-0.5,1.2-1.2
			C175,1910.4,174.5,1909.9,173.8,1909.9z"/>
		<path class="st2" d="M173.8,1914.9h-13.9c-0.7,0-1.2,0.5-1.2,1.2c0,0.7,0.5,1.2,1.2,1.2h13.9c0.7,0,1.2-0.5,1.2-1.2
			C175,1915.4,174.5,1914.9,173.8,1914.9z"/>
		<path class="st2" d="M173.8,1920.1h-13.9c-0.7,0-1.2,0.5-1.2,1.2c0,0.7,0.5,1.2,1.2,1.2h13.9c0.7,0,1.2-0.5,1.2-1.2
			C175,1920.6,174.5,1920.1,173.8,1920.1z"/>
		<path class="st2" d="M173.8,1925.1h-13.9c-0.7,0-1.2,0.5-1.2,1.2c0,0.7,0.5,1.2,1.2,1.2h13.9c0.7,0,1.2-0.5,1.2-1.2
			C175,1925.6,174.5,1925.1,173.8,1925.1z"/>
		<path class="st2" d="M173.8,1930.1h-13.9c-0.7,0-1.2,0.5-1.2,1.2c0,0.7,0.5,1.2,1.2,1.2h13.9c0.7,0,1.2-0.5,1.2-1.2
			C175,1930.6,174.5,1930.1,173.8,1930.1z"/>
		<path class="st2" d="M173.8,1935.1h-13.9c-0.7,0-1.2,0.5-1.2,1.2c0,0.7,0.5,1.2,1.2,1.2h13.9c0.7,0,1.2-0.5,1.2-1.2
			C175,1935.6,174.5,1935.1,173.8,1935.1z"/>
		<path class="st2" d="M180.9,1852.1h13.9c0.7,0,1.2-0.5,1.2-1.2c0-0.7-0.5-1.2-1.2-1.2h-13.9c-0.7,0-1.2,0.5-1.2,1.2
			C179.7,1851.6,180.2,1852.1,180.9,1852.1z"/>
		<path class="st2" d="M180.9,1857.3h13.9c0.7,0,1.2-0.5,1.2-1.2c0-0.7-0.5-1.2-1.2-1.2h-13.9c-0.7,0-1.2,0.5-1.2,1.2
			C179.7,1856.8,180.2,1857.3,180.9,1857.3z"/>
		<path class="st2" d="M180.9,1897.4h13.9c0.7,0,1.2-0.5,1.2-1.2c0-0.7-0.5-1.2-1.2-1.2h-13.9c-0.7,0-1.2,0.5-1.2,1.2
			C179.7,1896.9,180.2,1897.4,180.9,1897.4z"/>
		<path class="st2" d="M179.7,1901.2v25.2c0,0.7,0.5,1.2,1.2,1.2h35c0.7,0,1.2-0.5,1.2-1.2v-25.2c0-0.7-0.5-1.2-1.2-1.2h-35
			C180.2,1899.9,179.7,1900.4,179.7,1901.2z M182.3,1902.4h32.3v22.5h-32.3V1902.4z"/>
		<path class="st2" d="M194.8,1930.1h-13.9c-0.7,0-1.2,0.5-1.2,1.2c0,0.7,0.5,1.2,1.2,1.2h13.9c0.7,0,1.2-0.5,1.2-1.2
			C196,1930.6,195.5,1930.1,194.8,1930.1z"/>
		<path class="st2" d="M194.8,1935.1h-13.9c-0.7,0-1.2,0.5-1.2,1.2c0,0.7,0.5,1.2,1.2,1.2h13.9c0.7,0,1.2-0.5,1.2-1.2
			C196,1935.6,195.5,1935.1,194.8,1935.1z"/>
		<path class="st2" d="M202,1852.1h13.9c0.7,0,1.2-0.5,1.2-1.2c0-0.7-0.5-1.2-1.2-1.2H202c-0.7,0-1.2,0.5-1.2,1.2
			C200.8,1851.6,201.2,1852.1,202,1852.1z"/>
		<path class="st2" d="M215.9,1930.1H202c-0.7,0-1.2,0.5-1.2,1.2c0,0.7,0.5,1.2,1.2,1.2h13.9c0.7,0,1.2-0.5,1.2-1.2
			C217.1,1930.6,216.6,1930.1,215.9,1930.1z"/>
		<path class="st2" d="M215.9,1935.1H202c-0.7,0-1.2,0.5-1.2,1.2c0,0.7,0.5,1.2,1.2,1.2h13.9c0.7,0,1.2-0.5,1.2-1.2
			C217.1,1935.6,216.6,1935.1,215.9,1935.1z"/>
	</g>
</g>
<g>
	<g>
		<path class="st2" d="M173.8,125.4h-13.9c-0.7,0-1.2,0.5-1.2,1.2v20.2c0,0.7,0.5,1.2,1.2,1.2h13.9c0.7,0,1.2-0.5,1.2-1.2v-20.2
			C175,125.9,174.5,125.4,173.8,125.4z M172.5,145.6h-11.2v-17.5h11.2V145.6L172.5,145.6z"/>
		<path class="st2" d="M173.8,150.6h-13.9c-0.7,0-1.2,0.5-1.2,1.2s0.5,1.2,1.2,1.2h13.9c0.7,0,1.2-0.5,1.2-1.2
			S174.5,150.6,173.8,150.6z"/>
		<path class="st2" d="M173.8,155.6h-13.9c-0.7,0-1.2,0.5-1.2,1.2s0.5,1.2,1.2,1.2h13.9c0.7,0,1.2-0.5,1.2-1.2
			S174.5,155.6,173.8,155.6z"/>
		<path class="st2" d="M173.8,160.6h-13.9c-0.7,0-1.2,0.5-1.2,1.2s0.5,1.2,1.2,1.2h13.9c0.7,0,1.2-0.5,1.2-1.2
			S174.5,160.6,173.8,160.6z"/>
		<path class="st2" d="M173.8,165.7h-13.9c-0.7,0-1.2,0.5-1.2,1.2s0.5,1.2,1.2,1.2h13.9c0.7,0,1.2-0.5,1.2-1.2
			C175,166.3,174.5,165.7,173.8,165.7z"/>
		<path class="st2" d="M173.8,170.7h-13.9c-0.7,0-1.2,0.5-1.2,1.2s0.5,1.2,1.2,1.2h13.9c0.7,0,1.2-0.5,1.2-1.2
			C175,171.3,174.5,170.7,173.8,170.7z"/>
		<path class="st2" d="M173.8,175.7h-13.9c-0.7,0-1.2,0.5-1.2,1.2s0.5,1.2,1.2,1.2h13.9c0.7,0,1.2-0.5,1.2-1.2
			S174.5,175.7,173.8,175.7z"/>
		<path class="st2" d="M173.8,180.7h-13.9c-0.7,0-1.2,0.5-1.2,1.2s0.5,1.2,1.2,1.2h13.9c0.7,0,1.2-0.5,1.2-1.2
			C175,181.3,174.5,180.7,173.8,180.7z"/>
		<path class="st2" d="M173.8,185.7h-13.9c-0.7,0-1.2,0.5-1.2,1.2s0.5,1.2,1.2,1.2h13.9c0.7,0,1.2-0.5,1.2-1.2
			S174.5,185.7,173.8,185.7z"/>
		<path class="st2" d="M173.8,190.7h-13.9c-0.7,0-1.2,0.5-1.2,1.2s0.5,1.2,1.2,1.2h13.9c0.7,0,1.2-0.5,1.2-1.2
			S174.5,190.7,173.8,190.7z"/>
		<path class="st2" d="M173.8,195.9h-13.9c-0.7,0-1.2,0.5-1.2,1.2s0.5,1.2,1.2,1.2h13.9c0.7,0,1.2-0.5,1.2-1.2
			S174.5,195.9,173.8,195.9z"/>
		<path class="st2" d="M173.8,200.9h-13.9c-0.7,0-1.2,0.5-1.2,1.2s0.5,1.2,1.2,1.2h13.9c0.7,0,1.2-0.5,1.2-1.2
			S174.5,200.9,173.8,200.9z"/>
		<path class="st2" d="M173.8,205.9h-13.9c-0.7,0-1.2,0.5-1.2,1.2s0.5,1.2,1.2,1.2h13.9c0.7,0,1.2-0.5,1.2-1.2
			S174.5,205.9,173.8,205.9z"/>
		<path class="st2" d="M173.8,210.9h-13.9c-0.7,0-1.2,0.5-1.2,1.2s0.5,1.2,1.2,1.2h13.9c0.7,0,1.2-0.5,1.2-1.2
			S174.5,210.9,173.8,210.9z"/>
		<path class="st2" d="M180.9,127.9h13.9c0.7,0,1.2-0.5,1.2-1.2s-0.5-1.2-1.2-1.2h-13.9c-0.7,0-1.2,0.5-1.2,1.2
			C179.7,127.4,180.2,127.9,180.9,127.9z"/>
		<path class="st2" d="M180.9,133.1h13.9c0.7,0,1.2-0.5,1.2-1.2s-0.5-1.2-1.2-1.2h-13.9c-0.7,0-1.2,0.5-1.2,1.2
			S180.2,133.1,180.9,133.1z"/>
		<path class="st2" d="M202,133.1h13.9c0.7,0,1.2-0.5,1.2-1.2s-0.5-1.2-1.2-1.2H202c-0.7,0-1.2,0.5-1.2,1.2S201.2,133.1,202,133.1z"
			/>
		<path class="st2" d="M180.9,173.2h13.9c0.7,0,1.2-0.5,1.2-1.2s-0.5-1.2-1.2-1.2h-13.9c-0.7,0-1.2,0.5-1.2,1.2
			S180.2,173.2,180.9,173.2z"/>
		<path class="st2" d="M179.7,177v25.2c0,0.7,0.5,1.2,1.2,1.2h35c0.7,0,1.2-0.5,1.2-1.2V177c0-0.7-0.5-1.2-1.2-1.2h-35
			C180.2,175.7,179.7,176.3,179.7,177z M182.3,178.2h32.3v22.5h-32.3V178.2z"/>
		<path class="st2" d="M194.8,205.9h-13.9c-0.7,0-1.2,0.5-1.2,1.2s0.5,1.2,1.2,1.2h13.9c0.7,0,1.2-0.5,1.2-1.2
			C196.1,206.4,195.5,205.9,194.8,205.9z"/>
		<path class="st2" d="M194.8,210.9h-13.9c-0.7,0-1.2,0.5-1.2,1.2s0.5,1.2,1.2,1.2h13.9c0.7,0,1.2-0.5,1.2-1.2
			S195.5,210.9,194.8,210.9z"/>
		<path class="st2" d="M202,127.9h13.9c0.7,0,1.2-0.5,1.2-1.2s-0.5-1.2-1.2-1.2H202c-0.7,0-1.2,0.5-1.2,1.2
			C200.7,127.4,201.2,127.9,202,127.9z"/>
		<path class="st2" d="M215.9,205.9H202c-0.7,0-1.2,0.5-1.2,1.2s0.5,1.2,1.2,1.2h13.9c0.7,0,1.2-0.5,1.2-1.2
			S216.6,205.9,215.9,205.9z"/>
		<path class="st2" d="M215.9,210.9H202c-0.7,0-1.2,0.5-1.2,1.2s0.5,1.2,1.2,1.2h13.9c0.7,0,1.2-0.5,1.2-1.2
			S216.6,210.9,215.9,210.9z"/>
		<path class="st2" d="M216,137.8h-35.1c-0.7,0-1.2-0.5-1.2-1.2l0,0c0-0.7,0.5-1.2,1.2-1.2H216c0.7,0,1.2,0.5,1.2,1.2l0,0
			C217.2,137.2,216.7,137.8,216,137.8z"/>
		<path class="st2" d="M216,142.9h-35.1c-0.7,0-1.2-0.5-1.2-1.2l0,0c0-0.7,0.5-1.2,1.2-1.2H216c0.7,0,1.2,0.5,1.2,1.2l0,0
			C217.2,142.3,216.7,142.9,216,142.9z"/>
		<path class="st2" d="M216,148h-35.1c-0.7,0-1.2-0.5-1.2-1.2l0,0c0-0.7,0.5-1.2,1.2-1.2H216c0.7,0,1.2,0.5,1.2,1.2l0,0
			C217.2,147.4,216.7,148,216,148z"/>
		<path class="st2" d="M216,153.1h-35.1c-0.7,0-1.2-0.5-1.2-1.2l0,0c0-0.7,0.5-1.2,1.2-1.2H216c0.7,0,1.2,0.5,1.2,1.2l0,0
			C217.2,152.5,216.7,153.1,216,153.1z"/>
		<path class="st2" d="M216,158h-35.1c-0.7,0-1.2-0.5-1.2-1.2l0,0c0-0.7,0.5-1.2,1.2-1.2H216c0.7,0,1.2,0.5,1.2,1.2l0,0
			C217.2,157.4,216.7,158,216,158z"/>
		<path class="st2" d="M216,163.1h-35.1c-0.7,0-1.2-0.5-1.2-1.2l0,0c0-0.7,0.5-1.2,1.2-1.2H216c0.7,0,1.2,0.5,1.2,1.2l0,0
			C217.2,162.5,216.7,163.1,216,163.1z"/>
		<path class="st2" d="M216,168h-35.1c-0.7,0-1.2-0.5-1.2-1.2l0,0c0-0.7,0.5-1.2,1.2-1.2H216c0.7,0,1.2,0.5,1.2,1.2l0,0
			C217.2,167.4,216.7,168,216,168z"/>
		<path class="st2" d="M216,173.1h-14c-0.7,0-1.2-0.5-1.2-1.2l0,0c0-0.7,0.5-1.2,1.2-1.2h14c0.7,0,1.2,0.5,1.2,1.2l0,0
			C217.2,172.5,216.7,173.1,216,173.1z"/>
		<path class="st2" d="M225.9,132.4v-13.2c0-0.7-0.5-1.2-1.2-1.2h-72.3c-0.7,0-1.2,0.5-1.2,1.2v98.9c0,0.7,0.5,1.2,1.2,1.2h72.1
			c0.7,0,1.2-0.5,1.2-1.2v-48.2 M223.2,170.9v45.9l0,0h-69.4v-96.4h69.4v10.4"/>
	</g>
</g>
<g id="pergunta2">
	<polygon id="decisao_2_" class="st12" points="285.7,561.2 188.3,637.3 285.7,712 384.5,636.6 	"/>
	<g id="seta_3_">
		<line id="linha_2_" class="st3" x1="286.9" y1="467" x2="286.9" y2="546.2"/>
		<polygon id="triangulo_3_" class="st4" points="286.7,549.7 291.3,541.6 282,541.6 		"/>
	</g>
	<g id="nao_1_">
		<path id="box-alternativa_3_" class="st2" d="M494.5,651.2h-51.3c-3.3,0-6-2.7-6-6v-16c0-3.3,2.7-6,6-6h51.3c3.3,0,6,2.7,6,6v16
			C500.5,648.5,497.8,651.2,494.5,651.2z"/>
		<g>
			<path class="st1" d="M461.8,632.7h1.6v8.4h-1.5l-4.3-5.8v5.8H456v-8.4h1.5l4.3,5.8V632.7z"/>
			<path class="st1" d="M471.6,641.1l-0.7-1.8h-4.1l-0.7,1.8h-1.7l3.7-8.4h1.7l3.6,8.4H471.6z M469.8,632c-0.2,0-0.3,0-0.5-0.1
				s-0.3-0.2-0.5-0.3c-0.3-0.1-0.4-0.2-0.5-0.2s-0.2,0-0.3,0.1c0,0.1-0.1,0.2-0.1,0.4h-1c0-1.1,0.3-1.7,1-1.7c0.2,0,0.3,0,0.5,0.1
				s0.3,0.2,0.5,0.3c0.3,0.1,0.4,0.2,0.5,0.2s0.2,0,0.3-0.1c0-0.1,0.1-0.2,0.1-0.4h1C470.9,631.4,470.5,632,469.8,632z M467.4,637.9
				h3l-1.5-3.5L467.4,637.9z"/>
			<path class="st1" d="M480.2,633.1c0.7,0.4,1.2,0.9,1.6,1.5c0.4,0.7,0.6,1.4,0.6,2.2s-0.2,1.5-0.6,2.2c-0.4,0.7-0.9,1.2-1.6,1.6
				c-0.7,0.4-1.4,0.6-2.3,0.6s-1.6-0.2-2.3-0.6c-0.7-0.4-1.2-0.9-1.6-1.6c-0.4-0.7-0.6-1.4-0.6-2.2s0.2-1.5,0.6-2.2
				c0.4-0.7,0.9-1.2,1.6-1.5s1.4-0.6,2.3-0.6S479.6,632.8,480.2,633.1z M476.6,634.4c-0.4,0.3-0.8,0.6-1,1c-0.3,0.4-0.4,0.9-0.4,1.4
				s0.1,1,0.4,1.5s0.6,0.8,1,1c0.4,0.3,0.9,0.4,1.4,0.4s1-0.1,1.4-0.4s0.8-0.6,1-1c0.3-0.4,0.4-0.9,0.4-1.5c0-0.5-0.1-1-0.4-1.4
				c-0.3-0.4-0.6-0.8-1-1s-0.9-0.4-1.4-0.4C477.5,634,477,634.1,476.6,634.4z"/>
		</g>
	</g>
	<g id="sim_1_">
		<path id="box-alternativa_2_" class="st2" d="M314.2,787.5h-51.3c-3.3,0-6-2.7-6-6v-16c0-3.3,2.7-6,6-6h51.3c3.3,0,6,2.7,6,6v16
			C320.2,784.8,317.5,787.5,314.2,787.5z"/>
		<g>
			<path class="st1" d="M282.3,770.6c-0.5-0.1-0.9-0.2-1.2-0.2c-0.4,0-0.7,0.1-0.9,0.2c-0.2,0.1-0.3,0.3-0.3,0.6
				c0,0.2,0.1,0.4,0.2,0.6c0.2,0.2,0.4,0.3,0.6,0.4c0.2,0.1,0.6,0.2,1,0.3c0.6,0.2,1,0.3,1.4,0.5s0.7,0.4,0.9,0.7
				c0.3,0.3,0.4,0.8,0.4,1.3s-0.1,1-0.4,1.3c-0.3,0.4-0.7,0.7-1.1,0.9c-0.5,0.2-1,0.3-1.7,0.3s-1.3-0.1-1.9-0.4s-1.2-0.6-1.6-1
				l0.7-1.4c0.4,0.4,0.9,0.7,1.4,0.9s1,0.3,1.5,0.3c0.4,0,0.8-0.1,1.1-0.3c0.3-0.2,0.4-0.4,0.4-0.7c0-0.2-0.1-0.4-0.2-0.6
				c-0.2-0.2-0.4-0.3-0.6-0.4c-0.2-0.1-0.6-0.2-1-0.3c-0.6-0.2-1-0.3-1.4-0.5s-0.7-0.4-0.9-0.7c-0.3-0.3-0.4-0.8-0.4-1.3
				s0.1-0.9,0.4-1.3s0.6-0.6,1.1-0.8s1-0.3,1.6-0.3c0.5,0,1.1,0.1,1.6,0.2c0.5,0.2,1,0.4,1.4,0.6l-0.6,1.4
				C283.2,770.9,282.7,770.7,282.3,770.6z"/>
			<path class="st1" d="M285.9,769h1.6v8.4h-1.6V769z"/>
			<path class="st1" d="M289.5,769h1.8l2.8,5.4l2.8-5.4h1.8v8.4h-1.5v-6l-2.6,5.2h-1l-2.6-5.2v6h-1.5L289.5,769L289.5,769z"/>
		</g>
	</g>
	<g id="seta_5_">
		<line id="linha_4_" class="st3" x1="286.2" y1="712.8" x2="286.2" y2="751.8"/>
		<polygon id="triangulo_5_" class="st4" points="286,755.3 290.6,747.3 281.4,747.3 		"/>
	</g>
	<g id="seta_4_">
		<line id="linha_3_" class="st3" x1="384.8" y1="637.5" x2="423.8" y2="637.5"/>
		<polygon id="triangulo_4_" class="st4" points="427.2,637.7 419.2,633.1 419.2,642.4 		"/>
	</g>
	<g id="seta_7_">
		<line id="linha_7_" class="st3" x1="501.8" y1="638.6" x2="540.8" y2="638.6"/>
		<polygon id="triangulo_7_" class="st4" points="544.2,638.8 536.2,634.1 536.2,643.4 		"/>
	</g>
	<rect x="246.5" y="616.6" class="st5" width="84.1" height="47"/>
	<text transform="matrix(1 0 0 1 246.4715 630.1414)" class="st6 st7 st8">Interessa </text>
	<text transform="matrix(1 0 0 1 246.4715 649.3414)" class="st6 st7 st8">à revista?</text>
</g>
<g>
	<path class="st2" d="M656.7,633.3c-17.3,0-31.5-14.1-31.5-31.5s14.1-31.5,31.5-31.5c6.1,0,12,1.8,17.1,5.1c0.7,0.4,0.8,1.3,0.4,2
		c-0.4,0.7-1.3,0.9-2,0.4c-4.6-3-10-4.6-15.6-4.6c-15.8,0-28.6,12.8-28.6,28.6s12.8,28.6,28.6,28.6s28.6-12.8,28.6-28.6
		c0-5.5-1.6-10.9-4.6-15.5c-0.4-0.7-0.2-1.5,0.4-2c0.7-0.4,1.5-0.2,2,0.4c3.3,5.1,5,11,5,17.1C688.2,619.2,674,633.3,656.7,633.3z"
		/>
	<path class="st2" d="M649.4,617.6c-0.3,0-0.7-0.1-1-0.4c-0.6-0.5-0.6-1.4-0.1-2c1.8-2,5-3.2,8.4-3.2s6.5,1.2,8.3,3.2
		c0.5,0.6,0.5,1.5-0.1,2s-1.5,0.5-2-0.1c-1.3-1.4-3.7-2.3-6.2-2.3c-2.6,0-5,0.9-6.3,2.3C650.1,617.4,649.7,617.6,649.4,617.6z"/>
	<path class="st2" d="M646.7,599c0,1.6-1.3,2.9-2.9,2.9c-1.6,0-2.9-1.3-2.9-2.9c0-1.6,1.3-2.9,2.9-2.9S646.7,597.4,646.7,599z"/>
	<path class="st2" d="M672.4,599c0,1.6-1.3,2.9-2.9,2.9c-1.6,0-2.9-1.3-2.9-2.9c0-1.6,1.3-2.9,2.9-2.9
		C671.1,596.1,672.4,597.4,672.4,599z"/>
	<path class="st2" d="M705.3,589c-1.9,0-3.7-0.7-5.1-2.1l-9.2-9.2l-9.2,9.2c-1.3,1.3-3.1,2.1-5.1,2.1c-1.9,0-3.7-0.7-5.1-2.1
		c-1.3-1.3-2.1-3.1-2.1-5.1c0-1.9,0.7-3.7,2.1-5.1l9.2-9.2l-9.2-9.2c-1.3-1.4-2.1-3.1-2.1-5.1c0-1.9,0.7-3.7,2.1-5.1
		c2.8-2.8,7.3-2.8,10.1,0l9.2,9.2l9.2-9.2c2.8-2.8,7.3-2.8,10.1,0c1.3,1.3,2.1,3.1,2.1,5.1c0,1.9-0.7,3.7-2.1,5.1l-9.2,9.2l9.2,9.2
		c1.3,1.3,2.1,3.1,2.1,5.1c0,1.9-0.7,3.7-2.1,5.1C709,588.2,707.2,589,705.3,589z M691,574.2c0.4,0,0.7,0.2,1,0.4l10.3,10.3
		c1.6,1.6,4.4,1.6,6.1,0c0.8-0.8,1.3-1.9,1.3-3s-0.4-2.2-1.3-3l-10.3-10.3c-0.6-0.6-0.6-1.5,0-2l10.3-10.3c0.8-0.8,1.3-1.9,1.3-3
		s-0.4-2.2-1.3-3c-1.7-1.7-4.4-1.7-6.1,0L692,560.5c-0.5,0.5-1.5,0.5-2,0l-10.3-10.3c-1.7-1.7-4.4-1.7-6.1,0c-0.8,0.8-1.3,1.9-1.3,3
		s0.4,2.2,1.3,3l10.3,10.3c0.6,0.6,0.6,1.5,0,2l-10.2,10.3c-0.8,0.8-1.3,1.9-1.3,3s0.4,2.2,1.3,3c1.6,1.6,4.4,1.6,6.1,0l10.3-10.3
		C690.3,574.3,690.6,574.2,691,574.2z"/>
</g>
<path class="st1" d="M747,2225.9H575.3c-6.6,0-12-5.4-12-12v-155.8c0-6.6,5.4-12,12-12H747c6.6,0,12,5.4,12,12v155.8
	C759,2220.5,753.6,2225.9,747,2225.9z"/>
<rect x="582" y="2165.2" class="st5" width="166.1" height="46.4"/>
<rect x="580" y="2161.2" class="st5" width="166.1" height="60.7"/>
<text transform="matrix(1 0 0 1 579.9999 2174.7808)" class="st11"><tspan x="0" y="0" class="st10 st8">Editor envia parecer </tspan><tspan x="0" y="19.2" class="st10 st8">dos revisores aos </tspan><tspan x="0" y="38.4" class="st10 st8">autores</tspan></text>
<g>
	<path class="st2" d="M656.7,2147.3c-17.3,0-31.5-14.1-31.5-31.5c0-17.4,14.1-31.5,31.5-31.5c6.1,0,12,1.8,17.1,5.1
		c0.7,0.4,0.8,1.3,0.4,2c-0.4,0.7-1.3,0.9-2,0.4c-4.6-3-10-4.6-15.6-4.6c-15.8,0-28.6,12.8-28.6,28.6s12.8,28.6,28.6,28.6
		s28.6-12.8,28.6-28.6c0-5.5-1.6-10.9-4.6-15.5c-0.4-0.7-0.2-1.5,0.4-2c0.7-0.4,1.5-0.2,2,0.4c3.3,5.1,5,11,5,17.1
		C688.2,2133.2,674,2147.3,656.7,2147.3z"/>
	<path class="st2" d="M649.4,2131.6c-0.3,0-0.7-0.1-1-0.4c-0.6-0.5-0.6-1.4-0.1-2c1.8-2,5-3.2,8.4-3.2s6.5,1.2,8.3,3.2
		c0.5,0.6,0.5,1.5-0.1,2s-1.5,0.5-2-0.1c-1.3-1.4-3.7-2.3-6.2-2.3c-2.6,0-5,0.9-6.3,2.3C650.1,2131.4,649.7,2131.6,649.4,2131.6z"/>
	<path class="st2" d="M646.7,2113c0,1.6-1.3,2.9-2.9,2.9c-1.6,0-2.9-1.3-2.9-2.9c0-1.6,1.3-2.9,2.9-2.9S646.7,2111.4,646.7,2113z"/>
	<path class="st2" d="M672.4,2113c0,1.6-1.3,2.9-2.9,2.9c-1.6,0-2.9-1.3-2.9-2.9c0-1.6,1.3-2.9,2.9-2.9
		C671.1,2110.1,672.4,2111.4,672.4,2113z"/>
	<path class="st2" d="M705.3,2103c-1.9,0-3.7-0.7-5.1-2.1l-9.2-9.2l-9.2,9.2c-1.3,1.3-3.1,2.1-5.1,2.1c-1.9,0-3.7-0.7-5.1-2.1
		c-1.3-1.3-2.1-3.1-2.1-5.1c0-1.9,0.7-3.7,2.1-5.1l9.2-9.2l-9.2-9.2c-1.3-1.4-2.1-3.1-2.1-5.1c0-1.9,0.7-3.7,2.1-5.1
		c2.8-2.8,7.3-2.8,10.1,0l9.2,9.2l9.2-9.2c2.8-2.8,7.3-2.8,10.1,0c1.3,1.3,2.1,3.1,2.1,5.1c0,1.9-0.7,3.7-2.1,5.1l-9.2,9.2l9.2,9.2
		c1.3,1.3,2.1,3.1,2.1,5.1c0,1.9-0.7,3.7-2.1,5.1C709,2102.2,707.2,2103,705.3,2103z M691,2088.2c0.4,0,0.7,0.2,1,0.4l10.3,10.3
		c1.6,1.6,4.4,1.6,6.1,0c0.8-0.8,1.3-1.9,1.3-3c0-1.1-0.4-2.2-1.3-3l-10.3-10.3c-0.6-0.6-0.6-1.5,0-2l10.3-10.3
		c0.8-0.8,1.3-1.9,1.3-3c0-1.1-0.4-2.2-1.3-3c-1.7-1.7-4.4-1.7-6.1,0l-10.3,10.2c-0.5,0.5-1.5,0.5-2,0l-10.3-10.3
		c-1.7-1.7-4.4-1.7-6.1,0c-0.8,0.8-1.3,1.9-1.3,3c0,1.1,0.4,2.2,1.3,3l10.3,10.3c0.6,0.6,0.6,1.5,0,2l-10.2,10.3
		c-0.8,0.8-1.3,1.9-1.3,3c0,1.1,0.4,2.2,1.3,3c1.6,1.6,4.4,1.6,6.1,0l10.3-10.3C690.3,2088.3,690.6,2088.2,691,2088.2z"/>
</g>
<g id="seta_2_">
	<line id="linha_5_" class="st3" x1="287.1" y1="788" x2="287.1" y2="827"/>
	<polygon id="triangulo_2_" class="st4" points="286.9,830.5 291.5,822.5 282.3,822.5 	"/>
</g>
<g id="pergunta2_1_">
	<polygon id="decisao_1_" class="st12" points="285.7,2056.1 188.3,2132.2 285.7,2206.9 384.5,2131.5 	"/>
	<g id="seta_20_">
		<line id="linha_22_" class="st3" x1="286.9" y1="1961.9" x2="286.9" y2="2041.1"/>
		<polygon id="triangulo_22_" class="st4" points="286.7,2044.6 291.3,2036.5 282,2036.5 		"/>
	</g>
	<g id="nao_4_">
		<path id="box-alternativa_8_" class="st2" d="M494.5,2146.1h-51.3c-3.3,0-6-2.7-6-6v-16c0-3.3,2.7-6,6-6h51.3c3.3,0,6,2.7,6,6v16
			C500.5,2143.4,497.8,2146.1,494.5,2146.1z"/>
		<g>
			<path class="st1" d="M461.8,2127.6h1.6v8.4h-1.5l-4.3-5.8v5.8H456v-8.4h1.5l4.3,5.8V2127.6z"/>
			<path class="st1" d="M471.6,2136l-0.7-1.8h-4.1l-0.7,1.8h-1.7l3.7-8.4h1.7l3.6,8.4H471.6z M469.8,2126.9c-0.2,0-0.3,0-0.5-0.1
				c-0.2-0.1-0.3-0.2-0.5-0.3c-0.3-0.1-0.4-0.2-0.5-0.2s-0.2,0-0.3,0.1c0,0.1-0.1,0.2-0.1,0.4h-1c0-1.1,0.3-1.7,1-1.7
				c0.2,0,0.3,0,0.5,0.1c0.2,0.1,0.3,0.2,0.5,0.3c0.3,0.1,0.4,0.2,0.5,0.2s0.2,0,0.3-0.1c0-0.1,0.1-0.2,0.1-0.4h1
				C470.9,2126.3,470.5,2126.9,469.8,2126.9z M467.4,2132.8h3l-1.5-3.5L467.4,2132.8z"/>
			<path class="st1" d="M480.2,2128c0.7,0.4,1.2,0.9,1.6,1.5c0.4,0.7,0.6,1.4,0.6,2.2c0,0.8-0.2,1.5-0.6,2.2
				c-0.4,0.7-0.9,1.2-1.6,1.6c-0.7,0.4-1.4,0.6-2.3,0.6s-1.6-0.2-2.3-0.6s-1.2-0.9-1.6-1.6c-0.4-0.7-0.6-1.4-0.6-2.2
				c0-0.8,0.2-1.5,0.6-2.2c0.4-0.7,0.9-1.2,1.6-1.5s1.4-0.6,2.3-0.6S479.6,2127.7,480.2,2128z M476.6,2129.3c-0.4,0.3-0.8,0.6-1,1
				c-0.3,0.4-0.4,0.9-0.4,1.4s0.1,1,0.4,1.5s0.6,0.8,1,1c0.4,0.3,0.9,0.4,1.4,0.4s1-0.1,1.4-0.4s0.8-0.6,1-1
				c0.3-0.4,0.4-0.9,0.4-1.5c0-0.5-0.1-1-0.4-1.4c-0.3-0.4-0.6-0.8-1-1s-0.9-0.4-1.4-0.4C477.5,2128.9,477,2129,476.6,2129.3z"/>
		</g>
	</g>
	<g id="sim_4_">
		<path id="box-alternativa_1_" class="st2" d="M314.2,2282.4h-51.3c-3.3,0-6-2.7-6-6v-16c0-3.3,2.7-6,6-6h51.3c3.3,0,6,2.7,6,6v16
			C320.2,2279.7,317.5,2282.4,314.2,2282.4z"/>
		<g>
			<path class="st1" d="M282.3,2265.5c-0.5-0.1-0.9-0.2-1.2-0.2c-0.4,0-0.7,0.1-0.9,0.2c-0.2,0.1-0.3,0.3-0.3,0.6
				c0,0.2,0.1,0.4,0.2,0.6c0.2,0.2,0.4,0.3,0.6,0.4c0.2,0.1,0.6,0.2,1,0.3c0.6,0.2,1,0.3,1.4,0.5c0.4,0.2,0.7,0.4,0.9,0.7
				c0.3,0.3,0.4,0.8,0.4,1.3s-0.1,1-0.4,1.3c-0.3,0.4-0.7,0.7-1.1,0.9c-0.5,0.2-1,0.3-1.7,0.3s-1.3-0.1-1.9-0.4s-1.2-0.6-1.6-1
				l0.7-1.4c0.4,0.4,0.9,0.7,1.4,0.9s1,0.3,1.5,0.3c0.4,0,0.8-0.1,1.1-0.3c0.3-0.2,0.4-0.4,0.4-0.7c0-0.2-0.1-0.4-0.2-0.6
				c-0.2-0.2-0.4-0.3-0.6-0.4c-0.2-0.1-0.6-0.2-1-0.3c-0.6-0.2-1-0.3-1.4-0.5s-0.7-0.4-0.9-0.7c-0.3-0.3-0.4-0.8-0.4-1.3
				s0.1-0.9,0.4-1.3s0.6-0.6,1.1-0.8c0.5-0.2,1-0.3,1.6-0.3c0.5,0,1.1,0.1,1.6,0.2c0.5,0.2,1,0.4,1.4,0.6l-0.6,1.4
				C283.2,2265.8,282.7,2265.6,282.3,2265.5z"/>
			<path class="st1" d="M285.9,2263.9h1.6v8.4h-1.6V2263.9z"/>
			<path class="st1" d="M289.5,2263.9h1.8l2.8,5.4l2.8-5.4h1.8v8.4h-1.5v-6l-2.6,5.2h-1l-2.6-5.2v6h-1.5L289.5,2263.9L289.5,2263.9z
				"/>
		</g>
	</g>
	<g id="seta_19_">
		<line id="linha_21_" class="st3" x1="286.2" y1="2207.7" x2="286.2" y2="2246.7"/>
		<polygon id="triangulo_21_" class="st4" points="286,2250.2 290.6,2242.2 281.4,2242.2 		"/>
	</g>
	<g id="seta_18_">
		<line id="linha_20_" class="st3" x1="384.8" y1="2132.4" x2="423.8" y2="2132.4"/>
		<polygon id="triangulo_20_" class="st4" points="427.2,2132.6 419.2,2128 419.2,2137.3 		"/>
	</g>
	<g id="seta_17_">
		<line id="linha_19_" class="st3" x1="501.8" y1="2133.5" x2="540.8" y2="2133.5"/>
		<polygon id="triangulo_19_" class="st4" points="544.2,2133.7 536.2,2129 536.2,2138.3 		"/>
	</g>
	<rect x="246.5" y="2111.5" class="st5" width="84.1" height="47"/>
	<rect x="220" y="2105.3" class="st5" width="134.2" height="67.3"/>
	<text transform="matrix(1 0 0 1 232.9966 2118.8887)" class="st11"><tspan x="0" y="0" class="st6 st7 st8">O artigo está </tspan><tspan x="-9.2" y="19.2" class="st6 st7 st8">adequado para</tspan><tspan x="3.5" y="38.4" class="st6 st7 st8">publicação?</tspan></text>
</g>
<g id="seta_16_">
	<line id="linha_18_" class="st3" x1="287.1" y1="2282.9" x2="287.1" y2="2321.9"/>
	<polygon id="triangulo_18_" class="st4" points="286.9,2325.4 291.5,2317.4 282.3,2317.4 	"/>
</g>
<g id="seta_12_">
	<line id="linha_11_" class="st3" x1="283.5" y1="2279.3" x2="283.5" y2="2318.3"/>
	<polygon id="triangulo_11_" class="st4" points="283.3,2321.8 287.9,2313.8 278.7,2313.8 	"/>
</g>
<g id="seta_13_">
	<line id="linha_17_" class="st3" x1="285.5" y1="1537.4" x2="285.5" y2="1576.4"/>
	<polygon id="triangulo_17_" class="st4" points="285.3,1579.9 289.9,1571.9 280.7,1571.9 	"/>
</g>
<g id="seta_9_">
	<line id="linha_8_" class="st3" x1="662.7" y1="2227" x2="662.7" y2="2306.2"/>
	<polygon id="triangulo_8_" class="st4" points="662.5,2309.7 667.1,2301.6 657.8,2301.6 	"/>
</g>
<path class="st1" d="M747,2497.2H575.3c-6.6,0-12-5.4-12-12v-155.8c0-6.6,5.4-12,12-12H747c6.6,0,12,5.4,12,12v155.8
	C759,2491.8,753.6,2497.2,747,2497.2z"/>
<rect x="582" y="2436.5" class="st5" width="166.1" height="46.4"/>
<rect x="580" y="2432.5" class="st5" width="166.1" height="22.7"/>
<text transform="matrix(1 0 0 1 579.9999 2446.0808)" class="st10 st8">Autores respondem</text>
<g>
	<path class="st2" d="M656.7,2418.6c-17.3,0-31.5-14.1-31.5-31.5c0-17.4,14.1-31.5,31.5-31.5c6.1,0,12,1.8,17.1,5.1
		c0.7,0.4,0.8,1.3,0.4,2c-0.4,0.7-1.3,0.9-2,0.4c-4.6-3-10-4.6-15.6-4.6c-15.8,0-28.6,12.8-28.6,28.6s12.8,28.6,28.6,28.6
		s28.6-12.8,28.6-28.6c0-5.5-1.6-10.9-4.6-15.5c-0.4-0.7-0.2-1.5,0.4-2c0.7-0.4,1.5-0.2,2,0.4c3.3,5.1,5,11,5,17.1
		C688.2,2404.5,674,2418.6,656.7,2418.6z"/>
	<path class="st2" d="M649.4,2402.9c-0.3,0-0.7-0.1-1-0.4c-0.6-0.5-0.6-1.4-0.1-2c1.8-2,5-3.2,8.4-3.2s6.5,1.2,8.3,3.2
		c0.5,0.6,0.5,1.5-0.1,2s-1.5,0.5-2-0.1c-1.3-1.4-3.7-2.3-6.2-2.3c-2.6,0-5,0.9-6.3,2.3C650.1,2402.7,649.7,2402.9,649.4,2402.9z"/>
	<path class="st2" d="M646.7,2384.3c0,1.6-1.3,2.9-2.9,2.9c-1.6,0-2.9-1.3-2.9-2.9c0-1.6,1.3-2.9,2.9-2.9S646.7,2382.7,646.7,2384.3
		z"/>
	<path class="st2" d="M672.4,2384.3c0,1.6-1.3,2.9-2.9,2.9c-1.6,0-2.9-1.3-2.9-2.9c0-1.6,1.3-2.9,2.9-2.9
		C671.1,2381.4,672.4,2382.7,672.4,2384.3z"/>
	<path class="st2" d="M705.3,2374.3c-1.9,0-3.7-0.7-5.1-2.1l-9.2-9.2l-9.2,9.2c-1.3,1.3-3.1,2.1-5.1,2.1c-1.9,0-3.7-0.7-5.1-2.1
		c-1.3-1.3-2.1-3.1-2.1-5.1c0-1.9,0.7-3.7,2.1-5.1l9.2-9.2l-9.2-9.2c-1.3-1.4-2.1-3.1-2.1-5.1c0-1.9,0.7-3.7,2.1-5.1
		c2.8-2.8,7.3-2.8,10.1,0l9.2,9.2l9.2-9.2c2.8-2.8,7.3-2.8,10.1,0c1.3,1.3,2.1,3.1,2.1,5.1c0,1.9-0.7,3.7-2.1,5.1l-9.2,9.2l9.2,9.2
		c1.3,1.3,2.1,3.1,2.1,5.1c0,1.9-0.7,3.7-2.1,5.1C709,2373.5,707.2,2374.3,705.3,2374.3z M691,2359.5c0.4,0,0.7,0.2,1,0.4l10.3,10.3
		c1.6,1.6,4.4,1.6,6.1,0c0.8-0.8,1.3-1.9,1.3-3c0-1.1-0.4-2.2-1.3-3l-10.3-10.3c-0.6-0.6-0.6-1.5,0-2l10.3-10.3
		c0.8-0.8,1.3-1.9,1.3-3c0-1.1-0.4-2.2-1.3-3c-1.7-1.7-4.4-1.7-6.1,0l-10.3,10.2c-0.5,0.5-1.5,0.5-2,0l-10.3-10.3
		c-1.7-1.7-4.4-1.7-6.1,0c-0.8,0.8-1.3,1.9-1.3,3c0,1.1,0.4,2.2,1.3,3l10.3,10.3c0.6,0.6,0.6,1.5,0,2l-10.2,10.3
		c-0.8,0.8-1.3,1.9-1.3,3c0,1.1,0.4,2.2,1.3,3c1.6,1.6,4.4,1.6,6.1,0l10.3-10.3C690.3,2359.6,690.6,2359.5,691,2359.5z"/>
</g>
<g id="seta_10_">
	<line id="linha_9_" class="st3" x1="662.7" y1="2498.3" x2="662.7" y2="2577.5"/>
	<polygon id="triangulo_9_" class="st4" points="662.5,2581 667.1,2572.9 657.8,2572.9 	"/>
</g>
<g>
	<circle class="st13" cx="110.2" cy="112.6" r="19.3"/>
	<rect x="96.4" y="105" class="st5" width="27.5" height="15.2"/>
	<text transform="matrix(1 0 0 1 107.0567 118.6094)" class="st7 st8">1</text>
</g>
<g>
	<circle class="st13" cx="110.2" cy="333.8" r="19.3"/>
	<rect x="96.4" y="326.3" class="st5" width="27.5" height="15.2"/>
	<text transform="matrix(1 0 0 1 105.4727 339.8594)" class="st7 st8">2</text>
</g>
<g>
	<circle class="st13" cx="110.2" cy="1094.5" r="19.3"/>
	<rect x="96.4" y="1086.9" class="st5" width="27.5" height="15.2"/>
	<text transform="matrix(1 0 0 1 104.6807 1100.5237)" class="st7 st8">4</text>
</g>
<g>
	<circle class="st13" cx="110.2" cy="1606.2" r="19.3"/>
	<rect x="96.4" y="1598.7" class="st5" width="27.5" height="15.2"/>
	<text transform="matrix(1 0 0 1 105.4332 1612.2692)" class="st7 st8">5</text>
</g>
<g>
	<circle class="st13" cx="110.2" cy="1829.4" r="19.3"/>
	<rect x="96.4" y="1821.9" class="st5" width="27.5" height="15.2"/>
	<text transform="matrix(1 0 0 1 105.0967 1835.4705)" class="st7 st8">6</text>
</g>
<g>
	<circle class="st13" cx="110.2" cy="2331.3" r="19.3"/>
	<rect x="96.4" y="2323.7" class="st5" width="27.5" height="15.2"/>
	<text transform="matrix(1 0 0 1 99.105 2337.2849)" class="st7 st8">7A</text>
</g>
<g>
	<circle class="st13" cx="110.2" cy="853.8" r="19.3"/>
	<rect x="96.4" y="846.2" class="st5" width="27.5" height="15.2"/>
	<text transform="matrix(1 0 0 1 99.3291 859.8094)" class="st7 st8">3A</text>
</g>
<g>
	<circle class="st13" cx="573.2" cy="541.6" r="19.3"/>
	<rect x="559.4" y="534" class="st5" width="27.5" height="15.2"/>
	<text transform="matrix(1 0 0 1 562.3352 547.6094)" class="st7 st8">3B</text>
</g>
<g>
	<circle class="st13" cx="573.2" cy="2056.1" r="19.3"/>
	<rect x="559.4" y="2048.5" class="st5" width="27.5" height="15.2"/>
	<text transform="matrix(1 0 0 1 562.1111 2062.0847)" class="st7 st8">7B</text>
</g>
<g>
	<circle class="st13" cx="573.2" cy="2331.3" r="19.3"/>
	<rect x="559.4" y="2323.7" class="st5" width="27.5" height="15.2"/>
	<text transform="matrix(1 0 0 1 567.9114 2337.2849)" class="st7 st8">8</text>
</g>
<path class="st1" d="M747,1480.9H575.3c-6.6,0-12-5.4-12-12v-155.8c0-6.6,5.4-12,12-12H747c6.6,0,12,5.4,12,12v155.8
	C759,1475.5,753.6,1480.9,747,1480.9z"/>
<rect x="582" y="1420.2" class="st5" width="166.1" height="46.4"/>
<rect x="580" y="1416.2" class="st5" width="166.1" height="60.7"/>
<text transform="matrix(1 0 0 1 579.9999 1429.7733)" class="st11"><tspan x="0" y="0" class="st10 st8">Revisores avaliam </tspan><tspan x="0" y="19.2" class="st10 st8">resposta dos </tspan><tspan x="0" y="38.4" class="st10 st8">autores</tspan></text>
<g>
	<path class="st2" d="M656.7,1402.3c-17.3,0-31.5-14.1-31.5-31.5s14.1-31.5,31.5-31.5c6.1,0,12,1.8,17.1,5.1c0.7,0.4,0.8,1.3,0.4,2
		c-0.4,0.7-1.3,0.9-2,0.4c-4.6-3-10-4.6-15.6-4.6c-15.8,0-28.6,12.8-28.6,28.6c0,15.8,12.8,28.6,28.6,28.6s28.6-12.8,28.6-28.6
		c0-5.5-1.6-10.9-4.6-15.5c-0.4-0.7-0.2-1.5,0.4-2c0.7-0.4,1.5-0.2,2,0.4c3.3,5.1,5,11,5,17.1C688.2,1388.2,674,1402.3,656.7,1402.3
		z"/>
	<path class="st2" d="M649.4,1386.6c-0.3,0-0.7-0.1-1-0.4c-0.6-0.5-0.6-1.4-0.1-2c1.8-2,5-3.2,8.4-3.2s6.5,1.2,8.3,3.2
		c0.5,0.6,0.5,1.5-0.1,2s-1.5,0.5-2-0.1c-1.3-1.4-3.7-2.3-6.2-2.3c-2.6,0-5,0.9-6.3,2.3C650.1,1386.4,649.7,1386.6,649.4,1386.6z"/>
	<path class="st2" d="M646.7,1368c0,1.6-1.3,2.9-2.9,2.9c-1.6,0-2.9-1.3-2.9-2.9s1.3-2.9,2.9-2.9S646.7,1366.4,646.7,1368z"/>
	<path class="st2" d="M672.4,1368c0,1.6-1.3,2.9-2.9,2.9c-1.6,0-2.9-1.3-2.9-2.9s1.3-2.9,2.9-2.9
		C671.1,1365.1,672.4,1366.4,672.4,1368z"/>
	<path class="st2" d="M705.3,1358c-1.9,0-3.7-0.7-5.1-2.1l-9.2-9.2l-9.2,9.2c-1.3,1.3-3.1,2.1-5.1,2.1c-1.9,0-3.7-0.7-5.1-2.1
		c-1.3-1.3-2.1-3.1-2.1-5.1c0-1.9,0.7-3.7,2.1-5.1l9.2-9.2l-9.2-9.2c-1.3-1.4-2.1-3.1-2.1-5.1c0-1.9,0.7-3.7,2.1-5.1
		c2.8-2.8,7.3-2.8,10.1,0l9.2,9.2l9.2-9.2c2.8-2.8,7.3-2.8,10.1,0c1.3,1.3,2.1,3.1,2.1,5.1c0,1.9-0.7,3.7-2.1,5.1l-9.2,9.2l9.2,9.2
		c1.3,1.3,2.1,3.1,2.1,5.1c0,1.9-0.7,3.7-2.1,5.1C709,1357.2,707.2,1358,705.3,1358z M691,1343.2c0.4,0,0.7,0.2,1,0.4l10.3,10.3
		c1.6,1.6,4.4,1.6,6.1,0c0.8-0.8,1.3-1.9,1.3-3s-0.4-2.2-1.3-3l-10.3-10.3c-0.6-0.6-0.6-1.5,0-2l10.3-10.3c0.8-0.8,1.3-1.9,1.3-3
		s-0.4-2.2-1.3-3c-1.7-1.7-4.4-1.7-6.1,0l-10.3,10.2c-0.5,0.5-1.5,0.5-2,0l-10.3-10.3c-1.7-1.7-4.4-1.7-6.1,0
		c-0.8,0.8-1.3,1.9-1.3,3s0.4,2.2,1.3,3l10.3,10.3c0.6,0.6,0.6,1.5,0,2l-10.2,10.3c-0.8,0.8-1.3,1.9-1.3,3s0.4,2.2,1.3,3
		c1.6,1.6,4.4,1.6,6.1,0l10.3-10.3C690.3,1343.3,690.6,1343.2,691,1343.2z"/>
</g>
<g id="pergunta2_2_">
	<polygon id="decisao_3_" class="st12" points="285.7,1311.1 188.3,1387.2 285.7,1461.9 384.5,1386.5 	"/>
	<g id="seta_23_">
		<line id="linha_16_" class="st3" x1="286.9" y1="1216.9" x2="286.9" y2="1296.1"/>
		<polygon id="triangulo_16_" class="st4" points="286.7,1299.6 291.3,1291.5 282,1291.5 		"/>
	</g>
	<g id="seta_22_">
		<line id="linha_15_" class="st3" x1="286.2" y1="1462.7" x2="286.2" y2="1501.7"/>
		<polygon id="triangulo_15_" class="st4" points="286,1505.2 290.6,1497.2 281.4,1497.2 		"/>
	</g>
	<g id="seta_15_">
		<line id="linha_14_" class="st3" x1="384.8" y1="1387.4" x2="423.8" y2="1387.4"/>
		<polygon id="triangulo_14_" class="st4" points="427.2,1387.6 419.2,1383 419.2,1392.3 		"/>
	</g>
	<g id="seta_14_">
		<line id="linha_13_" class="st3" x1="501.8" y1="1388.5" x2="540.8" y2="1388.5"/>
		<polygon id="triangulo_13_" class="st4" points="544.2,1388.7 536.2,1384 536.2,1393.3 		"/>
	</g>
	<rect x="246.5" y="1366.5" class="st5" width="84.1" height="47"/>
	<rect x="220" y="1365.3" class="st5" width="134.2" height="47.2"/>
	<text transform="matrix(1 0 0 1 230.3086 1378.8812)" class="st11"><tspan x="0" y="0" class="st6 st7 st8">O artigo já foi </tspan><tspan x="-8.6" y="19.2" class="st6 st7 st8">avaliado antes?</tspan></text>
	<g id="sim_3_">
		<path id="box-alternativa_7_" class="st2" d="M494.5,1400.5h-51.3c-3.3,0-6-2.7-6-6v-16c0-3.3,2.7-6,6-6h51.3c3.3,0,6,2.7,6,6v16
			C500.5,1397.8,497.8,1400.5,494.5,1400.5z"/>
		<g>
			<path class="st1" d="M462.6,1383.6c-0.5-0.1-0.9-0.2-1.2-0.2c-0.4,0-0.7,0.1-0.9,0.2c-0.2,0.1-0.3,0.3-0.3,0.6
				c0,0.2,0.1,0.4,0.2,0.6c0.2,0.2,0.4,0.3,0.6,0.4c0.2,0.1,0.6,0.2,1,0.3c0.6,0.2,1,0.3,1.4,0.5c0.4,0.2,0.7,0.4,0.9,0.7
				c0.3,0.3,0.4,0.8,0.4,1.3s-0.1,1-0.4,1.3c-0.3,0.4-0.7,0.7-1.1,0.9c-0.5,0.2-1,0.3-1.7,0.3s-1.3-0.1-1.9-0.4s-1.2-0.6-1.6-1
				l0.7-1.4c0.4,0.4,0.9,0.7,1.4,0.9c0.5,0.2,1,0.3,1.5,0.3c0.4,0,0.8-0.1,1.1-0.3c0.3-0.2,0.4-0.4,0.4-0.7c0-0.2-0.1-0.4-0.2-0.6
				c-0.2-0.2-0.4-0.3-0.6-0.4s-0.6-0.2-1-0.3c-0.6-0.2-1-0.3-1.4-0.5c-0.4-0.2-0.7-0.4-0.9-0.7c-0.3-0.3-0.4-0.8-0.4-1.3
				s0.1-0.9,0.4-1.3c0.3-0.4,0.6-0.6,1.1-0.8c0.5-0.2,1-0.3,1.6-0.3c0.5,0,1.1,0.1,1.6,0.2c0.5,0.2,1,0.4,1.4,0.6l-0.6,1.4
				C463.5,1383.9,463,1383.7,462.6,1383.6z"/>
			<path class="st1" d="M466.2,1382h1.6v8.4h-1.6V1382z"/>
			<path class="st1" d="M469.8,1382h1.8l2.8,5.4l2.8-5.4h1.8v8.4h-1.5v-6l-2.6,5.2h-1l-2.6-5.2v6h-1.5L469.8,1382L469.8,1382z"/>
		</g>
	</g>
	<g id="nao_3_">
		<path id="box-alternativa_6_" class="st2" d="M314,1537.2h-51.3c-3.3,0-6-2.7-6-6v-16c0-3.3,2.7-6,6-6H314c3.3,0,6,2.7,6,6v16
			C320,1534.5,317.3,1537.2,314,1537.2z"/>
		<g>
			<path class="st1" d="M281.3,1518.7h1.6v8.4h-1.5l-4.3-5.8v5.8h-1.6v-8.4h1.5l4.3,5.8V1518.7z"/>
			<path class="st1" d="M291.1,1527.1l-0.7-1.8h-4.1l-0.7,1.8h-1.7l3.7-8.4h1.7l3.6,8.4H291.1z M289.3,1518c-0.2,0-0.3,0-0.5-0.1
				s-0.3-0.2-0.5-0.3c-0.3-0.1-0.4-0.2-0.5-0.2s-0.2,0-0.3,0.1c0,0.1-0.1,0.2-0.1,0.4h-1c0-1.1,0.3-1.7,1-1.7c0.2,0,0.3,0,0.5,0.1
				s0.3,0.2,0.5,0.3c0.3,0.1,0.4,0.2,0.5,0.2s0.2,0,0.3-0.1c0-0.1,0.1-0.2,0.1-0.4h1C290.4,1517.4,290,1518,289.3,1518z
				 M286.9,1523.9h3l-1.5-3.5L286.9,1523.9z"/>
			<path class="st1" d="M299.7,1519.1c0.7,0.4,1.2,0.9,1.6,1.5c0.4,0.7,0.6,1.4,0.6,2.2c0,0.8-0.2,1.5-0.6,2.2
				c-0.4,0.7-0.9,1.2-1.6,1.6c-0.7,0.4-1.4,0.6-2.3,0.6s-1.6-0.2-2.3-0.6s-1.2-0.9-1.6-1.6c-0.4-0.7-0.6-1.4-0.6-2.2
				c0-0.8,0.2-1.5,0.6-2.2c0.4-0.7,0.9-1.2,1.6-1.5c0.7-0.3,1.4-0.6,2.3-0.6S299.1,1518.8,299.7,1519.1z M296.1,1520.4
				c-0.4,0.3-0.8,0.6-1,1c-0.3,0.4-0.4,0.9-0.4,1.4s0.1,1,0.4,1.5s0.6,0.8,1,1c0.4,0.3,0.9,0.4,1.4,0.4s1-0.1,1.4-0.4s0.8-0.6,1-1
				c0.3-0.4,0.4-0.9,0.4-1.5c0-0.5-0.1-1-0.4-1.4c-0.3-0.4-0.6-0.8-1-1c-0.4-0.2-0.9-0.4-1.4-0.4S296.5,1520.1,296.1,1520.4z"/>
		</g>
	</g>
</g>
<g>
	<circle class="st13" cx="573.2" cy="1311.1" r="19.3"/>
	<rect x="559.4" y="1303.5" class="st5" width="27.5" height="15.2"/>
	<text transform="matrix(1 0 0 1 561.9753 1317.0774)" class="st7 st8">6B</text>
</g>
<g id="seta2_2_">
	<polyline id="linha_24_" class="st3" points="513.2,1904.7 657.5,1904.7 657.5,1482.2 	"/>
	<polygon id="triangulo_24_" class="st4" points="507.7,1904.5 515.8,1909.1 515.8,1899.8 	"/>
</g>
</svg>
