<?xml version="1.0" encoding="utf-8"?>
<!-- Generator: Adobe Illustrator 24.0.0, SVG Export Plug-In . SVG Version: 6.00 Build 0)  -->
<svg version="1.1" id="Layer_1" xmlns="http://www.w3.org/2000/svg" xmlns:xlink="http://www.w3.org/1999/xlink" x="0px" y="0px"
	 viewBox="0 0 512 512" style="enable-background:new 0 0 512 512;" xml:space="preserve">
<style type="text/css">
	.st0{fill:#B2550F;}
	.st1{fill:#FEBF00;}
</style>
<g>
	<g>
		<path class="st0" d="M72.2,104V408c0,17.5,14.3,31.8,31.8,31.8H408c17.5,0,31.8-14.3,31.8-31.8V104c0-17.5-14.3-31.8-31.8-31.8
			H104C86.5,72.2,72.2,86.5,72.2,104z M92.4,104c0-6.4,5.2-11.6,11.6-11.6H408c6.4,0,11.6,5.2,11.6,11.6V408
			c0,6.4-5.2,11.6-11.6,11.6H104c-6.4,0-11.6-5.2-11.6-11.6V104z"/>
		<path class="st0" d="M135.3,404h241.3c15.1,0,27.3-12.3,27.3-27.3V135.3c0-15.1-12.3-27.3-27.3-27.3H135.3
			c-15.1,0-27.3,12.3-27.3,27.3v241.3C108,391.7,120.3,404,135.3,404z M128.2,135.3c0-3.9,3.2-7.1,7.1-7.1h241.3
			c3.9,0,7.1,3.2,7.1,7.1v241.3c0,3.9-3.2,7.1-7.1,7.1H135.3c-3.9,0-7.1-3.2-7.1-7.1L128.2,135.3L128.2,135.3z"/>
		<path class="st1" d="M232.4,195.5c4.6-7.3,12.4-11,23.4-11c11.2,0,18.9,3,23.1,8.9c4.2,5.9,6.3,12.5,6.3,19.7
			c0,6.3-1.9,12-5.7,17.3c-2.1,3-4.9,5.8-8.3,8.4l-10.4,8.1c-10.2,8-16.6,15-19.1,21.2c-2.4,6.1-4,17.2-4.5,33.3H276
			c0.1-7.6,0.7-13.2,1.9-16.8c1.8-5.7,5.4-10.7,11-15l10.1-7.8c10.2-8,17.1-14.5,20.8-19.7c6.2-8.5,9.3-18.9,9.3-31.2
			c0-20.1-7.1-35.4-21.3-45.6c-14.2-10.3-32.1-15.4-53.5-15.4c-16.4,0-30.1,3.6-41.4,10.8c-17.8,11.3-27.2,30.5-28.4,57.6h41.2
			C225.5,210.4,227.8,202.8,232.4,195.5z"/>
		<rect x="236.3" y="321" class="st1" width="42.6" height="41.2"/>
	</g>
</g>
<path class="st1" d="M16,32h16v16H16V32z"/>
<path class="st1" d="M439.8,457.2h16v16h-16V457.2z"/>
<path class="st1" d="M243,465.2h16v16h-16V465.2z"/>
<path class="st1" d="M41.5,465.2h16v16h-16V465.2z"/>
<path class="st1" d="M41.5,240h16v16h-16V240z"/>
<path class="st1" d="M454.5,303.2h16v16h-16V303.2z"/>
<path class="st1" d="M256,32h16v16h-16V32z"/>
<path class="st1" d="M462.5,40h16v16h-16V40z"/>
</svg>
