<?xml version="1.0" encoding="utf-8"?>
<!-- Generator: Adobe Illustrator 23.1.0, SVG Export Plug-In . SVG Version: 6.00 Build 0)  -->
<svg version="1.1" id="Layer_1" xmlns="http://www.w3.org/2000/svg" xmlns:xlink="http://www.w3.org/1999/xlink" x="0px" y="0px"
	 viewBox="0 0 255 210" style="enable-background:new 0 0 255 210;" xml:space="preserve">
<style type="text/css">
	.st0{fill:none;stroke:#FEBF00;stroke-linecap:round;stroke-miterlimit:10;stroke-dasharray:4,4;}
	.st1{fill:#FEBF00;}
	.st2{fill:#EF7216;}
	.st3{fill:#B2550F;}
</style>
<path class="st0" d="M20.8,89.7c7.1,0.6,14.3,2,21.4,4.2c1.3,0.4,2.6,0.9,3.9,1.4"/>
<g>
	<polygon class="st1" points="223.8,72.2 231.1,71 223.8,69.8 222.5,62.4 221.4,69.8 214,71 221.4,72.2 222.5,79.5 	"/>
</g>
<g>
	<polygon class="st1" points="223.4,47.6 228,46.8 223.4,46.1 222.6,41.4 221.9,46.1 217.1,46.8 221.9,47.6 222.6,52.3 	"/>
</g>
<g>
	<polygon class="st1" points="33,51.7 36.7,51.1 33,50.5 32.4,46.8 31.8,50.5 28.1,51.1 31.8,51.7 32.4,55.4 	"/>
</g>
<g>
	<polygon class="st1" points="29.2,139.2 36.6,138.1 29.2,136.9 28.1,129.6 26.9,136.9 19.6,138.1 26.9,139.2 28.1,146.5 	"/>
</g>
<g>
	<polygon class="st1" points="22.2,20 30.9,18.6 22.2,17.3 20.9,8.6 19.5,17.3 10.8,18.6 19.5,20 20.9,28.7 	"/>
</g>
<path class="st0" d="M6.1,163.6c4.7-2.3,9.8-4.1,15.1-5.4c34-7.9,68,10.6,80.5,42.1"/>
<path class="st0" d="M104,174.9c0.7,9.1,0.1,18.5-1.8,27.8"/>
<path class="st0" d="M154.7,200.3c12.5-31.5,46.5-50,80.5-42.1c5.3,1.3,10.4,3.1,15.1,5.4"/>
<path class="st0" d="M154.1,202.7c-1.5-7.4-2.2-14.7-2.1-21.9"/>
<path class="st0" d="M206.5,96.8c2.5-1.1,5-2,7.6-2.9c7-2.2,14.3-3.7,21.4-4.2"/>
<path class="st2" d="M155.1,201.4v-21.9c0-1.3,0.3-2.6,0.8-3.7l10.2-22.8c0.9-2,1.3-4.1,1.3-6.2v-6.6h39.9V32.7h-21.5V17.4H152
	c-10.7,0-19.9,6.1-24.5,15c-4.6-8.9-13.9-15-24.5-15H69.2v15.3H47.7v107.4h39.9v6c0,2.6,0.7,5.2,1.9,7.4l12.3,22.1
	c0.8,1.4,1.2,2.9,1.2,4.5v21.4H32.4v6.1h190.2v-6.1H155.1z M201.1,38.8v95.1h-64.4v3.1c0,5.1-4.1,9.2-9.2,9.2
	c-0.4,0-0.8-0.1-1.1-0.1c-1.6-6.8-5-13.1-9.9-18.3h69.4v-89H201.1z M75.3,23.5H103c11.8,0,21.5,9.6,21.5,21.5v24.5h6.1V45
	c0-11.8,9.6-21.5,21.5-21.5h27.6v98.2h-49.1v-46h-6.1v46h-12.3v-15.3c0-10.2-8.3-18.4-18.4-18.4c-3.4,0-6.1,2.8-6.1,6.1v27.6H75.3
	V23.5z M53.9,133.9V38.8h15.3v89h18.4v6.1H53.9z M94.9,150.6c-0.8-1.4-1.2-2.9-1.2-4.5v-52c6.8,0,12.3,5.5,12.3,12.3V126l5.4,5.4
	c6.4,6.4,9.9,14.9,9.9,24h6.1c0-1-0.1-2.1-0.1-3.1c0.1,0,0.1,0,0.1,0c7.4,0,13.6-5.3,15-12.3h18.7v6.6c0,1.3-0.3,2.6-0.8,3.7
	l-10.2,22.8c-0.5,1.2-0.8,2.4-1.1,3.6h-40.5c-0.3-1.5-0.8-2.9-1.6-4.3L94.9,150.6z M109.1,195.3h27.6v-6.1h-27.6V183H149v6.1h-6.1
	v6.1h6.1v6.1h-39.9V195.3z"/>
<path class="st3" d="M152,97.1h6.1v6.1H152V97.1z"/>
<path class="st3" d="M164.3,97.1h6.1v6.1h-6.1V97.1z"/>
<path class="st3" d="M139.8,97.1h6.1v6.1h-6.1V97.1z"/>
<path class="st3" d="M136.7,109.4h36.8v6.1h-36.8V109.4z"/>
<path class="st3" d="M136.7,84.9h36.8V91h-36.8V84.9z"/>
<path class="st3" d="M136.7,63.4h36.8v6.1h-36.8V63.4z"/>
<path class="st3" d="M136.7,51.1h36.8v6.1h-36.8V51.1z"/>
<path class="st3" d="M136.7,38.8h36.8V45h-36.8V38.8z"/>
<path class="st3" d="M96.8,51.1h6.1v6.1h-6.1V51.1z"/>
<path class="st3" d="M109.1,51.1h6.1v6.1h-6.1V51.1z"/>
<path class="st3" d="M84.6,51.1h6.1v6.1h-6.1V51.1z"/>
<path class="st3" d="M81.5,38.8h36.8V45H81.5V38.8z"/>
<path class="st3" d="M81.5,63.4h36.8v6.1H81.5V63.4z"/>
<path class="st3" d="M81.5,75.7h36.8v6.1H81.5V75.7z"/>
</svg>
