<?xml version="1.0" encoding="utf-8"?>
<!-- Generator: Adobe Illustrator 24.0.0, SVG Export Plug-In . SVG Version: 6.00 Build 0)  -->
<svg version="1.1" id="Layer_1" xmlns="http://www.w3.org/2000/svg" xmlns:xlink="http://www.w3.org/1999/xlink" x="0px" y="0px"
	 viewBox="0 0 512 512" style="enable-background:new 0 0 512 512;" xml:space="preserve">
<style type="text/css">
	.st0{fill:#B2550F;}
	.st1{fill:#87C6C0;}
	.st2{fill:#FEBF00;}
	.st3{fill:#F05E23;}
	.st4{fill:#FFFFFF;}
	.st5{fill:#FFAF5E;}
	.st6{fill:#FF8831;}
</style>
<g>
	<g>
		<g>
			<path class="st0" d="M448.2,386.9c0-0.1-0.1-0.2-0.1-0.3c-8.7-20.3-29-27.8-53.1-19.6l-65.6,18.2c-3.8-11.5-13.3-21.3-26.6-26.2
				c-0.1,0-0.2-0.1-0.2-0.1l-72.1-24.5c-6-7.8-24.8-27.6-60-27.6c-24.6,0-46.4,16.9-58.8,35.3H24.3c-5.2,0-9.4,4.2-9.4,9.4v118.8
				c0,5.2,4.2,9.4,9.4,9.4h56c5.2,0,9.4-4.2,9.4-9.4v-8.1H116c5.2,0,9.4-4.2,9.4-9.4V450c15.3,1.3,20.3,4.2,34.4,12.3
				c10.8,6.2,27.2,15.7,56.6,28.9c0.1,0.1,0.3,0.1,0.4,0.2c5.6,2.2,16.7,5.7,30.3,5.7c9.5,0,20.2-1.7,31.2-6.7l145.1-51.9
				c0.3-0.1,0.5-0.2,0.8-0.3C438,431.8,458.7,413.9,448.2,386.9z M416.6,420.9l-145,51.9c-0.1,0-0.3,0.1-0.4,0.2
				c-0.1,0.1-0.3,0.1-0.4,0.2c-20.2,9.3-39.4,3.7-46.9,0.8c-28.4-12.8-43.6-21.5-54.7-27.9c-15.4-8.9-22.8-13.2-43.8-14.9v-75.9
				c8.9-14.6,26.2-29.6,44.9-29.6c32,0,45.6,20.8,46.1,21.7c1.2,1.9,2.9,3.3,5,4l74.9,25.4c12,4.5,18.3,14.7,15.4,24.9
				c-1.3,4.7-4.4,8.6-8.7,11c-4.2,2.4-9.2,3-13.8,1.7l-84.4-26.7c-5-1.6-10.3,1.2-11.8,6.1c-1.6,5,1.2,10.3,6.1,11.8l84.5,26.8
				c0.1,0,0.2,0.1,0.3,0.1c3.4,1,6.8,1.4,10.2,1.4c6.3,0,12.4-1.6,18-4.7c8.7-4.8,15-12.8,17.7-22.3c0.2-0.8,0.4-1.5,0.6-2.3
				l70.7-19.6c10.2-3.5,23.6-4.7,29.6,9C436.8,410.1,420.8,418.9,416.6,420.9z"/>
		</g>
	</g>
	<g>
		<g>
			<path class="st0" d="M487.7,46.8h-56c-5.2,0-9.4,4.2-9.4,9.4v8.1H396c-5.2,0-9.4,4.2-9.4,9.4v2.7c-15.3-1.3-20.3-4.2-34.4-12.3
				c-10.8-6.2-27.2-15.7-56.6-28.9c-0.1-0.1-0.3-0.1-0.4-0.2c-9.6-3.8-34.7-11.2-61.5,1l-37.9,13.6l-32-32c-3.7-3.7-9.6-3.7-13.3,0
				L45.6,122.5c-3.4,3.4-4,9.3,0,13.3l179.3,179.3c2.9,2.9,9.6,3.7,13.3,0l95.8-95.8c2.5,0.2,5.1,0.3,7.8,0.3
				c24.6,0,46.4-16.9,58.8-35.3h87.2c5.2,0,9.4-4.2,9.4-9.4V56.2C497.2,51,492.9,46.8,487.7,46.8z M266.6,260.1
				c-20.8-15.1-49.3-15.1-70.1,0l-95.9-95.9c7.4-10.1,11.3-22.3,11.3-35c0-12.8-4-24.9-11.3-35l21.5-21.5
				c10.1,7.4,22.3,11.3,35,11.3s24.9-4,35-11.3L212.6,93c-4.4,0.6-8.7,2.1-12.7,4.3c-6.8,3.8-12.1,9.4-15.3,16.2
				c-10.6,2-20.5,7.1-28.2,14.8c-20.9,20.9-20.9,55,0,75.9c10.5,10.5,24.2,15.7,38,15.7c13.8,0,27.5-5.2,38-15.7
				c6.8-6.8,11.6-15.2,14-24.3l31.8,10.8c-3.6,16.6,0.1,34,10,47.7L266.6,260.1z"/>
		</g>
	</g>
</g>
<path class="st1" d="M157.2,37.6l21.5,21.5c-6.4,3.9-13.8,6.1-21.5,6.1c-7.7,0-15.1-2.1-21.5-6.1L157.2,37.6z"/>
<path class="st1" d="M266.6,260.1c-20.8-15.1-49.3-15.1-70.1,0l-95.9-95.9c7.4-10.1,11.3-22.3,11.3-35c0-12.8-4-24.9-11.3-35
	l21.5-21.5c10.1,7.4,22.3,11.3,35,11.3s24.9-4,35-11.3L212.6,93c-4.4,0.6-8.7,2.1-12.7,4.3c-6.8,3.8-12.1,9.4-15.3,16.2
	c-10.6,2-20.5,7.1-28.2,14.8c-20.9,20.9-20.9,55,0,75.9c10.5,10.5,24.2,15.7,38,15.7c13.8,0,27.5-5.2,38-15.7
	c6.8-6.8,11.6-15.2,14-24.3l31.8,10.8c-3.6,16.6,0.1,34,10,47.7L266.6,260.1z"/>
<rect x="441.1" y="65.6" class="st2" width="37.2" height="99.9"/>
<rect x="33.7" y="360.9" class="st3" width="37.2" height="99.9"/>
<path class="st4" d="M386.6,171.2c-8.9,14.6-26.2,29.6-44.9,29.6c-3.5,0-6.8-0.2-9.8-0.7c0,0,0,0,0,0c-20.3-3-31.3-14.5-34.9-19.1
	c-0.2-0.3-1-1.4-1.1-1.5c-1.1-2-2.9-3.5-5.2-4.3l-74.9-25.4c-12-4.5-18.3-14.7-15.4-24.9c0,0,0,0,0,0c0,0,0,0,0,0
	c1.3-4.7,4.4-8.6,8.7-11c4.2-2.4,9.2-3,13.8-1.7l84.4,26.7c5,1.6,10.3-1.2,11.8-6.1c1.6-5-1.2-10.3-6.1-11.8l-67.1-21.3l-0.6-0.6
	c0,0,0,0,0,0l-34.8-34.8l29.9-10.7c0.1,0,0.2-0.1,0.3-0.1c0,0,0.1,0,0.1,0c0.1-0.1,0.3-0.1,0.4-0.2c20.2-9.3,39.4-3.7,46.9-0.8
	c28.4,12.8,43.6,21.5,54.7,27.9c15.4,8.9,22.8,13.2,43.8,14.9V171.2z"/>
<rect x="405.5" y="83.2" class="st5" width="16.8" height="82.4"/>
<rect x="89.7" y="360.9" class="st6" width="16.8" height="82.4"/>
<path class="st1" d="M209.3,167.5c0.1,0,0.2,0.1,0.2,0.1l18.8,6.4c-1.4,6.4-4.6,12.3-9.4,17.1c-13.6,13.6-35.7,13.6-49.3,0
	c-13.6-13.6-13.6-35.7,0-49.3c3.3-3.3,7.1-5.8,11.4-7.6C182.8,148.6,193.2,161.5,209.3,167.5z"/>
<path class="st1" d="M87.1,150.7l-21.5-21.5l21.5-21.5c3.9,6.4,6.1,13.8,6.1,21.5C93.1,136.9,91,144.3,87.1,150.7z"/>
<path class="st1" d="M231.5,295.1l-21.5-21.5c13.1-8.1,29.8-8.1,42.9,0L231.5,295.1z"/>
<path class="st1" d="M301.6,225c-3.6-5.9-5.7-12.7-6-19.6c4.5,3.3,10,6.5,16.6,9L301.6,225z"/>
<g>
	<polygon class="st2" points="121.8,40.2 147.3,36.1 121.8,32 118,6.7 113.9,32 88.3,36.1 113.9,40.2 118,65.4 	"/>
</g>
<g>
	<polygon class="st2" points="334.8,267.6 343.5,266 334.8,264.7 333.2,256 331.9,264.7 323,266 331.9,267.6 333.2,276.3 	"/>
</g>
<g>
	<polygon class="st2" points="37.6,329.8 63.2,325.6 37.6,321.5 33.8,296.3 29.7,321.5 4.2,325.6 29.7,329.8 33.8,355 	"/>
</g>
<g>
	<polygon class="st2" points="482.3,321.7 507.8,317.6 482.3,313.5 478.5,288.2 474.4,313.5 448.8,317.6 474.4,321.7 478.5,347 	"/>
</g>
<g>
	<polygon class="st2" points="90.7,227.2 105.4,224.8 90.7,222.8 88.3,208.1 86,222.8 71.3,224.8 86,227.2 88.3,241.9 	"/>
</g>
<g>
	<polygon class="st2" points="309.8,48.6 336.5,44.4 309.8,40.6 305.6,14 301.3,40.6 274.7,44.4 301.3,48.6 305.6,75.3 	"/>
</g>
</svg>
