<?xml version="1.0" encoding="utf-8"?>
<!-- Generator: Adobe Illustrator 19.2.1, SVG Export Plug-In . SVG Version: 6.00 Build 0)  -->
<svg version="1.1" id="Layer_1" xmlns="http://www.w3.org/2000/svg" xmlns:xlink="http://www.w3.org/1999/xlink" x="0px" y="0px"
	 viewBox="0 0 100 100" style="enable-background:new 0 0 100 100;" xml:space="preserve">
<style type="text/css">
	.st0{fill:#46BC93;}
</style>
<g>
	<path class="st0" d="M20.3,18.6L20.3,18.6c0.9,0,1.7-0.7,1.7-1.6c0-0.9-0.7-1.6-1.6-1.6h0c-0.9,0-1.6,0.7-1.6,1.6
		C18.7,17.8,19.4,18.6,20.3,18.6z"/>
	<path class="st0" d="M86.4,15.3H26.8c-0.9,0-1.6,0.7-1.6,1.6c0,0.9,0.7,1.6,1.6,1.6h59.6c0.9,0,1.6,0.7,1.6,1.6H12
		c0-0.9,0.7-1.6,1.6-1.6h2.1c0.9,0,1.6-0.7,1.6-1.6c0-0.9-0.7-1.6-1.6-1.6h-2.1c-2.7,0-4.8,2.2-4.8,4.8v51.6c0,2.7,2.2,4.8,4.8,4.8
		h27.9l-2.4,9.7h-3.7c-0.9,0-1.6,0.7-1.6,1.6c0,0.9,0.7,1.6,1.6,1.6h29.3c0.9,0,1.6-0.7,1.6-1.6c0-0.9-0.7-1.6-1.6-1.6h-3.7
		l-2.4-9.7h27.9c2.7,0,4.8-2.2,4.8-4.8V20.2C91.2,17.5,89.1,15.3,86.4,15.3z M12,23.4h76v44H59.1c-0.3,0-0.7,0.1-0.9,0.3L57,68.5H43
		l-1.2-0.8c-0.3-0.2-0.6-0.3-0.9-0.3H12V23.4z M57.6,86.2H42.4l2.4-9.7h10.4L57.6,86.2z M86.4,73.3H13.6c-0.9,0-1.6-0.7-1.6-1.6
		v-1.2h28.4l1.2,0.8c0.3,0.2,0.6,0.3,0.9,0.3h15.1c0.3,0,0.7-0.1,0.9-0.3l1.2-0.8H88v1.2C88,72.6,87.3,73.3,86.4,73.3z"/>
	<path class="st0" d="M44.9,59.9c0-5.2-2.7-10-7.1-12.7c0.9-1.4,1.5-3.1,1.5-5v-3.8c0,0,0,0,0,0v0c0-5.1-4.1-9.2-9.2-9.2
		c-5.1,0-9.2,4.1-9.2,9.2v3.8c0,1.8,0.5,3.5,1.5,5c-4.4,2.7-7.1,7.4-7.1,12.7c0,0.9,0.7,1.6,1.6,1.6h26.5
		C44.2,61.5,44.9,60.8,44.9,59.9z M26,46.6c0-0.1-0.1-0.1-0.2-0.1c-1.1-1.1-1.8-2.6-1.8-4.2v-1.5c0.4,0.1,0.8,0.1,1.2,0.1
		c2.3,0,4.7-1,6.4-2c1.2,1,2.8,1.5,4.3,1.5v1.9c0,1.7-0.7,3.2-1.8,4.2c-0.1,0-0.1,0.1-0.2,0.1c-1.1,1-2.5,1.6-4,1.6
		C28.5,48.2,27.1,47.6,26,46.6z M30,32.5c2.8,0,5.2,2,5.8,4.6c-0.9-0.1-2-0.5-2.7-1.3c-0.5-0.6-1.5-0.8-2.2-0.3
		c-1.6,1.2-4.7,2.5-6.8,1.9C24.7,34.6,27.1,32.5,30,32.5z M18.5,58.3c0.5-3.7,2.8-6.9,6.1-8.7c1.5,1.1,3.4,1.8,5.4,1.8
		c2,0,3.9-0.7,5.4-1.8c3.3,1.8,5.6,5,6.1,8.7H18.5z"/>
	<path class="st0" d="M53,39.3h30.2c0.9,0,1.6-0.7,1.6-1.6c0-0.9-0.7-1.6-1.6-1.6H53c-0.9,0-1.6,0.7-1.6,1.6
		C51.3,38.6,52.1,39.3,53,39.3z"/>
	<path class="st0" d="M53,32.5h13.5c0.9,0,1.6-0.7,1.6-1.6c0-0.9-0.7-1.6-1.6-1.6H53c-0.9,0-1.6,0.7-1.6,1.6
		C51.3,31.8,52.1,32.5,53,32.5z"/>
	<path class="st0" d="M53,46.7h30.2c0.9,0,1.6-0.7,1.6-1.6c0-0.9-0.7-1.6-1.6-1.6H53c-0.9,0-1.6,0.7-1.6,1.6
		C51.3,46,52.1,46.7,53,46.7z"/>
	<path class="st0" d="M53,54.1h13.5c0.9,0,1.6-0.7,1.6-1.6c0-0.9-0.7-1.6-1.6-1.6H53c-0.9,0-1.6,0.7-1.6,1.6
		C51.3,53.4,52.1,54.1,53,54.1z"/>
	<path class="st0" d="M71.9,58.3L71.9,58.3c-0.9,0-1.6,0.7-1.6,1.6c0,0.9,0.7,1.6,1.6,1.6h0c0.9,0,1.6-0.7,1.6-1.6
		C73.6,59,72.8,58.3,71.9,58.3z"/>
	<path class="st0" d="M83.2,58.3h-6.6c-0.9,0-1.6,0.7-1.6,1.6c0,0.9,0.7,1.6,1.6,1.6h6.6c0.9,0,1.6-0.7,1.6-1.6
		C84.8,59,84.1,58.3,83.2,58.3z"/>
</g>
</svg>
