<?xml version="1.0" encoding="utf-8"?>
<!-- Generator: Adobe Illustrator 24.0.0, SVG Export Plug-In . SVG Version: 6.00 Build 0)  -->
<svg version="1.1" id="Layer_1" xmlns="http://www.w3.org/2000/svg" xmlns:xlink="http://www.w3.org/1999/xlink" x="0px" y="0px"
	 viewBox="0 0 100 100" style="enable-background:new 0 0 100 100;" xml:space="preserve">
<style type="text/css">
	.st0{fill:#F68212;}
</style>
<g id="surface1">
	<path class="st0" d="M89.8,33.5c-2.9,0-5.5,1.6-6.9,4.1c-1.4,2.5-1.2,5.6,0.4,8l-11,11c-2-1.4-4.6-1.7-6.9-0.9
		c-2.3,0.8-4.1,2.7-4.8,5L46,59.3c-0.3-3.2-2.5-5.9-5.6-6.8c-3.1-0.9-6.4,0.2-8.3,2.8c-1.9,2.6-2.1,6.1-0.4,8.8L16.3,78.6
		c-3.3-2.4-7.9-1.8-10.6,1.2c-2.7,3.1-2.6,7.7,0.2,10.6c2.8,3,7.4,3.4,10.6,0.9c3.2-2.5,4.1-7,1.9-10.5l15.4-14.5c2,1.4,4.6,1.8,7,1
		c2.4-0.8,4.2-2.7,4.9-5l14.5,1.5c0.3,3.2,2.6,5.9,5.7,6.8c3.1,0.8,6.4-0.3,8.3-3c1.9-2.6,2-6.1,0.2-8.8l11-11
		c2.8,1.8,6.4,1.7,9.1-0.3c2.6-2,3.7-5.5,2.6-8.7C96.1,35.6,93.1,33.5,89.8,33.5z M11.8,89.6c-2.6,0-4.7-2.1-4.7-4.7
		c0-2.6,2.1-4.7,4.7-4.7s4.7,2.1,4.7,4.7C16.5,87.5,14.4,89.6,11.8,89.6z M38.3,64.7c-2.6,0-4.7-2.1-4.7-4.7c0-2.6,2.1-4.7,4.7-4.7
		c2.6,0,4.7,2.1,4.7,4.7C43,62.6,40.9,64.7,38.3,64.7z M67.9,67.8c-2.6,0-4.7-2.1-4.7-4.7c0-2.6,2.1-4.7,4.7-4.7
		c2.6,0,4.7,2.1,4.7,4.7C72.6,65.7,70.5,67.8,67.9,67.8z M89.8,46c-2.6,0-4.7-2.1-4.7-4.7s2.1-4.7,4.7-4.7c2.6,0,4.7,2.1,4.7,4.7
		S92.3,46,89.8,46z"/>
	<path class="st0" d="M7.2,47.6c0.4,0,0.8-0.2,1.1-0.5l12.9-12.9l7.5,7.5c0.6,0.6,1.6,0.6,2.2,0l16-16l13.7,13.7
		c0.6,0.6,1.6,0.6,2.2,0l26.9-26.9v2.5c0,0.9,0.7,1.6,1.6,1.6c0.9,0,1.6-0.7,1.6-1.6V8.6c0-0.2,0-0.4-0.1-0.5c0-0.1,0-0.1-0.1-0.2
		c-0.1-0.1-0.1-0.2-0.2-0.3c-0.1-0.2-0.3-0.3-0.5-0.4c0,0,0,0,0,0C91.7,7.1,91.6,7,91.4,7c0,0,0,0-0.1,0h-6.2
		c-0.9,0-1.6,0.7-1.6,1.6c0,0.9,0.7,1.6,1.6,1.6h2.5L61.7,36L48,22.3c-0.6-0.6-1.6-0.6-2.2,0l-16,16l-7.5-7.5
		c-0.6-0.6-1.6-0.6-2.2,0l-14,14c-0.4,0.4-0.6,1.1-0.3,1.7C6,47.2,6.5,47.6,7.2,47.6z"/>
</g>
</svg>
