<?xml version="1.0" encoding="utf-8"?>
<!-- Generator: Adobe Illustrator 24.0.0, SVG Export Plug-In . SVG Version: 6.00 Build 0)  -->
<svg version="1.1" id="Layer_1" xmlns="http://www.w3.org/2000/svg" xmlns:xlink="http://www.w3.org/1999/xlink" x="0px" y="0px"
	 viewBox="0 0 100 100" style="enable-background:new 0 0 100 100;" xml:space="preserve">
<style type="text/css">
	.st0{fill:#F68212;}
</style>
<g>
	<circle class="st0" cx="84.2" cy="33.2" r="1.3"/>
	<circle class="st0" cx="84.2" cy="25.6" r="1.3"/>
	<path class="st0" d="M87.9,42.6c2.7-3.2,4.2-7.2,4.2-11.4c0-4.7-1.8-9.1-5.1-12.3c-3.3-3.3-7.7-5.1-12.3-5.1
		c-4.2,0-8.2,1.5-11.4,4.2l-0.4-0.4c-0.5-0.5-1.4-0.5-1.9,0c-0.5,0.5-0.5,1.4,0,1.9l0.4,0.3c-2.7,3.2-4.2,7.1-4.2,11.3
		c0,0.5,0,1.1,0.1,1.6L20,74.5c-0.5,0.5-0.5,1.3,0.1,1.8l3.8,3.8L23,80.9c-2.8,2.8-7.5,2.8-10.3,0c-2.8-2.8-2.8-7.5,0-10.3L38,45.4
		c3.9-3.9,3.9-10.2,0-14.1c-3.9-3.9-10.2-3.9-14.1,0L8.3,46.8l1.9,1.9l15.5-15.5c2.8-2.8,7.5-2.8,10.3,0c2.8,2.8,2.8,7.5,0,10.3
		L10.8,68.7c-3.9,3.9-3.9,10.2,0,14.1c1.9,1.9,4.5,2.9,7.1,2.9s5.1-1,7.1-2.9l0.8-0.8l3.8,3.8c0.3,0.3,0.6,0.4,1,0.4
		c0.3,0,0.6-0.1,0.9-0.3l35.7-32c0,0,5.9-5.3,5.9-5.3c0.5,0,1.1,0.1,1.6,0.1c4.2,0,8.2-1.5,11.3-4.2l0.4,0.4c0.3,0.3,0.6,0.4,1,0.4
		c0.3,0,0.7-0.1,0.9-0.4c0.5-0.5,0.5-1.4,0-1.9L87.9,42.6L87.9,42.6z M30.5,83l-3.8-3.8c0,0-3.9-3.9-3.9-3.9l29.7-33.2
		c1.2,2.4,2.8,4.6,4.7,6.5c1.9,1.9,4.1,3.5,6.5,4.7L30.5,83L30.5,83z M65.9,51.4c-2.5-1.1-4.8-2.6-6.8-4.6c-2-2-3.5-4.3-4.6-6.8
		l3.4-3.8c0.8,2.8,2.3,5.3,4.4,7.4c2.1,2.1,4.6,3.6,7.4,4.4L65.9,51.4z M74.6,46c-3.9,0-7.7-1.5-10.4-4.3c-2.8-2.8-4.3-6.5-4.3-10.4
		c0-3.5,1.2-6.8,3.4-9.4l2.8,2.8c0.3,0.3,0.6,0.4,0.9,0.4c0.3,0,0.7-0.1,1-0.4c0.5-0.5,0.5-1.4,0-1.9l-2.8-2.8
		c2.7-2.2,6-3.4,9.5-3.4c3.9,0,7.7,1.5,10.4,4.3c2.8,2.8,4.3,6.5,4.3,10.4c0,3.5-1.2,6.8-3.5,9.5L71.8,26.5c-0.5-0.5-1.4-0.5-1.9,0
		c-0.5,0.5-0.5,1.4,0,1.9L84,42.6C81.4,44.8,78.1,46,74.6,46L74.6,46z"/>
</g>
</svg>
