<?xml version="1.0" encoding="utf-8"?>
<!-- Generator: Adobe Illustrator 24.0.0, SVG Export Plug-In . SVG Version: 6.00 Build 0)  -->
<svg version="1.1" id="Layer_1" xmlns="http://www.w3.org/2000/svg" xmlns:xlink="http://www.w3.org/1999/xlink" x="0px" y="0px"
	 viewBox="0 0 100 100" style="enable-background:new 0 0 100 100;" xml:space="preserve">
<style type="text/css">
	.st0{fill:#F68212;}
</style>
<g id="Page-1">
	<g id="_x30_01---Insurance-Document">
		<path id="Shape" class="st0" d="M16.8,24.2h8.3c0.8,0,1.4-0.6,1.4-1.4s-0.6-1.4-1.4-1.4h-8.3c-0.8,0-1.4,0.6-1.4,1.4
			S16.1,24.2,16.8,24.2z"/>
		<path id="Shape_1_" class="st0" d="M32,24.2h12.4c0.8,0,1.4-0.6,1.4-1.4s-0.6-1.4-1.4-1.4H32c-0.8,0-1.4,0.6-1.4,1.4
			S31.3,24.2,32,24.2z"/>
		<path id="Shape_2_" class="st0" d="M16.8,39.4h44.2c0.8,0,1.4-0.6,1.4-1.4s-0.6-1.4-1.4-1.4H16.8c-0.8,0-1.4,0.6-1.4,1.4
			S16.1,39.4,16.8,39.4z"/>
		<path id="Shape_3_" class="st0" d="M16.8,44.9h19.3c0.8,0,1.4-0.6,1.4-1.4s-0.6-1.4-1.4-1.4H16.8c-0.8,0-1.4,0.6-1.4,1.4
			S16.1,44.9,16.8,44.9z"/>
		<path id="Shape_4_" class="st0" d="M16.8,56h19.3c0.8,0,1.4-0.6,1.4-1.4c0-0.8-0.6-1.4-1.4-1.4H16.8c-0.8,0-1.4,0.6-1.4,1.4
			C15.5,55.4,16.1,56,16.8,56z"/>
		<path id="Shape_5_" class="st0" d="M16.8,67h19.3c0.8,0,1.4-0.6,1.4-1.4s-0.6-1.4-1.4-1.4H16.8c-0.8,0-1.4,0.6-1.4,1.4
			S16.1,67,16.8,67z"/>
		<path id="Shape_6_" class="st0" d="M16.8,78.1h19.3c0.8,0,1.4-0.6,1.4-1.4s-0.6-1.4-1.4-1.4H16.8c-0.8,0-1.4,0.6-1.4,1.4
			S16.1,78.1,16.8,78.1z"/>
		<path id="Shape_7_" class="st0" d="M90.6,49.3l-15.7-6.8V13.2c0-2.3-1.9-4.1-4.1-4.1H18.2c-2.3,0-4.1,1.9-4.1,4.1v1.4h-1.4
			c-2.3,0-4.1,1.9-4.1,4.1v69.1c0,2.3,1.9,4.1,4.1,4.1h52.5c1.1,0,2.2-0.5,3-1.3l1.1,0.8c0.9,0.6,2,0.6,2.9,0l13.4-9.5
			c3.7-2.6,5.9-6.9,5.9-11.4v-20C91.4,50,91.1,49.5,90.6,49.3z M16.8,13.2c0-0.8,0.6-1.4,1.4-1.4h52.5c0.8,0,1.4,0.6,1.4,1.4v28.1
			l-0.8-0.4c-0.3-0.2-0.7-0.2-1.1,0l-0.8,0.4v-8.8c0,0,0-0.1,0-0.1c0-0.1,0-0.2-0.1-0.3c0,0,0-0.1,0-0.1c0,0,0,0,0,0
			c-0.1-0.2-0.2-0.3-0.3-0.4L52.4,15c-0.1-0.1-0.3-0.2-0.4-0.3c0,0,0,0,0,0c0,0-0.1,0-0.1,0c-0.1,0-0.2-0.1-0.3-0.1c0,0-0.1,0-0.1,0
			H16.8V13.2z M52.8,19.3l11.9,11.9H54.1c-0.8,0-1.4-0.6-1.4-1.4V19.3z M65.2,89.1H12.7c-0.8,0-1.4-0.6-1.4-1.4V18.7
			c0-0.8,0.6-1.4,1.4-1.4H50v12.4c0,2.3,1.9,4.1,4.1,4.1h12.4v8.6l-4.4,1.9c0.2-0.2,0.3-0.5,0.3-0.8c0-0.8-0.6-1.4-1.4-1.4H41.7
			c-0.8,0-1.4,0.6-1.4,1.4s0.6,1.4,1.4,1.4h19.1l-6.4,2.8H16.8c-0.8,0-1.4,0.6-1.4,1.4s0.6,1.4,1.4,1.4H50c0,0,0,0,0,0.1v2.7h-8.3
			c-0.8,0-1.4,0.6-1.4,1.4c0,0.8,0.6,1.4,1.4,1.4H50v2.8H16.8c-0.8,0-1.4,0.6-1.4,1.4s0.6,1.4,1.4,1.4H50v2.8h-8.3
			c-0.8,0-1.4,0.6-1.4,1.4s0.6,1.4,1.4,1.4H50v2.8H16.8c-0.8,0-1.4,0.6-1.4,1.4s0.6,1.4,1.4,1.4h33.3c0.1,0.9,0.4,1.9,0.7,2.8h-9.2
			c-0.8,0-1.4,0.6-1.4,1.4s0.6,1.4,1.4,1.4h10.6c0.7,1,1.4,1.9,2.3,2.8H16.8c-0.8,0-1.4,0.6-1.4,1.4s0.6,1.4,1.4,1.4h41.4l7.5,5.4
			C65.6,89.1,65.4,89.1,65.2,89.1z M88.7,70.5c0,3.6-1.8,7.1-4.8,9.2l-13.2,9.4l-13.2-9.4c-3-2.1-4.8-5.5-4.8-9.2V51.4l2.5-1.1l0,0
			l15.4-6.7l18,7.8V70.5z"/>
		<path id="Shape_8_" class="st0" d="M70.2,46.9l-13.8,6c-0.5,0.2-0.8,0.7-0.8,1.3v16.3c0,2.8,1.4,5.3,3.6,6.9l10.8,7.7
			c0.5,0.3,1.1,0.3,1.6,0l10.8-7.7c2.2-1.6,3.6-4.2,3.6-6.9V54.2c0-0.6-0.3-1-0.8-1.3l-13.8-6C70.9,46.8,70.5,46.8,70.2,46.9z
			 M83.2,55.1v15.4c0,1.9-0.9,3.6-2.4,4.7l-10,7.1l-10-7.1c-1.5-1.1-2.4-2.8-2.4-4.7V55.1l12.4-5.4L83.2,55.1z"/>
		<path id="Shape_9_" class="st0" d="M63.3,67.3c-0.4-0.3-0.9-0.4-1.4-0.2c-0.5,0.2-0.8,0.6-0.8,1.1c-0.1,0.5,0.1,1,0.5,1.3l5.5,4.1
			c0.6,0.4,1.4,0.3,1.9-0.2l11.1-13.8c0.5-0.6,0.4-1.5-0.2-1.9c-0.6-0.5-1.5-0.4-1.9,0.2L67.7,70.7L63.3,67.3z"/>
	</g>
</g>
</svg>
