<?xml version="1.0" encoding="utf-8"?>
<!-- Generator: Adobe Illustrator 24.0.0, SVG Export Plug-In . SVG Version: 6.00 Build 0)  -->
<svg version="1.1" id="Layer_1" xmlns="http://www.w3.org/2000/svg" xmlns:xlink="http://www.w3.org/1999/xlink" x="0px" y="0px"
	 viewBox="0 0 100 100" style="enable-background:new 0 0 100 100;" xml:space="preserve">
<style type="text/css">
	.st0{fill:#F68212;}
</style>
<path class="st0" d="M85.6,11.9H73.1c-0.6-1.6-2.1-2.7-3.8-2.7h-19c-1.8,0-3.3,1.1-3.8,2.7H34c-2.2,0-4.1,1.8-4.1,4.1v17.6h-4.6
	c-1.7,0-3.3,0.4-4.7,1.3L13.3,39H5.6v24.4h9.1l5.7,3.8c1.6,1,3.4,1.6,5.3,1.6H30v20.4c0,2.2,1.8,4.1,4.1,4.1h51.6
	c2.2,0,4.1-1.8,4.1-4.1V16C89.7,13.7,87.9,11.9,85.6,11.9z M38.1,44.5h2.7c3,0,5.4-2.4,5.4-5.4c0-3-2.4-5.4-5.4-5.4h-2.7V20h8.4
	c0.6,1.6,2.1,2.7,3.8,2.7h19c1.8,0,3.3-1.1,3.8-2.7h8.4v65.1H38.1V44.5z M49,13.2c0-0.7,0.6-1.4,1.4-1.4h19c0.7,0,1.4,0.6,1.4,1.4
	v5.4c0,0.7-0.6,1.4-1.4,1.4h-19c-0.7,0-1.4-0.6-1.4-1.4V13.2z M32.7,16c0-0.7,0.6-1.4,1.4-1.4h12.2v2.7H35.4v16.3h-2.7V16z
	 M25.7,66.2c-1.3,0-2.6-0.4-3.8-1.1l-6.4-4.3H8.3v-19h5.8l7.9-4.5c1-0.6,2.2-0.9,3.4-0.9h15.5c1.5,0,2.7,1.2,2.7,2.7
	s-1.2,2.7-2.7,2.7H24.5v1.4c0,3.7-3,6.8-6.8,6.8v2.7c4.8,0,8.7-3.5,9.4-8.1H30v21.7H25.7z M87,89.2c0,0.7-0.6,1.4-1.4,1.4H34
	c-0.7,0-1.4-0.6-1.4-1.4V44.5h2.7v43.4h48.8V17.3H73.4v-2.7h12.2c0.7,0,1.4,0.6,1.4,1.4V89.2z"/>
<path class="st0" d="M51.7,14.6h2.7v2.7h-2.7V14.6z"/>
<path class="st0" d="M65.3,14.6H68v2.7h-2.7V14.6z"/>
<path class="st0" d="M69.8,71.9l-4.6-1.3l0-0.7c2.5-1.7,4.1-4.6,4.1-7.8v-2.7c0-5.2-4.3-9.5-9.5-9.5s-9.5,4.3-9.5,9.5v2.7
	c0,3.2,1.6,6.1,4.1,7.8v0.7l-4.6,1.3c-2.9,0.8-4.9,3.5-4.9,6.5v4h29.9v-4C74.8,75.4,72.7,72.7,69.8,71.9z M53,62.1v-2.7
	c0-3.7,3-6.8,6.8-6.8c3.7,0,6.8,3,6.8,6.8v2.7c0,3.7-3,6.8-6.8,6.8C56.1,68.9,53,65.8,53,62.1z M62.5,71.2l-2.7,3.6l-2.7-3.6
	c0.8,0.2,1.7,0.4,2.7,0.4C60.8,71.6,61.6,71.5,62.5,71.2z M72,79.7H47.6v-1.3c0-1.8,1.2-3.4,3-3.9l4.7-1.3l4.6,6.1l4.6-6.1l4.7,1.3
	c1.7,0.5,3,2.1,3,3.9V79.7z"/>
<path class="st0" d="M40.8,25.5h2.7v2.7h-2.7V25.5z"/>
<path class="st0" d="M46.3,25.5h32.6v2.7H46.3V25.5z"/>
<path class="st0" d="M49,30.9h29.9v2.7H49V30.9z"/>
<path class="st0" d="M49,36.3h29.9V39H49V36.3z"/>
<path class="st0" d="M76.1,41.7h2.7v2.7h-2.7V41.7z"/>
<path class="st0" d="M49,41.7h24.4v2.7H49V41.7z"/>
</svg>
