<?xml version="1.0" encoding="utf-8"?>
<!-- Generator: Adobe Illustrator 24.0.0, SVG Export Plug-In . SVG Version: 6.00 Build 0)  -->
<svg version="1.1" id="Layer_1" xmlns="http://www.w3.org/2000/svg" xmlns:xlink="http://www.w3.org/1999/xlink" x="0px" y="0px"
	 viewBox="0 0 100 100" style="enable-background:new 0 0 100 100;" xml:space="preserve">
<style type="text/css">
	.st0{fill:#F68212;}
</style>
<g>
	<path class="st0" d="M21.4,17.2c-3.6,0-6.6,2.9-6.6,6.6s2.9,6.6,6.6,6.6s6.6-2.9,6.6-6.6S25.1,17.2,21.4,17.2z M21.4,27.4
		c-2,0-3.6-1.6-3.6-3.6s1.6-3.6,3.6-3.6s3.6,1.6,3.6,3.6S23.5,27.4,21.4,27.4z"/>
	<circle class="st0" cx="79" cy="21.6" r="1.5"/>
	<circle class="st0" cx="73.2" cy="21.6" r="1.5"/>
	<circle class="st0" cx="81.9" cy="26" r="1.5"/>
	<circle class="st0" cx="76.1" cy="26" r="1.5"/>
	<circle class="st0" cx="67.4" cy="21.6" r="1.5"/>
	<circle class="st0" cx="70.3" cy="26" r="1.5"/>
	<circle class="st0" cx="61.5" cy="21.6" r="1.5"/>
	<circle class="st0" cx="64.5" cy="26" r="1.5"/>
	<circle class="st0" cx="55.7" cy="21.6" r="1.5"/>
	<circle class="st0" cx="58.6" cy="26" r="1.5"/>
	<path class="st0" d="M21.4,44.9c-3.6,0-6.6,2.9-6.6,6.6c0,3.6,2.9,6.6,6.6,6.6s6.6-2.9,6.6-6.6C28,47.9,25.1,44.9,21.4,44.9z
		 M21.4,55.1c-2,0-3.6-1.6-3.6-3.6c0-2,1.6-3.6,3.6-3.6s3.6,1.6,3.6,3.6C25.1,53.5,23.5,55.1,21.4,55.1z"/>
	<path class="st0" d="M21.4,72.6c-3.6,0-6.6,2.9-6.6,6.6c0,3.6,2.9,6.6,6.6,6.6s6.6-2.9,6.6-6.6C28,75.6,25.1,72.6,21.4,72.6z
		 M21.4,82.8c-2,0-3.6-1.6-3.6-3.6c0-2,1.6-3.6,3.6-3.6s3.6,1.6,3.6,3.6C25.1,81.2,23.5,82.8,21.4,82.8z"/>
	<path class="st0" d="M93.6,32.4V15.2c0-3.7-3-6.7-6.7-6.7h-74c-3.7,0-6.7,3-6.7,6.7v17.2c0,2.1,1,4,2.6,5.3
		c-1.6,1.2-2.6,3.1-2.6,5.3v17.2c0,2.1,1,4,2.6,5.3c-1.6,1.2-2.6,3.1-2.6,5.3v17.2c0,3.7,3,6.7,6.7,6.7h40.6
		c3.9,0.7,8.2,1.1,12.4,1.1c12.6,0,26-3.3,27.5-9.6c0.1-0.2,0.2-0.4,0.2-0.7V72.3v-0.5v-0.5v-12v-0.5V58V45.5v-0.5
		c0-0.2-0.1-0.4-0.1-0.6c-0.5-2.1-2.4-3.9-5.2-5.4C91.3,38.3,93.6,35.6,93.6,32.4z M9.1,60.1V42.9c0-2.1,1.7-3.8,3.8-3.8h30.4
		c-2.6,1.4-4.4,3.2-4.9,5.2c-0.1,0.2-0.1,0.4-0.1,0.6v0.5V58v0.5v0.5v4.7H12.9C10.8,63.9,9.1,62.2,9.1,60.1z M42,51.1
		c0.1,0,0.1,0.1,0.2,0.1c0.3,0.2,0.5,0.3,0.8,0.5c0.1,0,0.2,0.1,0.2,0.1c0.3,0.2,0.7,0.4,1.1,0.5c0.1,0,0.1,0.1,0.2,0.1
		c0.3,0.1,0.7,0.3,1,0.4c0.1,0,0.2,0.1,0.3,0.1c0.4,0.2,0.8,0.3,1.2,0.5c0,0,0,0,0.1,0c0.4,0.1,0.8,0.3,1.2,0.4
		c0.1,0,0.2,0.1,0.3,0.1c0.4,0.1,0.8,0.2,1.3,0.4c0,0,0.1,0,0.1,0c0.5,0.1,0.9,0.2,1.4,0.3c0.1,0,0.2,0.1,0.4,0.1
		c0.4,0.1,0.8,0.2,1.3,0.3c0.1,0,0.2,0,0.3,0c0.5,0.1,1,0.2,1.5,0.3c0.1,0,0.2,0,0.4,0.1c0.4,0.1,0.9,0.1,1.3,0.2c0.1,0,0.2,0,0.4,0
		c0.5,0.1,1,0.1,1.6,0.2c0.1,0,0.2,0,0.3,0c0.4,0,0.9,0.1,1.3,0.1c0.1,0,0.3,0,0.4,0c0.5,0,1.1,0.1,1.6,0.1c0.1,0,0.2,0,0.2,0
		c0.5,0,0.9,0,1.4,0.1c0.1,0,0.3,0,0.4,0c0.5,0,1.1,0,1.6,0c0.5,0,1.1,0,1.6,0c0.1,0,0.3,0,0.4,0c0.5,0,0.9,0,1.4-0.1
		c0.1,0,0.2,0,0.2,0c0.5,0,1.1-0.1,1.6-0.1c0.1,0,0.3,0,0.4,0c0.4,0,0.9-0.1,1.3-0.1c0.1,0,0.2,0,0.3,0c0.5-0.1,1.1-0.1,1.6-0.2
		c0.1,0,0.2,0,0.4,0c0.4-0.1,0.9-0.1,1.3-0.2c0.1,0,0.2,0,0.4-0.1c0.5-0.1,1-0.2,1.5-0.3c0.1,0,0.2,0,0.3,0c0.4-0.1,0.8-0.2,1.3-0.3
		c0.1,0,0.2-0.1,0.4-0.1c0.5-0.1,1-0.2,1.4-0.3c0,0,0.1,0,0.1,0c0.4-0.1,0.9-0.2,1.3-0.4c0.1,0,0.2-0.1,0.3-0.1
		c0.4-0.1,0.8-0.3,1.2-0.4c0,0,0,0,0.1,0c0.4-0.1,0.8-0.3,1.2-0.5c0.1,0,0.2-0.1,0.3-0.1c0.3-0.1,0.7-0.3,1-0.4
		c0.1,0,0.1-0.1,0.2-0.1c0.4-0.2,0.7-0.3,1.1-0.5c0.1,0,0.2-0.1,0.2-0.1c0.3-0.2,0.5-0.3,0.8-0.5c0.1,0,0.1-0.1,0.2-0.1
		c0.3-0.2,0.6-0.4,0.9-0.6c0,0,0,0,0.1,0v7.3c0,0.2-0.1,0.3,0,0.5c0,0.1,0,0.2,0,0.3c0,0.2,0,0.3-0.1,0.5c0,0.1-0.1,0.3-0.1,0.4
		c0,0.1-0.1,0.2-0.2,0.3c-0.1,0.1-0.1,0.2-0.2,0.3c-0.1,0.2-0.2,0.3-0.4,0.5c-0.1,0.1-0.1,0.1-0.2,0.2c-3.1,3-12.2,5.7-23.6,5.7
		c-11.4,0-20.5-2.7-23.6-5.7c-0.1-0.1-0.1-0.1-0.2-0.2c-0.1-0.1-0.3-0.3-0.4-0.4c-0.1-0.1-0.2-0.2-0.2-0.3c-0.1-0.1-0.1-0.2-0.2-0.3
		c-0.1-0.1-0.1-0.3-0.1-0.4c0-0.2-0.1-0.3-0.1-0.5c0-0.1,0-0.2,0-0.3c0-0.2,0-0.4,0-0.6v-7.2c0,0,0,0,0.1,0
		C41.5,50.7,41.7,50.9,42,51.1z M90.5,72.6c0,0.1-0.1,0.2-0.2,0.3c-0.1,0.1-0.1,0.2-0.2,0.3c-0.1,0.2-0.2,0.3-0.4,0.5
		c-0.1,0.1-0.1,0.1-0.2,0.2c-3.1,3-12.2,5.7-23.6,5.7c-11.4,0-20.5-2.7-23.6-5.7c-0.1-0.1-0.1-0.1-0.2-0.2c-0.1-0.1-0.3-0.3-0.4-0.4
		c-0.1-0.1-0.2-0.2-0.2-0.3c-0.1-0.1-0.1-0.2-0.2-0.3c-0.1-0.1-0.1-0.3-0.1-0.4c0-0.1-0.1-0.3-0.1-0.4v-0.2c0-0.1,0-0.1,0-0.2
		c0-0.1,0-0.2,0-0.4l0-7.2v-0.3c0.1,0,0.1,0.1,0.2,0.1c0.2,0.1,0.4,0.3,0.6,0.4c0.2,0.1,0.3,0.2,0.5,0.3c0.3,0.2,0.5,0.3,0.8,0.5
		c0,0,0,0,0,0c3,1.7,7.2,2.9,11.8,3.6c0,0,0.1,0,0.1,0c1.5,0.2,3,0.4,4.6,0.5c0.3,0,0.7,0.1,1,0.1c0.3,0,0.7,0,1,0.1
		c0.4,0,0.9,0,1.3,0.1c0.3,0,0.5,0,0.8,0c0.7,0,1.4,0,2.1,0c0.7,0,1.4,0,2.1,0c0.3,0,0.5,0,0.8,0c0.4,0,0.9,0,1.3-0.1
		c0.3,0,0.7,0,1-0.1c0.3,0,0.7-0.1,1-0.1c1.6-0.1,3.1-0.3,4.6-0.5c0,0,0,0,0.1,0c5.1-0.8,9.6-2.1,12.7-4.1c0.2-0.1,0.3-0.2,0.5-0.3
		c0.2-0.1,0.4-0.3,0.6-0.4c0.1,0,0.1-0.1,0.2-0.1v7.3c0,0.2-0.1,0.3,0,0.5c0,0.1,0,0.2,0,0.3c0,0.2,0,0.3-0.1,0.5
		C90.6,72.3,90.5,72.5,90.5,72.6z M12.9,91.6c-2.1,0-3.8-1.7-3.8-3.8V70.6c0-2.1,1.7-3.8,3.8-3.8h25.4v4.4v0.5v0.5v13.1v1.5h0.4
		c0,0.1,0.1,0.1,0.1,0.2c0.1,0.1,0.1,0.2,0.2,0.3c0.1,0.2,0.3,0.4,0.4,0.6c0.1,0.2,0.3,0.4,0.5,0.6c0.1,0.1,0.2,0.2,0.3,0.3
		c0.6,0.6,1.2,1.1,2,1.6c0,0,0.1,0,0.1,0.1c0.6,0.4,1.2,0.7,1.8,1L12.9,91.6L12.9,91.6z M90.7,85c0,0,0,0.1,0,0.1
		c-0.6,3.6-10.7,7.5-24.8,7.5c-4.5,0-8.6-0.4-12.1-1.1l0,0c-7.2-1.4-11.3-3.7-12.4-5.6c0,0,0,0,0,0c-0.1-0.1-0.1-0.2-0.1-0.3
		c-0.1-0.2-0.1-0.4-0.2-0.5l0-8.4c0.1,0,0.1,0.1,0.2,0.1c0.2,0.1,0.4,0.3,0.6,0.4c0.2,0.1,0.3,0.2,0.5,0.3c0.3,0.2,0.5,0.3,0.8,0.5
		c0,0,0,0,0,0c3,1.7,7.2,2.9,11.8,3.6c0,0,0.1,0,0.1,0c1.5,0.2,3,0.4,4.6,0.5c0.3,0,0.7,0.1,1,0.1c0.3,0,0.7,0,1,0.1
		c0.4,0,0.9,0,1.3,0.1c0.3,0,0.5,0,0.8,0c0.7,0,1.4,0,2.1,0c0.7,0,1.4,0,2.1,0c0.3,0,0.5,0,0.8,0c0.4,0,0.9,0,1.3-0.1
		c0.3,0,0.7,0,1-0.1c0.3,0,0.7-0.1,1-0.1c1.6-0.1,3.1-0.3,4.6-0.5c0,0,0,0,0.1,0c5.1-0.8,9.6-2.1,12.7-4.1c0.2-0.1,0.3-0.2,0.5-0.3
		c0.2-0.1,0.4-0.3,0.6-0.4c0.1,0,0.1-0.1,0.2-0.1C90.7,76.7,90.7,85,90.7,85z M90.7,45.5c0,3.7-10.6,7.8-24.8,7.8
		c-14.2,0-24.8-4.1-24.8-7.8c0-0.2,0-0.4,0.1-0.6c0.1-0.2,0.1-0.4,0.3-0.6c0,0,0,0,0,0c0.5-0.8,1.5-1.7,3-2.5c0.1,0,0.1-0.1,0.2-0.1
		c0.3-0.1,0.5-0.3,0.8-0.4c0.3-0.2,0.7-0.3,1-0.5c0.1,0,0.1-0.1,0.2-0.1c1.7-0.7,3.7-1.3,6-1.8c0.7-0.2,1.5-0.3,2.2-0.4
		c0.2,0,0.4-0.1,0.6-0.1c6.5-1,14.1-1,20.7,0c0.2,0,0.4,0.1,0.6,0.1c0.7,0.1,1.5,0.3,2.2,0.4C86.1,40.5,90.7,43.1,90.7,45.5z
		 M90.7,32.4c0,2.1-1.7,3.8-3.8,3.8h-6.7c-0.1,0-0.2,0-0.3,0c-1-0.2-1.9-0.4-2.9-0.6c-0.1,0-0.2,0-0.3,0c-3.4-0.5-7.1-0.8-10.7-0.8
		c-3.6,0-7.3,0.3-10.7,0.8c-0.1,0-0.2,0-0.3,0c-1,0.2-2,0.3-2.9,0.6c-0.1,0-0.2,0-0.3,0H12.9c-2.1,0-3.8-1.7-3.8-3.8V15.2
		c0-2.1,1.7-3.8,3.8-3.8h74c2.1,0,3.8,1.7,3.8,3.8V32.4z"/>
</g>
</svg>
