<?xml version="1.0" encoding="utf-8"?>
<!-- Generator: Adobe Illustrator 24.0.0, SVG Export Plug-In . SVG Version: 6.00 Build 0)  -->
<svg version="1.1" id="Layer_1" xmlns="http://www.w3.org/2000/svg" xmlns:xlink="http://www.w3.org/1999/xlink" x="0px" y="0px"
	 viewBox="0 0 100 100" style="enable-background:new 0 0 100 100;" xml:space="preserve">
<style type="text/css">
	.st0{fill:#F68212;}
</style>
<path class="st0" d="M79.5,43.5c10.4,0,18.8-8.5,18.8-18.8S89.9,5.8,79.5,5.8c-7.5,0-14,4.5-17.1,10.9l-5-1.9
	c0.1-0.4,0.1-0.8,0.1-1.2c0-4.3-3.5-7.9-7.9-7.9s-7.9,3.5-7.9,7.9s3.5,7.9,7.9,7.9c2.8,0,5.3-1.5,6.7-3.7l5,1.9
	c-0.4,1.6-0.7,3.3-0.7,5c0,2.1,0.3,4,1,5.9l-17.3,7.3c-3.2-6-9.4-10.1-16.7-10.1c-2.3,0-4.6,0.4-6.6,1.2l-4.3-9.1
	c1.9-1.4,3.1-3.7,3.1-6.2c0-4.3-3.5-7.9-7.9-7.9s-7.9,3.5-7.9,7.9s3.5,7.9,7.9,7.9c0.7,0,1.3-0.1,1.9-0.3l4.3,9.1
	c-5.6,3.3-9.4,9.3-9.4,16.3c0,6.5,3.3,12.3,8.4,15.6l-2.9,5.2C13.6,67.2,12.8,67,12,67c-4.3,0-7.9,3.5-7.9,7.9
	c0,4.3,3.5,7.9,7.9,7.9s7.9-3.5,7.9-7.9c0-2.4-1.1-4.5-2.8-5.9l2.9-5.2c2.4,1.1,5,1.7,7.7,1.7c4.3,0,8.3-1.5,11.4-3.9l6.2,6.8
	c-3.1,3.4-5.1,7.9-5.1,12.8c0,1,0.1,1.9,0.2,2.8l-7.3,1.7c-1.3-2.7-4-4.5-7.1-4.5c-4.3,0-7.9,3.5-7.9,7.9c0,4.3,3.5,7.9,7.9,7.9
	S34,93.3,34,89c0-0.1,0-0.2,0-0.3l7.3-1.7c2.5,7.5,9.6,13,17.9,13c10.4,0,18.8-8.5,18.8-18.8c0-3.2-0.8-6.3-2.2-8.9l9.2-6
	c1.4,1.4,3.4,2.3,5.6,2.3c4.3,0,7.9-3.5,7.9-7.9s-3.5-7.9-7.9-7.9c-4.3,0-7.9,3.5-7.9,7.9c0,1,0.2,2,0.6,2.9l-9.2,6
	c-1.8-2.4-4.3-4.3-7-5.6l7.7-21.2C76.2,43.2,77.8,43.5,79.5,43.5z M49.7,18.4c-2.6,0-4.7-2.1-4.7-4.7s2.1-4.7,4.7-4.7
	s4.7,2.1,4.7,4.7S52.3,18.4,49.7,18.4z M7.3,13.6c0-2.6,2.1-4.7,4.7-4.7s4.7,2.1,4.7,4.7s-2.1,4.7-4.7,4.7S7.3,16.2,7.3,13.6z
	 M12,79.6c-2.6,0-4.7-2.1-4.7-4.7s2.1-4.7,4.7-4.7s4.7,2.1,4.7,4.7S14.6,79.6,12,79.6z M26.1,93.7c-2.6,0-4.7-2.1-4.7-4.7
	s2.1-4.7,4.7-4.7s4.7,2.1,4.7,4.7S28.7,93.7,26.1,93.7z M90.5,56c2.6,0,4.7,2.1,4.7,4.7s-2.1,4.7-4.7,4.7s-4.7-2.1-4.7-4.7
	S87.9,56,90.5,56z M70.3,37.3c0.7-3.6,3.9-6.4,7.7-6.4h3.1c3.8,0,7,2.7,7.7,6.4c-2.6,1.9-5.8,3-9.2,3S72.9,39.2,70.3,37.3z
	 M79.5,27.8c-2.6,0-4.7-2.1-4.7-4.7s2.1-4.7,4.7-4.7s4.7,2.1,4.7,4.7S82.1,27.8,79.5,27.8z M79.5,8.9c8.7,0,15.7,7,15.7,15.7
	c0,3.9-1.5,7.5-3.8,10.3c-1.1-2.9-3.4-5.2-6.3-6.4c1.4-1.4,2.3-3.4,2.3-5.5c0-4.3-3.5-7.9-7.9-7.9c-4.3,0-7.9,3.5-7.9,7.9
	c0,2.1,0.9,4.1,2.3,5.5c-2.9,1.1-5.2,3.5-6.3,6.4c-2.4-2.8-3.8-6.3-3.8-10.3C63.8,16,70.8,8.9,79.5,8.9z M12,46.6
	c0-8.7,7-15.7,15.7-15.7s15.7,7,15.7,15.7c0,3.9-1.5,7.5-3.9,10.3c-1.1-2.9-3.4-5.2-6.3-6.4c1.4-1.4,2.3-3.4,2.3-5.5
	c0-4.3-3.5-7.9-7.9-7.9s-7.9,3.5-7.9,7.9c0,2.1,0.9,4.1,2.3,5.5c-2.8,1.1-5.1,3.4-6.2,6.3C13.4,54.1,12,50.5,12,46.6z M22.9,45
	c0-2.6,2.1-4.7,4.7-4.7s4.7,2.1,4.7,4.7s-2.1,4.7-4.7,4.7S22.9,47.6,22.9,45z M18.4,59.3c0.7-3.6,3.9-6.4,7.7-6.4h3.1
	c3.8,0,7,2.8,7.7,6.4c-2.6,1.9-5.8,3-9.2,3C24.2,62.3,21,61.2,18.4,59.3z M49.8,93.8c0.7-3.6,3.9-6.4,7.7-6.4h3.1
	c3.8,0,7,2.8,7.7,6.4c-2.6,1.9-5.8,3-9.2,3C55.6,96.9,52.4,95.7,49.8,93.8z M59.1,84.3c-2.6,0-4.7-2.1-4.7-4.7s2.1-4.7,4.7-4.7
	s4.7,2.1,4.7,4.7S61.7,84.3,59.1,84.3z M74.8,81.2c0,3.9-1.5,7.5-3.9,10.3c-1.1-2.9-3.4-5.2-6.3-6.4c1.4-1.4,2.3-3.4,2.3-5.5
	c0-4.3-3.5-7.9-7.9-7.9s-7.9,3.5-7.9,7.9c0,2.1,0.9,4.1,2.3,5.5c-2.8,1.1-5.1,3.4-6.2,6.3c-2.4-2.8-3.8-6.3-3.8-10.2
	c0-8.7,7-15.7,15.7-15.7S74.8,72.5,74.8,81.2z M64,63c-1.6-0.4-3.2-0.7-4.9-0.7c-4.3,0-8.3,1.5-11.4,3.9l-6.2-6.8
	c3.1-3.4,5.1-7.9,5.1-12.8c0-2.1-0.3-4-1-5.9l17.3-7.3c1.9,3.7,5,6.6,8.8,8.3L64,63z"/>
</svg>
