<?xml version="1.0" encoding="utf-8"?>
<!-- Generator: Adobe Illustrator 24.0.0, SVG Export Plug-In . SVG Version: 6.00 Build 0)  -->
<svg version="1.1" id="Layer_1" xmlns="http://www.w3.org/2000/svg" xmlns:xlink="http://www.w3.org/1999/xlink" x="0px" y="0px"
	 viewBox="0 0 100 100" style="enable-background:new 0 0 100 100;" xml:space="preserve">
<style type="text/css">
	.st0{fill:#F68212;}
</style>
<path class="st0" d="M49.4,99h18.3h18.3c0.2,0,0.4,0,0.6-0.1c0.2-0.1,0.4-0.2,0.5-0.3l6.1-6.1c0.1-0.1,0.3-0.3,0.3-0.5
	c0.1-0.2,0.1-0.4,0.1-0.6V73.1c0-0.2,0-0.4-0.1-0.6c-0.2-0.4-0.5-0.7-0.8-0.8c-0.2-0.1-0.4-0.1-0.6-0.1h-7.6V54.7
	c0-0.2,0-0.4-0.1-0.6c-0.2-0.4-0.5-0.7-0.8-0.8c-0.2-0.1-0.4-0.1-0.6-0.1H69.3V13.5c0-0.2,0-0.4-0.1-0.6c-0.1-0.2-0.2-0.4-0.3-0.5
	L58.2,1.8c-0.1-0.1-0.3-0.3-0.5-0.3c-0.2-0.1-0.4-0.1-0.6-0.1H12.8c-0.8,0-1.5,0.7-1.5,1.5v76.3c0,0.8,0.7,1.5,1.5,1.5h35.1v16.8
	C47.9,98.3,48.6,99,49.4,99L49.4,99z M56.2,74.6h0.9v3.1h-3.9L56.2,74.6z M65.3,56.3h14l-3.1,3.1h-14L65.3,56.3z M90.7,90.7
	l-3.1,3.1v-14l3.1-3.1V90.7z M85.4,77.6h-4.8l3.1-3.1h4.8L85.4,77.6z M67.8,77.6h-7.6V62.4h15.3v15.3H67.8z M81.5,72.4l-3.1,3.1v-14
	l3.1-3.1V72.4z M51,80.7h7.6h7.6v15.3H51L51,80.7z M69.3,80.7h7.6h7.6v15.3H69.3V80.7z M58.6,6.5l5.5,5.5h-5.5V6.5z M14.4,4.4h41.2
	v9.2c0,0.8,0.7,1.5,1.5,1.5h9.2v38.1h-1.5c-0.2,0-0.3,0-0.4,0.1c0,0-0.1,0-0.1,0c-0.2,0.1-0.4,0.2-0.5,0.3l-6.1,6.1
	c-0.1,0.1-0.3,0.3-0.3,0.5c-0.1,0.2-0.1,0.4-0.1,0.6v10.7h-1.5c-0.2,0-0.4,0-0.6,0.1c-0.2,0.1-0.4,0.2-0.5,0.3l-5.6,5.6H14.4
	L14.4,4.4z"/>
<path class="st0" d="M23.5,28.8h33.5c0.8,0,1.5-0.7,1.5-1.5s-0.7-1.5-1.5-1.5H23.5c-0.8,0-1.5,0.7-1.5,1.5S22.7,28.8,23.5,28.8z"/>
<path class="st0" d="M23.5,34.9h33.5c0.8,0,1.5-0.7,1.5-1.5s-0.7-1.5-1.5-1.5H23.5c-0.8,0-1.5,0.7-1.5,1.5S22.7,34.9,23.5,34.9z"/>
<path class="st0" d="M23.5,41h33.5c0.8,0,1.5-0.7,1.5-1.5S57.9,38,57.1,38H23.5c-0.8,0-1.5,0.7-1.5,1.5S22.7,41,23.5,41z"/>
<path class="st0" d="M23.5,47.1h33.5c0.8,0,1.5-0.7,1.5-1.5s-0.7-1.5-1.5-1.5H23.5c-0.8,0-1.5,0.7-1.5,1.5S22.7,47.1,23.5,47.1z"/>
<path class="st0" d="M23.5,53.2h33.5c0.8,0,1.5-0.7,1.5-1.5s-0.7-1.5-1.5-1.5H23.5c-0.8,0-1.5,0.7-1.5,1.5S22.7,53.2,23.5,53.2z"/>
<path class="st0" d="M40.3,56.3H23.5c-0.8,0-1.5,0.7-1.5,1.5s0.7,1.5,1.5,1.5h16.7c0.8,0,1.5-0.7,1.5-1.5S41.1,56.3,40.3,56.3z"/>
</svg>
