<?xml version="1.0" encoding="utf-8"?>
<!-- Generator: Adobe Illustrator 24.0.0, SVG Export Plug-In . SVG Version: 6.00 Build 0)  -->
<svg version="1.1" id="Layer_1" xmlns="http://www.w3.org/2000/svg" xmlns:xlink="http://www.w3.org/1999/xlink" x="0px" y="0px"
	 viewBox="0 0 100 100" style="enable-background:new 0 0 100 100;" xml:space="preserve">
<style type="text/css">
	.st0{fill:#F68212;}
</style>
<g>
	<path class="st0" d="M55.3,47.9c0.2,0.4,0.7,0.7,1.2,0.7c0.2,0,0.4,0,0.6-0.1c0.1,0,7.7-3.9,11.4-5.1c0.7-0.2,1.1-0.9,0.8-1.6
		c-0.2-0.7-0.9-1.1-1.6-0.8c-3.9,1.2-11.5,5.1-11.8,5.2C55.2,46.5,54.9,47.3,55.3,47.9L55.3,47.9z"/>
	<g>
		<g>
			<path class="st0" d="M56.4,33.2c0.2,0,0.4,0,0.6-0.1c0.1,0,7.7-3.9,11.4-5.1c0.7-0.2,1.1-0.9,0.8-1.6c-0.2-0.7-0.9-1.1-1.6-0.8
				c-3.9,1.2-11.5,5.1-11.8,5.2c-0.6,0.3-0.9,1.1-0.6,1.7C55.5,32.9,56,33.2,56.4,33.2L56.4,33.2z"/>
		</g>
		<g>
			<path class="st0" d="M87.4,30.6c-0.7,0-1.3,0.6-1.3,1.3v50.3c0,2.1-1.7,3.9-3.9,3.9h-31v-3c1.9-0.7,6.8-2.2,11.6-2.2
				c11.2,0,18.9,2.5,18.9,2.5c0.4,0.1,0.8,0.1,1.2-0.2c0.3-0.2,0.5-0.6,0.5-1V25.4c0-0.6-0.4-1.1-1-1.3c0,0-1-0.2-2.7-0.5
				c-0.7-0.1-1.4,0.3-1.5,1s0.3,1.4,1,1.5s1.2,0.2,1.6,0.3v54c-2.9-0.8-9.4-2.2-18.1-2.2c-5.6,0-11.1,1.8-12.9,2.5
				c-1.5-0.7-6.1-2.5-11.7-2.5c-8.9,0-16.2,1.5-19.4,2.2v-54c2.6-0.6,10.2-2.3,19.4-2.3c4.7,0,8.7,1.5,10.3,2.1V77
				c0,0.5,0.3,0.9,0.7,1.1s0.9,0.2,1.3,0c0.1-0.1,12.9-7.7,24.3-11.5c0.5-0.2,0.9-0.7,0.9-1.2V12.5c0-0.4-0.2-0.8-0.6-1.1
				c-0.3-0.2-0.8-0.3-1.2-0.1C63.5,15.2,53,21.7,52.9,21.7c-0.6,0.4-0.8,1.2-0.4,1.8c0.4,0.6,1.2,0.8,1.8,0.4
				c0.1-0.1,9.2-5.7,18.7-9.5v50.1c-8.8,3.1-18,8.1-21.9,10.3V25.4c0-0.5-0.3-0.9-0.7-1.2c-0.2-0.1-5.5-2.7-12.2-2.7
				c-11.7,0-20.6,2.5-21,2.6c-0.6,0.2-0.9,0.7-0.9,1.2v56.8c0,0.4,0.2,0.8,0.5,1c0.2,0.2,0.5,0.3,0.8,0.3c0.1,0,0.2,0,0.4-0.1
				c0.1,0,9-2.5,20.3-2.5c4.7,0,8.7,1.5,10.3,2.1v3h-31c-2.1,0-3.9-1.7-3.9-3.9V31.9c0-0.7-0.6-1.3-1.3-1.3s-1.3,0.6-1.3,1.3v50.3
				c0,3.6,2.9,6.5,6.5,6.5h64.5c3.6,0,6.5-2.9,6.5-6.5V31.9C88.7,31.2,88.1,30.6,87.4,30.6L87.4,30.6z"/>
		</g>
	</g>
	<path class="st0" d="M55.3,40.2c0.2,0.4,0.7,0.7,1.2,0.7c0.2,0,0.4,0,0.6-0.1c0.1,0,7.7-3.9,11.4-5.1c0.7-0.2,1.1-0.9,0.8-1.6
		c-0.2-0.7-0.9-1.1-1.6-0.8c-3.9,1.2-11.5,5.1-11.8,5.2C55.2,38.8,54.9,39.6,55.3,40.2L55.3,40.2z"/>
	<path class="st0" d="M55.3,55.7c0.2,0.4,0.7,0.7,1.2,0.7c0.2,0,0.4,0,0.6-0.1c0.1,0,7.7-3.9,11.4-5.1c0.7-0.2,1.1-0.9,0.8-1.6
		c-0.2-0.7-0.9-1.1-1.6-0.8c-4,1.2-11.5,5-11.9,5.2C55.2,54.3,54.9,55.1,55.3,55.7L55.3,55.7z"/>
	<path class="st0" d="M42.5,35.2c-8-1.9-17,0.5-17.4,0.6c-0.7,0.2-1.1,0.9-0.9,1.6c0.2,0.6,0.7,1,1.2,1c0.1,0,0.2,0,0.3,0
		c0.1,0,8.8-2.3,16.1-0.6c0.7,0.2,1.4-0.3,1.6-1C43.6,36,43.2,35.3,42.5,35.2L42.5,35.2z"/>
	<path class="st0" d="M42.5,42.9c-8-1.9-17,0.5-17.4,0.6c-0.7,0.2-1.1,0.9-0.9,1.6c0.2,0.6,0.7,1,1.2,1c0.1,0,0.2,0,0.3,0
		c0.1,0,8.8-2.3,16.1-0.6c0.7,0.2,1.4-0.3,1.6-1S43.2,43.1,42.5,42.9L42.5,42.9z"/>
	<path class="st0" d="M55.3,63.4c0.2,0.4,0.7,0.7,1.2,0.7c0.2,0,0.4,0,0.6-0.1c0.1,0,7.7-3.9,11.4-5.1c0.7-0.2,1.1-0.9,0.8-1.6
		c-0.2-0.7-0.9-1.1-1.6-0.8c-3.9,1.2-11.5,5.1-11.8,5.2C55.2,62,54.9,62.8,55.3,63.4L55.3,63.4z"/>
	<path class="st0" d="M42.5,50.7c-8-1.9-17,0.5-17.4,0.6c-0.7,0.2-1.1,0.9-0.9,1.6c0.2,0.6,0.7,1,1.2,1c0.1,0,0.2,0,0.3,0
		c0.1,0,8.8-2.3,16.1-0.6c0.7,0.2,1.4-0.3,1.6-1C43.6,51.5,43.2,50.8,42.5,50.7L42.5,50.7z"/>
	<path class="st0" d="M42.5,66.1c-8-1.9-17,0.5-17.4,0.6c-0.7,0.2-1.1,0.9-0.9,1.6c0.2,0.6,0.7,1,1.2,1c0.1,0,0.2,0,0.3,0
		c0.1,0,8.8-2.3,16.1-0.6c0.7,0.2,1.4-0.3,1.6-1S43.2,66.3,42.5,66.1L42.5,66.1z"/>
	<path class="st0" d="M42.5,58.4c-8-1.9-17,0.5-17.4,0.6c-0.7,0.2-1.1,0.9-0.9,1.6c0.2,0.6,0.7,1,1.2,1c0.1,0,0.2,0,0.3,0
		c0.1,0,8.8-2.3,16.1-0.6c0.7,0.2,1.4-0.3,1.6-1S43.2,58.6,42.5,58.4L42.5,58.4z"/>
</g>
</svg>
