<?xml version="1.0" encoding="utf-8"?>
<!-- Generator: Adobe Illustrator 24.0.0, SVG Export Plug-In . SVG Version: 6.00 Build 0)  -->
<svg version="1.1" id="Layer_1" xmlns="http://www.w3.org/2000/svg" xmlns:xlink="http://www.w3.org/1999/xlink" x="0px" y="0px"
	 viewBox="0 0 100 100" style="enable-background:new 0 0 100 100;" xml:space="preserve">
<style type="text/css">
	.st0{fill:#F68212;}
</style>
<g>
	<path class="st0" d="M50.9,39.7c0,0.6,0.5,1,1,1h26.6c0.6,0,1-0.5,1-1V23.2c0-0.6-0.5-1-1-1H51.9c-0.6,0-1,0.5-1,1V39.7z M53,24.2
		h24.6v14.5H53V24.2z"/>
	<path class="st0" d="M72.3,26.7c-0.4-0.4-1-0.4-1.4,0L63.6,34l-4.2-4.2c-0.4-0.4-1-0.4-1.4,0L54.8,33c-0.4,0.4-0.4,1,0,1.4
		c0.4,0.4,1,0.4,1.4,0l2.4-2.4l4.2,4.2c0.2,0.2,0.5,0.3,0.7,0.3s0.5-0.1,0.7-0.3l7.3-7.3l2.7,2.7c0.4,0.4,1,0.4,1.4,0
		c0.4-0.4,0.4-1,0-1.4L72.3,26.7z"/>
	<path class="st0" d="M66.1,57.7c-5.6,0-10.1,4.5-10.1,10.1c0,5.6,4.5,10.1,10.1,10.1c5.6,0,10.1-4.5,10.1-10.1
		C76.2,62.2,71.7,57.7,66.1,57.7z M74.1,66.8h-7.6l-5.4-5.4c1.4-1.1,3.1-1.7,4.9-1.7C70.2,59.7,73.6,62.8,74.1,66.8z M58,67.8
		c0-1.9,0.6-3.6,1.7-4.9l5.2,5.2l-2.7,6.8C59.7,73.5,58,70.9,58,67.8z M66.1,75.9c-0.7,0-1.3-0.1-2-0.2l2.7-6.8h7.3
		C73.6,72.8,70.2,75.9,66.1,75.9z"/>
	<path class="st0" d="M30.8,58.1h7.9c0.4,0,0.7-0.2,0.9-0.5c0.2-0.3,0.2-0.7,0-1l-7.4-12.7c-0.2-0.3-0.5-0.5-0.9-0.5
		s-0.7,0.2-0.9,0.5l-3.1,5.3l-1.1-1.9c-0.2-0.3-0.5-0.5-0.9-0.5c-0.4,0-0.7,0.2-0.9,0.5l-5.4,9.3c-0.2,0.3-0.2,0.7,0,1
		s0.5,0.5,0.9,0.5L30.8,58.1C30.8,58.1,30.8,58.1,30.8,58.1z M31.3,46.4l5.6,9.7H25.8L31.3,46.4z M25.4,49.8l0.8,1.4l-2.8,4.9h-1.6
		L25.4,49.8z"/>
	<path class="st0" d="M25.9,31.1h18.6c0.6,0,1-0.5,1-1s-0.5-1-1-1H25.9c-0.6,0-1,0.5-1,1S25.3,31.1,25.9,31.1z"/>
	<path class="st0" d="M18.4,31.1h4.2c0.6,0,1-0.5,1-1s-0.5-1-1-1h-4.2c-0.6,0-1,0.5-1,1S17.8,31.1,18.4,31.1z"/>
	<path class="st0" d="M45.5,34c0-0.6-0.5-1-1-1H18.4c-0.6,0-1,0.5-1,1s0.5,1,1,1h26.1C45,35,45.5,34.6,45.5,34z"/>
	<path class="st0" d="M57.5,47.7c-0.6,0-1,0.5-1,1c0,0.6,0.5,1,1,1h18.6c0.6,0,1-0.5,1-1c0-0.6-0.5-1-1-1H57.5z"/>
	<path class="st0" d="M50.1,49.8h4.2c0.6,0,1-0.5,1-1c0-0.6-0.5-1-1-1h-4.2c-0.6,0-1,0.5-1,1C49,49.3,49.5,49.8,50.1,49.8z"/>
	<path class="st0" d="M50.1,53.7h26.1c0.6,0,1-0.5,1-1c0-0.6-0.5-1-1-1H50.1c-0.6,0-1,0.5-1,1C49,53.3,49.5,53.7,50.1,53.7z"/>
	<path class="st0" d="M47.5,64.8H28.9c-0.6,0-1,0.5-1,1s0.5,1,1,1h18.6c0.6,0,1-0.5,1-1S48.1,64.8,47.5,64.8z"/>
	<path class="st0" d="M21.4,64.8c-0.6,0-1,0.5-1,1s0.5,1,1,1h4.2c0.6,0,1-0.5,1-1s-0.5-1-1-1H21.4z"/>
	<path class="st0" d="M47.5,68.8H21.4c-0.6,0-1,0.5-1,1s0.5,1,1,1h26.1c0.6,0,1-0.5,1-1S48.1,68.8,47.5,68.8z"/>
	<path class="st0" d="M84,8.9H24.8c-0.3,0-0.5,0.1-0.7,0.3L12.9,20.3c-0.2,0.2-0.3,0.5-0.3,0.7v69.5c0,0.6,0.5,1,1,1h59.1
		c0.3,0,0.5-0.1,0.7-0.3l11.2-11.2c0.2-0.2,0.3-0.5,0.3-0.7V9.9C85,9.3,84.5,8.9,84,8.9z M23.8,12.4V20h-7.7L23.8,12.4z M14.7,22.1
		h10.1c0.6,0,1-0.5,1-1V10.9h57.1v67.4H72.8c-0.6,0-1,0.5-1,1v10.1H14.7V22.1z M81.5,80.4L73.8,88v-7.6H81.5z"/>
	<path class="st0" d="M44.7,84.9h-7.8c-0.6,0-1,0.5-1,1c0,0.6,0.5,1,1,1h7.8c0.6,0,1-0.5,1-1C45.7,85.4,45.3,84.9,44.7,84.9z"/>
	<path class="st0" d="M60.7,84.9h-7.8c-0.6,0-1,0.5-1,1c0,0.6,0.5,1,1,1h7.8c0.6,0,1-0.5,1-1C61.7,85.4,61.3,84.9,60.7,84.9z"/>
	<path class="st0" d="M47.5,83.5c-0.6,0-1,0.5-1,1v2.4c0,0.6,0.5,1,1,1s1-0.5,1-1v-2.4C48.5,83.9,48,83.5,47.5,83.5z"/>
	<path class="st0" d="M50.2,83.5c-0.6,0-1,0.5-1,1v2.4c0,0.6,0.5,1,1,1c0.6,0,1-0.5,1-1v-2.4C51.2,83.9,50.7,83.5,50.2,83.5z"/>
	<path class="st0" d="M36.9,16h7.8c0.6,0,1-0.5,1-1s-0.5-1-1-1h-7.8c-0.6,0-1,0.5-1,1S36.3,16,36.9,16z"/>
	<path class="st0" d="M52.9,16h7.8c0.6,0,1-0.5,1-1s-0.5-1-1-1h-7.8c-0.6,0-1,0.5-1,1S52.3,16,52.9,16z"/>
	<path class="st0" d="M47.5,16.9c0.6,0,1-0.5,1-1v-2.4c0-0.6-0.5-1-1-1s-1,0.5-1,1v2.4C46.4,16.5,46.9,16.9,47.5,16.9z"/>
	<path class="st0" d="M50.2,16.9c0.6,0,1-0.5,1-1v-2.4c0-0.6-0.5-1-1-1c-0.6,0-1,0.5-1,1v2.4C49.1,16.5,49.6,16.9,50.2,16.9z"/>
</g>
</svg>
