<?xml version="1.0" encoding="utf-8"?>
<!-- Generator: Adobe Illustrator 24.0.0, SVG Export Plug-In . SVG Version: 6.00 Build 0)  -->
<svg version="1.1" id="Layer_1" xmlns="http://www.w3.org/2000/svg" xmlns:xlink="http://www.w3.org/1999/xlink" x="0px" y="0px"
	 viewBox="0 0 100 100" style="enable-background:new 0 0 100 100;" xml:space="preserve">
<style type="text/css">
	.st0{fill:#F68212;}
</style>
<g>
	<path class="st0" d="M70,48.9L41.7,29.7c-0.4-0.3-0.9-0.3-1.3-0.1c-0.4,0.2-0.7,0.7-0.7,1.1v38.6c0,0.5,0.3,0.9,0.7,1.1
		c0.2,0.1,0.4,0.1,0.6,0.1c0.3,0,0.5-0.1,0.7-0.2L70,51.1c0.4-0.2,0.6-0.6,0.6-1.1S70.4,49.2,70,48.9z M42.3,66.9V33.1L67,50
		L42.3,66.9z"/>
	<path class="st0" d="M50,11.4c-21.3,0-38.6,17.3-38.6,38.6S28.7,88.6,50,88.6S88.6,71.3,88.6,50S71.3,11.4,50,11.4z M50,86
		c-19.9,0-36-16.2-36-36s16.2-36,36-36s36,16.2,36,36S69.9,86,50,86z"/>
</g>
</svg>
