<?xml version="1.0" encoding="utf-8"?>
<!-- Generator: Adobe Illustrator 24.0.0, SVG Export Plug-In . SVG Version: 6.00 Build 0)  -->
<svg version="1.1" id="Layer_1" xmlns="http://www.w3.org/2000/svg" xmlns:xlink="http://www.w3.org/1999/xlink" x="0px" y="0px"
	 viewBox="0 0 200 200" style="enable-background:new 0 0 200 200;" xml:space="preserve">
<style type="text/css">
	.st0{fill:none;stroke:#F05E23;stroke-width:1.6305;stroke-linecap:round;stroke-miterlimit:10;stroke-dasharray:3.261,6.5221;}
	.st1{fill:#FF8831;}
	.st2{fill:#F05E23;}
	.st3{fill:#FFAF5E;}
	.st4{fill:#FEBF00;}
	.st5{fill:#B2550F;}
	.st6{fill:#87C6C0;}
	.st7{fill:none;stroke:#B2550F;stroke-width:1.6305;stroke-linecap:round;stroke-miterlimit:10;stroke-dasharray:3.261,6.5221;}
	.st8{fill:#FFFFFF;}
</style>
<g>
	<path class="st0" d="M-332.1-1280.6c-8.3,4.7-17.9,7.4-28.1,7.4c-31.4,0-56.9-25.5-56.9-56.9c0-31.4,25.5-56.9,56.9-56.9
		c14.3,0,27.4,5.3,37.4,14"/>
	<path class="st0" d="M-345.7-1363.4c3.1-28.4,27.2-50.6,56.5-50.6c31.4,0,56.9,25.5,56.9,56.9c0,26.2-17.8,48.3-42,54.9"/>
	<path class="st0" d="M-254.5-1346.6c14.6,10.3,24.2,27.3,24.2,46.5c0,31.4-25.5,56.9-56.9,56.9c-25.9,0-47.7-17.3-54.6-40.9"/>
</g>
<g>
	<path class="st1" d="M-273.9-1329.1c-0.7,0.3,0.3,28.4-1,30c-4.1,4.9-13.8,13-19.7,15.4c-11.4,4.6-24.2,5.7-36.1,3
		c-5.8-1.3-11.5-3.5-16.7-6.5c-2.6-1.5-5.1-3.2-7.5-5c-2.1-1.6-4.8-3.5-6.3-5.7c-1.3-1.9-0.7-4.9-0.7-7.1c0-2.9,0-5.9,0-8.8
		c0-4.1,0-8.1,0-12.2l11,3.5l32,13.5C-318.9-1309.1-273.9-1329.1-273.9-1329.1z"/>
	<polygon class="st2" points="-317.5,-1308.3 -272.9,-1327.1 -274.9,-1299.1 -279.9,-1293.9 -288.7,-1283.7 -301.9,-1279.1 
		-313.8,-1279.1 -317.9,-1279.1 	"/>
	<polygon class="st3" points="-318.9,-1318.1 -253.9,-1344.1 -253.9,-1336.1 -318.9,-1310.3 	"/>
	<polygon class="st4" points="-380.9,-1347.1 -317.9,-1372.1 -252.9,-1346.1 -317.9,-1317.1 	"/>
	<polygon class="st4" points="-382.9,-1347.1 -382.9,-1336.1 -318.9,-1309.1 -318.9,-1322.5 	"/>
	<g>
		<g>
			<g>
				<path class="st5" d="M-318.3-1308.1c0.3,0,0.6-0.1,0.9-0.2l36.1-15.4c1.2-0.5,1.7-1.8,1.2-3c-0.5-1.2-1.8-1.7-3-1.2l-35.2,15
					l-63.9-26.5v-6.8c0-1.3-1-2.3-2.3-2.3s-2.3,1-2.3,2.3v8.3c0,0.9,0.6,1.8,1.4,2.1l66.2,27.4
					C-318.9-1308.2-318.6-1308.1-318.3-1308.1z"/>
				<path class="st5" d="M-284.2-1288.7c-0.6-1.1-1.9-1.6-3.1-1c-4.3,2.1-14.6,9.7-28.8,9v-26.5c0-1.3-1-2.3-2.3-2.3
					c-1.3,0-2.3,1-2.3,2.3v26.5c-28.4-0.9-37.5-18.1-38.8-20.9v-24.5c0-1.3-1-2.3-2.3-2.3c-1.3,0-2.3,1-2.3,2.3v25
					c0,0.3,0.1,0.6,0.2,0.8c0.4,1,10.2,22.2,45.5,24.3c18.5,1.1,28-7,33.1-9.5C-284.1-1286.2-283.6-1287.6-284.2-1288.7z"/>
				<path class="st5" d="M-252.1-1348.4c-1.3,0-2.3,1-2.3,2.3v6.8l-27.4,11.3v-4.1l30.6-12.6c0.9-0.4,1.4-1.2,1.4-2.1
					s-0.6-1.8-1.4-2.1l-66.2-27.4c-0.6-0.2-1.2-0.2-1.7,0l-66.2,27.4c-0.9,0.4-1.4,1.2-1.4,2.1c0,0.9,0.6,1.8,1.4,2.1l66.2,27.4
					c0.3,0.1,0.6,0.2,0.9,0.2c0.3,0,0.6-0.1,0.9-0.2l30.9-12.9c1.2-0.5,1.7-1.8,1.2-3c-0.5-1.2-1.8-1.7-3-1.2l-30.1,12.5l-60.3-24.9
					l60.3-24.9l60.3,24.9l-26.2,10.9l-25.1-9.4c0.1-0.5,0.2-1,0.2-1.5c0-3.8-4-6.9-9.1-6.9s-9.1,3-9.1,6.9c0,3.8,4,6.9,9.1,6.9
					c2.3,0,4.3-0.6,5.9-1.6l26.1,9.7v7.3v0v48.9c-2.7,0.9-4.6,3.5-4.6,6.4c0,3.8,3.1,6.9,6.9,6.9c3.8,0,6.9-3.1,6.9-6.9
					c0-3-1.9-5.5-4.6-6.4v-13c6.6-4.9,8.9-11.5,9-11.8c0.1-0.2,0.1-0.5,0.1-0.7v-26c0-1.3-1-2.3-2.3-2.3c-1.3,0-2.3,1-2.3,2.3v25.6
					c-0.4,1-1.8,4-4.6,6.9v-28.3l30.6-12.6c0.9-0.4,1.4-1.2,1.4-2.1v-8.3C-249.8-1347.4-250.8-1348.4-252.1-1348.4z M-318.3-1344.7
					c-2.8,0-4.6-1.4-4.6-2.3c0-0.9,1.8-2.3,4.6-2.3c2.8,0,4.6,1.4,4.6,2.3C-313.8-1346-315.6-1344.7-318.3-1344.7z M-284.1-1267
					c-1.3,0-2.3-1-2.3-2.3c0-1.3,1-2.3,2.3-2.3c1.3,0,2.3,1,2.3,2.3C-281.8-1268.1-282.8-1267-284.1-1267z"/>
			</g>
		</g>
	</g>
	<path class="st5" d="M-281.3-1275.4l0.1-57.7l-2.3-3.1l-25.9-8.9c0.4-0.8,0.7-1.7,0.7-2.6c0-4.1-4.4-7.3-9.9-7.3
		c-5.5,0-9.9,3.3-9.9,7.3s4.4,7.3,9.9,7.3c2,0,3.8-0.4,5.4-1.2l26.5,9.6v56.6c-3.5,1.1-6,4.2-6,8c0,4.6,3.9,8.4,8.8,8.4
		s8.8-3.8,8.8-8.4C-275.3-1271.2-277.8-1274.3-281.3-1275.4z"/>
	<path class="st5" d="M-289.4-1265.4c-1.2-0.3-2.5,0.4-2.8,1.7l-2.3,9.1c-0.3,1.2,0.4,2.5,1.7,2.8c0.2,0,0.4,0.1,0.6,0.1
		c1,0,2-0.7,2.2-1.7l2.3-9.1C-287.4-1263.8-288.2-1265.1-289.4-1265.4z"/>
	<path class="st5" d="M-284.1-1261.2c-1.3,0-2.3,1-2.3,2.3v6.9c0,1.3,1,2.3,2.3,2.3c1.3,0,2.3-1,2.3-2.3v-6.9
		C-281.8-1260.2-282.8-1261.2-284.1-1261.2z"/>
	<path class="st5" d="M-276-1263.7c-0.3-1.2-1.5-2-2.8-1.7c-1.2,0.3-2,1.5-1.7,2.8l2.3,9.1c0.3,1,1.2,1.7,2.2,1.7
		c0.2,0,0.4,0,0.6-0.1c1.2-0.3,2-1.5,1.7-2.8L-276-1263.7z"/>
	<ellipse class="st6" cx="-318.9" cy="-1348.1" rx="6" ry="4"/>
	<circle class="st6" cx="-283.9" cy="-1268.1" r="4"/>
</g>
<g>
	<polygon class="st6" points="-377.2,-1401.5 -368.5,-1402.9 -377.2,-1404.3 -378.6,-1412.9 -379.9,-1404.3 -388.6,-1402.9 
		-379.9,-1401.5 -378.6,-1392.9 	"/>
</g>
<g>
	<polygon class="st6" points="-254.6,-1281.4 -250,-1282.2 -254.6,-1282.9 -255.3,-1287.4 -256,-1282.9 -260.6,-1282.2 
		-256,-1281.4 -255.3,-1276.9 	"/>
</g>
<g>
	<polygon class="st6" points="-409.2,-1279.5 -400.5,-1280.9 -409.2,-1282.3 -410.6,-1290.9 -411.9,-1282.3 -420.6,-1280.9 
		-411.9,-1279.5 -410.6,-1270.9 	"/>
</g>
<g>
	<polygon class="st6" points="-392,-1313.9 -387,-1314.7 -392,-1315.5 -392.8,-1320.4 -393.6,-1315.5 -398.6,-1314.7 
		-393.6,-1313.9 -392.8,-1308.9 	"/>
</g>
<g>
	<polygon class="st6" points="-279,-1385.9 -274,-1386.7 -279,-1387.5 -279.8,-1392.4 -280.6,-1387.5 -285.6,-1386.7 
		-280.6,-1385.9 -279.8,-1380.9 	"/>
</g>
<g>
	<path class="st1" d="M151.6,100.4c-0.7,0.3,0.3,28.4-1,30c-4.1,4.9-13.8,13-19.7,15.4c-11.4,4.6-24.2,5.7-36.1,3
		c-5.8-1.3-11.5-3.5-16.7-6.5c-2.6-1.5-5.1-3.2-7.5-5c-2.1-1.6-4.8-3.5-6.3-5.7c-1.3-1.9-0.7-4.9-0.7-7.1c0-2.9,0-5.9,0-8.8
		c0-4.1,0-8.1,0-12.2l11,3.5l32,13.5C106.6,120.4,151.6,100.4,151.6,100.4z"/>
	<polygon class="st2" points="108,121.2 152.6,102.4 150.6,130.4 145.5,135.6 136.8,145.8 123.6,150.4 111.6,150.4 107.5,150.4 	"/>
	<polygon class="st3" points="106.6,111.4 171.6,85.4 171.6,93.4 106.6,119.3 	"/>
	<polygon class="st4" points="44.6,82.4 107.6,57.4 172.6,83.4 107.6,112.4 	"/>
	<polygon class="st4" points="42.6,82.4 42.6,93.4 106.6,120.4 106.6,107 	"/>
	<g>
		<g>
			<g>
				<path class="st5" d="M107.1,121.4c0.3,0,0.6-0.1,0.9-0.2l36.1-15.4c1.2-0.5,1.7-1.8,1.2-3c-0.5-1.2-1.8-1.7-3-1.2l-35.2,15
					L43.1,90.2v-6.8c0-1.3-1-2.3-2.3-2.3s-2.3,1-2.3,2.3v8.3c0,0.9,0.6,1.8,1.4,2.1l66.2,27.4C106.5,121.3,106.8,121.4,107.1,121.4z
					"/>
				<path class="st5" d="M141.2,140.8c-0.6-1.1-1.9-1.6-3.1-1c-4.3,2.1-14.6,9.7-28.8,9v-26.5c0-1.3-1-2.3-2.3-2.3
					c-1.3,0-2.3,1-2.3,2.3v26.5c-28.4-0.9-37.5-18.1-38.8-20.9v-24.5c0-1.3-1-2.3-2.3-2.3c-1.3,0-2.3,1-2.3,2.3v25
					c0,0.3,0.1,0.6,0.2,0.8c0.4,1,10.2,22.2,45.5,24.3c18.5,1.1,28-7,33.1-9.5C141.3,143.3,141.8,141.9,141.2,140.8z"/>
				<path class="st5" d="M173.3,81.1c-1.3,0-2.3,1-2.3,2.3v6.8l-27.4,11.3v-4.1l30.6-12.6c0.9-0.4,1.4-1.2,1.4-2.1
					c0-0.9-0.6-1.8-1.4-2.1L108,53c-0.6-0.2-1.2-0.2-1.7,0L40,80.4c-0.9,0.4-1.4,1.2-1.4,2.1c0,0.9,0.6,1.8,1.4,2.1l66.2,27.4
					c0.3,0.1,0.6,0.2,0.9,0.2c0.3,0,0.6-0.1,0.9-0.2l30.9-12.9c1.2-0.5,1.7-1.8,1.2-3c-0.5-1.2-1.8-1.7-3-1.2l-30.1,12.5L46.8,82.5
					l60.3-24.9l60.3,24.9l-26.2,10.9L116,84c0.1-0.5,0.2-1,0.2-1.5c0-3.8-4-6.9-9.1-6.9c-5.1,0-9.1,3-9.1,6.9s4,6.9,9.1,6.9
					c2.3,0,4.3-0.6,5.9-1.6l26.1,9.7v7.3v0v48.9c-2.7,0.9-4.6,3.5-4.6,6.4c0,3.8,3.1,6.9,6.9,6.9s6.9-3.1,6.9-6.9
					c0-3-1.9-5.5-4.6-6.4v-13c6.6-4.9,8.9-11.5,9-11.8c0.1-0.2,0.1-0.5,0.1-0.7v-26c0-1.3-1-2.3-2.3-2.3s-2.3,1-2.3,2.3v25.6
					c-0.4,1-1.8,4-4.6,6.9v-28.3l30.6-12.6c0.9-0.4,1.4-1.2,1.4-2.1v-8.3C175.6,82.1,174.6,81.1,173.3,81.1z M107.1,84.8
					c-2.8,0-4.6-1.4-4.6-2.3c0-0.9,1.8-2.3,4.6-2.3s4.6,1.4,4.6,2.3C111.6,83.5,109.9,84.8,107.1,84.8z M141.3,162.5
					c-1.3,0-2.3-1-2.3-2.3c0-1.3,1-2.3,2.3-2.3s2.3,1,2.3,2.3C143.6,161.5,142.6,162.5,141.3,162.5z"/>
			</g>
		</g>
	</g>
	<path class="st5" d="M144.1,154.1l0.1-57.7l-2.3-3.1L116,84.4c0.4-0.8,0.7-1.7,0.7-2.6c0-4.1-4.4-7.3-9.9-7.3
		c-5.5,0-9.9,3.3-9.9,7.3c0,4.1,4.4,7.3,9.9,7.3c2,0,3.8-0.4,5.4-1.2l26.5,9.6v56.6c-3.5,1.1-6,4.2-6,8c0,4.6,3.9,8.4,8.8,8.4
		c4.9,0,8.8-3.8,8.8-8.4C150.2,158.3,147.6,155.2,144.1,154.1z"/>
	<path class="st5" d="M136,164.1c-1.2-0.3-2.5,0.4-2.8,1.7l-2.3,9.1c-0.3,1.2,0.4,2.5,1.7,2.8c0.2,0,0.4,0.1,0.6,0.1
		c1,0,2-0.7,2.2-1.7l2.3-9.1C138,165.7,137.3,164.4,136,164.1z"/>
	<path class="st5" d="M141.3,168.3c-1.3,0-2.3,1-2.3,2.3v6.9c0,1.3,1,2.3,2.3,2.3s2.3-1,2.3-2.3v-6.9
		C143.6,169.4,142.6,168.3,141.3,168.3z"/>
	<path class="st5" d="M149.4,165.8c-0.3-1.2-1.5-2-2.8-1.7c-1.2,0.3-2,1.5-1.7,2.8l2.3,9.1c0.3,1,1.2,1.7,2.2,1.7
		c0.2,0,0.4,0,0.6-0.1c1.2-0.3,2-1.5,1.7-2.8L149.4,165.8z"/>
	<ellipse class="st6" cx="106.6" cy="81.4" rx="6" ry="4"/>
	<circle class="st6" cx="141.6" cy="161.4" r="4"/>
</g>
<g>
	<g>
		<path class="st7" d="M93.4,148.9c-8.3,4.7-17.9,7.4-28.1,7.4c-31.4,0-56.9-25.5-56.9-56.9s25.5-56.9,56.9-56.9
			c14.3,0,27.4,5.3,37.4,14"/>
		<path class="st7" d="M79.8,66.1c3.1-28.4,27.2-50.6,56.5-50.6c31.4,0,56.9,25.5,56.9,56.9c0,26.2-17.8,48.3-42,54.9"/>
		<path class="st7" d="M171,82.9c14.6,10.3,24.2,27.3,24.2,46.5c0,31.4-25.5,56.9-56.9,56.9c-25.9,0-47.7-17.3-54.6-40.9"/>
	</g>
	<g>
		<polygon class="st8" points="48.2,28 56.9,26.6 48.2,25.2 46.9,16.6 45.5,25.2 36.8,26.6 45.5,28 46.9,36.6 		"/>
	</g>
	<g>
		<polygon class="st8" points="170.9,148.1 175.4,147.3 170.9,146.6 170.1,142.1 169.4,146.6 164.8,147.3 169.4,148.1 170.1,152.6 
					"/>
	</g>
	<g>
		<polygon class="st8" points="16.2,150 24.9,148.6 16.2,147.2 14.9,138.6 13.5,147.2 4.8,148.6 13.5,150 14.9,158.6 		"/>
	</g>
	<g>
		<polygon class="st8" points="33.4,115.6 38.4,114.8 33.4,114.1 32.6,109.1 31.8,114.1 26.8,114.8 31.8,115.6 32.6,120.6 		"/>
	</g>
	<g>
		<polygon class="st8" points="146.4,43.6 151.4,42.8 146.4,42.1 145.6,37.1 144.8,42.1 139.8,42.8 144.8,43.6 145.6,48.6 		"/>
	</g>
</g>
<g>
</g>
<g>
</g>
<g>
</g>
<g>
</g>
<g>
</g>
<g>
</g>
<g>
</g>
<g>
</g>
<g>
</g>
<g>
</g>
<g>
</g>
<g>
</g>
<g>
</g>
<g>
</g>
<g>
</g>
</svg>
