<?xml version="1.0" encoding="utf-8"?>
<!-- Generator: Adobe Illustrator 24.0.0, SVG Export Plug-In . SVG Version: 6.00 Build 0)  -->
<svg version="1.1" id="Layer_1" xmlns="http://www.w3.org/2000/svg" xmlns:xlink="http://www.w3.org/1999/xlink" x="0px" y="0px"
	 viewBox="0 0 200 200" style="enable-background:new 0 0 200 200;" xml:space="preserve">
<style type="text/css">
	.st0{fill:none;stroke:#B2550F;stroke-width:1.6305;stroke-linecap:round;stroke-miterlimit:10;stroke-dasharray:3.261,6.5221;}
	.st1{fill:#FFFFFF;}
	.st2{fill:#B2550F;}
	.st3{fill:#87C6C0;}
	.st4{fill:#F05E23;}
	.st5{fill:#FF8831;}
	.st6{fill:#FEBF00;}
</style>
<g>
	<g>
		<path class="st0" d="M93.4,148.9c-8.3,4.7-17.9,7.4-28.1,7.4c-31.4,0-56.9-25.5-56.9-56.9s25.5-56.9,56.9-56.9
			c14.3,0,27.4,5.3,37.4,14"/>
		<path class="st0" d="M79.8,66.1c3.1-28.4,27.2-50.6,56.5-50.6c31.4,0,56.9,25.5,56.9,56.9c0,26.2-17.8,48.3-42,54.9"/>
		<path class="st0" d="M158.3,74.7c21.6,9.1,36.7,30.4,36.7,55.3c0,33.1-26.9,60-60,60c-26.3,0-48.7-16.9-56.8-40.5"/>
	</g>
	<g>
		<polygon class="st1" points="48.2,28 56.9,26.6 48.2,25.2 46.9,16.6 45.5,25.2 36.8,26.6 45.5,28 46.9,36.6 		"/>
	</g>
	<g>
		<polygon class="st1" points="175.9,153.1 180.4,152.3 175.9,151.6 175.1,147.1 174.4,151.6 169.8,152.3 174.4,153.1 175.1,157.6 
					"/>
	</g>
	<g>
		<polygon class="st1" points="16.2,150 24.9,148.6 16.2,147.2 14.9,138.6 13.5,147.2 4.8,148.6 13.5,150 14.9,158.6 		"/>
	</g>
	<g>
		<polygon class="st1" points="29.4,114.6 34.4,113.8 29.4,113.1 28.6,108.1 27.8,113.1 22.8,113.8 27.8,114.6 28.6,119.6 		"/>
	</g>
	<g>
		<polygon class="st1" points="148.4,36.6 153.4,35.8 148.4,35.1 147.6,30.1 146.8,35.1 141.8,35.8 146.8,36.6 147.6,41.6 		"/>
	</g>
</g>
<g id="Page-1">
	<g id="_x30_29---Book-Shelf">
		<path id="Shape" class="st2" d="M161.6,133.8h-2.3V54.4c0-3.8-3-6.8-6.8-6.8h-6.8c-3.8,0-6.8,3-6.8,6.8v7.2
			c-0.7-0.3-1.5-0.4-2.3-0.4h-6.8c-0.8,0-1.5,0.1-2.3,0.4V43.1c0-3.8-3-6.8-6.8-6.8H98.1c-3.8,0-6.8,3-6.8,6.8v11.8
			c-0.7-0.3-1.5-0.4-2.3-0.4H80c-0.9,0-1.8,0.2-2.6,0.5c-0.7-2.2-2.5-3.9-4.7-4.5l-6.6-1.8c-1.7-0.5-3.6-0.2-5.2,0.7
			c-1.6,0.9-2.7,2.4-3.2,4.1L46.3,96.2l-3.2,12.1L37.8,128c-0.5,1.7-0.2,3.6,0.7,5.2c0.1,0.2,0.3,0.4,0.5,0.6
			c-3.7,0.1-6.6,3.1-6.6,6.8v4.5c0,3.8,3,6.8,6.8,6.8h2.3v6.8c0,3.8,3,6.8,6.8,6.8h9.1c3.8,0,6.8-3,6.8-6.8v-6.8h72.6v6.8
			c0,3.8,3,6.8,6.8,6.8h9.1c3.8,0,6.8-3,6.8-6.8v-6.8h2.3c3.8,0,6.8-3,6.8-6.8v-4.5C168.4,136.8,165.4,133.8,161.6,133.8z
			 M57.3,133.8c0.1-0.2,0.1-0.3,0.2-0.5l15.7-58.4v58.9H57.3z M62.2,54.7c0.3-1.2,1.6-1.9,2.8-1.6l6.6,1.8c0.6,0.2,1.1,0.5,1.4,1.1
			c0.3,0.5,0.4,1.1,0.2,1.7l-4.7,17.5l-11-2.9L62.2,54.7z M59.6,158.8c0,1.3-1,2.3-2.3,2.3h-9.1c-1.3,0-2.3-1-2.3-2.3v-6.8h13.6
			V158.8z M154.8,158.8c0,1.3-1,2.3-2.3,2.3h-9.1c-1.3,0-2.3-1-2.3-2.3v-6.8h13.6V158.8z M163.9,145.1c0,1.3-1,2.3-2.3,2.3H39.2
			c-1.3,0-2.3-1-2.3-2.3v-4.5c0-1.3,1-2.3,2.3-2.3h122.5c1.3,0,2.3,1,2.3,2.3V145.1z"/>
	</g>
</g>
<rect x="143.5" y="77.1" class="st3" width="11.3" height="31.8"/>
<polygon class="st3" points="143.5,115.7 143.5,113.4 154.8,113.4 154.8,133.8 143.5,133.8 "/>
<path class="st3" d="M143.5,54.4c0-1.3,1-2.3,2.3-2.3h6.8c1.3,0,2.3,1,2.3,2.3v18.1h-11.3V54.4z"/>
<rect x="127.6" y="117.9" class="st4" width="11.3" height="15.9"/>
<polygon class="st4" points="139,111.1 139,113.4 127.6,113.4 127.6,86.2 139,86.2 "/>
<path class="st4" d="M129.9,65.8h6.8c1.3,0,2.3,1,2.3,2.3v13.6h-11.3V68C127.6,66.8,128.6,65.8,129.9,65.8z"/>
<rect x="95.9" y="124.7" class="st5" width="27.2" height="9.1"/>
<rect x="95.9" y="54.4" class="st5" width="27.2" height="65.8"/>
<path class="st5" d="M98.1,40.8h22.7c1.3,0,2.3,1,2.3,2.3v6.8H95.9v-6.8C95.9,41.8,96.9,40.8,98.1,40.8z"/>
<path id="Shape_1_" class="st2" d="M102.7,65.8h13.6c1.3,0,2.3-1,2.3-2.3c0-1.3-1-2.3-2.3-2.3h-13.6c-1.3,0-2.3,1-2.3,2.3
	C100.4,64.7,101.4,65.8,102.7,65.8z"/>
<path id="Shape_2_" class="st2" d="M102.7,74.8h13.6c1.3,0,2.3-1,2.3-2.3s-1-2.3-2.3-2.3h-13.6c-1.3,0-2.3,1-2.3,2.3
	S101.4,74.8,102.7,74.8z"/>
<path class="st6" d="M61.5,53.8c0.3-1.3,1.7-2.1,3-1.7l7.1,1.9c0.6,0.2,1.2,0.6,1.5,1.1c0.3,0.6,0.4,1.2,0.2,1.8l-5,18.8l-11.8-3.2
	L61.5,53.8z"/>
<polygon class="st6" points="53.4,87.3 56.3,76.6 67.2,79.5 59,110.2 48.1,107.3 "/>
<rect x="77.7" y="127" class="st3" width="13.6" height="6.8"/>
<rect x="77.7" y="70.3" class="st3" width="13.6" height="52.2"/>
<path class="st3" d="M80,59h9.1c1.3,0,2.3,1,2.3,2.3v4.5H77.7v-4.5C77.7,60,78.7,59,80,59z"/>
<path class="st6" d="M42.2,129.2l4.7-17.5l11,2.9l-4.7,17.5c-0.2,0.6-0.5,1.1-1.1,1.4s-1.1,0.4-1.7,0.2l-6.6-1.8
	c-0.6-0.2-1.1-0.5-1.4-1.1C42.1,130.4,42,129.8,42.2,129.2L42.2,129.2z"/>
<g>
</g>
<g>
</g>
<g>
</g>
<g>
</g>
<g>
</g>
<g>
</g>
<g>
</g>
<g>
</g>
<g>
</g>
<g>
</g>
<g>
</g>
<g>
</g>
<g>
</g>
<g>
</g>
<g>
</g>
</svg>
