<?xml version="1.0" encoding="utf-8"?>
<!-- Generator: Adobe Illustrator 24.0.0, SVG Export Plug-In . SVG Version: 6.00 Build 0)  -->
<svg version="1.1" id="Layer_1" xmlns="http://www.w3.org/2000/svg" xmlns:xlink="http://www.w3.org/1999/xlink" x="0px" y="0px"
	 viewBox="0 0 200 200" style="enable-background:new 0 0 200 200;" xml:space="preserve">
<style type="text/css">
	.st0{fill:none;stroke:#B2550F;stroke-width:1.6305;stroke-linecap:round;stroke-miterlimit:10;stroke-dasharray:3.261,6.5221;}
	.st1{fill:#FFFFFF;}
	.st2{fill:#F05E23;}
	.st3{fill:#87C6C0;}
	.st4{fill:#FF8831;}
	.st5{fill:#FEBF00;}
	.st6{fill:#B2550F;}
</style>
<g>
	<g>
		<path class="st0" d="M93.4,148.9c-8.3,4.7-17.9,7.4-28.1,7.4c-31.4,0-56.9-25.5-56.9-56.9s25.5-56.9,56.9-56.9
			c14.3,0,27.4,5.3,37.4,14"/>
		<path class="st0" d="M79.8,66.1c3.1-28.4,27.2-50.6,56.5-50.6c31.4,0,56.9,25.5,56.9,56.9c0,26.2-17.8,48.3-42,54.9"/>
		<path class="st0" d="M171,82.9c14.6,10.3,24.2,27.3,24.2,46.5c0,31.4-25.5,56.9-56.9,56.9c-25.9,0-47.7-17.3-54.6-40.9"/>
	</g>
	<g>
		<polygon class="st1" points="48.2,28 56.9,26.6 48.2,25.2 46.9,16.6 45.5,25.2 36.8,26.6 45.5,28 46.9,36.6 		"/>
	</g>
	<g>
		<polygon class="st1" points="182.9,190.1 187.4,189.3 182.9,188.6 182.1,184.1 181.4,188.6 176.8,189.3 181.4,190.1 182.1,194.6 
					"/>
	</g>
	<g>
		<polygon class="st1" points="58.2,188 66.9,186.6 58.2,185.2 56.9,176.6 55.5,185.2 46.8,186.6 55.5,188 56.9,196.6 		"/>
	</g>
	<g>
		<polygon class="st1" points="9.4,52.6 14.4,51.8 9.4,51.1 8.6,46.1 7.8,51.1 2.8,51.8 7.8,52.6 8.6,57.6 		"/>
	</g>
	<g>
		<polygon class="st1" points="146.4,43.6 151.4,42.8 146.4,42.1 145.6,37.1 144.8,42.1 139.8,42.8 144.8,43.6 145.6,48.6 		"/>
	</g>
</g>
<path class="st2" d="M32,108.1c-3.9-0.8-17.5,2.8-18.8,5.2C10,119,10.9,130.8,11,137h13.9v35.6h45.4L70,120c2.4-2.4,7.7-5.5,5-8.7
	c-1.4-1.7-18.2-5.3-18-6c-1.7,5.8-8.7,9.5-14.5,7.7c-3.4-1.1-6.2-3.8-9.7-4.8C32.6,108.2,32.3,108.1,32,108.1z"/>
<path class="st3" d="M32.7,75c1.9,0.1,3.9,0,5.8,0c2.4,0,4.8,0,7.2,0c0.8,0,2.6-0.4,3.3,0c0.2,0.1,8,4,8,4c-1-0.5,0-12.3,0-13.8
	c0-3.5-0.4-4.7-4.2-5.2c-4.6-0.5-9.4,0.2-13.7,2C33.6,64.3,29,68.3,26,73.3C28,73.9,32.5,75,32.7,75z"/>
<path class="st4" d="M170.3,75c-1.9,0.1-3.9,0-5.8,0c-2.4,0-4.8,0-7.2,0c-0.8,0-2.6-0.4-3.3,0c-0.2,0.1-8,4-8,4c1-0.5,0-12.3,0-13.8
	c0-3.5,0.4-4.7,4.2-5.2c4.6-0.5,9.4,0.2,13.7,2c5.4,2.3,10.1,6.3,13.1,11.3C175,73.9,170.5,75,170.3,75z"/>
<polygon class="st5" points="88,119 101,132 114,116 130,119 132,124 132,173.6 70,173 70,122.4 75.8,116 86,116 "/>
<polygon class="st3" points="144,107 126,111 126,118.3 132,121 132,173.6 178,173 178,138 190,138 190,115 185,111 165,107 
	161,111 147,111 "/>
<path class="st2" d="M78,113c0-9.1,0-18.3,0-27.4c0-5.4-1-10.7,2.4-15.2C85.1,64.1,92.8,60,100.7,60c7.7,0,15.2,3.9,19.9,10
	c3,3.9,3.4,6.5,3.4,11c0,10,0,20,0,30c0,2.3,0,4.6,0,6.9l-14-2.9l-3-8l7-8V88l-27-7l1,18l7,10l-6,7C89,116,78,113,78,113z"/>
<path class="st6" d="M185.9,108.2l-17.6-4.4v-9.2l3.1-2.3V75.5h7l-1-3.8c-2.1-8.6-9.8-14.6-18.7-14.6H150c-5.1,0-9.2,4.1-9.2,9.2
	v25.9l3.1,2.3v9.2l-15.3,3.8V84.7c0-15.2-12.4-27.6-27.6-27.6S73.4,69.5,73.4,84.7v22.9L58,103.8v-9.2l3.1-2.3V66.4
	c0-5.1-4.1-9.2-9.2-9.2h-8.8c-8.8,0-16.5,6-18.7,14.6l-1,3.8h7v16.7l3.1,2.3v9.2L16,108.2c-4.1,1-7,4.7-7,8.9v56.5h6.1v-33.7h6.1
	v33.7h6.1v-49h-6.1v9.2h-6.1v-16.7c0-1.4,1-2.6,2.3-3l17-4.3c1.4,2.8,4.7,5.5,11.3,5.5s9.9-2.8,11.3-5.5l16.3,4.1v0.6
	c-3.7,1.3-6.1,4.8-6.1,8.7v50.5h6.1v-50.5c0-1.5,1.1-2.8,2.7-3l9.9-1.3c1.1,5.5,4.6,10.1,9.6,12.6l2.3,1.2v41h6.1v-41l2.3-1.2
	c5-2.5,8.5-7.1,9.6-12.6l9.9,1.3c1.5,0.2,2.7,1.5,2.7,3v50.5h6.1v-50.5c0-3.9-2.5-7.3-6.1-8.7V114l16.3-4.1
	c1.4,2.8,4.7,5.5,11.3,5.5c6.6,0,9.9-2.8,11.3-5.5l17,4.3c1.4,0.3,2.3,1.6,2.3,3v16.7h-6.1v-9.2h-6.1v49h6.1v-33.7h6.1v33.7h6.1
	v-56.5C192.9,112.9,190,109.2,185.9,108.2z M48.8,75.5v-6.1H32c2.4-3.8,6.6-6.1,11.1-6.1h8.8c1.7,0,3.1,1.4,3.1,3.1v22.9l-6.1,4.7
	h-6.1l-6.2-4.7V75.5H48.8z M45.8,109.3c-5.6,0-6.1-2.6-6.1-3.1v-6.9l1,0.8h10.2l1-0.8v6.8C51.9,106.7,51.4,109.3,45.8,109.3z
	 M103.6,126l-2.7,1.3l-2.7-1.3c-3.2-1.6-5.5-4.6-6.3-8.1c3-1.2,5.2-3.9,5.7-7.1l3.2,1.5l3.2-1.5c0.5,3.2,2.7,5.9,5.7,7.1
	C109.2,121.3,106.9,124.4,103.6,126z M104.8,103.7l-3.9,1.8l-3.9-1.8c-3.2-1.5-5.3-4.8-5.3-8.3V86l18.4,4.6v4.7
	C110.1,98.9,108.1,102.1,104.8,103.7L104.8,103.7z M112.9,112.3c-1.5-0.2-2.7-1.5-2.7-3v-1.7c3.8-2.9,6.1-7.4,6.1-12.2v-9.5
	l-30.7-7.7v17.2c0,4.8,2.3,9.3,6.1,12.2v1.7c0,1.5-1.2,2.8-2.7,3l-9.6,1.2V84.7c0-11.9,9.6-21.5,21.5-21.5s21.5,9.6,21.5,21.5v28.8
	L112.9,112.3z M146.9,66.4c0-1.7,1.4-3.1,3.1-3.1h8.8c4.5,0,8.7,2.3,11.1,6.1h-16.9v6.1h12.3v13.7l-6.1,4.7h-6.1l-6.2-4.7V66.4z
	 M156.1,109.3c-5.6,0-6.1-2.6-6.1-3.1v-6.9l1,0.8h10.2l1-0.8v6.8C162.2,106.7,161.7,109.3,156.1,109.3z"/>
<g>
</g>
<g>
</g>
<g>
</g>
<g>
</g>
<g>
</g>
<g>
</g>
<g>
</g>
<g>
</g>
<g>
</g>
<g>
</g>
<g>
</g>
<g>
</g>
<g>
</g>
<g>
</g>
<g>
</g>
</svg>
