<?xml version="1.0" encoding="utf-8"?>
<!-- Generator: Adobe Illustrator 23.0.2, SVG Export Plug-In . SVG Version: 6.00 Build 0)  -->
<svg version="1.1" id="Layer_1" xmlns="http://www.w3.org/2000/svg" xmlns:xlink="http://www.w3.org/1999/xlink" x="0px" y="0px"
	 viewBox="0 0 100 100" style="enable-background:new 0 0 100 100;" xml:space="preserve">
<style type="text/css">
	.st0{fill:#46BC93;}
</style>
<g id="Page-1">
	<g>
		<path class="st0" d="M17.9,40.7h44.5c0.8,0,1.4-0.6,1.4-1.4c0-0.8-0.6-1.4-1.4-1.4H17.9c-0.8,0-1.4,0.6-1.4,1.4
			C16.6,40.1,17.2,40.7,17.9,40.7z"/>
		<path class="st0" d="M17.9,46.3h19.5c0.8,0,1.4-0.6,1.4-1.4s-0.6-1.4-1.4-1.4H17.9c-0.8,0-1.4,0.6-1.4,1.4S17.2,46.3,17.9,46.3z"
			/>
		<path class="st0" d="M17.9,57.4h19.5c0.8,0,1.4-0.6,1.4-1.4s-0.6-1.4-1.4-1.4H17.9c-0.8,0-1.4,0.6-1.4,1.4S17.2,57.4,17.9,57.4z"
			/>
		<path class="st0" d="M17.9,68.5h19.5c0.8,0,1.4-0.6,1.4-1.4s-0.6-1.4-1.4-1.4H17.9c-0.8,0-1.4,0.6-1.4,1.4
			C16.6,67.9,17.2,68.5,17.9,68.5z"/>
		<path class="st0" d="M17.9,79.6h19.5c0.8,0,1.4-0.6,1.4-1.4s-0.6-1.4-1.4-1.4H17.9c-0.8,0-1.4,0.6-1.4,1.4S17.2,79.6,17.9,79.6z"
			/>
		<path class="st0" d="M92.2,50.6l-15.8-6.8V14.3c0-2.3-1.9-4.2-4.2-4.2H19.3c-2.3,0-4.2,1.9-4.2,4.2v1.4h-1.4
			c-2.3,0-4.2,1.9-4.2,4.2v69.5c0,2.3,1.9,4.2,4.2,4.2h52.8c1.1,0,2.2-0.5,3-1.3l1.1,0.8c0.9,0.6,2,0.6,2.9,0L87,83.5
			c3.7-2.6,5.9-6.9,6-11.5V51.9C93,51.4,92.7,50.8,92.2,50.6z M17.9,14.3c0-0.8,0.6-1.4,1.4-1.4h52.8c0.8,0,1.4,0.6,1.4,1.4v28.3
			l-0.8-0.4c-0.4-0.2-0.7-0.2-1.1,0l-0.8,0.4v-8.8v-0.1c0-0.1,0-0.2-0.1-0.3v-0.1l0,0c-0.1-0.2-0.2-0.3-0.3-0.4L53.7,16.1
			c-0.1-0.1-0.3-0.2-0.4-0.3l0,0h-0.1c-0.1,0-0.2-0.1-0.3-0.1h-0.1H17.9V14.3z M54.1,20.4l11.9,12H55.5c-0.8,0-1.4-0.6-1.4-1.4V20.4
			z M66.6,90.8H13.8c-0.8,0-1.4-0.6-1.4-1.4V19.9c0-0.8,0.6-1.4,1.4-1.4h37.5V31c0,2.3,1.9,4.2,4.2,4.2H68v8.6l-4.5,1.9
			c0.2-0.2,0.3-0.5,0.3-0.8c0-0.8-0.6-1.4-1.4-1.4H43c-0.8,0-1.4,0.6-1.4,1.4s0.6,1.4,1.4,1.4h19.2l-6.4,2.8H17.9
			c-0.8,0-1.4,0.6-1.4,1.4s0.6,1.4,1.4,1.4h33.4c0,0,0,0,0,0.1v2.7H43c-0.8,0-1.4,0.6-1.4,1.4s0.6,1.4,1.4,1.4h8.3v2.8H17.9
			c-0.8,0-1.4,0.6-1.4,1.4c0,0.8,0.6,1.4,1.4,1.4h33.4v2.8H43c-0.8,0-1.4,0.6-1.4,1.4s0.6,1.4,1.4,1.4h8.3v2.8H17.9
			c-0.8,0-1.4,0.6-1.4,1.4s0.6,1.4,1.4,1.4h33.5c0.1,0.9,0.4,1.9,0.7,2.8H43c-0.8,0-1.4,0.6-1.4,1.4s0.6,1.4,1.4,1.4h10.6
			c0.7,1,1.4,2,2.3,2.8h-38c-0.8,0-1.4,0.6-1.4,1.4s0.6,1.4,1.4,1.4h41.7l7.6,5.4C67,90.7,66.8,90.7,66.6,90.8z M90.2,72
			c0,3.7-1.8,7.1-4.8,9.2l-13.3,9.4l-13.3-9.5c-3-2.1-4.8-5.6-4.8-9.2V52.8l2.5-1.1l0,0L72.2,45l18.1,7.8L90.2,72L90.2,72z"/>
		<path class="st0" d="M71.6,48.3l-13.9,6c-0.5,0.2-0.8,0.7-0.8,1.3V72c0,2.8,1.4,5.4,3.6,7l10.9,7.7c0.5,0.3,1.1,0.3,1.6,0L83.8,79
			c2.3-1.6,3.6-4.2,3.6-7V55.6c0-0.6-0.3-1.1-0.8-1.3l-13.9-6C72.4,48.1,72,48.1,71.6,48.3z M84.7,56.5V72c0,1.9-0.9,3.6-2.5,4.7
			l-10,7.1l-10-7.2c-1.5-1.1-2.4-2.8-2.5-4.7V56.5l12.5-5.4L84.7,56.5z"/>
		<path class="st0" d="M64.6,68.8c-0.4-0.3-0.9-0.4-1.4-0.2c-0.5,0.2-0.8,0.6-0.8,1.1c-0.1,0.5,0.1,1,0.5,1.3l5.6,4.2
			c0.6,0.5,1.5,0.3,1.9-0.2l11.2-14c0.5-0.6,0.4-1.5-0.2-2s-1.5-0.4-2,0.2l-10.3,13L64.6,68.8z"/>
	</g>
</g>
</svg>
