<svg xmlns="http://www.w3.org/2000/svg" viewBox="0 0 123.65 123.65"><defs><style>.cls-1{fill:#b2550f;}.cls-2{fill:#f05e23;}.cls-3{fill:#ffaf5e;}.cls-4{fill:none;}.cls-5{font-size:58.04px;fill:#fff;font-family:Arial-BoldMT, Arial;font-weight:700;}</style></defs><title>btn10</title><g id="Layer_2" data-name="Layer 2"><g id="Layer_1-2" data-name="Layer 1"><path class="cls-1" d="M16.75,0a16.7,16.7,0,0,0-8,2l14.7,121.62h100.2V0Z"/><polygon class="cls-2" points="104.11 0 0 0 0 94.07 104.11 0"/><path class="cls-3" d="M9.55,0H0V123.65H87Z"/><path class="cls-4" d="M16.75,0H106.9a16.75,16.75,0,0,1,16.75,16.75v106.9a0,0,0,0,1,0,0H16.75A16.75,16.75,0,0,1,0,106.9V16.75A16.75,16.75,0,0,1,16.75,0Z"/><text class="cls-5" transform="translate(13.4 85.36)">#10</text></g></g></svg>