<svg xmlns="http://www.w3.org/2000/svg" viewBox="0 0 98.77 98.77"><defs><style>.cls-1{fill:#febf00;stroke:#b2550f;stroke-linecap:round;stroke-linejoin:round;stroke-width:10px;}.cls-2{fill:#b2550f;}.cls-3{fill:#fff;}</style></defs><title>build</title><g id="Layer_2" data-name="Layer 2"><g id="Layer_1-2" data-name="Layer 1"><path class="cls-1" d="M49.39,93.77A44.39,44.39,0,1,1,93.77,49.39,44.43,44.43,0,0,1,49.39,93.77Z"/><path class="cls-2" d="M49.38.67A48.72,48.72,0,1,0,98.1,49.39,48.77,48.77,0,0,0,49.38.67Zm0,89.5A40.79,40.79,0,1,1,90.17,49.39,40.83,40.83,0,0,1,49.38,90.17Z"/><path class="cls-3" d="M75.84,49.12v-23H63V19.37H35.79v6.78H22.22v23H18.65V71.31H29.46l-2.93,3.78H38L35,71.31H45.85V49.12H26.57V30.49h9.22V41.56H46.6l-2.93,3.78H55.1l-2.93-3.78H63V30.49h8.51V49.12H51.85V71.31H62.66l-2.92,3.78H71.16l-2.92-3.78H79.05V49.12ZM41.5,67H23V53.46H41.5ZM58.64,37.22H40.13V23.71H58.64ZM74.7,67H56.2V53.46H74.7Z"/></g></g></svg>