<svg xmlns="http://www.w3.org/2000/svg" viewBox="0 0 97.43 97.43"><defs><style>.cls-1{fill:#87c6c0;stroke:#b2550f;stroke-linecap:round;stroke-linejoin:round;stroke-width:3.53px;}.cls-2{fill:#fff;}.cls-3{fill:#b2550f;}</style></defs><title>change</title><g id="Layer_2" data-name="Layer 2"><g id="Layer_1-2" data-name="Layer 1"><path class="cls-1" d="M48.72,89.5A40.79,40.79,0,1,1,89.49,48.72,40.84,40.84,0,0,1,48.72,89.5Z"/><path class="cls-2" d="M59.13,43.14l3.76,4.17a18.36,18.36,0,0,1-13.44.59A18.38,18.38,0,0,1,50,34.45l4.17,3.77,4.14-19.34L39.53,25l4.4,4a26.56,26.56,0,0,0-3.18,16.38C28.69,43.55,19.4,51,15.76,55.93l6.39,4.7c.35-.47,8.46-11,21.11-6.54,4.48,12.63-6.08,20.76-6.55,21.11l4.71,6.39c5-3.64,12.38-12.93,10.62-25a26.48,26.48,0,0,0,16.38-3.17l4,4.4L78.47,39Z"/><path class="cls-3" d="M48.72,0A48.72,48.72,0,1,0,97.43,48.72,48.77,48.77,0,0,0,48.72,0Zm0,89.5A40.79,40.79,0,1,1,89.49,48.72,40.84,40.84,0,0,1,48.72,89.5Z"/></g></g></svg>