<svg xmlns="http://www.w3.org/2000/svg" viewBox="0 0 158 158"><defs><style>.cls-1{fill:#f05e23;stroke:#b2550f;stroke-linecap:round;stroke-linejoin:round;stroke-width:8px;}.cls-2{fill:#fff;}.cls-3{fill:#febf00;}</style></defs><title>fair1</title><g id="Layer_2" data-name="Layer 2"><g id="Layer_1-2" data-name="Layer 1"><rect class="cls-1" x="4" y="4" width="150" height="150" rx="20"/><path class="cls-2" d="M80.15,134.68V61.42a4.31,4.31,0,0,1,4.32-4.32H132a4.32,4.32,0,0,1,4.33,4.32v5.21A4.32,4.32,0,0,1,132,71H101a4.33,4.33,0,0,0-4.33,4.33V86A4.33,4.33,0,0,0,101,90.34h25.54a4.33,4.33,0,0,1,4.33,4.32v5.21a4.33,4.33,0,0,1-4.33,4.33H101a4.32,4.32,0,0,0-4.33,4.32v26.16A4.31,4.31,0,0,1,92.36,139H84.47A4.31,4.31,0,0,1,80.15,134.68Z"/><path class="cls-3" d="M23.92,21.39H52.56a2.61,2.61,0,0,1,2.6,2.6h0a2.61,2.61,0,0,1-2.6,2.61H23.92A2.61,2.61,0,0,1,21.31,24h0A2.61,2.61,0,0,1,23.92,21.39Z"/><path class="cls-3" d="M23.92,31.8H52.56a2.61,2.61,0,0,1,2.6,2.61h0a2.6,2.6,0,0,1-2.6,2.6H23.92a2.6,2.6,0,0,1-2.61-2.6h0A2.61,2.61,0,0,1,23.92,31.8Z"/><path class="cls-3" d="M23.92,42.22h13a2.6,2.6,0,0,1,2.6,2.6h0a2.61,2.61,0,0,1-2.6,2.61h-13a2.61,2.61,0,0,1-2.61-2.61h0A2.6,2.6,0,0,1,23.92,42.22Z"/><path class="cls-3" d="M29.94,56.74h0a2.55,2.55,0,0,1,2.54,2.55V78.45a2.55,2.55,0,0,0,1.8,2.43l27.07,8.33A2.54,2.54,0,0,1,63,92.39h0a2.56,2.56,0,0,1-3.19,1.69L31,85.19a5.08,5.08,0,0,1-3.6-4.86v-21A2.55,2.55,0,0,1,29.94,56.74Z"/></g></g></svg>