<svg xmlns="http://www.w3.org/2000/svg" viewBox="0 0 160 160"><defs><style>.cls-1{fill:#87c6c0;stroke:#b2550f;stroke-linecap:round;stroke-linejoin:round;stroke-width:10px;}.cls-2{fill:#f05e23;}.cls-3{fill:#fff;}</style></defs><title>fair2</title><g id="Layer_2" data-name="Layer 2"><g id="Layer_1-2" data-name="Layer 1"><rect class="cls-1" x="5" y="5" width="150" height="150" rx="20"/><path class="cls-2" d="M103.43,23.32h28.64a2.61,2.61,0,0,1,2.6,2.6h0a2.61,2.61,0,0,1-2.6,2.61H103.43a2.61,2.61,0,0,1-2.61-2.61h0A2.61,2.61,0,0,1,103.43,23.32Z"/><path class="cls-2" d="M103.43,33.73h28.64a2.61,2.61,0,0,1,2.6,2.61h0a2.6,2.6,0,0,1-2.6,2.6H103.43a2.6,2.6,0,0,1-2.61-2.6h0A2.61,2.61,0,0,1,103.43,33.73Z"/><path class="cls-2" d="M103.43,44.15h13a2.6,2.6,0,0,1,2.6,2.6h0a2.61,2.61,0,0,1-2.6,2.61h-13a2.61,2.61,0,0,1-2.61-2.61h0A2.6,2.6,0,0,1,103.43,44.15Z"/><path class="cls-2" d="M116.5,59h0A2.54,2.54,0,0,0,114,61.57V80.73a2.53,2.53,0,0,1-1.8,2.43L99.09,86.49a2.55,2.55,0,0,0-1.69,3.18h0a2.55,2.55,0,0,0,3.18,1.68l14.87-3.88a5.09,5.09,0,0,0,3.6-4.87v-21A2.55,2.55,0,0,0,116.5,59Z"/><path class="cls-3" d="M98.94,138.24H89.09a3.77,3.77,0,0,1-3.51-2.42L80,121.17a2.4,2.4,0,0,0-2.24-1.54H48.29A2.4,2.4,0,0,0,46,121.21l-5.28,14.55a3.77,3.77,0,0,1-3.54,2.48h-9.4a3.76,3.76,0,0,1-3.51-5.13L52.93,59.64a5.17,5.17,0,0,1,4.83-3.31H68.19A5.19,5.19,0,0,1,73,59.59l29.42,73.49A3.76,3.76,0,0,1,98.94,138.24ZM72.85,102.61,65,81.54a2.39,2.39,0,0,0-4.49,0l-7.67,21.06a2.39,2.39,0,0,0,2.25,3.21H70.61A2.39,2.39,0,0,0,72.85,102.61Z"/></g></g></svg>