<svg xmlns="http://www.w3.org/2000/svg" viewBox="0 0 160 160"><defs><style>.cls-1{fill:#ff8831;stroke:#b2550f;stroke-linecap:round;stroke-linejoin:round;stroke-width:10px;}.cls-2{fill:#fff;}.cls-3{fill:#febf00;}</style></defs><title>fair4</title><g id="Layer_2" data-name="Layer 2"><g id="Layer_1-2" data-name="Layer 1"><rect class="cls-1" x="5" y="5" width="150" height="150" rx="20"/><path class="cls-2" d="M30.69,132.94V57.74a3.36,3.36,0,0,1,3.36-3.36H65.5q13.13,0,19.08,2.21a18.85,18.85,0,0,1,9.53,7.85,23.64,23.64,0,0,1,3.57,12.91q0,9.21-5.42,15.22a22.05,22.05,0,0,1-9.21,5.9A3.37,3.37,0,0,0,82,104.26,33.73,33.73,0,0,1,84.92,107q3.48,3.75,9.41,13.3l6.79,10.85a3.35,3.35,0,0,1-2.84,5.13H86.34a3.34,3.34,0,0,1-2.78-1.49l-11-16.33q-6.37-9.56-8.72-12a12.59,12.59,0,0,0-5-3.41,27.13,27.13,0,0,0-8.33-.92h0a3.35,3.35,0,0,0-3.35,3.35v27.49a3.35,3.35,0,0,1-3.35,3.35H34.05A3.36,3.36,0,0,1,30.69,132.94ZM47.23,85.67A3.35,3.35,0,0,0,50.58,89h8.89q11.9,0,14.86-1A8.94,8.94,0,0,0,79,84.55a10.7,10.7,0,0,0,1.67-6.14,9.84,9.84,0,0,0-2.2-6.68,10.19,10.19,0,0,0-6.23-3.21q-2-.28-12.07-.28H50.58a3.35,3.35,0,0,0-3.35,3.35Z"/><path class="cls-3" d="M107.72,24h28.64A2.61,2.61,0,0,1,139,26.6h0a2.61,2.61,0,0,1-2.6,2.6H107.72a2.61,2.61,0,0,1-2.61-2.6h0A2.61,2.61,0,0,1,107.72,24Z"/><path class="cls-3" d="M107.72,34.41h28.64A2.6,2.6,0,0,1,139,37h0a2.6,2.6,0,0,1-2.6,2.6H107.72a2.6,2.6,0,0,1-2.61-2.6h0A2.6,2.6,0,0,1,107.72,34.41Z"/><path class="cls-3" d="M107.72,44.82h13a2.61,2.61,0,0,1,2.6,2.6h0a2.61,2.61,0,0,1-2.6,2.61h-13a2.61,2.61,0,0,1-2.61-2.61h0A2.61,2.61,0,0,1,107.72,44.82Z"/><path class="cls-3" d="M96.22,26.87h0a2.54,2.54,0,0,1-2.54,2.54H74.52a2.54,2.54,0,0,0-2.43,1.8L68.76,44.28A2.54,2.54,0,0,1,65.58,46h0a2.56,2.56,0,0,1-1.69-3.19l3.88-14.87a5.11,5.11,0,0,1,4.87-3.59h21A2.55,2.55,0,0,1,96.22,26.87Z"/></g></g></svg>