<svg xmlns="http://www.w3.org/2000/svg" viewBox="0 0 160 160"><defs><style>.cls-1{fill:#febf00;stroke:#b2550f;stroke-linecap:round;stroke-linejoin:round;stroke-width:10px;}.cls-2{fill:#fff;}.cls-3{fill:#f05e23;}</style></defs><title>fair3</title><g id="Layer_2" data-name="Layer 2"><g id="Layer_1-2" data-name="Layer 1"><rect class="cls-1" x="5" y="5" width="150" height="150" rx="20"/><path class="cls-2" d="M51.46,120.59v-74a4,4,0,0,1,3.95-4H64a4,4,0,0,1,4,4v74a4,4,0,0,1-4,4H55.41A4,4,0,0,1,51.46,120.59Z"/><path class="cls-3" d="M97.44,99.4h28.64a2.6,2.6,0,0,1,2.6,2.6h0a2.6,2.6,0,0,1-2.6,2.61H97.44a2.6,2.6,0,0,1-2.6-2.61h0A2.6,2.6,0,0,1,97.44,99.4Z"/><path class="cls-3" d="M97.44,109.81h28.64a2.6,2.6,0,0,1,2.6,2.61h0a2.59,2.59,0,0,1-2.6,2.6H97.44a2.59,2.59,0,0,1-2.6-2.6h0A2.6,2.6,0,0,1,97.44,109.81Z"/><path class="cls-3" d="M97.44,120.23h13a2.59,2.59,0,0,1,2.6,2.6h0a2.6,2.6,0,0,1-2.6,2.61h-13a2.6,2.6,0,0,1-2.6-2.61h0A2.59,2.59,0,0,1,97.44,120.23Z"/><path class="cls-3" d="M78.61,71.67h0a2.55,2.55,0,0,0,2.55,2.54h19.16a2.54,2.54,0,0,1,2.43,1.8l3.33,13.07a2.54,2.54,0,0,0,3.18,1.69h0A2.56,2.56,0,0,0,111,87.58l-3.89-14.87a5.09,5.09,0,0,0-4.86-3.59h-21A2.55,2.55,0,0,0,78.61,71.67Z"/></g></g></svg>