<svg xmlns="http://www.w3.org/2000/svg" viewBox="0 0 97.43 97.43"><defs><style>.cls-1{fill:#f05e23;}.cls-2{fill:#b2550f;}.cls-3{fill:#fff;}</style></defs><title>train</title><g id="Layer_2" data-name="Layer 2"><g id="Layer_1-2" data-name="Layer 1"><path class="cls-1" d="M48.72,93.1A44.19,44.19,0,1,1,92.9,48.92,44.23,44.23,0,0,1,48.72,93.1Z"/><path class="cls-2" d="M48.71,0A48.72,48.72,0,1,0,97.43,48.72,48.77,48.77,0,0,0,48.71,0Zm0,89.5A40.79,40.79,0,1,1,89.49,48.72,40.83,40.83,0,0,1,48.71,89.5Z"/><path class="cls-3" d="M70.11,49.5,70,48.09a2.52,2.52,0,0,1,.71-1.87l1.63-1.65A4.49,4.49,0,0,0,73,39.12l-1.18-2a2.5,2.5,0,0,1-.24-2l.67-2.22a4.49,4.49,0,0,0-2-5.13l-2-1.22a2.46,2.46,0,0,1-1.13-1.64l-.44-2.27A4.47,4.47,0,0,0,62.69,19l-2.32-.17a2.44,2.44,0,0,1-1.76-.92l-1.45-1.81a4.5,4.5,0,0,0-5.33-1.32l-2.12.94a2.55,2.55,0,0,1-2,0l-2.13-.94a4.49,4.49,0,0,0-5.32,1.31l-1.45,1.82a2.44,2.44,0,0,1-1.76.92L34.74,19a4.5,4.5,0,0,0-4.1,3.64l-.44,2.28a2.46,2.46,0,0,1-1.13,1.64l-2,1.22a4.48,4.48,0,0,0-1.94,5.13l.67,2.22a2.47,2.47,0,0,1-.24,2l-1.19,2a4.51,4.51,0,0,0,.67,5.45l1.62,1.65a2.48,2.48,0,0,1,.71,1.86l-.12,2.32a4.63,4.63,0,0,0,.14,1.24,4.26,4.26,0,0,1-.14-1.24l.05-.9L13.69,63.12l14.66,3.66,3.73,14.7L48.71,64.85,65.35,81.48l3.73-14.7,14.65-3.66Zm0,.9A4.15,4.15,0,0,1,70,51.63,4.6,4.6,0,0,0,70.16,50.4ZM27.8,41.15l1.19-2A6.46,6.46,0,0,0,29.62,34l-.68-2.22a.53.53,0,0,1,.23-.6l2-1.22a6.47,6.47,0,0,0,3-4.27l.43-2.28A.54.54,0,0,1,35,23l2.32-.16a6.42,6.42,0,0,0,4.59-2.41l1.45-1.81a.54.54,0,0,1,.63-.16l2.12.94a6.51,6.51,0,0,0,5.19,0l2.12-.94a.54.54,0,0,1,.63.16l1.44,1.81a6.46,6.46,0,0,0,4.6,2.41l2.31.16a.52.52,0,0,1,.48.43l.44,2.28a6.43,6.43,0,0,0,3,4.27l2,1.22a.54.54,0,0,1,.23.6L67.81,34a6.46,6.46,0,0,0,.63,5.15l1.18,2a.53.53,0,0,1-.08.64l-1.62,1.65a6.46,6.46,0,0,0-1.84,4.85l.12,2.32a.53.53,0,0,1-.37.53l-2.21.71a5.8,5.8,0,0,0-.95.39l-.06,0h0l-.27.15a6.45,6.45,0,0,0-2.6,2.87l-1,2.11a.54.54,0,0,1-.57.29l-2.29-.4a6.53,6.53,0,0,0-5,1.25L49,60,49,60a.52.52,0,0,1-.51,0h0l-1.9-1.45a6.51,6.51,0,0,0-5-1.25l-2.39.41a.52.52,0,0,1-.47-.3l-1-2.11a6.5,6.5,0,0,0-2.6-2.87l-.62-.32a5.4,5.4,0,0,0-.67-.25l-2.2-.71a.53.53,0,0,1-.37-.53l.12-2.32a6.42,6.42,0,0,0-1.84-4.85l-1.62-1.65A.53.53,0,0,1,27.8,41.15Zm42.07,11a4.66,4.66,0,0,1-.22.45A3.74,3.74,0,0,0,69.87,52.13ZM33.2,53.74l-.11,1.06-.34.34Zm-5.43-1.16c-.07-.15-.15-.29-.21-.45A3.68,3.68,0,0,0,27.77,52.58Zm17.57,10L34.21,73.74,31.61,63.5,21.46,61l7.18-7.18h0a4.45,4.45,0,0,0,1.74,1.13l2.22.71,0-.07.38.23A2.55,2.55,0,0,1,34.09,57l1,2.1a4.51,4.51,0,0,0,4,2.62,3.54,3.54,0,0,0,.81-.07l2.29-.4a2.54,2.54,0,0,1,1.93.48L46,63.09Zm20.48.89-2.6,10.24L52.05,62.58l1.24-.9a2.48,2.48,0,0,1,1.94-.48l2.26.4a4.19,4.19,0,0,0,.88.07,4.5,4.5,0,0,0,4-2.62l1-2.11a2.58,2.58,0,0,1,1.09-1.15L67,54.92a4.49,4.49,0,0,0,1.75-1.13L76,61Z"/><path class="cls-3" d="M48.72,52.6A13.38,13.38,0,1,0,35.34,39.23,13.39,13.39,0,0,0,48.72,52.6Zm0-22.78a9.41,9.41,0,1,1-9.41,9.41A9.42,9.42,0,0,1,48.72,29.82Z"/></g></g></svg>