<?xml version="1.0" encoding="utf-8"?>
<!-- Generator: Adobe Illustrator 23.0.2, SVG Export Plug-In . SVG Version: 6.00 Build 0)  -->
<svg version="1.1" id="Layer_1" xmlns="http://www.w3.org/2000/svg" xmlns:xlink="http://www.w3.org/1999/xlink" x="0px" y="0px"
	 viewBox="0 0 100 100" style="enable-background:new 0 0 100 100;" xml:space="preserve">
<style type="text/css">
	.st0{fill:#FFFFFF;}
</style>
<g>
	<path class="st0" d="M77.7,54.2h-4.2c-0.3-0.8-0.6-1.6-1-2.4l3-3c0.3-0.3,0.4-0.6,0.4-1c0-0.4-0.2-0.7-0.4-1l-5.7-5.8
		c-0.5-0.5-1.4-0.5-2,0c-0.5,0.5-0.5,1.4,0,2c0,0,0,0,0,0l4.8,4.8l-2.7,2.8c-0.4,0.4-0.5,1.1-0.2,1.6c0.7,1.2,1.2,2.5,1.6,3.8
		c0.2,0.6,0.8,1,1.4,1h3.7v11.1h-3.8c-0.6,0-1.2,0.4-1.4,1c-0.4,1.3-0.9,2.6-1.6,3.8c-0.3,0.5-0.2,1.2,0.2,1.6l2.7,2.8l-7.8,7.8
		l-2.8-2.7c-0.4-0.4-1.1-0.5-1.6-0.2c-1.2,0.7-2.5,1.2-3.8,1.6c-0.6,0.2-1,0.8-1,1.4v3.6h-11V85c0-0.6-0.4-1.2-1-1.4
		c-1.3-0.4-2.6-0.9-3.8-1.6c-0.5-0.3-1.2-0.2-1.6,0.2L35.3,85l-7.8-7.8l2.8-2.8c0.4-0.4,0.5-1.1,0.2-1.6c-0.7-1.2-1.2-2.5-1.6-3.8
		c-0.2-0.6-0.8-1-1.4-1h-3.8v-11h3.8c0.6,0,1.2-0.4,1.4-1c0.4-1.3,0.9-2.6,1.6-3.8c0.3-0.5,0.2-1.2-0.2-1.6l-2.8-2.8l4.8-4.6
		c0.5-0.5,0.5-1.4,0-2c0,0,0,0,0,0c-0.5-0.5-1.4-0.5-2,0l-5.7,5.8c-0.3,0.3-0.4,0.6-0.4,1c0,0.4,0.2,0.7,0.4,1l3,3
		c-0.4,0.8-0.7,1.6-1.1,2.4h-4.2c-0.8,0-1.4,0.6-1.4,1.4v13.9c0,0.8,0.6,1.4,1.4,1.4h4.2c0.3,0.8,0.6,1.6,1,2.4l-2.9,3
		c-0.3,0.3-0.4,0.6-0.4,1c0,0.4,0.2,0.7,0.4,1l9.8,9.8c0.5,0.5,1.4,0.5,2,0l3-3c0.8,0.4,1.6,0.7,2.4,1.1v4.2c0,0.8,0.6,1.4,1.4,1.4
		h13.9c0.8,0,1.4-0.6,1.4-1.4v-4.2c0.8-0.3,1.6-0.6,2.4-1l3,3c0.5,0.5,1.4,0.5,2,0l9.8-9.8c0.3-0.3,0.4-0.6,0.4-1
		c0-0.4-0.2-0.7-0.4-1l-3-3c0.4-0.8,0.7-1.6,1.1-2.5h4.2c0.8,0,1.4-0.6,1.4-1.4V55.6C79.1,54.8,78.5,54.2,77.7,54.2z"/>
	<path class="st0" d="M69.1,16.3c0.7,0.4,1.5,0.2,1.9-0.5l0.5-0.9l1.6,0.9c0.5,0.3,1.1,0.2,1.6-0.2c0.6-0.6,1.4-1,2.2-1.3
		c0.5-0.2,0.9-0.7,0.9-1.3v-1.9h2.8v1.9c0,0.6,0.4,1.1,0.9,1.3c0.8,0.3,1.5,0.7,2.2,1.3c0.4,0.4,1.1,0.4,1.6,0.2l1.6-0.9l1.4,2.4
		l-1.6,0.9c-0.5,0.3-0.8,0.9-0.7,1.5c0.2,0.8,0.2,1.7,0,2.5c-0.1,0.6,0.1,1.2,0.7,1.5l1.6,0.9L86.9,27l-1.6-0.9
		c-0.5-0.3-1.1-0.2-1.6,0.2c-0.6,0.5-1.4,1-2.2,1.3c-0.6,0.2-0.9,0.7-0.9,1.3v1.8h-2.8v-1.9c0-0.6-0.4-1.1-0.9-1.3
		c-0.8-0.3-1.5-0.7-2.2-1.3c-0.6-0.5-1.5-0.4-2,0.2c-0.5,0.6-0.4,1.5,0.2,2l0,0c0.6,0.6,1.4,1,2.1,1.4V32c0,0.8,0.6,1.4,1.4,1.4H82
		c0.8,0,1.4-0.6,1.4-1.4v-2.3c0.5-0.2,0.9-0.5,1.4-0.8l2,1.2c0.7,0.4,1.5,0.2,1.9-0.5c0,0,0,0,0,0l2.8-4.8c0.4-0.7,0.2-1.5-0.5-1.9
		c0,0,0,0,0,0l-2-1.2c0-0.3,0-0.5,0-0.8c0-0.3,0-0.5,0-0.8l2-1.2c0.7-0.4,0.9-1.2,0.5-1.9c0,0,0,0,0,0l-2.8-4.8
		c-0.4-0.7-1.2-0.9-1.9-0.5c0,0,0,0,0,0l-2.1,1.2c-0.4-0.3-0.9-0.6-1.4-0.8V9.8c0-0.8-0.6-1.4-1.4-1.4h-5.5c-0.8,0-1.4,0.6-1.4,1.4
		v2.3c-0.5,0.2-0.9,0.5-1.4,0.8l-1.9-1.2c-0.7-0.4-1.5-0.1-1.9,0.5l-1.2,2.1C68.2,15,68.4,15.9,69.1,16.3z"/>
	<path class="st0" d="M79.2,19.5c0.8,0,1.4,0.6,1.4,1.4s0.6,1.4,1.4,1.4c0.8,0,1.4-0.6,1.4-1.4c0-2.3-1.9-4.2-4.2-4.2
		S75,18.6,75,20.9s1.9,4.2,4.2,4.2c0.8,0,1.4-0.6,1.4-1.4c0-0.8-0.6-1.4-1.4-1.4s-1.4-0.6-1.4-1.4S78.4,19.5,79.2,19.5z"/>
	<path class="st0" d="M37.5,42.7v4.6c0,0.8,0.6,1.4,1.4,1.4c0.8,0,1.4-0.6,1.4-1.4V42c0-0.4-0.2-0.8-0.5-1.1
		c-7.2-5.7-8.5-16.1-2.9-23.4S53,9,60.2,14.7s8.5,16.1,2.9,23.4c-0.8,1.1-1.8,2-2.9,2.9c-0.3,0.3-0.5,0.7-0.5,1.1v9.4H45.8v-18
		c0-0.5-0.2-0.9-0.6-1.2l-3.5-2.4v-4.8h3.3l4.2,3.8c0.5,0.5,1.4,0.5,1.9,0l3.7-3.8h3.6v4.8l-3.5,2.4c-0.4,0.3-0.6,0.7-0.6,1.2v11.1
		c0,0.8,0.6,1.4,1.4,1.4c0.8,0,1.4-0.6,1.4-1.4V34.1l3.5-2.4c0.4-0.3,0.6-0.7,0.6-1.2v-6.9c0-0.8-0.6-1.4-1.4-1.4h-5.5
		c-0.4,0-0.7,0.1-1,0.4L50,25.9l-3.5-3.2c-0.3-0.2-0.6-0.4-0.9-0.4h-5.2c-0.8,0-1.4,0.6-1.4,1.4v6.9c0,0.5,0.2,0.9,0.6,1.2l3.5,2.4
		v17.3h-4.2c-2.3,0-4.2,1.9-4.2,4.2c0,1,0.4,2,1.1,2.8c-0.7,0.8-1.1,1.7-1.1,2.8c0,2.3,1.9,4.2,4.2,4.2h1.5
		c0.8,5.3,5.8,8.9,11.1,8.1c4.2-0.6,7.5-3.9,8.1-8.1h1.5c0.8,0,1.4-0.6,1.4-1.4s-0.6-1.4-1.4-1.4H38.9c-0.8,0-1.4-0.6-1.4-1.4
		c0-0.8,0.6-1.4,1.4-1.4h22.2c2.3,0,4.1-1.9,4.1-4.2c0-1.7-1.1-3.3-2.7-3.9v-9c8.2-6.9,9.3-19.1,2.4-27.3S45.7,6,37.5,12.9
		s-9.3,19.1-2.4,27.3C35.8,41.2,36.6,42,37.5,42.7z M56.8,65.3c-0.8,3.8-4.4,6.2-8.2,5.4c-2.7-0.6-4.9-2.7-5.4-5.4H56.8z M61.1,56.9
		H38.9c-0.8,0-1.4-0.6-1.4-1.4c0-0.8,0.6-1.4,1.4-1.4h22.2c0.8,0,1.4,0.6,1.4,1.4C62.5,56.3,61.8,56.9,61.1,56.9z"/>
	<path class="st0" d="M21.6,46.7c0.7-0.4,0.9-1.2,0.5-1.9c0,0,0,0,0,0L20,41.2l1.6-0.9c0.5-0.3,0.8-0.9,0.7-1.5
		c-0.2-0.8-0.2-1.7,0-2.5c0.1-0.6-0.1-1.2-0.7-1.5L20,33.8l1.4-2.4l1.6,0.9c0.5,0.3,1.1,0.2,1.6-0.2c0.6-0.5,1.4-1,2.2-1.3
		c0.6-0.2,0.9-0.7,0.9-1.3v-1.4c0.1-0.1,0.1-0.3,0.1-0.4c0-0.3,0-0.6,0-0.9v-0.4c0-0.4-0.1-0.8-0.4-1c-0.3-0.3-0.6-0.4-1-0.4h-0.2
		c-0.8,0-1.4,0.6-1.4,1.4v2.3c-0.5,0.2-0.9,0.5-1.4,0.8l-1.9-1.2c-0.7-0.4-1.5-0.2-1.9,0.5c0,0,0,0,0,0l-2.8,4.8
		c-0.4,0.7-0.2,1.5,0.5,1.9c0,0,0,0,0,0l2,1.2c0,0.3,0,0.5,0,0.8s0,0.5,0,0.8l-2,1.2c-0.7,0.4-0.9,1.2-0.5,1.9c0,0,0,0,0,0l2.8,4.8
		C20,46.8,20.9,47.1,21.6,46.7C21.5,46.7,21.6,46.7,21.6,46.7z"/>
	<path class="st0" d="M26.9,34c-1.2,0.8-1.9,2.1-1.9,3.5c0,0.8,0.6,1.4,1.4,1.4s1.4-0.6,1.4-1.4c0-0.5,0.2-0.9,0.7-1.2
		c0.6-0.4,0.8-1.3,0.4-1.9C28.4,33.8,27.5,33.6,26.9,34C26.9,34,26.9,34,26.9,34z"/>
	<path class="st0" d="M90.2,34.8c-0.8,0-1.4,0.6-1.4,1.4v25h-5.5c-0.8,0-1.4,0.6-1.4,1.4s0.6,1.4,1.4,1.4h6.9c0.8,0,1.4-0.6,1.4-1.4
		V36.1C91.6,35.4,90.9,34.8,90.2,34.8z"/>
	<path class="st0" d="M16.7,61.1h-5.5V38.9h1.4c0.8,0,1.4-0.6,1.4-1.4c0-0.8-0.6-1.4-1.4-1.4H9.8c-0.8,0-1.4,0.6-1.4,1.4v25
		c0,0.8,0.6,1.4,1.4,1.4h6.9c0.8,0,1.4-0.6,1.4-1.4S17.5,61.1,16.7,61.1z"/>
</g>
</svg>
