<?xml version="1.0" encoding="utf-8"?>
<!-- Generator: Adobe Illustrator 23.0.2, SVG Export Plug-In . SVG Version: 6.00 Build 0)  -->
<svg version="1.1" id="Layer_1" xmlns="http://www.w3.org/2000/svg" xmlns:xlink="http://www.w3.org/1999/xlink" x="0px" y="0px"
	 viewBox="0 0 100 100" style="enable-background:new 0 0 100 100;" xml:space="preserve">
<style type="text/css">
	.st0{fill:#FFFFFF;}
</style>
<g>
	<path class="st0" d="M75.7,57.7H23.6L18,68.9h5.1v25.2h53.1V68.9h5.1L75.7,57.7z M73.9,60.5l2.8,5.6h-22l-2.8-5.6H73.9z M25.3,60.5
		h22l-2.8,5.6h-22L25.3,60.5z M73.4,91.3H51v-9.8h-2.8v9.8H25.9V68.9h20.4l1.9-3.9v12.3H51V65.1l1.9,3.9h20.4V91.3z"/>
	<path class="st0" d="M28.7,80.1H37v2.8h-8.4V80.1z"/>
	<path class="st0" d="M28.7,85.7H37v2.8h-8.4V85.7z"/>
	<path class="st0" d="M39.8,85.7h2.8v2.8h-2.8V85.7z"/>
	<path class="st0" d="M43.2,30.1l6.5-1.6l6.5,1.6l0.5-6.9l3.4-5.9L54,14.7l-4.3-5.3l-4.3,5.3l-6.1,2.6l3.4,5.9L43.2,30.1z M47,17
		l2.6-3.2l2.6,3.2l3.8,1.6l-2.2,3.7l-0.3,4.3l-3.9-1l-3.9,1l-0.3-4.3l-2.2-3.7L47,17z"/>
	<path class="st0" d="M21.6,33l2-3.5L20.1,28l-2.6-3.2L14.9,28l-3.6,1.6l2,3.5l0.3,4.1l3.9-1l3.9,1L21.6,33z M18.9,32.1l-0.1,1.5
		l-1.3-0.3l-1.3,0.3L16,32.1l-0.8-1.3l1.3-0.6l0.9-1.1l0.9,1.1l1.3,0.6L18.9,32.1z"/>
	<path class="st0" d="M86,33l2-3.5L84.4,28l-2.6-3.2L79.2,28l-3.6,1.6l2,3.5l0.3,4.1l3.9-1l3.9,1L86,33z M83.2,32.1l-0.1,1.5
		l-1.3-0.3l-1.3,0.3l-0.1-1.5l-0.8-1.3l1.3-0.6l0.9-1.1l0.9,1.1l1.3,0.6L83.2,32.1z"/>
	<path class="st0" d="M23.7,40.7c2.7,1.8,5,3.9,7,6.4l5.5,6.9l-1.1-9.2c-0.6-4.8-3.2-9.2-7-12.1l-1.3-1L22.7,40L23.7,40.7z
		 M27.7,36.2c2.4,2.2,4,5.2,4.5,8.4c-1.8-2.1-3.8-3.9-6-5.5L27.7,36.2z"/>
	<path class="st0" d="M64.2,44.9L63,54.1l5.5-6.9c2-2.5,4.4-4.7,7-6.4l1-0.7l-4.1-8.2l-1.3,1C67.3,35.7,64.8,40.1,64.2,44.9z
		 M73,39.1c-2.2,1.6-4.2,3.4-6,5.5c0.6-3.2,2.2-6.2,4.5-8.4L73,39.1z"/>
	<path class="st0" d="M55.2,54.9H58v-5.9c0-6.7,2.4-13.3,6.7-18.4l-2.1-1.8c-4.7,5.7-7.3,12.8-7.3,20.2V54.9z"/>
	<path class="st0" d="M65,24.2h2.8V27H65V24.2z"/>
	<path class="st0" d="M69.2,18.6H72v2.8h-2.8V18.6z"/>
	<path class="st0" d="M41.2,54.9H44v-5.9c0-7.4-2.6-14.5-7.3-20.2l-2.1,1.8c4.3,5.2,6.7,11.7,6.7,18.4V54.9z"/>
	<path class="st0" d="M31.4,24.2h2.8V27h-2.8V24.2z"/>
	<path class="st0" d="M27.3,18.6h2.8v2.8h-2.8V18.6z"/>
	<path class="st0" d="M48.2,31.2H51V34h-2.8V31.2z"/>
	<path class="st0" d="M48.2,36.8H51v18.2h-2.8V36.8z"/>
</g>
</svg>
