<?xml version="1.0" encoding="utf-8"?>
<!-- Generator: Adobe Illustrator 23.0.2, SVG Export Plug-In . SVG Version: 6.00 Build 0)  -->
<svg version="1.1" id="Layer_1" xmlns="http://www.w3.org/2000/svg" xmlns:xlink="http://www.w3.org/1999/xlink" x="0px" y="0px"
	 viewBox="0 0 100 100" style="enable-background:new 0 0 100 100;" xml:space="preserve">
<style type="text/css">
	.st0{fill:#FFFFFF;}
</style>
<g>
	<path class="st0" d="M9.4,44.6h7.5c0.4,1.6,1.1,3.1,1.9,4.6l-5.3,5.3c-0.3,0.3-0.4,0.6-0.4,1c0,0.4,0.1,0.7,0.4,1l5.7,5.7
		c0.5,0.5,1.4,0.5,1.9,0l5.3-5.3c1.4,0.8,3,1.5,4.6,1.9v7.5c0,0.7,0.6,1.4,1.4,1.4h8.1c0.7,0,1.4-0.6,1.4-1.4v-7.5
		c1.6-0.4,3.1-1.1,4.6-1.9l5.3,5.3c0.5,0.5,1.4,0.5,1.9,0l5.7-5.7c0.3-0.3,0.4-0.6,0.4-1c0-0.4-0.1-0.7-0.4-1l-5.3-5.3
		c0.8-1.4,1.5-3,1.9-4.6h7.5c0.7,0,1.4-0.6,1.4-1.4v-8.1c0-0.7-0.6-1.4-1.4-1.4H56c-0.4-1.6-1.1-3.1-1.9-4.6l5.3-5.3
		c0.3-0.3,0.4-0.6,0.4-1s-0.1-0.7-0.4-1l-5.7-5.7c-0.5-0.5-1.4-0.5-1.9,0l-5.3,5.3c-1.4-0.8-3-1.5-4.6-1.9v-7.5
		c0-0.7-0.6-1.4-1.4-1.4h-8.1c-0.7,0-1.4,0.6-1.4,1.4v7.5c-1.6,0.4-3.1,1.1-4.6,1.9l-5.3-5.3c-0.5-0.5-1.4-0.5-1.9,0l-5.7,5.7
		c-0.3,0.3-0.4,0.6-0.4,1s0.1,0.7,0.4,1l5.3,5.3c-0.8,1.4-1.5,3-1.9,4.6H9.4c-0.7,0-1.4,0.6-1.4,1.4v8.1C8,44,8.6,44.6,9.4,44.6z
		 M10.7,36.5h7.2c0.6,0,1.2-0.4,1.3-1.1c0.4-2,1.2-4,2.4-5.7c0.3-0.5,0.3-1.2-0.2-1.7l-5.1-5.1l3.8-3.8l5.1,5.1
		c0.5,0.5,1.2,0.5,1.7,0.2c1.7-1.1,3.7-1.9,5.7-2.4c0.6-0.1,1.1-0.7,1.1-1.3v-7.2h5.4v7.2c0,0.6,0.4,1.2,1.1,1.3
		c2,0.4,4,1.2,5.7,2.4c0.5,0.3,1.2,0.3,1.7-0.2l5.1-5.1l3.8,3.8L51.5,28c-0.5,0.5-0.5,1.2-0.2,1.7c1.1,1.7,1.9,3.7,2.4,5.7
		c0.1,0.6,0.7,1.1,1.3,1.1h7.2v5.4H55c-0.6,0-1.2,0.4-1.3,1.1c-0.4,2-1.2,4-2.4,5.7c-0.3,0.5-0.3,1.2,0.2,1.7l5.1,5.1l-3.8,3.8
		l-5.1-5.1c-0.5-0.5-1.2-0.5-1.7-0.2c-1.7,1.1-3.7,1.9-5.7,2.4c-0.6,0.1-1.1,0.7-1.1,1.3v7.2h-5.4v-7.2c0-0.6-0.4-1.2-1.1-1.3
		c-2-0.4-4-1.2-5.7-2.4c-0.5-0.3-1.2-0.3-1.7,0.2l-5.1,5.1l-3.8-3.8l5.1-5.1c0.5-0.5,0.5-1.2,0.2-1.7c-1.1-1.7-1.9-3.7-2.4-5.7
		c-0.1-0.6-0.7-1.1-1.3-1.1h-7.2V36.5z"/>
	<path class="st0" d="M36.5,50c6,0,10.8-4.9,10.8-10.8c0-6-4.9-10.8-10.8-10.8s-10.8,4.9-10.8,10.8C25.6,45.1,30.5,50,36.5,50z
		 M36.5,31c4.5,0,8.1,3.6,8.1,8.1c0,4.5-3.6,8.1-8.1,8.1s-8.1-3.6-8.1-8.1C28.3,34.7,32,31,36.5,31z"/>
	<path class="st0" d="M36.5,54.1c8.2,0,14.9-6.7,14.9-14.9c0-8.2-6.7-14.9-14.9-14.9s-14.9,6.7-14.9,14.9
		C21.6,47.4,28.2,54.1,36.5,54.1z M36.5,27c6.7,0,12.2,5.5,12.2,12.2s-5.5,12.2-12.2,12.2s-12.2-5.5-12.2-12.2
		C24.3,32.4,29.7,27,36.5,27z"/>
	<path class="st0" d="M85.2,73V62.2c0-0.7-0.6-1.4-1.4-1.4h-2.7V50c0-0.7-0.6-1.4-1.4-1.4H67.6c-0.7,0-1.4,0.6-1.4,1.4v10.8h-6.8
		c-0.7,0-1.4,0.6-1.4,1.4V73H14.8C11,73,8,76.1,8,79.8v2.7c0,3.7,3,6.8,6.8,6.8h70.4c3.7,0,6.8-3,6.8-6.8v-2.7
		C92,76.1,89,73,85.2,73z M82.5,73H73v-9.5h9.5V73z M69,51.4h9.5v9.5H69V51.4z M60.8,63.5h9.5V73h-9.5V63.5z M89.3,82.5
		c0,2.2-1.8,4.1-4.1,4.1H14.8c-2.2,0-4.1-1.8-4.1-4.1v-2.7c0-2.2,1.8-4.1,4.1-4.1h70.4c2.2,0,4.1,1.8,4.1,4.1V82.5z"/>
	<path class="st0" d="M50,77.1c-2.2,0-4.1,1.8-4.1,4.1c0,2.2,1.8,4.1,4.1,4.1s4.1-1.8,4.1-4.1C54.1,78.9,52.2,77.1,50,77.1z
		 M50,82.5c-0.7,0-1.4-0.6-1.4-1.4c0-0.7,0.6-1.4,1.4-1.4s1.4,0.6,1.4,1.4C51.4,81.9,50.7,82.5,50,82.5z"/>
	<path class="st0" d="M36.5,77.1c-2.2,0-4.1,1.8-4.1,4.1c0,2.2,1.8,4.1,4.1,4.1c2.2,0,4.1-1.8,4.1-4.1
		C40.5,78.9,38.7,77.1,36.5,77.1z M36.5,82.5c-0.7,0-1.4-0.6-1.4-1.4c0-0.7,0.6-1.4,1.4-1.4c0.7,0,1.4,0.6,1.4,1.4
		C37.8,81.9,37.2,82.5,36.5,82.5z"/>
	<path class="st0" d="M63.5,77.1c-2.2,0-4.1,1.8-4.1,4.1c0,2.2,1.8,4.1,4.1,4.1s4.1-1.8,4.1-4.1C67.6,78.9,65.8,77.1,63.5,77.1z
		 M63.5,82.5c-0.7,0-1.4-0.6-1.4-1.4c0-0.7,0.6-1.4,1.4-1.4c0.7,0,1.4,0.6,1.4,1.4C64.9,81.9,64.3,82.5,63.5,82.5z"/>
	<path class="st0" d="M22.9,77.1c-2.2,0-4.1,1.8-4.1,4.1c0,2.2,1.8,4.1,4.1,4.1s4.1-1.8,4.1-4.1C27,78.9,25.1,77.1,22.9,77.1z
		 M22.9,82.5c-0.7,0-1.4-0.6-1.4-1.4c0-0.7,0.6-1.4,1.4-1.4s1.4,0.6,1.4,1.4C24.3,81.9,23.7,82.5,22.9,82.5z"/>
	<path class="st0" d="M77.1,77.1c-2.2,0-4.1,1.8-4.1,4.1c0,2.2,1.8,4.1,4.1,4.1c2.2,0,4.1-1.8,4.1-4.1
		C81.2,78.9,79.3,77.1,77.1,77.1z M77.1,82.5c-0.7,0-1.4-0.6-1.4-1.4c0-0.7,0.6-1.4,1.4-1.4c0.7,0,1.4,0.6,1.4,1.4
		C78.5,81.9,77.8,82.5,77.1,82.5z"/>
</g>
</svg>
