<?xml version="1.0" encoding="utf-8"?>
<!-- Generator: Adobe Illustrator 23.0.2, SVG Export Plug-In . SVG Version: 6.00 Build 0)  -->
<svg version="1.1" id="Capa_1" xmlns="http://www.w3.org/2000/svg" xmlns:xlink="http://www.w3.org/1999/xlink" x="0px" y="0px"
	 viewBox="0 0 50 50" style="enable-background:new 0 0 50 50;" xml:space="preserve">
<style type="text/css">
	.st0{fill:#FFFFFF;}
</style>
<g>
	<path id="Facebook_Places" class="st0" d="M34.6,18.7c-0.1-0.4-0.3-0.8-0.5-1.2c-1.9-4.5-5.9-6.1-9.2-6.1c-4.4,0-9.3,3-9.9,9v1.2
		c0,0.1,0,0.5,0,0.8c0.4,2.9,2.7,6,4.4,8.9c1.8,3.1,3.8,6.2,5.6,9.2c1.2-2,2.3-4,3.5-6c0.3-0.6,0.7-1.1,1-1.7
		c0.2-0.4,0.6-0.7,0.8-1.1c1.8-3.4,4.8-6.8,4.8-10.1v-1.4C35,20,34.6,18.8,34.6,18.7z M24.9,24.9c-1.3,0-2.7-0.6-3.4-2.4
		c-0.1-0.3-0.1-0.9-0.1-0.9v-0.8c0-2.3,1.9-3.3,3.6-3.3c2.1,0,3.7,1.7,3.7,3.7C28.7,23.3,27,24.9,24.9,24.9z"/>
</g>
</svg>
