<?xml version="1.0" encoding="utf-8"?>
<!-- Generator: Adobe Illustrator 23.0.1, SVG Export Plug-In . SVG Version: 6.00 Build 0)  -->
<svg version="1.1" id="Layer_1" xmlns="http://www.w3.org/2000/svg" xmlns:xlink="http://www.w3.org/1999/xlink" x="0px" y="0px"
	 viewBox="0 0 100 100" style="enable-background:new 0 0 100 100;" xml:space="preserve">
<style type="text/css">
	.st0{fill:#46BC93;}
</style>
<g>
	<g>
		<g>
			<path class="st0" d="M26.5,67.6l-1.4-8.1l5.9-5.7c0.5-0.5,0.7-1.3,0.5-1.9c-0.2-0.7-0.8-1.2-1.5-1.3l-8.1-1.2L18.2,42
				c-0.3-0.6-1-1.1-1.7-1.1s-1.4,0.4-1.7,1.1l-3.6,7.3L3,50.5c-0.7,0.1-1.3,0.6-1.5,1.3c-0.2,0.7,0,1.4,0.5,1.9l5.9,5.7l-1.4,8.1
				c-0.1,0.7,0.2,1.4,0.8,1.9c0.3,0.2,0.7,0.4,1.1,0.4c0.3,0,0.6-0.1,0.9-0.2l7.2-3.8l7.2,3.8c0.6,0.3,1.4,0.3,2-0.1
				C26.3,69,26.6,68.3,26.5,67.6z M21.7,57.5c-0.4,0.4-0.7,1.1-0.5,1.7l0.9,5.3l-4.7-2.5c-0.6-0.3-1.2-0.3-1.8,0l-4.7,2.5l0.9-5.3
				c0.1-0.6-0.1-1.2-0.5-1.7l-3.8-3.7l5.3-0.8c0.6-0.1,1.2-0.5,1.4-1l2.4-4.8l2.4,4.8c0.3,0.6,0.8,0.9,1.4,1l5.3,0.8L21.7,57.5z"/>
			<path class="st0" d="M98.5,51.8c-0.2-0.7-0.8-1.2-1.5-1.3l-8.1-1.2L85.2,42c-0.3-0.6-1-1.1-1.7-1.1c-0.7,0-1.4,0.4-1.7,1.1
				l-3.6,7.3l-8.1,1.2c-0.7,0.1-1.3,0.6-1.5,1.3c-0.2,0.7,0,1.4,0.5,1.9l5.9,5.7l-1.4,8.1c-0.1,0.7,0.2,1.4,0.8,1.9
				c0.6,0.4,1.4,0.5,2,0.1l7.2-3.8l7.2,3.8c0.3,0.1,0.6,0.2,0.9,0.2c0.4,0,0.8-0.1,1.1-0.4c0.6-0.4,0.9-1.1,0.8-1.9l-1.4-8.1
				l5.9-5.7C98.5,53.3,98.7,52.5,98.5,51.8z M88.8,57.5c-0.4,0.4-0.7,1.1-0.5,1.7l0.9,5.3l-4.7-2.5c-0.3-0.1-0.6-0.2-0.9-0.2
				s-0.6,0.1-0.9,0.2l-4.7,2.5l0.9-5.3c0.1-0.6-0.1-1.2-0.5-1.7l-3.8-3.7l5.3-0.8c0.6-0.1,1.2-0.5,1.4-1l2.4-4.8l2.4,4.8
				c0.3,0.6,0.8,0.9,1.4,1l5.3,0.8L88.8,57.5z"/>
			<path class="st0" d="M63.7,61.2l-2.1-12.4l9-8.8c0.5-0.5,0.7-1.3,0.5-1.9s-0.8-1.2-1.5-1.3L57.1,35l-5.6-11.3
				c-0.3-0.6-1-1.1-1.7-1.1c-0.7,0-1.4,0.4-1.7,1.1L42.6,35l-12.4,1.8c-0.7,0.1-1.3,0.6-1.5,1.3c-0.2,0.7,0,1.4,0.5,1.9l9,8.8
				L36,61.2c-0.1,0.7,0.2,1.4,0.8,1.9c0.6,0.4,1.4,0.5,2,0.1l11.1-5.8L61,63.2c0.3,0.1,0.6,0.2,0.9,0.2c0.4,0,0.8-0.1,1.1-0.4
				C63.6,62.6,63.8,61.9,63.7,61.2z M57.7,48.4l1.6,9.6l-8.6-4.5c-0.3-0.1-0.6-0.2-0.9-0.2c-0.3,0-0.6,0.1-0.9,0.2L40.4,58l1.6-9.6
				c0.1-0.6-0.1-1.2-0.5-1.7l-7-6.8l9.6-1.4c0.6-0.1,1.2-0.5,1.4-1l4.3-8.7l4.3,8.7c0.3,0.6,0.8,0.9,1.4,1l9.6,1.4l-7,6.8
				C57.8,47.2,57.6,47.8,57.7,48.4z"/>
			<path class="st0" d="M54.2,73.5H27.8c-1,0-1.9,0.8-1.9,1.9c0,1,0.8,1.9,1.9,1.9h26.4c1,0,1.9-0.8,1.9-1.9
				C56.1,74.4,55.2,73.5,54.2,73.5z"/>
			<path class="st0" d="M72.2,73.5H64c-1,0-1.9,0.8-1.9,1.9c0,1,0.8,1.9,1.9,1.9h8.2c1,0,1.9-0.8,1.9-1.9
				C74.1,74.4,73.3,73.5,72.2,73.5z"/>
		</g>
	</g>
</g>
</svg>
