<?xml version="1.0" encoding="utf-8"?>
<!-- Generator: Adobe Illustrator 23.0.1, SVG Export Plug-In . SVG Version: 6.00 Build 0)  -->
<svg version="1.1" id="Layer_1" xmlns="http://www.w3.org/2000/svg" xmlns:xlink="http://www.w3.org/1999/xlink" x="0px" y="0px"
	 viewBox="0 0 120 42" style="enable-background:new 0 0 120 42;" xml:space="preserve">
<style type="text/css">
	.st0{fill:#AAB2AB;}
	.st1{fill:#FFFFFF;}
	.st2{fill-rule:evenodd;clip-rule:evenodd;}
</style>
<g id="surface1">
	<path class="st0" d="M3.4,0.4l113.4,0.2c1.6,0,3-0.2,3,3.2l-0.1,37.3H0.5V3.7C0.5,2,0.7,0.4,3.4,0.4z"/>
	<path class="st1" d="M34.5,19.5c0,7.5-6.1,13.6-13.6,13.6c-7.5,0-13.6-6.1-13.6-13.6c0,0,0,0,0,0c0-7.5,6.1-13.6,13.6-13.6
		C28.4,5.9,34.5,12,34.5,19.5C34.5,19.5,34.5,19.5,34.5,19.5z"/>
	<path d="M32,8.4c3,3,4.5,6.7,4.5,11.1s-1.5,8-4.5,11c-3.2,3.1-6.9,4.7-11.2,4.7c-4.3,0-7.9-1.5-11-4.6c-3.1-3.1-4.6-6.8-4.6-11
		c0-4.3,1.5-8,4.6-11.1c3-3,6.7-4.5,11-4.5C25.2,3.9,28.9,5.4,32,8.4z M11.9,10.5c-2.6,2.6-3.8,5.6-3.8,9.1s1.3,6.5,3.8,9
		c2.5,2.5,5.5,3.8,9,3.8s6.5-1.3,9.1-3.8c2.5-2.4,3.7-5.4,3.7-9c0-3.6-1.2-6.6-3.7-9.1c-2.5-2.5-5.5-3.7-9.1-3.7S14.4,8,11.9,10.5z
		 M18.6,18c-0.4-0.9-1-1.3-1.8-1.3c-1.4,0-2.1,0.9-2.1,2.8s0.7,2.8,2.1,2.8c0.9,0,1.6-0.5,2-1.4l1.9,1c-0.9,1.6-2.3,2.4-4.1,2.4
		c-1.4,0-2.5-0.4-3.4-1.3c-0.8-0.9-1.3-2-1.3-3.6c0-1.5,0.4-2.7,1.3-3.5c0.9-0.9,2-1.3,3.3-1.3c1.9,0,3.3,0.8,4.1,2.3L18.6,18z
		 M27.6,18c-0.4-0.9-1-1.3-1.7-1.3c-1.4,0-2.1,0.9-2.1,2.8s0.7,2.8,2.1,2.8c0.9,0,1.6-0.5,1.9-1.4l2,1c-0.9,1.6-2.3,2.4-4.1,2.4
		c-1.4,0-2.5-0.4-3.4-1.3c-0.8-0.9-1.3-2-1.3-3.6c0-1.5,0.4-2.7,1.3-3.5c0.9-0.9,1.9-1.3,3.3-1.3c1.9,0,3.3,0.8,4.1,2.3L27.6,18z"/>
	<path class="st1" d="M74.1,15.2c0,5.9-4.8,10.7-10.7,10.7s-10.7-4.8-10.7-10.7c0-5.9,4.8-10.7,10.7-10.7S74.1,9.2,74.1,15.2z"/>
	<path d="M66.5,12.1c0-0.4-0.3-0.8-0.8-0.8H61c-0.4,0-0.8,0.3-0.8,0.8v4.7h1.3v5.6h3.6v-5.6h1.3V12.1z"/>
	<path d="M65,9.1c0,0.9-0.7,1.6-1.6,1.6s-1.6-0.7-1.6-1.6c0-0.9,0.7-1.6,1.6-1.6S65,8.2,65,9.1z"/>
	<path class="st2" d="M63.3,3.3c-3.2,0-5.9,1.1-8.2,3.4c-2.3,2.3-3.4,5.1-3.4,8.2s1.1,5.9,3.4,8.2c2.3,2.3,5,3.4,8.2,3.4
		c3.2,0,6-1.1,8.3-3.4c2.2-2.2,3.3-4.9,3.3-8.1s-1.1-6-3.4-8.2C69.3,4.5,66.6,3.3,63.3,3.3z M63.4,5.4c2.6,0,4.9,0.9,6.7,2.8
		c1.9,1.8,2.8,4.1,2.8,6.7c0,2.7-0.9,4.9-2.7,6.6c-1.9,1.9-4.2,2.8-6.8,2.8c-2.6,0-4.8-0.9-6.7-2.8c-1.9-1.9-2.8-4.1-2.8-6.7
		s0.9-4.8,2.8-6.7C58.5,6.4,60.7,5.4,63.4,5.4z"/>
	<path d="M117.8,0H2.2C1,0,0,1,0,2.2v39.2C0,41.8,0.2,42,0.5,42h119c0.3,0,0.5-0.2,0.5-0.5V2.2C120,1,119,0,117.8,0z M2.2,1h115.5
		c0.7,0,1.2,0.6,1.2,1.2c0,0,0,15.8,0,27.2H36.4c-3,5.5-8.9,9.2-15.5,9.2c-6.7,0-12.5-3.7-15.5-9.2H1C1,18,1,2.2,1,2.2
		C1,1.6,1.6,1,2.2,1z"/>
	<path class="st1" d="M60,32.7c0.3,0,0.6,0,0.9,0.1c0.3,0.1,0.5,0.1,0.7,0.3c0.2,0.1,0.3,0.3,0.4,0.5s0.2,0.5,0.2,0.8
		c0,0.3-0.1,0.6-0.2,0.8s-0.4,0.4-0.7,0.5c0.4,0.1,0.7,0.3,0.9,0.6c0.2,0.3,0.3,0.6,0.3,1.1c0,0.3-0.1,0.6-0.2,0.9s-0.3,0.4-0.5,0.6
		c-0.2,0.2-0.5,0.3-0.8,0.3s-0.6,0.1-0.9,0.1h-3.2v-6.6H60z M59.8,35.4c0.3,0,0.5-0.1,0.6-0.2c0.2-0.1,0.3-0.3,0.3-0.6
		c0-0.2,0-0.3-0.1-0.4c-0.1-0.1-0.1-0.2-0.2-0.2c-0.1-0.1-0.2-0.1-0.3-0.1c-0.1,0-0.2,0-0.4,0h-1.4v1.5H59.8z M59.9,38.2
		c0.1,0,0.3,0,0.4,0s0.2-0.1,0.3-0.1c0.1-0.1,0.2-0.2,0.2-0.3c0.1-0.1,0.1-0.3,0.1-0.4c0-0.3-0.1-0.6-0.3-0.7
		c-0.2-0.1-0.4-0.2-0.8-0.2h-1.6v1.8H59.9z"/>
	<path class="st1" d="M62.7,32.7h1.6l1.6,2.6l1.5-2.6H69l-2.5,4.1v2.5h-1.5v-2.6L62.7,32.7z"/>
	<path class="st1" d="M85.9,32.7l2.8,4.4h0v-4.4h1.4v6.6h-1.5l-2.8-4.4h0v4.4h-1.4v-6.6H85.9z"/>
	<path class="st1" d="M94.2,32.7c0.4,0,0.8,0.1,1.2,0.2c0.4,0.1,0.7,0.3,1,0.6c0.3,0.3,0.5,0.6,0.6,1c0.2,0.4,0.2,0.9,0.2,1.4
		c0,0.5-0.1,0.9-0.2,1.3c-0.1,0.4-0.3,0.8-0.6,1.1s-0.6,0.5-0.9,0.7c-0.4,0.2-0.8,0.3-1.3,0.3h-2.9v-6.6H94.2z M94.1,38.1
		c0.2,0,0.4,0,0.6-0.1c0.2-0.1,0.4-0.2,0.5-0.3c0.2-0.2,0.3-0.4,0.4-0.6s0.1-0.6,0.1-0.9c0-0.3,0-0.6-0.1-0.9
		c-0.1-0.3-0.2-0.5-0.3-0.7s-0.3-0.3-0.6-0.4C94.5,34,94.2,34,93.9,34h-1v4.2H94.1z"/>
	<path class="st1" d="M102.5,15c0,5.8-4.7,10.6-10.6,10.6c-5.8,0-10.6-4.7-10.6-10.6c0,0,0,0,0,0c0-5.8,4.7-10.6,10.6-10.6
		C97.7,4.4,102.5,9.1,102.5,15C102.5,15,102.5,15,102.5,15z"/>
	<path d="M91.7,3.4c-3.2,0-5.9,1.1-8.2,3.4c-2.3,2.3-3.4,5.1-3.4,8.2c0,3.2,1.1,5.9,3.4,8.2s5,3.4,8.2,3.4c3.2,0,6-1.1,8.3-3.4
		c2.2-2.2,3.3-4.9,3.3-8.1s-1.1-6-3.4-8.2C97.7,4.5,95,3.4,91.7,3.4z M91.8,5.5c2.6,0,4.9,0.9,6.7,2.8c1.9,1.8,2.8,4.1,2.8,6.7
		c0,2.7-0.9,4.9-2.7,6.6c-1.9,1.9-4.2,2.8-6.8,2.8c-2.6,0-4.8-0.9-6.7-2.8c-1.9-1.9-2.8-4.1-2.8-6.7s0.9-4.8,2.8-6.7
		C86.9,6.4,89.1,5.5,91.8,5.5z"/>
	<path d="M96.1,12.2h-8.4v2h8.4V12.2z M96.1,16h-8.4v2h8.4V16z"/>
</g>
</svg>
