<?xml version="1.0" encoding="utf-8"?>
<!-- Generator: Adobe Illustrator 23.0.1, SVG Export Plug-In . SVG Version: 6.00 Build 0)  -->
<svg version="1.1" id="Layer_1" xmlns="http://www.w3.org/2000/svg" xmlns:xlink="http://www.w3.org/1999/xlink" x="0px" y="0px"
	 viewBox="0 0 50 50" style="enable-background:new 0 0 50 50;" xml:space="preserve">
<style type="text/css">
	.st0{display:none;}
	.st1{display:inline;}
	.st2{fill:#2DC997;}
	.st3{fill:#FFFFFF;}
</style>
<g class="st0">
	<g class="st1">
		<rect x="23.7" y="27.9" class="st2" width="1.7" height="17.6"/>
	</g>
	<g class="st1">
		<path class="st2" d="M40.1,32h-13c-0.2,0-0.5-0.1-0.6-0.3l-2-2l-2,2c-0.2,0.2-0.4,0.3-0.6,0.3h-13C8.4,32,8,31.6,8,31.1v-24h1.7
			v23.2h11.8l0.9-0.9H11.5c-0.5,0-0.9-0.4-0.9-0.9V5.1c0-0.5,0.4-0.9,0.9-0.9h26c0.5,0,0.9,0.4,0.9,0.9v23.4c0,0.5-0.4,0.9-0.9,0.9
			H26.6l0.9,0.9h11.8V7.1H41v24.1C41,31.6,40.6,32,40.1,32z M12.4,27.7h24.3V6H12.4V27.7z M25.4,25.3h-1.7V8.4h1.7V25.3z M35.6,24.2
			h-9.1v-1.7h9.1V24.2z M22.6,24.2h-9.1v-1.7h9.1V24.2z M35.6,21.6h-9.1v-1.7h9.1V21.6z M22.6,21.6h-9.1v-1.7h9.1V21.6z M35.6,19
			h-9.1v-1.7h9.1V19z M22.6,19h-9.1v-1.7h9.1V19z M34.3,15.7H33V14h1.3V15.7z M31.7,15.7h-1.3V14h1.3V15.7z M29.1,15.7h-1.3V14h1.3
			V15.7z M35.6,12.5h-9.1v-1.7h9.1V12.5z M35.6,9.9h-9.1V8.2h9.1V9.9z"/>
	</g>
	<g class="st1">
		<path class="st2" d="M40.8,46.3H8.3v-1.7h32.5V46.3z M22.8,16.4h-9.5V8.2h9.5V16.4z M15,14.7h6.1V9.9H15V14.7z"/>
	</g>
</g>
<g class="st0">
	<g id="icon2" class="st1">
		<g>
			<path class="st2" d="M24.6,46c-4.5,0-8.2-3.7-8.2-8.2c0-1.1,0.2-2.2,0.6-3.1L3.4,12.5c0,0,0,0,0-0.1c-0.1-0.3-0.1-0.7,0.1-0.9
				l4-5.3C7.6,6,7.8,5.9,8.1,5.9h33.1c0.3,0,0.5,0.1,0.7,0.4l4,5.3c0.2,0.3,0.2,0.6,0.1,0.9c0,0,0,0,0,0.1L32.2,34.7
				c0.4,1,0.6,2,0.6,3.1C32.8,42.3,29.1,46,24.6,46z M24.6,31.5c-3.5,0-6.4,2.9-6.4,6.4s2.9,6.4,6.4,6.4s6.4-2.9,6.4-6.4
				C31,34.3,28.1,31.5,24.6,31.5z M5.7,12.9l12.4,20c0.3-0.4,0.6-0.7,0.9-1L7.3,13.2L7.7,13h-2V12.9z M30.3,32
				c0.3,0.3,0.6,0.7,0.9,1l12.4-20h-2l0.4,0.2L30.3,32z M9.3,12.9l11.1,17.9c0.3-0.2,0.7-0.4,1.1-0.5L10.9,12.9H9.3z M27.8,30.3
				c0.4,0.2,0.7,0.3,1.1,0.5L40,12.9h-1.6L27.8,30.3z M13,12.9l10.2,16.9c0.9-0.2,1.9-0.2,2.8,0l10.2-16.9H13z M5.9,11.2h37.5
				L42.5,10v0.3H6.8V10L5.9,11.2z M7.9,8.5h33.5l-0.7-0.9H8.5L7.9,8.5z M24.6,43.4c-3,0-5.5-2.5-5.5-5.5s2.5-5.5,5.5-5.5
				s5.5,2.5,5.5,5.5S27.7,43.4,24.6,43.4z M24.6,34.1c-2.1,0-3.7,1.7-3.7,3.7c0,2.1,1.7,3.7,3.7,3.7c2.1,0,3.7-1.7,3.7-3.7
				C28.4,35.8,26.7,34.1,24.6,34.1z M25.5,40.5h-1.8v-3.7h-0.4V35h1.3c0.5,0,0.9,0.4,0.9,0.9V40.5z M27.9,18.2h-1.3v-1.8h1.3V18.2z
				 M25.3,18.2H24v-1.8h1.3V18.2z M22.6,18.2h-1.3v-1.8h1.3V18.2z"/>
		</g>
	</g>
</g>
<g id="Layer_3" class="st0">
	<g id="icon3" class="st1">
		<g>
			<rect x="30.4" y="35.5" class="st2" width="1.9" height="1.6"/>
		</g>
		<g>
			<path class="st2" d="M33,43.8h-1.6v-7.4c0-0.4,0.4-0.8,0.8-0.8h3.7c1.6,0,2.9-1.3,2.9-2.9v-5.5c0-0.4,0.4-0.8,0.8-0.8h2.9v-0.3
				l-3.6-7.8c0-0.1-0.1-0.2-0.1-0.3c-0.1-6.6-5.5-12-12.1-12c-2.5,0-4.9,0.7-6.9,2.2l-0.9-1.3c2.3-1.6,5-2.5,7.8-2.5
				c7.5,0,13.6,6,13.7,13.5l3.6,7.8c0,0.1,0.1,0.2,0.1,0.3v1.2c0,0.4-0.4,0.8-0.8,0.8h-2.9v4.7c0,2.5-2,4.5-4.5,4.5H33V43.8z
				 M19.5,43.8h-1.6v-7.4c0-1.6-0.3-3.2-1.1-5.3l1.5-0.5c0.8,2.2,1.2,4,1.2,5.8V43.8z M15.6,29.3c-0.2,0-0.3,0-0.4-0.1l-1.6-1.1H5.2
				c-0.4,0-0.8-0.4-0.8-0.8V10.1c0-0.4,0.4-0.8,0.8-0.8h8.6c0.2,0,0.3,0,0.4,0.1l1.4,0.9L17,9.4c0.1-0.1,0.3-0.1,0.4-0.1H26
				c0.4,0,0.8,0.4,0.8,0.8v17.2c0,0.4-0.4,0.8-0.8,0.8h-8.3l-1.6,1.1C15.9,29.2,15.8,29.3,15.6,29.3z M16.4,11.7V27l0.6-0.4
				c0.1-0.1,0.3-0.1,0.4-0.1h7.8V10.9h-7.5L16.4,11.7z M6,26.5h7.8c0.2,0,0.3,0,0.4,0.1l0.6,0.4V11.7l-1.3-0.9H6V26.5z M24.2,24.4
				h-6.7v-1.6h6.7V24.4z M13.8,24.4H7v-1.6h6.7v1.6H13.8z M24.2,21.9h-6.7v-1.6h6.7V21.9z M13.8,21.9H7v-1.6h6.7v1.6H13.8z
				 M24.2,19.5h-6.7v-1.6h6.7V19.5z M13.8,19.5H7v-1.6h6.7v1.6H13.8z M24.2,17h-6.7v-1.6h6.7V17z M13.8,17H7v-1.6h6.7V17H13.8z
				 M24.2,14.6h-6.7V13h6.7V14.6z M13.8,14.6H7V13h6.7v1.6H13.8z"/>
		</g>
		<g>
			<path class="st2" d="M29.2,24.1H28v-1.6h1.2V24.1z M31.6,21.7h-1.2v-1.6h1.2V21.7z M29.2,21.7H28v-1.6h1.2V21.7z M34.1,19.4h-1.2
				v-1.6h1.2V19.4z M31.6,19.4h-1.2v-1.6h1.2V19.4z M29.2,19.4H28v-1.6h1.2V19.4z M31.6,17h-1.2v-1.6h1.2V17z M29.2,17H28v-1.6h1.2
				V17z M29.2,14.6H28V13h1.2V14.6z"/>
		</g>
	</g>
</g>
<g id="Layer_4" class="st0">
	<g id="icon4" class="st1">
		<g>
			<path class="st2" d="M33.8,39h-2.1v-1.8h2.1V39z M19,7.3h-1.8V3.2H19V7.3z"/>
		</g>
		<g>
			<path class="st2" d="M21.7,46.3h-1.8V30.1h-2.7v-8.2h-1.4v-4.6h4.6v4.6H19v6.4h2.7V46.3z M17.6,20.1h0.9v-0.9h-0.9V20.1z
				 M36.6,28.8H25.4V26h-2.7v-4.1h-1.4v-4.6h4.6v1.4h2.3v-3.6h-2.3v1.4h-4.6v-4.6h4.6v1.4H30v7.3h-4.1V22h-1.4v2.3h2.7V27h9.4V28.8z
				 M23.1,20.1H24v-0.9h-0.9V20.1z M23.1,14.6H24v-0.9h-0.9V14.6z M14.9,21.9h-4.6v-4.6h4.6V21.9z M12.2,20.1h0.9v-0.9h-0.9V20.1z
				 M36.6,17.8h-1.4V16h1.4V17.8z M14.9,16.5h-4.6v-1.4H3.7v-1.8h6.6v-1.4h4.6V16.5z M12.2,14.6h0.9v-0.9h-0.9V14.6z M32.5,15.1
				h-1.4v-1.8h1.4V15.1z M35.2,12.4h-1.4v-1.8h1.4V12.4z M32.5,12.4h-1.4v-1.8h1.4V12.4z M25.8,11h-4.6V6.4h4.6V11z M23.1,9.2H24v-1
				h-0.9V9.2z M20.4,11h-4.6V6.4h4.6V11z M17.6,9.2h0.9v-1h-0.9V9.2z M14.9,11h-4.6V6.4h4.6V11z M12.2,9.2h0.9v-1h-0.9V9.2z
				 M32.5,9.6h-1.4V7.8h1.4V9.6z"/>
		</g>
		<g>
			<rect x="22.6" y="3.2" class="st2" width="1.8" height="4.1"/>
		</g>
		<g>
			<polygon class="st2" points="11.2,20.6 6.2,20.6 6.2,7.8 11.2,7.8 11.2,9.6 8,9.6 8,18.7 11.2,18.7 			"/>
		</g>
		<g>
			<path class="st2" d="M17.6,46.3h-1.8v-10l-4-8c-0.1-0.1-0.1-0.3-0.1-0.4V21h1.8v6.6l4,8c0.1,0.1,0.1,0.3,0.1,0.4V46.3z"/>
		</g>
		<g>
			<path class="st2" d="M24.5,46.3h-1.8v-12h-1.8v-1.8h3.6C24.5,32.5,24.5,46.3,24.5,46.3z M27,31.5h-1.4v-1.8H27V31.5z M24.5,31.3
				h-1.8v-1.4h1.8V31.3z M24.5,28.5h-1.8v-1.4h1.8V28.5z M21.7,27.2h-1.8v-1.4h1.8V27.2z M21.7,24.4h-1.8V23h1.8V24.4z M33.8,17.8
				H29V16h4.8V17.8z M20.4,16.5h-4.6v-4.6h4.6V16.5z M17.6,14.6h0.9v-0.9h-0.9V14.6z M29.9,12.1h-1.8V9.6h-3.2V7.8h5V12.1z"/>
		</g>
		<g>
			<path class="st2" d="M32.7,46.3h-1.8v-8.2c0-0.5,0.4-0.9,0.9-0.9h4.1c1.8,0,3.2-1.4,3.2-3.2v-6.2c0-0.5,0.4-0.9,0.9-0.9h3.2v-0.3
				l-4-8.7c-0.1-0.1-0.1-0.3-0.1-0.4c0-7.4-6-13.5-13.5-13.5H14.7V2.3h10.9C34,2.3,40.8,9,40.9,17.4l4,8.7c0.1,0.1,0.1,0.3,0.1,0.4
				v1.4c0,0.5-0.4,0.9-0.9,0.9h-3.2V34c0,2.8-2.3,5-5,5h-3.2C32.7,39,32.7,46.3,32.7,46.3z"/>
		</g>
	</g>
</g>
<g id="Layer_5" class="st0">
	<g id="icon5" class="st1">
		<g>
			<path class="st2" d="M42.3,42.4H40c-0.2,0-0.4-0.1-0.5-0.2L36,38.7c-3,2.3-6.8,3.7-11,3.7s-7.9-1.4-11-3.7l-3.5,3.5
				c-0.1,0.1-0.3,0.2-0.5,0.2H7.8c-0.3,0-0.5-0.1-0.6-0.4c-0.1-0.2-0.1-0.5,0-0.7l3.2-6.5c-2.1-2.9-3.3-6.5-3.3-10.4
				c0-9.9,8.1-18,18-18c2.2,0,4.3,0.4,6.4,1.2L30.9,9C29,8.3,27,7.9,25,7.9c-9.1,0-16.5,7.4-16.5,16.5S15.9,40.9,25,40.9
				s16.5-7.4,16.5-16.5c0-2-0.4-4-1.1-5.9l1.4-0.5c0.8,2,1.2,4.2,1.2,6.4c0,3.9-1.2,7.5-3.3,10.4l3.2,6.5c0.1,0.2,0.1,0.5,0,0.7
				C42.8,42.3,42.5,42.4,42.3,42.4z M40.3,40.9H41l-2.4-4.8c-0.5,0.6-1,1.1-1.5,1.6L40.3,40.9z M9,40.9h0.7l3.2-3.2
				c-0.5-0.5-1.1-1-1.5-1.6L9,40.9z M25,39.1c-8.1,0-14.6-6.6-14.6-14.6C10.4,16.4,17,9.8,25,9.8c3.8,0,7.2,1.4,9.8,3.8l1.1-1.1V8.9
				h1.5V11l0.7-0.7V6.6h1.5v2.1l2.1-2.1l1,1l-2.1,2.1h2.1v1.5h-3.6L38.5,12h2.1v1.5H37l-1.1,1.1c2.3,2.6,3.8,6,3.8,9.8
				C39.7,32.5,33.1,39.1,25,39.1z M25,11.3c-7.3,0-13.2,5.9-13.2,13.2S17.7,37.7,25,37.7s13.2-5.9,13.2-13.2c0-3.4-1.3-6.4-3.3-8.8
				L33.5,17c1.7,2,2.8,4.6,2.8,7.4c0,6.2-5.1,11.3-11.3,11.3s-11.3-5.1-11.3-11.3S18.8,13.1,25,13.1c2.9,0,5.5,1.1,7.4,2.8l1.3-1.3
				C31.5,12.5,28.4,11.3,25,11.3z M25,14.6c-5.4,0-9.8,4.4-9.8,9.8s4.4,9.8,9.8,9.8s9.8-4.4,9.8-9.8c0-2.4-0.9-4.7-2.4-6.4l-1.3,1.3
				c1.1,1.4,1.8,3.2,1.8,5.1c0,4.4-3.6,8-8,8s-8-3.6-8-8s3.6-8,8-8c1.9,0,3.7,0.7,5.1,1.8l1.3-1.3C29.7,15.5,27.5,14.6,25,14.6z
				 M25,17.9c-3.6,0-6.5,2.9-6.5,6.5s2.9,6.5,6.5,6.5s6.5-2.9,6.5-6.5c0-1.5-0.5-2.9-1.4-4l-1.3,1.3c0.6,0.8,0.9,1.7,0.9,2.7
				c0,2.6-2.1,4.6-4.6,4.6c-2.6,0-4.6-2.1-4.6-4.6c0-2.6,2.1-4.6,4.6-4.6c1,0,1.9,0.3,2.7,0.9l1.3-1.3C28,18.5,26.6,17.9,25,17.9z
				 M25,21.3c-1.7,0-3.1,1.4-3.1,3.2c0,1.7,1.4,3.1,3.1,3.1s3.1-1.4,3.1-3.1c0-0.6-0.2-1.2-0.5-1.6l-1.4,1.4c0,0.1,0,0.2,0,0.2
				c0,0.7-0.6,1.3-1.3,1.3c-0.7,0-1.3-0.6-1.3-1.3c0-0.7,0.6-1.3,1.3-1.3c0.1,0,0.2,0,0.2,0l1.4-1.4C26.2,21.4,25.6,21.3,25,21.3z
				 M24.9,24.3l-0.1,0.1c0,0.2,0.2,0.2,0.3,0.1L24.9,24.3z"/>
		</g>
	</g>
</g>
<g id="Layer_6" class="st0">
	<g id="icon6" class="st1">
		<g>
			<path class="st2" d="M20.1,44c-8.3,0-15-6.7-15-15s6.7-15,15-15v1.5c-1.9,0-3.6,1.8-4.8,4.6h4v-3.7h1.5V20h0.4v1.5h-0.4v6.8h12.8
				c0-0.3,0-0.6-0.1-0.9c-0.2-0.2-0.3-0.6-0.1-0.8c-0.3-1.6-0.9-3.1-1.7-4.5l1.3-0.8c0.7,1.3,1.3,2.6,1.7,4l1-1c0.3-0.3,0.8-0.3,1,0
				l12.1,12.1c0.1,0.1,0.2,0.3,0.2,0.5s-0.1,0.4-0.2,0.5l-2.1,2.1c-0.3,0.3-0.8,0.3-1,0L35.1,28.9l0,0C35.1,37.3,28.4,44,20.1,44z
				 M20.8,37.9v4.5c1.6-0.4,3-2.1,4-4.5H20.8z M15.3,37.9c1,2.4,2.5,4.1,4,4.5v-4.5H15.3z M9.9,37.9c1.6,1.8,3.7,3.2,6.1,4
				c-0.9-1-1.7-2.4-2.3-4H9.9z M26.4,37.9c-0.6,1.6-1.4,2.9-2.3,4c2.4-0.7,4.5-2.1,6.1-4H26.4z M35.1,26.9l11,11l1-1l-11-11
				L35.1,26.9z M26.9,36.5h4.4c1.3-2,2.1-4.3,2.3-6.8H28C27.9,32.2,27.5,34.5,26.9,36.5z M20.8,36.5h4.6c0.6-2,1-4.3,1.1-6.8h-5.7
				V36.5z M14.8,36.5h4.6v-6.8h-5.7C13.7,32.2,14.1,34.5,14.8,36.5z M8.8,36.5h4.4c-0.6-2-1-4.3-1-6.8H6.5
				C6.7,32.2,7.5,34.5,8.8,36.5z M13.7,28.2h5.7v-6.8h-4.6C14.1,23.4,13.7,25.7,13.7,28.2z M6.5,28.2h5.7c0.1-2.5,0.4-4.8,1-6.8H8.8
				C7.5,23.4,6.7,25.7,6.5,28.2z M9.9,20h3.8c0.6-1.6,1.4-2.9,2.3-4C13.6,16.7,11.5,18.1,9.9,20z"/>
		</g>
		<g>
			<path class="st3" d="M40.3,19c0,6.4-5.2,11.6-11.6,11.6S17.1,25.4,17.1,19S22.3,7.4,28.7,7.4C35.1,7.5,40.3,12.7,40.3,19"/>
		</g>
		<g>
			<path class="st2" d="M28.8,31.3c-6.8,0-12.3-5.5-12.3-12.3S22,6.7,28.8,6.7S41,12.3,41,19C41,25.8,35.5,31.3,28.8,31.3z
				 M28.8,8.2C22.8,8.2,18,13.1,18,19c0,6,4.9,10.8,10.8,10.8S39.6,25,39.6,19C39.6,13.1,34.7,8.2,28.8,8.2z"/>
		</g>
		<g>
			<path class="st2" d="M44.4,37.2l-0.9-0.9l2.1-2.1l0.9,0.9L44.4,37.2z M28.8,29.2c-5.6,0-10.1-4.5-10.1-10.1S23.2,8.9,28.8,8.9
				S38.9,13.4,38.9,19S34.3,29.2,28.8,29.2z M28.8,10.2c-4.9,0-8.9,4-8.9,8.9s4,8.9,8.9,8.9s8.9-4,8.9-8.9S33.6,10.2,28.8,10.2z
				 M28.8,26.3c-0.2,0-0.4-0.1-0.5-0.2c-0.5-0.6-5-5.8-5-8.9c0-3,2.4-5.4,5.4-5.4s5.4,2.4,5.4,5.4c0,3.1-4.4,8.3-5,8.9
				C29.1,26.2,28.9,26.3,28.8,26.3z M28.8,13c-2.3,0-4.2,1.9-4.2,4.2c0,2,2.7,5.7,4.2,7.5c1.5-1.8,4.2-5.5,4.2-7.5
				C32.9,14.9,31.1,13,28.8,13z M28.8,20.8c-2,0-3.6-1.6-3.6-3.6s1.6-3.6,3.6-3.6s3.6,1.6,3.6,3.6C32.3,19.2,30.7,20.8,28.8,20.8z
				 M28.8,14.9c-1.3,0-2.3,1-2.3,2.3s1,2.3,2.3,2.3s2.3-1,2.3-2.3C31.1,15.9,30,14.9,28.8,14.9z"/>
		</g>
	</g>
</g>
<g id="Layer_7" class="st0">
	<g id="icon7" class="st1">
		<g>
			<path class="st2" d="M24.1,45C13.5,45,4.9,36.4,4.9,25.9S13.5,6.8,24.1,6.8c10.5,0,19.1,8.6,19.1,19.1S34.6,45,24.1,45z
				 M22.9,43.6c0.7,0,1.5,0,2.2,0V31.2h1.3v12.3c0.8-0.1,1.5-0.3,2.2-0.5V31.2h1.3v11.4c6.9-2.5,11.8-9,11.8-16.7
				c0-9.8-8-17.8-17.8-17.8s-17.8,8-17.8,17.8c0,7.7,4.9,14.3,11.8,16.7V31.2h1.3V43c0.7,0.2,1.5,0.4,2.2,0.5V31.2h1.3v12.4H22.9z
				 M15.4,40.2c-5-3.1-8.1-8.4-8.1-14.3c0-9.2,7.5-16.7,16.7-16.7s16.7,7.5,16.7,16.7c0,5.9-3,11.2-8.1,14.3L32,39.1
				c4.6-2.8,7.4-7.7,7.4-13.2c0-8.5-6.9-15.4-15.4-15.4S8.6,17.4,8.6,25.9c0,5.4,2.8,10.4,7.4,13.2L15.4,40.2z M31.2,30.1H16.9v-1.3
				H18c0-0.6-0.5-1.1-1.1-1.1v-1.3c1.3,0,2.4,1.1,2.4,2.4h2.2c0-1.1,0.8-2,1.8-2.3v-2.3h-0.5c-0.6,0-1.1,0.5-1.1,1.1h-1.3
				c0-1.3,1.1-2.4,2.4-2.4h2.4v1.3h-0.5v2.3c1,0.3,1.8,1.2,1.8,2.3h2.2c0-1.3,1.1-2.4,2.4-2.4v1.3c-0.6,0-1.1,0.5-1.1,1.1h1.1v1.3
				H31.2z M22.9,28.8h2.2c0-0.6-0.5-1.1-1.1-1.1C23.5,27.7,23,28.2,22.9,28.8z M31.2,25.4c-1.3,0-2.4-1.1-2.4-2.4h1.3
				c0,0.6,0.5,1.1,1.1,1.1s1.1-0.5,1.1-1.1s-0.5-1.1-1.1-1.1H16.9v-1.3h14.3c1.3,0,2.4,1.1,2.4,2.4C33.6,24.3,32.5,25.4,31.2,25.4z
				 M16.9,25.4c-1.3,0-2.4-1.1-2.4-2.4s1.1-2.4,2.4-2.4v1.3c-0.6,0-1.1,0.5-1.1,1.1s0.5,1.1,1.1,1.1S18,23.6,18,23h1.3
				C19.4,24.3,18.3,25.4,16.9,25.4z M27.7,25.3h-1.3c0-0.6-0.5-1.1-1.1-1.1v-1.3C26.6,22.9,27.7,24,27.7,25.3z M31.2,19.4H16.9v-1.3
				h14.3V19.4z"/>
		</g>
	</g>
</g>
<g id="Layer_8" class="st0">
	<g id="icon8" class="st1">
		<g>
			<path class="st2" d="M24.2,46.8c-0.2,0-0.5-0.1-0.6-0.3l-2.7-2.7l1.3-1.3l1.2,1.2v-9.3h1.8v9.3l1.2-1.2l1.3,1.3L25,46.5
				C24.6,46.7,24.4,46.8,24.2,46.8z M45.8,42.8H30.2c-0.5,0-0.9-0.4-0.9-0.9v-4.6l-1.2,1.2l-1.3-1.3l2.7-2.7c0.4-0.4,0.9-0.4,1.3,0
				l2.7,2.7l-1.3,1.3L31,37.3V41h14.6v1.8H45.8z M18.1,42.8H2.6V41h14.6v-3.7L16,38.4l-1.3-1.3l2.7-2.7c0.4-0.4,0.9-0.4,1.3,0
				l2.7,2.7l-1.3,1.3L19,37.3v4.6C19,42.4,18.6,42.8,18.1,42.8z M37,36h-2v-1.8h2c4,0,7.2-3.2,7.2-7.2c0-3.7-2.5-6.5-5.9-6.5
				c-0.5,0-0.9-0.4-0.9-0.9c0-2.4-1.1-4.1-2.9-4.8V27c0,0.5-0.4,0.9-0.9,0.9H16.3v0.5c0,0.2,0.2,0.5,0.5,0.5h17.6v1.8H16.7
				c-1.2,0-2.3-1-2.3-2.3V12.6c-1.4,1.8-2.3,4-2.3,6.3c0,0.5-0.4,0.9-0.9,0.9C7.2,19.8,4,23,4,27s3.2,7.2,7.2,7.2h2V36h-2
				c-5,0-9-4-9-9c0-4.7,3.6-8.5,8.1-9c0.2-3.1,1.7-6,4-8V5.4c0-1.2,1-2.3,2.3-2.3h16.9c0.5,0,0.9,0.4,0.9,0.9v8.8
				c2.7,0.7,4.4,2.9,4.7,5.8c3.9,0.4,6.8,3.9,6.8,8.3C46,32,42,36,37,36z M16.3,26.1h16.4V4.9h-16c-0.2,0-0.5,0.2-0.5,0.5v20.7H16.3
				z M28.9,19.1h-8.8v-1.8h8.8C28.9,17.3,28.9,19.1,28.9,19.1z M28.9,16.4h-8.8v-1.8h8.8C28.9,14.6,28.9,16.4,28.9,16.4z M28.9,13.7
				h-8.8v-1.8h8.8C28.9,11.9,28.9,13.7,28.9,13.7z"/>
		</g>
	</g>
</g>
<path class="st3" d="M25,13.3c-6.4,0-11.7,5.2-11.7,11.7S18.6,36.7,25,36.7S36.7,31.4,36.7,25C36.7,18.6,31.4,13.3,25,13.3z
	 M35.1,29.1l-3.3,0.6c0.4-1.4,0.6-2.8,0.6-4.3h3.5C35.8,26.7,35.6,27.9,35.1,29.1z M14.1,25.4h3.5c0,1.4,0.2,2.9,0.6,4.3l-3.3-0.6
	C14.4,27.9,14.2,26.7,14.1,25.4z M14.9,20.9l3.3-0.6c-0.4,1.4-0.6,2.8-0.6,4.3h-3.5C14.2,23.3,14.4,22.1,14.9,20.9z M25.4,19.6
	c1.4,0,2.8,0.1,4.2,0.4l1.4,0.2c0.4,1.4,0.6,2.9,0.7,4.4h-6.2V19.6z M29.7,19.2c-1.4-0.2-2.9-0.4-4.3-0.4v-4.7
	c2.2,0.2,4.2,2.3,5.3,5.2L29.7,19.2z M24.6,18.8c-1.4,0-2.9,0.1-4.3,0.4l-1,0.2c1.1-3,3-5,5.3-5.2V18.8z M20.4,20
	c1.4-0.2,2.8-0.4,4.2-0.4v5h-6.2c0-1.5,0.3-3,0.7-4.4L20.4,20z M18.4,25.4h6.2v5c-1.4,0-2.8-0.1-4.2-0.4l-1.4-0.2
	C18.6,28.4,18.4,26.9,18.4,25.4z M20.3,30.8c1.4,0.2,2.9,0.4,4.3,0.4v4.7c-2.2-0.2-4.2-2.3-5.3-5.2L20.3,30.8z M25.4,31.2
	c1.4,0,2.9-0.2,4.3-0.4l1-0.2c-1.1,3-3,5-5.3,5.2V31.2z M29.6,30c-1.4,0.2-2.8,0.4-4.2,0.4v-5h6.2c0,1.5-0.3,3-0.7,4.4L29.6,30z
	 M32.4,24.6c0-1.4-0.2-2.9-0.6-4.3l3.3,0.6c0.5,1.2,0.7,2.4,0.8,3.7H32.4z M34.7,20.1l-3.2-0.5c-0.6-1.9-1.6-3.5-3.1-4.8
	C31.1,15.6,33.4,17.5,34.7,20.1z M21.6,14.7c-1.5,1.3-2.5,3-3.1,4.8l-3.2,0.5C16.6,17.5,18.9,15.6,21.6,14.7z M15.3,29.9l3.2,0.5
	c0.6,1.9,1.6,3.5,3.1,4.8C18.9,34.4,16.6,32.5,15.3,29.9z M28.4,35.3c1.5-1.3,2.5-3,3.1-4.8l3.2-0.5C33.4,32.5,31.1,34.4,28.4,35.3z
	"/>
<g>
	<path class="st3" d="M25.1,43.2C25,43.2,25,43.2,25.1,43.2l-0.3,0l0-1l0.2,0c0.3,0,0.5,0,0.7,0l0,1C25.5,43.2,25.3,43.2,25.1,43.2z
		 M22.7,43c-0.3,0-0.7-0.1-1-0.2l0.2-1c0.3,0.1,0.6,0.1,1,0.1L22.7,43z M27.8,42.9l-0.2-1c0.3-0.1,0.6-0.1,1-0.2l0.2,1
		C28.5,42.8,28.2,42.9,27.8,42.9z M19.7,42.4c-0.3-0.1-0.7-0.2-1-0.3l0.3-0.9c0.3,0.1,0.6,0.2,0.9,0.3L19.7,42.4z M30.8,42.2
		l-0.3-0.9c0.3-0.1,0.6-0.2,0.9-0.3l0.4,0.9C31.5,42,31.1,42.1,30.8,42.2z M16.8,41.2c-0.3-0.2-0.6-0.3-0.9-0.5l0.5-0.9
		c0.3,0.2,0.6,0.3,0.9,0.5L16.8,41.2z M33.6,41l-0.5-0.9c0.3-0.2,0.6-0.3,0.8-0.5l0.5,0.9C34.2,40.6,33.9,40.8,33.6,41z M14.2,39.6
		c-0.3-0.2-0.5-0.4-0.8-0.6l0.6-0.8c0.2,0.2,0.5,0.4,0.8,0.6L14.2,39.6z M36.2,39.3l-0.6-0.8c0.3-0.2,0.5-0.4,0.7-0.6l0.7,0.8
		C36.8,38.9,36.5,39.1,36.2,39.3z M11.9,37.6c-0.2-0.2-0.5-0.5-0.7-0.8l0.8-0.7c0.2,0.2,0.4,0.5,0.7,0.7L11.9,37.6z M38.5,37.2
		l-0.7-0.7c0.2-0.2,0.4-0.5,0.6-0.7l0.8,0.6C38.9,36.7,38.7,36.9,38.5,37.2z M10,35.2c-0.2-0.3-0.4-0.6-0.6-0.9l0.9-0.5
		c0.2,0.3,0.3,0.5,0.5,0.8L10,35.2z M40.3,34.7l-0.8-0.5c0.2-0.3,0.3-0.6,0.5-0.8l0.9,0.5C40.7,34.2,40.5,34.5,40.3,34.7z M8.5,32.5
		c-0.1-0.3-0.3-0.6-0.4-0.9L9,31.2c0.1,0.3,0.2,0.6,0.4,0.9L8.5,32.5z M41.8,32l-0.9-0.4c0.1-0.3,0.2-0.6,0.3-0.9l0.9,0.3
		C42,31.4,41.9,31.7,41.8,32z M7.4,29.6c-0.1-0.3-0.2-0.7-0.2-1l1-0.2c0.1,0.3,0.1,0.6,0.2,0.9L7.4,29.6z M42.7,29.1l-1-0.2
		c0.1-0.3,0.1-0.6,0.2-1l1,0.2C42.9,28.4,42.8,28.7,42.7,29.1z M6.9,26.6c0-0.3,0-0.7-0.1-1l1,0c0,0.3,0,0.6,0.1,1L6.9,26.6z
		 M43.1,26l-1-0.1c0-0.3,0-0.6,0-1l1-0.1V25C43.2,25.3,43.2,25.7,43.1,26z M7.9,23.6l-1-0.1c0-0.3,0.1-0.7,0.1-1l1,0.1
		C8,22.9,7.9,23.3,7.9,23.6z M42.1,23c0-0.3-0.1-0.6-0.1-1l1-0.2c0.1,0.3,0.1,0.7,0.1,1L42.1,23z M8.4,20.7l-1-0.3
		c0.1-0.3,0.2-0.7,0.3-1l1,0.3C8.5,20.1,8.5,20.4,8.4,20.7z M41.5,20.1c-0.1-0.3-0.2-0.6-0.3-0.9l0.9-0.3c0.1,0.3,0.2,0.6,0.3,1
		L41.5,20.1z M9.3,18l-0.9-0.4c0.1-0.3,0.3-0.6,0.4-0.9l0.9,0.5C9.6,17.4,9.5,17.7,9.3,18z M40.4,17.4c-0.1-0.3-0.3-0.6-0.5-0.9
		l0.9-0.5c0.2,0.3,0.3,0.6,0.5,0.9L40.4,17.4z M10.8,15.4l-0.8-0.6c0.2-0.3,0.4-0.6,0.6-0.8l0.8,0.6C11.1,14.9,10.9,15.2,10.8,15.4z
		 M38.9,14.9c-0.2-0.3-0.4-0.5-0.6-0.8l0.8-0.6c0.2,0.3,0.4,0.5,0.6,0.8L38.9,14.9z M12.6,13.2l-0.7-0.7c0.2-0.2,0.5-0.5,0.7-0.7
		l0.7,0.7C13,12.7,12.8,12.9,12.6,13.2z M37,12.7c-0.2-0.2-0.5-0.4-0.7-0.7l0.7-0.8c0.3,0.2,0.5,0.5,0.8,0.7L37,12.7z M14.8,11.2
		l-0.6-0.8c0.3-0.2,0.6-0.4,0.8-0.6l0.6,0.8C15.3,10.8,15,11,14.8,11.2z M34.8,10.9c-0.3-0.2-0.5-0.4-0.8-0.5l0.5-0.9
		c0.3,0.2,0.6,0.4,0.9,0.6L34.8,10.9z M17.2,9.7l-0.5-0.9c0.3-0.2,0.6-0.3,0.9-0.4l0.4,0.9C17.8,9.4,17.5,9.5,17.2,9.7z M32.2,9.4
		C32,9.3,31.7,9.2,31.3,9l0.4-0.9c0.3,0.1,0.6,0.3,0.9,0.4L32.2,9.4z M19.9,8.6l-0.3-1c0.3-0.1,0.7-0.2,1-0.3l0.2,1
		C20.5,8.4,20.2,8.5,19.9,8.6z M29.5,8.4c-0.3-0.1-0.6-0.2-0.9-0.2l0.2-1c0.3,0.1,0.7,0.2,1,0.2L29.5,8.4z M22.8,8l-0.1-1
		c0.3,0,0.7-0.1,1-0.1l0.1,1C23.4,7.9,23.1,7.9,22.8,8z M26.6,7.9c-0.3,0-0.6-0.1-1-0.1l0-1c0.3,0,0.7,0,1,0.1L26.6,7.9z"/>
</g>
</svg>
