<?xml version="1.0" encoding="utf-8"?>
<!-- Generator: Adobe Illustrator 23.0.1, SVG Export Plug-In . SVG Version: 6.00 Build 0)  -->
<svg version="1.1" id="Layer_1" xmlns="http://www.w3.org/2000/svg" xmlns:xlink="http://www.w3.org/1999/xlink" x="0px" y="0px"
	 viewBox="0 0 100 100" style="enable-background:new 0 0 100 100;" xml:space="preserve">
<style type="text/css">
	.st0{fill:#46BC93;}
</style>
<g>
	<g>
		<g>
			<path class="st0" d="M48.9,12c-0.1-0.9-0.9-1.6-1.8-1.5c-0.9,0.1-1.6,0.9-1.6,1.8c0.1,0.9,0.8,1.6,1.7,1.6c0,0,0.1,0,0.1,0
				c0,0,0,0,0.1,0C48.3,13.7,49,12.9,48.9,12z"/>
		</g>
	</g>
	<g>
		<g>
			<path class="st0" d="M71.8,18.9c-0.7-0.6-1.8-0.6-2.4,0.1c-0.6,0.7-0.6,1.8,0.1,2.4c0,0,0,0,0,0c0.3,0.3,0.7,0.4,1.1,0.4
				c0.5,0,0.9-0.2,1.3-0.6C72.5,20.5,72.5,19.5,71.8,18.9z"/>
		</g>
	</g>
	<g>
		<g>
			<path class="st0" d="M62.8,13.2c-0.9-0.4-1.8,0-2.2,0.9c-0.4,0.9,0,1.8,0.9,2.2l0.1,0c0.2,0.1,0.4,0.1,0.6,0.1
				c0.7,0,1.3-0.4,1.6-1C64,14.5,63.6,13.5,62.8,13.2z"/>
		</g>
	</g>
	<g>
		<g>
			<path class="st0" d="M75.5,22.7C75.5,22.7,75.5,22.7,75.5,22.7c-0.6-0.7-1.7-0.8-2.4-0.2c-0.7,0.6-0.8,1.7-0.2,2.4
				c0.3,0.4,0.8,0.6,1.3,0.6c0.4,0,0.8-0.1,1.1-0.4C76,24.5,76.1,23.4,75.5,22.7z"/>
		</g>
	</g>
	<g>
		<g>
			<path class="st0" d="M52.5,10.5L52.5,10.5c-0.9-0.1-1.8,0.6-1.8,1.5c-0.1,0.9,0.6,1.7,1.5,1.8c0.1,0,0.1,0,0.2,0
				c0.9,0,1.6-0.7,1.7-1.5C54.1,11.4,53.4,10.6,52.5,10.5z"/>
		</g>
	</g>
	<g>
		<g>
			<path class="st0" d="M57.8,11.4C57.7,11.4,57.7,11.4,57.8,11.4c-1-0.2-1.9,0.3-2.1,1.2c-0.2,0.9,0.3,1.8,1.2,2
				c0.1,0,0.3,0.1,0.4,0.1c0.7,0,1.4-0.5,1.6-1.2C59.2,12.6,58.7,11.7,57.8,11.4z"/>
		</g>
	</g>
	<g>
		<g>
			<path class="st0" d="M67.5,15.7C67.5,15.7,67.5,15.7,67.5,15.7c-0.9-0.5-1.9-0.3-2.4,0.5c-0.5,0.8-0.2,1.8,0.5,2.3
				c0.3,0.2,0.6,0.3,0.9,0.3c0.5,0,1.1-0.3,1.4-0.8C68.5,17.2,68.3,16.2,67.5,15.7z"/>
		</g>
	</g>
	<g>
		<g>
			<path class="st0" d="M81.5,45.8c-0.9-0.1-1.8,0.6-1.9,1.5l0,0c-0.1,0.9,0.6,1.8,1.5,1.8c0.1,0,0.1,0,0.2,0c0.9,0,1.6-0.7,1.7-1.5
				l-1.7-0.2l1.7,0.2C83.1,46.7,82.4,45.9,81.5,45.8z"/>
		</g>
	</g>
	<g>
		<g>
			<path class="st0" d="M79.5,55.7c-0.8-0.4-1.8,0-2.2,0.8l0,0.1c-0.4,0.9,0,1.8,0.9,2.2c0.2,0.1,0.4,0.1,0.7,0.1
				c0.7,0,1.3-0.4,1.5-1C80.7,57.1,80.3,56.1,79.5,55.7z"/>
		</g>
	</g>
	<g>
		<g>
			<path class="st0" d="M78.6,27.1C78.6,27.1,78.5,27.1,78.6,27.1C78,26.3,77,26,76.2,26.5c-0.8,0.5-1.1,1.5-0.6,2.3
				c0.3,0.5,0.9,0.8,1.5,0.8c0.3,0,0.6-0.1,0.8-0.2C78.7,28.9,79,27.9,78.6,27.1z"/>
		</g>
	</g>
	<g>
		<g>
			<path class="st0" d="M83.1,42.3L83.1,42.3c-0.1-0.9-0.9-1.6-1.8-1.6c-0.9,0.1-1.6,0.9-1.6,1.8c0.1,0.9,0.8,1.6,1.7,1.6
				c0,0,0.1,0,0.1,0C82.5,44,83.2,43.2,83.1,42.3z"/>
		</g>
	</g>
	<g>
		<g>
			<path class="st0" d="M80.9,31.9l-1.6,0.6L80.9,31.9c-0.3-0.9-1.3-1.3-2.2-1c-0.9,0.3-1.3,1.3-1,2.2c0,0,0,0,0,0
				c0.3,0.7,0.9,1.1,1.6,1.1c0.2,0,0.4,0,0.6-0.1C80.8,33.7,81.2,32.7,80.9,31.9z"/>
		</g>
	</g>
	<g>
		<g>
			<path class="st0" d="M82.4,37C82.4,37,82.4,37,82.4,37c-0.2-1-1.1-1.5-2-1.3c-0.9,0.2-1.5,1.1-1.3,2c0.2,0.8,0.9,1.3,1.6,1.3
				c0.1,0,0.2,0,0.3,0C82,38.8,82.6,37.9,82.4,37z"/>
		</g>
	</g>
	<g>
		<g>
			<path class="st0" d="M80.9,50.8C80,50.6,79,51.1,78.8,52c-0.2,0.9,0.3,1.8,1.2,2.1c0.1,0,0.3,0.1,0.4,0.1c0.7,0,1.4-0.5,1.6-1.2
				c0,0,0,0,0,0C82.3,51.9,81.8,51,80.9,50.8z"/>
		</g>
	</g>
	<g>
		<g>
			<path class="st0" d="M18.6,34.9c-0.9-0.2-1.8,0.3-2,1.2l0,0c-0.2,0.9,0.3,1.8,1.2,2c0.1,0,0.3,0,0.4,0c0.8,0,1.5-0.5,1.6-1.3
				C20,36.1,19.5,35.1,18.6,34.9z"/>
		</g>
	</g>
	<g>
		<g>
			<path class="st0" d="M20.4,30.2c-0.9-0.4-1.8,0-2.2,0.9l0,0c-0.4,0.9,0,1.8,0.9,2.2c0.2,0.1,0.4,0.1,0.7,0.1c0.7,0,1.3-0.4,1.6-1
				l0,0C21.7,31.5,21.3,30.6,20.4,30.2z"/>
		</g>
	</g>
	<g>
		<g>
			<path class="st0" d="M19.8,51.3c-0.2-0.9-1.1-1.5-2-1.3c-0.9,0.2-1.5,1.1-1.3,2c0,0,0,0,0,0c0.2,0.8,0.9,1.3,1.6,1.3
				c0.1,0,0.3,0,0.4,0C19.4,53.1,20,52.2,19.8,51.3z"/>
		</g>
	</g>
	<g>
		<g>
			<path class="st0" d="M23.4,60.1c-0.5-0.8-1.5-1.1-2.3-0.6c-0.8,0.5-1.1,1.5-0.6,2.3c0,0,0,0,0,0c0.3,0.5,0.9,0.8,1.4,0.8
				c0.3,0,0.6-0.1,0.9-0.3C23.7,62,23.9,60.9,23.4,60.1z"/>
		</g>
	</g>
	<g>
		<g>
			<path class="st0" d="M19,46.5c-0.1-0.9-0.9-1.6-1.8-1.6c-0.9,0.1-1.6,0.9-1.6,1.8l0,0c0.1,0.9,0.8,1.6,1.7,1.6c0,0,0.1,0,0.1,0
				C18.4,48.3,19.1,47.5,19,46.5z"/>
		</g>
	</g>
	<g>
		<g>
			<path class="st0" d="M17.5,39.9c-0.9-0.1-1.7,0.6-1.8,1.5c0,0,0,0,0,0c-0.1,0.9,0.6,1.7,1.6,1.8c0,0,0.1,0,0.1,0
				c0.9,0,1.6-0.7,1.7-1.6C19.1,40.8,18.4,40,17.5,39.9z"/>
		</g>
	</g>
	<g>
		<g>
			<path class="st0" d="M43.9,12.5c-0.2-0.9-1.1-1.5-2-1.3l-0.1,0c-0.9,0.2-1.5,1.1-1.2,2c0.2,0.8,0.9,1.3,1.6,1.3
				c0.1,0,0.3,0,0.4,0C43.5,14.3,44.1,13.4,43.9,12.5z"/>
		</g>
	</g>
	<g>
		<g>
			<path class="st0" d="M34.3,15.8c-0.5-0.8-1.5-1.1-2.3-0.6c0,0,0,0-0.1,0c-0.8,0.5-1,1.5-0.5,2.3c0.3,0.5,0.9,0.8,1.4,0.8
				c0.3,0,0.6-0.1,0.9-0.2C34.5,17.6,34.8,16.6,34.3,15.8z"/>
		</g>
	</g>
	<g>
		<g>
			<path class="st0" d="M39,13.8c-0.3-0.9-1.3-1.3-2.2-1c0,0,0,0-0.1,0c-0.9,0.4-1.3,1.3-0.9,2.2c0.3,0.7,0.9,1,1.6,1
				c0.2,0,0.4,0,0.6-0.1C38.9,15.6,39.3,14.7,39,13.8z"/>
		</g>
	</g>
	<g>
		<g>
			<path class="st0" d="M30,18.5c-0.6-0.7-1.7-0.8-2.4-0.2l0,0c-0.7,0.6-0.8,1.7-0.2,2.4c0.3,0.4,0.8,0.6,1.3,0.6
				c0.4,0,0.8-0.1,1.1-0.4C30.5,20.3,30.6,19.2,30,18.5z"/>
		</g>
	</g>
	<g>
		<g>
			<path class="st0" d="M26.2,21.9c-0.7-0.6-1.8-0.5-2.4,0.2c0,0,0,0,0,0c-0.6,0.7-0.5,1.8,0.2,2.4c0.3,0.3,0.7,0.4,1.1,0.4
				c0.5,0,0.9-0.2,1.3-0.6C27,23.6,26.9,22.5,26.2,21.9z"/>
		</g>
	</g>
	<g>
		<g>
			<path class="st0" d="M21.2,55.9c-0.4-0.9-1.3-1.3-2.2-0.9c-0.9,0.4-1.3,1.3-0.9,2.2c0,0,0,0,0,0c0.3,0.6,0.9,1,1.6,1
				c0.2,0,0.4,0,0.7-0.1C21.2,57.7,21.6,56.7,21.2,55.9z"/>
		</g>
	</g>
	<g>
		<g>
			<path class="st0" d="M23,25.8c-0.8-0.5-1.8-0.2-2.3,0.5l0,0c-0.5,0.8-0.2,1.8,0.5,2.3c0.3,0.2,0.6,0.3,0.9,0.3
				c0.6,0,1.1-0.3,1.4-0.8C24,27.3,23.8,26.3,23,25.8z"/>
		</g>
	</g>
	<g>
		<g>
			<path class="st0" d="M91.5,86.2h-2.7c0,0,0,0,0,0L60.9,44.7c-0.6-0.9-1.4-1.5-2.4-1.9v-4.7l8.4-5.3c0.5-0.3,0.8-0.9,0.8-1.6
				c0-0.6-0.4-1.2-1-1.4l-9.2-4.1c-0.5-0.2-1.1-0.2-1.6,0.1c-0.5,0.3-0.8,0.8-0.8,1.4v9.9c0,0,0,0,0,0.1v5.6c-1,0.3-1.8,1-2.4,1.9
				l-11.4,17l-2.7-4c-0.9-1.4-2.4-2.2-4.1-2.2c-1.6,0-3.2,0.8-4.1,2.2L11.2,86.2H8.5c-0.9,0-1.7,0.8-1.7,1.7c0,0.9,0.8,1.7,1.7,1.7
				h3.6c0,0,0,0,0,0c0,0,0,0,0,0h79.4c0.9,0,1.7-0.8,1.7-1.7C93.2,86.9,92.4,86.2,91.5,86.2z M58.5,29.9l3.9,1.7l-3.9,2.5V29.9z
				 M15.3,86.2l18-26.7c0.3-0.4,0.7-0.7,1.3-0.7c0.5,0,1,0.2,1.3,0.7l3.5,5.2l-6,8.9c-0.5,0.8-0.3,1.8,0.5,2.3
				c0.8,0.5,1.8,0.3,2.3-0.5l19.5-28.9c0.3-0.4,0.7-0.7,1.3-0.7s1,0.2,1.3,0.7l26.7,39.6H15.3z"/>
		</g>
	</g>
	<g>
		<g>
			<circle class="st0" cx="30.4" cy="80.8" r="1.7"/>
		</g>
	</g>
</g>
</svg>
