<?xml version="1.0" encoding="utf-8"?>
<!-- Generator: Adobe Illustrator 23.0.1, SVG Export Plug-In . SVG Version: 6.00 Build 0)  -->
<svg version="1.1" id="Layer_1" xmlns="http://www.w3.org/2000/svg" xmlns:xlink="http://www.w3.org/1999/xlink" x="0px" y="0px"
	 viewBox="0 0 100 100" style="enable-background:new 0 0 100 100;" xml:space="preserve">
<style type="text/css">
	.st0{fill:#46BC93;}
</style>
<g id="surface1">
	<path class="st0" d="M48.8,3C23.2,3.7,2.5,24.7,2.5,50.5c0,26.2,21.3,47.5,47.5,47.5s47.5-21.3,47.5-47.5S76.3,3,50,3
		C49.6,3,49.2,3,48.8,3z M48.8,11.2c0.4,0,0.8,0,1.3,0c21.7,0,39.4,17.6,39.4,39.4S71.8,89.9,50,89.9S10.7,72.3,10.7,50.5
		C10.7,29.2,27.6,11.8,48.8,11.2z"/>
	<path class="st0" d="M56.9,26.7c0,3.8-3.1,6.9-6.9,6.9s-6.9-3.1-6.9-6.9c0-3.8,3.1-6.9,6.9-6.9S56.9,22.9,56.9,26.7z"/>
	<path class="st0" d="M42.9,81.3h14.2V58.4h4.3c0,0,0-16.3,0-18.9c0-0.7,0.1-2-0.9-3c-1-1-2.3-0.9-3-0.9c-0.7,0-14.2,0-14.9,0
		c-0.7,0-2-0.1-3,0.9c-1,1-0.9,2.3-0.9,3c0,2.6,0,18.9,0,18.9h4.3V81.3z"/>
</g>
</svg>
