<?xml version="1.0" encoding="utf-8"?>
<!-- Generator: Adobe Illustrator 23.0.1, SVG Export Plug-In . SVG Version: 6.00 Build 0)  -->
<svg version="1.1" id="Layer_1" xmlns="http://www.w3.org/2000/svg" xmlns:xlink="http://www.w3.org/1999/xlink" x="0px" y="0px"
	 viewBox="0 0 100 100" style="enable-background:new 0 0 100 100;" xml:space="preserve">
<style type="text/css">
	.st0{fill:#46BC93;}
</style>
<g id="surface1">
	<path class="st0" d="M48.8,3C23.2,3.7,2.5,24.7,2.5,50.5c0,26.2,21.3,47.5,47.5,47.5s47.5-21.3,47.5-47.5S76.3,3,50,3
		C49.6,3,49.2,3,48.8,3z M48.8,11.2c0.4,0,0.8,0,1.3,0c21.7,0,39.4,17.6,39.4,39.4S71.8,89.9,50,89.9S10.7,72.3,10.7,50.5
		C10.7,29.2,27.6,11.8,48.8,11.2z"/>
	<path id="path2371" class="st0" d="M29.8,42.9h-4l9.1,10.2l9.1-10.2h-3.3c0.7-5,5.1-8.1,10.1-7.7c0.2,0,0.4,0,0.6,0
		c8.2,0,11.4,6.2,11.7,15.4c0.3,9.5-5.3,15.5-11.7,15.4c-6.8-0.1-9.4-3.4-10.4-8.3H28.8c2,11.4,10.4,18.1,22.3,18.1
		c13.5,0,23.2-11.2,23.2-25.1c0-14.8-9.7-25.1-23.2-25.1c-0.4,0-0.8,0-1.2,0c-0.1,0-0.2,0-0.3,0C41.2,25.6,29.8,31.5,29.8,42.9z"/>
</g>
</svg>
