<?xml version="1.0" encoding="utf-8"?>
<!-- Generator: Adobe Illustrator 23.0.1, SVG Export Plug-In . SVG Version: 6.00 Build 0)  -->
<svg version="1.1" id="Layer_1" xmlns="http://www.w3.org/2000/svg" xmlns:xlink="http://www.w3.org/1999/xlink" x="0px" y="0px"
	 viewBox="0 0 100 100" style="enable-background:new 0 0 100 100;" xml:space="preserve">
<style type="text/css">
	.st0{fill:#46BC93;}
</style>
<path id="path1334" class="st0" d="M48.8,2.8C23.3,3.5,2.8,24.4,2.8,50C2.8,76,24,97.2,50,97.2S97.2,76,97.2,50S76,2.8,50,2.8
	C49.6,2.8,49.2,2.8,48.8,2.8z M48.8,10.9c0.4,0,0.8,0,1.2,0c21.6,0,39.1,17.5,39.1,39.1S71.6,89.1,50,89.1S10.9,71.6,10.9,50
	C10.9,28.9,27.8,11.6,48.8,10.9z"/>
<path id="text1367" class="st0" d="M40.6,59.9c3,4.2,12.3,4.6,15.5,2.8c1.2-0.7,1.5-2.6,1.5-3.9c0-0.9-0.2-1.6-0.7-2.1
	c-0.5-0.5-1.8-1.8-3.2-2.2c-7.4-1.9-12.5-4.3-14.5-6c-2.5-2.2-2.9-3.6-2.9-7.3c0-3.8,1.1-6.9,3.5-9.2s6-3.4,10.7-3.4
	c4.5,0,10.7,1.2,13.8,4.8l-5.1,5.5c-2.9-2.4-5-2.6-8.5-2.6c-2.2,0-3.4,0.3-4.3,1c-0.9,0.6-1.4,1.4-1.4,2.4c0,0.9,0.4,1.6,1.3,2.2
	c0.9,0.6,3.1,1.5,7.6,2.7c5,1.4,8.4,3,10.2,5c1.8,2,2.7,4.6,2.7,7.8c0,3.9-1.4,7.1-4.1,9.7c-2.7,2.5-6.1,4.5-10.9,4.5
	c-6.2,0-14.6-2.2-16.8-6.3"/>
<path id="rect2247" class="st0" d="M90.3,62l-3.5,7.8l-75.3-34L15,28C15,28,90.3,62,90.3,62z"/>
<path id="rect2278" class="st0" d="M47.6,21.8v10.1h4.8V21.8H47.6z M47.6,69.1v9.1h4.8v-9.1H47.6z"/>
</svg>
