<?xml version="1.0" encoding="utf-8"?>
<!-- Generator: Adobe Illustrator 23.0.1, SVG Export Plug-In . SVG Version: 6.00 Build 0)  -->
<svg version="1.1" id="Layer_1" xmlns="http://www.w3.org/2000/svg" xmlns:xlink="http://www.w3.org/1999/xlink" x="0px" y="0px"
	 viewBox="0 0 100 100" style="enable-background:new 0 0 100 100;" xml:space="preserve">
<style type="text/css">
	.st0{fill:#46BC93;}
</style>
<path id="path1334" class="st0" d="M48.8,2.8C23.3,3.5,2.8,24.4,2.8,50C2.8,76,24,97.2,50,97.2S97.2,76,97.2,50S76,2.8,50,2.8
	C49.6,2.8,49.2,2.8,48.8,2.8z M48.8,10.9c0.4,0,0.8,0,1.2,0c21.6,0,39.1,17.5,39.1,39.1S71.6,89.1,50,89.1S10.9,71.6,10.9,50
	C10.9,28.9,27.8,11.6,48.8,10.9z"/>
<g>
	<rect x="28.3" y="34.7" class="st0" width="43.3" height="10.8"/>
</g>
<g>
	<rect x="28.3" y="54.5" class="st0" width="43.3" height="10.8"/>
</g>
</svg>
