<?xml version="1.0" encoding="utf-8"?>
<!-- Generator: Adobe Illustrator 23.0.1, SVG Export Plug-In . SVG Version: 6.00 Build 0)  -->
<svg version="1.1" id="Layer_1" xmlns="http://www.w3.org/2000/svg" xmlns:xlink="http://www.w3.org/1999/xlink" x="0px" y="0px"
	 viewBox="0 0 88 31" style="enable-background:new 0 0 88 31;" xml:space="preserve">
<style type="text/css">
	.st0{fill:#FFFFFF;}
</style>
<g>
	<path class="st0" d="M2.3,0.6l83.1,0.1c1.2,0,2.2-0.2,2.2,2.3l-0.1,27.6H0.2V3C0.2,1.7,0.3,0.6,2.3,0.6z"/>
	<g>
		<ellipse class="st0" cx="14.4" cy="15.6" rx="11.1" ry="11.2"/>
	</g>
	<path d="M23.8,4.2c3.5,2.6,5.8,6.7,5.8,11.4c0,4.3-1.9,8.1-4.8,10.7h62.9V4.2H23.8z"/>
	<g>
		<path class="st0" d="M36.2,7.7c0.4,0,0.7,0.1,1,0.2c0.3,0.1,0.5,0.3,0.7,0.5c0.2,0.2,0.3,0.4,0.4,0.6c0.1,0.2,0.1,0.5,0.1,0.8
			c0,0.3,0,0.5-0.1,0.7c-0.1,0.2-0.2,0.5-0.4,0.6c-0.2,0.2-0.4,0.3-0.7,0.5c-0.3,0.1-0.6,0.2-1,0.2h-1.5V14h-1.4V7.7H36.2z
			 M35.9,10.6c0.2,0,0.3,0,0.5,0c0.1,0,0.3-0.1,0.4-0.1s0.2-0.2,0.3-0.3s0.1-0.3,0.1-0.5c0-0.2,0-0.4-0.1-0.5
			c-0.1-0.1-0.2-0.2-0.3-0.3c-0.1-0.1-0.2-0.1-0.4-0.1c-0.1,0-0.3,0-0.5,0h-1.1v1.9L35.9,10.6L35.9,10.6z"/>
		<path class="st0" d="M44.3,13.5c-0.5,0.4-1.1,0.6-2,0.6c-0.9,0-1.5-0.2-2-0.6c-0.5-0.4-0.7-1.1-0.7-1.9V7.7H41v3.9
			c0,0.2,0,0.3,0,0.5c0,0.2,0.1,0.3,0.2,0.4c0.1,0.1,0.2,0.2,0.4,0.3c0.2,0.1,0.4,0.1,0.7,0.1c0.5,0,0.8-0.1,1-0.3s0.3-0.6,0.3-1
			V7.7H45v3.9C45,12.4,44.7,13.1,44.3,13.5z"/>
		<path class="st0" d="M49.6,7.7c0.3,0,0.6,0,0.8,0.1C50.6,7.8,50.8,7.9,51,8c0.2,0.1,0.3,0.3,0.4,0.5c0.1,0.2,0.1,0.4,0.1,0.7
			c0,0.3-0.1,0.6-0.2,0.8c-0.1,0.2-0.4,0.4-0.6,0.5c0.4,0.1,0.7,0.3,0.9,0.6c0.2,0.3,0.3,0.6,0.3,1c0,0.3-0.1,0.6-0.2,0.8
			c-0.1,0.2-0.3,0.4-0.5,0.6c-0.2,0.1-0.4,0.3-0.7,0.3c-0.3,0.1-0.5,0.1-0.8,0.1h-3V7.7H49.6z M49.4,10.2c0.2,0,0.4-0.1,0.6-0.2
			c0.2-0.1,0.2-0.3,0.2-0.6c0-0.1,0-0.3-0.1-0.4C50.1,9,50,8.9,49.9,8.9c-0.1-0.1-0.2-0.1-0.3-0.1c-0.1,0-0.2,0-0.4,0H48v1.5
			L49.4,10.2L49.4,10.2L49.4,10.2z M49.5,12.9c0.1,0,0.3,0,0.4,0s0.2-0.1,0.3-0.1c0.1-0.1,0.2-0.1,0.2-0.3c0.1-0.1,0.1-0.2,0.1-0.4
			c0-0.3-0.1-0.6-0.3-0.7c-0.2-0.1-0.4-0.2-0.7-0.2H48v1.7L49.5,12.9L49.5,12.9L49.5,12.9z"/>
		<path class="st0" d="M54.6,7.7v5.2h3.1V14h-4.4V7.7H54.6z"/>
		<path class="st0" d="M60.2,7.7V14h-1.4V7.7H60.2z"/>
		<path class="st0" d="M66,9.3c-0.1-0.1-0.2-0.2-0.3-0.3c-0.1-0.1-0.3-0.2-0.4-0.2c-0.2-0.1-0.3-0.1-0.5-0.1c-0.3,0-0.6,0.1-0.8,0.2
			c-0.2,0.1-0.4,0.3-0.5,0.5c-0.1,0.2-0.2,0.4-0.3,0.7c-0.1,0.3-0.1,0.5-0.1,0.8c0,0.3,0,0.5,0.1,0.8c0.1,0.3,0.2,0.5,0.3,0.7
			c0.1,0.2,0.3,0.4,0.5,0.5c0.2,0.1,0.5,0.2,0.8,0.2c0.4,0,0.8-0.1,1-0.4c0.2-0.3,0.4-0.6,0.4-1h1.3c0,0.4-0.1,0.8-0.3,1.1
			c-0.1,0.3-0.3,0.6-0.6,0.8c-0.2,0.2-0.5,0.4-0.8,0.5c-0.3,0.1-0.7,0.2-1.1,0.2c-0.5,0-0.9-0.1-1.3-0.3c-0.4-0.2-0.7-0.4-1-0.7
			c-0.3-0.3-0.5-0.6-0.6-1c-0.1-0.4-0.2-0.8-0.2-1.3c0-0.5,0.1-0.9,0.2-1.3c0.1-0.4,0.3-0.8,0.6-1.1c0.3-0.3,0.6-0.5,1-0.7
			c0.4-0.2,0.8-0.3,1.3-0.3c0.3,0,0.7,0.1,1,0.2c0.3,0.1,0.6,0.2,0.8,0.4c0.2,0.2,0.4,0.4,0.6,0.7c0.2,0.3,0.3,0.6,0.3,1h-1.3
			C66.1,9.6,66,9.5,66,9.3z"/>
		<path class="st0" d="M36.1,16.5c0.4,0,0.8,0.1,1.1,0.2c0.3,0.1,0.7,0.3,0.9,0.6c0.3,0.3,0.5,0.6,0.6,1c0.1,0.4,0.2,0.8,0.2,1.4
			c0,0.5-0.1,0.9-0.2,1.3c-0.1,0.4-0.3,0.7-0.5,1c-0.2,0.3-0.5,0.5-0.9,0.7c-0.4,0.2-0.8,0.2-1.3,0.2h-2.7v-6.3
			C33.4,16.5,36.1,16.5,36.1,16.5z M36,21.7c0.2,0,0.4,0,0.6-0.1c0.2-0.1,0.4-0.2,0.5-0.3c0.1-0.2,0.3-0.3,0.4-0.6
			c0.1-0.2,0.1-0.5,0.1-0.9c0-0.3,0-0.6-0.1-0.9c-0.1-0.3-0.2-0.5-0.3-0.7c-0.1-0.2-0.3-0.3-0.6-0.4c-0.2-0.1-0.5-0.1-0.9-0.1h-1v4
			H36z"/>
		<path class="st0" d="M40.3,18.4c0.1-0.4,0.3-0.8,0.6-1.1c0.3-0.3,0.6-0.5,1-0.7c0.4-0.2,0.8-0.3,1.3-0.3c0.5,0,0.9,0.1,1.3,0.3
			c0.4,0.2,0.7,0.4,1,0.7c0.3,0.3,0.5,0.7,0.6,1.1c0.1,0.4,0.2,0.8,0.2,1.3c0,0.5-0.1,0.9-0.2,1.3c-0.1,0.4-0.3,0.7-0.6,1
			c-0.3,0.3-0.6,0.5-1,0.7c-0.4,0.2-0.8,0.3-1.3,0.3c-0.5,0-0.9-0.1-1.3-0.3c-0.4-0.2-0.7-0.4-1-0.7c-0.3-0.3-0.5-0.6-0.6-1
			c-0.1-0.4-0.2-0.8-0.2-1.3C40.1,19.2,40.2,18.8,40.3,18.4z M41.6,20.5c0.1,0.3,0.2,0.5,0.3,0.7c0.1,0.2,0.3,0.4,0.5,0.5
			c0.2,0.1,0.5,0.2,0.8,0.2c0.3,0,0.6-0.1,0.8-0.2c0.2-0.1,0.4-0.3,0.5-0.5c0.1-0.2,0.2-0.4,0.3-0.7c0.1-0.3,0.1-0.5,0.1-0.8
			c0-0.3,0-0.5-0.1-0.8c-0.1-0.3-0.2-0.5-0.3-0.7c-0.1-0.2-0.3-0.4-0.5-0.5c-0.2-0.1-0.5-0.2-0.8-0.2c-0.3,0-0.6,0.1-0.8,0.2
			c-0.2,0.1-0.4,0.3-0.5,0.5c-0.1,0.2-0.2,0.4-0.3,0.7c-0.1,0.3-0.1,0.5-0.1,0.8C41.5,20,41.5,20.2,41.6,20.5z"/>
		<path class="st0" d="M49.6,16.5l1.5,4.3h0l1.4-4.3h1.9v6.3h-1.3v-4.5h0l-1.5,4.5h-1.1L49,18.4h0v4.4h-1.3v-6.3H49.6z"/>
		<path class="st0" d="M59.3,16.5l2.3,6.3h-1.4l-0.5-1.4h-2.4l-0.5,1.4h-1.4l2.4-6.3C57.8,16.5,59.3,16.5,59.3,16.5z M59.3,20.4
			l-0.8-2.3h0l-0.8,2.3H59.3z"/>
		<path class="st0" d="M64,16.5v6.3h-1.4v-6.3H64z"/>
		<path class="st0" d="M67.1,16.5l2.6,4.2h0v-4.2H71v6.3h-1.4L67,18.6h0v4.2h-1.3v-6.3C65.7,16.5,67.1,16.5,67.1,16.5z"/>
	</g>
	<path d="M86.4,0.1H1.6C0.7,0.1,0,0.8,0,1.8v29c0,0.2,0.2,0.4,0.4,0.4h87.3c0.2,0,0.4-0.2,0.4-0.4v-29C88,0.8,87.3,0.1,86.4,0.1z
		 M1.6,0.9h84.7c0.5,0,0.9,0.4,0.9,0.9c0,0,0,20.1,0,28.6H0.7v-8.4c0-8.4,0-20.1,0-20.1C0.7,1.3,1.1,0.9,1.6,0.9z"/>
	<g>
		<ellipse class="st0" cx="14.7" cy="15.8" rx="11" ry="11.1"/>
		<path id="text2809_4_" d="M14.7,8.8c-3.9,0-4.8,3.7-4.8,6.8c0,3.1,1,6.8,4.8,6.8s4.8-3.7,4.8-6.8C19.6,12.5,18.6,8.8,14.7,8.8z
			 M14.7,11.4c0.2,0,0.3,0,0.4,0.1c0.3,0.2,0.4,0.6,0.1,1l-2.6,4.8c-0.1-0.6-0.1-1.2-0.1-1.6C12.6,14.3,12.7,11.4,14.7,11.4z
			 M16.6,13.6c0.1,0.7,0.2,1.5,0.2,2c0,1.4-0.1,4.2-2.1,4.2c-0.2,0-0.3,0-0.4,0c0,0,0,0-0.1,0c0,0-0.1,0-0.1,0
			c-0.4-0.2-0.7-0.5-0.3-1.1L16.6,13.6z"/>
		<path id="path2815_4_" d="M14.7,3.8c-3.2,0-6,1.1-8.2,3.4c-1.1,1.1-2,2.4-2.6,3.9C3.3,12.6,3,14.1,3,15.6c0,1.6,0.3,3.1,0.9,4.5
			s1.4,2.7,2.5,3.8c1.1,1.1,2.4,2,3.8,2.6c1.4,0.6,2.9,0.9,4.4,0.9c1.5,0,3-0.3,4.5-0.9c1.4-0.6,2.7-1.5,3.9-2.6
			c1.1-1.1,1.9-2.3,2.5-3.7c0.6-1.4,0.9-2.9,0.9-4.5c0-1.6-0.3-3.1-0.9-4.5c-0.6-1.4-1.4-2.7-2.5-3.8C20.8,5,18,3.8,14.7,3.8z
			 M14.7,6c2.6,0,4.9,0.9,6.8,2.8c0.9,0.9,1.6,2,2.1,3.1c0.5,1.2,0.7,2.4,0.7,3.7c0,2.7-0.9,5-2.7,6.7c-0.9,0.9-2,1.6-3.2,2.1
			c-1.2,0.5-2.4,0.7-3.6,0.7c-1.3,0-2.5-0.2-3.6-0.7C10,24,8.9,23.3,8,22.4c-0.9-0.9-1.6-2-2.1-3.1c-0.5-1.2-0.7-2.4-0.7-3.7
			c0-1.3,0.3-2.5,0.7-3.7C6.4,10.8,7.1,9.7,8,8.8C9.8,6.9,12.1,6,14.7,6z"/>
	</g>
</g>
</svg>
