<?xml version="1.0" encoding="utf-8"?>
<!-- Generator: Adobe Illustrator 23.0.1, SVG Export Plug-In . SVG Version: 6.00 Build 0)  -->
<svg version="1.1" id="Layer_1" xmlns="http://www.w3.org/2000/svg" xmlns:xlink="http://www.w3.org/1999/xlink" x="0px" y="0px"
	 viewBox="0 0 88 31" style="enable-background:new 0 0 88 31;" xml:space="preserve">
<style type="text/css">
	.st0{fill:#AAB2AB;}
	.st1{fill:#FFFFFF;}
	.st2{fill-rule:evenodd;clip-rule:evenodd;}
</style>
<g id="surface1">
	<path class="st0" d="M2.3,0.4l83.1,0.1c1.2,0,2.2-0.2,2.2,2.3l-0.1,27.6H0.2V2.8C0.2,1.5,0.3,0.4,2.3,0.4z"/>
	<path d="M86.4,0H1.6C0.7,0,0,0.7,0,1.7v29C0,30.8,0.2,31,0.4,31h87.3c0.2,0,0.4-0.2,0.4-0.4v-29C88,0.7,87.3,0,86.4,0z M1.6,0.8
		h84.7c0.5,0,0.9,0.4,0.9,0.9c0,0,0,11.7,0,20.1H26.5c-2.2,4-6.5,6.8-11.4,6.8c-4.9,0-9.2-2.7-11.4-6.8h-3c0-8.4,0-20.1,0-20.1
		C0.7,1.2,1.1,0.8,1.6,0.8z"/>
	<path class="st1" d="M54.1,24.2c0.2,0,0.4,0,0.6,0.1c0.2,0,0.4,0.1,0.5,0.2s0.2,0.2,0.3,0.4c0.1,0.2,0.1,0.3,0.1,0.6
		c0,0.2-0.1,0.4-0.2,0.6c-0.1,0.2-0.3,0.3-0.5,0.4c0.3,0.1,0.5,0.2,0.7,0.5c0.1,0.2,0.2,0.5,0.2,0.8c0,0.2,0,0.5-0.1,0.6
		c-0.1,0.2-0.2,0.3-0.4,0.4c-0.2,0.1-0.3,0.2-0.6,0.3s-0.4,0.1-0.6,0.1h-2.4v-4.9H54.1z M54,26.1c0.2,0,0.3,0,0.5-0.1
		c0.1-0.1,0.2-0.2,0.2-0.4c0-0.1,0-0.2-0.1-0.3c0-0.1-0.1-0.1-0.2-0.2c-0.1,0-0.1-0.1-0.2-0.1c-0.1,0-0.2,0-0.3,0h-1v1.1H54z
		 M54.1,28.2c0.1,0,0.2,0,0.3,0c0.1,0,0.2-0.1,0.3-0.1c0.1-0.1,0.1-0.1,0.2-0.2s0.1-0.2,0.1-0.3c0-0.3-0.1-0.4-0.2-0.5
		c-0.1-0.1-0.3-0.2-0.6-0.2h-1.2v1.3H54.1z"/>
	<path class="st1" d="M56.1,24.2h1.2l1.1,1.9l1.1-1.9h1.2l-1.8,3v1.9h-1.1v-1.9L56.1,24.2z"/>
	<path class="st1" d="M25.1,14.5c0,5.6-4.5,10.1-10,10.1c-5.5,0-10-4.5-10-10.1c0,0,0,0,0,0c0-5.6,4.5-10.1,10-10.1
		C20.6,4.4,25.1,8.9,25.1,14.5C25.1,14.5,25.1,14.5,25.1,14.5z"/>
	<path d="M23.3,6.3c2.2,2.2,3.3,5,3.3,8.2c0,3.2-1.1,5.9-3.3,8.1c-2.3,2.3-5,3.4-8.2,3.4c-3.1,0-5.8-1.1-8.1-3.4
		c-2.3-2.3-3.4-5-3.4-8.1c0-3.2,1.1-5.9,3.4-8.2c2.2-2.2,4.9-3.3,8.1-3.3C18.3,2.9,21,4,23.3,6.3z M8.5,7.8
		c-1.9,1.9-2.8,4.1-2.8,6.7c0,2.6,0.9,4.8,2.8,6.6c1.9,1.9,4.1,2.8,6.6,2.8s4.8-0.9,6.7-2.8c1.8-1.8,2.7-4,2.7-6.6
		c0-2.6-0.9-4.9-2.7-6.7C20,5.9,17.7,5,15.1,5S10.3,5.9,8.5,7.8z M13.5,13.3c-0.3-0.6-0.7-0.9-1.3-0.9c-1,0-1.5,0.7-1.5,2.1
		c0,1.4,0.5,2.1,1.5,2.1c0.7,0,1.1-0.3,1.4-1l1.4,0.8c-0.7,1.2-1.7,1.8-3,1.8c-1,0-1.9-0.3-2.5-1c-0.6-0.6-0.9-1.5-0.9-2.6
		c0-1.1,0.3-2,1-2.6c0.6-0.6,1.4-1,2.4-1c1.4,0,2.4,0.6,3,1.7L13.5,13.3z M20.1,13.3c-0.3-0.6-0.7-0.9-1.3-0.9c-1,0-1.6,0.7-1.6,2.1
		c0,1.4,0.5,2.1,1.6,2.1c0.7,0,1.1-0.3,1.4-1l1.4,0.8c-0.7,1.2-1.7,1.8-3,1.8c-1,0-1.9-0.3-2.5-1c-0.6-0.6-0.9-1.5-0.9-2.6
		c0-1.1,0.3-2,0.9-2.6c0.6-0.6,1.4-1,2.4-1c1.4,0,2.4,0.6,3,1.7L20.1,13.3z"/>
	<path class="st1" d="M63.8,11.2c0,4.4-3.5,7.9-7.9,7.9c-4.4,0-7.9-3.5-7.9-7.9c0-4.4,3.5-7.9,7.9-7.9C60.3,3.3,63.8,6.9,63.8,11.2z
		"/>
	<path d="M58.2,8.9c0-0.3-0.2-0.6-0.5-0.6h-3.5c-0.3,0-0.5,0.2-0.5,0.6v3.5h1v4.1h2.6v-4.1h1V8.9z"/>
	<path d="M57.1,6.7c0,0.7-0.5,1.2-1.2,1.2c-0.7,0-1.2-0.5-1.2-1.2c0-0.7,0.5-1.2,1.2-1.2C56.6,5.5,57.1,6.1,57.1,6.7z"/>
	<path class="st2" d="M55.9,2.5c-2.4,0-4.4,0.8-6,2.5c-1.7,1.7-2.5,3.7-2.5,6.1c0,2.3,0.8,4.3,2.5,6c1.7,1.7,3.7,2.5,6,2.5
		c2.3,0,4.4-0.8,6.1-2.5c1.6-1.6,2.4-3.6,2.4-6c0-2.4-0.8-4.4-2.5-6.1C60.3,3.3,58.3,2.5,55.9,2.5z M55.9,4c1.9,0,3.6,0.7,4.9,2.1
		c1.4,1.4,2,3,2,5c0,2-0.7,3.6-2,4.9c-1.4,1.4-3.1,2.1-5,2.1S52.4,17.4,51,16c-1.4-1.4-2.1-3-2.1-4.9c0-1.9,0.7-3.6,2.1-5
		C52.4,4.7,54,4,55.9,4z"/>
</g>
</svg>
