<?xml version="1.0" encoding="utf-8"?>
<!-- Generator: Adobe Illustrator 23.0.1, SVG Export Plug-In . SVG Version: 6.00 Build 0)  -->
<svg version="1.1" id="Layer_1" xmlns="http://www.w3.org/2000/svg" xmlns:xlink="http://www.w3.org/1999/xlink" x="0px" y="0px"
	 viewBox="0 0 88 31" style="enable-background:new 0 0 88 31;" xml:space="preserve">
<style type="text/css">
	.st0{fill:#AAB2AB;}
	.st1{fill:#FFFFFF;}
</style>
<title>Creative Commons “Attribution-Share Alike” license icon</title>
<path class="st0" d="M2.5,0.4l83.1,0.1c1.2,0,2.2-0.2,2.2,2.3l-0.1,27.6H0.4V2.7C0.4,1.5,0.5,0.4,2.5,0.4z"/>
<path class="st1" d="M25.3,14.4c0,5.6-4.5,10.1-10,10.1c-5.5,0-10-4.5-10-10.1v0c0-5.6,4.5-10.1,10-10.1
	C20.8,4.4,25.3,8.9,25.3,14.4C25.3,14.4,25.3,14.4,25.3,14.4z M46.5,3.3c4.3,0,7.9,3.5,7.9,7.9s-3.5,7.9-7.9,7.9
	c-4.3,0-7.9-3.5-7.9-7.9C38.6,6.9,42.1,3.3,46.5,3.3z M75.1,11.1c0,4.3-3.5,7.8-7.8,7.8c-4.3,0-7.8-3.5-7.8-7.8v0
	c0-4.3,3.5-7.8,7.8-7.8S75.1,6.7,75.1,11.1C75.1,11,75.1,11.1,75.1,11.1z"/>
<path d="M23.4,6.3c2.2,2.2,3.3,5,3.3,8.2s-1.1,5.9-3.3,8.1c-2.3,2.3-5,3.4-8.2,3.4c-3.1,0-5.8-1.1-8.1-3.4c-2.3-2.3-3.4-5-3.4-8.1
	S5,8.6,7.2,6.3c2.2-2.2,4.9-3.3,8.1-3.3C18.5,2.9,21.2,4,23.4,6.3z M8.7,7.8c-1.9,1.9-2.8,4.1-2.8,6.7c0,2.6,0.9,4.8,2.8,6.6
	s4.1,2.8,6.6,2.8s4.8-0.9,6.7-2.8c1.8-1.8,2.7-4,2.7-6.6c0-2.6-0.9-4.9-2.7-6.7S17.9,5,15.3,5S10.5,5.9,8.7,7.8z M13.7,13.3
	c-0.3-0.6-0.7-0.9-1.3-0.9c-1,0-1.5,0.7-1.5,2.1c0,1.4,0.5,2.1,1.5,2.1c0.7,0,1.1-0.3,1.4-1l1.4,0.8c-0.7,1.2-1.7,1.8-3,1.8
	c-1,0-1.9-0.3-2.5-1c-0.6-0.6-0.9-1.5-0.9-2.6c0-1.1,0.3-2,1-2.6s1.4-1,2.4-1c1.4,0,2.4,0.6,3,1.7C15.2,12.5,13.7,13.3,13.7,13.3z
	 M20.3,13.3c-0.3-0.6-0.7-0.9-1.3-0.9c-1,0-1.5,0.7-1.5,2.1c0,1.4,0.5,2.1,1.5,2.1c0.7,0,1.1-0.3,1.4-1l1.4,0.8
	c-0.7,1.2-1.7,1.8-3,1.8c-1,0-1.9-0.3-2.5-1c-0.6-0.6-0.9-1.5-0.9-2.6c0-1.1,0.3-2,0.9-2.6c0.6-0.6,1.4-1,2.4-1c1.4,0,2.4,0.6,3,1.7
	C21.8,12.5,20.3,13.3,20.3,13.3z M86.4,0H1.6C0.7,0,0,0.7,0,1.7v29C0,30.8,0.2,31,0.4,31h87.3c0.2,0,0.4-0.2,0.4-0.4v-29
	C88,0.7,87.3,0,86.4,0z M1.6,0.7h84.7c0.5,0,0.9,0.4,0.9,0.9v20.1H26.7c-2.2,4-6.5,6.8-11.4,6.8c-4.9,0-9.2-2.7-11.4-6.8H0.7V1.7
	C0.7,1.2,1.1,0.7,1.6,0.7z M67.3,2.5c-2.4,0-4.3,0.8-6,2.5c-1.7,1.7-2.5,3.7-2.5,6.1s0.8,4.4,2.5,6c1.7,1.7,3.7,2.5,6,2.5
	c2.3,0,4.4-0.8,6.1-2.5c1.6-1.6,2.4-3.6,2.4-6S75,6.6,73.3,5C71.7,3.3,69.7,2.5,67.3,2.5z M67.3,4c1.9,0,3.6,0.7,4.9,2.1
	c1.4,1.4,2,3,2,5c0,2-0.7,3.6-2,4.9c-1.4,1.4-3.1,2.1-5,2.1c-1.9,0-3.5-0.7-4.9-2.1c-1.4-1.4-2.1-3-2.1-4.9s0.7-3.6,2.1-5
	C63.7,4.7,65.4,4,67.3,4z M63.5,9.8c0.3-2.2,1.8-3.3,3.7-3.3c2.7,0,4.4,2,4.4,4.6c0,2.6-1.8,4.6-4.4,4.6c-1.8,0-3.5-1.1-3.8-3.3h2.1
	c0.1,1.2,0.8,1.6,1.9,1.6c1.2,0,2-1.1,2-2.9c0-1.8-0.7-2.8-2-2.8c-0.9,0-1.7,0.3-1.9,1.5l0.6,0l-1.7,1.7l-1.7-1.7L63.5,9.8L63.5,9.8
	z M48.7,8.9c0-0.3-0.2-0.6-0.5-0.6h-3.5c-0.3,0-0.5,0.2-0.5,0.6v3.5h1v4.1h2.6v-4.1h1C48.7,12.4,48.7,8.9,48.7,8.9z M46.5,5.5
	c0.7,0,1.2,0.5,1.2,1.2s-0.5,1.2-1.2,1.2c-0.7,0-1.2-0.5-1.2-1.2S45.8,5.5,46.5,5.5z M46.4,2.5c-2.4,0-4.3,0.8-6,2.5
	c-1.7,1.7-2.5,3.7-2.5,6.1s0.8,4.4,2.5,6c1.7,1.7,3.7,2.5,6,2.5c2.3,0,4.4-0.8,6.1-2.5c1.6-1.6,2.4-3.6,2.4-6S54.1,6.6,52.5,5
	C50.8,3.3,48.8,2.5,46.4,2.5z M46.5,4c1.9,0,3.6,0.7,4.9,2.1c1.4,1.4,2,3,2,5c0,2-0.7,3.6-2,4.9c-1.4,1.4-3.1,2.1-5,2.1
	c-1.9,0-3.5-0.7-4.9-2.1c-1.4-1.4-2.1-3-2.1-4.9c0-1.9,0.7-3.6,2.1-5C42.9,4.7,44.5,4,46.5,4z"/>
<path class="st1" d="M69.3,24.2l1.8,4.9H70L69.6,28h-1.8l-0.4,1.1h-1.1l1.8-4.9C68.2,24.2,69.3,24.2,69.3,24.2z M69.3,27.2l-0.6-1.8
	h0l-0.6,1.8H69.3z M63.3,27.8c0.1,0.1,0.1,0.2,0.2,0.3c0.1,0.1,0.2,0.1,0.3,0.2c0.1,0,0.3,0.1,0.4,0.1c0.1,0,0.2,0,0.3,0
	s0.2,0,0.3-0.1c0.1,0,0.2-0.1,0.2-0.2c0.1-0.1,0.1-0.2,0.1-0.3c0-0.1,0-0.2-0.1-0.3c-0.1-0.1-0.2-0.1-0.3-0.2
	c-0.1-0.1-0.3-0.1-0.5-0.1c-0.2,0-0.3-0.1-0.5-0.1c-0.2,0-0.4-0.1-0.5-0.2c-0.2-0.1-0.3-0.2-0.5-0.3c-0.1-0.1-0.2-0.2-0.3-0.4
	c-0.1-0.2-0.1-0.3-0.1-0.6c0-0.3,0.1-0.5,0.2-0.7c0.1-0.2,0.2-0.3,0.4-0.5c0.2-0.1,0.4-0.2,0.6-0.3c0.2-0.1,0.4-0.1,0.7-0.1
	c0.3,0,0.5,0,0.7,0.1c0.2,0.1,0.4,0.1,0.6,0.3c0.2,0.1,0.3,0.3,0.4,0.5c0.1,0.2,0.2,0.4,0.2,0.7h-1c0-0.1,0-0.3-0.1-0.4
	c-0.1-0.1-0.1-0.2-0.2-0.2s-0.2-0.1-0.3-0.1c-0.1,0-0.2,0-0.4,0c-0.1,0-0.2,0-0.3,0c-0.1,0-0.2,0.1-0.2,0.1c-0.1,0-0.1,0.1-0.2,0.2
	s-0.1,0.2-0.1,0.3c0,0.1,0,0.2,0.1,0.2c0,0.1,0.1,0.1,0.2,0.2s0.3,0.1,0.4,0.2c0.2,0,0.4,0.1,0.7,0.2c0.1,0,0.2,0.1,0.4,0.1
	c0.2,0,0.3,0.1,0.5,0.2c0.2,0.1,0.3,0.2,0.4,0.4c0.1,0.2,0.2,0.4,0.2,0.7c0,0.2,0,0.4-0.1,0.6c-0.1,0.2-0.2,0.4-0.4,0.5
	c-0.2,0.1-0.4,0.2-0.6,0.3c-0.3,0.1-0.5,0.1-0.9,0.1c-0.3,0-0.5,0-0.8-0.1c-0.3-0.1-0.5-0.2-0.7-0.3c-0.2-0.1-0.3-0.3-0.5-0.5
	c-0.1-0.2-0.2-0.5-0.2-0.8h1C63.2,27.6,63.2,27.7,63.3,27.8z M46,24.2h1.2l1.1,1.9l1.1-1.9h1.2l-1.8,3v1.9h-1.1v-1.9
	C47.8,27.2,46,24.2,46,24.2z M44,24.2c0.2,0,0.4,0,0.6,0.1s0.4,0.1,0.5,0.2c0.1,0.1,0.2,0.2,0.3,0.4c0.1,0.2,0.1,0.3,0.1,0.6
	c0,0.2-0.1,0.5-0.2,0.6c-0.1,0.2-0.3,0.3-0.5,0.4c0.3,0.1,0.5,0.2,0.7,0.5c0.1,0.2,0.2,0.5,0.2,0.8c0,0.2,0,0.5-0.1,0.6
	c-0.1,0.2-0.2,0.3-0.4,0.4c-0.2,0.1-0.3,0.2-0.6,0.3c-0.2,0.1-0.4,0.1-0.6,0.1h-2.4v-4.9L44,24.2L44,24.2z M43.9,26.1
	c0.2,0,0.3,0,0.5-0.1c0.1-0.1,0.2-0.2,0.2-0.4c0-0.1,0-0.2-0.1-0.3s-0.1-0.1-0.2-0.2S44.1,25,44.1,25s-0.2,0-0.3,0h-1v1.1L43.9,26.1
	L43.9,26.1z M43.9,28.2c0.1,0,0.2,0,0.3,0c0.1,0,0.2-0.1,0.3-0.1c0.1,0,0.1-0.1,0.2-0.2s0.1-0.2,0.1-0.3c0-0.3-0.1-0.4-0.2-0.5
	c-0.1-0.1-0.3-0.2-0.6-0.2h-1.2v1.3L43.9,28.2L43.9,28.2z"/>
</svg>
