<svg id="Layer_1" data-name="Layer 1" xmlns="http://www.w3.org/2000/svg" viewBox="0 0 720 746"><defs><style>.cls-1{fill:#fff;}.cls-2{fill:#3f51b5;}</style></defs><circle class="cls-1" cx="360" cy="373" r="328.5"/><path class="cls-2" d="M547,152.67H240.4a7,7,0,0,0-7,7V466.27a7,7,0,0,0,7,7H547a7,7,0,0,0,7-7V159.64A7,7,0,0,0,547,152.67Zm-7,306.63H247.37V166.61H540.06Z"/><path class="cls-2" d="M324,362.81a7,7,0,0,0-7,7v96.49a7,7,0,1,0,13.93,0V369.78A7,7,0,0,0,324,362.81Z"/><path class="cls-2" d="M463.4,362.81a7,7,0,0,0-7,7v96.49a7,7,0,1,0,13.93,0V369.78A7,7,0,0,0,463.4,362.81Z"/><path class="cls-2" d="M399.65,295.36a7,7,0,0,0-9.59-2.28l-90.6,55.75a7,7,0,1,0,7.31,11.87L397.37,305A7,7,0,0,0,399.65,295.36Z"/><path class="cls-2" d="M488,348.84l-90.6-55.76A7,7,0,0,0,390.06,305l90.6,55.75A7,7,0,1,0,488,348.84Z"/><path class="cls-2" d="M399.65,323.23a7,7,0,0,0-9.59-2.28l-90.6,55.75a7,7,0,0,0,3.67,12.91,6.86,6.86,0,0,0,3.64-1l90.6-55.75A7,7,0,0,0,399.65,323.23Z"/><path class="cls-2" d="M488,376.71,397.37,321a7,7,0,0,0-7.31,11.87l90.6,55.75A7,7,0,1,0,488,376.71Z"/><path class="cls-2" d="M303.12,347.8a7,7,0,0,0-7,7v27.87a7,7,0,0,0,13.94,0V354.77A7,7,0,0,0,303.12,347.8Z"/><path class="cls-2" d="M484.31,347.8a7,7,0,0,0-7,7v27.87a7,7,0,0,0,13.94,0V354.77A7,7,0,0,0,484.31,347.8Z"/><path class="cls-2" d="M407.65,410.52H379.78a7,7,0,0,0-7,7v48.78a7,7,0,0,0,7,7h27.87a7,7,0,0,0,7-7V417.49A7,7,0,0,0,407.65,410.52Zm-7,48.78H386.75V424.46h13.93Z"/><path class="cls-2" d="M453,243.26a3.49,3.49,0,0,1,0-7,7,7,0,1,0,0-13.94,17.42,17.42,0,0,0,0,34.84,7,7,0,1,0,0-13.93Z"/><path class="cls-2" d="M498.25,201.44a27.92,27.92,0,0,0-27.88,27.88,7,7,0,0,0,13.94,0,13.94,13.94,0,1,1,13.94,13.94,7,7,0,1,0,0,13.93,27.88,27.88,0,0,0,0-55.75Z"/><path class="cls-2" d="M498.25,243.26H453a7,7,0,1,0,0,13.93h45.3a7,7,0,1,0,0-13.93Z"/><path class="cls-2" d="M477.34,222.35H453a7,7,0,1,0,0,13.94h24.39a7,7,0,1,0,0-13.94Z"/><path class="cls-2" d="M310.1,208.41A20.91,20.91,0,1,0,331,229.32,20.93,20.93,0,0,0,310.1,208.41Zm0,27.88a7,7,0,1,1,7-7A7,7,0,0,1,310.1,236.29Z"/><path class="cls-2" d="M310.1,180.54a7,7,0,0,0-7,7v7a7,7,0,1,0,13.94,0v-7A7,7,0,0,0,310.1,180.54Z"/><path class="cls-2" d="M310.1,257.19a7,7,0,0,0-7,7v7a7,7,0,1,0,13.94,0v-7A7,7,0,0,0,310.1,257.19Z"/><path class="cls-2" d="M290.39,199.75l-4.93-4.93a7,7,0,1,0-9.85,9.86l4.92,4.92a7,7,0,1,0,9.86-9.85Z"/><path class="cls-2" d="M344.59,254,339.66,249a7,7,0,1,0-9.85,9.85l4.93,4.93a7,7,0,0,0,9.85-9.86Z"/><path class="cls-2" d="M275.24,222.35h-7a7,7,0,0,0,0,13.94h7a7,7,0,0,0,0-13.94Z"/><path class="cls-2" d="M351.9,222.35h-7a7,7,0,0,0,0,13.94h7a7,7,0,1,0,0-13.94Z"/><path class="cls-2" d="M290.38,249a7,7,0,0,0-9.85,0L275.6,254a7,7,0,0,0,9.85,9.85l4.93-4.92A7,7,0,0,0,290.38,249Z"/><path class="cls-2" d="M344.58,194.83a7,7,0,0,0-9.86,0l-4.92,4.93a7,7,0,0,0,9.85,9.85l4.93-4.93A7,7,0,0,0,344.58,194.83Z"/><path class="cls-2" d="M240.4,459.3a7,7,0,0,0-7,7V536a7,7,0,0,0,13.94,0V466.27A7,7,0,0,0,240.4,459.3Z"/><path class="cls-2" d="M547,459.3a7,7,0,0,0-7,7V536A7,7,0,1,0,554,536V466.27A7,7,0,0,0,547,459.3Z"/><path class="cls-2" d="M547,529H240.4a7,7,0,0,0,0,13.94H547A7,7,0,1,0,547,529Z"/><path class="cls-2" d="M491.28,556.87a7,7,0,0,0-7,7v20.91H191.62V222.36h20.9a7,7,0,0,0,0-13.94H184.65a7,7,0,0,0-7,7V591.71a7,7,0,0,0,7,7H491.28a7,7,0,0,0,7-7V563.83A7,7,0,0,0,491.28,556.87Z"/><path class="cls-2" d="M519.16,529a7,7,0,0,0-7,7v20.91H219.49V194.48h20.9a7,7,0,1,0,0-13.94H212.52a7,7,0,0,0-7,7V563.83a7,7,0,0,0,7,7H519.16a7,7,0,0,0,7-7V536A7,7,0,0,0,519.16,529Z"/><path class="cls-2" d="M456.44,494.14H331a7,7,0,0,0,0,13.94H456.44a7,7,0,0,0,0-13.94Z"/></svg>