<svg id="Layer_1" data-name="Layer 1" xmlns="http://www.w3.org/2000/svg" viewBox="0 0 720 746"><defs><style>.cls-1{fill:#fff;}.cls-2{fill:#3f51b5;}</style></defs><circle class="cls-1" cx="360" cy="373" r="328.5"/><path class="cls-2" d="M371.27,316.76a5.51,5.51,0,0,0,5.5,5.5H519.86a5.5,5.5,0,0,0,5.5-5.5V227.62a5.5,5.5,0,0,0-5.5-5.5H376.77a5.5,5.5,0,0,0-5.5,5.5Zm11-83.64H514.36v78.13H382.27Z"/><path class="cls-2" d="M486.51,246.6a5.49,5.49,0,0,0-7.77,0l-39.51,39.51-22.5-22.5a5.5,5.5,0,0,0-7.78,0l-17,17a5.5,5.5,0,0,0,7.78,7.78l13.12-13.12,22.5,22.5a5.5,5.5,0,0,0,7.78,0l39.51-39.5,14.29,14.29a5.5,5.5,0,0,0,7.77-7.78Z"/><path class="cls-2" d="M452.75,413.21a54.45,54.45,0,1,0,54.45,54.45A54.52,54.52,0,0,0,452.75,413.21Zm43.09,49H455l-28.84-28.84a43.39,43.39,0,0,1,69.65,28.84Zm-86.53,5.5a43.19,43.19,0,0,1,9.1-26.56L446.32,469l-14.43,36.75A43.47,43.47,0,0,1,409.31,467.66Zm43.44,43.45a43.35,43.35,0,0,1-10.63-1.32l14.38-36.63h39.34A43.5,43.5,0,0,1,452.75,511.11Z"/><path class="cls-2" d="M263,415.55h42.62a5.5,5.5,0,0,0,4.76-8.25l-39.56-68.53a5.5,5.5,0,0,0-9.53,0l-16.55,28.66-5.9-10.23a5.5,5.5,0,0,0-9.53,0l-28.92,50.11a5.5,5.5,0,0,0,4.76,8.25H263Zm3.05-63,30,52H236Zm-32,18.43,4.32,7.48L223.3,404.56h-8.64Z"/><path class="cls-2" d="M236.57,270.05H336.72a5.5,5.5,0,0,0,0-11H236.57a5.5,5.5,0,0,0,0,11Z"/><path class="cls-2" d="M196.51,270.05H219a5.5,5.5,0,1,0,0-11H196.51a5.5,5.5,0,0,0,0,11Z"/><path class="cls-2" d="M342.21,285.83a5.5,5.5,0,0,0-5.5-5.5H196.51a5.5,5.5,0,0,0,0,11H336.72A5.5,5.5,0,0,0,342.21,285.83Z"/><path class="cls-2" d="M406.82,359.65a5.5,5.5,0,0,0,0,11H507a5.5,5.5,0,1,0,0-11Z"/><path class="cls-2" d="M366.76,370.65h22.53a5.5,5.5,0,1,0,0-11H366.76a5.5,5.5,0,0,0,0,11Z"/><path class="cls-2" d="M366.76,391.93H507a5.5,5.5,0,1,0,0-11H366.76a5.5,5.5,0,0,0,0,11Z"/><path class="cls-2" d="M353,451.52H252.84a5.5,5.5,0,0,0,0,11H353a5.5,5.5,0,0,0,0-11Z"/><path class="cls-2" d="M212.78,451.52a5.5,5.5,0,1,0,0,11h22.54a5.5,5.5,0,0,0,0-11Z"/><path class="cls-2" d="M353,472.8H212.78a5.5,5.5,0,0,0,0,11H353a5.5,5.5,0,0,0,0-11Z"/><path class="cls-2" d="M549,150.76H231a5.5,5.5,0,0,0-3.89,1.61l-60,60a5.5,5.5,0,0,0-1.61,3.89V589.74a5.5,5.5,0,0,0,5.5,5.5H488.77a5.51,5.51,0,0,0,3.88-1.6l60.22-60a5.51,5.51,0,0,0,1.62-3.9V156.26A5.5,5.5,0,0,0,549,150.76ZM225.52,169.54v41.22H184.29Zm-49,52.22H231a5.5,5.5,0,0,0,5.5-5.5v-54.5h307V524.24H489a5.5,5.5,0,0,0-5.5,5.5v54.5h-307ZM535.68,535.24l-41.2,41v-41Z"/><path class="cls-2" d="M338,559.66H296a5.5,5.5,0,0,0,0,11h42a5.5,5.5,0,0,0,0-11Z"/><path class="cls-2" d="M424,559.66H382a5.5,5.5,0,0,0,0,11h42a5.5,5.5,0,0,0,0-11Z"/><path class="cls-2" d="M352.73,551.82a5.5,5.5,0,0,0-5.5,5.5V570a5.5,5.5,0,0,0,11,0V557.32A5.5,5.5,0,0,0,352.73,551.82Z"/><path class="cls-2" d="M367.27,551.82a5.5,5.5,0,0,0-5.5,5.5V570a5.5,5.5,0,0,0,11,0V557.32A5.51,5.51,0,0,0,367.27,551.82Z"/><path class="cls-2" d="M296,189.34h42a5.5,5.5,0,0,0,0-11H296a5.5,5.5,0,0,0,0,11Z"/><path class="cls-2" d="M382,189.34h42a5.5,5.5,0,0,0,0-11H382a5.5,5.5,0,0,0,0,11Z"/><path class="cls-2" d="M352.73,194.18a5.5,5.5,0,0,0,5.5-5.5V176a5.5,5.5,0,0,0-11,0v12.67A5.51,5.51,0,0,0,352.73,194.18Z"/><path class="cls-2" d="M367.27,194.18a5.51,5.51,0,0,0,5.5-5.5V176a5.5,5.5,0,0,0-11,0v12.67A5.5,5.5,0,0,0,367.27,194.18Z"/></svg>