<svg id="Layer_1" data-name="Layer 1" xmlns="http://www.w3.org/2000/svg" viewBox="0 0 720 746"><defs><style>.cls-1{fill:#fff;}.cls-2{fill:#3f51b5;}</style></defs><circle class="cls-1" cx="360" cy="373" r="328.5"/><path class="cls-2" d="M542.43,292.55H450.55V228.73a34.46,34.46,0,0,0-34.42-34.41H177.57a34.46,34.46,0,0,0-34.42,34.41V346c0,3.51,2.84-7,6.35-7s6.36-1.15,6.36-4.66V228.73A21.74,21.74,0,0,1,177.57,207H416.13a21.74,21.74,0,0,1,21.71,21.71v168.4a21.74,21.74,0,0,1-21.71,21.72H278.71a13.31,13.31,0,0,0-9.46,3.91l-42.1,42.1a.66.66,0,0,1-1.13-.47V432.22a13.38,13.38,0,0,0-13.37-13.37H177.57a21.74,21.74,0,0,1-21.71-21.72V313.75a6.36,6.36,0,0,0-12.71,0v83.38a34.46,34.46,0,0,0,34.42,34.42h35.08a.67.67,0,0,1,.67.67v32.17a13.36,13.36,0,0,0,22.82,9.45l33.31-33.31v54.83a34.46,34.46,0,0,0,34.42,34.42H422.81a6.35,6.35,0,1,0,0-12.7H303.87a21.74,21.74,0,0,1-21.72-21.72V431.55h134a34.46,34.46,0,0,0,34.42-34.42V305.25h91.88A21.74,21.74,0,0,1,564.14,327v168.4a21.74,21.74,0,0,1-21.71,21.71H507.35A13.38,13.38,0,0,0,494,530.45v32.17a.58.58,0,0,1-.41.62.56.56,0,0,1-.72-.15L450.75,521a13.31,13.31,0,0,0-9.46-3.91H406.22a6.35,6.35,0,0,0,0,12.7h35.07a.63.63,0,0,1,.47.2l42.1,42.1A13.34,13.34,0,0,0,493.3,576a13.53,13.53,0,0,0,5.13-1,13.33,13.33,0,0,0,8.25-12.36V530.45a.67.67,0,0,1,.67-.67h35.08a34.46,34.46,0,0,0,34.42-34.41V327a34.46,34.46,0,0,0-34.42-34.42Z"/><path class="cls-2" d="M339.61,467.3A20.39,20.39,0,1,0,360,446.91,20.41,20.41,0,0,0,339.61,467.3Zm28.07,0a7.68,7.68,0,1,1-7.68-7.68A7.69,7.69,0,0,1,367.68,467.3Z"/><path class="cls-2" d="M276.46,383.1a20.39,20.39,0,1,0,20.39-20.39,20.41,20.41,0,0,0-20.39,20.39Zm28.07,0a7.68,7.68,0,1,1-7.68-7.68,7.69,7.69,0,0,1,7.68,7.68Z"/><path class="cls-2" d="M317.24,314.8a48.46,48.46,0,1,0-68.84-44,20.39,20.39,0,1,0,40.77,0,7.49,7.49,0,0,1,2.44-5.61,7.72,7.72,0,0,1,5.83-2.05,7.85,7.85,0,0,1,7.07,7.08,7.73,7.73,0,0,1-4.75,7.7,37.61,37.61,0,0,0-23.3,35v14a20.39,20.39,0,0,0,40.77,0V314.8Zm-6.81-10.89a9.63,9.63,0,0,0-5.9,9v14a7.68,7.68,0,1,1-15.36,0v-14a25,25,0,0,1,15.42-23.23,20.42,20.42,0,0,0,12.6-20.33,20.67,20.67,0,0,0-18.88-18.87c-.49,0-1-.05-1.45-.05a20.4,20.4,0,0,0-20.4,20.38,7.68,7.68,0,1,1-15.36,0,35.75,35.75,0,1,1,49.33,33.08Z"/><path class="cls-2" d="M506.68,467.3a20.39,20.39,0,1,0-20.38,20.38A20.41,20.41,0,0,0,506.68,467.3Zm-28.06,0A7.68,7.68,0,1,1,486.3,475,7.68,7.68,0,0,1,478.62,467.3Z"/><path class="cls-2" d="M423.15,487.68a20.39,20.39,0,1,0-20.39-20.38A20.4,20.4,0,0,0,423.15,487.68Zm0-28.06a7.68,7.68,0,1,1-7.68,7.68A7.69,7.69,0,0,1,423.15,459.62Z"/></svg>