<svg id="Layer_1" data-name="Layer 1" xmlns="http://www.w3.org/2000/svg" viewBox="0 0 720 746"><defs><style>.cls-1{fill:#fff;}.cls-2{fill:#3f51b5;}</style></defs><circle class="cls-1" cx="360" cy="373" r="328.5"/><path class="cls-2" d="M224.67,220.3h82.76a5.87,5.87,0,0,0,0-11.73H224.67A12.65,12.65,0,0,0,212,221.21v21.35a12.65,12.65,0,0,0,12.64,12.64h189a12.65,12.65,0,0,0,12.64-12.64V221.21a12.65,12.65,0,0,0-12.64-12.64H330.87a5.87,5.87,0,0,0,0,11.73h82.76a.91.91,0,0,1,.91.91v21.35a.92.92,0,0,1-.91.92h-189a.91.91,0,0,1-.91-.92V221.21a.91.91,0,0,1,.91-.91Z"/><path class="cls-2" d="M407.78,274.75H230.52a5.87,5.87,0,0,0,0,11.73H407.78a5.87,5.87,0,0,0,0-11.73Z"/><path class="cls-2" d="M407.78,508.42a5.87,5.87,0,0,0,0-11.73H230.52a5.87,5.87,0,0,0,0,11.73Z"/><path class="cls-2" d="M422.58,353.35a61.33,61.33,0,1,0,0,86.74A61.41,61.41,0,0,0,422.58,353.35Zm-8.29,78.44A49.63,49.63,0,0,1,334,417h73.83a5.86,5.86,0,1,0,0-11.72H330.36a49.8,49.8,0,0,1,2.94-27.44h74.48a5.87,5.87,0,0,0,0-11.73H340.16a51,51,0,0,1,4-4.5,49.66,49.66,0,0,1,70.15,0h0a49.58,49.58,0,0,1,0,70.15Z"/><path class="cls-2" d="M513.7,522.91a5.86,5.86,0,0,0-8.29,8.29l8.38,8.39a5.86,5.86,0,1,0,8.29-8.29Z"/><path class="cls-2" d="M542.52,496.6l-2.19-2.19a5.87,5.87,0,1,0-8.29,8.3l2.18,2.19a33.11,33.11,0,1,1-46.83,46.83L448.86,513.2a9.77,9.77,0,0,1,0-13.81L477.29,471h0l4.58-4.58a9.77,9.77,0,0,1,13.81,0l19.54,19.54a5.86,5.86,0,0,0,8.29-8.29L504,458.08a21.52,21.52,0,0,0-30.4,0l-.44.44-18.73-18.73a2,2,0,0,1-.28-2.35,85.81,85.81,0,0,0,5.47-69.21V186.58a13.83,13.83,0,0,0-13.81-13.81H178.18a13.83,13.83,0,0,0-13.81,13.81V498.29a5.87,5.87,0,0,0,11.73,0V186.58a2.08,2.08,0,0,1,2.08-2.08H445.8a2.08,2.08,0,0,1,2.08,2.08V346.17a85.39,85.39,0,0,0-104.16-27H230.52a5.87,5.87,0,0,0,0,11.73h94.53a86,86,0,0,0-7,6.49,84.36,84.36,0,0,0-17.32,26.17H230.52a5.87,5.87,0,0,0,0,11.73h66.22a86.71,86.71,0,0,0-2,32.66H230.52a5.87,5.87,0,0,0,0,11.73h66.61a84.4,84.4,0,0,0,17.44,32.66h-84a5.86,5.86,0,0,0,0,11.72h96.4a85.62,85.62,0,0,0,93,7.6,2,2,0,0,1,2.33.29L441,490.66a21.66,21.66,0,0,0-6.73,15.64,21.35,21.35,0,0,0,6.29,15.2l7.31,7.31v30.61a2.08,2.08,0,0,1-2.08,2.08H178.18a2.08,2.08,0,0,1-2.08-2.08V521.74a5.87,5.87,0,1,0-11.73,0v37.68a13.83,13.83,0,0,0,13.81,13.81H445.8a13.83,13.83,0,0,0,13.81-13.81V540.54L479.1,560a44.84,44.84,0,0,0,63.42-63.42Zm-111.95-33a13.61,13.61,0,0,0-16.23-2.3,73.52,73.52,0,1,1,29.5-29.5,13.59,13.59,0,0,0,2.29,16.25l18.73,18.73-15.55,15.55Z"/></svg>