<svg id="Layer_1" data-name="Layer 1" xmlns="http://www.w3.org/2000/svg" viewBox="0 0 720 746"><defs><style>.cls-1{fill:#fff;}.cls-2{fill:#3f51b5;}</style></defs><circle class="cls-1" cx="360" cy="373" r="328.5"/><path class="cls-2" d="M449,544.9a4.76,4.76,0,0,0-.19.61,3.86,3.86,0,0,0-.17.58,6.19,6.19,0,0,0,0,2.5,4.11,4.11,0,0,0,.17.57,4.89,4.89,0,0,0,.19.62,6,6,0,0,0,.35.66c.08.14.14.3.23.44a6.91,6.91,0,0,0,.81,1L463,564.48a6.39,6.39,0,0,0,9.19-8.87l-.16-.16-1.72-1.72h14.34a6.39,6.39,0,1,0,0-12.78H470.31l1.72-1.73a6.39,6.39,0,0,0-9-9l-12.62,12.62a6.48,6.48,0,0,0-.81,1c-.09.14-.15.29-.23.43A5.32,5.32,0,0,0,449,544.9Z"/><path class="cls-2" d="M576.24,263.22V163.15a6.38,6.38,0,0,0-6.38-6.39H469.78a6.39,6.39,0,0,0-6.39,6.38h0v58.17H150.15a6.39,6.39,0,0,0-6.39,6.39V582.85a6.38,6.38,0,0,0,6.38,6.39H505.28a6.39,6.39,0,0,0,6.39-6.39V377.7L574.36,315a6.38,6.38,0,0,0,0-9h0L538,269.61h31.85a6.39,6.39,0,0,0,6.39-6.38ZM463.39,234.1v29.12a6.43,6.43,0,0,0,.57,2.59l-23.3,23.31v-55Zm8.81,129.3H440.66V331.86Zm-31.54,83.8h58.25v58.24H440.66Zm58.26-12.78H440.66V376.18H485l9.6,9.59a6.3,6.3,0,0,0,4.33,1.86Zm-71-64.63V505.44H227.56V305.12H424.64l-.84.84a6.39,6.39,0,0,0,0,9l4.09,4.09Zm-271.35,6.37h58.26v58.25H156.53Zm58.26-12.78H156.53V305.12h58.26Zm-58.26,83.81h58.26v58.25H156.53ZM427.88,292.34H369.62V234.1h58.26Zm-71,0H298.59V234.1h58.25Zm-71,0H227.56V234.1h58.25ZM156.53,234.1h58.26v58.24H156.53Zm0,284.11h58.26v58.26H156.53Zm71,0h58.25v58.26H227.56Zm71,0h58.25v58.26H298.59Zm71,0h58.26v58.26H369.62ZM498.9,576.47H440.66V518.21h58.25Zm2-206-.14.13-1.63,1.63-6.88-6.89-.13-.14L438.86,312l-.17-.16-1.35-1.35,7.22-7.2.06-.05,35.47-35.48h0l19-19,61.74,61.74Zm-3.14-141.66a4.63,4.63,0,0,1,3.28-1.35,4.58,4.58,0,0,1,3.27,7.77c-.11.11-.25.16-.37.26l-.28-.29a6.33,6.33,0,0,0-6.86-1.41,4.59,4.59,0,0,1,1-5Zm65.76,28H525.23l-12.29-12.3a2.66,2.66,0,0,0,.31-.26,17.35,17.35,0,1,0-26-1.76L476.17,253.6V169.53h87.3Z"/><path class="cls-2" d="M538.65,211.69a17.33,17.33,0,0,0,12.27-29.59h0a17.34,17.34,0,1,0-12.26,29.59Zm-3.22-20.56a4.56,4.56,0,1,1,0,6.46h0a4.54,4.54,0,0,1,0-6.43l0,0Z"/><path class="cls-2" d="M481.75,310.49a17.34,17.34,0,1,0,17.33-17.34A17.34,17.34,0,0,0,481.75,310.49Zm21.9,0a4.57,4.57,0,1,1-4.57-4.56A4.57,4.57,0,0,1,503.65,310.49Z"/><path class="cls-2" d="M395.13,331.93h-66a6.39,6.39,0,0,0-6.39,6.38v40a6.39,6.39,0,0,0,6.38,6.39h66a6.38,6.38,0,0,0,6.38-6.38h0v-40a6.38,6.38,0,0,0-6.36-6.4Zm-6.39,40H335.55V344.7h53.19Z"/><path class="cls-2" d="M326.27,425.85h-66a6.39,6.39,0,0,0-6.38,6.39v40a6.39,6.39,0,0,0,6.38,6.39h66a6.39,6.39,0,0,0,6.39-6.38h0v-40A6.39,6.39,0,0,0,326.27,425.85Zm-6.38,40h-53.2V438.62h53.2Z"/></svg>