<svg id="Layer_1" data-name="Layer 1" xmlns="http://www.w3.org/2000/svg" viewBox="0 0 720 746"><defs><style>.cls-1{fill:#fff;}.cls-2{fill:#3f51b5;}</style></defs><circle class="cls-1" cx="360" cy="373" r="328.5"/><path class="cls-2" d="M490.1,581.16H229.9a43.43,43.43,0,0,1-43.36-43.37V208.21a43.43,43.43,0,0,1,43.36-43.37H490.1a43.43,43.43,0,0,1,43.36,43.37V537.79A43.43,43.43,0,0,1,490.1,581.16Zm-260.2-399a26.05,26.05,0,0,0-26,26V537.79a26.05,26.05,0,0,0,26,26H490.1a26.05,26.05,0,0,0,26-26V208.21a26.05,26.05,0,0,0-26-26Z"/><path class="cls-2" d="M351.33,338.31a8.68,8.68,0,0,1-8.68-8.68V321H255.92v8.67a8.68,8.68,0,1,1-17.35,0V312.29a8.68,8.68,0,0,1,8.68-8.68H351.33a8.68,8.68,0,0,1,8.67,8.68v17.34A8.68,8.68,0,0,1,351.33,338.31Z"/><path class="cls-2" d="M299.29,425a8.68,8.68,0,0,1-8.68-8.67V312.29a8.68,8.68,0,1,1,17.35,0V416.37A8.67,8.67,0,0,1,299.29,425Z"/><path class="cls-2" d="M316.63,425H281.94a8.68,8.68,0,0,1,0-17.35h34.69a8.68,8.68,0,1,1,0,17.35Z"/><path class="cls-2" d="M472.75,321H403.37a8.68,8.68,0,1,1,0-17.35h69.38a8.68,8.68,0,1,1,0,17.35Z"/><path class="cls-2" d="M472.75,373H403.37a8.68,8.68,0,1,1,0-17.35h69.38a8.68,8.68,0,1,1,0,17.35Z"/><path class="cls-2" d="M472.75,425H403.37a8.68,8.68,0,1,1,0-17.35h69.38a8.68,8.68,0,1,1,0,17.35Z"/><path class="cls-2" d="M472.75,477.08H247.25a8.68,8.68,0,1,1,0-17.35h225.5a8.68,8.68,0,1,1,0,17.35Z"/><path class="cls-2" d="M472.75,529.12H247.25a8.68,8.68,0,1,1,0-17.35h225.5a8.68,8.68,0,1,1,0,17.35Z"/></svg>