<svg id="Layer_1" data-name="Layer 1" xmlns="http://www.w3.org/2000/svg" viewBox="0 0 720 746"><defs><style>.cls-1{fill:#fff;}.cls-2{fill:#3f51b5;}</style></defs><circle class="cls-1" cx="360" cy="373" r="328.5"/><path class="cls-2" d="M570.19,177.54H149.81a20.24,20.24,0,0,0-20.24,20.24V478a20.25,20.25,0,0,0,20.24,20.25H310.25v35.38h-19.1a17.42,17.42,0,1,0,0,34.84h137.7a17.42,17.42,0,0,0,0-34.84h-19.1V498.24H570.19A20.25,20.25,0,0,0,590.43,478V197.78A20.24,20.24,0,0,0,570.19,177.54ZM432.78,551a3.92,3.92,0,0,1-3.93,3.92H291.15a3.93,3.93,0,1,1,0-7.85h137.7A3.93,3.93,0,0,1,432.78,551Zm144.15-73a6.75,6.75,0,0,1-6.74,6.75H358.65a6.75,6.75,0,0,0,0,13.5h37.6v35.38h-72.5V498.24h3.41a6.75,6.75,0,1,0,0-13.5H149.81a6.75,6.75,0,0,1-6.74-6.75V197.78a6.74,6.74,0,0,1,6.74-6.74H570.19a6.74,6.74,0,0,1,6.74,6.74Z"/><path class="cls-2" d="M551.64,207.94H168.36a11.26,11.26,0,0,0-11.24,11.24V444.85a11.26,11.26,0,0,0,11.24,11.24H551.64a11.26,11.26,0,0,0,11.24-11.24V219.18A11.26,11.26,0,0,0,551.64,207.94ZM219.49,221.43v75.13H195.81a6.75,6.75,0,1,0,0,13.49h23.68v37.76a2.25,2.25,0,0,1-2.25,2.25H170.61V221.43ZM170.61,442.6v-79h46.63A15.77,15.77,0,0,0,233,347.81V221.43h316.4V349.69H499.15a2.25,2.25,0,0,1-2.25-2.25V245.77a6.75,6.75,0,1,0-13.49,0V347.44a15.76,15.76,0,0,0,15.74,15.74h50.24V442.6Z"/><path class="cls-2" d="M537.27,409.55H482.66a23.21,23.21,0,0,0-44.43,0H272a23.22,23.22,0,0,0-44.44,0H186a6.75,6.75,0,0,0,0,13.5h41.64a23.22,23.22,0,0,0,44.44,0h166.2a23.21,23.21,0,0,0,44.43,0h54.6a6.75,6.75,0,0,0,0-13.5ZM249.81,426a9.73,9.73,0,1,1,9.73-9.73A9.74,9.74,0,0,1,249.81,426Zm210.64,0a9.73,9.73,0,1,1,9.72-9.73A9.74,9.74,0,0,1,460.45,426Z"/><path class="cls-2" d="M537.27,376.49H340.48a23.22,23.22,0,0,0-44.44,0H186a6.75,6.75,0,0,0,0,13.5H296a23.22,23.22,0,0,0,44.44,0H537.26a6.75,6.75,0,0,0,0-13.5ZM318.25,393a9.74,9.74,0,0,1-9.72-9.72h0a9.73,9.73,0,1,1,9.72,9.74Z"/><path class="cls-2" d="M323,354.19a15.6,15.6,0,0,0,15.74,0l82.35-47.55a15.75,15.75,0,0,0,0-27.27l-82.35-47.54a15.75,15.75,0,0,0-23.62,13.63v95.09A15.6,15.6,0,0,0,323,354.19Zm5.62-108.73a2.19,2.19,0,0,1,1.12-1.94,2.24,2.24,0,0,1,1.14-.32,2.13,2.13,0,0,1,1.11.32l82.35,47.54a2.25,2.25,0,0,1,0,3.9L332,342.5a2.25,2.25,0,0,1-3.37-1.95Z"/></svg>