<svg id="Layer_1" data-name="Layer 1" xmlns="http://www.w3.org/2000/svg" viewBox="0 0 720 746"><defs><style>.cls-1{fill:#fff;}.cls-2{fill:#3f51b5;}.cls-3{fill:none;stroke:#3f51b5;stroke-linecap:round;stroke-linejoin:round;stroke-width:13px;}</style></defs><circle class="cls-1" cx="362" cy="373" r="328.5"/><path class="cls-2" d="M419.36,440.71a21.8,21.8,0,0,1-43.59,0v-10.9H332.19V406.64a43.58,43.58,0,0,0,0-84.4v-45H201.44a43.62,43.62,0,0,0-43.58,43.58V560.56a43.62,43.62,0,0,0,43.58,43.58H441.15a43.62,43.62,0,0,0,43.58-43.58V429.81H419.36ZM172.65,314.85a21.81,21.81,0,0,1,21.79-21.79h126v49.58h.89a21.8,21.8,0,0,1,0,43.59h-.89v43.58H287.22a43.58,43.58,0,0,0-84.4,0H172.65Zm21.79,274.5a21.81,21.81,0,0,1-21.79-21.79v-116h50.58V440.71a21.79,21.79,0,1,1,43.58,0V451.6H310.4v23.18a43.58,43.58,0,0,0,0,84.4v30.17ZM439.76,451.6h29.18v116a21.81,21.81,0,0,1-21.79,21.79h-115V538.77h-10.9a21.79,21.79,0,0,1,0-43.58h10.9V451.6h23.17a43.58,43.58,0,0,0,84.4,0Z"/><path class="cls-3" d="M452,124.73a108.9,108.9,0,0,0-43.58,208.72V387.7L463.35,342c55-5.72,97.65-52.6,97.65-108.27a109.08,109.08,0,0,0-109-109Z"/><path class="cls-2" d="M354,549.66h21.79v21.8H354Z"/><path class="cls-2" d="M397.56,549.66h21.8v21.8h-21.8Z"/><path class="cls-2" d="M245,320.85h21.79v21.79H245Z"/><path class="cls-2" d="M452,168.31A32.73,32.73,0,0,0,419.36,201v10.9h21.79V201a10.9,10.9,0,1,1,21.79,0v1.87a11,11,0,0,1-3.19,7.71l-9,9a32.47,32.47,0,0,0-9.57,23.11v12.77h21.79V242.71a10.89,10.89,0,0,1,3.19-7.7l9-9a32.42,32.42,0,0,0,9.58-23.11V201A32.73,32.73,0,0,0,452,168.31Z"/><path class="cls-2" d="M441.15,277.27h21.79v21.79H441.15Z"/></svg>