<svg id="Layer_1" data-name="Layer 1" xmlns="http://www.w3.org/2000/svg" viewBox="0 0 720 746"><defs><style>.cls-1{fill:#fff;}.cls-2{fill:#3f51b5;}</style></defs><circle class="cls-1" cx="360" cy="373" r="328.5"/><path class="cls-2" d="M578.48,273.71h0C523.62,153,381.33,99.69,260.67,154.55A240,240,0,0,0,120,373v75.15a55.6,55.6,0,0,0,16.41,39.59l32.33,32.35,4.4,12.11A90.8,90.8,0,0,0,259.76,591c1.68,0,3.38-.21,5.08-.29l.4,1.11a32.19,32.19,0,0,0,41.22,19.31h0l1.31-.47a32.15,32.15,0,0,0,19.34-41.16h0l-63.37-175.2A32.28,32.28,0,0,0,222.51,375l-1.29.47a32,32,0,0,0-21,34.34,95.69,95.69,0,0,0-31.39,39.12,8,8,0,0,1-.87-3.46V373c0-106,86-192,192-192s192,86,192,192v72.4a7.28,7.28,0,0,1-.34,1.67,95.93,95.93,0,0,0-30.61-37.35,32,32,0,0,0-20.94-34.32l-1.33-.48a32.25,32.25,0,0,0-41.18,19.31l-63.38,175.2a32.17,32.17,0,0,0,19.33,41.17l1.31.48a32.21,32.21,0,0,0,41.22-19.32l.4-1.1c1.69.08,3.4.28,5.08.28a90.81,90.81,0,0,0,86.62-58.74L553.31,518l30.28-30.28A55.61,55.61,0,0,0,600,448.17V373A238,238,0,0,0,578.48,273.71ZM217.5,398.8a16,16,0,0,1,9.16-8.34L228,390a16.2,16.2,0,0,1,20.75,9.71l63.36,175.2a16.14,16.14,0,0,1-9.69,20.66h0L301,596a16.22,16.22,0,0,1-20.73-9.72l-2.4-6.69-61-168.54A16,16,0,0,1,217.5,398.8ZM205.29,426v0L259.2,575a75.37,75.37,0,0,1-68.44-42H192a21,21,0,0,0,2.28-.23c.76-.07,1.31-.07,2-.18a25,25,0,0,0,3.09-.8c.58-.18,1.16-.29,1.72-.5a25.81,25.81,0,0,0,3.11-1.56c.47-.26,1-.45,1.42-.75a24.92,24.92,0,0,0,4.07-38.58L181,461.73A78.69,78.69,0,0,1,205.29,426ZM152,373v72.4a23.81,23.81,0,0,0,7,17l39.31,39.32a9,9,0,0,1-12.68,12.69l-37.94-38A39.69,39.69,0,0,1,136,448.17V373a222.07,222.07,0,0,1,18-88H171.5A208.67,208.67,0,0,0,152,373ZM360,165A208.12,208.12,0,0,0,179.85,269H161.6C219,159.45,354.42,117.18,464,174.61A224,224,0,0,1,558.4,269H540.15A208.1,208.1,0,0,0,360,165Zm92.14,390.62-8.68,24-2.4,6.7a16.21,16.21,0,0,1-20.75,9.72h0l-1.31-.48a16.16,16.16,0,0,1-9.73-20.67l63.38-175.2A16.17,16.17,0,0,1,493.35,390h0l1.33.48a16.13,16.13,0,0,1,9.72,20.64v0Zm10,19.33,35.35-97.75L516,426a78.94,78.94,0,0,1,24,34.72l-29.65,29.65a25,25,0,0,0,0,35.32,25.47,25.47,0,0,0,4.24,3.36c.5.32,1,.53,1.55.8a25.18,25.18,0,0,0,3.2,1.5c.62.23,1.25.38,1.89.56a25.92,25.92,0,0,0,3.14.71c.68.1,1.35.15,2,.19s1.09.16,1.6.16,1-.11,1.46-.14.8,0,1.16,0A75.37,75.37,0,0,1,462.16,575ZM584,448.17a39.71,39.71,0,0,1-11.72,28.28L540.75,508l-6.4,6.4a9,9,0,0,1-12.69-12.69L561,462.38a23.84,23.84,0,0,0,7-17V373a208.52,208.52,0,0,0-19.5-88H566a222.07,222.07,0,0,1,18,88v75.15Z"/></svg>