<svg id="Layer_1" data-name="Layer 1" xmlns="http://www.w3.org/2000/svg" viewBox="0 0 720 746"><defs><style>.cls-1{fill:#fff;}.cls-2{fill:#3f51b5;}</style></defs><circle class="cls-1" cx="360" cy="373" r="328.5"/><path class="cls-2" d="M547.65,205.46H172.35a20.13,20.13,0,0,0-20.1,20.1V453.42a20.12,20.12,0,0,0,20.1,20.1H310.9L301.34,507H272.88a6.7,6.7,0,0,0-6.7,6.7v13.41H212.56a6.7,6.7,0,0,0,0,13.4H507.44a6.7,6.7,0,0,0,0-13.4H453.82V513.73a6.7,6.7,0,0,0-6.7-6.7H418.66l-9.56-33.51H547.65a20.12,20.12,0,0,0,20.1-20.1V225.56A20.13,20.13,0,0,0,547.65,205.46Zm-107.23,315v6.7H279.58v-6.7ZM315.28,507l9.56-33.51h70.32L404.72,507Zm239.07-53.61a6.71,6.71,0,0,1-6.7,6.7H172.35a6.71,6.71,0,0,1-6.7-6.7V440h388.7Zm0-26.81H165.65v-201a6.73,6.73,0,0,1,6.7-6.7h375.3a6.73,6.73,0,0,1,6.7,6.7Z"/><path class="cls-2" d="M467.23,327.24V292.58a6.7,6.7,0,0,0-3.87-6.07L362.83,239.6a6.67,6.67,0,0,0-5.66,0L256.64,286.51a6.7,6.7,0,0,0,0,12.14l36.34,17V393.1a6.7,6.7,0,0,0,6.71,6.71H420.31A6.7,6.7,0,0,0,427,393.1V315.61l26.8-12.51v24.14a20.1,20.1,0,1,0,13.41,0ZM413.61,386.4H306.39V321.87l50.78,23.7a6.74,6.74,0,0,0,5.66,0l50.78-23.7ZM360,332.1l-84.67-39.52L360,253.07l84.67,39.51Zm100.52,20.8a6.71,6.71,0,1,1,6.71-6.71A6.71,6.71,0,0,1,460.52,352.9Z"/></svg>