<svg id="Layer_1" data-name="Layer 1" xmlns="http://www.w3.org/2000/svg" viewBox="0 0 720 746"><defs><style>.cls-1{fill:#fff;}.cls-2{fill:#3f51b5;}</style></defs><circle class="cls-1" cx="360" cy="373" r="328.5"/><path class="cls-2" d="M180.2,559H539.8a6.2,6.2,0,0,0,6.2-6.2V193.2a6.2,6.2,0,0,0-6.2-6.2H180.2a6.2,6.2,0,0,0-6.2,6.2V552.8A6.2,6.2,0,0,0,180.2,559Zm6.2-359.6H533.6V546.6H186.4Z"/><path class="cls-2" d="M211.2,342H353.8a6.21,6.21,0,0,0,5.78-4L403,226.44A6.2,6.2,0,0,0,397.2,218h-186a6.2,6.2,0,0,0-6.2,6.2V335.8A6.2,6.2,0,0,0,211.2,342Zm6.2-111.6H388.14l-38.58,99.2H217.4Z"/><path class="cls-2" d="M508.8,218H422a6.21,6.21,0,0,0-5.78,4l-43.4,111.6A6.2,6.2,0,0,0,378.6,342H508.8a6.2,6.2,0,0,0,6.2-6.2V224.2A6.2,6.2,0,0,0,508.8,218Zm-6.2,111.6H387.66l38.58-99.2H502.6Z"/><path class="cls-2" d="M211.2,453.6h99.2a6.2,6.2,0,0,0,6.2-6.2V360.6a6.2,6.2,0,0,0-6.2-6.2H211.2a6.2,6.2,0,0,0-6.2,6.2v86.8A6.2,6.2,0,0,0,211.2,453.6Zm6.2-86.8h86.8v74.4H217.4Z"/><path class="cls-2" d="M508.8,354.4H335.2a6.2,6.2,0,0,0-6.2,6.2v86.8a6.2,6.2,0,0,0,6.2,6.2H508.8a6.2,6.2,0,0,0,6.2-6.2V360.6A6.2,6.2,0,0,0,508.8,354.4Zm-6.2,86.8H341.4V366.8H502.6Z"/><path class="cls-2" d="M508.8,466H211.2a6.2,6.2,0,0,0-6.2,6.2v49.6a6.2,6.2,0,0,0,6.2,6.2H508.8a6.2,6.2,0,0,0,6.2-6.2V472.2A6.2,6.2,0,0,0,508.8,466Zm-6.2,49.6H217.4V478.4H502.6Z"/></svg>