<svg id="Layer_1" data-name="Layer 1" xmlns="http://www.w3.org/2000/svg" viewBox="0 0 720 746"><defs><style>.cls-1{fill:#fff;}.cls-2{fill:#3f51b5;}</style></defs><circle class="cls-1" cx="360" cy="373" r="328.5"/><g id="Outline"><path class="cls-2" d="M370.8,544.32a181.89,181.89,0,0,1,94.89-26.75H560a8,8,0,0,0,8-8v-106a8,8,0,1,0-16,0v98H465.69A197.79,197.79,0,0,0,368,527.26V309.57a8,8,0,1,0-16,0V527.26a197.68,197.68,0,0,0-97.69-25.69H168v-288H291.2A60.83,60.83,0,0,1,352,274.41a8,8,0,1,0,16,0,60.83,60.83,0,0,1,60.8-60.84H552v216c0,4.42,3.58,0,8,0a8,8,0,0,0,8-8v-216a8,8,0,0,0-8-8H428.8A76.9,76.9,0,0,0,360,240.22a76.9,76.9,0,0,0-68.8-42.65H160a8,8,0,0,0-8,8v304a8,8,0,0,0,8,8h94.31a181.77,181.77,0,0,1,94.91,26.75C345.53,549.8,374.47,549.81,370.8,544.32Z"/><path class="cls-2" d="M333.78,266.47a76.55,76.55,0,0,0-42.58-12.9H200a8,8,0,0,0,0,16h91.2a60.56,60.56,0,0,1,33.74,10.21,8,8,0,1,0,8.88-13.31Z"/><path class="cls-2" d="M520,253.57H428.8a76.67,76.67,0,0,0-42.62,12.9,8,8,0,1,0,8.88,13.31,60.64,60.64,0,0,1,33.74-10.21H520a8,8,0,0,0,0-16Z"/><path class="cls-2" d="M333.78,306.47a76.55,76.55,0,0,0-42.58-12.9H200a8,8,0,0,0,0,16h91.2a60.56,60.56,0,0,1,33.74,10.21,8,8,0,1,0,8.88-13.31Z"/><path class="cls-2" d="M520,293.57H428.8a76.67,76.67,0,0,0-42.62,12.9,8,8,0,1,0,8.88,13.31h0a60.64,60.64,0,0,1,33.74-10.21H520a8,8,0,0,0,0-16Z"/><path class="cls-2" d="M333.78,346.47a76.55,76.55,0,0,0-42.58-12.9H200a8,8,0,1,0,0,16h91.2a60.56,60.56,0,0,1,33.74,10.21,8,8,0,1,0,8.88-13.31h0Z"/><path class="cls-2" d="M520,333.57H428.8a76.67,76.67,0,0,0-42.62,12.9,8,8,0,1,0,8.88,13.31h0a60.64,60.64,0,0,1,33.74-10.21H520a8,8,0,0,0,0-16Z"/><path class="cls-2" d="M333.78,386.47a76.55,76.55,0,0,0-42.58-12.9H200a8,8,0,1,0,0,16h91.2a60.56,60.56,0,0,1,33.74,10.21,8,8,0,1,0,8.88-13.31Z"/><path class="cls-2" d="M520,373.57H428.8a76.67,76.67,0,0,0-42.62,12.9,8,8,0,1,0,8.88,13.31,60.64,60.64,0,0,1,33.74-10.21H520a8,8,0,0,0,0-16Z"/><path class="cls-2" d="M333.78,426.47a76.55,76.55,0,0,0-42.58-12.9H200a8,8,0,1,0,0,16h91.2a60.56,60.56,0,0,1,33.74,10.21,8,8,0,1,0,8.88-13.31h0Z"/><path class="cls-2" d="M520,413.57H428.8a76.67,76.67,0,0,0-42.62,12.9,8,8,0,1,0,8.88,13.31,60.64,60.64,0,0,1,33.74-10.21H520a8,8,0,0,0,0-16Z"/><path class="cls-2" d="M291.2,453.57H200a8,8,0,1,0,0,16h91.2a60.56,60.56,0,0,1,33.74,10.21,8,8,0,1,0,8.88-13.31h0A76.59,76.59,0,0,0,291.2,453.57Z"/><path class="cls-2" d="M520,453.57H428.8a76.67,76.67,0,0,0-42.62,12.9,8,8,0,1,0,8.88,13.31h0a60.64,60.64,0,0,1,33.74-10.21H520a8,8,0,0,0,0-16Z"/></g></svg>