<?xml version="1.0" encoding="utf-8"?>
<!-- Generator: Adobe Illustrator 22.0.1, SVG Export Plug-In . SVG Version: 6.00 Build 0)  -->
<svg version="1.1" xmlns="http://www.w3.org/2000/svg" xmlns:xlink="http://www.w3.org/1999/xlink" x="0px" y="0px"
	 viewBox="0 0 50 50" style="enable-background:new 0 0 50 50;" xml:space="preserve">
<style type="text/css">
	.st0{display:none;}
	.st1{display:inline;}
	.st2{fill:#2DC997;}
</style>
<g id="Layer_1" class="st0">
	<g class="st1">
		<rect x="23.7" y="27.9" class="st2" width="1.7" height="17.6"/>
	</g>
	<g class="st1">
		<path class="st2" d="M40.1,32h-13c-0.2,0-0.5-0.1-0.6-0.3l-2-2l-2,2c-0.2,0.2-0.4,0.3-0.6,0.3h-13c-0.5,0-0.9-0.4-0.9-0.9V7.1h1.7
			v23.2h11.8l0.9-0.9H11.5c-0.5,0-0.9-0.4-0.9-0.9V5.1c0-0.5,0.4-0.9,0.9-0.9h26c0.5,0,0.9,0.4,0.9,0.9v23.4c0,0.5-0.4,0.9-0.9,0.9
			H26.6l0.9,0.9h11.8V7.1H41v24.1C41,31.6,40.6,32,40.1,32z M12.4,27.7h24.3V6H12.4V27.7z M25.4,25.3h-1.7V8.4h1.7V25.3z M35.6,24.2
			h-9.1v-1.7h9.1V24.2z M22.6,24.2h-9.1v-1.7h9.1V24.2z M35.6,21.6h-9.1v-1.7h9.1V21.6z M22.6,21.6h-9.1v-1.7h9.1V21.6z M35.6,19
			h-9.1v-1.7h9.1V19z M22.6,19h-9.1v-1.7h9.1V19z M34.3,15.7H33V14h1.3V15.7z M31.7,15.7h-1.3V14h1.3V15.7z M29.1,15.7h-1.3V14h1.3
			V15.7z M35.6,12.5h-9.1v-1.7h9.1V12.5z M35.6,9.9h-9.1V8.2h9.1V9.9z"/>
	</g>
	<g class="st1">
		<path class="st2" d="M40.8,46.3H8.3v-1.7h32.5V46.3z M22.8,16.4h-9.5V8.2h9.5V16.4z M15,14.7h6.1V9.9H15V14.7z"/>
	</g>
</g>
<g id="Layer_2">
	<g id="icon2">
		<g>
			<path class="st2" d="M24.6,46c-4.5,0-8.2-3.7-8.2-8.2c0-1.1,0.2-2.2,0.6-3.1L3.4,12.5c0,0,0,0,0-0.1c-0.1-0.3-0.1-0.7,0.1-0.9
				l4-5.3C7.6,6,7.8,5.9,8.1,5.9h33.1c0.3,0,0.5,0.1,0.7,0.4l4,5.3c0.2,0.3,0.2,0.6,0.1,0.9c0,0,0,0,0,0.1L32.2,34.7
				c0.4,1,0.6,2,0.6,3.1C32.8,42.3,29.1,46,24.6,46z M24.6,31.5c-3.5,0-6.4,2.9-6.4,6.4c0,3.5,2.9,6.4,6.4,6.4
				c3.5,0,6.4-2.9,6.4-6.4C31,34.3,28.1,31.5,24.6,31.5z M5.7,12.9l12.4,20c0.3-0.4,0.6-0.7,0.9-1L7.3,13.2l0.4-0.2H5.7z M30.3,32
				c0.3,0.3,0.6,0.7,0.9,1l12.4-20h-2l0.4,0.2L30.3,32z M9.3,12.9l11.1,17.9c0.3-0.2,0.7-0.4,1.1-0.5L10.9,12.9H9.3z M27.8,30.3
				c0.4,0.2,0.7,0.3,1.1,0.5L40,12.9h-1.6L27.8,30.3z M13,12.9l10.2,16.9c0.9-0.2,1.9-0.2,2.8,0l10.2-16.9H13z M5.9,11.2h37.5
				L42.5,10v0.3H6.8V10L5.9,11.2z M7.9,8.5h33.5l-0.7-0.9H8.5L7.9,8.5z M24.6,43.4c-3,0-5.5-2.5-5.5-5.5c0-3,2.5-5.5,5.5-5.5
				s5.5,2.5,5.5,5.5C30.1,40.9,27.7,43.4,24.6,43.4z M24.6,34.1c-2.1,0-3.7,1.7-3.7,3.7c0,2.1,1.7,3.7,3.7,3.7
				c2.1,0,3.7-1.7,3.7-3.7C28.4,35.8,26.7,34.1,24.6,34.1z M25.5,40.5h-1.8v-3.7h-0.4V35h1.3c0.5,0,0.9,0.4,0.9,0.9V40.5z
				 M27.9,18.2h-1.3v-1.8h1.3V18.2z M25.3,18.2H24v-1.8h1.3V18.2z M22.6,18.2h-1.3v-1.8h1.3V18.2z"/>
		</g>
	</g>
</g>
</svg>
