<?xml version="1.0" encoding="utf-8"?>
<!-- Generator: Adobe Illustrator 23.0.2, SVG Export Plug-In . SVG Version: 6.00 Build 0)  -->
<svg version="1.1" id="Capa_1" xmlns="http://www.w3.org/2000/svg" xmlns:xlink="http://www.w3.org/1999/xlink" x="0px" y="0px"
	 viewBox="0 0 512 512" style="enable-background:new 0 0 512 512;" xml:space="preserve">
<style type="text/css">
	.st0{fill:#FEDAC6;}
	.st1{fill:#F5C4B0;}
	.st2{fill:#63934D;}
	.st3{fill:#70432C;}
	.st4{fill:#5C3724;}
	.st5{fill:#3A6D1D;}
	.st6{fill:#FFFFFF;}
	.st7{fill:#DBDB31;}
	.st8{fill:#898989;}
</style>
<path class="st0" d="M233.1,260.5v81.9c0,7.6-1.6,15.2-4.7,22.2l0,0c-11.4,25.6-36.7,42.1-64.7,42.2l0,0
	c-25.7,0-49.4-13.9-61.9-36.4l-2.2-3.9c-4.5-8.1-6.9-17.2-6.8-26.4v-79.5l40.9-46.8h58.5L233.1,260.5z"/>
<path class="st1" d="M111.9,238.6l-19.2,21.9V340c0,9.3,2.3,18.4,6.8,26.4l2.2,3.9c4.7,8.4,11,15.7,18.7,21.5
	C116.1,354.1,104.4,307.3,111.9,238.6z"/>
<path class="st0" d="M233.1,260.5h-5.8v35.1h5.8c9.7,0,17.5-7.9,17.5-17.5C250.7,268.4,242.8,260.5,233.1,260.5z"/>
<path class="st1" d="M75.2,278c0,9.7,7.9,17.5,17.5,17.5h5.8v-35.1h-5.8C83,260.5,75.2,268.4,75.2,278z"/>
<path class="st0" d="M162.9,446.1c21.3,0,40.5-12.7,48.9-32.2l2-4.6l-13.5-1.6c-5.3-0.6-10.3-3.1-14-6.8h-46.8
	c-3.8,3.8-8.7,6.2-14,6.8l-13.5,1.6l2,4.6C122.4,433.5,141.6,446.2,162.9,446.1z"/>
<path class="st2" d="M245.2,413l-31.3-3.7l-2,4.6c-11.6,27-42.9,39.5-69.9,27.9c-12.5-5.4-22.5-15.4-27.9-27.9l-2-4.6L80.7,413
	c-23.2,3.1-40.6,22.9-40.6,46.4V512h245.7v-52.6C285.8,435.9,268.4,416.1,245.2,413z"/>
<g>
	<path class="st3" d="M210.7,213.7h-93.6c-3.8,0-7.5-0.9-10.8-2.6l0,0c-11.9-6-16.7-20.6-10.6-32.5c1.1-2.2,2.5-4.2,4.2-5.9l5.6-5.8
		l5.8,11.7h74.1c18.2,0,36.1,17.8,30.2,35.1L210.7,213.7L210.7,213.7z"/>
	<path class="st3" d="M215.6,213.7c12.2,4,20.1,15.9,19.1,28.7l-1.5,18.1l-40.9-46.8C192.2,213.7,215.6,213.7,215.6,213.7z"/>
</g>
<path class="st4" d="M133.7,213.7l-40.9,46.8l-1.5-18.1c-1.1-12.9,8.9-23.4,19.1-28.7C110.3,213.7,133.7,213.7,133.7,213.7z"/>
<path class="st3" d="M209.7,338.4c-1.7,2.7-5.3,3.5-8.1,1.8c-1.1-0.7-1.9-1.7-2.3-2.9l-4.2-10.8c-1.7-4.6-6.2-7.6-11.1-7.5h-42.3
	c-4.9,0-9.2,3-10.9,7.5l-4.2,10.8c-1.1,3-4.5,4.5-7.5,3.4c-1.2-0.5-2.2-1.3-2.9-2.3l-23.4-39V340c0,9.3,2.3,18.4,6.8,26.4l2.2,3.9
	c19.1,34.2,62.3,46.4,96.5,27.3c13.4-7.5,24-19.1,30.2-33.2l0,0c3-7,4.6-14.5,4.6-22.1V302L209.7,338.4z"/>
<g>
	<path class="st4" d="M92.7,299.5V340c0,9.3,2.3,18.4,6.8,26.4l2.2,3.9c4.8,8.6,11.4,16.2,19.3,22.1c-4.2-18.7-6.5-37.9-6.7-57.1
		L92.7,299.5z"/>
	<path class="st4" d="M96.1,177.2c-6.8,11.5-2.9,26.4,8.6,33.2c3.7,2.2,7.9,3.3,12.2,3.3h63.6C127.8,207.9,102.2,190.3,96.1,177.2z"
		/>
</g>
<rect x="63.5" y="482.8" class="st0" width="23.4" height="29.2"/>
<rect x="40.1" y="482.8" class="st1" width="23.4" height="29.2"/>
<rect x="239" y="482.8" class="st0" width="46.8" height="29.2"/>
<path class="st1" d="M186.3,400.9h-46.8c-3.8,3.8-8.7,6.2-14,6.8l-13.5,1.6l2,4.6c3.8,8.8,9.8,16.4,17.5,22.1
	c15.4-2.2,43.9-7.5,66.2-29.2C193.8,405,190,403.1,186.3,400.9z"/>
<path class="st5" d="M63.5,422.2c-14,5-23.4,18.2-23.4,33v27.5h23.4C63.5,482.8,63.5,422.2,63.5,422.2z"/>
<circle cx="127.8" cy="278" r="11.7"/>
<circle cx="198" cy="278" r="11.7"/>
<path d="M162.9,324.8h-5.8c-1.7,0-3.3-0.7-4.4-2c-1.1-1.3-1.6-2.9-1.4-4.6l5.8-46.8l11.6,1.5l-5.8,46.4L162.9,324.8L162.9,324.8z"/>
<path d="M233.1,301.4h-5.8v-11.7h5.8c6.5,0,11.7-5.2,11.7-11.7s-5.2-11.7-11.7-11.7h-5.8v-11.7h5.8c12.9,0,23.4,10.5,23.4,23.4
	S246,301.4,233.1,301.4z"/>
<path d="M98.6,301.4h-5.8c-12.9,0-23.4-10.5-23.4-23.4s10.5-23.4,23.4-23.4h5.8v11.7h-5.8c-6.5,0-11.7,5.2-11.7,11.7
	s5.2,11.7,11.7,11.7h5.8V301.4z"/>
<path d="M163.7,412.6c-27.8,0-53.5-15.1-67.1-39.4l-2.2-3.8c-5-9-7.6-19.1-7.6-29.3v-85.3h11.7V340c0,8.2,2.1,16.4,6.1,23.6l2.2,3.8
	c11.5,20.6,33.3,33.4,56.8,33.5c25.7,0,49-15.2,59.4-38.7c2.8-6.3,4.2-12.9,4.2-19.8v-87.7H239v87.7c0,8.5-1.7,16.8-5.2,24.5
	C221.5,394.6,194,412.5,163.7,412.6z"/>
<path d="M162.9,354.1c-6.6,0-13.1-1-19.4-3.1l3.7-11.1c10.1,3.4,21.3,3.4,31.4,0l3.7,11.1C176.1,353,169.5,354.1,162.9,354.1z"/>
<path d="M204.7,347c-1.6,0-3.3-0.3-4.8-1c-2.9-1.3-5-3.6-6.1-6.5l-4.1-10.8c-0.9-2.3-3.1-3.8-5.5-3.8h-42.3
	c-2.6-0.1-4.7,1.5-5.6,3.8l-4.2,10.8c-0.9,2.3-2.5,4.4-4.7,5.7c-2.6,1.7-5.8,2.2-8.8,1.5s-5.6-2.5-7.3-5.2l-23.4-37l9.9-6.3l23.4,37
	l4.2-10.8c2.6-6.8,9-11.4,16.6-11.3h42.3c7.2,0,13.8,4.6,16.4,11.3l4.1,10.8l23.5-37l9.9,6.3l-23.5,37c-1.3,2.1-3.4,3.8-5.7,4.7
	C207.5,346.7,206.1,347,204.7,347z"/>
<path d="M215.6,219.6h-98.5c-4.7,0-9.3-1.1-13.4-3.2c-14.8-7.5-20.7-25.6-13.2-40.3c1.4-2.7,3.1-5.2,5.2-7.3l5.5-5.8
	c1.3-1.4,3.2-2,5.1-1.8c1.9,0.3,3.5,1.5,4.4,3.2l4.2,8.5h70.5c11.8,0,24.1,6.4,31.2,16.4c5.9,8.3,7.6,17.7,4.6,26.5
	C220.3,218,218.1,219.6,215.6,219.6z M103.9,177c-1.2,1.3-2.3,2.8-3,4.3c-4.6,9-0.9,20,8.1,24.6c2.5,1.3,5.4,1.9,8.2,1.9h93.7
	c0.3-5.2-2.1-9.5-3.8-11.9c-4.9-6.9-13.6-11.5-21.7-11.5h-74.1c-2.2,0-4.2-1.3-5.2-3.2L103.9,177z"/>
<path d="M233.1,266.3c-1.7,0-3.3-0.7-4.4-2l-40.9-46.8l8.8-7.7l31.9,36.4l0.4-4.3c0.9-10.5-5.4-20.4-15.3-24l4-11
	c14.9,5.4,24.3,20.3,22.9,36l-1.5,18c-0.2,2.3-1.8,4.3-4,5.1C234.3,266.3,233.7,266.3,233.1,266.3z"/>
<path d="M92.7,266.3c-0.6,0-1.2-0.1-1.8-0.3c-2.2-0.7-3.8-2.7-4-5.1l-1.5-18.1c-1.3-14.5,6.4-28,19.4-34.4l5.2,10.5
	c-8.7,4.3-13.8,13.3-12.9,23l0.4,4.4l31.9-36.4l8.8,7.7l-40.9,46.8C96,265.6,94.4,266.3,92.7,266.3z"/>
<path d="M45.9,512H34.2v-52.6c0-26.3,19.6-48.7,45.7-52.2l44.9-5.3c4-0.5,7.7-2.3,10.6-5.2l8.3,8.3c-4.7,4.7-10.9,7.7-17.5,8.5
	l-44.8,5.3C61.2,421.5,46,438.9,46,459.4V512H45.9z"/>
<path d="M163,452C162.9,452,162.9,452,163,452c-23.7,0-45-14-54.3-35.8l-3.7-8.7l10.8-4.6l3.7,8.7C127,429,144,440.3,163,440.3
	c0,0,0,0,0.1,0c19,0,36-11.3,43.5-28.7l3.7-8.7l10.8,4.6l-3.7,8.7C207.9,438,186.6,452,163,452z"/>
<path d="M92.7,512H81v-23.4H40.1v-11.7h46.8c3.2,0,5.8,2.6,5.8,5.8V512z"/>
<path d="M291.6,512h-11.7v-52.6c0-20.4-15.3-37.9-35.5-40.6l-44.7-5.3c-6.6-0.8-12.8-3.8-17.5-8.5l8.3-8.3c2.8,2.8,6.6,4.7,10.6,5.2
	l44.8,5.3c26.1,3.5,45.8,25.9,45.8,52.2L291.6,512L291.6,512z"/>
<path d="M244.8,512h-11.7v-29.2c0-3.2,2.6-5.8,5.8-5.8h46.8v11.7h-40.9L244.8,512L244.8,512z"/>
<g>
	<polygon class="st6" points="237.6,42.2 242.2,22.4 261.5,17.3 448.3,17.3 462,24.3 466.9,37.9 466.9,122.5 462,135.9 445.2,145.9 
		267.6,145.9 227.2,163.3 238.4,124.2 	"/>
	<path d="M218.9,175.3l14.8-51.2V37.2c0-13.7,11.1-24.8,24.8-24.8h188.6c13.7,0,24.8,11.1,24.8,24.8v87.5
		c0,13.7-11.1,24.8-24.8,24.8H268L218.9,175.3z M258.5,22.4c-8.2,0-14.8,6.7-14.8,14.8v88.2l-8.7,30.1l30.6-16h181.6
		c8.2,0,14.8-6.7,14.8-14.8V37.2c0-8.2-6.7-14.8-14.8-14.8C447.2,22.4,258.5,22.4,258.5,22.4z"/>
	<g>
		<path class="st7" d="M371.3,79.9c0-11.3-9.2-20.4-20.4-20.4c-11.3,0-20.4,9.2-20.4,20.4c0,7.1,3.6,13.3,9.1,17v15.7h22.7V96.9
			C367.7,93.2,371.3,87,371.3,79.9z"/>
		<path d="M366.1,116.5h-30.5V98.8c-5.7-4.6-9.1-11.5-9.1-18.9c0-13.4,10.9-24.3,24.3-24.3s24.3,10.9,24.3,24.3
			c0,7.4-3.4,14.3-9.1,18.9v17.7H366.1z M343.4,108.7h15V94.8l1.7-1.2c4.6-3.1,7.4-8.2,7.4-13.7c0-9.1-7.4-16.5-16.5-16.5
			s-16.5,7.4-16.5,16.5c0,5.5,2.7,10.7,7.4,13.7l1.7,1.2v13.9H343.4z"/>
	</g>
	<g>
		<path class="st8" d="M357.8,120.7H344c-2.4,0-4.4-2-4.4-4.4v-5.1c0-2.4,2-4.4,4.4-4.4h13.8c2.4,0,4.4,2,4.4,4.4v5.1
			C362.3,118.7,360.3,120.7,357.8,120.7z"/>
		<path d="M357.8,124.6H344c-4.6,0-8.3-3.7-8.3-8.3v-5.1c0-4.6,3.7-8.3,8.3-8.3h13.8c4.6,0,8.3,3.7,8.3,8.3v5.1
			C366.1,120.9,362.4,124.6,357.8,124.6z M344,110.6c-0.3,0-0.6,0.3-0.6,0.6v5.1c0,0.3,0.3,0.6,0.6,0.6h13.8c0.3,0,0.6-0.3,0.6-0.6
			v-5.1c0-0.3-0.3-0.6-0.6-0.6H344z"/>
	</g>
	<g>
		<path d="M306.2,110.6c-1.2,0-2.4-0.6-3.1-1.6c-1.3-1.7-0.9-4.2,0.8-5.4l11.3-8.3c1.7-1.3,4.2-0.9,5.4,0.8c1.3,1.7,0.9,4.2-0.8,5.4
			l-11.3,8.3C307.8,110.4,307,110.6,306.2,110.6z"/>
		<path d="M317.6,77.4h-18.2c-2.1,0-3.9-1.7-3.9-3.9s1.7-3.9,3.9-3.9h18.2c2.1,0,3.9,1.7,3.9,3.9S319.7,77.4,317.6,77.4z"/>
		<path d="M327.8,58.5c-1.2,0-2.3-0.5-3.1-1.6L316,45.3c-1.3-1.7-0.9-4.1,0.8-5.4c1.7-1.3,4.1-0.9,5.4,0.8l8.7,11.6
			c1.3,1.7,0.9,4.1-0.8,5.4C329.4,58.2,328.6,58.5,327.8,58.5z"/>
		<path d="M350.9,52.7c-2.1,0-3.9-1.7-3.9-3.9V35.2c0-2.1,1.7-3.9,3.9-3.9s3.9,1.7,3.9,3.9v13.6C354.8,50.9,353,52.7,350.9,52.7z"/>
		<path d="M373,56.8c-1.1,0-2.3-0.5-3-1.5c-1.3-1.7-1.1-4.1,0.6-5.5L384.1,39c1.7-1.3,4.1-1.1,5.5,0.6c1.3,1.7,1.1,4.1-0.6,5.5
			L375.4,56C374.7,56.5,373.8,56.8,373,56.8z"/>
		<path d="M397.6,81.3h-16.2c-2.1,0-3.9-1.7-3.9-3.9c0-2.1,1.7-3.9,3.9-3.9h16.2c2.1,0,3.9,1.7,3.9,3.9
			C401.5,79.5,399.7,81.3,397.6,81.3z"/>
		<path d="M391.5,110.6c-0.8,0-1.6-0.2-2.2-0.7l-11.7-8.3c-1.7-1.2-2.2-3.7-0.9-5.4c1.2-1.7,3.7-2.2,5.4-0.9l11.7,8.3
			c1.7,1.2,2.2,3.7,0.9,5.4C393.9,110.1,392.7,110.6,391.5,110.6z"/>
	</g>
</g>
</svg>
