<?xml version="1.0" encoding="utf-8"?>
<!-- Generator: Adobe Illustrator 23.0.2, SVG Export Plug-In . SVG Version: 6.00 Build 0)  -->
<svg version="1.1" id="Capa_1" xmlns="http://www.w3.org/2000/svg" xmlns:xlink="http://www.w3.org/1999/xlink" x="0px" y="0px"
	 viewBox="0 0 512 512" style="enable-background:new 0 0 512 512;" xml:space="preserve">
<style type="text/css">
	.st0{fill:#70432C;}
	.st1{fill:#5C3724;}
	.st2{fill:#FEDAC6;}
	.st3{fill:#F5C4B0;}
	.st4{fill:#8E2B4C;}
	.st5{fill:#DBDBDB;}
	.st6{fill:#EBEBEB;}
	.st7{fill:#772039;}
	.st8{fill:#BFBFBF;}
	.st9{fill:#FFFFFF;}
</style>
<path class="st0" d="M242,411V276.3c0-61.7-22.4-95.4-78.6-95.4l0,0c-29.9,0-56.1,11.2-73,44.9c-12.9,25.1-5.6,168.4-5.6,185.2H242z
	"/>
<path class="st1" d="M160.2,180.9c-28.5,0.8-53.3,12.6-69.8,44.9c-12.9,25.1-5.6,168.4-5.6,185.2h56.1
	c-5.6-56.1-16.8-95.4-16.8-123.5C124.1,221.7,145.9,192.1,160.2,180.9z"/>
<path class="st2" d="M225.1,270.7c-22.4-22.4-33.7-61.7-33.7-61.7S169,237,101.7,270.7v5.6l3.1,39.3c1.4,31.4,27.2,56.1,58.6,56.1
	l0,0c31.4,0,57.3-24.7,58.6-56.1L225.1,270.7z"/>
<path class="st3" d="M101.7,269.7l3.1,44.9c0.9,21.7,13.8,41.2,33.4,50.5c-15.6-34.5-19-71.7-19.6-100.1
	C113.4,268.2,107.6,269.8,101.7,269.7z"/>
<g>
	<path class="st4" d="M281.2,445c0-22.6-16.8-41.7-39.3-44.6l-28.1-3.5V512h67.3V445z"/>
	<path class="st4" d="M84.8,400.4c-22.5,2.8-39.3,21.9-39.3,44.6v67h67.3V396.9L84.8,400.4z"/>
</g>
<path class="st5" d="M112.9,455.9V512h101v-56.1C181.7,470.2,145,470.2,112.9,455.9z"/>
<path class="st2" d="M201.3,395.4c-5.6-0.7-9.9-5.5-9.8-11.2v-23.7h-56.1v23.7c0,5.7-4.2,10.5-9.8,11.2l-12.6,1.5v58.9
	c32.2,14.3,68.9,14.3,101,0v-58.9L201.3,395.4z"/>
<g>
	<path class="st6" d="M135.3,304.3h-16.8c-9.3,0-16.8-7.5-16.8-16.8v-11.2c0-3.1,2.5-5.6,5.6-5.6h44.9v16.8
		C152.2,296.8,144.6,304.3,135.3,304.3z"/>
	<path class="st6" d="M202.7,304.3h-16.8c-9.3,0-16.8-7.5-16.8-16.8v-16.8h44.9c3.1,0,5.6,2.5,5.6,5.6v11.2
		C219.5,296.8,212,304.3,202.7,304.3z"/>
</g>
<path class="st3" d="M191.5,385.7v-19.6h-56.1v19.6C152.4,397,174.4,397,191.5,385.7z"/>
<path class="st7" d="M68,406.2c-13.9,8-22.4,22.8-22.4,38.8v67H68V406.2z"/>
<path class="st8" d="M135.3,463.3c-7.7-1.8-15.2-4.2-22.4-7.5V512h22.4V463.3z"/>
<path class="st2" d="M230.7,270.7h-5.6v33.7h5.6c9.3,0,16.8-7.5,16.8-16.8S240,270.7,230.7,270.7z"/>
<path d="M161.6,320.9l-16.8-5.6c-2.9-0.9-4.4-4-3.6-6.9l11.2-39.3l10.8,3.1l-9.7,34.1l11.7,3.9L161.6,320.9z"/>
<path d="M230.7,310h-5.6v-11.2h5.6c6.2,0,11.2-5,11.2-11.2c0-6.2-5-11.2-11.2-11.2h-5.6v-11.2h5.6c12.4,0,22.4,10.1,22.4,22.4
	S243.1,310,230.7,310z"/>
<path d="M163.4,377.3c-34.5,0-62.7-27-64.3-61.5l-3.1-33.4l11.2-1l3.1,33.7c1.3,28.7,24.6,51,53.1,51s51.8-22.3,53-50.8l3.1-50.6
	l11.2,0.7l-3.1,50.5C226.1,350.3,197.9,377.3,163.4,377.3z"/>
<path d="M156.4,338C156.4,338,156.4,338,156.4,338h-4.3v-11.2h4.3c0,0,0,0,0,0c7.3,0,14.7-1.7,21.3-5l5,10
	C174.6,335.9,165.5,338,156.4,338z"/>
<path d="M90.4,405.4H79.2c0-2.8-0.2-8.9-0.5-17.3c-2.3-70.5-3.3-145.2,6.7-164.8c16.5-32.3,42-47.9,78-47.9c56.7,0,84.2,33,84.2,101
	h-11.2c0-62.1-22.5-89.8-73-89.8c-31.4,0-53.6,13.7-68,41.8c-10.1,19.7-6.7,121.1-5.5,159.4C90.2,396.3,90.4,402.5,90.4,405.4z"/>
<path d="M109.8,275.7l-5-10c64.6-32.3,81.7-59.4,81.9-59.6c1.2-1.9,3.3-2.9,5.6-2.6c2.2,0.3,4,1.9,4.6,4
	c0.1,0.4,11.1,38.2,32.2,59.3l-7.9,7.9c-16.3-16.3-26.8-40.6-31.8-54.1C179.3,231.7,156.3,252.4,109.8,275.7z"/>
<rect x="236.3" y="298.7" width="11.2" height="101"/>
<path d="M51.1,512H39.9v-67c0-25.4,19-47,44.2-50.1l40.6-5.1c2.8-0.4,4.9-2.8,4.9-5.6v-18.1h11.2v18.1c0.1,8.5-6.3,15.7-14.7,16.8
	L85.5,406c-19.6,2.5-34.4,19.2-34.4,39C51.1,445,51.1,512,51.1,512z"/>
<path d="M286.9,512h-11.2v-67c0-19.8-14.8-36.5-34.4-39l-40.6-5.1c-8.5-1.1-14.8-8.3-14.7-16.8v-18h11.2v18.1c0,2.9,2.1,5.3,4.9,5.7
	l40.6,5.1c25.2,3.2,44.2,24.7,44.2,50.1V512L286.9,512z"/>
<rect x="107.3" y="394.1" width="11.2" height="117.9"/>
<rect x="208.3" y="394.1" width="11.2" height="117.9"/>
<path d="M163.4,472.2c-18,0-36-3.7-52.8-11.2l4.6-10.2c30.6,13.6,65.8,13.6,96.5,0l4.6,10.2C199.4,468.5,181.4,472.2,163.4,472.2z"
	/>
<path d="M135.3,310h-16.8c-12.4,0-22.4-10.1-22.4-22.4v-11.2c0-6.2,5-11.2,11.2-11.2h44.9c3.1,0,5.6,2.5,5.6,5.6v16.8
	C157.8,299.9,147.7,310,135.3,310z M107.3,276.3v11.2c0,6.2,5,11.2,11.2,11.2h16.8c6.2,0,11.2-5,11.2-11.2v-11.2H107.3z"/>
<path d="M202.7,310h-16.8c-12.4,0-22.4-10.1-22.4-22.4v-16.8c0-3.1,2.5-5.6,5.6-5.6h44.9c6.2,0,11.2,5,11.2,11.2v11.2
	C225.1,299.9,215.1,310,202.7,310z M174.6,276.3v11.2c0,6.2,5,11.2,11.2,11.2h16.8c6.2,0,11.2-5,11.2-11.2v-11.2H174.6z"/>
<rect x="152.2" y="265.1" width="16.8" height="11.2"/>
<circle cx="129.7" cy="281.9" r="11.2"/>
<circle cx="197.1" cy="281.9" r="11.2"/>
<g>
	<g>
		<polygon class="st9" points="237.6,42.2 242.2,22.4 261.5,17.3 448.3,17.3 462,24.3 466.9,37.9 466.9,122.5 462,135.9 
			445.2,145.9 267.6,145.9 227.2,163.3 238.4,124.2 		"/>
		<path d="M218.9,175.3l14.8-51.2V37.2c0-13.7,11.1-24.8,24.8-24.8h188.6c13.7,0,24.8,11.1,24.8,24.8v87.5
			c0,13.7-11.1,24.8-24.8,24.8H268L218.9,175.3z M258.5,22.4c-8.2,0-14.8,6.7-14.8,14.8v88.2l-8.7,30.1l30.6-16h181.6
			c8.2,0,14.8-6.7,14.8-14.8V37.2c0-8.2-6.7-14.8-14.8-14.8H258.5z"/>
		<circle cx="311.3" cy="101.3" r="12.4"/>
		<circle cx="353" cy="101.3" r="12.4"/>
		<circle cx="394.8" cy="101.3" r="12.4"/>
	</g>
</g>
</svg>
