<?xml version="1.0" encoding="utf-8"?>
<!-- Generator: Adobe Illustrator 23.0.2, SVG Export Plug-In . SVG Version: 6.00 Build 0)  -->
<svg version="1.1" id="Capa_1" xmlns="http://www.w3.org/2000/svg" xmlns:xlink="http://www.w3.org/1999/xlink" x="0px" y="0px"
	 viewBox="0 0 512 512" style="enable-background:new 0 0 512 512;" xml:space="preserve">
<style type="text/css">
	.st0{fill:#1E8E5E;}
	.st1{fill:#FEDAC6;}
	.st2{fill:#F5C4B0;}
	.st3{fill:#85B0BA;}
	.st4{fill:#FECB66;}
	.st5{fill:#F5AD76;}
	.st6{fill:#21705B;}
	.st7{fill:#FFFFFF;}
	.st8{fill:#D6D6D6;}
	.st9{fill:none;stroke:#4CC62A;stroke-width:10;stroke-miterlimit:10;}
</style>
<path class="st0" d="M242.5,414.2l-36.5-4.9l0,0c-19.5,24.7-55.4,28.9-80.1,9.3c-3.5-2.7-6.6-5.9-9.3-9.3l0,0l-36.5,4.9
	C57.2,417.3,40,436.9,40,460v52h242.6v-52C282.6,436.9,265.5,417.3,242.5,414.2z"/>
<path class="st1" d="M206,409.4L206,409.4c-5.8-0.8-10.1-5.7-10.1-11.6v-30.2h-69.3v30.3c0.1,5.8-4.3,10.8-10.1,11.6l0,0
	c19.6,24.7,55.4,28.8,80.1,9.2C200.2,416,203.3,412.8,206,409.4z"/>
<path class="st2" d="M196,398.9v-31.3h-69.3v31.3C152.7,411.1,170,411.1,196,398.9z"/>
<g>
	<path class="st1" d="M224.9,269.4h-5.8V304h5.8c9.6,0,17.3-7.8,17.3-17.3C242.2,277.1,234.4,269.4,224.9,269.4z"/>
	<path class="st1" d="M97.8,269.4c-9.6,0-17.3,7.8-17.3,17.3S88.2,304,97.8,304h5.8v-34.7H97.8L97.8,269.4z"/>
	<path class="st1" d="M219.1,246.3l5.8,23.1v62.1c0.1,8.5-3,16.7-8.5,23.1l-25,28.2c-4.4,5-10.7,7.9-17.3,7.9h-25.3
		c-6.6,0-13-2.9-17.3-7.9l-25.1-28.5c-5.6-6.4-8.6-14.6-8.5-23.1v-61.8l5.8-23.1C103.6,246.3,219.1,246.3,219.1,246.3z"/>
</g>
<path class="st2" d="M120.9,321.4l5.8-75.1H97.8l-2.3,82.3c0,13.3,5.8,25.9,15.8,34.7c0,0,23.5,25.8,26.9,27.5l-12.7-36.2
	C121.7,343.9,120.1,332.6,120.9,321.4z"/>
<g>
	<path class="st3" d="M97.8,269.4h52l0,0v23.1c0,9.6-7.8,17.3-17.3,17.3h-17.3c-9.6,0-17.3-7.8-17.3-17.3L97.8,269.4L97.8,269.4z"/>
	<path class="st3" d="M207.5,309.8h-17.3c-9.6,0-17.3-7.8-17.3-17.3v-23.1h52v23.1C224.9,302.1,217.1,309.8,207.5,309.8z"/>
</g>
<path class="st4" d="M236.4,275.2l5.8-34.7l0,0c0-38.3-31-69.3-69.3-69.3h-23.1c-38.3,0-69.3,31-69.3,69.3v5.8l5.8,28.9l11.6,17.3
	l5.8-46.2h115.5l5.8,40.4L236.4,275.2z"/>
<path class="st5" d="M133.9,173.1c-31.3,7.3-53.5,35.3-53.5,67.4v5.8l5.8,28.9l11.6,17.3l5.8-46.2h11.6
	C108.2,213.7,115.1,194.3,133.9,173.1z"/>
<path class="st6" d="M40,460v52h23.1v-92C48.8,428.3,40,443.5,40,460z"/>
<path d="M224.9,309.8h-5.8v-11.6h5.8c6.4,0,11.6-5.2,11.6-11.6c0-6.4-5.2-11.6-11.6-11.6h-5.8v-11.6h5.8c12.7,0,23.1,10.4,23.1,23.1
	S237.6,309.8,224.9,309.8z"/>
<path d="M103.6,309.8h-5.8c-12.7,0-23.1-10.4-23.1-23.1s10.4-23.1,23.1-23.1h5.8v11.6h-5.8c-6.4,0-11.6,5.2-11.6,11.6
	s5.2,11.6,11.6,11.6h5.8V309.8z"/>
<path d="M167.1,321.4h-17.3c-1.7,0-3.2-0.7-4.3-2c-1.1-1.2-1.6-2.9-1.4-4.5l5.8-46.2l11.5,1.4l-5,39.7h10.8L167.1,321.4L167.1,321.4
	z"/>
<path d="M132.4,315.6h-17.3c-12.7,0-23.1-10.4-23.1-23.1v-23.1c0-3.2,2.6-5.8,5.8-5.8h52c3.2,0,5.8,2.6,5.8,5.8v23.1
	C155.6,305.2,145.2,315.6,132.4,315.6z M103.6,275.2v17.3c0,6.4,5.2,11.6,11.6,11.6h17.3c6.4,0,11.6-5.2,11.6-11.6v-17.3H103.6z"/>
<path d="M207.5,315.6h-17.3c-12.7,0-23.1-10.4-23.1-23.1v-23.1c0-3.2,2.6-5.8,5.8-5.8h52c3.2,0,5.8,2.6,5.8,5.8v23.1
	C230.6,305.2,220.3,315.6,207.5,315.6z M178.7,275.2v17.3c0,6.4,5.2,11.6,11.6,11.6h17.3c6.4,0,11.6-5.2,11.6-11.6v-17.3H178.7z"/>
<rect x="144" y="263.6" width="28.9" height="11.6"/>
<path d="M80.6,276.3l-5.8-28.9c-0.1-0.4-0.1-0.8-0.1-1.1v-5.8c0-41.4,33.7-75.1,75.1-75.1h23.1c41.4,0,75.1,33.7,75.1,75.1
	c0,0.3,0,0.6-0.1,1l-5.8,34.7l-11.4-1.9l5.7-34.2c-0.3-34.8-28.7-63.1-63.5-63.1h-23.1c-35,0-63.5,28.5-63.5,63.5v5.2l5.7,28.3
	L80.6,276.3z"/>
<path d="M148.7,396.5c-8.3,0-16.2-3.6-21.7-9.9L102,358.1c-6.5-7.5-10.1-17.1-10-27v-61.8c0-0.5,0.1-0.9,0.2-1.4l5.8-23.1
	c0.6-2.6,2.9-4.4,5.6-4.4h115.5c2.7,0,5,1.8,5.6,4.4l5.8,23.1c0.1,0.5,0.2,0.9,0.2,1.4v62.1c0.1,9.9-3.5,19.4-10,26.9l-25,28.2
	c-5.4,6.2-13.3,9.8-21.6,9.9H148.7L148.7,396.5z M103.6,270.1v61.1c-0.1,7.1,2.5,14,7.1,19.3l25.1,28.5c3.3,3.8,8,5.9,13,6H174
	c5,0,9.7-2.2,13-5.9l25-28.2c4.6-5.3,7.2-12.1,7.1-19.2v-61.4l-4.5-18H108.1L103.6,270.1z"/>
<rect x="144" y="332.9" width="34.7" height="11.6"/>
<path d="M113.4,250.4l-8.2-8.2c6.4-6.4,9.9-14.8,9.9-23.8v-1h11.6v1C126.7,230.5,122,241.8,113.4,250.4z"/>
<path d="M142.3,250.4l-8.2-8.2c6.4-6.4,9.9-14.8,9.9-23.8v-1h11.6v1C155.5,230.5,150.8,241.8,142.3,250.4z"/>
<path d="M171.2,250.4l-8.2-8.2c6.4-6.4,9.9-14.8,9.9-23.8v-1h11.6v1C184.4,230.5,179.7,241.8,171.2,250.4z"/>
<path d="M200.1,250.4l-8.2-8.2c6.4-6.4,9.9-14.8,9.9-23.8v-1h11.6v1C213.3,230.5,208.6,241.8,200.1,250.4z"/>
<path d="M45.8,512H34.2v-52c0-25.9,19.4-48.1,45.1-51.5l36.5-4.9c2.9-0.4,5.1-2.9,5-5.8v-18.7h11.6v18.7c0.1,8.7-6.4,16.1-15.1,17.3
	l-36.5,4.9c-20,2.7-35.1,19.9-35.1,40.1C45.8,460,45.8,512,45.8,512z"/>
<path d="M288.4,512h-11.6v-52c-0.1-20.1-15.1-37.3-35.1-40l-36.5-4.9c-8.7-1.1-15.1-8.6-15.1-17.3v-18.7h11.6v18.8
	c0,3,2.1,5.4,5,5.8l36.5,4.9c25.7,3.4,45,25.5,45.1,51.4L288.4,512L288.4,512z"/>
<rect x="80.5" y="465.8" width="11.6" height="46.2"/>
<rect x="230.6" y="465.8" width="11.6" height="46.2"/>
<path d="M161.4,436.7c-18.5,0-36.9-8.2-49.3-23.8l9.1-7.2c17.5,22.2,49.8,25.9,72,8.4c3.1-2.5,5.9-5.3,8.4-8.4l9,7.2
	c-3,3.8-6.5,7.3-10.3,10.3C188.8,432.3,175,436.7,161.4,436.7z"/>
<g>
	<polygon class="st7" points="237.6,42.2 242.2,22.4 261.5,17.3 448.3,17.3 462,24.3 466.9,37.9 466.9,122.5 462,135.9 445.2,145.9 
		267.6,145.9 227.2,163.3 238.4,124.2 	"/>
	<path d="M218.9,175.3l14.8-51.2V37.2c0-13.7,11.1-24.8,24.8-24.8h188.6c13.7,0,24.8,11.1,24.8,24.8v87.5
		c0,13.7-11.1,24.8-24.8,24.8H268L218.9,175.3z M258.5,22.4c-8.2,0-14.8,6.7-14.8,14.8v88.2l-8.7,30.1l30.6-16h181.6
		c8.2,0,14.8-6.7,14.8-14.8V37.2c0-8.2-6.7-14.8-14.8-14.8H258.5z"/>
	<path d="M335.2,118.4h-65.7V29.2h65.7V118.4z M278.2,109.8h48.4V37.9h-48.4V109.8z"/>
	<path d="M291.4,113.6v9.1h48.4V50.8H332l0.3-8.7h16.2v89.2h-65.7v-17.5L291.4,113.6z"/>
	<rect x="283.6" y="42.2" width="38" height="8.7"/>
	<rect x="283.6" y="57.3" width="32.1" height="8.7"/>
	<rect x="283.6" y="71.5" width="35.2" height="8.7"/>
	<rect x="283.6" y="86.7" width="35.2" height="8.7"/>
	<circle class="st8" cx="406.8" cy="79.4" r="30.5"/>
	<polyline class="st9" points="379.6,86.7 399.6,112.5 445.2,42.2 	"/>
</g>
</svg>
