<?xml version="1.0" encoding="utf-8"?>
<!-- Generator: Adobe Illustrator 24.0.2, SVG Export Plug-In . SVG Version: 6.00 Build 0)  -->
<svg version="1.1" id="Layer_1" xmlns="http://www.w3.org/2000/svg" xmlns:xlink="http://www.w3.org/1999/xlink" x="0px" y="0px"
	 viewBox="0 0 255 210" style="enable-background:new 0 0 255 210;" xml:space="preserve">
<style type="text/css">
	.st0{fill:#F68212;}
	.st1{fill:none;stroke:#B2550F;stroke-width:1.6305;stroke-linecap:round;stroke-miterlimit:10;stroke-dasharray:3.261,6.5221;}
	.st2{fill:#FF8831;}
	.st3{fill:#FFFFFF;}
	.st4{fill:#B2550F;}
	.st5{fill:#F05E23;}
	.st6{fill:#FEBF00;}
	.st7{fill:#87C6C0;}
</style>
<g>
	<polygon class="st0" points="388.5,-221.6 392.2,-222.2 388.5,-222.8 387.9,-226.5 387.3,-222.8 383.6,-222.2 387.3,-221.6 
		387.9,-217.9 	"/>
</g>
<g>
	<polygon class="st0" points="455.7,-219.9 458.4,-220.3 455.7,-220.7 455.3,-223.4 454.9,-220.7 452.2,-220.3 454.9,-219.9 
		455.3,-217.2 	"/>
</g>
<g>
	<g>
		<path class="st1" d="M54.8,157.2c-19-9.2-32.1-28.7-32.1-51.2c-0.1-31.5,25.4-57,56.8-57c6.1,0,12,1,17.6,2.8"/>
		<path class="st1" d="M102.8,48c10.1-15.6,27.7-26,47.8-26c31.4,0,56.9,25.5,56.9,56.9c0,22.1-12.6,41.2-31,50.6"/>
		<path class="st1" d="M172.5,81.2c21.6,9.1,36.7,30.4,36.7,55.3c0,33.1-26.9,60-60,60c-19.3,0-36.5-9.1-47.5-23.3"/>
	</g>
	<g>
		<polygon class="st2" points="62.4,34.5 71.1,33.1 62.4,31.7 61.1,23.1 59.7,31.7 51,33.1 59.7,34.5 61.1,43.1 		"/>
	</g>
	<g>
		<polygon class="st2" points="190.1,159.6 194.6,158.8 190.1,158.1 189.3,153.6 188.6,158.1 184,158.8 188.6,159.6 189.3,164.1 		
			"/>
	</g>
	<g>
		<polygon class="st2" points="30.4,156.5 39.1,155.1 30.4,153.7 29.1,145.1 27.7,153.7 19,155.1 27.7,156.5 29.1,165.1 		"/>
	</g>
	<g>
		<polygon class="st3" points="43.6,121.1 48.6,120.3 43.6,119.6 42.8,114.6 42,119.6 37,120.3 42,121.1 42.8,126.1 		"/>
	</g>
	<g>
		<polygon class="st2" points="162.6,43.1 167.6,42.3 162.6,41.6 161.8,36.6 161,41.6 156,42.3 161,43.1 161.8,48.1 		"/>
	</g>
</g>
<g>
	<g>
		<path class="st4" d="M168.2,117.1h-2v-7.9h-11.8v-5.1c11.4-3.4,19.7-13.9,19.7-26.4c0-15.2-12.4-27.6-27.6-27.6
			s-27.6,12.4-27.6,27.6c0,12.5,8.3,23,19.7,26.4v5.1h-12.9c-4.4,0-8.5,1.8-11.5,4.8c0.5-0.9,0.7-1.8,0.7-2.9v-55
			c0-3.3-2.7-5.9-5.9-5.9H69.7c-3.3,0-5.9,2.7-5.9,5.9v53.2h-3.9v7.9h-2c-3.3,0-5.9,2.7-5.9,5.9v43.3c0,3.3,2.7,5.9,5.9,5.9h110.3
			c3.3,0,5.9-2.7,5.9-5.9v-43.3C174.1,119.8,171.4,117.1,168.2,117.1L168.2,117.1z M122.9,77.8c0-13,10.6-23.6,23.6-23.6
			s23.6,10.6,23.6,23.6s-10.6,23.6-23.6,23.6S122.9,90.8,122.9,77.8z M63.8,113.2h36.5c4.5,0,8.6,2.5,10.8,6.4v44.9
			c-2.9-2.6-6.7-4.1-10.8-4.1H63.8V113.2z"/>
	</g>
	<path class="st5" d="M146.5,105.3c1.3,0,2.6-0.1,3.9-0.3v27.9c0,2.2-1.8,3.9-3.9,3.9c-2.2,0-3.9-1.8-3.9-3.9V105
		C143.9,105.2,145.2,105.3,146.5,105.3z"/>
	<circle class="st5" cx="146.5" cy="77.8" r="23.6"/>
	<path class="st4" d="M166.2,77.8c0-10.9-8.8-19.7-19.7-19.7s-19.7,8.8-19.7,19.7s8.8,19.7,19.7,19.7S166.2,88.6,166.2,77.8z
		 M130.8,77.8c0-8.7,7.1-15.8,15.8-15.8s15.8,7.1,15.8,15.8s-7.1,15.8-15.8,15.8S130.8,86.4,130.8,77.8z"/>
	<circle class="st3" cx="146.5" cy="77.8" r="15.8"/>
	<path class="st3" d="M63.8,113.2h36.5c4.5,0,8.6,2.5,10.8,6.4v44.9c-2.9-2.6-6.7-4.1-10.8-4.1H63.8V113.2z"/>
	<path class="st4" d="M91.4,117.1H67.7v19.7h23.6v-19.7H91.4z M87.4,132.9H71.7v-11.8h15.8L87.4,132.9L87.4,132.9z"/>
	<path class="st4" d="M107.1,140.8H87.4v15.8h19.7C107.1,156.6,107.1,140.8,107.1,140.8z M103.2,152.6H91.4v-7.9h11.8
		C103.2,144.7,103.2,152.6,103.2,152.6z"/>
	<path class="st4" d="M67.7,140.8h15.8v3.9H67.7V140.8z"/>
	<path class="st4" d="M67.7,148.7h15.8v3.9H67.7V148.7z"/>
	<path class="st4" d="M95.3,132.9h11.8v3.9H95.3V132.9z"/>
	<path class="st4" d="M95.3,125h11.8v3.9H95.3V125z"/>
	<path class="st6" d="M69.7,54.1h39.4c1.1,0,2,0.9,2,2v9.8H67.7v-9.8C67.7,55,68.6,54.1,69.7,54.1z"/>
	<path class="st4" d="M87.4,58.1h3.9V62h-3.9V58.1z"/>
	<path class="st4" d="M71.7,58.1h3.9V62h-3.9V58.1z"/>
	<path class="st4" d="M79.6,58.1h3.9V62h-3.9V58.1z"/>
	<rect x="67.7" y="69.9" class="st2" width="43.3" height="11.8"/>
	<path class="st4" d="M103.2,73.8h3.9v3.9h-3.9V73.8z"/>
	<path class="st4" d="M95.3,73.8h3.9v3.9h-3.9V73.8z"/>
	<path class="st4" d="M87.4,73.8h3.9v3.9h-3.9V73.8z"/>
	<polyline class="st5" points="111.1,85.6 111.1,97.5 67.7,97.5 67.7,85.6 111.1,85.6 	"/>
	<path class="st4" d="M79.6,89.6h3.9v3.9h-3.9V89.6z"/>
	<path class="st4" d="M87.4,89.6h3.9v3.9h-3.9V89.6z"/>
	<path class="st4" d="M71.7,89.6h3.9v3.9h-3.9V89.6z"/>
	<path class="st7" d="M67.7,101.4H111v9.8c0,0.6-0.3,1.1-0.7,1.5c-2.8-2.2-6.3-3.5-10-3.5H67.7V101.4z"/>
	<path class="st3" d="M125.8,113.2L125.8,113.2h12.9v19.7c0,4.3,3.5,7.9,7.9,7.9c4.3,0,7.9-3.5,7.9-7.9v-19.7h7.9v47.3h-36.5
		c-4.1,0-7.9,1.5-10.8,4.1v-44.9C117.2,115.7,121.2,113.2,125.8,113.2"/>
	<path class="st4" d="M118.9,121.1h15.8v3.9h-15.8C118.9,125,118.9,121.1,118.9,121.1z"/>
	<path class="st4" d="M118.9,129h15.8v3.9h-15.8C118.9,132.9,118.9,129,118.9,129z"/>
	<path class="st4" d="M118.9,136.8h15.8v3.9h-15.8C118.9,140.7,118.9,136.8,118.9,136.8z"/>
	<path class="st4" d="M118.9,144.7h39.4v3.9h-39.4V144.7z"/>
	<path class="st4" d="M118.9,152.6h3.9v3.9h-3.9V152.6z"/>
	<path class="st4" d="M126.8,152.6h31.5v3.9h-31.5V152.6z"/>
</g>
<path class="st7" d="M55.9,166.4v-43.3c0-1.1,0.9-2,2-2h2v43.3h40.4c3.5,0,6.7,1.5,9,3.9H57.9C56.8,168.3,55.9,167.5,55.9,166.4z"/>
<path class="st7" d="M170.1,166.4c0,1.1-0.9,2-2,2h-51.4c2.3-2.5,5.5-3.9,9-3.9h40.4v-43.3h2c1.1,0,2,0.9,2,2V166.4z"/>
</svg>
