<?xml version="1.0" encoding="utf-8"?>
<!-- Generator: Adobe Illustrator 24.0.2, SVG Export Plug-In . SVG Version: 6.00 Build 0)  -->
<svg version="1.1" id="BigData" xmlns="http://www.w3.org/2000/svg" xmlns:xlink="http://www.w3.org/1999/xlink" x="0px" y="0px"
	 viewBox="0 0 800 511.1" style="enable-background:new 0 0 800 511.1;" xml:space="preserve">
<style type="text/css">
	.st0{fill:none;stroke:#87C6C0;stroke-miterlimit:10;}
	.st1{enable-background:new    ;}
	.st2{fill:#FEBF00;}
	.st3{fill:#FF8831;}
	.st4{fill:#87C6C0;}
</style>
<line class="st0" x1="21.7" y1="442.8" x2="778.7" y2="442.8"/>
<line class="st0" x1="21.7" y1="442.8" x2="21.7" y2="0.7"/>
<g class="st1">
	<path d="M168.3,491c0.6,0.7,0.8,1.5,0.8,2.6c0,1.3-0.5,2.4-1.5,3.1s-2.5,1.1-4.4,1.1H156v-15.7h6.8c1.8,0,3.1,0.4,4.1,1.1
		s1.4,1.7,1.4,3c0,0.9-0.2,1.6-0.6,2.2c-0.4,0.6-1,1.1-1.8,1.4C166.9,489.9,167.7,490.4,168.3,491z M157.6,483.5v5.7h5
		c1.3,0,2.3-0.2,2.9-0.7c0.7-0.5,1-1.2,1-2.1s-0.3-1.6-1-2.1c-0.7-0.5-1.7-0.7-2.9-0.7H157.6z M166.4,495.7c0.7-0.5,1.1-1.2,1.1-2.2
		c0-2-1.4-2.9-4.3-2.9h-5.5v5.9h5.5C164.6,496.4,165.7,496.2,166.4,495.7z"/>
	<path d="M172.6,483.1c-0.2-0.2-0.3-0.5-0.3-0.8c0-0.3,0.1-0.6,0.3-0.8s0.5-0.3,0.8-0.3c0.3,0,0.6,0.1,0.8,0.3
		c0.2,0.2,0.3,0.5,0.3,0.8c0,0.3-0.1,0.6-0.3,0.8s-0.5,0.3-0.8,0.3C173.1,483.4,172.8,483.3,172.6,483.1z M172.6,486h1.6v11.8h-1.6
		V486z"/>
	<path d="M189.6,486v10.4c0,2-0.5,3.5-1.5,4.5c-1,1-2.5,1.4-4.4,1.4c-1.1,0-2.1-0.2-3.1-0.5c-1-0.3-1.8-0.8-2.4-1.3l0.8-1.2
		c0.6,0.5,1.3,0.9,2.1,1.2c0.8,0.3,1.7,0.4,2.6,0.4c1.5,0,2.6-0.3,3.3-1s1.1-1.8,1.1-3.2v-1.5c-0.5,0.7-1.1,1.3-1.9,1.7
		c-0.8,0.4-1.7,0.6-2.7,0.6c-1.1,0-2.1-0.2-3-0.7c-0.9-0.5-1.6-1.2-2.1-2c-0.5-0.9-0.8-1.9-0.8-3s0.3-2.1,0.8-3
		c0.5-0.9,1.2-1.5,2.1-2c0.9-0.5,1.9-0.7,3-0.7c1,0,1.9,0.2,2.7,0.6c0.8,0.4,1.5,1,2,1.8V486H189.6z M185.8,495.4
		c0.7-0.4,1.2-0.9,1.6-1.5c0.4-0.7,0.6-1.4,0.6-2.2s-0.2-1.6-0.6-2.2c-0.4-0.7-0.9-1.2-1.6-1.5c-0.7-0.4-1.5-0.6-2.3-0.6
		c-0.9,0-1.6,0.2-2.3,0.5c-0.7,0.4-1.2,0.9-1.6,1.5c-0.4,0.7-0.6,1.4-0.6,2.2s0.2,1.6,0.6,2.2s0.9,1.2,1.6,1.5
		c0.7,0.4,1.4,0.5,2.3,0.5C184.4,495.9,185.2,495.8,185.8,495.4z"/>
	<path d="M200.3,482.1h6.4c1.7,0,3.1,0.3,4.4,1c1.3,0.7,2.3,1.6,3,2.8c0.7,1.2,1.1,2.5,1.1,4.1c0,1.5-0.4,2.9-1.1,4.1
		c-0.7,1.2-1.7,2.1-3,2.8c-1.3,0.7-2.7,1-4.4,1h-6.4V482.1z M206.6,496.4c1.4,0,2.6-0.3,3.6-0.8c1-0.5,1.8-1.3,2.4-2.3
		c0.6-1,0.9-2.1,0.9-3.3c0-1.3-0.3-2.4-0.9-3.3c-0.6-1-1.4-1.7-2.4-2.3c-1-0.5-2.2-0.8-3.6-0.8h-4.7v12.9H206.6z"/>
	<path d="M226.2,487.1c0.8,0.8,1.2,1.9,1.2,3.4v7.3h-1.5V496c-0.4,0.6-0.9,1.1-1.6,1.4c-0.7,0.3-1.5,0.5-2.5,0.5
		c-1.3,0-2.4-0.3-3.1-0.9s-1.2-1.5-1.2-2.5c0-1,0.4-1.8,1.1-2.4c0.7-0.6,1.9-0.9,3.5-0.9h3.8v-0.7c0-1-0.3-1.8-0.9-2.3
		c-0.6-0.5-1.4-0.8-2.5-0.8c-0.7,0-1.5,0.1-2.2,0.4c-0.7,0.2-1.3,0.6-1.8,1l-0.7-1.2c0.6-0.5,1.3-0.9,2.2-1.2s1.7-0.4,2.7-0.4
		C224.2,485.9,225.3,486.3,226.2,487.1z M224.4,496c0.6-0.4,1.1-1,1.4-1.8v-1.9h-3.7c-2,0-3,0.7-3,2.1c0,0.7,0.3,1.2,0.8,1.6
		c0.5,0.4,1.3,0.6,2.2,0.6C223,496.7,223.7,496.5,224.4,496z"/>
	<path d="M238,497.1c-0.3,0.3-0.7,0.5-1.1,0.6c-0.4,0.1-0.9,0.2-1.4,0.2c-1.1,0-2-0.3-2.6-0.9c-0.6-0.6-0.9-1.4-0.9-2.5v-7.1h-2.1
		V486h2.1v-2.6h1.6v2.6h3.6v1.3h-3.6v7.1c0,0.7,0.2,1.2,0.5,1.6c0.4,0.4,0.9,0.6,1.5,0.6c0.3,0,0.6-0.1,1-0.2
		c0.3-0.1,0.6-0.3,0.8-0.5L238,497.1z"/>
	<path d="M248.5,487.1c0.8,0.8,1.2,1.9,1.2,3.4v7.3h-1.5V496c-0.4,0.6-0.9,1.1-1.6,1.4c-0.7,0.3-1.5,0.5-2.5,0.5
		c-1.3,0-2.4-0.3-3.1-0.9s-1.2-1.5-1.2-2.5c0-1,0.4-1.8,1.1-2.4c0.7-0.6,1.9-0.9,3.5-0.9h3.8v-0.7c0-1-0.3-1.8-0.9-2.3
		c-0.6-0.5-1.4-0.8-2.5-0.8c-0.7,0-1.5,0.1-2.2,0.4c-0.7,0.2-1.3,0.6-1.8,1l-0.7-1.2c0.6-0.5,1.3-0.9,2.2-1.2s1.7-0.4,2.7-0.4
		C246.5,485.9,247.7,486.3,248.5,487.1z M246.8,496c0.6-0.4,1.1-1,1.4-1.8v-1.9h-3.7c-2,0-3,0.7-3,2.1c0,0.7,0.3,1.2,0.8,1.6
		c0.5,0.4,1.3,0.6,2.2,0.6C245.3,496.7,246.1,496.5,246.8,496z"/>
</g>
<g class="st1">
	<path d="M397.8,483.5c1.1,1,1.7,2.3,1.7,4s-0.6,3-1.7,3.9c-1.1,1-2.7,1.4-4.7,1.4h-4.2v5h-1.7v-15.7h5.9
		C395.1,482.1,396.6,482.6,397.8,483.5z M396.6,490.4c0.8-0.7,1.2-1.6,1.2-2.9c0-1.3-0.4-2.3-1.2-2.9s-2-1-3.6-1h-4.2v7.9h4.2
		C394.6,491.4,395.8,491,396.6,490.4z"/>
	<path d="M413,492.4h-9.9c0.1,1.2,0.6,2.2,1.4,3c0.9,0.8,1.9,1.1,3.2,1.1c0.7,0,1.4-0.1,2-0.4c0.6-0.3,1.1-0.6,1.6-1.2l0.9,1
		c-0.5,0.6-1.2,1.1-2,1.4c-0.8,0.3-1.7,0.5-2.6,0.5c-1.2,0-2.3-0.3-3.2-0.8c-0.9-0.5-1.7-1.2-2.2-2.1c-0.5-0.9-0.8-1.9-0.8-3.1
		s0.3-2.2,0.8-3.1c0.5-0.9,1.2-1.6,2.1-2.1c0.9-0.5,1.9-0.8,3-0.8c1.1,0,2.1,0.3,2.9,0.8c0.9,0.5,1.5,1.2,2,2.1
		c0.5,0.9,0.7,1.9,0.7,3.1L413,492.4z M404.4,488.4c-0.8,0.7-1.2,1.7-1.3,2.8h8.4c-0.1-1.2-0.5-2.1-1.3-2.8s-1.7-1.1-2.9-1.1
		C406.1,487.3,405.2,487.6,404.4,488.4z"/>
	<path d="M427,486v16.2h-1.6v-6.6c-0.5,0.8-1.1,1.3-1.9,1.7c-0.8,0.4-1.6,0.6-2.6,0.6c-1.1,0-2.1-0.3-3-0.8
		c-0.9-0.5-1.6-1.2-2.1-2.1c-0.5-0.9-0.8-2-0.8-3.1c0-1.2,0.3-2.2,0.8-3.1c0.5-0.9,1.2-1.6,2.1-2.1s1.9-0.8,3-0.8
		c1,0,1.9,0.2,2.7,0.6c0.8,0.4,1.4,1,1.9,1.8V486H427z M423.3,495.9c0.7-0.4,1.2-0.9,1.6-1.6s0.6-1.5,0.6-2.4c0-0.9-0.2-1.7-0.6-2.4
		s-0.9-1.2-1.6-1.6c-0.7-0.4-1.4-0.6-2.2-0.6c-0.8,0-1.6,0.2-2.3,0.6c-0.7,0.4-1.2,0.9-1.6,1.6c-0.4,0.7-0.6,1.5-0.6,2.4
		c0,0.9,0.2,1.7,0.6,2.4c0.4,0.7,0.9,1.2,1.6,1.6c0.7,0.4,1.4,0.6,2.3,0.6C421.9,496.5,422.7,496.3,423.3,495.9z"/>
	<path d="M442.1,486v11.8h-1.5v-2.2c-0.4,0.7-1,1.3-1.7,1.7c-0.7,0.4-1.6,0.6-2.5,0.6c-1.5,0-2.8-0.4-3.7-1.3
		c-0.9-0.9-1.3-2.1-1.3-3.8V486h1.6v6.7c0,1.2,0.3,2.2,0.9,2.8c0.6,0.6,1.5,1,2.6,1c1.2,0,2.2-0.4,2.9-1.1c0.7-0.8,1.1-1.8,1.1-3.2
		V486H442.1z"/>
	<path d="M456.9,492.4H447c0.1,1.2,0.6,2.2,1.4,3c0.9,0.8,1.9,1.1,3.2,1.1c0.7,0,1.4-0.1,2-0.4c0.6-0.3,1.1-0.6,1.6-1.2l0.9,1
		c-0.5,0.6-1.2,1.1-2,1.4c-0.8,0.3-1.7,0.5-2.6,0.5c-1.2,0-2.3-0.3-3.2-0.8c-0.9-0.5-1.7-1.2-2.2-2.1c-0.5-0.9-0.8-1.9-0.8-3.1
		s0.3-2.2,0.8-3.1c0.5-0.9,1.2-1.6,2.1-2.1c0.9-0.5,1.9-0.8,3-0.8c1.1,0,2.1,0.3,2.9,0.8c0.9,0.5,1.5,1.2,2,2.1
		c0.5,0.9,0.7,1.9,0.7,3.1L456.9,492.4z M448.3,488.4c-0.8,0.7-1.2,1.7-1.3,2.8h8.4c-0.1-1.2-0.5-2.1-1.3-2.8s-1.7-1.1-2.9-1.1
		C450,487.3,449.1,487.6,448.3,488.4z"/>
	<path d="M469.7,487.2c0.9,0.9,1.3,2.1,1.3,3.8v6.9h-1.6v-6.7c0-1.2-0.3-2.2-0.9-2.8c-0.6-0.6-1.5-1-2.6-1c-1.3,0-2.3,0.4-3,1.1
		c-0.7,0.8-1.1,1.8-1.1,3.1v6.2h-1.6V486h1.5v2.2c0.4-0.7,1-1.3,1.8-1.7c0.8-0.4,1.7-0.6,2.7-0.6
		C467.7,485.9,468.9,486.3,469.7,487.2z"/>
	<path d="M477.2,497.1c-0.9-0.5-1.6-1.2-2.2-2.1c-0.5-0.9-0.8-1.9-0.8-3.1s0.3-2.2,0.8-3.1c0.5-0.9,1.2-1.6,2.2-2.1
		c0.9-0.5,1.9-0.8,3.1-0.8s2.2,0.3,3.1,0.8c0.9,0.5,1.6,1.2,2.1,2.1c0.5,0.9,0.8,1.9,0.8,3.1s-0.3,2.2-0.8,3.1
		c-0.5,0.9-1.2,1.6-2.1,2.1c-0.9,0.5-1.9,0.8-3.1,0.8S478.1,497.7,477.2,497.1z M482.5,495.9c0.7-0.4,1.2-0.9,1.6-1.6
		s0.6-1.5,0.6-2.4c0-0.9-0.2-1.7-0.6-2.4s-0.9-1.2-1.6-1.6c-0.7-0.4-1.4-0.6-2.3-0.6s-1.6,0.2-2.3,0.6c-0.7,0.4-1.2,0.9-1.6,1.6
		c-0.4,0.7-0.6,1.5-0.6,2.4c0,0.9,0.2,1.7,0.6,2.4c0.4,0.7,0.9,1.2,1.6,1.6c0.7,0.4,1.4,0.6,2.3,0.6S481.9,496.3,482.5,495.9z"/>
	<path d="M505.3,486l-5.3,11.8h-1.6l-5.2-11.8h1.7l4.4,10.1l4.5-10.1H505.3z"/>
	<path d="M509,497.1c-0.9-0.5-1.6-1.2-2.2-2.1c-0.5-0.9-0.8-1.9-0.8-3.1s0.3-2.2,0.8-3.1c0.5-0.9,1.2-1.6,2.2-2.1
		c0.9-0.5,1.9-0.8,3.1-0.8s2.2,0.3,3.1,0.8c0.9,0.5,1.6,1.2,2.1,2.1c0.5,0.9,0.8,1.9,0.8,3.1s-0.3,2.2-0.8,3.1
		c-0.5,0.9-1.2,1.6-2.1,2.1c-0.9,0.5-1.9,0.8-3.1,0.8S509.9,497.7,509,497.1z M514.3,495.9c0.7-0.4,1.2-0.9,1.6-1.6s0.6-1.5,0.6-2.4
		c0-0.9-0.2-1.7-0.6-2.4s-0.9-1.2-1.6-1.6c-0.7-0.4-1.4-0.6-2.3-0.6s-1.6,0.2-2.3,0.6c-0.7,0.4-1.2,0.9-1.6,1.6
		c-0.4,0.7-0.6,1.5-0.6,2.4c0,0.9,0.2,1.7,0.6,2.4c0.4,0.7,0.9,1.2,1.6,1.6c0.7,0.4,1.4,0.6,2.3,0.6S513.7,496.3,514.3,495.9z"/>
	<path d="M521.3,481.1h1.6v16.7h-1.6V481.1z"/>
	<path d="M538,486v11.8h-1.5v-2.2c-0.4,0.7-1,1.3-1.7,1.7c-0.7,0.4-1.6,0.6-2.5,0.6c-1.5,0-2.8-0.4-3.7-1.3
		c-0.9-0.9-1.3-2.1-1.3-3.8V486h1.6v6.7c0,1.2,0.3,2.2,0.9,2.8c0.6,0.6,1.5,1,2.6,1c1.2,0,2.2-0.4,2.9-1.1c0.7-0.8,1.1-1.8,1.1-3.2
		V486H538z"/>
	<path d="M560.7,487.2c0.8,0.9,1.3,2.1,1.3,3.8v6.9h-1.6v-6.7c0-1.2-0.3-2.2-0.9-2.8c-0.6-0.6-1.4-1-2.5-1c-1.2,0-2.2,0.4-2.9,1.1
		c-0.7,0.8-1.1,1.8-1.1,3.1v6.2h-1.6v-6.7c0-1.2-0.3-2.2-0.9-2.8c-0.6-0.6-1.4-1-2.5-1c-1.2,0-2.2,0.4-2.9,1.1
		c-0.7,0.8-1.1,1.8-1.1,3.1v6.2h-1.6V486h1.5v2.2c0.4-0.7,1-1.3,1.8-1.7c0.7-0.4,1.6-0.6,2.6-0.6c1,0,1.8,0.2,2.6,0.6
		c0.7,0.4,1.3,1,1.6,1.9c0.4-0.8,1.1-1.4,1.9-1.8c0.8-0.4,1.7-0.7,2.8-0.7C558.7,485.9,559.9,486.3,560.7,487.2z"/>
	<path d="M576.7,492.4h-9.9c0.1,1.2,0.6,2.2,1.4,3c0.9,0.8,1.9,1.1,3.2,1.1c0.7,0,1.4-0.1,2-0.4c0.6-0.3,1.1-0.6,1.6-1.2l0.9,1
		c-0.5,0.6-1.2,1.1-2,1.4c-0.8,0.3-1.7,0.5-2.6,0.5c-1.2,0-2.3-0.3-3.2-0.8c-0.9-0.5-1.7-1.2-2.2-2.1c-0.5-0.9-0.8-1.9-0.8-3.1
		s0.3-2.2,0.8-3.1c0.5-0.9,1.2-1.6,2.1-2.1c0.9-0.5,1.9-0.8,3-0.8c1.1,0,2.1,0.3,2.9,0.8c0.9,0.5,1.5,1.2,2,2.1
		c0.5,0.9,0.7,1.9,0.7,3.1L576.7,492.4z M568.1,488.4c-0.8,0.7-1.2,1.7-1.3,2.8h8.4c-0.1-1.2-0.5-2.1-1.3-2.8s-1.7-1.1-2.9-1.1
		C569.8,487.3,568.9,487.6,568.1,488.4z"/>
	<path d="M596.6,481.1v16.7h-1.5v-2.3c-0.5,0.8-1.1,1.4-1.9,1.8c-0.8,0.4-1.7,0.6-2.7,0.6c-1.1,0-2.1-0.3-3-0.8s-1.6-1.2-2.1-2.1
		c-0.5-0.9-0.8-2-0.8-3.1c0-1.2,0.3-2.2,0.8-3.1c0.5-0.9,1.2-1.6,2.1-2.1s1.9-0.8,3-0.8c1,0,1.8,0.2,2.6,0.6c0.8,0.4,1.4,1,1.9,1.7
		v-7.1H596.6z M592.9,495.9c0.7-0.4,1.2-0.9,1.6-1.6s0.6-1.5,0.6-2.4c0-0.9-0.2-1.7-0.6-2.4s-0.9-1.2-1.6-1.6
		c-0.7-0.4-1.4-0.6-2.2-0.6c-0.8,0-1.6,0.2-2.3,0.6c-0.7,0.4-1.2,0.9-1.6,1.6c-0.4,0.7-0.6,1.5-0.6,2.4c0,0.9,0.2,1.7,0.6,2.4
		c0.4,0.7,0.9,1.2,1.6,1.6c0.7,0.4,1.4,0.6,2.3,0.6C591.5,496.5,592.2,496.3,592.9,495.9z"/>
	<path d="M611.4,492.4h-9.9c0.1,1.2,0.6,2.2,1.4,3c0.9,0.8,1.9,1.1,3.2,1.1c0.7,0,1.4-0.1,2-0.4c0.6-0.3,1.1-0.6,1.6-1.2l0.9,1
		c-0.5,0.6-1.2,1.1-2,1.4c-0.8,0.3-1.7,0.5-2.6,0.5c-1.2,0-2.3-0.3-3.2-0.8c-0.9-0.5-1.7-1.2-2.2-2.1c-0.5-0.9-0.8-1.9-0.8-3.1
		s0.3-2.2,0.8-3.1c0.5-0.9,1.2-1.6,2.1-2.1c0.9-0.5,1.9-0.8,3-0.8c1.1,0,2.1,0.3,2.9,0.8c0.9,0.5,1.5,1.2,2,2.1
		c0.5,0.9,0.7,1.9,0.7,3.1L611.4,492.4z M602.8,488.4c-0.8,0.7-1.2,1.7-1.3,2.8h8.4c-0.1-1.2-0.5-2.1-1.3-2.8s-1.7-1.1-2.9-1.1
		C604.5,487.3,603.6,487.6,602.8,488.4z"/>
	<path d="M631.3,481.1v16.7h-1.5v-2.3c-0.5,0.8-1.1,1.4-1.9,1.8c-0.8,0.4-1.7,0.6-2.7,0.6c-1.1,0-2.1-0.3-3-0.8s-1.6-1.2-2.1-2.1
		c-0.5-0.9-0.8-2-0.8-3.1c0-1.2,0.3-2.2,0.8-3.1c0.5-0.9,1.2-1.6,2.1-2.1s1.9-0.8,3-0.8c1,0,1.8,0.2,2.6,0.6c0.8,0.4,1.4,1,1.9,1.7
		v-7.1H631.3z M627.6,495.9c0.7-0.4,1.2-0.9,1.6-1.6s0.6-1.5,0.6-2.4c0-0.9-0.2-1.7-0.6-2.4s-0.9-1.2-1.6-1.6
		c-0.7-0.4-1.4-0.6-2.2-0.6c-0.8,0-1.6,0.2-2.3,0.6c-0.7,0.4-1.2,0.9-1.6,1.6c-0.4,0.7-0.6,1.5-0.6,2.4c0,0.9,0.2,1.7,0.6,2.4
		c0.4,0.7,0.9,1.2,1.6,1.6c0.7,0.4,1.4,0.6,2.3,0.6C626.2,496.5,626.9,496.3,627.6,495.9z"/>
	<path d="M643.4,487.1c0.8,0.8,1.2,1.9,1.2,3.4v7.3h-1.5V496c-0.4,0.6-0.9,1.1-1.6,1.4s-1.5,0.5-2.5,0.5c-1.3,0-2.4-0.3-3.1-0.9
		c-0.8-0.6-1.2-1.5-1.2-2.5c0-1,0.4-1.8,1.1-2.4c0.7-0.6,1.9-0.9,3.5-0.9h3.8v-0.7c0-1-0.3-1.8-0.9-2.3c-0.6-0.5-1.4-0.8-2.5-0.8
		c-0.7,0-1.5,0.1-2.2,0.4c-0.7,0.2-1.3,0.6-1.8,1l-0.7-1.2c0.6-0.5,1.3-0.9,2.2-1.2s1.7-0.4,2.7-0.4
		C641.4,485.9,642.6,486.3,643.4,487.1z M641.6,496c0.6-0.4,1.1-1,1.4-1.8v-1.9h-3.7c-2,0-3,0.7-3,2.1c0,0.7,0.3,1.2,0.8,1.6
		c0.5,0.4,1.3,0.6,2.2,0.6C640.2,496.7,641,496.5,641.6,496z"/>
	<path d="M659.8,481.1v16.7h-1.5v-2.3c-0.5,0.8-1.1,1.4-1.9,1.8c-0.8,0.4-1.7,0.6-2.7,0.6c-1.1,0-2.1-0.3-3-0.8s-1.6-1.2-2.1-2.1
		c-0.5-0.9-0.8-2-0.8-3.1c0-1.2,0.3-2.2,0.8-3.1c0.5-0.9,1.2-1.6,2.1-2.1s1.9-0.8,3-0.8c1,0,1.8,0.2,2.6,0.6c0.8,0.4,1.4,1,1.9,1.7
		v-7.1H659.8z M656.1,495.9c0.7-0.4,1.2-0.9,1.6-1.6s0.6-1.5,0.6-2.4c0-0.9-0.2-1.7-0.6-2.4s-0.9-1.2-1.6-1.6
		c-0.7-0.4-1.4-0.6-2.2-0.6c-0.8,0-1.6,0.2-2.3,0.6c-0.7,0.4-1.2,0.9-1.6,1.6c-0.4,0.7-0.6,1.5-0.6,2.4c0,0.9,0.2,1.7,0.6,2.4
		c0.4,0.7,0.9,1.2,1.6,1.6c0.7,0.4,1.4,0.6,2.3,0.6C654.7,496.5,655.5,496.3,656.1,495.9z"/>
	<path d="M666,497.1c-0.9-0.5-1.6-1.2-2.2-2.1c-0.5-0.9-0.8-1.9-0.8-3.1s0.3-2.2,0.8-3.1c0.5-0.9,1.2-1.6,2.2-2.1
		c0.9-0.5,1.9-0.8,3.1-0.8s2.2,0.3,3.1,0.8c0.9,0.5,1.6,1.2,2.1,2.1c0.5,0.9,0.8,1.9,0.8,3.1s-0.3,2.2-0.8,3.1
		c-0.5,0.9-1.2,1.6-2.1,2.1c-0.9,0.5-1.9,0.8-3.1,0.8S667,497.7,666,497.1z M671.4,495.9c0.7-0.4,1.2-0.9,1.6-1.6s0.6-1.5,0.6-2.4
		c0-0.9-0.2-1.7-0.6-2.4s-0.9-1.2-1.6-1.6c-0.7-0.4-1.4-0.6-2.3-0.6s-1.6,0.2-2.3,0.6c-0.7,0.4-1.2,0.9-1.6,1.6
		c-0.4,0.7-0.6,1.5-0.6,2.4c0,0.9,0.2,1.7,0.6,2.4c0.4,0.7,0.9,1.2,1.6,1.6c0.7,0.4,1.4,0.6,2.3,0.6S670.7,496.3,671.4,495.9z"/>
	<path d="M678.8,497.5c-0.9-0.3-1.6-0.6-2.1-1l0.7-1.3c0.5,0.4,1.1,0.7,1.9,1s1.5,0.4,2.3,0.4c1.1,0,1.9-0.2,2.4-0.5
		s0.8-0.8,0.8-1.4c0-0.4-0.1-0.8-0.4-1c-0.3-0.2-0.6-0.4-1.1-0.6c-0.4-0.1-1-0.3-1.7-0.4c-1-0.2-1.7-0.4-2.3-0.5s-1.1-0.5-1.5-1
		s-0.6-1.1-0.6-1.9c0-1,0.4-1.8,1.2-2.4c0.8-0.6,2-0.9,3.4-0.9c0.8,0,1.5,0.1,2.3,0.3c0.8,0.2,1.4,0.5,1.9,0.8l-0.7,1.3
		c-1-0.7-2.1-1-3.5-1c-1,0-1.8,0.2-2.3,0.5c-0.5,0.4-0.8,0.8-0.8,1.4c0,0.5,0.1,0.8,0.4,1.1s0.7,0.5,1.1,0.6c0.4,0.1,1,0.3,1.8,0.4
		c0.9,0.2,1.7,0.4,2.3,0.5s1.1,0.5,1.5,0.9c0.4,0.4,0.6,1,0.6,1.8c0,1-0.4,1.9-1.3,2.5s-2.1,0.9-3.6,0.9
		C680.6,497.9,679.7,497.8,678.8,497.5z"/>
</g>
<circle class="st2" cx="121.7" cy="488" r="15.3"/>
<circle class="st3" cx="356.4" cy="488" r="15.3"/>
<path class="st2" d="M39.6,90.6h30.1c0,0-6.9,206.4,118.6,252.2c0,13.8,0,79.1,0,79.1H41.9L39.6,90.6z"/>
<path class="st3" d="M197.7,346.6c0,32.6,0,75.3,0,75.3h581v-18.8C778.7,403.1,362.1,421.9,197.7,346.6z"/>
<polygon class="st4" points="21.7,0 13,15.1 30.4,15.1 "/>
<polygon class="st4" points="786.2,442.8 771.2,434.1 771.2,451.5 "/>
</svg>
