<svg xmlns="http://www.w3.org/2000/svg" viewBox="0 0 171.73 186.27"><defs><style>.cls-1{fill:#b2550f;}.cls-2{fill:#ff8831;}.cls-3{fill:#febf00;}.cls-4{fill:#f05e23;}</style></defs><title>img6</title><g id="Layer_2" data-name="Layer 2"><g id="Layer_1-2" data-name="Layer 1"><path class="cls-1" d="M171.73,17.35a2.82,2.82,0,0,0-.22-1.11,2.89,2.89,0,0,0-2.69-1.8H61.09V2.91A2.91,2.91,0,0,0,59.27.22,2.44,2.44,0,0,0,58.66.1a2.56,2.56,0,0,0-.48-.1H20.37a3,3,0,0,0-1.11.22,2.84,2.84,0,0,0-1,.64L.86,18.3a2.86,2.86,0,0,0-.63,1A2.82,2.82,0,0,0,0,20.36v37.8a2.91,2.91,0,0,0,2.91,2.91H17.54V89L1.26,105.27A2.88,2.88,0,0,0,0,107.61s0,0,0,.06,0,0,0,.06H0v37.81H0v37.8a2.91,2.91,0,0,0,2.91,2.91H116.36a3.1,3.1,0,0,0,1.12-.22,2.76,2.76,0,0,0,.94-.64L135.87,168l0-.05h0l17.45-17.45,0,0,0,0L170.87,133a2.8,2.8,0,0,0,.64-1,3,3,0,0,0,.22-1.11V96h0V58.19s0,0,0-.07,0,0,0-.06V17.35ZM21.66,93.15H37.79V104.7H10.08ZM60.24,42.77a2.92,2.92,0,0,0,.63-1,2.82,2.82,0,0,0,.22-1.11v-3h7.54L57,49.45H53.56ZM94.37,20.26h29.56L112.24,31.94H82.68Zm67.43,0L150.11,31.94H120.47l11.69-11.68Zm4.11,71.61-11.68,11.68V75.69s0,0,0-.06,0,0,0-.06V73.86l11.68-11.69ZM43.61,104.7v-32h32v32ZM76.86,37.76h29.57L94.74,49.45H65.18ZM119.28,71l11.63-11.63V89l-11.63,11.64Zm17.45-17.45,11.68-11.68V71.44L136.73,83.13Zm-4.11-4.12H103l11.69-11.68H144.3ZM97.16,55.26H126.8L115.16,66.9H85.52ZM81.48,72.72h32v32h-32Zm37.8,36.1,11.63-11.64v29.7l-11.63,11.63Zm17.45-17.47,11.68-11.68v29.71l-11.68,11.68Zm29.18-37.41L154.23,65.63V36.05l11.68-11.68ZM59.36,55.26H88.93L77.29,66.9H47.72ZM5.82,110.52h32v32.11h-32Zm37.8,0h32v32.11h-32Zm37.86,0h32v32.11h-32Zm37.8,36.22,11.63-11.64v29.61l-11.63,11.63Zm17.45-17.45,11.68-11.69v29.6l-11.68,11.68Zm17.5-17.51,11.68-11.68v29.6l-11.68,11.68ZM86.14,20.26,74.46,31.94H61.09V20.26ZM40.69,61.08h0a2.89,2.89,0,0,0,2.06-.85l5-5h3.39L38.64,67.75a2.92,2.92,0,0,0-.63,1,2.82,2.82,0,0,0-.22,1.11V87.33H23.37V61.08ZM5.82,148.45h32v32h-32Zm37.8,32v-32h32v32Zm37.86-32h32v32h-32Z"/><rect class="cls-2" x="5.82" y="23.27" width="31.98" height="31.98"/><polygon class="cls-3" points="21.57 5.82 51.14 5.82 39.51 17.45 9.94 17.45 21.57 5.82"/><polyline class="cls-4" points="43.62 21.57 43.62 21.57 55.28 9.91 55.27 39.51 43.62 51.16 43.62 21.57"/></g></g></svg>