<?xml version="1.0" encoding="utf-8"?>
<!-- Generator: Adobe Illustrator 24.0.2, SVG Export Plug-In . SVG Version: 6.00 Build 0)  -->
<svg version="1.1" id="Layer_1" xmlns="http://www.w3.org/2000/svg" xmlns:xlink="http://www.w3.org/1999/xlink" x="0px" y="0px"
	 viewBox="0 0 179.4 179.4" style="enable-background:new 0 0 179.4 179.4;" xml:space="preserve">
<style type="text/css">
	.st0{fill:#FF8831;}
</style>
<title>img6</title>
<g id="Layer_2_1_">
	<g id="Layer_1-2">
		<path class="st0" d="M161.1,22.8h-43.4V3.7c0-2.1-1.7-3.8-3.8-3.8H65.5c-2.1,0-3.8,1.7-3.8,3.8v19.1H18.3c-2.1,0-3.8,1.7-3.8,3.8
			v23.8c0,2.1,1.7,3.8,3.8,3.8c0,0,0,0,0,0h9v97c0,15.6,12.7,28.2,28.3,28.3h68.3c15.6,0,28.2-12.7,28.3-28.3v-97h9
			c2.1,0,3.8-1.7,3.8-3.8c0,0,0,0,0,0V26.6C164.9,24.5,163.2,22.8,161.1,22.8L161.1,22.8z M69.3,7.6h40.8v15.3H69.3V7.6z
			 M144.5,151.2c0,11.4-9.2,20.6-20.6,20.6H55.6c-11.4,0-20.6-9.2-20.6-20.6v-97h109.5V151.2z M157.3,46.6H22.1V30.5h135.2
			L157.3,46.6L157.3,46.6z"/>
		<path class="st0" d="M56,152.4c2.1,0,3.8-1.7,3.8-3.8v-71c0-2.1-1.7-3.8-3.8-3.8c-2.1,0-3.8,1.7-3.8,3.8c0,0,0,0,0,0v71
			C52.2,150.7,53.9,152.4,56,152.4z"/>
		<path class="st0" d="M89.7,152.4c2.1,0,3.8-1.7,3.8-3.8v-71c0-2.1-1.7-3.8-3.8-3.8c-2.1,0-3.8,1.7-3.8,3.8v71
			C85.9,150.7,87.6,152.4,89.7,152.4C89.7,152.4,89.7,152.4,89.7,152.4z"/>
		<path class="st0" d="M123.4,152.4c2.1,0,3.8-1.7,3.8-3.8v-71c0.1-2.1-1.5-3.9-3.6-4c-2.1-0.1-3.9,1.5-4,3.6c0,0.1,0,0.3,0,0.4v71
			C119.6,150.7,121.2,152.4,123.4,152.4C123.4,152.4,123.4,152.4,123.4,152.4z"/>
	</g>
</g>
</svg>
