<?xml version="1.0" encoding="utf-8"?>
<!-- Generator: Adobe Illustrator 24.0.2, SVG Export Plug-In . SVG Version: 6.00 Build 0)  -->
<svg version="1.1" id="Layer_1" xmlns="http://www.w3.org/2000/svg" xmlns:xlink="http://www.w3.org/1999/xlink" x="0px" y="0px"
	 viewBox="0 0 179.4 179.4" style="enable-background:new 0 0 179.4 179.4;" xml:space="preserve">
<style type="text/css">
	.st0{fill:#FF8831;}
</style>
<title>img7</title>
<g id="Layer_2_1_">
	<g id="Layer_1-2">
		<path class="st0" d="M176.4,29.9c1.7,0,3-1.3,3-3V15c0-8.3-6.7-15-15-15H38.9c-8.3,0-15,6.7-14.9,15v23.9H9c-5,0-9,4-9,9v83.7
			c0,5,4,9,9,9h15v9H3c-1.7,0-3,1.3-3,3v12c0,8.3,6.7,15,15,14.9h125.5c8.3,0,15-6.7,15-14.9v-24.1h14.9c5,0,9-4,9-9V47.8
			c0-5-4-9-9-9h-15v-9L176.4,29.9z M173.4,14.9v9h-17.9v-9c-0.4-5,3.3-9.3,8.2-9.7c5-0.4,9.3,3.3,9.7,8.2
			C173.5,14,173.5,14.5,173.4,14.9L173.4,14.9z M15,173.4c-5,0-9-4-9-9v-9h119.6v9c0,3.3,1.1,6.4,3.1,9H15z M149.6,164.4
			c-0.4,5-4.8,8.6-9.7,8.2c-4.4-0.4-7.9-3.8-8.2-8.2v-12c0-1.7-1.3-3-3-3H29.9v-9h119.6L149.6,164.4z M173.4,47.8v83.7
			c0,1.7-1.3,3-3,3H9c-1.7,0-3-1.3-3-3V47.8c0-1.7,1.3-3,3-3h161.4C172.1,44.8,173.4,46.2,173.4,47.8z M29.9,38.8V15c0-5,4-9,9-9
			h113.7c-2,2.6-3.1,5.7-3.1,9v23.9L29.9,38.8z"/>
		<path class="st0" d="M17.9,56.8h6v6h-6V56.8z"/>
		<path class="st0" d="M26.9,56.8h17.9v6H26.9V56.8z"/>
		<path class="st0" d="M17.9,65.8h6v6h-6V65.8z"/>
		<path class="st0" d="M26.9,65.8h17.9v6H26.9V65.8z"/>
		<path class="st0" d="M17.9,107.7h6v6h-6V107.7z"/>
		<path class="st0" d="M26.9,107.7h17.9v6H26.9V107.7z"/>
		<path class="st0" d="M17.9,116.6h6v6h-6V116.6z"/>
		<path class="st0" d="M26.9,116.6h17.9v6H26.9V116.6z"/>
		<path class="st0" d="M134.6,56.8h6v6h-6V56.8z"/>
		<path class="st0" d="M143.5,56.8h17.9v6h-17.9V56.8z"/>
		<path class="st0" d="M134.6,65.8h6v6h-6V65.8z"/>
		<path class="st0" d="M143.5,65.8h17.9v6h-17.9V65.8z"/>
		<path class="st0" d="M76.3,113c4.1,2.4,8.7,3.6,13.4,3.6c2.4,0,4.7-0.3,7-0.9c6.2-1.6,11.6-5.4,15.2-10.7l29.2,16.8
			c1.5,0.7,3.3,0.1,4-1.4c0.7-1.3,0.2-3-1-3.8l-29.3-16.9c5.5-13.8-1.2-29.4-15-35s-29.4,1.2-35,15C59.8,92.1,64.7,106.3,76.3,113z
			 M71.6,79.2c5.8-10,18.6-13.4,28.6-7.7s13.4,18.6,7.7,28.6s-18.6,13.4-28.6,7.7c-1.6-0.9-3-2-4.3-3.3
			C68.2,97.8,66.8,87.4,71.6,79.2z"/>
		<path class="st0" d="M81.7,104.9c8.6,5,19.6,2,24.5-6.6c0,0,0,0,0,0c0.9-1.4,0.6-3.2-0.8-4.2c-1.4-0.9-3.2-0.6-4.2,0.8
			c-0.1,0.1-0.1,0.2-0.2,0.4c-3.4,5.7-10.7,7.6-16.4,4.3c-2.7-1.6-4.7-4.1-5.5-7.1c-0.5-1.6-2.2-2.4-3.8-1.9c-1.5,0.5-2.3,2-2,3.5
			C74.6,98.6,77.6,102.5,81.7,104.9z"/>
	</g>
</g>
</svg>
