<?xml version="1.0" encoding="utf-8"?>
<!-- Generator: Adobe Illustrator 24.0.2, SVG Export Plug-In . SVG Version: 6.00 Build 0)  -->
<svg version="1.1" id="Layer_1" xmlns="http://www.w3.org/2000/svg" xmlns:xlink="http://www.w3.org/1999/xlink" x="0px" y="0px"
	 viewBox="0 0 179.4 179.4" style="enable-background:new 0 0 179.4 179.4;" xml:space="preserve">
<style type="text/css">
	.st0{fill:#FF8831;}
</style>
<title>img8</title>
<g id="Layer_2_1_">
	<g id="Layer_1-2">
		<path class="st0" d="M160.8,94.5c-0.2-7.8-6.7-14-14.5-14h-21.9c0,0-0.1,0-0.1,0l-6.2-6.8V52.1c0-7.9-6.4-14.4-14.3-14.5
			c-0.3-7.8-6.7-14-14.5-14H67.6c0,0,0,0-0.1,0l-7.9-8.7c-2.7-3-6.6-4.7-10.7-4.7H22.7c-8,0-14.5,6.5-14.5,14.5V101
			c0,8,6.5,14.5,14.5,14.5h42.4v42.4c0,8,6.5,14.5,14.5,14.5h81c8,0,14.5-6.5,14.5-14.5V109C175.1,101.1,168.7,94.6,160.8,94.5z
			 M22.7,109.8c-4.9,0-8.8-3.9-8.8-8.8V24.6c0-4.9,3.9-8.8,8.8-8.8h26.2c2.5,0,4.8,1,6.5,2.9l7.9,8.7c1.1,1.2,2.6,1.9,4.2,1.9h21.8
			c4.7,0,8.6,3.7,8.8,8.4H47.3c-8,0-14.4,6.5-14.5,14.4V101c0,4.9-3.9,8.8-8.8,8.8L22.7,109.8z M65.2,81.6v28.3H35.4
			c2-2.5,3-5.6,3-8.8V52.1c0-4.9,3.9-8.8,8.8-8.8h56.4c4.9,0,8.8,3.9,8.8,8.8v16.7c-2.1-1.1-4.4-1.7-6.7-1.7H79.7
			C71.7,67.1,65.2,73.6,65.2,81.6z M79.7,166.7c-4.9,0-8.8-3.9-8.8-8.8V81.6c0-4.9,3.9-8.8,8.8-8.8h26.1c2.5,0,4.8,1,6.5,2.9
			l7.9,8.7c1.1,1.2,2.6,1.9,4.2,1.9h21.9c4.7,0,8.6,3.7,8.8,8.4h-51c-8,0-14.5,6.5-14.5,14.5v48.9c0,4.9-4,8.8-8.8,8.8L79.7,166.7z
			 M169.5,157.9c0,4.9-3.9,8.8-8.8,8.8H92.4l0.1-0.1l0.1-0.2c0.1-0.1,0.2-0.2,0.3-0.4s0.1-0.1,0.1-0.2s0.2-0.3,0.3-0.4l0.1-0.2
			c0.2-0.4,0.4-0.8,0.6-1.2L94,164c0.1-0.1,0.1-0.3,0.2-0.4l0.1-0.2l0.2-0.4l0.1-0.2c0.1-0.1,0.1-0.3,0.1-0.4c0-0.1,0-0.1,0.1-0.2
			c0.1-0.4,0.2-0.9,0.3-1.3c0-0.1,0-0.1,0-0.2c0-0.2,0.1-0.3,0.1-0.5c0-0.1,0-0.2,0-0.2c0-0.1,0-0.3,0.1-0.4v-0.2c0-0.2,0-0.3,0-0.5
			c0-0.1,0-0.1,0-0.2c0-0.2,0-0.5,0-0.7V109c0-4.9,3.9-8.8,8.8-8.8h56.6c4.9,0,8.8,3.9,8.8,8.8L169.5,157.9z"/>
		<path class="st0" d="M18.6,139.9c-3.5-3.5-5.5-8.3-5.5-13.3c-0.1-1.6-1.4-2.8-3-2.7c-1.4,0.1-2.6,1.2-2.7,2.7
			c0,13.4,10.8,24.4,24.3,24.4c0,0,0.1,0,0.1,0h16.3l-7.4,7.6c-1.1,1.1-1.1,2.9,0,4c1.1,1.1,2.9,1.1,4,0c0,0,0,0,0,0l11.8-12.2
			c1.1-1.1,1.1-2.8,0-3.9l-11.8-12.3c-1.1-1.1-2.9-1.2-4-0.1s-1.2,2.9-0.1,4l7,7.3h-16C26.9,145.4,22.1,143.4,18.6,139.9z"/>
	</g>
</g>
</svg>
