<?xml version="1.0" encoding="utf-8"?>
<!-- Generator: Adobe Illustrator 23.0.2, SVG Export Plug-In . SVG Version: 6.00 Build 0)  -->
<svg version="1.1" id="Layer_1" xmlns="http://www.w3.org/2000/svg" xmlns:xlink="http://www.w3.org/1999/xlink" x="0px" y="0px"
	 viewBox="0 0 100 100" style="enable-background:new 0 0 100 100;" xml:space="preserve">
<style type="text/css">
	.st0{fill:#46BC93;}
</style>
<g id="Big_data">
	<path class="st0" d="M82.8,63.4v-25c2.9-0.7,4.7-3.7,3.9-6.6c-0.7-2.9-3.7-4.7-6.6-3.9c-0.9,0.2-1.7,0.6-2.3,1.2L55.4,16.2
		c0-0.3,0.1-0.5,0.1-0.8c0-3-2.4-5.5-5.5-5.5c-3,0-5.5,2.4-5.5,5.5c0,0.3,0,0.5,0.1,0.8L22.2,29.1c-2.2-2-5.7-1.8-7.7,0.4
		s-1.8,5.7,0.4,7.7c0.7,0.6,1.4,1,2.3,1.2v25c-2.9,0.7-4.7,3.7-3.9,6.6s3.7,4.7,6.6,3.9c0.9-0.2,1.7-0.6,2.3-1.2l22.4,12.9
		c0,0.3-0.1,0.5-0.1,0.8c0,3,2.4,5.5,5.5,5.5c3,0,5.5-2.4,5.5-5.5c0-0.3,0-0.5-0.1-0.8l22.4-12.9c2.2,2,5.7,1.8,7.7-0.4
		s1.8-5.7-0.4-7.7C84.4,64.1,83.6,63.7,82.8,63.4z M62.9,67.3l3.3-5.7l10,5.6l0,0H62.9z M23.8,67.3L23.8,67.3l9.9-5.7l3.3,5.7H23.8z
		 M37.1,34.5l-3.3,5.7l-10-5.6l0,0L37.1,34.5z M76.2,34.5L76.2,34.5l-9.9,5.7l-3.3-5.7H76.2z M79.9,63.5l-7.4-12.5l7.4-12.5
		c0,0,0.1,0,0.1,0v25C80,63.4,80,63.5,79.9,63.5z M77.5,64.9l-9.9-5.6l3.4-5.7L77.5,64.9C77.5,64.9,77.5,64.9,77.5,64.9z M55.3,49.5
		l10-5.6l4.1,7l-4.1,7l-10-5.6C55.5,51.4,55.5,50.5,55.3,49.5L55.3,49.5z M77.6,37L71,48.2l-3.4-5.7L77.6,37
		C77.5,37,77.5,37,77.6,37z M63.8,41.6l-9.9,5.6c-0.7-0.7-1.6-1.2-2.6-1.5V34.5h8.3L63.8,41.6z M50,53.7c-1.5,0-2.7-1.2-2.7-2.7
		s1.2-2.7,2.7-2.7s2.7,1.2,2.7,2.7S51.5,53.7,50,53.7z M51.4,31.8V20.7c0,0,0.1,0,0.1,0l6.6,11.2H51.4z M48.6,20.7v11.1h-6.7
		l6.6-11.2C48.5,20.7,48.6,20.7,48.6,20.7z M48.6,34.5v11.1c-1,0.2-1.9,0.8-2.6,1.5l-9.9-5.6l4.1-7H48.6z M22.4,64.8L29,53.6
		l3.4,5.7L22.4,64.8C22.5,64.9,22.5,64.9,22.4,64.8z M30.6,50.9l4.1-7l10,5.6c-0.3,0.9-0.3,1.9,0,2.8l-10,5.6L30.6,50.9z M22.5,37
		l9.9,5.6L29,48.3L22.5,37C22.5,37,22.5,37,22.5,37z M20.1,38.4l7.4,12.5l-7.4,12.5c0,0-0.1,0-0.1,0v-25C20,38.4,20,38.4,20.1,38.4z
		 M36.2,60.3l9.9-5.6c0.7,0.7,1.6,1.2,2.6,1.5v11.1h-8.3L36.2,60.3z M48.6,70.1v11.1c0,0-0.1,0-0.1,0l-6.6-11.2H48.6z M51.4,81.2
		V70.1h6.7l-6.6,11.2C51.5,81.2,51.4,81.2,51.4,81.2z M51.4,67.3V56.2c1-0.2,1.9-0.8,2.6-1.5l9.9,5.6l-4.1,7H51.4z M81.4,30.4
		c1.5,0,2.7,1.2,2.7,2.7c0,1.5-1.2,2.7-2.7,2.7c-1.5,0-2.7-1.2-2.7-2.7C78.7,31.7,79.9,30.4,81.4,30.4z M76.3,31.4
		c0,0.1-0.1,0.3-0.1,0.4H61.3l-7.4-12.5c0.2-0.2,0.3-0.4,0.5-0.5L76.3,31.4z M50,12.7c1.5,0,2.7,1.2,2.7,2.7s-1.2,2.7-2.7,2.7
		s-2.7-1.2-2.7-2.7S48.5,12.7,50,12.7z M46.1,19.3l-7.4,12.5H23.9c0-0.1-0.1-0.3-0.1-0.4l22-12.7C45.8,18.9,46,19.1,46.1,19.3z
		 M15.8,33.2c0-1.5,1.2-2.7,2.7-2.7c1.5,0,2.7,1.2,2.7,2.7c0,1.5-1.2,2.7-2.7,2.7C17.1,35.9,15.8,34.7,15.8,33.2z M18.6,71.4
		c-1.5,0-2.7-1.2-2.7-2.7c0-1.5,1.2-2.7,2.7-2.7c1.5,0,2.7,1.2,2.7,2.7C21.3,70.2,20.1,71.4,18.6,71.4z M23.7,70.5
		c0-0.1,0.1-0.3,0.1-0.4h14.9l7.4,12.5c-0.2,0.2-0.3,0.4-0.5,0.6L23.7,70.5z M50,89.2c-1.5,0-2.7-1.2-2.7-2.7c0-1.5,1.2-2.7,2.7-2.7
		s2.7,1.2,2.7,2.7C52.7,88,51.5,89.2,50,89.2z M53.9,82.6l7.4-12.5h14.9c0,0.1,0.1,0.3,0.1,0.4l-22,12.7C54.2,83,54,82.8,53.9,82.6z
		 M81.4,71.4c-1.5,0-2.7-1.2-2.7-2.7c0-1.5,1.2-2.7,2.7-2.7c1.5,0,2.7,1.2,2.7,2.7C84.2,70.2,82.9,71.4,81.4,71.4z"/>
</g>
</svg>
