<?xml version="1.0" encoding="utf-8"?>
<!-- Generator: Adobe Illustrator 22.0.1, SVG Export Plug-In . SVG Version: 6.00 Build 0)  -->
<svg version="1.1" id="Layer_1" xmlns="http://www.w3.org/2000/svg" xmlns:xlink="http://www.w3.org/1999/xlink" x="0px" y="0px"
	 viewBox="0 0 100 100" style="enable-background:new 0 0 100 100;" xml:space="preserve">
<style type="text/css">
	.st0{fill:#46BC93;}
</style>
<g>
	<path class="st0" d="M74.4,55.2c-0.5-1.3-1.2-2.5-1.9-3.6V30.5c0-6-2.3-11.6-6.6-15.9C61.7,10.4,56.1,8,50.1,8c0,0,0,0,0,0
		c-6,0-11.6,2.3-15.9,6.6c-4.2,4.2-6.6,9.9-6.6,15.9v3.1h9v-3.1c0-3.6,1.4-7,3.9-9.5c2.5-2.5,5.9-3.9,9.5-3.9c0,0,0,0,0,0
		c7.4,0,13.5,6,13.5,13.5v12.3c-1-0.6-2.1-1.2-3.2-1.6C57,39.7,53.6,39,50,39c-3.6,0-7,0.7-10.3,2.1c-3.2,1.3-6,3.2-8.4,5.7
		c-2.4,2.4-4.3,5.3-5.7,8.4c-1.4,3.3-2.1,6.7-2.1,10.3c0,3.6,0.7,7,2.1,10.3c1.3,3.2,3.2,6,5.7,8.4c2.4,2.4,5.3,4.3,8.4,5.7
		C43,91.3,46.4,92,50,92c3.6,0,7-0.7,10.3-2.1c3.2-1.3,6-3.2,8.4-5.7c2.4-2.4,4.3-5.3,5.7-8.4c1.4-3.3,2.1-6.7,2.1-10.3
		C76.5,61.9,75.8,58.5,74.4,55.2z M50,83c-9.6,0-17.5-7.8-17.5-17.5S40.4,48,50,48c9.6,0,17.5,7.8,17.5,17.5S59.6,83,50,83z"/>
	<circle class="st0" cx="50.1" cy="65.6" r="7.4"/>
</g>
</svg>
