<?xml version="1.0" encoding="utf-8"?>
<!-- Generator: Adobe Illustrator 22.0.1, SVG Export Plug-In . SVG Version: 6.00 Build 0)  -->
<svg version="1.1" id="icons" xmlns="http://www.w3.org/2000/svg" xmlns:xlink="http://www.w3.org/1999/xlink" x="0px" y="0px"
	 viewBox="0 0 100 100" style="enable-background:new 0 0 100 100;" xml:space="preserve">
<style type="text/css">
	.st0{display:none;}
	.st1{display:inline;fill:#46BC93;}
	.st2{fill:#46BC93;}
</style>
<g id="ic1_1_" class="st0">
	<path class="st1" d="M74.4,55.2c-0.5-1.3-1.2-2.5-1.9-3.6V30.5c0-6-2.3-11.6-6.6-15.9C61.7,10.4,56.1,8,50.1,8c0,0,0,0,0,0
		c-6,0-11.6,2.3-15.9,6.6c-4.2,4.2-6.6,9.9-6.6,15.9v3.1h9v-3.1c0-3.6,1.4-7,3.9-9.5c2.5-2.5,5.9-3.9,9.5-3.9c0,0,0,0,0,0
		c7.4,0,13.5,6,13.5,13.5v12.3c-1-0.6-2.1-1.2-3.2-1.6C57,39.7,53.6,39,50,39c-3.6,0-7,0.7-10.3,2.1c-3.2,1.3-6,3.2-8.4,5.7
		c-2.4,2.4-4.3,5.3-5.7,8.4c-1.4,3.3-2.1,6.7-2.1,10.3c0,3.6,0.7,7,2.1,10.3c1.3,3.2,3.2,6,5.7,8.4c2.4,2.4,5.3,4.3,8.4,5.7
		C43,91.3,46.4,92,50,92c3.6,0,7-0.7,10.3-2.1c3.2-1.3,6-3.2,8.4-5.7c2.4-2.4,4.3-5.3,5.7-8.4c1.4-3.3,2.1-6.7,2.1-10.3
		C76.5,61.9,75.8,58.5,74.4,55.2z M50,83c-9.6,0-17.5-7.8-17.5-17.5S40.4,48,50,48c9.6,0,17.5,7.8,17.5,17.5S59.6,83,50,83z"/>
	<circle class="st1" cx="50.1" cy="65.6" r="7.4"/>
</g>
<g id="ic2">
	<g>
		<path class="st2" d="M81.5,32.1C80.3,25.7,74.7,21,68,21c-0.7,0-1.4,0.1-2.1,0.2c-4.3-7-11.8-11.3-20-11.3
			c-11.5,0-21.2,8.3-23.1,19.5c-0.6-0.1-1.2-0.1-1.8-0.1c-8.4,0-15.2,6.8-15.2,15.2c0,8.4,6.8,15.2,15.2,15.2H32
			c0.7,0,1.3-0.6,1.3-1.3S32.7,57,32,57H20.9C14,57,8.3,51.4,8.3,44.5c0-6.9,5.6-12.6,12.6-12.6c0.9,0,1.8,0.1,2.6,0.3
			c0.4,0.1,0.7,0,1-0.2c0.3-0.2,0.5-0.5,0.5-0.9c1.2-10.6,10.1-18.6,20.7-18.6c7.6,0,14.6,4.1,18.2,10.7c0.3,0.5,0.9,0.8,1.4,0.6
			c0.8-0.2,1.7-0.3,2.5-0.3c5.7,0,10.5,4.3,11.1,9.9c0.1,0.7,0.6,1.2,1.3,1.2c0,0,0,0,0,0c0,0,0.1,0,0.1,0c6.1,0,11.1,5,11.1,11.2
			c0,6.2-5,11.2-11.2,11.2H58.2v-5.9c1.6-0.5,2.8-2.1,2.8-3.9V30.6c0-2.2-1.8-4.1-4.1-4.1H40.3c-2.2,0-4.1,1.8-4.1,4.1v16.6
			c0,1.8,1.2,3.3,2.8,3.9V57h-1.5c-0.7,0-1.3,0.6-1.3,1.3s0.6,1.3,1.3,1.3H39v5.7h-8.7c-0.5-1.6-2.1-2.8-3.9-2.8
			c-2.2,0-4.1,1.8-4.1,4.1c0,2.2,1.8,4.1,4.1,4.1c1.8,0,3.3-1.2,3.9-2.8H39v5.9c-1.6,0.5-2.8,2.1-2.8,3.9c0,2.2,1.8,4.1,4.1,4.1
			c2.2,0,4.1-1.8,4.1-4.1c0-1.8-1.2-3.3-2.8-3.9V59.6h5.7v22.6c-1.6,0.5-2.8,2.1-2.8,3.9c0,2.2,1.8,4.1,4.1,4.1
			c2.2,0,4.1-1.8,4.1-4.1c0-1.8-1.2-3.3-2.8-3.9V59.6h5.7v14.2c-1.6,0.5-2.8,2.1-2.8,3.9c0,2.2,1.8,4.1,4.1,4.1S61,80,61,77.7
			c0-1.8-1.2-3.3-2.8-3.9v-5.9h8.7c0.5,1.6,2.1,2.8,3.9,2.8c2.2,0,4.1-1.8,4.1-4.1c0-2.2-1.8-4.1-4.1-4.1c-1.8,0-3.3,1.2-3.9,2.8
			h-8.7v-5.7h22.3c7.6,0,13.8-6.2,13.8-13.8C94.2,38.6,88.6,32.6,81.5,32.1z M26.4,68.1c-0.8,0-1.5-0.7-1.5-1.5s0.7-1.5,1.5-1.5
			c0.8,0,1.5,0.7,1.5,1.5S27.3,68.1,26.4,68.1z M41.8,77.7c0,0.8-0.7,1.5-1.5,1.5s-1.5-0.7-1.5-1.5c0-0.8,0.7-1.5,1.5-1.5
			S41.8,76.9,41.8,77.7z M47.3,57h-5.7v-5.7h5.7V57z M50.1,86c0,0.8-0.7,1.5-1.5,1.5c-0.8,0-1.5-0.7-1.5-1.5s0.7-1.5,1.5-1.5
			S50.1,85.2,50.1,86z M55.6,57h-5.7v-5.7h5.7V57z M49.9,48.7v-2.9h4.2c0.7,0,1.3-0.6,1.3-1.3v-5.5c0-0.7-0.6-1.3-1.3-1.3
			s-1.3,0.6-1.3,1.3v4.2h-8.5v-8.5h9.8c0.7,0,1.3-0.6,1.3-1.3s-0.6-1.3-1.3-1.3H43.1c-0.7,0-1.3,0.6-1.3,1.3v11.1
			c0,0.7,0.6,1.3,1.3,1.3h4.2v2.9h-7c-0.8,0-1.5-0.7-1.5-1.5V30.6h0c0-0.8,0.7-1.5,1.5-1.5h16.6c0.8,0,1.5,0.7,1.5,1.5v16.6
			c0,0.8-0.7,1.5-1.5,1.5H49.9z M58.4,77.7c0,0.8-0.7,1.5-1.5,1.5c-0.8,0-1.5-0.7-1.5-1.5c0-0.8,0.7-1.5,1.5-1.5
			S58.4,76.9,58.4,77.7z M70.8,65.2c0.8,0,1.5,0.7,1.5,1.5c0,0.8-0.7,1.5-1.5,1.5s-1.5-0.7-1.5-1.5C69.3,65.8,70,65.2,70.8,65.2z"/>
	</g>
</g>
</svg>
