<?xml version="1.0" encoding="utf-8"?>
<!-- Generator: Adobe Illustrator 22.0.1, SVG Export Plug-In . SVG Version: 6.00 Build 0)  -->
<svg version="1.1" id="icons" xmlns="http://www.w3.org/2000/svg" xmlns:xlink="http://www.w3.org/1999/xlink" x="0px" y="0px"
	 viewBox="0 0 100 100" style="enable-background:new 0 0 100 100;" xml:space="preserve">
<style type="text/css">
	.st0{display:none;}
	.st1{display:inline;fill:#46BC93;}
	.st2{display:inline;}
	.st3{fill:#46BC93;}
</style>
<g id="ic1_1_" class="st0">
	<path class="st1" d="M74.4,55.2c-0.5-1.3-1.2-2.5-1.9-3.6V30.5c0-6-2.3-11.6-6.6-15.9C61.7,10.4,56.1,8,50.1,8c0,0,0,0,0,0
		c-6,0-11.6,2.3-15.9,6.6c-4.2,4.2-6.6,9.9-6.6,15.9v3.1h9v-3.1c0-3.6,1.4-7,3.9-9.5c2.5-2.5,5.9-3.9,9.5-3.9c0,0,0,0,0,0
		c7.4,0,13.5,6,13.5,13.5v12.3c-1-0.6-2.1-1.2-3.2-1.6C57,39.7,53.6,39,50,39c-3.6,0-7,0.7-10.3,2.1c-3.2,1.3-6,3.2-8.4,5.7
		c-2.4,2.4-4.3,5.3-5.7,8.4c-1.4,3.3-2.1,6.7-2.1,10.3c0,3.6,0.7,7,2.1,10.3c1.3,3.2,3.2,6,5.7,8.4c2.4,2.4,5.3,4.3,8.4,5.7
		C43,91.3,46.4,92,50,92c3.6,0,7-0.7,10.3-2.1c3.2-1.3,6-3.2,8.4-5.7c2.4-2.4,4.3-5.3,5.7-8.4c1.4-3.3,2.1-6.7,2.1-10.3
		C76.5,61.9,75.8,58.5,74.4,55.2z M50,83c-9.6,0-17.5-7.8-17.5-17.5S40.4,48,50,48c9.6,0,17.5,7.8,17.5,17.5S59.6,83,50,83z"/>
	<circle class="st1" cx="50.1" cy="65.6" r="7.4"/>
</g>
<g id="ic2" class="st0">
	<g class="st2">
		<path class="st3" d="M81.5,32.1C80.3,25.7,74.7,21,68,21c-0.7,0-1.4,0.1-2.1,0.2c-4.3-7-11.8-11.3-20-11.3
			c-11.5,0-21.2,8.3-23.1,19.5c-0.6-0.1-1.2-0.1-1.8-0.1c-8.4,0-15.2,6.8-15.2,15.2c0,8.4,6.8,15.2,15.2,15.2H32
			c0.7,0,1.3-0.6,1.3-1.3S32.7,57,32,57H20.9C14,57,8.3,51.4,8.3,44.5c0-6.9,5.6-12.6,12.6-12.6c0.9,0,1.8,0.1,2.6,0.3
			c0.4,0.1,0.7,0,1-0.2c0.3-0.2,0.5-0.5,0.5-0.9c1.2-10.6,10.1-18.6,20.7-18.6c7.6,0,14.6,4.1,18.2,10.7c0.3,0.5,0.9,0.8,1.4,0.6
			c0.8-0.2,1.7-0.3,2.5-0.3c5.7,0,10.5,4.3,11.1,9.9c0.1,0.7,0.6,1.2,1.3,1.2c0,0,0,0,0,0c0,0,0.1,0,0.1,0c6.1,0,11.1,5,11.1,11.2
			c0,6.2-5,11.2-11.2,11.2H58.2v-5.9c1.6-0.5,2.8-2.1,2.8-3.9V30.6c0-2.2-1.8-4.1-4.1-4.1H40.3c-2.2,0-4.1,1.8-4.1,4.1v16.6
			c0,1.8,1.2,3.3,2.8,3.9V57h-1.5c-0.7,0-1.3,0.6-1.3,1.3s0.6,1.3,1.3,1.3H39v5.7h-8.7c-0.5-1.6-2.1-2.8-3.9-2.8
			c-2.2,0-4.1,1.8-4.1,4.1c0,2.2,1.8,4.1,4.1,4.1c1.8,0,3.3-1.2,3.9-2.8H39v5.9c-1.6,0.5-2.8,2.1-2.8,3.9c0,2.2,1.8,4.1,4.1,4.1
			c2.2,0,4.1-1.8,4.1-4.1c0-1.8-1.2-3.3-2.8-3.9V59.6h5.7v22.6c-1.6,0.5-2.8,2.1-2.8,3.9c0,2.2,1.8,4.1,4.1,4.1
			c2.2,0,4.1-1.8,4.1-4.1c0-1.8-1.2-3.3-2.8-3.9V59.6h5.7v14.2c-1.6,0.5-2.8,2.1-2.8,3.9c0,2.2,1.8,4.1,4.1,4.1S61,80,61,77.7
			c0-1.8-1.2-3.3-2.8-3.9v-5.9h8.7c0.5,1.6,2.1,2.8,3.9,2.8c2.2,0,4.1-1.8,4.1-4.1c0-2.2-1.8-4.1-4.1-4.1c-1.8,0-3.3,1.2-3.9,2.8
			h-8.7v-5.7h22.3c7.6,0,13.8-6.2,13.8-13.8C94.2,38.6,88.6,32.6,81.5,32.1z M26.4,68.1c-0.8,0-1.5-0.7-1.5-1.5s0.7-1.5,1.5-1.5
			c0.8,0,1.5,0.7,1.5,1.5S27.3,68.1,26.4,68.1z M41.8,77.7c0,0.8-0.7,1.5-1.5,1.5s-1.5-0.7-1.5-1.5c0-0.8,0.7-1.5,1.5-1.5
			S41.8,76.9,41.8,77.7z M47.3,57h-5.7v-5.7h5.7V57z M50.1,86c0,0.8-0.7,1.5-1.5,1.5c-0.8,0-1.5-0.7-1.5-1.5s0.7-1.5,1.5-1.5
			S50.1,85.2,50.1,86z M55.6,57h-5.7v-5.7h5.7V57z M49.9,48.7v-2.9h4.2c0.7,0,1.3-0.6,1.3-1.3v-5.5c0-0.7-0.6-1.3-1.3-1.3
			s-1.3,0.6-1.3,1.3v4.2h-8.5v-8.5h9.8c0.7,0,1.3-0.6,1.3-1.3s-0.6-1.3-1.3-1.3H43.1c-0.7,0-1.3,0.6-1.3,1.3v11.1
			c0,0.7,0.6,1.3,1.3,1.3h4.2v2.9h-7c-0.8,0-1.5-0.7-1.5-1.5V30.6h0c0-0.8,0.7-1.5,1.5-1.5h16.6c0.8,0,1.5,0.7,1.5,1.5v16.6
			c0,0.8-0.7,1.5-1.5,1.5H49.9z M58.4,77.7c0,0.8-0.7,1.5-1.5,1.5c-0.8,0-1.5-0.7-1.5-1.5c0-0.8,0.7-1.5,1.5-1.5
			S58.4,76.9,58.4,77.7z M70.8,65.2c0.8,0,1.5,0.7,1.5,1.5c0,0.8-0.7,1.5-1.5,1.5s-1.5-0.7-1.5-1.5C69.3,65.8,70,65.2,70.8,65.2z"/>
	</g>
</g>
<g id="ic3" class="st0">
	<g class="st2">
		<path class="st3" d="M32.1,35.1v29.9c0,0.9,0.6,1.5,1.5,1.5h32.9c0.9,0,1.5-0.6,1.5-1.5V35.1c0-0.9-0.6-1.5-1.5-1.5H33.6
			C32.7,33.6,32.1,34.2,32.1,35.1z M35.1,36.6h29.9v26.9H35.1V36.6z"/>
		<rect x="39.5" y="50" class="st3" width="7.5" height="3"/>
		<rect x="39.5" y="56" class="st3" width="17.9" height="3"/>
		<path class="st3" d="M79.9,41c0.9,0,1.5-0.6,1.5-1.5v-4.5h11.9v-3H81.4v-4.5c0-0.9-0.6-1.5-1.5-1.5h-4.5v-4.5
			c0-0.9-0.6-1.5-1.5-1.5h-4.5V6.7h-3v13.4h-4.5c-0.9,0-1.5,0.6-1.5,1.5v4.5h-3v-4.5c0-0.9-0.6-1.5-1.5-1.5h-4.5V6.7h-3v13.4H44
			c-0.9,0-1.5,0.6-1.5,1.5v4.5h-3v-4.5c0-0.9-0.6-1.5-1.5-1.5h-4.5V6.7h-3v13.4h-4.5c-0.9,0-1.5,0.6-1.5,1.5v4.5h-4.5
			c-0.9,0-1.5,0.6-1.5,1.5v4.5H6.7v3h11.9v4.5c0,0.9,0.6,1.5,1.5,1.5h4.5v1.5h-4.5c-0.9,0-1.5,0.6-1.5,1.5v4.5H6.7v3h11.9V56
			c0,0.9,0.6,1.5,1.5,1.5h4.5V59h-4.5c-0.9,0-1.5,0.6-1.5,1.5v4.5H6.7v3h11.9v4.5c0,0.9,0.6,1.5,1.5,1.5h4.5v4.5
			c0,0.9,0.6,1.5,1.5,1.5h4.5v13.4h3V79.9h4.5c0.9,0,1.5-0.6,1.5-1.5v-4.5h3v4.5c0,0.9,0.6,1.5,1.5,1.5h4.5v13.4h3V79.9H56
			c0.9,0,1.5-0.6,1.5-1.5v-4.5h3v4.5c0,0.9,0.6,1.5,1.5,1.5h4.5v13.4h3V79.9h4.5c0.9,0,1.5-0.6,1.5-1.5v-4.5h4.5
			c0.9,0,1.5-0.6,1.5-1.5v-4.5h11.9v-3H81.4v-4.5c0-0.9-0.6-1.5-1.5-1.5h-4.5v-1.5h4.5c0.9,0,1.5-0.6,1.5-1.5v-4.5h11.9v-3H81.4V44
			c0-0.9-0.6-1.5-1.5-1.5h-4.5V41H79.9z M78.4,38.1h-3v-9h3V38.1z M72.4,39.5V44V56v4.5v10.5H61.9h-6H44h-6H27.6V60.5V56V44v-4.5
			V29.1h10.5h6H56h6h10.5V39.5z M63.4,23.1h9v3h-9V23.1z M45.5,23.1h9v3h-9V23.1z M27.6,23.1h9v3h-9V23.1z M21.6,38.1v-9h3v9H21.6z
			 M21.6,54.5v-9h3v9H21.6z M21.6,61.9h3v9h-3V61.9z M36.6,76.9h-9v-3h9V76.9z M54.5,76.9h-9v-3h9V76.9z M72.4,76.9h-9v-3h9V76.9z
			 M78.4,61.9v9h-3v-9H78.4z M78.4,45.5v9h-3v-9H78.4z"/>
	</g>
</g>
<g id="ic4">
	<g>
		<g>
			<path class="st3" d="M87.3,60.9c-0.6-0.4-1.3-0.6-2-0.6l0,0c-1.4,0.1-2.8,0.6-3.9,1.6l-2.8,2.8c-1.5,1.5-3.4,2.5-5.5,2.8L68,68.4
				l2.6-1.7c1.7-1.2,2.1-3.5,1-5.2c-0.1-0.1-0.2-0.2-0.3-0.4c-1.2-1.4-3.3-1.6-4.9-0.6l-8.2,4.9c-2,1.2-3.4,3.1-4,5.3l-4.4,16.3
				l-4.4-16.7c-0.5-2-1.8-3.7-3.6-4.8l-8.5-5.1c-1.6-1-3.6-0.7-4.9,0.6c-1.4,1.5-1.2,3.9,0.3,5.2c0.1,0.1,0.2,0.2,0.4,0.3l2.6,1.7
				l-5.2-0.9c-2.1-0.4-4-1.4-5.5-2.8l-3.4-3.4c-0.7-0.6-1.5-1-2.5-1c-2.2,0-4,1.8-4,4c0,0.8,0.2,1.6,0.7,2.2l2.1,3.2
				c0.9,1.3,2,2.5,3.3,3.4l1.9,1.4c0.9,0.6,1.8,1.1,2.8,1.5l15,6v5.5c0,0.7,0.6,1.3,1.4,1.4h10.2c0.4,0,0.8-0.2,1.1-0.6
				c0.1-0.1,0.2-0.3,0.2-0.5c0.1,0.2,0.1,0.4,0.3,0.6c0.2,0.3,0.6,0.5,1,0.5h10.2c0.7,0,1.3-0.6,1.4-1.4V82l15-6
				c1-0.4,1.9-0.9,2.8-1.5l1.9-1.4c1.3-0.9,2.4-2.1,3.3-3.4l2.6-3.8C89.4,64.2,89,62,87.3,60.9z M39.5,86.3v-5.2
				c0-0.3-0.1-0.5-0.2-0.7c-0.2-0.2-0.4-0.4-0.6-0.5l0,0l-15.8-6.3c-0.8-0.3-1.6-0.7-2.3-1.2L18.7,71c-1-0.7-1.9-1.7-2.6-2.7
				l-2.1-3.2c-0.4-0.7-0.3-1.6,0.4-2c0.2-0.2,0.5-0.2,0.8-0.2c0.2,0,0.5,0.1,0.6,0.3l3.4,3.4c1.9,1.9,4.2,3.1,6.8,3.6L36.8,72
				c0.6,0.1,1.3-0.2,1.5-0.8c0.2-0.6,0-1.3-0.5-1.6l-7.3-5c-0.5-0.3-0.6-1-0.3-1.5c0,0,0.1-0.1,0.1-0.1c0.4-0.4,1.1-0.4,1.6-0.1
				l8.5,5.1c1.2,0.7,2.1,1.9,2.4,3.2l4.1,15.2L39.5,86.3L39.5,86.3z M86.2,64.4l-2.6,3.8c-0.7,1.1-1.6,2-2.6,2.7L79,72.4
				c-0.7,0.5-1.5,0.9-2.3,1.2L61,79.9c-0.3,0.1-0.5,0.3-0.6,0.5c-0.1,0.2-0.2,0.5-0.2,0.7v5.1h-7.4l4-14.8c0.4-1.6,1.4-2.9,2.9-3.8
				l8.2-4.9c0.5-0.3,1.1-0.3,1.6,0.1c0.2,0.2,0.3,0.6,0.3,0.9c0,0.3-0.2,0.6-0.5,0.8l-7.3,5c-0.5,0.4-0.7,1-0.5,1.6
				c0.3,0.6,0.9,0.9,1.5,0.8l10.8-1.9c2.6-0.5,5-1.7,6.8-3.6l2.8-2.8c0.6-0.5,1.3-0.8,2-0.8c0.5,0,1,0.4,1,1
				C86.3,64,86.3,64.2,86.2,64.4L86.2,64.4z"/>
		</g>
	</g>
	<g>
		<g>
			<path class="st3" d="M83.8,46.1c-1.7,0-3.4,0.9-4.3,2.3l-4.8-1.9c0-0.1,0-0.3,0-0.4c0-3.1-2.2-5.7-5.2-6.4v-5.5
				c3-0.6,5.2-3.3,5.2-6.4c0-0.1,0-0.2,0-0.3l5.3-1.5c1.9,2.1,5.1,2.3,7.2,0.3c2.1-1.9,2.3-5.1,0.3-7.2c-1.9-2.1-5.1-2.3-7.2-0.3
				c-1.4,1.2-2,3.1-1.6,4.9L74,25.1c-1.5-3.2-5.4-4.6-8.6-3c-0.6,0.3-1.2,0.7-1.7,1.2l-7.2-5.2c0-0.2,0.1-0.4,0.1-0.6
				c0-3.6-2.9-6.5-6.5-6.5c-3.6,0-6.5,2.9-6.5,6.5c0,0.2,0,0.4,0.1,0.6l-7.2,5.2c-2.5-2.5-6.6-2.5-9.1,0.1c-0.1,0.1-0.2,0.2-0.3,0.3
				l-5.6-1.9c0-0.1,0-0.2,0-0.4c0-2.9-2.3-5.2-5.2-5.2S11,18.5,11,21.4c0,2.9,2.3,5.2,5.2,5.2c1.8,0,3.4-0.9,4.4-2.4l5.1,1.7
				c-0.2,0.6-0.3,1.3-0.3,2c0,3.1,2.2,5.7,5.2,6.4v5.5c-3,0.6-5.2,3.3-5.2,6.4c0,0.1,0,0.3,0,0.4l-4.8,1.9c-1-1.5-2.6-2.3-4.3-2.3
				c-2.9,0-5.2,2.3-5.2,5.2s2.3,5.2,5.2,5.2s5.2-2.3,5.2-5.2c0-0.1,0-0.3,0-0.4l4.7-1.9c1.3,2.8,4.4,4.2,7.4,3.3l10.1,6.2
				c0,0.2-0.1,0.4-0.1,0.5c-0.1,3.6,2.8,6.5,6.4,6.6c3.6,0.1,6.5-2.8,6.6-6.4c0-0.4,0-0.9-0.1-1.3l8.8-6.2c0.9,0.5,1.9,0.7,3,0.8
				c2.4,0,4.7-1.4,5.8-3.6l4.7,1.9c0,0.1,0,0.3,0,0.4c0,2.9,2.3,5.2,5.2,5.2c2.9,0,5.2-2.3,5.2-5.2C89,48.4,86.7,46.1,83.8,46.1z
				 M83.8,20.1c1.4,0,2.6,1.2,2.6,2.6s-1.2,2.6-2.6,2.6s-2.6-1.2-2.6-2.6C81.2,21.3,82.3,20.1,83.8,20.1z M16.3,24
				c-1.4,0-2.6-1.2-2.6-2.6s1.2-2.6,2.6-2.6s2.6,1.2,2.6,2.6C18.9,22.9,17.7,24,16.3,24z M16.3,53.9c-1.4,0-2.6-1.2-2.6-2.6
				s1.2-2.6,2.6-2.6s2.6,1.2,2.6,2.6C18.9,52.7,17.7,53.9,16.3,53.9z M68.2,24c2.2,0,3.9,1.7,3.9,3.9s-1.7,3.9-3.9,3.9
				c-2.2,0-3.9-1.7-3.9-3.9C64.3,25.8,66,24,68.2,24z M50,13.7c2.2,0,3.9,1.7,3.9,3.9s-1.7,3.9-3.9,3.9s-3.9-1.7-3.9-3.9
				C46.1,15.4,47.9,13.7,50,13.7z M27.9,27.9c0-2.2,1.7-3.9,3.9-3.9s3.9,1.7,3.9,3.9s-1.7,3.9-3.9,3.9
				C29.7,31.8,27.9,30.1,27.9,27.9z M31.8,50c-2.2,0-3.9-1.7-3.9-3.9c0-2.1,1.7-3.9,3.9-3.9c2.2,0,3.9,1.7,3.9,3.9S34,50,31.8,50z
				 M50,63c-2.2,0-3.9-1.7-3.9-3.9s1.7-3.9,3.9-3.9s3.9,1.7,3.9,3.9C53.9,61.2,52.2,63,50,63z M63.1,50.1l-7.7,5.4
				c-1.9-3-5.9-3.9-8.9-1.9c-0.9,0.6-1.7,1.4-2.2,2.4l-8.2-5c2.7-2.3,3-6.4,0.6-9.1c-0.9-1.1-2.2-1.8-3.6-2.1v-5.5
				c3.5-0.7,5.8-4.1,5.1-7.6c-0.1-0.4-0.2-0.8-0.4-1.2l6.6-4.7c1.1,2,3.3,3.3,5.6,3.3c2.3,0,4.5-1.3,5.6-3.3l6.6,4.7
				c-1.4,3.3,0.2,7.1,3.5,8.5c0.4,0.2,0.8,0.3,1.2,0.4v5.5c-3,0.6-5.2,3.3-5.2,6.4C61.7,47.6,62.2,49,63.1,50.1z M68.2,50
				c-2.2,0-3.9-1.7-3.9-3.9s1.7-3.9,3.9-3.9c2.1,0,3.9,1.7,3.9,3.9C72.1,48.3,70.3,50,68.2,50z M83.8,53.9c-1.4,0-2.6-1.2-2.6-2.6
				c0-1.4,1.2-2.6,2.6-2.6c1.4,0,2.6,1.2,2.6,2.6C86.4,52.7,85.2,53.9,83.8,53.9z"/>
		</g>
	</g>
</g>
</svg>
