<?xml version="1.0" encoding="utf-8"?>
<!-- Generator: Adobe Illustrator 22.0.1, SVG Export Plug-In . SVG Version: 6.00 Build 0)  -->
<svg version="1.1" id="icons" xmlns="http://www.w3.org/2000/svg" xmlns:xlink="http://www.w3.org/1999/xlink" x="0px" y="0px"
	 viewBox="0 0 100 100" style="enable-background:new 0 0 100 100;" xml:space="preserve">
<style type="text/css">
	.st0{display:none;}
	.st1{display:inline;fill:#46BC93;}
	.st2{display:inline;}
	.st3{fill:#46BC93;}
</style>
<g id="ic1_1_" class="st0">
	<path class="st1" d="M74.4,55.2c-0.5-1.3-1.2-2.5-1.9-3.6V30.5c0-6-2.3-11.6-6.6-15.9C61.7,10.4,56.1,8,50.1,8c0,0,0,0,0,0
		c-6,0-11.6,2.3-15.9,6.6c-4.2,4.2-6.6,9.9-6.6,15.9v3.1h9v-3.1c0-3.6,1.4-7,3.9-9.5c2.5-2.5,5.9-3.9,9.5-3.9c0,0,0,0,0,0
		c7.4,0,13.5,6,13.5,13.5v12.3c-1-0.6-2.1-1.2-3.2-1.6C57,39.7,53.6,39,50,39c-3.6,0-7,0.7-10.3,2.1c-3.2,1.3-6,3.2-8.4,5.7
		c-2.4,2.4-4.3,5.3-5.7,8.4c-1.4,3.3-2.1,6.7-2.1,10.3c0,3.6,0.7,7,2.1,10.3c1.3,3.2,3.2,6,5.7,8.4c2.4,2.4,5.3,4.3,8.4,5.7
		C43,91.3,46.4,92,50,92c3.6,0,7-0.7,10.3-2.1c3.2-1.3,6-3.2,8.4-5.7c2.4-2.4,4.3-5.3,5.7-8.4c1.4-3.3,2.1-6.7,2.1-10.3
		C76.5,61.9,75.8,58.5,74.4,55.2z M50,83c-9.6,0-17.5-7.8-17.5-17.5S40.4,48,50,48c9.6,0,17.5,7.8,17.5,17.5S59.6,83,50,83z"/>
	<circle class="st1" cx="50.1" cy="65.6" r="7.4"/>
</g>
<g id="ic2" class="st0">
	<g class="st2">
		<path class="st3" d="M81.5,32.1C80.3,25.7,74.7,21,68,21c-0.7,0-1.4,0.1-2.1,0.2c-4.3-7-11.8-11.3-20-11.3
			c-11.5,0-21.2,8.3-23.1,19.5c-0.6-0.1-1.2-0.1-1.8-0.1c-8.4,0-15.2,6.8-15.2,15.2c0,8.4,6.8,15.2,15.2,15.2H32
			c0.7,0,1.3-0.6,1.3-1.3S32.7,57,32,57H20.9C14,57,8.3,51.4,8.3,44.5c0-6.9,5.6-12.6,12.6-12.6c0.9,0,1.8,0.1,2.6,0.3
			c0.4,0.1,0.7,0,1-0.2c0.3-0.2,0.5-0.5,0.5-0.9c1.2-10.6,10.1-18.6,20.7-18.6c7.6,0,14.6,4.1,18.2,10.7c0.3,0.5,0.9,0.8,1.4,0.6
			c0.8-0.2,1.7-0.3,2.5-0.3c5.7,0,10.5,4.3,11.1,9.9c0.1,0.7,0.6,1.2,1.3,1.2c0,0,0,0,0,0c0,0,0.1,0,0.1,0c6.1,0,11.1,5,11.1,11.2
			c0,6.2-5,11.2-11.2,11.2H58.2v-5.9c1.6-0.5,2.8-2.1,2.8-3.9V30.6c0-2.2-1.8-4.1-4.1-4.1H40.3c-2.2,0-4.1,1.8-4.1,4.1v16.6
			c0,1.8,1.2,3.3,2.8,3.9V57h-1.5c-0.7,0-1.3,0.6-1.3,1.3s0.6,1.3,1.3,1.3H39v5.7h-8.7c-0.5-1.6-2.1-2.8-3.9-2.8
			c-2.2,0-4.1,1.8-4.1,4.1c0,2.2,1.8,4.1,4.1,4.1c1.8,0,3.3-1.2,3.9-2.8H39v5.9c-1.6,0.5-2.8,2.1-2.8,3.9c0,2.2,1.8,4.1,4.1,4.1
			c2.2,0,4.1-1.8,4.1-4.1c0-1.8-1.2-3.3-2.8-3.9V59.6h5.7v22.6c-1.6,0.5-2.8,2.1-2.8,3.9c0,2.2,1.8,4.1,4.1,4.1
			c2.2,0,4.1-1.8,4.1-4.1c0-1.8-1.2-3.3-2.8-3.9V59.6h5.7v14.2c-1.6,0.5-2.8,2.1-2.8,3.9c0,2.2,1.8,4.1,4.1,4.1S61,80,61,77.7
			c0-1.8-1.2-3.3-2.8-3.9v-5.9h8.7c0.5,1.6,2.1,2.8,3.9,2.8c2.2,0,4.1-1.8,4.1-4.1c0-2.2-1.8-4.1-4.1-4.1c-1.8,0-3.3,1.2-3.9,2.8
			h-8.7v-5.7h22.3c7.6,0,13.8-6.2,13.8-13.8C94.2,38.6,88.6,32.6,81.5,32.1z M26.4,68.1c-0.8,0-1.5-0.7-1.5-1.5s0.7-1.5,1.5-1.5
			c0.8,0,1.5,0.7,1.5,1.5S27.3,68.1,26.4,68.1z M41.8,77.7c0,0.8-0.7,1.5-1.5,1.5s-1.5-0.7-1.5-1.5c0-0.8,0.7-1.5,1.5-1.5
			S41.8,76.9,41.8,77.7z M47.3,57h-5.7v-5.7h5.7V57z M50.1,86c0,0.8-0.7,1.5-1.5,1.5c-0.8,0-1.5-0.7-1.5-1.5s0.7-1.5,1.5-1.5
			S50.1,85.2,50.1,86z M55.6,57h-5.7v-5.7h5.7V57z M49.9,48.7v-2.9h4.2c0.7,0,1.3-0.6,1.3-1.3v-5.5c0-0.7-0.6-1.3-1.3-1.3
			s-1.3,0.6-1.3,1.3v4.2h-8.5v-8.5h9.8c0.7,0,1.3-0.6,1.3-1.3s-0.6-1.3-1.3-1.3H43.1c-0.7,0-1.3,0.6-1.3,1.3v11.1
			c0,0.7,0.6,1.3,1.3,1.3h4.2v2.9h-7c-0.8,0-1.5-0.7-1.5-1.5V30.6h0c0-0.8,0.7-1.5,1.5-1.5h16.6c0.8,0,1.5,0.7,1.5,1.5v16.6
			c0,0.8-0.7,1.5-1.5,1.5H49.9z M58.4,77.7c0,0.8-0.7,1.5-1.5,1.5c-0.8,0-1.5-0.7-1.5-1.5c0-0.8,0.7-1.5,1.5-1.5
			S58.4,76.9,58.4,77.7z M70.8,65.2c0.8,0,1.5,0.7,1.5,1.5c0,0.8-0.7,1.5-1.5,1.5s-1.5-0.7-1.5-1.5C69.3,65.8,70,65.2,70.8,65.2z"/>
	</g>
</g>
<g id="ic3" class="st0">
	<g class="st2">
		<path class="st3" d="M32.1,35.1v29.9c0,0.9,0.6,1.5,1.5,1.5h32.9c0.9,0,1.5-0.6,1.5-1.5V35.1c0-0.9-0.6-1.5-1.5-1.5H33.6
			C32.7,33.6,32.1,34.2,32.1,35.1z M35.1,36.6h29.9v26.9H35.1V36.6z"/>
		<rect x="39.5" y="50" class="st3" width="7.5" height="3"/>
		<rect x="39.5" y="56" class="st3" width="17.9" height="3"/>
		<path class="st3" d="M79.9,41c0.9,0,1.5-0.6,1.5-1.5v-4.5h11.9v-3H81.4v-4.5c0-0.9-0.6-1.5-1.5-1.5h-4.5v-4.5
			c0-0.9-0.6-1.5-1.5-1.5h-4.5V6.7h-3v13.4h-4.5c-0.9,0-1.5,0.6-1.5,1.5v4.5h-3v-4.5c0-0.9-0.6-1.5-1.5-1.5h-4.5V6.7h-3v13.4H44
			c-0.9,0-1.5,0.6-1.5,1.5v4.5h-3v-4.5c0-0.9-0.6-1.5-1.5-1.5h-4.5V6.7h-3v13.4h-4.5c-0.9,0-1.5,0.6-1.5,1.5v4.5h-4.5
			c-0.9,0-1.5,0.6-1.5,1.5v4.5H6.7v3h11.9v4.5c0,0.9,0.6,1.5,1.5,1.5h4.5v1.5h-4.5c-0.9,0-1.5,0.6-1.5,1.5v4.5H6.7v3h11.9V56
			c0,0.9,0.6,1.5,1.5,1.5h4.5V59h-4.5c-0.9,0-1.5,0.6-1.5,1.5v4.5H6.7v3h11.9v4.5c0,0.9,0.6,1.5,1.5,1.5h4.5v4.5
			c0,0.9,0.6,1.5,1.5,1.5h4.5v13.4h3V79.9h4.5c0.9,0,1.5-0.6,1.5-1.5v-4.5h3v4.5c0,0.9,0.6,1.5,1.5,1.5h4.5v13.4h3V79.9H56
			c0.9,0,1.5-0.6,1.5-1.5v-4.5h3v4.5c0,0.9,0.6,1.5,1.5,1.5h4.5v13.4h3V79.9h4.5c0.9,0,1.5-0.6,1.5-1.5v-4.5h4.5
			c0.9,0,1.5-0.6,1.5-1.5v-4.5h11.9v-3H81.4v-4.5c0-0.9-0.6-1.5-1.5-1.5h-4.5v-1.5h4.5c0.9,0,1.5-0.6,1.5-1.5v-4.5h11.9v-3H81.4V44
			c0-0.9-0.6-1.5-1.5-1.5h-4.5V41H79.9z M78.4,38.1h-3v-9h3V38.1z M72.4,39.5V44V56v4.5v10.5H61.9h-6H44h-6H27.6V60.5V56V44v-4.5
			V29.1h10.5h6H56h6h10.5V39.5z M63.4,23.1h9v3h-9V23.1z M45.5,23.1h9v3h-9V23.1z M27.6,23.1h9v3h-9V23.1z M21.6,38.1v-9h3v9H21.6z
			 M21.6,54.5v-9h3v9H21.6z M21.6,61.9h3v9h-3V61.9z M36.6,76.9h-9v-3h9V76.9z M54.5,76.9h-9v-3h9V76.9z M72.4,76.9h-9v-3h9V76.9z
			 M78.4,61.9v9h-3v-9H78.4z M78.4,45.5v9h-3v-9H78.4z"/>
	</g>
</g>
<g id="ic4" class="st0">
	<g class="st2">
		<g>
			<path class="st3" d="M87.3,60.9c-0.6-0.4-1.3-0.6-2-0.6l0,0c-1.4,0.1-2.8,0.6-3.9,1.6l-2.8,2.8c-1.5,1.5-3.4,2.5-5.5,2.8L68,68.4
				l2.6-1.7c1.7-1.2,2.1-3.5,1-5.2c-0.1-0.1-0.2-0.2-0.3-0.4c-1.2-1.4-3.3-1.6-4.9-0.6l-8.2,4.9c-2,1.2-3.4,3.1-4,5.3l-4.4,16.3
				l-4.4-16.7c-0.5-2-1.8-3.7-3.6-4.8l-8.5-5.1c-1.6-1-3.6-0.7-4.9,0.6c-1.4,1.5-1.2,3.9,0.3,5.2c0.1,0.1,0.2,0.2,0.4,0.3l2.6,1.7
				l-5.2-0.9c-2.1-0.4-4-1.4-5.5-2.8l-3.4-3.4c-0.7-0.6-1.5-1-2.5-1c-2.2,0-4,1.8-4,4c0,0.8,0.2,1.6,0.7,2.2l2.1,3.2
				c0.9,1.3,2,2.5,3.3,3.4l1.9,1.4c0.9,0.6,1.8,1.1,2.8,1.5l15,6v5.5c0,0.7,0.6,1.3,1.4,1.4h10.2c0.4,0,0.8-0.2,1.1-0.6
				c0.1-0.1,0.2-0.3,0.2-0.5c0.1,0.2,0.1,0.4,0.3,0.6c0.2,0.3,0.6,0.5,1,0.5h10.2c0.7,0,1.3-0.6,1.4-1.4V82l15-6
				c1-0.4,1.9-0.9,2.8-1.5l1.9-1.4c1.3-0.9,2.4-2.1,3.3-3.4l2.6-3.8C89.4,64.2,89,62,87.3,60.9z M39.5,86.3v-5.2
				c0-0.3-0.1-0.5-0.2-0.7c-0.2-0.2-0.4-0.4-0.6-0.5l0,0l-15.8-6.3c-0.8-0.3-1.6-0.7-2.3-1.2L18.7,71c-1-0.7-1.9-1.7-2.6-2.7
				l-2.1-3.2c-0.4-0.7-0.3-1.6,0.4-2c0.2-0.2,0.5-0.2,0.8-0.2c0.2,0,0.5,0.1,0.6,0.3l3.4,3.4c1.9,1.9,4.2,3.1,6.8,3.6L36.8,72
				c0.6,0.1,1.3-0.2,1.5-0.8c0.2-0.6,0-1.3-0.5-1.6l-7.3-5c-0.5-0.3-0.6-1-0.3-1.5c0,0,0.1-0.1,0.1-0.1c0.4-0.4,1.1-0.4,1.6-0.1
				l8.5,5.1c1.2,0.7,2.1,1.9,2.4,3.2l4.1,15.2L39.5,86.3L39.5,86.3z M86.2,64.4l-2.6,3.8c-0.7,1.1-1.6,2-2.6,2.7L79,72.4
				c-0.7,0.5-1.5,0.9-2.3,1.2L61,79.9c-0.3,0.1-0.5,0.3-0.6,0.5c-0.1,0.2-0.2,0.5-0.2,0.7v5.1h-7.4l4-14.8c0.4-1.6,1.4-2.9,2.9-3.8
				l8.2-4.9c0.5-0.3,1.1-0.3,1.6,0.1c0.2,0.2,0.3,0.6,0.3,0.9c0,0.3-0.2,0.6-0.5,0.8l-7.3,5c-0.5,0.4-0.7,1-0.5,1.6
				c0.3,0.6,0.9,0.9,1.5,0.8l10.8-1.9c2.6-0.5,5-1.7,6.8-3.6l2.8-2.8c0.6-0.5,1.3-0.8,2-0.8c0.5,0,1,0.4,1,1
				C86.3,64,86.3,64.2,86.2,64.4L86.2,64.4z"/>
		</g>
	</g>
	<g class="st2">
		<g>
			<path class="st3" d="M83.8,46.1c-1.7,0-3.4,0.9-4.3,2.3l-4.8-1.9c0-0.1,0-0.3,0-0.4c0-3.1-2.2-5.7-5.2-6.4v-5.5
				c3-0.6,5.2-3.3,5.2-6.4c0-0.1,0-0.2,0-0.3l5.3-1.5c1.9,2.1,5.1,2.3,7.2,0.3c2.1-1.9,2.3-5.1,0.3-7.2c-1.9-2.1-5.1-2.3-7.2-0.3
				c-1.4,1.2-2,3.1-1.6,4.9L74,25.1c-1.5-3.2-5.4-4.6-8.6-3c-0.6,0.3-1.2,0.7-1.7,1.2l-7.2-5.2c0-0.2,0.1-0.4,0.1-0.6
				c0-3.6-2.9-6.5-6.5-6.5c-3.6,0-6.5,2.9-6.5,6.5c0,0.2,0,0.4,0.1,0.6l-7.2,5.2c-2.5-2.5-6.6-2.5-9.1,0.1c-0.1,0.1-0.2,0.2-0.3,0.3
				l-5.6-1.9c0-0.1,0-0.2,0-0.4c0-2.9-2.3-5.2-5.2-5.2S11,18.5,11,21.4c0,2.9,2.3,5.2,5.2,5.2c1.8,0,3.4-0.9,4.4-2.4l5.1,1.7
				c-0.2,0.6-0.3,1.3-0.3,2c0,3.1,2.2,5.7,5.2,6.4v5.5c-3,0.6-5.2,3.3-5.2,6.4c0,0.1,0,0.3,0,0.4l-4.8,1.9c-1-1.5-2.6-2.3-4.3-2.3
				c-2.9,0-5.2,2.3-5.2,5.2s2.3,5.2,5.2,5.2s5.2-2.3,5.2-5.2c0-0.1,0-0.3,0-0.4l4.7-1.9c1.3,2.8,4.4,4.2,7.4,3.3l10.1,6.2
				c0,0.2-0.1,0.4-0.1,0.5c-0.1,3.6,2.8,6.5,6.4,6.6c3.6,0.1,6.5-2.8,6.6-6.4c0-0.4,0-0.9-0.1-1.3l8.8-6.2c0.9,0.5,1.9,0.7,3,0.8
				c2.4,0,4.7-1.4,5.8-3.6l4.7,1.9c0,0.1,0,0.3,0,0.4c0,2.9,2.3,5.2,5.2,5.2c2.9,0,5.2-2.3,5.2-5.2C89,48.4,86.7,46.1,83.8,46.1z
				 M83.8,20.1c1.4,0,2.6,1.2,2.6,2.6s-1.2,2.6-2.6,2.6s-2.6-1.2-2.6-2.6C81.2,21.3,82.3,20.1,83.8,20.1z M16.3,24
				c-1.4,0-2.6-1.2-2.6-2.6s1.2-2.6,2.6-2.6s2.6,1.2,2.6,2.6C18.9,22.9,17.7,24,16.3,24z M16.3,53.9c-1.4,0-2.6-1.2-2.6-2.6
				s1.2-2.6,2.6-2.6s2.6,1.2,2.6,2.6C18.9,52.7,17.7,53.9,16.3,53.9z M68.2,24c2.2,0,3.9,1.7,3.9,3.9s-1.7,3.9-3.9,3.9
				c-2.2,0-3.9-1.7-3.9-3.9C64.3,25.8,66,24,68.2,24z M50,13.7c2.2,0,3.9,1.7,3.9,3.9s-1.7,3.9-3.9,3.9s-3.9-1.7-3.9-3.9
				C46.1,15.4,47.9,13.7,50,13.7z M27.9,27.9c0-2.2,1.7-3.9,3.9-3.9s3.9,1.7,3.9,3.9s-1.7,3.9-3.9,3.9
				C29.7,31.8,27.9,30.1,27.9,27.9z M31.8,50c-2.2,0-3.9-1.7-3.9-3.9c0-2.1,1.7-3.9,3.9-3.9c2.2,0,3.9,1.7,3.9,3.9S34,50,31.8,50z
				 M50,63c-2.2,0-3.9-1.7-3.9-3.9s1.7-3.9,3.9-3.9s3.9,1.7,3.9,3.9C53.9,61.2,52.2,63,50,63z M63.1,50.1l-7.7,5.4
				c-1.9-3-5.9-3.9-8.9-1.9c-0.9,0.6-1.7,1.4-2.2,2.4l-8.2-5c2.7-2.3,3-6.4,0.6-9.1c-0.9-1.1-2.2-1.8-3.6-2.1v-5.5
				c3.5-0.7,5.8-4.1,5.1-7.6c-0.1-0.4-0.2-0.8-0.4-1.2l6.6-4.7c1.1,2,3.3,3.3,5.6,3.3c2.3,0,4.5-1.3,5.6-3.3l6.6,4.7
				c-1.4,3.3,0.2,7.1,3.5,8.5c0.4,0.2,0.8,0.3,1.2,0.4v5.5c-3,0.6-5.2,3.3-5.2,6.4C61.7,47.6,62.2,49,63.1,50.1z M68.2,50
				c-2.2,0-3.9-1.7-3.9-3.9s1.7-3.9,3.9-3.9c2.1,0,3.9,1.7,3.9,3.9C72.1,48.3,70.3,50,68.2,50z M83.8,53.9c-1.4,0-2.6-1.2-2.6-2.6
				c0-1.4,1.2-2.6,2.6-2.6c1.4,0,2.6,1.2,2.6,2.6C86.4,52.7,85.2,53.9,83.8,53.9z"/>
		</g>
	</g>
</g>
<g id="ic5" class="st0">
	<g class="st2">
		<g>
			<path class="st3" d="M14,59.6c-0.6,0.1-1,0.6-1,1.2c0,0.7,0.5,1.2,1.2,1.2c0.6,0,1.1-0.4,1.2-1C15.6,60.1,14.8,59.4,14,59.6z"/>
		</g>
	</g>
	<g class="st2">
		<g>
			<path class="st3" d="M14.2,52.2c-0.7,0-1.2,0.5-1.2,1.2v3.2c0,0.7,0.5,1.2,1.2,1.2s1.2-0.5,1.2-1.2v-3.2
				C15.4,52.8,14.9,52.2,14.2,52.2z"/>
		</g>
	</g>
	<g class="st2">
		<g>
			<path class="st3" d="M69.1,54.8c-1.8,0-3.2,1.4-3.2,3.2s1.4,3.2,3.2,3.2s3.2-1.4,3.2-3.2S70.8,54.8,69.1,54.8z M69.1,58.8
				c-0.4,0-0.8-0.3-0.8-0.8c0-0.4,0.3-0.8,0.8-0.8c0.4,0,0.8,0.3,0.8,0.8C69.8,58.5,69.5,58.8,69.1,58.8z"/>
		</g>
	</g>
	<g class="st2">
		<g>
			<path class="st3" d="M90.1,17.2c-1.5-1.5-4-1.5-5.5,0c-1.7,1.7-13.1,13.1-15.1,15.1c-0.6-0.1-1.2-0.2-1.8-0.2H16.2
				c-4.1,0-7.5,3.4-7.5,7.5v36.9c0,4.1,3.4,7.5,7.5,7.5h22.9c0.7,0,1.2-0.5,1.2-1.2s-0.5-1.2-1.2-1.2H16.2c-2.8,0-5.1-2.3-5.1-5.1
				V39.6c0-2.8,2.3-5.1,5.1-5.1h51.1c-1,1-2,2-3,3c-0.4-0.3-0.9-0.5-1.5-0.5h-43c-1.4,0-2.5,1.1-2.5,2.5v36.9c0,1.4,1.1,2.5,2.5,2.5
				h43c1.4,0,2.5-1.1,2.5-2.5v-29l7.5-7.5v15.6c0,0.7,0.5,1.2,1.2,1.2c0.7,0,1.2-0.5,1.2-1.2V39.6c0-0.6-0.1-1.2-0.2-1.7l15.2-15.2
				C91.7,21.2,91.7,18.7,90.1,17.2z M62.9,76.5L62.9,76.5c0,0.1-0.1,0.1-0.1,0.1h-43c-0.1,0-0.1-0.1-0.1-0.1V39.6
				c0-0.1,0.1-0.1,0.1-0.1h42.6c-5,5-8.9,8.9-9.1,9.1c0,0-0.1,0.1-0.1,0.1c-0.1,0.1-0.1,0.2-0.2,0.3l-1.7,4.2h0c0,0,0,0,0,0
				c0,0.1,0,0.1-0.1,0.2h-4.8c-0.6-4.8-4.7-8.6-9.7-8.6c-5.4,0-9.8,4.4-9.8,9.8c0,5,3.7,9.1,8.6,9.7v5.3c0,1.1,0.9,2,2,2h14.2
				c1.1,0,2-0.9,2-2V56.1c0,0,0,0,0,0c0,0,0,0,0.1,0c0.1,0,0.2-0.1,0.3-0.1c0,0,0,0,0,0l4.3-1.7c0.2-0.1,0.3-0.2,0.4-0.3l4.1-4.1
				L62.9,76.5L62.9,76.5z M37.5,53.3c-1.1,0-2,0.9-2,2v6.5c-3.5-0.6-6.1-3.6-6.1-7.2c0-4.1,3.3-7.3,7.3-7.3c3.6,0,6.7,2.7,7.2,6.1
				L37.5,53.3L37.5,53.3z M44,55.7c-0.5,3.1-3,5.5-6,6v-6H44z M37.9,64.2L37.9,64.2c4.4-0.5,7.9-4.1,8.5-8.5h4.9v13.3H37.9
				L37.9,64.2L37.9,64.2z M57.3,52.1l-3.5,1.4l1.4-3.5c0.1-0.1,22.2-22.2,23.1-23.1l2.1,2.1C79.3,30.1,58.3,51.1,57.3,52.1z
				 M82.1,27.3L80,25.2c0.7-0.7,1.3-1.3,1.9-1.9l2.1,2.1C83.3,26.1,83.6,25.8,82.1,27.3z M88.4,21l-2.7,2.7l-2.1-2.1
				c1.6-1.6,2.7-2.7,2.7-2.7c0.6-0.6,1.5-0.6,2.1,0C89,19.5,89,20.4,88.4,21z"/>
		</g>
	</g>
	<g class="st2">
		<g>
			<path class="st3" d="M74,60.1c-0.7,0-1.2,0.5-1.2,1.2v15.2c0,2.8-2.3,5.1-5.1,5.1H44.8c-0.7,0-1.2,0.5-1.2,1.2s0.5,1.2,1.2,1.2
				h22.9c4.1,0,7.5-3.4,7.5-7.5V61.3C75.2,60.6,74.7,60.1,74,60.1z"/>
		</g>
	</g>
</g>
<g id="ic6" class="st0">
	<g class="st2">
		<g>
			<path class="st3" d="M39.5,72.4c-1.7-1.7-3.7-3-5.8-3.8c2.8-2,4.6-5.2,4.6-8.9c0-6-4.8-10.8-10.8-10.8s-10.8,4.8-10.8,10.8
				c0,3.7,1.8,6.9,4.6,8.9c-6.3,2.5-10.8,8.6-10.8,15.8V88c0,0.9,0.7,1.5,1.5,1.5h30.9c0.9,0,1.5-0.7,1.5-1.5v-3.5
				C44.4,79.9,42.7,75.6,39.5,72.4z M19.8,59.7c0-4.3,3.5-7.7,7.7-7.7s7.7,3.5,7.7,7.7s-3.5,7.7-7.7,7.7S19.8,64,19.8,59.7z
				 M41.4,86.4H13.6v-2c0-7.7,6.2-13.9,13.9-13.9c3.7,0,7.2,1.4,9.8,4.1c2.6,2.6,4.1,6.1,4.1,9.8V86.4z"/>
		</g>
	</g>
	<g class="st2">
		<g>
			<path class="st3" d="M84.5,72.4c-1.7-1.7-3.7-3-5.8-3.8c2.8-2,4.6-5.2,4.6-8.9c0-6-4.8-10.8-10.8-10.8s-10.8,4.8-10.8,10.8
				c0,3.7,1.8,6.9,4.6,8.9c-6.3,2.5-10.8,8.6-10.8,15.8V88c0,0.9,0.7,1.5,1.5,1.5H88c0.9,0,1.5-0.7,1.5-1.5v-3.5
				C89.5,79.9,87.7,75.6,84.5,72.4z M64.8,59.7c0-4.3,3.5-7.7,7.7-7.7s7.7,3.5,7.7,7.7s-3.5,7.7-7.7,7.7S64.8,64,64.8,59.7z
				 M86.4,86.4H58.6v-2c0-7.7,6.2-13.9,13.9-13.9c3.7,0,7.2,1.4,9.8,4.1c2.6,2.6,4.1,6.1,4.1,9.8V86.4z"/>
		</g>
	</g>
	<g class="st2">
		<g>
			<path class="st3" d="M29.7,24.8l2-2c0.6-0.6,0.6-1.6,0-2.2c-0.6-0.6-1.6-0.6-2.2,0l-2,2l-2-2c-0.6-0.6-1.6-0.6-2.2,0
				c-0.6,0.6-0.6,1.6,0,2.2l2,2l-2,2c-0.6,0.6-0.6,1.6,0,2.2c0.3,0.3,0.7,0.5,1.1,0.5s0.8-0.2,1.1-0.5l2-2l2,2
				c0.3,0.3,0.7,0.5,1.1,0.5c0.4,0,0.8-0.2,1.1-0.5c0.6-0.6,0.6-1.6,0-2.2L29.7,24.8z"/>
		</g>
	</g>
	<g class="st2">
		<g>
			<path class="st3" d="M39.8,10.5H15.1c-2.6,0-4.6,2.1-4.6,4.6v19.4c0,2.6,2.1,4.6,4.6,4.6h8.3l2.7,5.7c0.3,0.5,0.8,0.9,1.4,0.9
				s1.1-0.3,1.4-0.9l2.7-5.7h8.3c2.6,0,4.6-2.1,4.6-4.6V15.1C44.4,12.6,42.4,10.5,39.8,10.5z M41.4,34.6c0,0.9-0.7,1.5-1.5,1.5h-9.3
				c-0.6,0-1.1,0.3-1.4,0.9l-1.7,3.6L25.8,37c-0.3-0.5-0.8-0.9-1.4-0.9h-9.3c-0.9,0-1.5-0.7-1.5-1.5V15.1c0-0.9,0.7-1.5,1.5-1.5
				h24.7c0.9,0,1.5,0.7,1.5,1.5V34.6z"/>
		</g>
	</g>
	<g class="st2">
		<g>
			<path class="st3" d="M84.9,10.5H60.2c-2.6,0-4.6,2.1-4.6,4.6v19.4c0,2.6,2.1,4.6,4.6,4.6h8.3l2.7,5.7c0.3,0.5,0.8,0.9,1.4,0.9
				s1.1-0.3,1.4-0.9l2.7-5.7h8.3c2.6,0,4.6-2.1,4.6-4.6V15.1C89.5,12.6,87.4,10.5,84.9,10.5z M86.4,34.6c0,0.9-0.7,1.5-1.5,1.5h-9.3
				c-0.6,0-1.1,0.3-1.4,0.9l-1.7,3.6L70.8,37c-0.3-0.5-0.8-0.9-1.4-0.9h-9.3c-0.9,0-1.5-0.7-1.5-1.5V15.1c0-0.9,0.7-1.5,1.5-1.5
				h24.7c0.9,0,1.5,0.7,1.5,1.5V34.6z"/>
		</g>
	</g>
	<g class="st2">
		<g>
			<path class="st3" d="M79.8,20.7c-0.6-0.6-1.6-0.6-2.2,0l-5.1,5.1l-2-2c-0.6-0.6-1.6-0.6-2.2,0c-0.6,0.6-0.6,1.6,0,2.2l3.1,3.1
				c0.3,0.3,0.7,0.5,1.1,0.5c0.4,0,0.8-0.2,1.1-0.5l6.2-6.2C80.4,22.3,80.4,21.3,79.8,20.7z"/>
		</g>
	</g>
</g>
<g id="ic7" class="st0">
	<g class="st2">
		<g>
			<g>
				<path class="st3" d="M36.7,68c-0.3-0.3-0.6-0.6-0.9-0.9c4.6-4.5,9.2-10,9.2-17.4s-4.6-13-9.2-17.4c0.3-0.3,0.6-0.6,0.9-0.9
					c3.9-3.7,7.3-6.9,7.3-10.6v-1h-1.9v1c0,0.6-0.2,1.3-0.4,1.9H27.1c-0.3-0.7-0.4-1.3-0.4-1.9v-1h-1.9v1c0,3.7,3.4,6.9,7.3,10.6
					c0.3,0.3,0.6,0.6,0.9,0.9c-4.6,4.5-9.2,10-9.2,17.4s4.6,13,9.2,17.4c-0.3,0.3-0.6,0.6-0.9,0.9c-3.9,3.7-7.3,6.9-7.3,10.6v1h1.9
					v-1c0-0.6,0.2-1.3,0.4-1.9h14.5c0.3,0.7,0.4,1.3,0.4,1.9v1H44v-1C44,75,40.6,71.7,36.7,68z M28.3,24.7h12.2
					c-0.5,0.6-1,1.3-1.6,1.9h-8.9C29.3,25.9,28.7,25.3,28.3,24.7z M31.8,28.5h5.1c-0.5,0.5-1,1-1.6,1.5c-0.3,0.3-0.6,0.6-1,0.9
					c-0.3-0.3-0.7-0.6-1-0.9C32.9,29.5,32.3,29,31.8,28.5z M34.4,33.6c1.2,1.1,2.3,2.3,3.4,3.6H31C32.1,35.9,33.2,34.8,34.4,33.6z
					 M27.2,43h9.1V41h-8.1c0.4-0.7,0.9-1.4,1.3-2v0.1h9.6V39c0.5,0.7,0.9,1.3,1.3,2h-2.3V43h3.3c0.3,0.6,0.5,1.3,0.7,1.9H26.5
					C26.7,44.2,26.9,43.6,27.2,43z M26,46.8h16.8c0.1,0.6,0.2,1.3,0.2,1.9H25.7C25.8,48.1,25.9,47.5,26,46.8z M26.5,54.5h3.1v-1.9
					H26c-0.1-0.6-0.2-1.3-0.2-1.9H43c0,0.7-0.1,1.3-0.2,1.9H31.5v1.9h10.8c-0.2,0.7-0.4,1.3-0.7,1.9H27.2
					C26.9,55.8,26.7,55.2,26.5,54.5z M29.6,60.4c-0.5-0.7-0.9-1.3-1.3-2h12.3c-0.4,0.7-0.9,1.4-1.3,2v-0.1h-9.6
					C29.6,60.3,29.6,60.4,29.6,60.4z M31,62.2h6.8c-1.1,1.3-2.2,2.4-3.4,3.6C33.2,64.7,32.1,63.5,31,62.2z M33.4,69.4
					c0.3-0.3,0.6-0.6,1-0.9c0.3,0.3,0.7,0.6,1,0.9c0.5,0.5,1.1,1,1.6,1.5h-5.1C32.3,70.4,32.9,69.9,33.4,69.4z M28.3,74.8
					c0.5-0.6,1-1.3,1.6-1.9h8.9c0.6,0.7,1.2,1.3,1.6,1.9H28.3z"/>
			</g>
		</g>
		<g>
			<g>
				<path class="st3" d="M78.7,71.9h-1.6c2.3-4.1,3.5-8.8,3.5-13.5c0-7.8-3.3-15.2-8.9-20.5l2.6-2.6l-1.9-1.9l3.5-3.5l1,1l4.2-4.3
					l-7.1-7.2l-4.2,4.3l1,1l-3.5,3.4l-1.9-1.9L51.7,39.7l-1.9-1.9L45.5,42L58.5,55l4.3-4.3l-1.9-1.9l5.4-5.4
					c2.8,2.5,4.8,5.8,5.9,9.3c-1.7,0.4-3,1.9-3,3.8c0,2.1,1.7,3.8,3.8,3.8c-0.1,0.8-0.2,1.6-0.4,2.4c-0.8-0.3-1.6-0.5-2.4-0.5H55.6
					c-2.7,0-4.8,2.2-4.8,4.8v1h12.6c0,0.3-0.1,0.6-0.1,1v2.9H49.8c-2.7,0-4.8,2.2-4.8,4.8v2.9h38.5v-2.9
					C83.5,74,81.4,71.9,78.7,71.9z M73.9,22.2l4.4,4.4l-1.5,1.5l-4.4-4.4L73.9,22.2z M72,26.1l2.5,2.5L71,32l-2.5-2.5L72,26.1z
					 M58.5,52.2L48.3,42l1.5-1.5L60,50.7L58.5,52.2z M59.4,47.4l-6.3-6.3l12.1-12.1l6.3,6.3L59.4,47.4z M67.6,42l2.7-2.7
					c5.3,4.9,8.4,11.9,8.4,19.1c0,3.4-0.7,6.8-2,9.9c-0.2-1.9-1.1-3.5-2.5-4.6c0.3-1.3,0.5-2.6,0.6-3.9c1.2-0.7,2-1.9,2-3.3
					c0-1.7-1.1-3.1-2.7-3.6C73,48.7,70.7,44.9,67.6,42z M71,56.5c0-1.1,0.9-1.9,1.9-1.9c1.1,0,1.9,0.9,1.9,1.9s-0.9,1.9-1.9,1.9
					C71.9,58.4,71,57.5,71,56.5z M52.8,66.1c0.4-1.1,1.5-1.9,2.7-1.9h9.7c-0.6,0.6-1,1.2-1.4,1.9H52.8z M81.6,77.7H46.9v-1
					c0-1.6,1.3-2.9,2.9-2.9h17.3v-1.9h-1.9V69c0-2.7,2.2-4.8,4.8-4.8s4.8,2.2,4.8,4.8v2.9h-5.8v1.9h9.6c1.6,0,2.9,1.3,2.9,2.9V77.7z
					"/>
			</g>
		</g>
	</g>
	<g class="st2">
		<path class="st3" d="M91,91.5H13c-0.8,0-1.5-0.7-1.5-1.5V7c0-0.8,0.7-1.5,1.5-1.5h78c0.8,0,1.5,0.7,1.5,1.5v83
			C92.5,90.8,91.8,91.5,91,91.5z M14.5,88.5h75v-80h-75V88.5z"/>
	</g>
	<g class="st2">
		<g>
			<path class="st3" d="M11.3,22.5c-4.7,0-8.5-3.1-8.5-6.8c0-3.8,3.8-6.8,8.5-6.8c0.5,0,0.9,0,1.4,0.1c0.8,0.1,1.4,0.9,1.3,1.7
				c-0.1,0.8-0.9,1.4-1.7,1.3c-0.3,0-0.7-0.1-1-0.1c-3,0-5.5,1.8-5.5,3.8c0,2.1,2.5,3.8,5.5,3.8c0.4,0,0.8,0,1.2-0.1
				c0.8-0.1,1.6,0.4,1.7,1.2c0.1,0.8-0.4,1.6-1.2,1.7C12.5,22.5,11.9,22.5,11.3,22.5z"/>
		</g>
		<g>
			<path class="st3" d="M11.3,39.6c-4.7,0-8.5-3.1-8.5-6.8c0-3.8,3.8-6.8,8.5-6.8c0.5,0,0.9,0,1.4,0.1c0.8,0.1,1.4,0.9,1.3,1.7
				c-0.1,0.8-0.9,1.4-1.7,1.3c-0.3,0-0.7-0.1-1-0.1c-3,0-5.5,1.8-5.5,3.8c0,2.1,2.5,3.8,5.5,3.8c0.4,0,0.8,0,1.2-0.1
				c0.8-0.1,1.6,0.4,1.7,1.2c0.1,0.8-0.4,1.6-1.2,1.7C12.5,39.6,11.9,39.6,11.3,39.6z"/>
		</g>
		<g>
			<path class="st3" d="M11.3,56.8c-4.7,0-8.5-3.1-8.5-6.8c0-3.8,3.8-6.8,8.5-6.8c0.5,0,0.9,0,1.4,0.1c0.8,0.1,1.4,0.9,1.3,1.7
				c-0.1,0.8-0.9,1.4-1.7,1.3c-0.3,0-0.7-0.1-1-0.1c-3,0-5.5,1.8-5.5,3.8s2.5,3.8,5.5,3.8c0.4,0,0.8,0,1.2-0.1
				c0.8-0.1,1.6,0.4,1.7,1.2s-0.4,1.6-1.2,1.7C12.5,56.7,11.9,56.8,11.3,56.8z"/>
		</g>
		<g>
			<path class="st3" d="M11.3,73.9c-4.7,0-8.5-3.1-8.5-6.8c0-3.8,3.8-6.8,8.5-6.8c0.5,0,0.9,0,1.4,0.1c0.8,0.1,1.4,0.9,1.3,1.7
				c-0.1,0.8-0.9,1.4-1.7,1.3c-0.3,0-0.7-0.1-1-0.1c-3,0-5.5,1.8-5.5,3.8s2.5,3.8,5.5,3.8c0.4,0,0.8,0,1.2-0.1
				c0.8-0.1,1.6,0.4,1.7,1.2s-0.4,1.6-1.2,1.7C12.5,73.8,11.9,73.9,11.3,73.9z"/>
		</g>
		<g>
			<path class="st3" d="M11.3,91c-4.7,0-8.5-3.1-8.5-6.8c0-3.8,3.8-6.8,8.5-6.8c0.5,0,0.9,0,1.4,0.1c0.8,0.1,1.4,0.9,1.3,1.7
				c-0.1,0.8-0.9,1.4-1.7,1.3c-0.3,0-0.7-0.1-1-0.1c-3,0-5.5,1.8-5.5,3.8S8.4,88,11.3,88c0.4,0,0.8,0,1.2-0.1
				c0.8-0.1,1.6,0.4,1.7,1.2s-0.4,1.6-1.2,1.7C12.5,91,11.9,91,11.3,91z"/>
		</g>
	</g>
</g>
<g id="ic8">
	<g>
		<g>
			<path class="st3" d="M56.3,18.3h-0.1c-0.7-4.8-4.9-8.6-9.9-8.6c-5.5,0-10,4.5-10,10s4.5,10,10,10c2.2,0,4.2-0.7,5.8-1.9
				c1.1,1.2,2.6,1.9,4.2,1.9c3.2,0,5.7-2.6,5.7-5.7S59.5,18.3,56.3,18.3z M46.3,12.6c3.4,0,6.3,2.4,7,5.6c-3.8-0.4-7.4-2.1-10-5
				C44.2,12.8,45.3,12.6,46.3,12.6z M46.3,26.9c-3.9,0-7.2-3.2-7.2-7.2c0-1.8,0.7-3.5,1.9-4.8c3.2,3.6,7.6,5.8,12.3,6.2
				C52.7,24.4,49.8,26.9,46.3,26.9z M56.3,26.9c-0.8,0-1.6-0.4-2.1-1c1.1-1.3,1.8-3,2-4.8h0.1c1.6,0,2.9,1.3,2.9,2.9
				C59.2,25.6,57.9,26.9,56.3,26.9z"/>
		</g>
	</g>
	<g>
		<g>
			<path class="st3" d="M57.8,78.4c0.8,0,1.4-0.6,1.4-1.4V39.3c9.6-0.7,17.2-8.8,17.2-18.6c0-0.8-0.6-1.4-1.4-1.4s-1.4,0.6-1.4,1.4
				c0,8.3-6.4,15.1-14.5,15.7c-0.6-2.2-2.7-3.8-5-3.8H38.7c-2.4,0-4.4,1.6-5,3.8h-3.1v-10c0-0.8-0.6-1.4-1.4-1.4h-5.7
				c-0.8,0-1.4,0.6-1.4,1.4v4.3h-1.4c-2.4,0-4.3,1.9-4.3,4.3s1.9,4.3,4.3,4.3H22v4.3c0,2.4,1.9,4.3,4.3,4.3s4.3-1.9,4.3-4.3v-4.3
				h2.9V77c0,0.8,0.6,1.4,1.4,1.4h4.3v16l-4.7,1.6c-0.7,0.2-1.2,1.1-0.9,1.8c0.2,0.6,0.8,1,1.4,1c0.1,0,0.3,0,0.5-0.1l5.7-1.9
				c0.6-0.2,1-0.7,1-1.4V78.4h8.6v17.1c0,0.6,0.4,1.2,1,1.4l5.7,1.9c0.2,0,0.3,0.1,0.5,0.1c0.6,0,1.2-0.4,1.4-1
				c0.2-0.7-0.2-1.6-0.9-1.8l-4.7-1.6v-16H57.8z M53.5,35.5H54c1.3,0,2.4,1.1,2.4,2.4v37.7h-2.9V35.5z M22,36.5h-1.4
				c-0.8,0-1.4-0.6-1.4-1.4c0-0.8,0.6-1.4,1.4-1.4H22V36.5z M27.7,43.6c0,0.8-0.6,1.4-1.4,1.4c-0.8,0-1.4-0.6-1.4-1.4v-10h2.9V43.6z
				 M27.7,30.7h-2.9v-2.9h2.9V30.7z M39.2,75.6h-2.9V37.9c0-1.3,1.1-2.4,2.4-2.4h0.5V75.6z M50.6,75.6H42v-5.7h8.6V75.6z M50.6,67
				H42V52.7h8.6V67z M50.6,49.8H42V35.5h2.9v4.3c0,0.8,0.6,1.4,1.4,1.4c0.8,0,1.4-0.6,1.4-1.4v-4.3h2.9V49.8z"/>
		</g>
	</g>
	<g>
		<g>
			<path class="st3" d="M83.7,7.5c-0.2-0.5-0.6-0.9-1.2-1l-4.3-0.6l-1.9-3.9C76,1.5,75.5,1.1,75,1.1s-1,0.3-1.3,0.8l-1.9,3.9
				l-4.3,0.6c-0.5,0.1-1,0.5-1.2,1c-0.2,0.5,0,1.1,0.4,1.5l3.1,3.1L69,16.3c-0.1,0.5,0.1,1.1,0.6,1.4c0.4,0.3,1,0.4,1.5,0.1l3.9-2
				l3.9,2c0.2,0.1,0.4,0.2,0.7,0.2c0.8,0,1.4-0.6,1.4-1.4c0-0.1,0-0.2,0-0.3L80.2,12l3.1-3.1C83.7,8.6,83.8,8,83.7,7.5z M77.6,10.5
				c-0.3,0.3-0.5,0.8-0.4,1.3l0.4,2.2l-2-1c-0.2-0.1-0.4-0.2-0.7-0.2c-0.2,0-0.5,0.1-0.7,0.2l-2,1l0.4-2.2c0.1-0.5-0.1-0.9-0.4-1.3
				l-1.6-1.6l2.2-0.3c0.5-0.1,0.9-0.4,1.1-0.8l1-2l1,2c0.2,0.4,0.6,0.7,1.1,0.8l2.2,0.3L77.6,10.5z"/>
		</g>
	</g>
</g>
</svg>
