<?xml version="1.0" encoding="utf-8"?>
<!-- Generator: Adobe Illustrator 22.1.0, SVG Export Plug-In . SVG Version: 6.00 Build 0)  -->
<svg version="1.1" id="Layer_1" xmlns="http://www.w3.org/2000/svg" xmlns:xlink="http://www.w3.org/1999/xlink" x="0px" y="0px"
	 viewBox="0 0 100 100" style="enable-background:new 0 0 100 100;" xml:space="preserve">
<style type="text/css">
	.st0{fill:#46BC93;}
	.st1{enable-background:new    ;}
</style>
<g id="Layer_2_1_">
	<path class="st0" d="M87.7,53.3c2.4,0,4.3-1.9,4.3-4.3V37.4c0-2.4-1.9-4.3-4.3-4.3h-3.1c-0.6-1.7-2.2-2.9-4.1-2.9h-13H30.1h-13
		c-2.4,0-4.3,1.9-4.3,4.3v47.7C10.2,82.7,8,84.5,7.2,87l-1.6,4.7c-0.1,0.4-0.1,0.9,0.2,1.3c0.3,0.4,0.7,0.6,1.2,0.6h83.6
		c0.5,0,0.9-0.2,1.2-0.6c0.3-0.4,0.3-0.9,0.2-1.3L90.4,87c-0.8-2.5-3-4.3-5.6-4.8V53.3H87.7z M89.1,37.4V49c0,0.8-0.6,1.4-1.4,1.4
		h-2.9V36h2.9C88.5,36,89.1,36.6,89.1,37.4z M15.7,34.6c0-0.8,0.6-1.4,1.4-1.4h63.4c0.8,0,1.4,0.6,1.4,1.4v47.5H15.7V34.6z
		 M87.6,87.9l0.9,2.8H9l0.9-2.8c0.6-1.8,2.2-3,4.1-3h69.5C85.4,85,87,86.2,87.6,87.9z"/>
	<path class="st0" d="M74.7,41.8H69c-0.8,0-1.4,0.6-1.4,1.4V72c0,0.8,0.6,1.4,1.4,1.4h5.8c0.8,0,1.4-0.6,1.4-1.4V43.2
		C76.2,42.4,75.5,41.8,74.7,41.8z M73.3,70.6h-2.9v-26h2.9V70.6z"/>
	<path class="st0" d="M18.5,34.6c-0.8,0-1.4,0.6-1.4,1.4v2.9c0,0.8,0.6,1.4,1.4,1.4s1.4-0.6,1.4-1.4V36C20,35.2,19.3,34.6,18.5,34.6
		z"/>
	<path class="st0" d="M18.5,41.8c-0.8,0-1.4,0.6-1.4,1.4v8.6c0,0.8,0.6,1.4,1.4,1.4s1.4-0.6,1.4-1.4v-8.6
		C20,42.4,19.3,41.8,18.5,41.8z"/>
	<g class="st1">
		<path class="st0" d="M59,45.7c0.3,0.2,0.6,0.4,0.8,0.8c0.2,0.3,0.3,0.7,0.3,1.1c0,0.4-0.1,0.8-0.3,1.1c-0.2,0.3-0.5,0.6-0.8,0.8
			c-0.3,0.2-0.7,0.3-1.1,0.3s-0.8-0.1-1.1-0.3c-0.3-0.2-0.6-0.4-0.8-0.8c-0.2-0.3-0.3-0.7-0.3-1.1c0-0.4,0.1-0.8,0.3-1.1
			c0.2-0.3,0.5-0.6,0.8-0.8c0.3-0.2,0.7-0.3,1.1-0.3S58.7,45.5,59,45.7z M57.2,46.3c-0.2,0.1-0.4,0.3-0.5,0.5
			c-0.1,0.2-0.2,0.5-0.2,0.7c0,0.3,0.1,0.5,0.2,0.7s0.3,0.4,0.5,0.5s0.5,0.2,0.7,0.2c0.3,0,0.5-0.1,0.7-0.2s0.4-0.3,0.5-0.5
			s0.2-0.5,0.2-0.7c0-0.3-0.1-0.5-0.2-0.7c-0.1-0.2-0.3-0.4-0.5-0.5s-0.4-0.2-0.7-0.2C57.7,46.1,57.4,46.2,57.2,46.3z"/>
		<path class="st0" d="M63.7,45.5h0.8v4.2h-0.8l-2.1-2.9v2.9h-0.8v-4.2h0.8l2.1,2.9V45.5z"/>
	</g>
	<g class="st1">
		<path class="st0" d="M56,66.5c0.3,0.2,0.6,0.4,0.8,0.8c0.2,0.3,0.3,0.7,0.3,1.1c0,0.4-0.1,0.8-0.3,1.1c-0.2,0.3-0.5,0.6-0.8,0.8
			c-0.3,0.2-0.7,0.3-1.1,0.3s-0.8-0.1-1.1-0.3c-0.3-0.2-0.6-0.4-0.8-0.8c-0.2-0.3-0.3-0.7-0.3-1.1c0-0.4,0.1-0.8,0.3-1.1
			c0.2-0.3,0.5-0.6,0.8-0.8c0.3-0.2,0.7-0.3,1.1-0.3S55.7,66.3,56,66.5z M54.2,67.1c-0.2,0.1-0.4,0.3-0.5,0.5
			c-0.1,0.2-0.2,0.5-0.2,0.7c0,0.3,0.1,0.5,0.2,0.7s0.3,0.4,0.5,0.5s0.5,0.2,0.7,0.2c0.3,0,0.5-0.1,0.7-0.2s0.4-0.3,0.5-0.5
			c0.1-0.2,0.2-0.5,0.2-0.7c0-0.3-0.1-0.5-0.2-0.7c-0.1-0.2-0.3-0.4-0.5-0.5s-0.4-0.2-0.7-0.2C54.7,66.9,54.4,67,54.2,67.1z"/>
		<path class="st0" d="M57.8,66.2h2.9l0,0.7h-2.1v1.1h1.9v0.7h-1.9v1.6h-0.8V66.2z"/>
		<path class="st0" d="M61.3,66.2h2.9l0,0.7h-2.1v1.1H64v0.7h-1.9v1.6h-0.8V66.2z"/>
	</g>
	<rect x="69" y="43.1" class="st0" width="5.5" height="12.3"/>
	<g>
		<path class="st0" d="M43.5,28.4c-0.5,0-0.9-0.4-1-0.8c-0.1-0.5,0.3-1.1,0.8-1.1c1.5-0.2,2.4-2.3,2.2-4c-0.2-2.1-1.5-3.9-2.5-5
			c-0.6-0.7-1.3-1.3-2-1.9c-1.6-1.4-3.2-2.8-3.9-4.9c-0.6-1.8-0.6-5.4,1.3-7.1c0.6-0.6,2-1.3,4.1-0.3C43.9,3.9,44.6,5.7,44,7
			c-0.2,0.5-0.8,0.7-1.3,0.5S42,6.7,42.2,6.2c0.2-0.4-0.1-1-0.6-1.2c-1.1-0.5-1.6-0.2-1.9,0c-1,0.9-1.2,3.5-0.7,4.9
			c0.6,1.7,1.9,2.8,3.4,4.1c0.7,0.6,1.5,1.3,2.2,2.1c1.7,1.9,2.7,4,3,6.1c0.3,2.7-1.1,5.8-3.9,6.2C43.6,28.4,43.6,28.4,43.5,28.4z"
			/>
	</g>
	<g>
		<path class="st0" d="M50.4,28.8c-0.5,0-0.9-0.4-1-0.9s0.3-1.1,0.9-1.1c1.1-0.2,1.9-1.5,1.9-2.7c0-1.5-0.9-2.9-1.7-4
			c-0.2-0.3-0.4-0.6-0.6-0.9c-0.8-1.1-1.7-2.2-2.2-3.6c-0.7-1.8-2.5-6.1,0.7-8.1c0.9-0.6,2.1-0.8,3.2-0.5c1.1,0.3,2.1,0.9,2.7,1.8
			c0.6,0.9,0.8,2.1,0.5,3.2s-0.9,2.1-1.8,2.7c-0.5,0.3-1.1,0.2-1.4-0.3c-0.3-0.5-0.2-1.1,0.3-1.4c0.5-0.3,0.8-0.8,0.9-1.4
			c0.1-0.6,0-1.2-0.2-1.7c-0.5-0.4-1-0.7-1.6-0.9c-0.6-0.1-1.2,0-1.7,0.2c-1.6,1-0.9,3.3,0.1,5.7c0.4,1.1,1.2,2.1,1.9,3.1
			c0.2,0.3,0.5,0.6,0.7,0.9c0.9,1.3,2,3.1,2.1,5.2C54.1,26.2,52.8,28.5,50.4,28.8C50.4,28.8,50.4,28.8,50.4,28.8z"/>
	</g>
	<g>
		<path class="st0" d="M39.8,28.6c-0.6,0-1.2-0.2-1.7-0.6c-0.4-0.4-0.5-1-0.1-1.4s1-0.5,1.4-0.1c0.3,0.2,0.6,0.1,0.8,0
			c0.5-0.2,0.9-0.8,0.9-1.3c0-1.2-1.1-2.2-2.2-2.8c-0.8-0.4-1.7-0.6-2.6-0.8c-0.7-0.2-1.4-0.3-2-0.6c-2.2-0.7-3.7-2.1-4.2-3.8
			c-0.3-1.2,0.1-2.6,1-3.5c0.8-0.8,1.8-1.1,2.8-0.9c0.5,0.1,0.9,0.7,0.8,1.2c-0.1,0.5-0.7,0.9-1.2,0.8c-0.4-0.1-0.7,0.1-0.9,0.3
			c-0.4,0.4-0.6,1.1-0.5,1.6c0.4,1.5,2.2,2.2,2.9,2.5c0.6,0.2,1.2,0.4,1.9,0.5c1,0.2,2,0.5,2.9,0.9c1.6,0.7,3.5,2.4,3.4,4.6
			c0,1.3-0.9,2.5-2.1,3C40.6,28.5,40.2,28.6,39.8,28.6z"/>
	</g>
</g>
<g id="Layer_3">
</g>
</svg>
