<?xml version="1.0" encoding="utf-8"?>
<!-- Generator: Adobe Illustrator 22.1.0, SVG Export Plug-In . SVG Version: 6.00 Build 0)  -->
<svg version="1.1" xmlns="http://www.w3.org/2000/svg" xmlns:xlink="http://www.w3.org/1999/xlink" x="0px" y="0px"
	 viewBox="0 0 100 100" style="enable-background:new 0 0 100 100;" xml:space="preserve">
<style type="text/css">
	.st0{display:none;}
	.st1{display:inline;fill:#46BC93;}
	.st2{font-family:'Montserrat-Medium';}
	.st3{font-size:5.9414px;}
	.st4{display:inline;}
	.st5{fill:#46BC93;}
	.st6{fill:#48BC93;}
</style>
<g id="Layer_2" class="st0">
	<path class="st1" d="M87.7,53.3c2.4,0,4.3-1.9,4.3-4.3V37.4c0-2.4-1.9-4.3-4.3-4.3h-3.1c-0.6-1.7-2.2-2.9-4.1-2.9h-13H30.1h-13
		c-2.4,0-4.3,1.9-4.3,4.3v47.7C10.2,82.7,8,84.5,7.2,87l-1.6,4.7c-0.1,0.4-0.1,0.9,0.2,1.3c0.3,0.4,0.7,0.6,1.2,0.6h83.6
		c0.5,0,0.9-0.2,1.2-0.6c0.3-0.4,0.3-0.9,0.2-1.3L90.4,87c-0.8-2.5-3-4.3-5.6-4.8V53.3H87.7z M89.1,37.4V49c0,0.8-0.6,1.4-1.4,1.4
		h-2.9V36h2.9C88.5,36,89.1,36.6,89.1,37.4z M15.7,34.6c0-0.8,0.6-1.4,1.4-1.4h63.4c0.8,0,1.4,0.6,1.4,1.4v47.5H15.7V34.6z
		 M87.6,87.9l0.9,2.8H9l0.9-2.8c0.6-1.8,2.2-3,4.1-3h69.5C85.4,85,87,86.2,87.6,87.9z"/>
	<path class="st1" d="M74.7,41.8H69c-0.8,0-1.4,0.6-1.4,1.4V72c0,0.8,0.6,1.4,1.4,1.4h5.8c0.8,0,1.4-0.6,1.4-1.4V43.2
		C76.2,42.4,75.5,41.8,74.7,41.8z M73.3,70.6h-2.9V44.6h2.9V70.6z"/>
	<path class="st1" d="M18.5,34.6c-0.8,0-1.4,0.6-1.4,1.4v2.9c0,0.8,0.6,1.4,1.4,1.4c0.8,0,1.4-0.6,1.4-1.4V36
		C20,35.2,19.3,34.6,18.5,34.6z"/>
	<path class="st1" d="M18.5,41.8c-0.8,0-1.4,0.6-1.4,1.4v8.6c0,0.8,0.6,1.4,1.4,1.4c0.8,0,1.4-0.6,1.4-1.4v-8.6
		C20,42.4,19.3,41.8,18.5,41.8z"/>
	<text transform="matrix(1 0 0 1 55.5 49.6449)" class="st1 st2 st3">ON</text>
	<text transform="matrix(1 0 0 1 52.4981 70.3949)" class="st1 st2 st3">OFF</text>
	<rect x="69" y="43.1" class="st1" width="5.5" height="12.3"/>
	<g class="st4">
		<path class="st5" d="M43.5,28.4c-0.5,0-0.9-0.4-1-0.8c-0.1-0.5,0.3-1.1,0.8-1.1c1.5-0.2,2.4-2.3,2.2-4c-0.2-2.1-1.5-3.9-2.5-5
			c-0.6-0.7-1.3-1.3-2-1.9c-1.6-1.4-3.2-2.8-3.9-4.9c-0.6-1.8-0.6-5.4,1.3-7.1c0.6-0.6,2-1.3,4.1-0.3C43.9,3.9,44.6,5.7,44,7
			c-0.2,0.5-0.8,0.7-1.3,0.5c-0.5-0.2-0.7-0.8-0.5-1.3c0.2-0.4-0.1-1-0.6-1.2c-1.1-0.5-1.6-0.2-1.9,0c-1,0.9-1.2,3.5-0.7,4.9
			c0.6,1.7,1.9,2.8,3.4,4.1c0.7,0.6,1.5,1.3,2.2,2.1c1.7,1.9,2.7,4,3,6.1c0.3,2.7-1.1,5.8-3.9,6.2C43.6,28.4,43.6,28.4,43.5,28.4z"
			/>
	</g>
	<g class="st4">
		<path class="st5" d="M50.4,28.8c-0.5,0-0.9-0.4-1-0.9c-0.1-0.5,0.3-1.1,0.9-1.1c1.1-0.2,1.9-1.5,1.9-2.7c0-1.5-0.9-2.9-1.7-4
			c-0.2-0.3-0.4-0.6-0.6-0.9c-0.8-1.1-1.7-2.2-2.2-3.6c-0.7-1.8-2.5-6.1,0.7-8.1c0.9-0.6,2.1-0.8,3.2-0.5c1.1,0.3,2.1,0.9,2.7,1.8
			c0.6,0.9,0.8,2.1,0.5,3.2c-0.3,1.1-0.9,2.1-1.8,2.7c-0.5,0.3-1.1,0.2-1.4-0.3c-0.3-0.5-0.2-1.1,0.3-1.4c0.5-0.3,0.8-0.8,0.9-1.4
			c0.1-0.6,0-1.2-0.2-1.7C52.1,9.5,51.6,9.2,51,9c-0.6-0.1-1.2,0-1.7,0.2c-1.6,1-0.9,3.3,0.1,5.7c0.4,1.1,1.2,2.1,1.9,3.1
			c0.2,0.3,0.5,0.6,0.7,0.9c0.9,1.3,2,3.1,2.1,5.2c0,2.1-1.3,4.4-3.6,4.7C50.4,28.8,50.4,28.8,50.4,28.8z"/>
	</g>
	<g class="st4">
		<path class="st5" d="M39.8,28.6c-0.6,0-1.2-0.2-1.7-0.6c-0.4-0.4-0.5-1-0.1-1.4s1-0.5,1.4-0.1c0.3,0.2,0.6,0.1,0.8,0
			c0.5-0.2,0.9-0.8,0.9-1.3c0-1.2-1.1-2.2-2.2-2.8c-0.8-0.4-1.7-0.6-2.6-0.8c-0.7-0.2-1.4-0.3-2-0.6c-2.2-0.7-3.7-2.1-4.2-3.8
			c-0.3-1.2,0.1-2.6,1-3.5c0.8-0.8,1.8-1.1,2.8-0.9c0.5,0.1,0.9,0.7,0.8,1.2c-0.1,0.5-0.7,0.9-1.2,0.8c-0.4-0.1-0.7,0.1-0.9,0.3
			c-0.4,0.4-0.6,1.1-0.5,1.6c0.4,1.5,2.2,2.2,2.9,2.5c0.6,0.2,1.2,0.4,1.9,0.5c1,0.2,2,0.5,2.9,0.9c1.6,0.7,3.5,2.4,3.4,4.6
			c0,1.3-0.9,2.5-2.1,3C40.6,28.5,40.2,28.6,39.8,28.6z"/>
	</g>
</g>
<g id="Layer_3">
	<g>
		<path class="st5" d="M72,47.5L56.2,32.3c-0.3-0.3-0.8-0.3-1.1,0c-0.3,0.3-0.3,0.8,0,1.1l12.7,12.1c1.6,1.5,1.7,4.1,0.1,5.7
			c-1.3,1.4-2.8,1.7-4.4,1c-1.4-0.6-3-0.3-4.1,0.8L47.7,65.4c-1.2,1.3-3.2,1.3-4.5,0.1L26.6,49.9c-1.3-1.2-1.3-3.2-0.1-4.5
			l11.9-12.5c1-1.1,1.3-2.7,0.6-4.1c-0.8-1.6-0.6-3.1,0.7-4.4c1.5-1.6,4.1-1.7,5.7-0.1l7.5,7.1c0.3,0.3,0.8,0.3,1.1,0
			c0.3-0.3,0.3-0.8,0-1.1L46.4,23c-2.2-2.1-5.7-2-7.9,0.2c-1.8,1.8-2.1,4.1-1,6.2c0.4,0.8,0.3,1.7-0.3,2.3L25.4,44.3
			c-1.8,1.9-1.7,4.9,0.2,6.7l19.6,18.7c1.9,1.8,4.9,1.7,6.7-0.2l1.7-1.8c0.3-0.3,0.3-0.8,0-1.1c-0.3-0.3-0.8-0.3-1.1,0l-1.7,1.8
			c-1.2,1.3-3.2,1.3-4.5,0.1l-0.6-0.6c1.1-0.1,2.3-0.6,3.1-1.5L60.6,54c0.6-0.6,1.4-0.8,2.2-0.5l1.5,1.5c-0.6,0.2-1.2,0.5-1.7,1
			l-7.8,8.2c-0.3,0.3-0.3,0.8,0,1.1c0.3,0.3,0.8,0.3,1.1,0l7.8-8.2c0.6-0.6,1.5-0.8,2.3-0.4c2.2,1,4.4,0.6,6.2-1.3
			C74.4,53.1,74.3,49.6,72,47.5z"/>
	</g>
	<g>
		<path class="st5" d="M53.2,93.5c-0.3,0-0.5-0.1-0.7-0.3l-50-49.1c-0.2-0.2-0.3-0.5-0.3-0.8c0-0.3,0.1-0.5,0.4-0.7L44,7.8
			c0.4-0.3,0.9-0.3,1.3,0L97.4,52c0.2,0.2,0.3,0.5,0.4,0.7c0,0.3-0.1,0.6-0.3,0.8L53.9,93.3C53.7,93.4,53.4,93.5,53.2,93.5z
			 M4.7,43.5l48.6,47.6l42-38.4L44.7,9.9L4.7,43.5z"/>
	</g>
	<g>
		<path class="st5" d="M5.5,45.1c-0.1,0-0.2,0-0.3,0l-2.3-0.7c-0.4-0.1-0.6-0.4-0.7-0.8c-0.1-0.4,0.1-0.7,0.3-1L44,7.8
			c0.3-0.3,0.7-0.3,1.1-0.1c0.4,0.2,0.6,0.6,0.5,1l-0.2,2.8c0,0.3-0.1,0.5-0.4,0.7l-39,32.8C6,45.1,5.7,45.1,5.5,45.1z M5.2,43
			L5.2,43l38.3-32.1l0-0.1L5.2,43z"/>
	</g>
	<g>
		<path class="st5" d="M54.9,91.9c-0.3,0-0.5-0.1-0.7-0.3l-48.6-47c-0.4-0.4-0.4-1,0-1.4c0.4-0.4,1-0.4,1.4,0l48.6,47
			c0.4,0.4,0.4,1,0,1.4C55.4,91.8,55.1,91.9,54.9,91.9z"/>
	</g>
	<g>
		<path class="st5" d="M94.3,55.9c-0.4,0-0.7-0.1-1-0.4l-49.8-43c-0.4-0.3-0.5-0.8-0.5-1.2l0.2-2.8c0-0.6,0.4-1.1,0.9-1.3
			C44.6,7,45.2,7,45.6,7.4l52.1,44.2c0.4,0.3,0.6,0.8,0.5,1.2c0,0.5-0.3,0.9-0.7,1.2l-2.4,1.6C94.9,55.8,94.6,55.9,94.3,55.9z"/>
	</g>
	<g>
		
			<rect x="33.3" y="38.5" transform="matrix(0.9384 -0.3457 0.3457 0.9384 -10.9664 16.5338)" class="st6" width="15.2" height="1"/>
	</g>
	<g>
		
			<rect x="35.8" y="41.8" transform="matrix(0.9384 -0.3457 0.3457 0.9384 -11.9357 17.5982)" class="st6" width="15.2" height="1"/>
	</g>
	<g>
		
			<rect x="36.3" y="46.5" transform="matrix(0.9384 -0.3457 0.3457 0.9384 -13.5467 18.0639)" class="st6" width="15.2" height="1"/>
	</g>
	<g>
		<rect x="39.8" y="49.8" transform="matrix(0.9382 -0.346 0.346 0.9382 -14.4648 19.4949)" class="st6" width="15.2" height="1"/>
	</g>
</g>
</svg>
