<?xml version="1.0" encoding="utf-8"?>
<!-- Generator: Adobe Illustrator 22.0.1, SVG Export Plug-In . SVG Version: 6.00 Build 0)  -->
<svg version="1.1" xmlns="http://www.w3.org/2000/svg" xmlns:xlink="http://www.w3.org/1999/xlink" x="0px" y="0px"
	 viewBox="0 0 50 50" style="enable-background:new 0 0 50 50;" xml:space="preserve">
<style type="text/css">
	.st0{display:none;}
	.st1{display:inline;}
	.st2{fill:#2DC997;}
	.st3{display:inline;fill:none;stroke:#2DC997;stroke-width:2;stroke-miterlimit:10;}
	.st4{fill:#2DC997;stroke:#2DC997;stroke-width:0.5;stroke-miterlimit:10;}
</style>
<g id="_x31_" class="st0">
	<g id="Layer_1_1_">
		<g class="st1">
			<rect x="24.2" y="27.6" class="st2" width="1.7" height="17.6"/>
		</g>
		<g class="st1">
			<path class="st2" d="M40.6,31.8h-13c-0.2,0-0.5-0.1-0.6-0.3l-2-2l-2,2c-0.2,0.2-0.4,0.3-0.6,0.3h-13c-0.5,0-0.9-0.4-0.9-0.9v-24
				h1.7v23.2H22l0.9-0.9H12c-0.5,0-0.9-0.4-0.9-0.9V4.9C11.1,4.4,11.5,4,12,4h26c0.5,0,0.9,0.4,0.9,0.9v23.4c0,0.5-0.4,0.9-0.9,0.9
				H27.1L28,30h11.8V6.9h1.7V31C41.5,31.4,41.1,31.8,40.6,31.8z M12.9,27.5h24.3V5.8H12.9V27.5z M25.9,25h-1.7V8.1h1.7V25z M36.1,24
				H27v-1.7h9.1V24z M23.1,24H14v-1.7h9.1V24z M36.1,21.4H27v-1.7h9.1V21.4z M23.1,21.4H14v-1.7h9.1V21.4z M36.1,18.8H27V17h9.1
				V18.8z M23.1,18.8H14V17h9.1V18.8z M34.8,15.5h-1.3v-1.7h1.3V15.5z M32.2,15.5h-1.3v-1.7h1.3V15.5z M29.6,15.5h-1.3v-1.7h1.3
				V15.5z M36.1,12.2H27v-1.7h9.1V12.2z M36.1,9.6H27V8h9.1V9.6z"/>
		</g>
		<g class="st1">
			<path class="st2" d="M41.3,46H8.8v-1.7h32.5V46z M23.3,16.1h-9.5V8h9.5V16.1z M15.5,14.5h6.1V9.6h-6.1V14.5z"/>
		</g>
	</g>
	<g id="Layer_2_1_">
		<g id="icon2" class="st1">
			<g>
				<path class="st2" d="M24.9,45c-4.5,0-8.2-3.7-8.2-8.2c0-1.1,0.2-2.2,0.6-3.1L3.7,11.6c0,0,0,0,0-0.1c-0.1-0.3-0.1-0.7,0.1-0.9
					l4-5.3c0.1-0.2,0.3-0.3,0.6-0.3h33.1c0.3,0,0.5,0.1,0.7,0.4l4,5.3c0.2,0.3,0.2,0.6,0.1,0.9c0,0,0,0,0,0.1L32.5,33.8
					c0.4,1,0.6,2,0.6,3.1C33.1,41.3,29.4,45,24.9,45z M24.9,30.5c-3.5,0-6.4,2.9-6.4,6.4s2.9,6.4,6.4,6.4s6.4-2.9,6.4-6.4
					C31.3,33.3,28.4,30.5,24.9,30.5z M6,11.9l12.4,20c0.3-0.4,0.6-0.7,0.9-1L7.6,12.2L8,12.1H6V11.9z M30.6,31
					c0.3,0.3,0.6,0.7,0.9,1l12.4-20h-2l0.4,0.2L30.6,31z M9.6,11.9l11.1,17.9c0.3-0.2,0.7-0.4,1.1-0.5L11.2,11.9H9.6z M28.1,29.3
					c0.4,0.2,0.7,0.3,1.1,0.5l11.1-17.9h-1.6L28.1,29.3z M13.3,11.9l10.2,16.9c0.9-0.2,1.9-0.2,2.8,0l10.2-16.9H13.3z M6.2,10.2
					h37.5l-0.9-1.2v0.3H7.1V9.1L6.2,10.2z M8.2,7.6h33.5L41,6.6H8.8L8.2,7.6z M24.9,42.5c-3,0-5.5-2.5-5.5-5.5s2.5-5.5,5.5-5.5
					s5.5,2.5,5.5,5.5S28,42.5,24.9,42.5z M24.9,33.1c-2.1,0-3.7,1.7-3.7,3.7c0,2.1,1.7,3.7,3.7,3.7c2.1,0,3.7-1.7,3.7-3.7
					C28.7,34.8,27,33.1,24.9,33.1z M25.8,39.5H24v-3.7h-0.4V34h1.3c0.5,0,0.9,0.4,0.9,0.9V39.5z M28.2,17.2h-1.3v-1.8h1.3V17.2z
					 M25.6,17.2h-1.3v-1.8h1.3V17.2z M22.9,17.2h-1.3v-1.8h1.3V17.2z"/>
			</g>
		</g>
	</g>
	<g id="Layer_3">
		<g id="icon3" class="st1">
			<g>
				<rect x="31.2" y="36.4" class="st2" width="1.9" height="1.6"/>
			</g>
			<g>
				<path class="st2" d="M33.8,44.7h-1.6v-7.4c0-0.4,0.4-0.8,0.8-0.8h3.7c1.6,0,2.9-1.3,2.9-2.9v-5.5c0-0.4,0.4-0.8,0.8-0.8h2.9V27
					l-3.6-7.8c0-0.1-0.1-0.2-0.1-0.3c-0.1-6.6-5.5-12-12.1-12c-2.5,0-4.9,0.7-6.9,2.2l-0.9-1.3c2.3-1.6,5-2.5,7.8-2.5
					c7.5,0,13.6,6,13.7,13.5l3.6,7.8c0,0.1,0.1,0.2,0.1,0.3v1.2c0,0.4-0.4,0.8-0.8,0.8h-2.9v4.7c0,2.5-2,4.5-4.5,4.5h-2.9V44.7z
					 M20.2,44.7h-1.6v-7.4c0-1.6-0.3-3.2-1.1-5.3l1.5-0.5c0.8,2.2,1.2,4,1.2,5.8V44.7z M16.4,30.2c-0.2,0-0.3,0-0.4-0.1L14.4,29H6
					c-0.4,0-0.8-0.4-0.8-0.8V11c0-0.4,0.4-0.8,0.8-0.8h8.6c0.2,0,0.3,0,0.4,0.1l1.4,0.9l1.4-0.9c0.1-0.1,0.3-0.1,0.4-0.1h8.6
					c0.4,0,0.8,0.4,0.8,0.8v17.2c0,0.4-0.4,0.8-0.8,0.8h-8.3l-1.6,1.1C16.7,30.1,16.6,30.2,16.4,30.2z M17.2,12.6v15.3l0.6-0.4
					c0.1-0.1,0.3-0.1,0.4-0.1H26V11.8h-7.5L17.2,12.6z M6.8,27.4h7.8c0.2,0,0.3,0,0.4,0.1l0.6,0.4V12.6l-1.3-0.9H6.8V27.4z M25,25.3
					h-6.7v-1.6H25V25.3z M14.6,25.3H7.8v-1.6h6.7v1.6H14.6z M25,22.8h-6.7v-1.6H25V22.8z M14.6,22.8H7.8v-1.6h6.7v1.6H14.6z
					 M25,20.4h-6.7v-1.6H25V20.4z M14.6,20.4H7.8v-1.6h6.7v1.6H14.6z M25,17.9h-6.7v-1.6H25V17.9z M14.6,17.9H7.8v-1.6h6.7v1.6H14.6
					z M25,15.5h-6.7v-1.6H25V15.5z M14.6,15.5H7.8v-1.6h6.7v1.6H14.6z"/>
			</g>
			<g>
				<path class="st2" d="M30,25h-1.2v-1.6H30V25z M32.4,22.6h-1.2V21h1.2V22.6z M30,22.6h-1.2V21H30V22.6z M34.8,20.3h-1.2v-1.6h1.2
					V20.3z M32.4,20.3h-1.2v-1.6h1.2V20.3z M30,20.3h-1.2v-1.6H30V20.3z M32.4,17.9h-1.2v-1.6h1.2V17.9z M30,17.9h-1.2v-1.6H30V17.9
					z M30,15.5h-1.2v-1.6H30V15.5z"/>
			</g>
		</g>
	</g>
	<g id="Layer_4" class="st1">
		<g id="icon4">
			<g>
				<path class="st2" d="M22.2,49.6h-1.7V41l-3.8-7.7c-0.1-0.1-0.1-0.3-0.1-0.4v-6.6h1.7v6.3l3.8,7.7c0.1,0.1,0.1,0.3,0.1,0.4V49.6z
					"/>
			</g>
			<g>
				<path class="st2" d="M34.7,49.6h-1.5v-6c0-0.4,0.3-0.8,0.8-0.8h3.5c1.5,0,2.7-1.2,2.7-2.7v-5.3c0-0.4,0.3-0.8,0.8-0.8h2.7v-0.3
					l-3.4-7.4c-0.1-0.1-0.1-0.3-0.1-0.3c0-6.3-5.1-11.5-11.5-11.5h-2.8V13h2.8c7.2,0,13,5.7,13.1,12.9l3.4,7.4
					c0.1,0.1,0.1,0.3,0.1,0.3v1.2c0,0.4-0.3,0.8-0.8,0.8h-2.7v4.4c0,2.4-2,4.3-4.3,4.3h-2.7C34.7,44.4,34.7,49.6,34.7,49.6z"/>
			</g>
			<g>
				<g>
					<g>
						<path class="st2" d="M18.5,7.5c-4.7,0-8.5,3.8-8.5,8.5c0,2.4,1.1,4.8,2.9,6.4c1.3,1.3,1.2,4.2,1.2,4.2c0,0.2,0,0.3,0.2,0.4
							c0.1,0.1,0.2,0.2,0.4,0.2h7.8c0.2,0,0.3-0.1,0.4-0.2c0.1-0.1,0.2-0.2,0.2-0.4c0,0-0.2-2.9,1.2-4.2c0,0,0.1-0.1,0.1-0.1
							C26,20.7,27,18.4,27,16C27,11.3,23.2,7.5,18.5,7.5z M23.4,21.6c0,0-0.1,0.1-0.1,0.1c-1.2,1.3-1.4,3.4-1.4,4.4h-6.7
							c0-1-0.2-3.2-1.5-4.5c-1.6-1.4-2.6-3.5-2.6-5.6c0-4.1,3.3-7.4,7.4-7.4S26,11.9,26,16C26,18.1,25,20.2,23.4,21.6z"/>
						<path class="st2" d="M18.5,9.7c-0.3,0-0.5,0.2-0.5,0.5c0,0.3,0.2,0.5,0.5,0.5c3.1,0,5.6,2.5,5.6,5.6c0,0.3,0.2,0.5,0.5,0.5
							c0.3,0,0.5-0.2,0.5-0.5C25.1,12.6,22.2,9.7,18.5,9.7z"/>
						<path class="st2" d="M21.9,27.8h-6.8c-0.7,0-1.3,0.6-1.3,1.3s0.6,1.3,1.3,1.3h6.7c0.7,0,1.3-0.6,1.3-1.3S22.6,27.8,21.9,27.8z
							"/>
						<path class="st2" d="M20.9,30.8h-4.8c-0.7,0-1.3,0.6-1.3,1.3s0.6,1.3,1.3,1.3h4.8c0.7,0,1.3-0.6,1.3-1.3
							C22.2,31.4,21.6,30.8,20.9,30.8z"/>
						<path class="st2" d="M18.5,5C18.8,5,19,4.7,19,4.5V0.9c0-0.3-0.2-0.5-0.5-0.5S18,0.6,18,0.9v3.5C18,4.7,18.2,5,18.5,5z"/>
						<path class="st2" d="M27.1,3c-0.2-0.2-0.5-0.1-0.7,0.1l-2,2.9c-0.2,0.2-0.1,0.6,0.1,0.7c0.1,0.1,0.2,0.1,0.3,0.1
							c0.2,0,0.3-0.1,0.4-0.2l2-2.9C27.5,3.5,27.4,3.2,27.1,3z"/>
						<path class="st2" d="M12.3,6.8c0.1,0,0.2,0,0.3-0.1c0.2-0.2,0.3-0.5,0.2-0.7l-1.9-3c-0.2-0.2-0.5-0.3-0.7-0.2
							C9.9,3,9.8,3.3,10,3.6l1.9,3C12,6.7,12.1,6.8,12.3,6.8z"/>
						<path class="st2" d="M8.6,10L5.5,8.3C5.3,8.2,5,8.3,4.8,8.6C4.7,8.8,4.8,9.1,5,9.3l3.1,1.7C8.2,11,8.3,11,8.4,11
							c0.2,0,0.4-0.1,0.5-0.3C9,10.5,8.9,10.1,8.6,10z"/>
						<path class="st2" d="M32.2,8.6c-0.1-0.2-0.5-0.3-0.7-0.2L28.4,10c-0.2,0.1-0.3,0.5-0.2,0.7c0.1,0.2,0.3,0.3,0.5,0.3
							c0.1,0,0.2,0,0.2-0.1L32,9.3C32.2,9.1,32.3,8.8,32.2,8.6z"/>
					</g>
				</g>
			</g>
		</g>
	</g>
</g>
<g id="_x32_" class="st0">
	<path class="st3" d="M47,22.6L27.4,3c-1.3-1.3-3.5-1.3-4.9,0l-3.4,3.4l5,5.1c0.4-0.1,0.8-0.2,1.2-0.2c2.2,0,4,1.8,4,4
		c0,0.4-0.1,0.8-0.2,1.1l5,4.9c0.3-0.1,0.5-0.1,0.8-0.1c2.2,0,4,1.8,4,4c0,2.2-1.8,4-4,4c-2.2,0-4-1.8-4-4c0-0.5,0.1-1,0.3-1.5
		l-4-4.1V32c1.3,0.7,2.2,2,2.2,3.6c0,2.2-1.8,4-4,4c-2.2,0-4-1.8-4-4c0-1.5,0.8-2.8,2.1-3.5V18.9c-1.2-0.7-2.1-2-2.1-3.5
		c0-0.4,0.1-0.9,0.2-1.3l-4.9-5.2L3,22.6c-1.3,1.3-1.3,3.5,0,4.9L22.6,47c1.3,1.3,3.5,1.3,4.9,0L47,27.4
		C48.4,26.1,48.4,23.9,47,22.6z"/>
</g>
<g id="_x33_">
	<g id="surface1">
		<path class="st4" d="M45.3,10h-9.2c-0.4,0-0.7,0.3-0.7,0.7c0,0.4,0.3,0.7,0.7,0.7h9.2c0.4,0,0.7,0.3,0.7,0.7v25.2
			c0,0.4-0.3,0.7-0.7,0.7H4.7c-0.4,0-0.7-0.3-0.7-0.7V12c0-0.4,0.3-0.7,0.7-0.7h14.4v1.3H5.9c-0.4,0-0.7,0.3-0.7,0.7v17.3
			c0,0.4,0.3,0.7,0.7,0.7s0.7-0.3,0.7-0.7V13.9h12.5v3.5l-2.8,1.3c-0.2,0.1-0.4,0.3-0.4,0.6V30c0,0.3,0.1,0.5,0.4,0.6l8.5,4
			c0.2,0.1,0.4,0.1,0.6,0l4.8-2.3c0.3-0.2,0.5-0.5,0.3-0.9c-0.2-0.3-0.5-0.5-0.9-0.3L25.7,33v-9.2l7.2-3.4v9.2l-1,0.5
			c-0.3,0.2-0.5,0.5-0.3,0.9c0.2,0.3,0.5,0.5,0.9,0.3l1.3-0.6c0.2-0.1,0.4-0.3,0.4-0.6V19.4c0-0.2-0.1-0.5-0.4-0.6l-2.8-1.3v-3.5
			h12.5v21.4H6.6v-1.9c0-0.4-0.3-0.7-0.7-0.7S5.3,33,5.3,33.3v2.6c0,0.4,0.3,0.7,0.7,0.7h38.1c0.4,0,0.7-0.3,0.7-0.7V13.3
			c0-0.4-0.3-0.7-0.7-0.7H30.9v-1.3h2.4c0.4,0,0.7-0.3,0.7-0.7c0-0.4-0.3-0.7-0.7-0.7h-2.4V8.7h5.9c0.4,0,0.7-0.3,0.7-0.7V6.5
			c0.8-0.3,1.3-1,1.3-1.9c0-1.1-0.9-2-2-2s-2,0.9-2,2c0,0.9,0.5,1.6,1.3,1.9v0.9h-5.9c-0.4,0-0.7,0.3-0.7,0.7v2h-4V6.5
			c0.8-0.3,1.3-1,1.3-1.9c0-1.1-0.9-2-2-2s-2,0.9-2,2c0,0.9,0.5,1.6,1.3,1.9V10h-4V8c0-0.4-0.3-0.7-0.7-0.7h-5.9V6.5
			c0.8-0.3,1.3-1,1.3-1.9c0-1.1-0.9-2-2-2s-2,0.9-2,2c0,0.9,0.5,1.6,1.3,1.9V8c0,0.4,0.3,0.7,0.7,0.7h5.9V10H4.7c-1.1,0-2,0.9-2,2
			v25.2c0,1.1,0.9,2,2,2h14.2c-0.3,2.4-1.8,3.8-2.3,4.2h-2.8c-1.1,0-2,0.9-2,2s0.9,2,2,2h22.5c1.1,0,2-0.9,2-2s-0.9-2-2-2h-2.8
			c-0.5-0.4-2.1-1.8-2.3-4.2h14.2c1.1,0,2-0.9,2-2V12C47.3,10.9,46.4,10,45.3,10z M36.8,4c0.4,0,0.7,0.3,0.7,0.7
			c0,0.4-0.3,0.7-0.7,0.7S36.2,5,36.2,4.6C36.2,4.3,36.4,4,36.8,4z M25,4c0.4,0,0.7,0.3,0.7,0.7c0,0.4-0.3,0.7-0.7,0.7
			S24.3,5,24.3,4.6C24.3,4.3,24.6,4,25,4z M13.2,4c0.4,0,0.7,0.3,0.7,0.7c0,0.4-0.3,0.7-0.7,0.7c-0.4,0-0.7-0.3-0.7-0.7
			C12.5,4.3,12.8,4,13.2,4z M20.4,13.9h4v1l-4,1.9V13.9z M31.9,19.4L25,22.7l-6.9-3.3L25,16L31.9,19.4z M17.2,20.4l7.2,3.4V33
			l-7.2-3.4V20.4z M29.6,16.8l-4-1.9v-1h4V16.8z M29.6,11.3v1.3h-4v-1.3H29.6z M24.3,11.3v1.3h-4v-1.3H24.3z M36.9,45.4
			c0,0.4-0.3,0.7-0.7,0.7H13.7c-0.4,0-0.7-0.3-0.7-0.7s0.3-0.7,0.7-0.7h22.5C36.6,44.7,36.9,45,36.9,45.4z M31.6,43.4H18.4
			c0.8-0.9,1.6-2.3,1.8-4.2h9.6C30,41.1,30.8,42.5,31.6,43.4z"/>
	</g>
</g>
<g id="_x34_" class="st0">
	<g class="st1">
		<path class="st2" d="M45.2,6.2h-41c-1.5,0-2.8,1.2-2.8,2.8v30.8c0,1.5,1.2,2.8,2.8,2.8h41c1.5,0,2.8-1.2,2.8-2.8V8.9
			C48,7.4,46.8,6.2,45.2,6.2z M46.2,39.7c0,0.5-0.4,1-1,1h-41c-0.5,0-1-0.4-1-1V8.9c0-0.5,0.4-1,1-1h41c0.5,0,1,0.4,1,1V39.7z"/>
		<path class="st2" d="M43.4,15.2H6.1c-0.5,0-0.9,0.4-0.9,0.9v21.8c0,0.5,0.4,0.9,0.9,0.9h10.8c0.5,0,0.9-0.4,0.9-0.9
			S17.4,37,16.9,37H7V17h35.5v20H24.2c-0.5,0-0.9,0.4-0.9,0.9s0.4,0.9,0.9,0.9h19.2c0.5,0,0.9-0.4,0.9-0.9V16.1
			C44.3,15.6,43.9,15.2,43.4,15.2z"/>
		<path class="st2" d="M18.8,12.5h23.4c0.5,0,0.9-0.4,0.9-0.9s-0.4-0.9-0.9-0.9H18.8c-0.5,0-0.9,0.4-0.9,0.9S18.3,12.5,18.8,12.5z"
			/>
		<path class="st2" d="M7,12.5c0.1,0,0.1,0,0.2,0c0.1,0,0.1,0,0.2-0.1c0.1,0,0.1-0.1,0.2-0.1c0.1,0,0.1-0.1,0.1-0.1
			c0.2-0.2,0.3-0.4,0.3-0.6c0-0.1,0-0.1,0-0.2s0-0.1-0.1-0.2c0-0.1-0.1-0.1-0.1-0.2c0,0-0.1-0.1-0.1-0.1c0,0-0.1-0.1-0.1-0.1
			c0,0-0.1-0.1-0.2-0.1c-0.1,0-0.1,0-0.2-0.1c-0.1,0-0.2,0-0.4,0c-0.1,0-0.1,0-0.2,0.1c-0.1,0-0.1,0.1-0.2,0.1
			c-0.1,0-0.1,0.1-0.1,0.1c0,0-0.1,0.1-0.1,0.1c0,0-0.1,0.1-0.1,0.2c0,0.1,0,0.1-0.1,0.2c0,0.1,0,0.1,0,0.2c0,0.2,0.1,0.5,0.3,0.6
			C6.5,12.4,6.7,12.5,7,12.5z"/>
		<path class="st2" d="M9.8,11.9c0,0.1,0.1,0.1,0.1,0.2c0,0.1,0.1,0.1,0.1,0.1c0.2,0.2,0.4,0.3,0.6,0.3c0.1,0,0.1,0,0.2,0
			c0.1,0,0.1,0,0.2-0.1c0.1,0,0.1-0.1,0.2-0.1c0.1,0,0.1-0.1,0.1-0.1c0,0,0.1-0.1,0.1-0.1c0,0,0.1-0.1,0.1-0.2c0-0.1,0-0.1,0.1-0.2
			c0-0.1,0-0.1,0-0.2c0-0.1,0-0.1,0-0.2c0-0.1,0-0.1-0.1-0.2c0-0.1-0.1-0.1-0.1-0.2c0,0-0.1-0.1-0.1-0.1c0,0-0.1-0.1-0.1-0.1
			c0,0-0.1-0.1-0.2-0.1c-0.1,0-0.1,0-0.2-0.1c-0.3-0.1-0.6,0-0.8,0.2c0,0-0.1,0.1-0.1,0.1c0,0-0.1,0.1-0.1,0.2c0,0.1,0,0.1-0.1,0.2
			c0,0.1,0,0.1,0,0.2c0,0.1,0,0.1,0,0.2C9.7,11.8,9.8,11.8,9.8,11.9z"/>
		<path class="st2" d="M13.4,11.9c0,0.1,0.1,0.1,0.1,0.2c0,0.1,0.1,0.1,0.1,0.1c0,0,0.1,0.1,0.1,0.1c0,0,0.1,0.1,0.2,0.1
			c0.1,0,0.1,0,0.2,0.1s0.1,0,0.2,0c0.1,0,0.1,0,0.2,0c0.1,0,0.1,0,0.2-0.1c0.1,0,0.1-0.1,0.2-0.1c0.1,0,0.1-0.1,0.1-0.1
			c0,0,0.1-0.1,0.1-0.1c0,0,0.1-0.1,0.1-0.2c0-0.1,0-0.1,0.1-0.2c0-0.1,0-0.1,0-0.2c0-0.1,0-0.1,0-0.2s0-0.1-0.1-0.2
			c0-0.1-0.1-0.1-0.1-0.2c0-0.1-0.1-0.1-0.1-0.1c0,0-0.1-0.1-0.1-0.1c0,0-0.1-0.1-0.2-0.1c-0.1,0-0.1,0-0.2-0.1c-0.1,0-0.2,0-0.4,0
			c-0.1,0-0.1,0-0.2,0.1c-0.1,0-0.1,0.1-0.2,0.1c-0.1,0-0.1,0.1-0.1,0.1c0,0-0.1,0.1-0.1,0.1c0,0-0.1,0.1-0.1,0.2
			c0,0.1,0,0.1-0.1,0.2c0,0.1,0,0.1,0,0.2c0,0.1,0,0.1,0,0.2C13.4,11.8,13.4,11.8,13.4,11.9z"/>
		<path class="st2" d="M17.5,21.9c-0.3-0.4-0.9-0.4-1.3-0.1l-5.4,4.6c-0.2,0.2-0.3,0.4-0.3,0.7c0,0.3,0.1,0.5,0.3,0.7l5.4,4.5
			c0.2,0.1,0.4,0.2,0.6,0.2c0.3,0,0.5-0.1,0.7-0.3c0.3-0.4,0.3-1-0.1-1.3l-4.6-3.8l4.6-3.9C17.8,22.9,17.9,22.3,17.5,21.9z"/>
		<path class="st2" d="M30.8,32.2c0.2,0.2,0.4,0.3,0.7,0.3c0.2,0,0.4-0.1,0.6-0.2l5.4-4.6c0.2-0.2,0.3-0.4,0.3-0.7
			c0-0.3-0.1-0.5-0.3-0.7L32,21.8c-0.4-0.3-1-0.3-1.3,0.1s-0.3,1,0.1,1.3l4.6,3.8l-4.6,3.9C30.5,31.2,30.5,31.8,30.8,32.2z"/>
		<path class="st2" d="M27.4,21.7c-0.4-0.3-1-0.1-1.2,0.3l-5.4,9.1c-0.3,0.4-0.1,1,0.3,1.2c0.1,0.1,0.3,0.1,0.5,0.1
			c0.3,0,0.6-0.2,0.8-0.4l5.4-9.1C27.9,22.5,27.8,21.9,27.4,21.7z"/>
		<path class="st2" d="M21.4,37.6c0-0.1-0.1-0.1-0.1-0.2c0-0.1-0.1-0.1-0.1-0.1s-0.1-0.1-0.1-0.1c0,0-0.1-0.1-0.2-0.1
			c-0.1,0-0.1,0-0.2-0.1c-0.3-0.1-0.6,0-0.8,0.2c0,0-0.1,0.1-0.1,0.1c0,0-0.1,0.1-0.1,0.2c0,0.1,0,0.1-0.1,0.2c0,0.1,0,0.1,0,0.2
			c0,0.2,0.1,0.5,0.3,0.6s0.4,0.3,0.6,0.3c0.1,0,0.1,0,0.2,0c0.1,0,0.1,0,0.2-0.1c0.1,0,0.1-0.1,0.2-0.1c0.1,0,0.1-0.1,0.1-0.1
			s0.1-0.1,0.1-0.1c0,0,0.1-0.1,0.1-0.2c0-0.1,0-0.1,0.1-0.2c0-0.1,0-0.1,0-0.2s0-0.1,0-0.2C21.5,37.7,21.4,37.7,21.4,37.6z"/>
	</g>
</g>
<g id="_x35_" class="st0">
	<g class="st1">
		<path class="st2" d="M20.9,3.1H10.5c-2.2,0-4,1.8-4,4v8c0,2.2,1.8,4,4,4h4c0,0,0,0,0,0c0.2,0,0.4,0,0.6,0.1c0,0.1-0.1,0.2-0.3,0.4
			c-0.3,0.3-0.2,0.6-0.2,0.8c0.1,0.2,0.3,0.4,0.5,0.5c0.2,0,0.4,0.1,0.6,0.1c0.9,0,1.9-0.4,2.3-1c0.2-0.2,0.2-0.4,0.3-0.7h2.5
			c2.2,0,4-1.8,4-4v-8C24.9,4.9,23.1,3.1,20.9,3.1z M23.6,15.1c0,1.5-1.2,2.7-2.7,2.7h-3.3c-0.2,0-0.4,0.1-0.6,0.3
			c-0.1,0.2-0.1,0.4,0,0.6c0.1,0.1,0.1,0.2,0,0.3c-0.1,0.2-0.4,0.3-0.7,0.4c0.1-0.3,0.1-0.6,0-0.8c-0.3-0.7-1.3-0.8-1.7-0.8
			c0,0-0.1,0-0.1,0h-4c-1.5,0-2.7-1.2-2.7-2.7v-8c0-1.5,1.2-2.7,2.7-2.7h10.4c1.5,0,2.7,1.2,2.7,2.7V15.1z"/>
		<path class="st2" d="M31.6,19.1c0,0.2,0.1,0.5,0.3,0.7c0.4,0.6,1.4,1,2.3,1c0.2,0,0.4,0,0.6-0.1c0.3-0.1,0.5-0.2,0.5-0.5
			c0-0.1,0.1-0.4-0.2-0.8c-0.1-0.2-0.2-0.3-0.3-0.4c0.1,0,0.4-0.1,0.6-0.1c0,0,0,0,0,0h4c2.2,0,4-1.8,4-4v-8c0-2.2-1.8-4-4-4h-0.8
			c-0.4,0-0.6,0.3-0.6,0.6s0.3,0.6,0.6,0.6h0.8c1.5,0,2.7,1.2,2.7,2.7v8c0,1.5-1.2,2.7-2.7,2.7h-4c-0.4,0-1.5,0-1.8,0.8
			c-0.1,0.3-0.1,0.5,0,0.8c-0.3-0.1-0.6-0.2-0.7-0.4c0-0.1-0.1-0.1,0-0.3c0.1-0.2,0.1-0.4,0-0.6c-0.1-0.2-0.3-0.3-0.6-0.3h-3.3
			c-1.5,0-2.7-1.2-2.7-2.7v-8c0-1.5,1.2-2.7,2.7-2.7H36c0.4,0,0.6-0.3,0.6-0.6S36.3,3.1,36,3.1h-6.8c-2.2,0-4,1.8-4,4v8
			c0,2.2,1.8,4,4,4H31.6z"/>
		<path class="st2" d="M19.5,33.3h-2.4c0.3-0.4,0.5-0.9,0.6-1.4c0,0,0,0,0,0c1.5,0,2.7-1.3,2.7-2.9c0-1.3-0.8-2.4-2-2.8
			c0-0.4-0.1-0.7-0.1-0.8c0-0.3,0-1.1-0.4-2c-0.4-0.9-1.3-2.1-3.1-2.3c-0.5-0.5-1.7-1.1-4.6-0.7c-0.3,0.1-0.6,0.4-0.5,0.7
			c0.1,0.3,0.4,0.6,0.7,0.5c2.7-0.4,3.4,0.2,3.5,0.3c0.1,0.2,0.3,0.3,0.5,0.3c1.1,0.1,1.9,0.5,2.3,1.5c0.3,0.8,0.3,1.5,0.3,1.5
			c0,0,0,0.1,0,0.1c0,0,0.2,1.2-0.1,2.1c-0.5-0.4-0.8-1.6-0.8-2.3c0-0.2-0.1-0.4-0.3-0.5c-1.2-0.7-1.5-1.4-1.5-1.5
			c-0.1-0.3-0.3-0.4-0.5-0.5c-0.3,0-0.5,0.1-0.7,0.3c-0.5,0.8-2.8,1.4-4.3,1.5c-0.3,0-0.5,0.3-0.6,0.6c-0.1,0.7-0.3,1.8-0.8,2.3
			c-0.1-0.3-0.2-0.6-0.2-0.9c0,0,0,0,0,0c0,0,0,0,0,0c0-0.6,0.1-1.1,0.1-1.1c0,0,0-0.1,0-0.1c0,0,0.1-1.5,1-2.6
			c0.2-0.3,0.2-0.7-0.1-0.9c-0.3-0.2-0.7-0.2-0.9,0.1c-1.2,1.3-1.3,3.1-1.3,3.4c0,0.1-0.1,0.4-0.1,0.8c-1.1,0.3-2,1.5-2,2.8
			c0,1.6,1.2,2.9,2.7,2.9c0,0,0,0,0,0c0.1,0.5,0.3,1,0.6,1.4H4.9c-1,0-1.8,0.8-1.8,1.8v9.9c0,1,0.8,1.8,1.8,1.8h14.5
			c1,0,1.8-0.8,1.8-1.8v-9.9C21.3,34.1,20.5,33.3,19.5,33.3z M19.1,29c0,0.8-0.5,1.5-1.2,1.6c0-0.2,0-0.2,0-2c0.2-0.3,0.3-0.6,0.4-1
			C18.8,27.9,19.1,28.4,19.1,29z M5.3,29c0-0.6,0.3-1.2,0.8-1.4c0.1,0.4,0.2,0.8,0.4,1c0,1.8,0,1.8,0,2C5.9,30.5,5.3,29.8,5.3,29z
			 M7.9,31.1c0-0.2-0.1-0.5-0.1-0.7V29c0.1,0,0.3-0.1,0.4-0.2c0.8-0.6,1.2-1.9,1.3-2.7c0.9-0.1,2.9-0.5,4.1-1.4
			c0.3,0.4,0.7,0.8,1.3,1.2c0.1,0.7,0.4,2.2,1.3,2.9c0.1,0.1,0.3,0.2,0.4,0.2v1.4c0,0.2,0,0.5-0.1,0.7c-0.1,0.8-0.5,1.6-1,2.2H8.9
			C8.4,32.7,8,31.9,7.9,31.1z M20,45.1c0,0.3-0.2,0.6-0.6,0.6H4.9c-0.3,0-0.6-0.2-0.6-0.6v-9.9c0-0.3,0.2-0.6,0.6-0.6h14.5
			c0.3,0,0.6,0.2,0.6,0.6V45.1z"/>
		<path class="st2" d="M12.4,37.9c-1.3,0-2.4,1.1-2.4,2.4s1.1,2.4,2.4,2.4s2.4-1.1,2.4-2.4S13.7,37.9,12.4,37.9z M12.4,41.3
			c-0.6,0-1.1-0.5-1.1-1.1c0-0.6,0.5-1.1,1.1-1.1c0.6,0,1.1,0.5,1.1,1.1C13.4,40.9,13,41.3,12.4,41.3z"/>
		<path class="st2" d="M46.3,42.1c0.4,0,0.6-0.3,0.6-0.6v-6.3c0-1-0.8-1.8-1.8-1.8h-2.4c0.3-0.4,0.5-0.9,0.6-1.4c0,0,0,0,0,0
			c1.5,0,2.7-1.3,2.7-2.9c0-1.3-0.8-2.4-2-2.8c0-0.4-0.1-0.7-0.1-0.8c0-0.3,0-1.1-0.4-2c-0.4-0.9-1.3-2.1-3.1-2.3
			c-0.5-0.5-1.7-1.1-4.6-0.6c-1.6,0.3-2.8,1.2-3.5,2.7c-0.5,1-0.5,1.9-0.6,2.1c0,0.1-0.1,0.4-0.1,0.8c-1.1,0.3-2,1.5-2,2.8
			c0,1.6,1.2,2.9,2.7,2.9c0,0,0,0,0,0c0.1,0.5,0.3,1,0.6,1.4h-2.4c-1,0-1.8,0.8-1.8,1.8v9.9c0,1,0.8,1.8,1.8,1.8h14.5
			c1,0,1.8-0.8,1.8-1.8v-0.9c0-0.4-0.3-0.6-0.6-0.6c-0.4,0-0.6,0.3-0.6,0.6v0.9c0,0.3-0.2,0.6-0.6,0.6H30.5c-0.3,0-0.6-0.2-0.6-0.6
			v-9.9c0-0.3,0.2-0.6,0.6-0.6h14.5c0.3,0,0.6,0.2,0.6,0.6v6.3C45.6,41.8,45.9,42.1,46.3,42.1z M44.7,29c0,0.8-0.5,1.5-1.2,1.6
			c0-0.2,0-0.1,0-2c0.2-0.3,0.3-0.6,0.4-1C44.3,27.9,44.7,28.4,44.7,29z M32.9,25.7C32.9,25.6,32.9,25.6,32.9,25.7
			c0-0.2,0.2-3.3,3-3.8c2.7-0.4,3.4,0.2,3.5,0.3c0.1,0.2,0.3,0.3,0.5,0.3c1.1,0.1,1.9,0.5,2.3,1.5c0.3,0.8,0.3,1.5,0.3,1.5
			c0,0,0,0.1,0,0.1c0,0,0.2,1.2-0.1,2.1c-0.5-0.4-0.8-1.6-0.8-2.3c0-0.2-0.1-0.4-0.3-0.5c-1.2-0.7-1.5-1.4-1.5-1.5
			c-0.1-0.3-0.3-0.4-0.5-0.5c-0.3,0-0.5,0.1-0.7,0.3c-0.5,0.8-2.8,1.4-4.3,1.5c-0.3,0-0.5,0.3-0.6,0.6c-0.1,0.7-0.3,1.8-0.8,2.3
			C32.7,26.8,32.9,25.7,32.9,25.7z M30.9,29c0-0.6,0.3-1.2,0.8-1.4c0.1,0.4,0.2,0.8,0.4,1c0,1.8,0,1.8,0,2
			C31.4,30.5,30.9,29.8,30.9,29z M33.4,31.1c0-0.2-0.1-0.5-0.1-0.7V29c0.1,0,0.3-0.1,0.4-0.2c0.8-0.6,1.2-1.9,1.3-2.7
			c0.9-0.1,2.9-0.5,4.1-1.4c0.3,0.4,0.7,0.8,1.3,1.2c0.1,0.7,0.4,2.2,1.3,2.9c0.1,0.1,0.3,0.2,0.4,0.2v1.4c0,0.2,0,0.5-0.1,0.7
			c-0.1,0.8-0.5,1.6-1,2.2h-6.6C33.9,32.7,33.6,31.9,33.4,31.1z"/>
		<path class="st2" d="M35.6,40.3c0,1.3,1.1,2.4,2.4,2.4s2.4-1.1,2.4-2.4s-1.1-2.4-2.4-2.4S35.6,39,35.6,40.3z M39,40.3
			c0,0.6-0.5,1.1-1.1,1.1c-0.6,0-1.1-0.5-1.1-1.1c0-0.6,0.5-1.1,1.1-1.1C38.5,39.2,39,39.7,39,40.3z"/>
		<path class="st2" d="M13.3,12.2l-1.5-1.3l1.5-1.3c0.3-0.2,0.3-0.6,0.1-0.9c-0.2-0.3-0.6-0.3-0.9-0.1l-2,1.8
			c-0.1,0.1-0.2,0.3-0.2,0.5c0,0.2,0.1,0.4,0.2,0.5l2,1.8c0.1,0.1,0.3,0.2,0.4,0.2c0.2,0,0.4-0.1,0.5-0.2
			C13.6,12.8,13.6,12.4,13.3,12.2z"/>
		<path class="st2" d="M21,10.4l-2-1.8c-0.3-0.2-0.7-0.2-0.9,0.1c-0.2,0.3-0.2,0.7,0.1,0.9l1.5,1.3l-1.5,1.3
			c-0.3,0.2-0.3,0.6-0.1,0.9c0.1,0.1,0.3,0.2,0.5,0.2c0.1,0,0.3-0.1,0.4-0.2l2-1.8c0.1-0.1,0.2-0.3,0.2-0.5
			C21.2,10.7,21.1,10.5,21,10.4z"/>
		<path class="st2" d="M17.3,6.7c-0.3-0.1-0.7,0-0.8,0.3l-3.1,7.1c-0.1,0.3,0,0.7,0.3,0.8c0.1,0,0.2,0.1,0.3,0.1
			c0.2,0,0.5-0.1,0.6-0.4l3.1-7.1C17.8,7.2,17.7,6.9,17.3,6.7z"/>
		<path class="st2" d="M32.1,6.6v2.2c-1.7,0.3-2.9,1.8-2.9,3.5c0,2,1.6,3.5,3.5,3.5c1.7,0,3.2-1.3,3.5-2.9h2.2
			c0.4,0,0.6-0.3,0.6-0.6V6.6C39,6.2,38.8,6,38.4,6h-5.6C32.4,6,32.1,6.2,32.1,6.6z M33.4,10.1c0.7,0.2,1.3,0.8,1.5,1.5h-1.5V10.1z
			 M32.8,14.5c-1.2,0-2.3-1-2.3-2.3c0-1,0.7-1.9,1.6-2.2v2.2c0,0.4,0.3,0.6,0.6,0.6h2.2C34.6,13.8,33.8,14.5,32.8,14.5z M37.8,7.2
			v4.4h-1.5C36,10.2,34.8,9,33.4,8.7V7.2H37.8z"/>
	</g>
</g>
</svg>
