<?xml version="1.0" encoding="utf-8"?>
<!-- Generator: Adobe Illustrator 23.1.0, SVG Export Plug-In . SVG Version: 6.00 Build 0)  -->
<svg version="1.1" id="Layer_1" xmlns="http://www.w3.org/2000/svg" xmlns:xlink="http://www.w3.org/1999/xlink" x="0px" y="0px"
	 viewBox="0 0 512 512" style="enable-background:new 0 0 512 512;" xml:space="preserve">
<style type="text/css">
	.st0{fill:#B2550F;}
	.st1{fill:#FEBF00;}
</style>
<g>
	<path class="st0" d="M383.5,329.4c-8-2.9-16.8-2.6-24.5,1.1L311,352.9c-5.3-8.5-14.3-14-24.3-14.8l-110-9.6
		c-1.4-0.1-2.8,0.1-4.1,0.7l-50.4,23.5l-3.4-7.3c-1.9-4-6.6-5.7-10.6-3.9l-58,27c-4,1.9-5.7,6.6-3.9,10.6l54.1,116
		c1.9,4,6.6,5.7,10.6,3.9l58-27.1c4-1.9,5.7-6.6,3.9-10.6c0,0,0,0,0,0l-3.4-7.2l4.7-2.2l47.1,11.4c0.6,0.2,1.3,0.2,1.9,0.2
		c1.2,0,2.3-0.3,3.4-0.8l159.5-74.4c16-7.5,22.9-26.5,15.4-42.5C398,338.2,391.5,332.3,383.5,329.4L383.5,329.4z M111.6,481.2
		L64.2,379.7l43.5-20.3l47.3,101.5L111.6,481.2z M379.3,374l-156.9,73.2l-47-11.4c-1.8-0.4-3.6-0.3-5.3,0.5l-7.2,3.4L129,367.2
		l48.4-22.6l107.8,9.4c5.7,0.5,10.7,4,13.1,9.2c0.3,0.6,0.5,1.3,0.7,1.9c0,0.3,0.1,0.5,0.2,0.8c0.5,1.8,0.7,3.6,0.5,5.4
		c-0.8,8.8-8.5,15.3-17.3,14.6l-91.1-8l-1.4,15.9l91.1,8c17.6,1.5,33.1-11.6,34.7-29.2c0.1-1.4,0.1-2.9,0-4.3l50-23.3
		c8-3.7,17.5-0.3,21.3,7.7C390.8,360.8,387.4,370.3,379.3,374L379.3,374z"/>
	<path class="st1" d="M256,96c-39.8,0-72,32.2-72,72s32.2,72,72,72s72-32.2,72-72C328,128.3,295.7,96,256,96z M295.8,160
		c-0.4-8.6-1.8-17.2-4.1-25.5c2.1-1.2,4-2.4,6-3.8c7.4,8.2,12.2,18.4,13.7,29.3H295.8z M256,224c-5.2,0-10.8-5.2-15.2-13.9
		c9.9-2.8,20.5-2.8,30.4,0C266.8,218.8,261.2,224,256,224z M256,192c-7,0-14,1.1-20.7,3.1c-1.6-6.3-2.6-12.7-3-19.1h47.4
		c-0.4,6.4-1.4,12.8-3,19.1C270,193.1,263,192,256,192L256,192z M232.3,160c0.4-6.4,1.4-12.8,3-19.1c13.5,4.1,28,4.1,41.5,0
		c1.6,6.3,2.6,12.7,3,19.1H232.3z M256,112c5.2,0,10.8,5.2,15.2,13.9c-9.9,2.8-20.5,2.8-30.4,0C245.2,117.2,250.8,112,256,112
		L256,112z M214.4,130.7c1.9,1.4,3.9,2.6,6,3.8c-2.3,8.3-3.7,16.9-4.1,25.5h-15.6C202.2,149.1,207,138.9,214.4,130.7z M200.6,176
		h15.6c0.4,8.6,1.8,17.2,4.1,25.5c-2.1,1.2-4,2.4-6,3.8C207,197.1,202.2,186.9,200.6,176z M297.6,205.3c-1.9-1.4-3.9-2.6-6-3.8
		c2.3-8.3,3.7-16.9,4.1-25.5h15.6C309.8,186.9,305,197.1,297.6,205.3z"/>
	<path class="st1" d="M256,56c-61.9,0-112,50.1-112.1,111.9c0,61.9,50.1,112,111.9,112.1c52.9,0,98.6-36.9,109.6-88.7
		c12.9-3,20.9-15.8,17.9-28.7c-2.1-8.9-9-15.9-17.9-17.9C354.2,93.2,308.7,56.3,256,56L256,56z M256,264c-53,0-96-42.9-96-96
		s42.9-96,96-96c44.8,0,83.6,30.9,93.6,74.5c-11.9,5.7-16.9,19.9-11.2,31.8c2.3,4.9,6.3,8.8,11.2,11.2
		C339.3,232.9,300.6,263.7,256,264z M360,176c-4.4,0-8-3.6-8-8s3.6-8,8-8s8,3.6,8,8S364.4,176,360,176z"/>
	<path class="st1" d="M256,16c-42.7,0-83.4,17.9-112.1,49.4c-2.5-0.9-5.2-1.4-7.9-1.4c-13.2-0.1-24,10.6-24,23.8
		c0,6,2.2,11.8,6.2,16.2c-35.3,76.1-2.2,166.5,73.9,201.8s166.5,2.2,201.8-73.9S396.1,65.4,320,30.1C300,20.8,278.1,16,256,16z
		 M136,80c4.4,0,8,3.6,8,8s-3.6,8-8,8s-8-3.6-8-8S131.6,80,136,80z M256,304c-75.1,0.1-135.9-60.7-136-135.8
		c0-19.5,4.2-38.8,12.3-56.6c1.2,0.2,2.5,0.3,3.7,0.4c13.3,0,24-10.7,24-24c0-4.4-1.2-8.7-3.5-12.4c51.1-55,137.1-58.2,192.1-7.2
		s58.2,137.1,7.2,192.1C330,288.3,293.8,304,256,304z"/>
	<path class="st1" d="M408,64h16v16h-16V64z"/>
	<path class="st1" d="M440,144h16v16h-16V144z"/>
	<path class="st1" d="M72,280h16v16H72V280z"/>
	<path class="st1" d="M32,80h16v16H32V80z"/>
	<path class="st1" d="M120,24h16v16h-16V24z"/>
	<path class="st1" d="M376,288h16v16h-16V288z"/>
	<path class="st1" d="M48,184h16v16H48V184z"/>
</g>
</svg>
