<?xml version="1.0" encoding="utf-8"?>
<!-- Generator: Adobe Illustrator 22.1.0, SVG Export Plug-In . SVG Version: 6.00 Build 0)  -->
<svg version="1.1" id="Layer_1" xmlns="http://www.w3.org/2000/svg" xmlns:xlink="http://www.w3.org/1999/xlink" x="0px" y="0px"
	 viewBox="0 0 150 113" style="enable-background:new 0 0 150 113;" xml:space="preserve">
<style type="text/css">
	.st0{display:none;}
	.st1{display:inline;}
	.st2{fill:#2DC997;}
	.st3{fill:#FFFFFF;}
	.st4{fill:#004185;}
	.st5{fill:#AC966F;}
</style>
<g id="Layer_1_1_" class="st0">
	<g class="st1">
		<rect x="73.7" y="77.9" class="st2" width="1.7" height="17.6"/>
	</g>
	<g class="st1">
		<path class="st2" d="M90.1,82h-13c-0.2,0-0.5-0.1-0.6-0.3l-2-2l-2,2c-0.2,0.2-0.4,0.3-0.6,0.3h-13c-0.5,0-0.9-0.4-0.9-0.9v-24h1.7
			v23.2h11.8l0.9-0.9H61.5c-0.5,0-0.9-0.4-0.9-0.9V55.1c0-0.5,0.4-0.9,0.9-0.9h26c0.5,0,0.9,0.4,0.9,0.9v23.4c0,0.5-0.4,0.9-0.9,0.9
			H76.6l0.9,0.9h11.8V57.1H91v24.1C91,81.6,90.6,82,90.1,82z M62.4,77.7h24.3V56H62.4V77.7z M75.4,75.3h-1.7V58.4h1.7V75.3z
			 M85.6,74.2h-9.1v-1.7h9.1V74.2z M72.6,74.2h-9.1v-1.7h9.1V74.2z M85.6,71.6h-9.1v-1.7h9.1V71.6z M72.6,71.6h-9.1v-1.7h9.1V71.6z
			 M85.6,69h-9.1v-1.7h9.1V69z M72.6,69h-9.1v-1.7h9.1V69z M84.3,65.7H83V64h1.3V65.7z M81.7,65.7h-1.3V64h1.3V65.7z M79.1,65.7
			h-1.3V64h1.3V65.7z M85.6,62.5h-9.1v-1.7h9.1V62.5z M85.6,59.9h-9.1v-1.7h9.1V59.9z"/>
	</g>
	<g class="st1">
		<path class="st2" d="M90.8,96.3H58.3v-1.7h32.5V96.3z M72.8,66.4h-9.5v-8.2h9.5V66.4z M65,64.7h6.1v-4.8H65V64.7z"/>
	</g>
</g>
<g id="Layer_2_1_" class="st0">
	<g id="icon2" class="st1">
		<g>
			<path class="st2" d="M74.6,96c-4.5,0-8.2-3.7-8.2-8.2c0-1.1,0.2-2.2,0.6-3.1L53.4,62.5c0,0,0,0,0-0.1c-0.1-0.3-0.1-0.7,0.1-0.9
				l4-5.3c0.1-0.2,0.3-0.3,0.6-0.3h33.1c0.3,0,0.5,0.1,0.7,0.4l4,5.3c0.2,0.3,0.2,0.6,0.1,0.9c0,0,0,0,0,0.1L82.2,84.7
				c0.4,1,0.6,2,0.6,3.1C82.8,92.3,79.1,96,74.6,96z M74.6,81.5c-3.5,0-6.4,2.9-6.4,6.4s2.9,6.4,6.4,6.4s6.4-2.9,6.4-6.4
				C81,84.3,78.1,81.5,74.6,81.5z M55.7,62.9l12.4,20c0.3-0.4,0.6-0.7,0.9-1L57.3,63.2l0.4-0.2L55.7,62.9L55.7,62.9z M80.3,82
				c0.3,0.3,0.6,0.7,0.9,1l12.4-20h-2l0.4,0.2L80.3,82z M59.3,62.9l11.1,17.9c0.3-0.2,0.7-0.4,1.1-0.5L60.9,62.9H59.3z M77.8,80.3
				c0.4,0.2,0.7,0.3,1.1,0.5L90,62.9h-1.6L77.8,80.3z M63,62.9l10.2,16.9c0.9-0.2,1.9-0.2,2.8,0l10.2-16.9H63z M55.9,61.2h37.5
				L92.5,60v0.3H56.8V60L55.9,61.2z M57.9,58.5h33.5l-0.7-0.9H58.5L57.9,58.5z M74.6,93.4c-3,0-5.5-2.5-5.5-5.5s2.5-5.5,5.5-5.5
				s5.5,2.5,5.5,5.5S77.7,93.4,74.6,93.4z M74.6,84.1c-2.1,0-3.7,1.7-3.7,3.7c0,2.1,1.7,3.7,3.7,3.7c2.1,0,3.7-1.7,3.7-3.7
				C78.4,85.8,76.7,84.1,74.6,84.1z M75.5,90.5h-1.8v-3.7h-0.4V85h1.3c0.5,0,0.9,0.4,0.9,0.9V90.5z M77.9,68.2h-1.3v-1.8h1.3V68.2z
				 M75.3,68.2H74v-1.8h1.3V68.2z M72.6,68.2h-1.3v-1.8h1.3V68.2z"/>
		</g>
	</g>
</g>
<g id="Layer_3" class="st0">
	<g id="icon3" class="st1">
		<g>
			<rect x="80.4" y="85.5" class="st2" width="1.9" height="1.6"/>
		</g>
		<g>
			<path class="st2" d="M83,93.8h-1.6v-7.4c0-0.4,0.4-0.8,0.8-0.8h3.7c1.6,0,2.9-1.3,2.9-2.9v-5.5c0-0.4,0.4-0.8,0.8-0.8h2.9v-0.3
				l-3.6-7.8c0-0.1-0.1-0.2-0.1-0.3c-0.1-6.6-5.5-12-12.1-12c-2.5,0-4.9,0.7-6.9,2.2l-0.9-1.3c2.3-1.6,5-2.5,7.8-2.5
				c7.5,0,13.6,6,13.7,13.5l3.6,7.8c0,0.1,0.1,0.2,0.1,0.3v1.2c0,0.4-0.4,0.8-0.8,0.8h-2.9v4.7c0,2.5-2,4.5-4.5,4.5H83V93.8z
				 M69.5,93.8h-1.6v-7.4c0-1.6-0.3-3.2-1.1-5.3l1.5-0.5c0.8,2.2,1.2,4,1.2,5.8V93.8z M65.6,79.3c-0.2,0-0.3,0-0.4-0.1l-1.6-1.1
				h-8.4c-0.4,0-0.8-0.4-0.8-0.8V60.1c0-0.4,0.4-0.8,0.8-0.8h8.6c0.2,0,0.3,0,0.4,0.1l1.4,0.9l1.4-0.9c0.1-0.1,0.3-0.1,0.4-0.1H76
				c0.4,0,0.8,0.4,0.8,0.8v17.2c0,0.4-0.4,0.8-0.8,0.8h-8.3l-1.6,1.1C65.9,79.2,65.8,79.3,65.6,79.3z M66.4,61.7V77l0.6-0.4
				c0.1-0.1,0.3-0.1,0.4-0.1h7.8V60.9h-7.5L66.4,61.7z M56,76.5h7.8c0.2,0,0.3,0,0.4,0.1l0.6,0.4V61.7l-1.3-0.9H56V76.5z M74.2,74.4
				h-6.7v-1.6h6.7V74.4z M63.8,74.4H57v-1.6h6.7L63.8,74.4L63.8,74.4z M74.2,71.9h-6.7v-1.6h6.7V71.9z M63.8,71.9H57v-1.6h6.7
				L63.8,71.9L63.8,71.9z M74.2,69.5h-6.7v-1.6h6.7V69.5z M63.8,69.5H57v-1.6h6.7L63.8,69.5L63.8,69.5z M74.2,67h-6.7v-1.6h6.7V67z
				 M63.8,67H57v-1.6h6.7L63.8,67L63.8,67z M74.2,64.6h-6.7V63h6.7V64.6z M63.8,64.6H57V63h6.7L63.8,64.6L63.8,64.6z"/>
		</g>
		<g>
			<path class="st2" d="M79.2,74.1H78v-1.6h1.2V74.1z M81.6,71.7h-1.2v-1.6h1.2V71.7z M79.2,71.7H78v-1.6h1.2V71.7z M84.1,69.4h-1.2
				v-1.6h1.2V69.4z M81.6,69.4h-1.2v-1.6h1.2V69.4z M79.2,69.4H78v-1.6h1.2V69.4z M81.6,67h-1.2v-1.6h1.2V67z M79.2,67H78v-1.6h1.2
				V67z M79.2,64.6H78V63h1.2V64.6z"/>
		</g>
	</g>
</g>
<g id="Layer_4" class="st0">
	<g id="icon4" class="st1">
		<g>
			<path class="st2" d="M83.8,89h-2.1v-1.8h2.1V89z M69,57.3h-1.8v-4.1H69V57.3z"/>
		</g>
		<g>
			<path class="st2" d="M71.7,96.3h-1.8V80.1h-2.7v-8.2h-1.4v-4.6h4.6v4.6H69v6.4h2.7V96.3z M67.6,70.1h0.9v-0.9h-0.9V70.1z
				 M86.6,78.8H75.4V76h-2.7v-4.1h-1.4v-4.6h4.6v1.4h2.3v-3.6h-2.3v1.4h-4.6v-4.6h4.6v1.4H80v7.3h-4.1V72h-1.4v2.3h2.7V77h9.4V78.8z
				 M73.1,70.1H74v-0.9h-0.9V70.1z M73.1,64.6H74v-0.9h-0.9V64.6z M64.9,71.9h-4.6v-4.6h4.6V71.9z M62.2,70.1h0.9v-0.9h-0.9V70.1z
				 M86.6,67.8h-1.4V66h1.4V67.8z M64.9,66.5h-4.6v-1.4h-6.6v-1.8h6.6v-1.4h4.6V66.5z M62.2,64.6h0.9v-0.9h-0.9V64.6z M82.5,65.1
				h-1.4v-1.8h1.4V65.1z M85.2,62.4h-1.4v-1.8h1.4V62.4z M82.5,62.4h-1.4v-1.8h1.4V62.4z M75.8,61h-4.6v-4.6h4.6V61z M73.1,59.2H74
				v-1h-0.9V59.2z M70.4,61h-4.6v-4.6h4.6V61z M67.6,59.2h0.9v-1h-0.9V59.2z M64.9,61h-4.6v-4.6h4.6V61z M62.2,59.2h0.9v-1h-0.9
				V59.2z M82.5,59.6h-1.4v-1.8h1.4V59.6z"/>
		</g>
		<g>
			<rect x="72.6" y="53.2" class="st2" width="1.8" height="4.1"/>
		</g>
		<g>
			<polygon class="st2" points="61.2,70.6 56.2,70.6 56.2,57.8 61.2,57.8 61.2,59.6 58,59.6 58,68.7 61.2,68.7 			"/>
		</g>
		<g>
			<path class="st2" d="M67.6,96.3h-1.8v-10l-4-8c-0.1-0.1-0.1-0.3-0.1-0.4V71h1.8v6.6l4,8c0.1,0.1,0.1,0.3,0.1,0.4V96.3z"/>
		</g>
		<g>
			<path class="st2" d="M74.5,96.3h-1.8v-12h-1.8v-1.8h3.6C74.5,82.5,74.5,96.3,74.5,96.3z M77,81.5h-1.4v-1.8H77V81.5z M74.5,81.3
				h-1.8v-1.4h1.8V81.3z M74.5,78.5h-1.8v-1.4h1.8V78.5z M71.7,77.2h-1.8v-1.4h1.8V77.2z M71.7,74.4h-1.8V73h1.8V74.4z M83.8,67.8
				H79V66h4.8V67.8z M70.4,66.5h-4.6v-4.6h4.6V66.5z M67.6,64.6h0.9v-0.9h-0.9V64.6z M79.9,62.1h-1.8v-2.5h-3.2v-1.8h5V62.1z"/>
		</g>
		<g>
			<path class="st2" d="M82.7,96.3h-1.8v-8.2c0-0.5,0.4-0.9,0.9-0.9h4.1c1.8,0,3.2-1.4,3.2-3.2v-6.2c0-0.5,0.4-0.9,0.9-0.9h3.2v-0.3
				l-4-8.7c-0.1-0.1-0.1-0.3-0.1-0.4c0-7.4-6-13.5-13.5-13.5H64.7v-1.7h10.9c8.4,0,15.2,6.7,15.3,15.1l4,8.7
				c0.1,0.1,0.1,0.3,0.1,0.4v1.4c0,0.5-0.4,0.9-0.9,0.9h-3.2V84c0,2.8-2.3,5-5,5h-3.2C82.7,89,82.7,96.3,82.7,96.3z"/>
		</g>
	</g>
</g>
<g id="Layer_5" class="st0">
	<g id="icon5" class="st1">
		<g>
			<path class="st2" d="M92.3,92.4H90c-0.2,0-0.4-0.1-0.5-0.2L86,88.7c-3,2.3-6.8,3.7-11,3.7s-7.9-1.4-11-3.7l-3.5,3.5
				c-0.1,0.1-0.3,0.2-0.5,0.2h-2.2c-0.3,0-0.5-0.1-0.6-0.4c-0.1-0.2-0.1-0.5,0-0.7l3.2-6.5c-2.1-2.9-3.3-6.5-3.3-10.4
				c0-9.9,8.1-18,18-18c2.2,0,4.3,0.4,6.4,1.2L80.9,59C79,58.3,77,57.9,75,57.9c-9.1,0-16.5,7.4-16.5,16.5S65.9,90.9,75,90.9
				s16.5-7.4,16.5-16.5c0-2-0.4-4-1.1-5.9l1.4-0.5c0.8,2,1.2,4.2,1.2,6.4c0,3.9-1.2,7.5-3.3,10.4l3.2,6.5c0.1,0.2,0.1,0.5,0,0.7
				C92.8,92.3,92.5,92.4,92.3,92.4z M90.3,90.9H91l-2.4-4.8c-0.5,0.6-1,1.1-1.5,1.6L90.3,90.9z M59,90.9h0.7l3.2-3.2
				c-0.5-0.5-1.1-1-1.5-1.6L59,90.9z M75,89.1c-8.1,0-14.6-6.6-14.6-14.6c0-8.1,6.6-14.7,14.6-14.7c3.8,0,7.2,1.4,9.8,3.8l1.1-1.1
				v-3.6h1.5V61l0.7-0.7v-3.7h1.5v2.1l2.1-2.1l1,1l-2.1,2.1h2.1v1.5h-3.6L88.5,62h2.1v1.5H87l-1.1,1.1c2.3,2.6,3.8,6,3.8,9.8
				C89.7,82.5,83.1,89.1,75,89.1z M75,61.3c-7.3,0-13.2,5.9-13.2,13.2S67.7,87.7,75,87.7s13.2-5.9,13.2-13.2c0-3.4-1.3-6.4-3.3-8.8
				L83.5,67c1.7,2,2.8,4.6,2.8,7.4c0,6.2-5.1,11.3-11.3,11.3s-11.3-5.1-11.3-11.3c0-6.2,5.1-11.3,11.3-11.3c2.9,0,5.5,1.1,7.4,2.8
				l1.3-1.3C81.5,62.5,78.4,61.3,75,61.3z M75,64.6c-5.4,0-9.8,4.4-9.8,9.8s4.4,9.8,9.8,9.8s9.8-4.4,9.8-9.8c0-2.4-0.9-4.7-2.4-6.4
				l-1.3,1.3c1.1,1.4,1.8,3.2,1.8,5.1c0,4.4-3.6,8-8,8s-8-3.6-8-8s3.6-8,8-8c1.9,0,3.7,0.7,5.1,1.8l1.3-1.3
				C79.7,65.5,77.5,64.6,75,64.6z M75,67.9c-3.6,0-6.5,2.9-6.5,6.5s2.9,6.5,6.5,6.5s6.5-2.9,6.5-6.5c0-1.5-0.5-2.9-1.4-4l-1.3,1.3
				c0.6,0.8,0.9,1.7,0.9,2.7c0,2.6-2.1,4.6-4.6,4.6c-2.6,0-4.6-2.1-4.6-4.6c0-2.6,2.1-4.6,4.6-4.6c1,0,1.9,0.3,2.7,0.9l1.3-1.3
				C78,68.5,76.6,67.9,75,67.9z M75,71.3c-1.7,0-3.1,1.4-3.1,3.2c0,1.7,1.4,3.1,3.1,3.1s3.1-1.4,3.1-3.1c0-0.6-0.2-1.2-0.5-1.6
				l-1.4,1.4c0,0.1,0,0.2,0,0.2c0,0.7-0.6,1.3-1.3,1.3c-0.7,0-1.3-0.6-1.3-1.3s0.6-1.3,1.3-1.3c0.1,0,0.2,0,0.2,0l1.4-1.4
				C76.2,71.4,75.6,71.3,75,71.3z M74.9,74.3L74.9,74.3c-0.1,0.3,0.1,0.3,0.2,0.2L74.9,74.3z"/>
		</g>
	</g>
</g>
<g id="Layer_6" class="st0">
	<g id="icon6" class="st1">
		<g>
			<path class="st2" d="M70.1,94c-8.3,0-15-6.7-15-15s6.7-15,15-15v1.5c-1.9,0-3.6,1.8-4.8,4.6h4v-3.7h1.5V70h0.4v1.5h-0.4v6.8h12.8
				c0-0.3,0-0.6-0.1-0.9c-0.2-0.2-0.3-0.6-0.1-0.8c-0.3-1.6-0.9-3.1-1.7-4.5l1.3-0.8c0.7,1.3,1.3,2.6,1.7,4l1-1c0.3-0.3,0.8-0.3,1,0
				l12.1,12.1c0.1,0.1,0.2,0.3,0.2,0.5s-0.1,0.4-0.2,0.5l-2.1,2.1c-0.3,0.3-0.8,0.3-1,0L85.1,78.9l0,0C85.1,87.3,78.4,94,70.1,94z
				 M70.8,87.9v4.5c1.6-0.4,3-2.1,4-4.5H70.8z M65.3,87.9c1,2.4,2.5,4.1,4,4.5v-4.5H65.3z M59.9,87.9c1.6,1.8,3.7,3.2,6.1,4
				c-0.9-1-1.7-2.4-2.3-4H59.9z M76.4,87.9c-0.6,1.6-1.4,2.9-2.3,4c2.4-0.7,4.5-2.1,6.1-4H76.4z M85.1,76.9l11,11l1-1l-11-11
				L85.1,76.9z M76.9,86.5h4.4c1.3-2,2.1-4.3,2.3-6.8H78C77.9,82.2,77.5,84.5,76.9,86.5z M70.8,86.5h4.6c0.6-2,1-4.3,1.1-6.8h-5.7
				V86.5z M64.8,86.5h4.6v-6.8h-5.7C63.7,82.2,64.1,84.5,64.8,86.5z M58.8,86.5h4.4c-0.6-2-1-4.3-1-6.8h-5.7
				C56.7,82.2,57.5,84.5,58.8,86.5z M63.7,78.2h5.7v-6.8h-4.6C64.1,73.4,63.7,75.7,63.7,78.2z M56.5,78.2h5.7c0.1-2.5,0.4-4.8,1-6.8
				h-4.4C57.5,73.4,56.7,75.7,56.5,78.2z M59.9,70h3.8c0.6-1.6,1.4-2.9,2.3-4C63.6,66.7,61.5,68.1,59.9,70z"/>
		</g>
		<g>
			<path class="st3" d="M90.3,69c0,6.4-5.2,11.6-11.6,11.6S67.1,75.4,67.1,69s5.2-11.6,11.6-11.6C85.1,57.5,90.3,62.7,90.3,69"/>
		</g>
		<g>
			<path class="st2" d="M78.8,81.3c-6.8,0-12.3-5.5-12.3-12.3S72,56.7,78.8,56.7C85.6,56.7,91,62.3,91,69
				C91,75.8,85.5,81.3,78.8,81.3z M78.8,58.2c-6,0-10.8,4.9-10.8,10.8c0,6,4.9,10.8,10.8,10.8S89.6,75,89.6,69
				C89.6,63.1,84.7,58.2,78.8,58.2z"/>
		</g>
		<g>
			<path class="st2" d="M94.4,87.2l-0.9-0.9l2.1-2.1l0.9,0.9L94.4,87.2z M78.8,79.2c-5.6,0-10.1-4.5-10.1-10.1s4.5-10.2,10.1-10.2
				S88.9,63.4,88.9,69S84.3,79.2,78.8,79.2z M78.8,60.2c-4.9,0-8.9,4-8.9,8.9s4,8.9,8.9,8.9s8.9-4,8.9-8.9S83.6,60.2,78.8,60.2z
				 M78.8,76.3c-0.2,0-0.4-0.1-0.5-0.2c-0.5-0.6-5-5.8-5-8.9c0-3,2.4-5.4,5.4-5.4s5.4,2.4,5.4,5.4c0,3.1-4.4,8.3-5,8.9
				C79.1,76.2,78.9,76.3,78.8,76.3z M78.8,63c-2.3,0-4.2,1.9-4.2,4.2c0,2,2.7,5.7,4.2,7.5c1.5-1.8,4.2-5.5,4.2-7.5
				C82.9,64.9,81.1,63,78.8,63z M78.8,70.8c-2,0-3.6-1.6-3.6-3.6s1.6-3.6,3.6-3.6s3.6,1.6,3.6,3.6C82.3,69.2,80.7,70.8,78.8,70.8z
				 M78.8,64.9c-1.3,0-2.3,1-2.3,2.3s1,2.3,2.3,2.3s2.3-1,2.3-2.3C81.1,65.9,80,64.9,78.8,64.9z"/>
		</g>
	</g>
</g>
<g id="Layer_7" class="st0">
	<g id="icon7" class="st1">
		<g>
			<path class="st2" d="M74.1,95c-10.6,0-19.2-8.6-19.2-19.1s8.6-19.1,19.2-19.1c10.5,0,19.1,8.6,19.1,19.1S84.6,95,74.1,95z
				 M72.9,93.6c0.7,0,1.5,0,2.2,0V81.2h1.3v12.3c0.8-0.1,1.5-0.3,2.2-0.5V81.2h1.3v11.4c6.9-2.5,11.8-9,11.8-16.7
				c0-9.8-8-17.8-17.8-17.8s-17.8,8-17.8,17.8c0,7.7,4.9,14.3,11.8,16.7V81.2h1.3V93c0.7,0.2,1.5,0.4,2.2,0.5V81.2h1.3v12.4H72.9z
				 M65.4,90.2c-5-3.1-8.1-8.4-8.1-14.3c0-9.2,7.5-16.7,16.7-16.7s16.7,7.5,16.7,16.7c0,5.9-3,11.2-8.1,14.3L82,89.1
				c4.6-2.8,7.4-7.7,7.4-13.2c0-8.5-6.9-15.4-15.4-15.4s-15.4,6.9-15.4,15.4c0,5.4,2.8,10.4,7.4,13.2L65.4,90.2z M81.2,80.1H66.9
				v-1.3H68c0-0.6-0.5-1.1-1.1-1.1v-1.3c1.3,0,2.4,1.1,2.4,2.4h2.2c0-1.1,0.8-2,1.8-2.3v-2.3h-0.5c-0.6,0-1.1,0.5-1.1,1.1h-1.3
				c0-1.3,1.1-2.4,2.4-2.4h2.4v1.3h-0.5v2.3c1,0.3,1.8,1.2,1.8,2.3h2.2c0-1.3,1.1-2.4,2.4-2.4v1.3c-0.6,0-1.1,0.5-1.1,1.1h1.1
				L81.2,80.1L81.2,80.1z M72.9,78.8h2.2c0-0.6-0.5-1.1-1.1-1.1C73.5,77.7,73,78.2,72.9,78.8z M81.2,75.4c-1.3,0-2.4-1.1-2.4-2.4
				h1.3c0,0.6,0.5,1.1,1.1,1.1s1.1-0.5,1.1-1.1s-0.5-1.1-1.1-1.1H66.9v-1.3h14.3c1.3,0,2.4,1.1,2.4,2.4
				C83.6,74.3,82.5,75.4,81.2,75.4z M66.9,75.4c-1.3,0-2.4-1.1-2.4-2.4s1.1-2.4,2.4-2.4v1.3c-0.6,0-1.1,0.5-1.1,1.1s0.5,1.1,1.1,1.1
				S68,73.6,68,73h1.3C69.4,74.3,68.3,75.4,66.9,75.4z M77.7,75.3h-1.3c0-0.6-0.5-1.1-1.1-1.1v-1.3C76.6,72.9,77.7,74,77.7,75.3z
				 M81.2,69.4H66.9v-1.3h14.3C81.2,68.1,81.2,69.4,81.2,69.4z"/>
		</g>
	</g>
</g>
<g id="Layer_8" class="st0">
	<g id="icon8" class="st1">
		<g>
			<path class="st2" d="M74.2,96.8c-0.2,0-0.5-0.1-0.6-0.3l-2.7-2.7l1.3-1.3l1.2,1.2v-9.3h1.8v9.3l1.2-1.2l1.3,1.3L75,96.5
				C74.6,96.7,74.4,96.8,74.2,96.8z M95.8,92.8H80.2c-0.5,0-0.9-0.4-0.9-0.9v-4.6l-1.2,1.2l-1.3-1.3l2.7-2.7c0.4-0.4,0.9-0.4,1.3,0
				l2.7,2.7l-1.3,1.3L81,87.3V91h14.6v1.8H95.8z M68.1,92.8H52.6V91h14.6v-3.7L66,88.4l-1.3-1.3l2.7-2.7c0.4-0.4,0.9-0.4,1.3,0
				l2.7,2.7l-1.3,1.3L69,87.3v4.6C69,92.4,68.6,92.8,68.1,92.8z M87,86h-2v-1.8h2c4,0,7.2-3.2,7.2-7.2c0-3.7-2.5-6.5-5.9-6.5
				c-0.5,0-0.9-0.4-0.9-0.9c0-2.4-1.1-4.1-2.9-4.8V77c0,0.5-0.4,0.9-0.9,0.9H66.3v0.5c0,0.2,0.2,0.5,0.5,0.5h17.6v1.8H66.7
				c-1.2,0-2.3-1-2.3-2.3V62.6c-1.4,1.8-2.3,4-2.3,6.3c0,0.5-0.4,0.9-0.9,0.9c-4,0-7.2,3.2-7.2,7.2s3.2,7.2,7.2,7.2h2V86h-2
				c-5,0-9-4-9-9c0-4.7,3.6-8.5,8.1-9c0.2-3.1,1.7-6,4-8v-4.6c0-1.2,1-2.3,2.3-2.3h16.9c0.5,0,0.9,0.4,0.9,0.9v8.8
				c2.7,0.7,4.4,2.9,4.7,5.8c3.9,0.4,6.8,3.9,6.8,8.3C96,82,92,86,87,86z M66.3,76.1h16.4V54.9h-16c-0.2,0-0.5,0.2-0.5,0.5
				L66.3,76.1C66.2,76.1,66.3,76.1,66.3,76.1z M78.9,69.1h-8.8v-1.8h8.8C78.9,67.3,78.9,69.1,78.9,69.1z M78.9,66.4h-8.8v-1.8h8.8
				V66.4z M78.9,63.7h-8.8v-1.8h8.8V63.7z"/>
		</g>
	</g>
</g>
<g id="Layer_9" class="st0">
	<g class="st1">
		<g>
			<path class="st2" d="M65.5,95h-1.6v-7.3h-3.2c-2.6,0-4.8-2.2-4.8-4.8v-5.3h-2.6c-0.4,0-0.8-0.3-0.8-0.8v-1.3c0-0.1,0-0.2,0.1-0.3
				l3.3-8.6c0-8,6.7-14.6,14.8-14.6v1.6c-7.3,0-13.3,6-13.3,13.3c0,0.1,0,0.2-0.1,0.3L54,75.8v0.4h2.6c0.4,0,0.8,0.3,0.8,0.8v6
				c0,1.8,1.5,3.2,3.2,3.2h4c0.4,0,0.8,0.3,0.8,0.8L65.5,95L65.5,95z"/>
		</g>
		<g>
			<rect x="64.7" y="86.2" class="st2" width="2" height="1.6"/>
		</g>
		<g>
			<path class="st2" d="M80.2,95h-1.6v-8c0-3.4,1.3-6.2,2.6-9c1.4-2.9,2.8-5.9,2.8-9.8h1.6c0,4.2-1.5,7.4-2.9,10.4
				c-1.3,2.7-2.5,5.3-2.5,8.3V95z"/>
		</g>
		<g>
			<rect x="81.4" y="86.2" class="st2" width="2" height="1.6"/>
		</g>
		<g>
			<path class="st2" d="M84.2,95h-1.6v-8c0-0.4,0.3-0.8,0.8-0.8h4c1.8,0,3.2-1.5,3.2-3.2v-6c0-0.4,0.3-0.8,0.8-0.8H94v-0.4l-3.3-8.6
				c0-0.1-0.1-0.2-0.1-0.3c0-7.3-6-13.3-13.3-13.3S64,59.6,64,66.9h-1.6c0.2-8.2,6.8-14.9,15-14.9c8.1,0,14.8,6.6,14.9,14.7l3.3,8.6
				c0,0.1,0.1,0.2,0.1,0.3v1.3c0,0.4-0.3,0.8-0.8,0.8h-2.6V83c0,2.6-2.2,4.8-4.8,4.8h-3.2V95H84.2z M76,76.1c-0.2,0-0.3,0-0.4-0.1
				c-0.2-0.1-0.3-0.3-0.3-0.5c-0.1-0.6-0.6-1.1-1.2-1.1s-1.1,0.5-1.2,1.1c0,0.2-0.2,0.4-0.3,0.5c-0.2,0.1-0.4,0.2-0.6,0.1
				c-0.7-0.2-1.3-0.4-1.9-0.7c-0.2-0.1-0.3-0.3-0.4-0.5s0-0.4,0.1-0.6s0.2-0.4,0.2-0.7c0-0.7-0.6-1.2-1.2-1.2
				c-0.4,0-0.6,0.2-0.8,0.3s-0.4,0.2-0.6,0.2s-0.4-0.2-0.5-0.3c-0.6-0.8-1-1.8-1.2-2.8c-0.1-0.2,0-0.4,0.1-0.6s0.3-0.3,0.5-0.3
				c0.6-0.1,1.1-0.6,1.1-1.2s-0.5-1.1-1.1-1.2c-0.2,0-0.4-0.2-0.5-0.3c-0.1-0.2-0.2-0.4-0.1-0.6c0.2-0.8,0.5-1.6,1-2.3
				c0.1-0.2,0.4-0.4,0.6-0.4c0.3,0,0.5,0.1,0.7,0.3c0.2,0.3,0.6,0.5,0.9,0.5c0.7,0,1.2-0.6,1.2-1.2c0-0.4-0.2-0.7-0.5-0.9
				c-0.2-0.2-0.3-0.4-0.3-0.7s0.2-0.5,0.4-0.6c0.7-0.4,1.5-0.7,2.3-1c0.2-0.1,0.4,0,0.6,0.1s0.3,0.3,0.3,0.5
				c0.1,0.6,0.6,1.1,1.2,1.1s1.1-0.5,1.2-1.1c0-0.2,0.2-0.4,0.3-0.5c0.2-0.4,0.4-0.5,0.6-0.4c0.8,0.2,1.6,0.5,2.3,1
				c0.2,0.1,0.4,0.4,0.4,0.6c0,0.3-0.1,0.5-0.3,0.7c-0.3,0.2-0.5,0.6-0.5,0.9c0,0.7,0.6,1.2,1.2,1.2c0.4,0,0.7-0.2,0.9-0.5
				c0.2-0.2,0.4-0.3,0.7-0.3c0.3,0,0.5,0.2,0.6,0.4c0.4,0.7,0.8,1.5,1,2.3c0.1,0.2,0,0.4-0.1,0.6s-0.3,0.3-0.5,0.3
				c-0.6,0.1-1.1,0.6-1.1,1.2s0.5,1.1,1.1,1.2c0.2,0,0.4,0.2,0.5,0.3c0.1,0.2,0.2,0.4,0.1,0.6c-0.3,1-0.7,1.9-1.2,2.8
				c-0.1,0.2-0.3,0.3-0.5,0.3s-0.4,0-0.6-0.2c-0.2-0.1-0.4-0.3-0.8-0.3c-0.7,0-1.2,0.6-1.2,1.2c0,0.2,0.1,0.5,0.2,0.7
				s0.2,0.4,0.1,0.6s-0.2,0.4-0.4,0.5c-0.6,0.3-1.2,0.5-1.9,0.7C76.2,76.1,76.1,76.1,76,76.1z M74.1,72.8c1.1,0,2,0.6,2.5,1.6
				c0.1,0,0.1,0,0.2-0.1c-0.1-0.2-0.1-0.5-0.1-0.7c0-1.5,1.3-2.8,2.8-2.8c0.4,0,0.7,0.1,1,0.2c0.2-0.3,0.3-0.6,0.4-0.9
				c-0.9-0.5-1.6-1.4-1.6-2.5s0.6-2,1.6-2.5c0-0.1-0.1-0.3-0.2-0.4c-0.4,0.2-0.8,0.3-1.3,0.3c-1.5,0-2.8-1.3-2.8-2.8
				c0-0.5,0.1-0.9,0.3-1.3c-0.1-0.1-0.3-0.1-0.4-0.2c-0.5,0.9-1.4,1.6-2.5,1.6s-2-0.6-2.5-1.6c-0.1,0-0.3,0.1-0.4,0.2
				c0.2,0.4,0.3,0.8,0.3,1.3c0,1.5-1.3,2.8-2.8,2.8c-0.5,0-0.9-0.1-1.3-0.3c-0.1,0.1-0.1,0.3-0.2,0.4c0.9,0.5,1.6,1.4,1.6,2.5
				s-0.6,2-1.6,2.5c0.1,0.3,0.3,0.6,0.4,0.9c0.3-0.1,0.7-0.2,1-0.2c1.5,0,2.8,1.3,2.8,2.8c0,0.2,0,0.5-0.1,0.7c0.1,0,0.1,0,0.2,0.1
				C72,73.4,73,72.8,74.1,72.8z M74.1,71c-1.9,0-3.5-1.6-3.5-3.5s1.6-3.5,3.5-3.5s3.5,1.6,3.5,3.5S76,71,74.1,71z M74.1,65.6
				c-1,0-1.9,0.9-1.9,1.9s0.9,1.9,1.9,1.9s1.9-0.9,1.9-1.9S75.1,65.6,74.1,65.6z"/>
		</g>
	</g>
</g>
<g>
	<g>
		<path class="st4" d="M87.1,105h-4.9L45.3,92h-9v0.7c0,2-1.7,3.7-3.7,3.7h-26v-3h26c0.4,0,0.7-0.3,0.7-0.7v-39
			c0-0.4-0.3-0.7-0.7-0.7h-26v-3h26c2,0,3.7,1.7,3.7,3.7v0.6h18.3L78.4,63h19.2c4.4,0,8,3.6,8,8c0,0.6-0.1,1.1-0.2,1.6l30.9-9.6h0.2
			c4.4,0,8,3.6,8,8c0,2.8-2.4,5.1-2.7,5.4l-0.2,0.1L87.1,105z M82.7,102h3.7L140,74.1c0.5-0.6,1.6-1.9,1.6-3.1c0-2.7-2.1-4.9-4.8-5
			l-33.3,10.4C102,78,99.9,79,97.6,79H73.8c-2.8,0-5,2.2-5,5h-3c0-4.4,3.6-8,8-8h23.8c1.6,0,3-0.7,3.9-1.9l-0.1-0.2l0.3-0.1
			c0.5-0.8,0.8-1.7,0.8-2.8c0-2.8-2.2-5-5-5H77.8L54,57.3H36.3V89h9.6l0.2,0.1L82.7,102z M28.3,87.7H24v-3h4.3V87.7z M19.6,87.7
			h-4.3v-3h4.3V87.7z"/>
	</g>
	<g>
		<rect x="6.6" y="28.3" class="st5" width="13" height="3"/>
	</g>
	<g>
		<rect x="23.9" y="28.3" class="st5" width="8.7" height="3"/>
	</g>
	<g>
		<rect x="15.3" y="19.7" class="st5" width="15.1" height="3"/>
	</g>
	<g>
		<rect x="6.6" y="11" class="st5" width="21.7" height="3"/>
	</g>
	<g>
		<path class="st5" d="M80.3,44.3H58.6c-0.6,0-1.2-0.4-1.4-1l-4.3-13l2.8-0.9l4,12h20.5l62.6-13l0.6,2.9l-62.8,13
			C80.5,44.3,80.4,44.3,80.3,44.3z"/>
	</g>
	<g>
		<path class="st5" d="M42.1,30.5l-8.6-17.3c-0.2-0.5-0.2-1,0.1-1.5s0.8-0.7,1.3-0.7h10.8v3h-8.4l7.5,15.1L42.1,30.5z"/>
	</g>
	<g>
		<path class="st5" d="M143.1,31.3H43.4c-0.5,0-1-0.3-1.3-0.7s-0.3-1-0.1-1.5l8.7-17.3C51,11.3,51.5,11,52,11h34.7
			c0.1,0,0.2,0,0.3,0l56.3,10.8c0.7,0.1,1.2,0.8,1.2,1.5v6.5C144.6,30.6,143.9,31.3,143.1,31.3z M45.8,28.3h95.8v-3.8L86.7,14H53
			L45.8,28.3z"/>
	</g>
</g>
</svg>
