<?xml version="1.0" encoding="utf-8"?>
<!-- Generator: Adobe Illustrator 23.0.2, SVG Export Plug-In . SVG Version: 6.00 Build 0)  -->
<svg version="1.1" id="Capa_1" xmlns="http://www.w3.org/2000/svg" xmlns:xlink="http://www.w3.org/1999/xlink" x="0px" y="0px"
	 viewBox="0 0 512 512" style="enable-background:new 0 0 512 512;" xml:space="preserve">
<style type="text/css">
	.st0{fill:#2DC997;}
</style>
<g>
	<path class="st0" d="M512,253.7c0-39.7-45.6-68.6-107.1-86c15.7-61.9,12.9-115-21.4-134.9C342.9,9.5,289.9,49.3,256,82
		c-9.8-9.5-13.2-13-23-20.9c1.7-19.4-13.3-32.5-29.5-32.5c-5.7,0-10.8,2-15.3,4.8c-23.1-9.5-43.5-10-59.7-0.7
		c-34.4,19.8-37.1,72.9-21.4,134.9C45.6,185.1,0,214,0,253.7s45.6,68.6,107.1,86c-15.7,61.9-12.9,115,21.4,134.9
		c14.9,8.6,30.7,8.1,47.3,3.5c5.4,4.9,12.4,8.1,20.2,8.1c16.7,0,32.2-13.9,29.1-34.3c10.9-8,8.7-5.2,30.9-26.6
		c33.7,32.7,86.8,72.7,127.5,49.2c34.4-19.8,37.1-72.9,21.4-134.9c16.4-4.6,32.6-10.1,46-16.3c4.7,3.1,10,5.3,16.1,5.3
		c17.5,0,33.5-15.2,28.7-36.4C506,280.8,512,268,512,253.7z M368.5,58.8c17.7,10.2,20.5,49.2,7.2,101.7c-19.4-4.1-40-7.1-60.9-9
		c-12.3-17.4-25.1-33.3-38.1-47.8C297.3,83.8,343.6,44.4,368.5,58.8z M356.5,288.9c4,9.9,7.7,19.7,10.8,29.1
		c-9.9,2-20.3,3.7-31.1,5.2c3.5-5.7,7.3-11.1,10.7-17C350.2,300.5,353.4,294.7,356.5,288.9z M321,291.2c-7.2,12.5-14.8,24.4-22.5,36
		c-13.7,1-27.8,1.5-42.4,1.5s-28.7-0.6-42.4-1.5c-7.8-11.5-15.3-23.5-22.5-36c-7.3-12.7-13.9-25.2-19.9-37.5
		c6-12.3,12.6-24.8,19.9-37.5c7.2-12.5,14.8-24.4,22.5-36c13.7-1,27.8-1.5,42.4-1.5s28.7,0.6,42.4,1.5c7.8,11.5,15.3,23.5,22.5,36
		c7.3,12.7,13.9,25.2,19.9,37.5C334.8,266,328.3,278.5,321,291.2z M256,381.9c-6.6-7.5-13.2-15.2-19.7-23.5
		c6.6,0.2,13.2,0.4,19.7,0.4s13.1-0.2,19.7-0.4C269.2,366.7,262.6,374.4,256,381.9z M165.1,306.2c3.4,5.9,7.1,11.3,10.7,17
		c-10.8-1.5-21.2-3.2-31.1-5.2c3.1-9.4,6.8-19.2,10.8-29.1C158.6,294.7,161.8,300.5,165.1,306.2z M155.5,218.5
		c-4-9.9-7.7-19.7-10.8-29.1c9.9-2,20.3-3.7,31.1-5.2c-3.5,5.7-7.3,11.1-10.7,17C161.8,206.9,158.6,212.7,155.5,218.5z M256,125.5
		c6.6,7.5,13.2,15.2,19.7,23.5c-6.6-0.2-13.2-0.4-19.7-0.4s-13.1,0.2-19.7,0.4C242.8,140.7,249.4,133,256,125.5z M346.9,201.2
		c-3.4-5.9-7.1-11.3-10.7-17c10.8,1.5,21.2,3.2,31.1,5.2c-3.1,9.4-6.8,19.2-10.8,29.1C353.4,212.7,350.2,206.9,346.9,201.2z
		 M143.5,58.8c9.2-5.3,20.4-2.3,30.3,1.4c0.8,15.8,13.7,28.5,29.7,28.5c4.4,0,8.6-1.1,12.4-2.9c0.3,0.2,0.6,0.4,0.9,0.6
		c6.2,5.1,12.4,11.2,18.5,17.2c-13,14.5-25.8,30.4-38.1,47.8c-21,2-41.5,5-60.9,9C123,108,125.8,69.1,143.5,58.8z M30,253.7
		c0-20.5,33.4-42.3,85.5-57.1c6.2,18.8,13.8,38,22.6,57.1c-8.8,19.1-16.4,38.3-22.6,57.1C63.4,296,30,274.2,30,253.7z M143.5,448.5
		c-17.7-10.2-20.5-49.2-7.2-101.7c19.4,4.1,39.9,7.1,60.9,9c12.3,17.4,25.1,33.3,38.1,47.8c-11.6,11.2-15.6,15.4-28.3,24.8
		c-3.4-1.4-7.1-2.2-11-2.2c-14.2,0-25.5,10.1-28.7,23.3C157.7,452.1,149.5,452,143.5,448.5z M368.5,448.5
		c-24.9,14.5-71.2-24.9-91.8-44.9c13-14.5,25.8-30.4,38.1-47.8c21-2,41.5-5,60.9-9C389,399.3,386.2,438.3,368.5,448.5z M373.9,253.7
		c8.8-19.1,16.4-38.3,22.6-57.1c52.1,14.8,85.5,36.7,85.5,57.1c0,5.5-2.6,11.1-7,16.6c-2.6-0.7-5.2-1.6-8-1.6
		c-15.7,0-28.3,12.3-29.5,27.7c-11.5,5.3-25.8,10.2-41,14.5C390.3,292,382.7,272.8,373.9,253.7z"/>
	<path class="st0" d="M256,208.7c-24.8,0-45,20.2-45,45s20.2,45,45,45s45-20.2,45-45S280.8,208.7,256,208.7z"/>
</g>
</svg>
