<?xml version="1.0" encoding="utf-8"?>
<!-- Generator: Adobe Illustrator 23.0.2, SVG Export Plug-In . SVG Version: 6.00 Build 0)  -->
<svg version="1.1" id="Capa_1" xmlns="http://www.w3.org/2000/svg" xmlns:xlink="http://www.w3.org/1999/xlink" x="0px" y="0px"
	 viewBox="0 0 512 512" style="enable-background:new 0 0 512 512;" xml:space="preserve">
<style type="text/css">
	.st0{fill:#2DC997;}
	.st1{fill:#601848;}
</style>
<g>
	<g>
		<g>
			<path class="st0" d="M425.3,25.4L425.3,25.4c-2.6-3.6-7.6-4.4-11.2-1.8c-3.5,2.6-4.3,7.5-1.8,11.1c47.6,66.6,47.6,156.1,0,222.7
				c-2.6,3.6-1.8,8.6,1.8,11.2c0,0,0,0,0,0c3.6,2.6,8.6,1.7,11.2-1.9C476.9,194.5,476.9,97.6,425.3,25.4z"/>
			<path class="st0" d="M97.8,23.5C97.8,23.5,97.8,23.5,97.8,23.5c-3.6-2.6-8.6-1.7-11.2,1.9c-51.6,72.2-51.6,169.2,0,241.3
				c2.6,3.6,7.6,4.4,11.2,1.8c3.5-2.6,4.3-7.5,1.8-11.1c-47.6-66.6-47.6-156.1,0-222.7C102.3,31,101.4,26,97.8,23.5z"/>
			<path class="st0" d="M148.7,62.7c2.7-3.5,2.1-8.5-1.4-11.2l0,0c-3.5-2.7-8.5-2.1-11.2,1.4c-42.7,54.7-42.7,131.5,0,186.3
				c2.7,3.5,7.7,4.1,11.2,1.4c3.5-2.7,4.1-7.7,1.4-11.2C110.5,180.4,110.5,111.7,148.7,62.7z"/>
			<path class="st0" d="M364.7,51.5L364.7,51.5c-3.5,2.7-4.1,7.7-1.4,11.2c38.2,49,38.2,117.7,0,166.6c-2.7,3.5-2.1,8.5,1.4,11.2
				s8.5,2.1,11.2-1.4c42.7-54.7,42.7-131.5,0-186.3C373.2,49.4,368.2,48.7,364.7,51.5z"/>
			<path class="st0" d="M314.2,91.3c29,30.7,29,78.7,0,109.5c-3,3.2-2.9,8.3,0.3,11.3c0,0,0,0,0,0c3.2,3,8.3,2.9,11.3-0.3
				c0,0,0,0,0,0c34.8-36.9,34.8-94.5,0-131.4c-3-3.2-8.1-3.4-11.3-0.4C311.3,82.9,311.2,87.9,314.2,91.3
				C314.2,91.2,314.2,91.3,314.2,91.3z"/>
			<path class="st0" d="M191.9,214.2c4.4,0,8-3.6,8-8c0-2-0.8-4-2.2-5.5c-29-30.7-29-78.7,0-109.5c3.1-3.2,2.9-8.3-0.3-11.3
				s-8.3-2.9-11.3,0.3c0,0-0.1,0.1-0.1,0.1c-34.8,36.9-34.8,94.5,0,131.4C187.6,213.3,189.7,214.2,191.9,214.2z"/>
		</g>
	</g>
</g>
<path class="st1" d="M359.8,480l-77.9-303.8c16.9-14.3,18.9-39.5,4.6-56.4c-14.3-16.9-39.5-18.9-56.4-4.6s-18.9,39.5-4.6,56.4
	c1.4,1.7,3,3.2,4.6,4.6L152.2,480c-1.1,4.3,1.5,8.6,5.8,9.7c0,0,0,0,0,0c0.6,0.2,1.3,0.2,2,0.2c3.6,0,6.8-2.5,7.7-6l2.7-10.4
	c0.4-0.1,0.9-0.3,1.3-0.5l149.5-78.7l23,89.6c0.9,3.5,4.1,6,7.8,6c0.7,0,1.3-0.1,2-0.2C358.3,488.7,360.9,484.3,359.8,480
	C359.8,480,359.8,480,359.8,480z M282.6,243.7l-43.5-38.1l5.5-21.5c3.7,1.2,7.5,1.8,11.4,1.8c3.9-0.1,7.7-0.7,11.4-1.8L282.6,243.7z
	 M256,122c13.3,0,24,10.7,24,24c0,13.3-10.7,24-24,24s-24-10.7-24-24S242.7,122,256,122z M234.7,223l48.2,42.2l-71.2,47.4L234.7,223
	z M175.7,452.9l28.7-112l97.6,45.5L175.7,452.9z M216.3,328.8l75.3-50.2l24.9,96.9L216.3,328.8z"/>
</svg>
