<?xml version="1.0" encoding="utf-8"?>
<!-- Generator: Adobe Illustrator 23.0.2, SVG Export Plug-In . SVG Version: 6.00 Build 0)  -->
<svg version="1.1" id="Capa_1" xmlns="http://www.w3.org/2000/svg" xmlns:xlink="http://www.w3.org/1999/xlink" x="0px" y="0px"
	 viewBox="0 0 512 512" style="enable-background:new 0 0 512 512;" xml:space="preserve">
<style type="text/css">
	.st0{fill:#601848;}
	.st1{fill:#2DC997;}
</style>
<path id="XMLID_113_" class="st0" d="M310.9,134.1c0.3,0,0.6,0,0.9,0c4.6,0,8.5-3.5,9-8.2c0.5-4.9-3.2-9.3-8.1-9.8
	c-16.3-1.5-29.8-4.4-36.1-7.6c-4.4-2.3-9.8-0.6-12.1,3.8c-2.3,4.4-0.6,9.8,3.8,12.1C279.6,130.5,299.9,133.1,310.9,134.1z
	 M373.2,134.2c0.3,0,0.6,0,0.9,0c13.5-1.3,31.9-4,42.7-9.6c4.4-2.3,6.1-7.7,3.8-12.1c-2.3-4.4-7.7-6.1-12.1-3.8
	c-6.3,3.2-19.8,6.1-36.1,7.6c-4.9,0.5-8.6,4.9-8.1,9.8C364.6,130.7,368.6,134.2,373.2,134.2z M433.6,54c-24.4-5.2-56.8-8-91.1-8
	c-34.3,0-66.7,2.9-91.1,8c-30.1,6.4-44.1,15.2-44.1,27.8v55.2c0,5,4,9,9,9s9-4,9-9V82.6c1.9-2.1,10.9-7.5,35.3-12.1
	c22.5-4.2,51.6-6.6,81.9-6.6c30.3,0,59.4,2.3,81.9,6.6c24.4,4.6,33.4,10,35.3,12.1V208c0,50.5-41.1,95.3-102.3,111.3
	c-4.8,1.3-7.7,6.2-6.4,11c1.1,4,4.7,6.7,8.7,6.7c0.8,0,1.5-0.1,2.3-0.3c33-8.7,61.5-25.2,82.5-47.9c21.7-23.5,33.2-51.5,33.2-80.8
	V81.7C477.7,69.2,463.7,60.4,433.6,54z M384.6,263.3c0.4,0,0.7,0,1.1-0.1c8.5-1.1,16.4-2.4,23.4-4c4.1-0.9,7-4.6,7-8.8v-0.5
	c0-23.6-8.2-43.7-23.8-58.1c-15.9-14.7-38.3-22.2-61.4-20.4c-5,0.4-8.7,4.7-8.3,9.7c0.4,5,4.7,8.7,9.7,8.3
	c18.1-1.4,35.6,4.3,47.8,15.6c10.3,9.5,16.3,22.6,17.7,38c-3.2,0.6-6.7,1.1-10.2,1.6c-14.3-12.8-29.5-19.9-45.1-21.2
	c-5-0.4-9.3,3.3-9.7,8.3c-0.4,5,3.3,9.3,8.3,9.7c12.5,1,25,7.5,37.2,19.2C380,262.4,382.3,263.3,384.6,263.3z"/>
<path class="st1" d="M146.4,260.4c-15.8,4.6-28.5,10-34,14.4c-1.7,1.3-3.6,1.9-5.6,1.9c-2.7,0-5.3-1.2-7.1-3.4
	c-3.1-3.9-2.4-9.6,1.5-12.6c10.1-8,29.4-14.4,40.1-17.6c4.8-1.4,9.8,1.3,11.2,6.1C153.9,254,151.2,259,146.4,260.4z"/>
<path class="st1" d="M268.3,319.6L268.3,319.6l-0.1-0.5c-0.8-4.1-4.4-7.2-8.6-7.3c-7.2-0.2-15.2,0-23.7,0.6
	c-2.7,0.2-5.2,1.6-6.7,3.8c-21.2,30.2-48.8,35.6-79.9,15.5c-2.3-1.5-5.1-1.8-7.7-1c-8.2,2.7-15.6,5.5-22.2,8.3
	c-3.9,1.7-6,5.8-5.2,9.9l0.1,0.5c4.6,23.7,16.9,42.1,35.5,53.2c11.9,7.1,25.6,10.7,39.9,10.7c5.5,0,11-0.5,16.6-1.6
	c20-3.9,37.4-14.4,49-29.6C268.4,365,272.9,343.4,268.3,319.6z M202.9,394.2c-27,5.2-59.1-5.7-69.3-41.4c3.1-1.2,6.3-2.4,9.7-3.6
	c14.1,8.4,28.1,12.6,41.3,12.6c21.2,0,40.8-10.7,56.7-31.7c3.6-0.2,7-0.3,10.3-0.4C255.5,366.7,229.8,389,202.9,394.2z"/>
<path class="st1" d="M205,249c16.3-1.6,30.1-1.4,36.9,0.6c0.8,0.2,1.7,0.4,2.5,0.4c3.9,0,7.5-2.5,8.6-6.5c1.4-4.8-1.3-9.8-6.1-11.2
	c-11.7-3.4-30.3-2.6-43.8-1.2c-4.9,0.5-8.6,4.9-8.1,9.8C195.6,245.8,200.1,249.4,205,249z"/>
<path class="st1" d="M324.2,309.7l-24.1-123.9c-2.4-12.3-17.8-18.3-48.6-18.8c-25-0.4-57.3,3-91,9.5c-33.7,6.6-64.9,15.6-87.9,25.3
	c-28.3,12-40.4,23.4-38,35.7l24.1,123.9c11.9,61.3,74.8,104.6,150.7,104.6c2,0,4,0,6-0.1c1,0,1.9-0.2,2.9-0.6
	C291.9,438.1,336.4,372.7,324.2,309.7z M213.4,448c-69,1.5-126.5-36.2-137-90l-24-123.1c1.4-2.4,9.3-9.5,32.3-18.6
	c21.3-8.5,49.4-16.3,79.2-22.1c29.7-5.8,58.7-9.1,81.7-9.2c24.9-0.1,34.7,3.4,37,5.1l24,123.1C317,367,277.9,423.5,213.4,448z"/>
</svg>
