<?xml version="1.0" encoding="utf-8"?>
<!-- Generator: Adobe Illustrator 23.0.2, SVG Export Plug-In . SVG Version: 6.00 Build 0)  -->
<svg version="1.1" id="Capa_1" xmlns="http://www.w3.org/2000/svg" xmlns:xlink="http://www.w3.org/1999/xlink" x="0px" y="0px"
	 viewBox="0 0 512 512" style="enable-background:new 0 0 512 512;" xml:space="preserve">
<style type="text/css">
	.st0{fill:#2DC997;}
	.st1{fill:#601848;}
</style>
<g>
	<path class="st0" d="M410.5,188.4v215.9c0,17.9-13.3,32.1-34.1,37.4c-4.4,1.1-8.9,1.6-13.1,1.6c-17.6,0-32.6-8.9-36.1-23
		c-4.4-17.5,10.6-36.3,33.4-42c4.5-1.1,8.9-1.6,13.2-1.6c5.6,0,11,0.9,15.8,2.6V249.1l-116.7,21.3l-0.5,161.8
		c-0.1,15.3-13.9,30.4-33.8,35.3c-4.1,1-8.3,1.5-12.4,1.5c-18.1,0-34.3-9.6-36.3-22.7c-4.3-17.3,10.4-35.9,33.1-41.6
		c4.4-1.1,8.8-1.6,13.1-1.6c5.5,0,10.7,0.9,15.4,2.5V214.2L410.5,188.4 M248.9,199.4l-12.6,2v12.8v174c-0.1,0-0.3,0-0.4,0
		c-5.6,0-11.2,0.7-16.7,2.1c-14.1,3.5-26.5,11.2-34.7,21.6c-8.9,11.2-12.3,24.9-9.4,37.5c1.9,10.4,8.6,19.6,19,26
		c9.1,5.6,20.4,8.6,32,8.6c5.4,0,10.8-0.7,16.1-2c12.4-3.1,23.3-9.3,31.6-18c8.7-9.2,13.5-20.5,13.6-31.8l0.5-149.4l86.7-15.9v94.5
		c-0.3,0-0.5,0-0.8,0c-5.6,0-11.2,0.7-16.8,2.1c-14.3,3.6-26.7,11.3-35,21.8c-9.1,11.5-12.5,25.5-9.3,38.4
		c5.2,20.6,25.5,34.4,50.7,34.4c5.6,0,11.2-0.7,16.7-2.1l0,0l0,0c27.6-7,45.4-27.4,45.4-51.9V188.4v-17.6l-17.4,2.8L248.9,199.4z"/>
</g>
<path class="st1" d="M254.7,86.3l-0.3-0.2l-0.3-0.2c-41.4-28.9-53.9-42.3-57.3-46.5l0.2-13.3l-17,2c-11.7,1.4-18.2,7.2-21.6,11.9
	c-3.7,5-4.7,9.9-4.9,11.7l-0.1,1v1v192.8c-0.6,0-1.3,0-1.9,0c-6,0-12.1,0.8-18,2.2c-17.8,4.4-33,15-41.5,29.1
	c-6.5,10.7-8.6,22.8-5.9,34.1c2,11,9.1,20.8,20.2,27.6c9.7,6,22,9.3,34.4,9.3c5.9,0,11.7-0.7,17.3-2.1c13.4-3.3,25.1-10,33.9-19.3
	c5.4-5.7,9.4-12.2,11.9-19l2.7-15l0.5-181.7c28.1,3.5,80,74.4,80,74.4S309.6,122.9,254.7,86.3z M192.5,93.4c-0.4,0-0.5,0-0.5,0
	l-0.6,200h0c-0.1,16.9-15.3,33.3-37.1,38.8c-4.6,1.1-9.2,1.7-13.7,1.7c-19.9,0-37.6-10.5-39.9-24.9c-4.8-19.1,11.5-39.6,36.3-45.7
	c4.9-1.2,9.7-1.8,14.4-1.8c6,0,11.8,1,16.9,2.8V53.6c0,0,1.3-9.3,13.5-10.7c0,0-0.2,10.6,63.8,55.2c32.7,25.2,32.6,59.7,32.6,59.7
	C238.3,95.4,197.7,93.4,192.5,93.4z"/>
</svg>
