<?xml version="1.0" encoding="utf-8"?>
<!-- Generator: Adobe Illustrator 23.1.0, SVG Export Plug-In . SVG Version: 6.00 Build 0)  -->
<svg version="1.1" id="Layer_1" xmlns="http://www.w3.org/2000/svg" xmlns:xlink="http://www.w3.org/1999/xlink" x="0px" y="0px"
	 viewBox="0 0 255 210" style="enable-background:new 0 0 255 210;" xml:space="preserve">
<style type="text/css">
	.st0{fill:#F68212;}
	.st1{fill:none;stroke:#FEBF00;stroke-width:2;stroke-linecap:round;stroke-miterlimit:10;stroke-dasharray:4,8;}
	.st2{fill:none;stroke:#FEBF00;stroke-linecap:round;stroke-miterlimit:10;stroke-dasharray:4,4;}
	.st3{fill:none;stroke:#FEBF00;stroke-width:2;stroke-linecap:round;stroke-miterlimit:10;stroke-dasharray:4,5;}
	.st4{fill:#EF7216;}
	.st5{fill:#B2550F;}
	.st6{fill:#87C6C0;}
</style>
<g>
	<polygon class="st0" points="205.24,54.99 209.95,54.25 205.24,53.5 204.49,48.79 203.75,53.5 199.03,54.25 203.75,54.99 
		204.49,59.7 	"/>
</g>
<g>
	<polygon class="st0" points="40.11,144.33 47.5,143.16 40.11,141.99 38.94,134.6 37.77,141.99 30.38,143.16 37.77,144.33 
		38.94,151.72 	"/>
</g>
<g>
	<polygon class="st0" points="72.57,97.91 77.29,97.16 72.57,96.42 71.83,91.71 71.08,96.42 66.37,97.16 71.08,97.91 71.83,102.62 	
		"/>
</g>
<g>
	<polygon class="st0" points="20.2,88.66 24.91,87.92 20.2,87.17 19.46,82.46 18.71,87.17 14,87.92 18.71,88.66 19.46,93.38 	"/>
</g>
<g>
	<polygon class="st0" points="203.36,70.24 206.5,69.75 203.36,69.25 202.86,66.11 202.37,69.25 199.23,69.75 202.37,70.24 
		202.86,73.38 	"/>
</g>
<g>
	<polygon class="st0" points="188.61,101.63 192.33,101.04 188.61,100.45 188.02,96.73 187.43,100.45 183.7,101.04 187.43,101.63 
		188.02,105.36 	"/>
</g>
<g>
	<polygon class="st0" points="98.97,14.3 102.69,13.71 98.97,13.12 98.38,9.4 97.79,13.12 94.06,13.71 97.79,14.3 98.38,18.02 	"/>
</g>
<g>
	<polygon class="st0" points="205.43,127.19 212.77,126.03 205.43,124.87 204.27,117.53 203.11,124.87 195.78,126.03 203.11,127.19 
		204.27,134.52 	"/>
</g>
<g>
	<polygon class="st0" points="90.2,122.61 93.34,122.12 90.2,121.62 89.7,118.48 89.2,121.62 86.06,122.12 89.2,122.61 89.7,125.76 
			"/>
</g>
<g>
	<polygon class="st0" points="166.2,16.03 168.87,15.6 166.2,15.18 165.78,12.51 165.35,15.18 162.68,15.6 165.35,16.03 
		165.78,18.7 	"/>
</g>
<g>
	<polygon class="st0" points="45.2,51.49 47.87,51.07 45.2,50.65 44.78,47.97 44.35,50.65 41.68,51.07 44.35,51.49 44.78,54.16 	"/>
</g>
<g>
	<polygon class="st0" points="228.34,160.92 231.58,160.41 228.34,159.89 227.82,156.65 227.31,159.89 224.07,160.41 227.31,160.92 
		227.82,164.16 	"/>
</g>
<g>
	<polygon class="st0" points="129.31,53.41 134.58,52.58 129.31,51.74 128.48,46.47 127.65,51.74 122.37,52.58 127.65,53.41 
		128.48,58.68 	"/>
</g>
<g>
	<polygon class="st0" points="77.23,37.39 85.88,36.02 77.23,34.65 75.86,26 74.49,34.65 65.84,36.02 74.49,37.39 75.86,46.04 	"/>
</g>
<circle class="st1" cx="116.75" cy="106.25" r="69.75"/>
<path class="st2" d="M27.63,133.62c4.72-2.32,9.78-4.15,15.13-5.38c34.04-7.88,68.03,10.63,80.53,42.14"/>
<circle class="st3" cx="192.5" cy="136" r="47.5"/>
<g>
	<path class="st4" d="M97.29,76.15v4.15h12.18v-4.15c0-10.05,8.18-18.23,18.23-18.23c10.05,0,18.23,8.18,18.23,18.23v30.05h12.18
		V76.15c0-16.77-13.64-30.41-30.41-30.41C110.94,45.73,97.29,59.38,97.29,76.15 M137.8,123.73c0,5.55-4.5,10.05-10.05,10.05
		c-5.55,0-10.05-4.5-10.05-10.05c0-5.55,4.5-10.05,10.05-10.05C133.3,113.67,137.8,118.17,137.8,123.73"/>
	<path class="st4" d="M103.95,123.62c0-13.06,10.62-23.68,23.68-23.68c13.06,0,23.68,10.62,23.68,23.68
		c0,13.06-10.62,23.68-23.68,23.68C114.58,147.3,103.95,136.67,103.95,123.62 M91.77,123.62c0,19.77,16.09,35.86,35.86,35.86
		c19.77,0,35.86-16.09,35.86-35.86c0-19.77-16.09-35.86-35.86-35.86C107.86,87.75,91.77,103.84,91.77,123.62"/>
</g>
<g>
	<g>
		<path class="st5" d="M149.92,199.85h-6.58c0-9.76-7.78-17.7-17.34-17.7c-9.56,0-17.34,7.94-17.34,17.7h-6.58
			c0-13.46,10.73-24.41,23.92-24.41C139.19,175.44,149.92,186.39,149.92,199.85z"/>
	</g>
	<g>
		<g>
			<path class="st6" d="M133.86,178.31c-0.22,0-0.45-0.06-0.65-0.19c-0.58-0.38-0.78-1.18-0.44-1.81c0.39-0.72,4.44-7.08,25.13-9.19
				c37.54-3.83,73.28,4.09,73.64,4.17c0.68,0.15,1.12,0.87,0.97,1.59c-0.14,0.73-0.81,1.19-1.5,1.04
				c-0.35-0.08-35.73-7.91-72.87-4.13c-19.42,1.98-23.17,7.83-23.21,7.89C134.7,178.09,134.28,178.31,133.86,178.31z"/>
		</g>
		<g>
			<path class="st6" d="M238.95,186.3h-98.33c-0.7,0-1.26-0.6-1.26-1.34c0-0.74,0.57-1.34,1.26-1.34h98.33c0.7,0,1.26,0.6,1.26,1.34
				C240.22,185.7,239.65,186.3,238.95,186.3z"/>
		</g>
		<g>
			<path class="st6" d="M237.8,183.53h-98.33c-0.7,0-1.26-0.6-1.26-1.34c0-0.74,0.57-1.34,1.26-1.34h98.33c0.7,0,1.26,0.6,1.26,1.34
				C239.07,182.93,238.5,183.53,237.8,183.53z"/>
		</g>
		<g>
			<path class="st6" d="M138.32,180.75c-0.67,0-1.23-0.56-1.26-1.28c-0.03-0.74,0.51-1.37,1.2-1.4c0.32-0.02,31.64-1.52,42.11-1.52
				c13.88,0,55.9,1.5,56.33,1.52c0.7,0.03,1.25,0.65,1.22,1.39c-0.02,0.74-0.61,1.37-1.31,1.29c-0.42-0.02-42.4-1.52-56.24-1.52
				c-10.41,0-41.68,1.5-41.99,1.52C138.36,180.75,138.34,180.75,138.32,180.75z"/>
		</g>
		<g>
			<path class="st6" d="M136.02,179.23c-0.51,0-0.99-0.33-1.18-0.87c-0.25-0.69,0.08-1.47,0.73-1.73c0.37-0.15,9.37-3.71,28.91-4.84
				c38.78-2.24,69.78,3.46,70.09,3.51c0.69,0.13,1.15,0.82,1.02,1.55c-0.12,0.73-0.77,1.22-1.46,1.09
				c-0.31-0.06-31.06-5.7-69.51-3.48c-19.08,1.1-28.06,4.63-28.15,4.67C136.32,179.21,136.17,179.23,136.02,179.23z"/>
		</g>
		<g>
			<path class="st6" d="M130.03,177.21c-0.22,0-0.44-0.06-0.64-0.18c-0.6-0.37-0.8-1.19-0.46-1.83c0.67-1.23,17.33-29.85,99.75-9.93
				c0.68,0.17,1.11,0.88,0.95,1.61c-0.16,0.72-0.84,1.17-1.51,1.01c-80.27-19.4-96.85,8.38-97.01,8.67
				C130.88,176.97,130.46,177.21,130.03,177.21z"/>
		</g>
		<g>
			<path class="st6" d="M127.15,177.21c-0.17,0-0.34-0.04-0.51-0.11c-0.64-0.3-0.93-1.09-0.65-1.76
				c0.6-1.47,15.68-35.68,93.26-19.36c0.69,0.14,1.13,0.85,0.99,1.58c-0.14,0.73-0.8,1.2-1.49,1.06
				c-75.36-15.85-90.32,17.47-90.46,17.81C128.1,176.91,127.64,177.21,127.15,177.21z"/>
		</g>
		<g>
			<path class="st6" d="M118.14,178.33c-0.43,0-0.84-0.23-1.08-0.64c-0.1-0.15-3.95-5.93-23.2-7.89
				c-37.16-3.78-72.52,4.05-72.87,4.13c-0.68,0.15-1.35-0.31-1.5-1.03c-0.15-0.73,0.29-1.44,0.97-1.59c0.36-0.08,36.1-8,73.64-4.17
				c20.69,2.11,24.74,8.47,25.13,9.19c0.35,0.64,0.15,1.46-0.46,1.83C118.57,178.27,118.35,178.33,118.14,178.33z"/>
		</g>
		<g>
			<path class="st6" d="M110.23,189.08H11.9c-0.7,0-1.26-0.6-1.26-1.34c0-0.74,0.57-1.34,1.26-1.34h98.33c0.7,0,1.26,0.6,1.26,1.34
				C111.49,188.48,110.93,189.08,110.23,189.08z"/>
		</g>
		<g>
			<path class="st6" d="M111.38,186.3H13.05c-0.7,0-1.26-0.6-1.26-1.34c0-0.74,0.57-1.34,1.26-1.34h98.33c0.7,0,1.26,0.6,1.26,1.34
				C112.64,185.7,112.08,186.3,111.38,186.3z"/>
		</g>
		<g>
			<path class="st6" d="M112.53,183.53H14.2c-0.7,0-1.26-0.6-1.26-1.34c0-0.74,0.57-1.34,1.26-1.34h98.33c0.7,0,1.26,0.6,1.26,1.34
				C113.79,182.93,113.23,183.53,112.53,183.53z"/>
		</g>
		<g>
			<path class="st6" d="M113.68,180.75c-0.02,0-0.04,0-0.06,0c-0.31-0.02-31.58-1.52-41.99-1.52c-13.84,0-55.82,1.5-56.24,1.52
				c-0.69,0.07-1.28-0.55-1.31-1.29c-0.02-0.74,0.52-1.36,1.22-1.39c0.42-0.02,42.44-1.52,56.33-1.52c10.47,0,41.79,1.5,42.11,1.52
				c0.7,0.03,1.24,0.66,1.21,1.4C114.91,180.19,114.35,180.75,113.68,180.75z"/>
		</g>
		<g>
			<path class="st6" d="M115.98,179.23c-0.15,0-0.3-0.03-0.45-0.09c-0.09-0.03-9.07-3.57-28.15-4.67
				c-38.47-2.22-69.21,3.42-69.52,3.48c-0.69,0.13-1.34-0.36-1.46-1.09c-0.12-0.73,0.34-1.43,1.03-1.55
				c0.31-0.06,31.32-5.76,70.09-3.51c19.53,1.13,28.54,4.69,28.91,4.84c0.65,0.26,0.98,1.04,0.73,1.73
				C116.97,178.9,116.49,179.23,115.98,179.23z"/>
		</g>
		<g>
			<path class="st6" d="M121.97,177.21c-0.43,0-0.86-0.24-1.09-0.66c-0.21-0.37-16.85-28.04-97.01-8.66
				c-0.68,0.16-1.36-0.29-1.51-1.01c-0.15-0.72,0.27-1.44,0.95-1.61c82.42-19.91,99.08,8.71,99.75,9.93
				c0.35,0.64,0.14,1.46-0.46,1.83C122.41,177.15,122.19,177.21,121.97,177.21z"/>
		</g>
		<g>
			<path class="st6" d="M124.85,177.21c-0.48,0-0.95-0.3-1.16-0.8l0,0c-0.14-0.34-15.09-33.66-90.46-17.81
				c-0.69,0.15-1.35-0.33-1.48-1.06c-0.14-0.73,0.31-1.43,0.99-1.58c77.58-16.33,92.66,17.89,93.26,19.36
				c0.28,0.68-0.01,1.47-0.65,1.77C125.19,177.17,125.02,177.21,124.85,177.21z"/>
		</g>
		<g>
			<path class="st6" d="M240.11,189.08h-98.33c-0.7,0-1.26-0.6-1.26-1.34c0-0.74,0.57-1.34,1.26-1.34h98.33
				c0.7,0,1.26,0.6,1.26,1.34C241.37,188.48,240.8,189.08,240.11,189.08z"/>
		</g>
		<g>
			<rect x="9.5" y="189.32" class="st5" width="98.67" height="10.53"/>
		</g>
		<g>
			<rect x="143.84" y="189.32" class="st5" width="98.66" height="10.53"/>
		</g>
	</g>
	<g>
		<g>
			<g>
				<path class="st5" d="M139.13,193.58c0.75,1.63,1.2,3.39,1.33,5.19l12.25-0.9c-0.23-3.31-1.07-6.6-2.46-9.61L139.13,193.58z"/>
			</g>
		</g>
		<g>
			<g>
				<path class="st5" d="M135.27,188.48c1.36,1.15,2.51,2.57,3.38,4.14l10.7-6.14c-1.6-2.9-3.72-5.5-6.22-7.62L135.27,188.48z"/>
			</g>
		</g>
		<g>
			<g>
				<path class="st5" d="M129.67,185.54c1.7,0.45,3.32,1.23,4.76,2.28l7.15-10.18c-2.65-1.94-5.65-3.38-8.81-4.22L129.67,185.54z"/>
			</g>
		</g>
		<g>
			<g>
				<path class="st5" d="M123.36,185.31c1.73-0.32,3.55-0.32,5.28,0l2.22-12.32c-3.22-0.6-6.5-0.6-9.71,0L123.36,185.31z"/>
			</g>
		</g>
		<g>
			<g>
				<path class="st5" d="M117.57,187.82c1.44-1.05,3.06-1.83,4.76-2.28l-3.1-12.12c-3.16,0.84-6.17,2.28-8.81,4.22L117.57,187.82z"
					/>
			</g>
		</g>
		<g>
			<g>
				<path class="st5" d="M113.36,192.62c0.86-1.57,2.01-2.98,3.38-4.14l-7.86-9.63c-2.51,2.12-4.62,4.72-6.22,7.62L113.36,192.62z"
					/>
			</g>
		</g>
		<g>
			<g>
				<path class="st5" d="M111.55,198.76c0.13-1.8,0.57-3.56,1.33-5.19l-11.11-5.33c-1.39,3.01-2.23,6.3-2.46,9.61L111.55,198.76z"/>
			</g>
		</g>
	</g>
</g>
<g>
</g>
<g>
</g>
<g>
</g>
<g>
</g>
<g>
</g>
<g>
</g>
<g>
</g>
<g>
</g>
<g>
</g>
<g>
</g>
<g>
</g>
<g>
</g>
<g>
</g>
<g>
</g>
<g>
</g>
</svg>
