<?xml version="1.0" encoding="utf-8"?>
<!-- Generator: Adobe Illustrator 23.1.0, SVG Export Plug-In . SVG Version: 6.00 Build 0)  -->
<svg version="1.1" id="Layer_1" xmlns="http://www.w3.org/2000/svg" xmlns:xlink="http://www.w3.org/1999/xlink" x="0px" y="0px"
	 viewBox="0 0 200 200" style="enable-background:new 0 0 200 200;" xml:space="preserve">
<style type="text/css">
	.st0{fill:url(#SVGID_1_);}
	.st1{fill:#FEBF00;}
	.st2{fill:#FCD165;}
	.st3{fill:#EF7216;}
	.st4{fill:#FFA05F;}
	.st5{fill:#FFFFFF;}
</style>
<radialGradient id="SVGID_1_" cx="100" cy="100" r="100" gradientUnits="userSpaceOnUse">
	<stop  offset="0" style="stop-color:#FFA05F"/>
	<stop  offset="0.2153" style="stop-color:#FE9D5A"/>
	<stop  offset="0.4661" style="stop-color:#FB944C"/>
	<stop  offset="0.7337" style="stop-color:#F68535"/>
	<stop  offset="1" style="stop-color:#EF7216"/>
</radialGradient>
<rect class="st0" width="200" height="200"/>
<rect x="-187" y="-96" class="st1" width="57" height="63"/>
<rect x="-187" y="-173" class="st2" width="57" height="63"/>
<rect x="-187" y="-19" class="st3" width="57" height="63"/>
<rect x="-187" y="58" class="st4" width="57" height="63"/>
<circle class="st5" cx="101.75" cy="101.75" r="68.75"/>
<g>
	<path class="st1" d="M123.52,75.48c4.01,2.25,7.16,5.42,9.44,9.49c2.28,4.08,3.42,8.82,3.42,14.24c0,5.42-1.14,10.16-3.42,14.24
		c-2.28,4.08-5.43,7.24-9.44,9.49c-4.01,2.25-8.46,3.38-13.36,3.38c-7.24,0-12.76-2.28-16.54-6.85v6.07H79.05V52.92h15.27v25.54
		c3.85-4.24,9.13-6.36,15.85-6.36C115.06,72.1,119.51,73.23,123.52,75.48z M117.16,109.83c2.51-2.64,3.77-6.18,3.77-10.62
		c0-4.44-1.26-7.98-3.77-10.62c-2.51-2.64-5.72-3.96-9.64-3.96c-3.91,0-7.13,1.32-9.64,3.96c-2.51,2.64-3.77,6.18-3.77,10.62
		c0,4.44,1.26,7.98,3.77,10.62c2.51,2.64,5.72,3.96,9.64,3.96C111.44,113.79,114.65,112.47,117.16,109.83z"/>
</g>
</svg>
