<?xml version="1.0" encoding="utf-8"?>
<!-- Generator: Adobe Illustrator 23.1.0, SVG Export Plug-In . SVG Version: 6.00 Build 0)  -->
<svg version="1.1" id="Layer_1" xmlns="http://www.w3.org/2000/svg" xmlns:xlink="http://www.w3.org/1999/xlink" x="0px" y="0px"
	 viewBox="0 0 200 200" style="enable-background:new 0 0 200 200;" xml:space="preserve">
<style type="text/css">
	.st0{fill:url(#SVGID_1_);}
	.st1{fill:#FEBF00;}
	.st2{fill:#FCD165;}
	.st3{fill:#EF7216;}
	.st4{fill:#B2550F;}
	.st5{fill:#FFFFFF;}
</style>
<radialGradient id="SVGID_1_" cx="100" cy="100" r="100" gradientUnits="userSpaceOnUse">
	<stop  offset="0" style="stop-color:#D37A3D"/>
	<stop  offset="0.3088" style="stop-color:#CC7233"/>
	<stop  offset="0.8265" style="stop-color:#B95D19"/>
	<stop  offset="1" style="stop-color:#B2550F"/>
</radialGradient>
<rect class="st0" width="200" height="200"/>
<rect x="-187" y="-96" class="st1" width="57" height="63"/>
<rect x="-187" y="-173" class="st2" width="57" height="63"/>
<rect x="-187" y="-19" class="st3" width="57" height="63"/>
<rect x="-187" y="58" class="st4" width="57" height="63"/>
<circle class="st5" cx="101.75" cy="101.75" r="68.75"/>
<g>
	<path class="st1" d="M89.37,122.84c-4.47-2.31-7.96-5.53-10.47-9.64c-2.51-4.11-3.77-8.77-3.77-13.99c0-5.22,1.26-9.88,3.77-13.99
		c2.51-4.11,6-7.32,10.47-9.64c4.47-2.31,9.51-3.47,15.12-3.47c5.54,0,10.39,1.16,14.53,3.47c4.14,2.32,7.16,5.63,9.05,9.93
		l-11.84,6.36c-2.74-4.83-6.69-7.24-11.84-7.24c-3.98,0-7.27,1.31-9.88,3.92c-2.61,2.61-3.91,6.17-3.91,10.67
		c0,4.5,1.3,8.06,3.91,10.67c2.61,2.61,5.9,3.91,9.88,3.91c5.22,0,9.17-2.41,11.84-7.24l11.84,6.46c-1.89,4.18-4.91,7.44-9.05,9.79
		c-4.14,2.35-8.99,3.52-14.53,3.52C98.88,126.32,93.84,125.16,89.37,122.84z"/>
</g>
</svg>
