<?xml version="1.0" encoding="utf-8"?>
<!-- Generator: Adobe Illustrator 22.0.1, SVG Export Plug-In . SVG Version: 6.00 Build 0)  -->
<svg version="1.1" id="Layer_1" xmlns="http://www.w3.org/2000/svg" xmlns:xlink="http://www.w3.org/1999/xlink" x="0px" y="0px"
	 viewBox="0 0 50 50" style="enable-background:new 0 0 50 50;" xml:space="preserve">
<style type="text/css">
	.st0{fill:#601848;}
</style>
<g>
	<path class="st0" d="M33.8,18.1l1.4-0.8c0.5-0.3,0.7-0.9,0.4-1.4c-0.3-0.5-0.9-0.7-1.4-0.4l-5.4,3.1c-0.3,0.2-0.5,0.5-0.5,0.9
		c0,0.4,0.2,0.7,0.5,0.9l5.4,3.4c0.2,0.1,0.4,0.2,0.5,0.2c0.3,0,0.7-0.2,0.9-0.5c0.3-0.5,0.2-1.1-0.3-1.4l-1.7-1.1
		c9.2,0.8,12.7,2.8,12.7,4c0,0.7-3.2,3.1-13.1,4.1c-0.8,0.1-1.3,0.8-1.3,1.6c0.1,0.7,0.7,1.3,1.4,1.3c0,0,0.1,0,0.1,0
		c4.7-0.5,15.7-2.1,15.7-7C49,22.3,46.3,19.1,33.8,18.1z"/>
	<path class="st0" d="M25.6,29.7l-5.4-3.1c-0.5-0.3-1.1-0.1-1.4,0.4c-0.3,0.5-0.1,1.1,0.4,1.4l1.6,0.9C9.4,28.7,4.3,26,4.3,24.9
		c0-0.3,1-1.7,5.7-2.9c0.8-0.2,1.2-1,1-1.7c-0.2-0.8-1-1.2-1.7-1c-5.2,1.3-7.9,3.2-7.9,5.6c0,4.9,10.9,6.8,19.2,7.2l-1.5,0.9
		c-0.5,0.3-0.6,0.9-0.3,1.4c0.2,0.3,0.5,0.5,0.9,0.5c0.2,0,0.4,0,0.5-0.2l5.4-3.4c0.3-0.2,0.5-0.5,0.5-0.9
		C26.1,30.2,25.9,29.9,25.6,29.7z"/>
</g>
</svg>
