<?xml version="1.0" encoding="utf-8"?>
<!-- Generator: Adobe Illustrator 22.0.1, SVG Export Plug-In . SVG Version: 6.00 Build 0)  -->
<svg version="1.1" id="Layer_1" xmlns="http://www.w3.org/2000/svg" xmlns:xlink="http://www.w3.org/1999/xlink" x="0px" y="0px"
	 viewBox="0 0 30 30" style="enable-background:new 0 0 30 30;" xml:space="preserve">
<style type="text/css">
	.st0{fill:#2DC997;}
</style>
<path class="st0" d="M12.2,14.6L1.3,3.8C0.5,3,0.5,1.7,1.3,0.9s2.1-0.8,2.9,0l12.3,12.3c0.8,0.8,0.8,2,0.1,2.8L4.3,28.4
	C3.8,28.8,3.3,29,2.8,29s-1.1-0.2-1.5-0.6c-0.8-0.8-0.8-2.1,0-2.9L12.2,14.6z"/>
<path class="st0" d="M24.8,14.6L13.9,3.8c-0.8-0.8-0.8-2.1,0-2.9s2.1-0.8,2.9,0l12.3,12.3c0.8,0.8,0.8,2,0.1,2.8L16.8,28.4
	c-0.4,0.4-0.9,0.6-1.5,0.6c-0.5,0-1.1-0.2-1.5-0.6c-0.8-0.8-0.8-2.1,0-2.9L24.8,14.6z"/>
</svg>
