<?xml version="1.0" encoding="utf-8"?>
<!-- Generator: Adobe Illustrator 24.2.1, SVG Export Plug-In . SVG Version: 6.00 Build 0)  -->
<svg version="1.1" id="Layer_1" xmlns="http://www.w3.org/2000/svg" xmlns:xlink="http://www.w3.org/1999/xlink" x="0px" y="0px"
	 viewBox="0 0 40 40" style="enable-background:new 0 0 40 40;" xml:space="preserve">
<style type="text/css">
	.st0{fill:#3F51B5;}
</style>
<path class="st0" d="M20,0C9,0,0,9,0,20s9,20,20,20s20-9,20-20S31,0,20,0z M25.4,29.8c-0.6,0.6-1.5,0.6-2.1,0L14.6,21
	c-0.6-0.6-0.6-1.4,0-2l8.8-8.8c0.3-0.3,0.7-0.4,1-0.4s0.7,0.1,1,0.4c0.6,0.6,0.6,1.5,0,2.1L17.7,20l7.7,7.7
	C26,28.3,26,29.2,25.4,29.8z"/>
</svg>
